<svg width="60" height="60" viewBox="0 0 60 60" fill="none" xmlns="http://www.w3.org/2000/svg">
<g clip-path="url(#clip0_671_2750)">
<mask id="mask0_671_2750" style="mask-type:luminance" maskUnits="userSpaceOnUse" x="0" y="0" width="60" height="60">
<path d="M60 0H0V60H60V0Z" fill="white"/>
</mask>
<g mask="url(#mask0_671_2750)">
<path d="M36.3258 10.1869C40.5747 5.48847 47.8279 5.12407 52.5265 9.373C57.2249 13.6219 57.5894 20.8752 53.3405 25.5736L31.5366 49.6841L31.5078 49.7161C31.5018 49.7227 31.4958 49.7292 31.4898 49.7358C25.6874 56.096 15.8291 56.5749 9.4371 50.7944C3.02788 44.9984 2.53078 35.1041 8.32682 28.6947L24.268 11.0671C25.1358 10.1076 26.6168 10.0332 27.5763 10.9009C28.5357 11.7685 28.6101 13.2497 27.7426 14.2091L11.8013 31.8369C7.74054 36.3271 8.08881 43.2592 12.5792 47.3199C17.0695 51.3807 24.0016 51.0324 28.0623 46.5421L49.8659 22.4317C52.3795 19.6522 52.1641 15.3611 49.3844 12.8475C46.6049 10.3338 42.3139 10.5494 39.8003 13.329L21.2888 33.7989C20.3541 34.8324 20.4342 36.428 21.4677 37.3625C22.5014 38.2972 24.0968 38.2171 25.0315 37.1834L37.5072 23.3879C38.375 22.4285 39.856 22.3541 40.8155 23.2216C41.7749 24.0894 41.8493 25.5704 40.9818 26.5299L28.5059 40.3256C25.8359 43.2779 21.2781 43.5069 18.3257 40.8371C15.3981 38.1896 15.1484 33.6856 17.7477 30.7316L17.7854 30.6888L36.3258 10.1869Z" fill="#BEBEBE"/>
</g>
</g>
<defs>
<clipPath id="clip0_671_2750">
<rect width="60" height="60" fill="white"/>
</clipPath>
</defs>
</svg>
