<svg width="60" height="60" viewBox="0 0 60 60" fill="none" xmlns="http://www.w3.org/2000/svg">
<path d="M3.75 16.8749L28.6249 11.5446C29.5314 11.3504 30.4686 11.3504 31.3751 11.5446L56.25 16.8749V46.4999C56.25 51.8847 51.8848 56.2499 46.5 56.2499H13.5C8.11522 56.2499 3.75 51.8847 3.75 46.4999V16.8749Z" fill="#B4ACBC"/>
<path d="M5.625 20.4069V45.9375C5.625 50.5974 9.4026 54.375 14.0625 54.375C24.0624 54.375 34.0626 54.375 44.0625 54.375L54.375 43.7355V20.4069L30.8706 15.9375L5.625 20.4069Z" fill="#F3EEF8"/>
<path d="M15.375 24.375C15.1679 24.375 15 24.5428 15 24.75V29.625C15 29.8322 15.1679 30 15.375 30H20.25C20.4572 30 20.625 29.8322 20.625 29.625V24.75C20.625 24.5428 20.4572 24.375 20.25 24.375H15.375Z" fill="#998EA4"/>
<path d="M27.5625 24.375C27.3553 24.375 27.1875 24.5428 27.1875 24.75V29.625C27.1875 29.8322 27.3553 30 27.5625 30H32.4375C32.6447 30 32.8125 29.8322 32.8125 29.625V24.75C32.8125 24.5428 32.6447 24.375 32.4375 24.375H27.5625Z" fill="#998EA4"/>
<path d="M39.375 24.75C39.375 24.5428 39.5428 24.375 39.75 24.375H44.625C44.8322 24.375 45 24.5428 45 24.75V29.625C45 29.8322 44.8322 30 44.625 30H39.75C39.5428 30 39.375 29.8322 39.375 29.625V24.75Z" fill="#998EA4"/>
<path d="M15.375 33.75C15.1679 33.75 15 33.9178 15 34.125V39C15 39.2072 15.1679 39.375 15.375 39.375H20.25C20.4572 39.375 20.625 39.2072 20.625 39V34.125C20.625 33.9178 20.4572 33.75 20.25 33.75H15.375Z" fill="#998EA4"/>
<path d="M27.1875 34.125C27.1875 33.9178 27.3553 33.75 27.5625 33.75H32.4375C32.6447 33.75 32.8125 33.9178 32.8125 34.125V39C32.8125 39.2072 32.6447 39.375 32.4375 39.375H27.5625C27.3553 39.375 27.1875 39.2072 27.1875 39V34.125Z" fill="#998EA4"/>
<path d="M15.375 43.125C15.1679 43.125 15 43.2928 15 43.5V48.375C15 48.5822 15.1679 48.75 15.375 48.75H20.25C20.4572 48.75 20.625 48.5822 20.625 48.375V43.5C20.625 43.2928 20.4572 43.125 20.25 43.125H15.375Z" fill="#998EA4"/>
<path d="M27.1875 43.5C27.1875 43.2928 27.3553 43.125 27.5625 43.125H32.4375C32.6447 43.125 32.8125 43.2928 32.8125 43.5V48.375C32.8125 48.5822 32.6447 48.75 32.4375 48.75H27.5625C27.3553 48.75 27.1875 48.5822 27.1875 48.375V43.5Z" fill="#998EA4"/>
<path d="M39.75 43.125C39.5428 43.125 39.375 43.2928 39.375 43.5V48.375C39.375 48.5822 39.5428 48.75 39.75 48.75H44.625C44.8322 48.75 45 48.5822 45 48.375V43.5C45 43.2928 44.8322 43.125 44.625 43.125H39.75Z" fill="#998EA4"/>
<path d="M56.2686 49.2V43.125L47.8123 47.8125L43.1436 56.25H49.2186C53.1186 56.25 56.2686 53.0812 56.2686 49.2Z" fill="#998EA4"/>
<path d="M43.1436 50.175V56.25L56.2686 43.125H50.1936C46.3123 43.125 43.1436 46.2938 43.1436 50.175Z" fill="#E1D8EC"/>
<path d="M56.25 16.4724V20.625H3.75V16.4724C3.75 12.5462 6.91762 9.35622 10.7975 9.37508H49.2024C53.0824 9.37508 56.25 12.5462 56.25 16.4724Z" fill="#0084CE"/>
<path d="M39.75 33.75C39.5428 33.75 39.375 33.9178 39.375 34.125V39C39.375 39.2072 39.5428 39.375 39.75 39.375H44.625C44.8322 39.375 45 39.2072 45 39V34.125C45 33.9178 44.8322 33.75 44.625 33.75H39.75Z" fill="#0084CE"/>
<path d="M15 12.5543C15 13.9089 16.0457 15 17.3438 15C18.6418 15 19.6875 13.9089 19.6875 12.5543V6.19566C19.6875 4.84114 18.6418 3.75 17.3438 3.75C16.0457 3.75 15 4.84114 15 6.19566V12.5543Z" fill="#CDC4D6"/>
<path d="M40.3125 12.5543C40.3125 13.9089 41.3582 15 42.6562 15C43.9543 15 45 13.9089 45 12.5543V6.19566C45 4.84114 43.9543 3.75 42.6562 3.75C41.3582 3.75 40.3125 4.84114 40.3125 6.19566V12.5543Z" fill="#CDC4D6"/>
</svg>
