<svg width="60" height="60" viewBox="0 0 60 60" fill="none" xmlns="http://www.w3.org/2000/svg">
<path d="M9.375 8.4375C9.375 6.88419 10.6342 5.625 12.1875 5.625H47.8125C49.3657 5.625 50.625 6.88419 50.625 8.4375V53.4375C50.625 54.9907 49.3657 56.25 47.8125 56.25H12.1875C10.6342 56.25 9.375 54.9907 9.375 53.4375V8.4375Z" fill="#E19747"/>
<path d="M46.875 11.25C46.875 10.2145 46.0356 9.375 45 9.375H15C13.9645 9.375 13.125 10.2145 13.125 11.25V50.625C13.125 51.6606 13.9645 52.5 15 52.5H34.8484C35.1238 52.5 35.3932 52.4394 35.6383 52.3254L36.2404 50.8573L37.425 43.1961L45.7811 41.7281L46.6995 41.2654C46.8141 41.0197 46.875 40.7498 46.875 40.4734V11.25Z" fill="#F3EEF8"/>
<path d="M46.7066 41.25H37.5C36.4644 41.25 35.625 42.0894 35.625 43.125V52.3316C35.8275 52.2394 36.0139 52.1111 36.1742 51.9508L46.3258 41.7992C46.4861 41.6389 46.6144 41.4525 46.7066 41.25Z" fill="#CDC4D6"/>
<path d="M33.75 7.5C33.75 5.42893 32.0711 3.75 30 3.75C27.9289 3.75 26.25 5.42893 26.25 7.5H24.375C22.3039 7.5 20.625 9.17893 20.625 11.25V14.0625C20.625 14.5803 21.0448 15 21.5625 15H38.4375C38.9552 15 39.375 14.5803 39.375 14.0625V11.25C39.375 9.17893 37.6961 7.5 35.625 7.5H33.75ZM31.875 7.5C31.875 8.53552 31.0356 9.375 30 9.375C28.9644 9.375 28.125 8.53552 28.125 7.5C28.125 6.46447 28.9644 5.625 30 5.625C31.0356 5.625 31.875 6.46447 31.875 7.5Z" fill="#9B9B9B"/>
<path d="M16.875 23.4375C16.875 22.9198 17.2947 22.5 17.8125 22.5H42.1875C42.7052 22.5 43.125 22.9198 43.125 23.4375C43.125 23.9552 42.7052 24.375 42.1875 24.375H17.8125C17.2947 24.375 16.875 23.9552 16.875 23.4375Z" fill="#9B9B9B"/>
<path d="M16.875 29.0625C16.875 28.5448 17.2947 28.125 17.8125 28.125H42.1875C42.7052 28.125 43.125 28.5448 43.125 29.0625C43.125 29.5802 42.7052 30 42.1875 30H17.8125C17.2947 30 16.875 29.5802 16.875 29.0625Z" fill="#9B9B9B"/>
<path d="M17.8125 33.75C17.2947 33.75 16.875 34.1698 16.875 34.6875C16.875 35.2052 17.2947 35.625 17.8125 35.625H42.1875C42.7052 35.625 43.125 35.2052 43.125 34.6875C43.125 34.1698 42.7052 33.75 42.1875 33.75H17.8125Z" fill="#9B9B9B"/>
<path d="M16.875 40.3125C16.875 39.7948 17.2947 39.375 17.8125 39.375H32.8125C33.3302 39.375 33.75 39.7948 33.75 40.3125C33.75 40.8302 33.3302 41.25 32.8125 41.25H17.8125C17.2947 41.25 16.875 40.8302 16.875 40.3125Z" fill="#9B9B9B"/>
</svg>
