<svg width="60" height="60" viewBox="0 0 60 60" fill="none" xmlns="http://www.w3.org/2000/svg">
<path d="M38.1435 4.29917C37.7918 3.94755 37.3149 3.75 36.8177 3.75H13.125C11.0539 3.75 9.375 5.42893 9.375 7.5V52.5C9.375 54.5711 11.0539 56.25 13.125 56.25H46.875C48.9461 56.25 50.625 54.5711 50.625 52.5V17.5574C50.625 17.0601 50.4274 16.5832 50.0758 16.2316L38.1435 4.29917Z" fill="#B4ACBC"/>
<path d="M36.9039 5.62502L13.125 5.625C12.0895 5.625 11.25 6.46447 11.25 7.5V52.5C11.25 53.5356 12.0895 54.375 13.125 54.375H46.875C47.9106 54.375 48.75 53.5356 48.75 52.5V17.725L36.9039 5.62502Z" fill="#F3EEF8"/>
<path d="M17.8125 22.5H42.1875C42.7052 22.5 43.125 22.9198 43.125 23.4375C43.125 23.9552 42.7052 24.375 42.1875 24.375H17.8125C17.2947 24.375 16.875 23.9552 16.875 23.4375C16.875 22.9198 17.2947 22.5 17.8125 22.5ZM17.8125 28.125C17.2947 28.125 16.875 28.5448 16.875 29.0625C16.875 29.5802 17.2947 30 17.8125 30H42.1875C42.7052 30 43.125 29.5802 43.125 29.0625C43.125 28.5448 42.7052 28.125 42.1875 28.125H17.8125ZM16.875 34.6875C16.875 34.1698 17.2947 33.75 17.8125 33.75H42.1875C42.7052 33.75 43.125 34.1698 43.125 34.6875C43.125 35.2052 42.7052 35.625 42.1875 35.625H17.8125C17.2947 35.625 16.875 35.2052 16.875 34.6875ZM17.8125 39.375C17.2947 39.375 16.875 39.7948 16.875 40.3125C16.875 40.8302 17.2947 41.25 17.8125 41.25H32.8125C33.3302 41.25 33.75 40.8302 33.75 40.3125C33.75 39.7948 33.3302 39.375 32.8125 39.375H17.8125Z" fill="#998EA4"/>
<path d="M48.7504 17.7248H40.1051C38.3374 17.7248 36.9043 16.2918 36.9043 14.524V5.625L48.7504 17.7248Z" fill="#CDC4D6"/>
<path d="M50.1868 37.8231L48.1622 31.7643L42.9199 28.0024L23.0303 42.7199L25.1833 48.6378L30.2972 52.5406L50.1868 37.8231Z" fill="#FF822D"/>
<path d="M20.8223 49.9773L21.1442 51.6524L22.7104 52.5301L30.2843 52.519L23.0468 42.7383L20.8223 49.9773Z" fill="#FFCE7C"/>
<path d="M20.0371 52.5337L20.8224 49.9783L22.7105 52.5298L20.0371 52.5337Z" fill="#402A32"/>
<path d="M49.7263 22.966C51.3911 21.7341 53.7393 22.0849 54.9714 23.7499L57.7771 27.5418C59.009 29.2066 58.658 31.5548 56.9932 32.7867L53.1331 35.6431L47.8738 31.7644L45.8662 25.8222L49.7263 22.966Z" fill="#F92F60"/>
<path d="M45.8661 25.8225L53.1332 35.6432L50.1869 37.8233L42.9199 28.0026L45.8661 25.8225Z" fill="#D3D3D3"/>
</svg>
