<svg width="60" height="60" viewBox="0 0 60 60" fill="none" xmlns="http://www.w3.org/2000/svg">
<path d="M18.7402 29.2173C18.7402 26.6298 20.8403 24.5298 23.4278 24.5298C26.0153 24.5298 28.1153 26.6298 28.1153 29.2173V45.005H41.1465V37.505H56.2215V53.93C56.2215 55.205 55.1903 56.255 53.8965 56.255H36.5715C31.9028 56.255 28.1153 52.4675 28.1153 47.7987V51.5673C28.1153 54.1548 26.0153 56.2548 23.4278 56.2548C20.8403 56.2548 18.7402 54.1548 18.7402 51.5673V29.2173Z" fill="#D67D00"/>
<path d="M24.4592 18.0989L54.1779 30.9988C55.4342 31.5426 56.2404 32.7613 56.2404 34.1301V52.5238H43.4717C39.9467 52.5238 36.7779 50.9113 34.8092 48.2113C33.8904 46.9551 32.1842 46.6176 30.8342 47.3676C28.2467 48.8113 24.7217 50.7801 24.7217 50.7801C22.0326 52.3299 18.6183 51.4063 17.0532 48.7502H15V42.1877L12.5154 42.2113C11.6341 43.7113 10.0591 44.5551 8.44664 44.5551C7.64039 44.5551 6.83414 44.3488 6.10289 43.9176C3.85289 42.6051 3.08414 39.7551 4.37789 37.5051L14.1279 21.2301C16.3216 17.7802 20.7092 16.4489 24.4592 18.0989ZM15.2354 37.5002H22.9688V38.7945L27.2154 36.3426C27.5003 36.1781 27.7916 36.0426 28.0869 35.934C27.7779 32.6046 24.9831 30.0051 21.5717 30.0051C20.3154 30.0051 19.1529 32.5551 18.5341 33.6613L15.2354 37.5002Z" fill="#FFC83D"/>
<path d="M35.9714 3.90489L40.4339 6.49239C40.9964 6.81114 41.1839 7.52364 40.8651 8.08614L23.2382 38.6385L19.0964 41.0299C16.415 42.5861 15.4775 46.0174 17.0338 48.7174C17.0982 48.8284 17.1658 48.9362 17.2364 49.0412L16.19 50.8549C15.89 51.3799 15.4588 51.8486 14.9525 52.2049L9.79628 56.1049C9.19628 56.5174 8.37128 56.0486 8.42753 55.3174L9.14003 48.8674C9.19628 48.2299 9.38378 47.6111 9.70253 47.0674L34.3776 4.33614C34.6964 3.77364 35.4089 3.58614 35.9714 3.90489Z" fill="#F95725"/>
<path d="M16.0344 51.1051L9.6037 47.2466C9.34484 47.7453 9.19034 48.2988 9.14019 48.8673L8.64355 53.3632L11.398 54.8934L14.9527 52.2048C15.377 51.9063 15.7486 51.5287 16.0344 51.1051Z" fill="#FBB8AB"/>
<path d="M8.78378 51.98L8.42753 55.3175C8.37128 56.0487 9.19628 56.5175 9.79628 56.105L12.4213 54.0987L8.78378 51.98Z" fill="black"/>
<path d="M30.7402 10.6362L37.2277 14.3862L39.1777 11.0112L32.6902 7.26123L30.7402 10.6362Z" fill="#D3D3D3"/>
</svg>
