<svg width="60" height="60" viewBox="0 0 60 60" fill="none" xmlns="http://www.w3.org/2000/svg">
<path d="M33.75 41.7H26.25V56.2875H33.75V41.7Z" fill="#6D4534"/>
<path d="M48.5625 28.5C49.275 27.075 49.6875 25.4625 49.6875 23.7562C49.6875 18.3 45.5812 13.8187 40.3125 13.2C40.3125 13.1812 40.3125 13.1437 40.3125 13.125C40.3125 7.95 36.1125 3.75 30.9375 3.75C25.7625 3.75 21.5625 7.95 21.5625 13.125C21.5625 13.1437 21.5625 13.1812 21.5625 13.2C16.275 13.8187 12.1875 18.3 12.1875 23.7562C12.1875 25.4625 12.6 27.075 13.3125 28.5C10.95 30.2625 9.375 33.0562 9.375 36.225C9.375 41.55 13.725 45.9 19.05 45.9H42.825C48.15 45.9 52.5 41.55 52.5 36.225C52.5 33.0562 50.925 30.2625 48.5625 28.5Z" fill="#44911B"/>
</svg>
