<svg width="60" height="60" viewBox="0 0 60 60" fill="none" xmlns="http://www.w3.org/2000/svg">
<path d="M46.3621 27.4136C47.1949 28.2881 47.5977 28.7107 47.7186 29.7187C47.7696 30.1948 47.7182 30.6763 47.5677 31.131C47.4173 31.5855 47.1713 32.0026 46.8462 32.3544C46.5212 32.706 46.1247 32.984 45.6833 33.1698C45.2421 33.3555 44.7661 33.4447 44.2874 33.4312C44.3131 33.7085 44.3406 33.983 44.3678 34.2549C44.4604 35.1768 44.5499 36.0688 44.5499 36.9375C44.5551 37.2196 44.4505 37.4928 44.2581 37.6993C44.0656 37.9057 43.8004 38.0291 43.5186 38.0437L40.3686 38.1562C40.2638 38.2198 40.1772 38.3092 40.1172 38.4159C40.057 38.5226 40.0253 38.6431 40.0253 38.7656C40.0253 38.888 40.057 39.0086 40.1172 39.1153C40.1772 39.222 40.2638 39.3114 40.3686 39.375L43.4999 41.3812C43.7554 41.5415 43.9544 41.7778 44.0686 42.057C44.1829 42.3361 44.2071 42.644 44.1374 42.9375C43.1061 46.7625 40.3686 49.3875 34.1999 50.1562C33.0115 50.2944 31.8145 50.3446 30.6186 50.3062C30.1437 50.292 29.6764 50.43 29.2853 50.6998C28.894 50.9696 28.5992 51.3571 28.4436 51.8062L27.0936 55.5562H8.34366L12.4312 42.6375C12.8388 41.3377 12.7175 39.9296 12.0937 38.7187C9.86241 34.4437 6.29991 27.0562 5.73741 22.5C5.27023 18.8201 6.28386 15.1054 8.55535 12.1729C10.8268 9.24035 14.1701 7.33017 17.8499 6.86247L26.8686 5.73747C30.5416 5.29167 34.2415 6.31719 37.1609 8.5901C40.0802 10.863 41.9815 14.1987 42.4499 17.8687L43.1624 23.4937C44.6104 25.5748 45.6454 26.6613 46.3621 27.4136Z" fill="#533566"/>
<path d="M57.131 41.4375V37.8C57.1489 37.6755 57.1352 37.5486 57.0909 37.4308C57.0469 37.3131 56.9737 37.2083 56.8785 37.1262C56.7834 37.044 56.669 36.987 56.546 36.9606C56.423 36.9343 56.2954 36.9392 56.1748 36.975L50.0998 38.85C49.9498 38.8993 49.8191 38.9948 49.7265 39.1228C49.6339 39.2507 49.584 39.4047 49.584 39.5625C49.584 39.7206 49.6339 39.8745 49.7265 40.0024C49.8191 40.1303 49.9498 40.2257 50.0998 40.275L56.1748 42.15C56.2858 42.1819 56.4026 42.1875 56.516 42.1667C56.6295 42.1461 56.7367 42.0994 56.8292 42.0304C56.9218 41.9614 56.9972 41.8722 57.0495 41.7692C57.1018 41.6665 57.1297 41.553 57.131 41.4375Z" fill="#533566"/>
<path d="M51.9747 29.9999L54.5434 32.5687C54.6244 32.651 54.6854 32.7509 54.7216 32.8606C54.7578 32.9703 54.7679 33.0869 54.7516 33.2011C54.7352 33.3155 54.6929 33.4244 54.6274 33.5197C54.562 33.6149 54.4756 33.6937 54.3747 33.7499L48.7497 36.7499C48.61 36.8199 48.4519 36.8444 48.2974 36.8202C48.1431 36.7959 48.0003 36.724 47.8887 36.6145C47.7771 36.505 47.7027 36.3635 47.6755 36.2097C47.6483 36.0558 47.6699 35.8972 47.7372 35.7562L50.7372 30.1312C50.7948 30.0226 50.878 29.9298 50.9798 29.8608C51.0816 29.792 51.1988 29.7492 51.3211 29.7361C51.4433 29.7232 51.5669 29.7404 51.6807 29.7865C51.7947 29.8325 51.8958 29.9058 51.9747 29.9999Z" fill="#533566"/>
<path d="M54.5434 46.7062L51.9747 49.275C51.8958 49.3691 51.7947 49.4424 51.6807 49.4883C51.5669 49.5345 51.4433 49.5517 51.3211 49.5388C51.1988 49.5258 51.0816 49.4829 50.9798 49.4141C50.878 49.3451 50.7948 49.2523 50.7372 49.1437L47.7372 43.5187C47.6699 43.3777 47.6483 43.2191 47.6755 43.0653C47.7027 42.9114 47.7771 42.7698 47.8887 42.6603C48.0003 42.5508 48.1431 42.479 48.2974 42.4548C48.4519 42.4305 48.61 42.455 48.7497 42.525L54.3747 45.525C54.4756 45.5812 54.562 45.66 54.6274 45.7552C54.6929 45.8505 54.7352 45.9594 54.7516 46.0738C54.7679 46.1882 54.7578 46.3046 54.7216 46.4143C54.6854 46.524 54.6244 46.6239 54.5434 46.7062Z" fill="#533566"/>
</svg>
