<svg width="60" height="60" viewBox="0 0 60 60" fill="none" xmlns="http://www.w3.org/2000/svg">
<path d="M5.62559 13.125L19.6881 35.625L51.5631 45L55.8872 46.5116C56.0959 46.2984 56.2225 46.0031 56.2131 45.675V8.6625C56.2131 8.025 55.7068 7.5 55.0506 7.5H4.91309C4.59434 7.5 4.30371 7.63125 4.09277 7.84219L5.62559 13.125Z" fill="#FFCE7C"/>
<path d="M4.9125 46.8563H55.0687C55.3875 46.8563 55.6781 46.7251 55.8866 46.5119L54.375 45.0001L5.625 9.3751L4.09219 7.84229C3.88125 8.05322 3.75 8.34385 3.75 8.6626V45.6938C3.75 46.3313 4.275 46.8563 4.9125 46.8563Z" fill="#E19747"/>
<path d="M5.625 44.9813V9.375H54.3563V44.9813H5.625Z" fill="#44911B"/>
<path d="M16.875 33.7772C20.4424 30.8314 25.0162 29.0625 30 29.0625C34.9873 29.0625 39.5606 30.834 43.125 33.7836L45.9375 45L43.125 56.25H16.875L14.0625 45L16.875 33.7772Z" fill="#8C5543"/>
<path d="M21.1688 35.5125L23.7188 30H26.2501V56.25L21.0001 41.4937C20.7563 40.8375 20.9438 40.1062 21.4313 39.6187L23.9813 37.125C24.2813 36.825 24.0751 36.2813 23.6251 36.2813H21.6563C21.2626 36.2813 21.0001 35.8688 21.1688 35.5125Z" fill="#6D4534"/>
<path d="M38.925 35.5125L36.375 30H33.75V56.25L39.0938 41.4937C39.3375 40.8375 39.15 40.1062 38.6625 39.6187L36.1125 37.125C35.8125 36.825 36.0188 36.2813 36.4688 36.2813H38.4375C38.8313 36.2813 39.0938 35.8688 38.925 35.5125Z" fill="#6D4534"/>
<path d="M16.8751 33.75C12.3188 37.5562 9.35634 43.2937 9.37509 49.6875V56.25H16.8751V33.75Z" fill="#6D4534"/>
<path d="M43.125 33.75V56.25H50.625V54.3934C50.625 54.3872 50.625 54.3812 50.625 54.375L50.6062 49.6687C50.6062 43.275 47.7188 37.5375 43.125 33.75Z" fill="#6D4534"/>
<path d="M33.8439 31.5376H26.1377V56.2501H33.8439V31.5376Z" fill="#E6E6E6"/>
<path d="M30 35.0284C27.9248 35.0284 26.25 33.3034 26.25 31.1659V26.3659C26.25 24.2284 27.9248 22.5034 30 22.5034C32.0753 22.5034 33.75 24.2284 33.75 26.3659V31.1659C33.75 33.3034 32.0753 35.0284 30 35.0284Z" fill="#FCB100"/>
<path d="M24.0004 20.2717C24.0004 21.9907 22.6069 23.3842 20.8879 23.3842C19.1689 23.3842 17.7754 21.9907 17.7754 20.2717C17.7754 18.5527 19.1689 17.1592 20.8879 17.1592C22.6069 17.1592 24.0004 18.5527 24.0004 20.2717Z" fill="#FDBB11"/>
<path d="M42.225 20.2717C42.225 21.9907 40.8313 23.3842 39.1125 23.3842C37.3935 23.3842 36 21.9907 36 20.2717C36 18.5527 37.3935 17.1592 39.1125 17.1592C40.8313 17.1592 42.225 18.5527 42.225 20.2717Z" fill="#FDBB11"/>
<path d="M29.1562 6.35938C23.8687 6.35938 19.6875 10.8406 20.0625 16.1281L20.8125 26.7219C21.1312 30.0406 23.7562 32.4219 26.9437 32.4219H33.0562C36.2437 32.4219 38.8687 30.0406 39.1875 26.7219L39.9375 16.1281C40.3125 10.8594 36.1312 6.35938 30.8437 6.35938H29.1562Z" fill="#FFC83D"/>
<path d="M22.8935 19.6907C23.1748 18.5471 24.2248 17.6846 25.4623 17.6846C26.756 17.6846 27.8248 18.6033 28.0685 19.822C28.1248 20.0845 27.9185 20.3282 27.6373 20.3282H23.3998C23.0623 20.3282 22.8185 20.0282 22.8935 19.6907Z" fill="white"/>
<path d="M37.1257 19.6907C36.8444 18.5471 35.7944 17.6846 34.5569 17.6846C33.2632 17.6846 32.1944 18.6033 31.9507 19.822C31.8944 20.0845 32.1007 20.3282 32.3819 20.3282H36.6194C36.9569 20.3282 37.2007 20.0282 37.1257 19.6907Z" fill="white"/>
<path d="M24.1494 19.8968C24.1494 18.9593 24.9182 18.1904 25.8557 18.1904C26.7932 18.1904 27.5432 18.9405 27.5432 19.8968C27.5432 20.0468 27.5244 20.1968 27.4869 20.3468H24.2057C24.1682 20.1968 24.1494 20.0468 24.1494 19.8968Z" fill="#7D4533"/>
<path d="M35.8687 19.8968C35.8687 18.9593 35.0999 18.1904 34.1624 18.1904C33.2249 18.1904 32.4562 18.9405 32.4749 19.8968C32.4749 20.0468 32.4937 20.1968 32.5312 20.3468H35.8124C35.8499 20.1968 35.8687 20.0468 35.8687 19.8968Z" fill="#7D4533"/>
<path d="M25.8373 18.9033C26.3811 18.9033 26.8123 19.3346 26.8123 19.8783C26.8123 20.0471 26.7748 20.1971 26.6998 20.3283H24.9748C24.8998 20.1971 24.8623 20.0471 24.8623 19.8783C24.8623 19.3346 25.2936 18.9033 25.8373 18.9033Z" fill="black"/>
<path d="M34.1625 18.9033C33.6187 18.9033 33.1875 19.3346 33.1875 19.8783C33.1875 20.0471 33.225 20.1971 33.3 20.3283H35.025C35.1 20.1971 35.1375 20.0471 35.1375 19.8783C35.1375 19.3346 34.7062 18.9033 34.1625 18.9033Z" fill="black"/>
<path d="M25.5746 19.2219C25.5746 19.3876 25.4404 19.5219 25.2746 19.5219C25.109 19.5219 24.9746 19.3876 24.9746 19.2219C24.9746 19.0561 25.109 18.9219 25.2746 18.9219C25.4404 18.9219 25.5746 19.0561 25.5746 19.2219Z" fill="white"/>
<path d="M33.9369 19.2219C33.9369 19.3876 33.8027 19.5219 33.6369 19.5219C33.4714 19.5219 33.3369 19.3876 33.3369 19.2219C33.3369 19.0561 33.4714 18.9219 33.6369 18.9219C33.8027 18.9219 33.9369 19.0561 33.9369 19.2219Z" fill="white"/>
<path d="M39.9934 8.23445L39.1871 7.8407C38.6246 7.55945 38.0996 7.18445 37.6496 6.73445L36.0746 5.15945C34.8934 3.9782 33.1496 3.58445 31.5746 4.1282C30.5621 4.48445 29.4371 4.48445 28.4246 4.1282C27.0371 3.43445 25.3684 3.7157 24.2809 4.8032L22.3684 6.7157C21.8996 7.1657 21.3934 7.5407 20.8121 7.8407L20.0059 8.23445C18.5246 8.98445 17.6996 10.6157 17.9996 12.2469L19.0684 18.1157C19.1996 18.6969 19.7059 19.1282 20.2871 19.1469C20.2871 19.1469 20.1746 17.4782 20.0996 16.4094C20.0621 15.8657 20.2871 15.3219 20.6996 14.9469L21.0559 14.6282C21.5434 14.1969 21.8059 13.5782 21.8059 12.9407V11.2907C21.8059 10.8219 22.1246 10.4094 22.5746 10.2969C23.7934 9.99695 26.3996 9.47195 29.9996 9.47195C33.5996 9.47195 36.2059 9.99695 37.4246 10.2969C37.8746 10.4094 38.1934 10.8219 38.1934 11.2907V12.9407C38.1934 13.5782 38.4746 14.1969 38.9434 14.6282L39.3184 14.9657C39.7309 15.3407 39.9559 15.8657 39.9184 16.4282C39.8434 17.4969 39.7309 19.1469 39.7309 19.1469C40.3121 19.1094 40.7996 18.6969 40.9121 18.1157L41.9809 12.2469C42.2996 10.6157 41.4746 8.98445 39.9934 8.23445Z" fill="#F1A11E"/>
<path d="M35.8869 16.7469C36.0932 16.8782 36.2994 16.9532 36.5244 16.9532C36.8432 16.9532 37.1432 16.8219 37.3307 16.5407C37.6869 16.0907 37.5932 15.4344 37.1432 15.0782C37.0869 15.0219 35.5119 13.8219 33.2244 14.1032C32.6432 14.1782 32.2307 14.7032 32.3057 15.2657C32.3807 15.8469 32.8869 16.2594 33.4682 16.1844C34.8307 16.0209 35.7709 16.6672 35.8792 16.7416C35.8826 16.744 35.8869 16.7469 35.8869 16.7469Z" fill="#D37034"/>
<path d="M22.6687 16.5407C22.8562 16.8032 23.175 16.9532 23.4937 16.9532C23.7 16.9532 23.925 16.8782 24.1125 16.7657C24.15 16.7282 25.1062 16.0345 26.5312 16.2032C27.1125 16.2595 27.6187 15.847 27.6937 15.2845C27.75 14.7032 27.3375 14.197 26.775 14.122C24.5062 13.8595 22.9125 15.0407 22.8562 15.097C22.4062 15.4345 22.3312 16.0907 22.6687 16.5407Z" fill="#D37034"/>
<path d="M29.2874 19.6155L28.3124 22.803C28.1061 23.4593 28.5936 24.1155 29.2874 24.1155H30.7499C31.4249 24.1155 31.9124 23.4593 31.7249 22.803L30.7499 19.6155C30.5061 18.9218 29.5124 18.9218 29.2874 19.6155Z" fill="#ED9200"/>
<path d="M29.9994 26.1222C28.9681 26.1222 28.0119 25.8784 27.1869 25.4472C26.9056 25.2972 26.6244 25.6159 26.7931 25.8784C27.4681 26.9284 28.6494 27.6222 29.9994 27.6222C31.3494 27.6222 32.5306 26.9284 33.2056 25.8784C33.3744 25.6159 33.0744 25.2972 32.8119 25.4472C31.9869 25.8784 31.0306 26.1222 29.9994 26.1222Z" fill="#990839"/>
<path d="M38.925 16.9346H32.4C31.8375 16.9346 31.3125 17.1971 30.9563 17.6283C30.7313 17.9096 30.3938 18.0783 30 18.0783C29.6063 18.0783 29.2688 17.9096 29.0438 17.6283C28.6875 17.1971 28.1625 16.9346 27.6 16.9346H21.075C20.7188 16.9346 20.4375 17.2158 20.4375 17.5721V17.9846C20.4375 18.1908 20.5313 18.3596 20.6813 18.4721C20.775 18.5283 20.8125 18.6221 20.8125 18.7158V20.7782C20.8125 22.747 22.4063 24.3595 24.3938 24.3595H25.725C27.6938 24.3595 29.3063 22.7657 29.3063 20.7782V19.6532C29.325 19.2782 29.625 18.997 30 18.997C30.375 18.997 30.675 19.297 30.6938 19.672V19.7095C30.6938 19.7095 30.6938 19.7095 30.6938 19.7282V20.797C30.6938 22.7845 32.3063 24.3782 34.275 24.3782H35.625C37.6125 24.3782 39.2063 22.7657 39.2063 20.797V18.7158C39.2063 18.6221 39.2437 18.5283 39.3187 18.4721C39.4688 18.3596 39.5625 18.1721 39.5625 17.9846V17.5721C39.5625 17.2158 39.2813 16.9346 38.925 16.9346ZM28.6875 20.6095C28.6875 22.3157 27.3 23.7032 25.5938 23.7032H24.5625C22.8563 23.7032 21.4688 22.3157 21.4688 20.6095V19.2407C21.4688 18.3221 22.2 17.5908 23.1188 17.5908H27.0188C27.9375 17.5908 28.6688 18.3221 28.6688 19.2407V20.6095H28.6875ZM38.5875 20.6095C38.5875 22.3157 37.2 23.7032 35.4938 23.7032H34.4625C32.7562 23.7032 31.3687 22.3157 31.3687 20.6095V19.2407C31.3687 18.3221 32.1 17.5908 33.0188 17.5908H36.9375C37.8563 17.5908 38.5875 18.3221 38.5875 19.2407V20.6095Z" fill="#433B6B"/>
<path d="M17.4941 45.2065C17.4941 44.1753 18.3379 43.3315 19.3692 43.3315C20.4005 43.3315 21.2442 44.1753 21.2442 45.2065V49.5003H17.4941V45.2065Z" fill="#F59F00"/>
<path d="M42.5244 45.2065C42.5244 44.1753 41.6807 43.3315 40.6494 43.3315C39.6182 43.3315 38.7744 44.1753 38.7744 45.2065V49.5003H42.5244V45.2065Z" fill="#F59F00"/>
<path d="M21.2061 42.9002V56.2502H40.5936V40.8939C40.5936 40.0502 39.9186 39.3752 39.0748 39.3752H24.7498C22.7811 39.3564 21.2061 40.9502 21.2061 42.9002Z" fill="#F92F60"/>
<path d="M19.3311 56.2502V41.0252C19.3311 39.0752 20.9061 37.4814 22.8748 37.5002H39.0748C39.9186 37.5002 40.5936 38.1752 40.5936 39.0189V40.1899H22.5V56.2502H19.3311Z" fill="#433B6B"/>
<path d="M40.5754 39.1128H22.6879C21.7879 39.1128 21.0566 39.844 21.0566 40.744C21.0566 41.644 21.7879 42.3753 22.6879 42.3753H40.5754V39.1128Z" fill="#E6E6E6"/>
<path d="M26.737 47.7937C26.7183 47.025 26.062 46.425 25.2933 46.425V46.4062H19.1058C18.2059 46.4062 17.4746 47.1375 17.4746 48.0375V54.6187C17.4746 55.5187 18.2059 56.25 19.1058 56.25H25.2933C26.062 56.25 26.7183 55.65 26.737 54.8813C26.737 54.375 26.4933 53.925 26.0995 53.6625C26.4933 53.4188 26.737 52.9875 26.737 52.5C26.737 52.0125 26.4745 51.5812 26.0995 51.3375C26.4933 51.0937 26.737 50.6625 26.737 50.175C26.737 49.6875 26.4745 49.2562 26.0995 49.0125C26.4933 48.75 26.7558 48.3 26.737 47.7937Z" fill="#FFC83D"/>
<path d="M33.2441 47.7937C33.2629 47.025 33.9191 46.425 34.6879 46.425V46.4062H40.8754C41.7754 46.4062 42.5066 47.1375 42.5066 48.0375V54.6187C42.5066 55.5187 41.7754 56.25 40.8754 56.25H34.6879C33.9191 56.25 33.2629 55.65 33.2441 54.8813C33.2441 54.375 33.4879 53.925 33.8816 53.6625C33.4879 53.4188 33.2441 52.9875 33.2441 52.5C33.2441 52.0125 33.5066 51.5812 33.8816 51.3375C33.4879 51.0937 33.2441 50.6625 33.2441 50.175C33.2441 49.6875 33.5066 49.2562 33.8816 49.0125C33.4879 48.75 33.2254 48.3 33.2441 47.7937Z" fill="#FFC83D"/>
</svg>
