<svg width="60" height="60" viewBox="0 0 60 60" fill="none" xmlns="http://www.w3.org/2000/svg">
<path d="M54.3743 56.25H37.4993L36.2031 54.068V29.9812H52.4993C53.5306 29.9812 54.3556 30.825 54.3556 31.8375V56.25H54.3743Z" fill="#D3D3D3"/>
<path d="M50.6254 36.5625V40.3125C50.6254 40.8375 50.2129 41.25 49.6879 41.2688H45.9004C45.3754 41.2688 44.9629 40.8375 44.9629 40.3313V36.5625C44.9629 36.0375 45.3941 35.625 45.9004 35.625H49.6879C50.2129 35.625 50.6254 36.0562 50.6254 36.5625ZM50.6254 45.9375V49.6875C50.6254 50.2125 50.2129 50.625 49.6879 50.6438H45.9004C45.3754 50.6438 44.9629 50.2125 44.9629 49.7063V45.9375C44.9629 45.4125 45.3941 45 45.9004 45H49.6879C50.2129 45 50.6254 45.4312 50.6254 45.9375ZM41.2504 49.6875V45.9375C41.2504 45.4312 40.8379 45 40.3129 45H36.5254C36.0191 45 35.5879 45.4125 35.5879 45.9375V49.7063C35.5879 50.2125 36.0004 50.6438 36.5254 50.6438H40.3129C40.8379 50.625 41.2504 50.2125 41.2504 49.6875ZM41.2504 36.5625V40.3125C41.2504 40.8375 40.8379 41.25 40.3129 41.2688H36.5254C36.0004 41.2688 35.5879 40.8375 35.5879 40.3313V36.5625C35.5879 36.0375 36.0191 35.625 36.5254 35.625H40.3129C40.8379 35.625 41.2504 36.0562 41.2504 36.5625Z" fill="#50E2FF"/>
<path d="M37.5 56.2125H33.7159L21.5636 51.054L9.41119 56.2125H5.625V5.475C5.625 4.51875 6.39375 3.75 7.35 3.75H35.775C36.7313 3.75 37.5 4.51875 37.5 5.475V56.2125Z" fill="#9B9B9B"/>
<path d="M33.7504 56.25H31.8192L29.2587 54.6658L26.3052 56.25H24.3154L21.8282 54.6658L18.7193 56.25H16.7917L14.0559 54.6658L11.2691 56.25H9.33789V46.9313C9.33789 45.8625 10.2004 45 11.2691 45H31.8192C32.8879 45 33.7504 45.8625 33.7504 46.9313V56.25Z" fill="#3F5FFF"/>
<path d="M16.8375 56.25V47.5313C16.8375 47.175 16.5563 46.875 16.1813 46.875H11.9062C11.5312 46.875 11.25 47.1563 11.25 47.5313V56.25H16.8375ZM24.375 56.25V47.5313C24.375 47.1563 24.075 46.875 23.7188 46.875H19.4438C19.0875 46.875 18.7875 47.1563 18.7875 47.5313V56.25H24.375ZM31.8938 47.5313V56.25H26.3063V47.5313C26.3063 47.1563 26.6063 46.875 26.9625 46.875H31.2375C31.6125 46.875 31.8938 47.175 31.8938 47.5313Z" fill="#321B41"/>
<path d="M37.5 11.25H41.25V13.125H37.5V11.25ZM37.5 20.625H41.25V22.5H37.5V20.625Z" fill="#1C1C1C"/>
<path d="M49.1063 26.25H42.75C41.925 26.25 41.25 25.575 41.25 24.7312V9.01875C41.25 8.175 41.925 7.5 42.7687 7.5H49.125C49.95 7.5 50.625 8.175 50.625 9.01875V24.75C50.625 25.575 49.95 26.25 49.1063 26.25Z" fill="#3F5FFF"/>
<path d="M24.394 8.4375V12.1875C24.394 12.7125 23.9815 13.125 23.4565 13.125H19.669C19.144 13.125 18.7314 12.6937 18.7314 12.1875V8.4375C18.7314 7.9125 19.1627 7.5 19.669 7.5H23.4565C23.9815 7.5 24.394 7.93125 24.394 8.4375ZM24.394 21.5625V17.8125C24.394 17.3062 23.9815 16.875 23.4565 16.875H19.669C19.1627 16.875 18.7314 17.2875 18.7314 17.8125V21.5625C18.7314 22.0687 19.144 22.5 19.669 22.5H23.4565C23.9815 22.5 24.394 22.0875 24.394 21.5625ZM24.394 27.1875V30.9375C24.394 31.4625 23.9815 31.875 23.4565 31.8937H19.669C19.144 31.8937 18.7314 31.4625 18.7314 30.9562V27.1875C18.7314 26.6625 19.1627 26.25 19.669 26.25H23.4565C23.9815 26.25 24.394 26.6812 24.394 27.1875ZM24.394 36.5625V40.3125C24.394 40.8375 23.9815 41.25 23.4565 41.2687H19.669C19.144 41.2687 18.7314 40.8375 18.7314 40.3312V36.5625C18.7314 36.0375 19.1627 35.625 19.669 35.625H23.4565C23.9815 35.625 24.394 36.0562 24.394 36.5625ZM33.7877 40.3125V36.5625C33.7877 36.0562 33.3752 35.625 32.8502 35.625H29.0627C28.5565 35.625 28.1252 36.0375 28.1252 36.5625V40.3312C28.1252 40.8375 28.5377 41.2687 29.0627 41.2687H32.8502C33.3565 41.25 33.7877 40.8375 33.7877 40.3125ZM33.7877 27.1875V30.9375C33.7877 31.4625 33.3565 31.875 32.8502 31.8937H29.0627C28.5377 31.8937 28.1252 31.4625 28.1252 30.9562V27.1875C28.1252 26.6625 28.5565 26.25 29.0627 26.25H32.8502C33.3752 26.25 33.7877 26.6812 33.7877 27.1875ZM33.7877 21.5625V17.8125C33.7877 17.3062 33.3752 16.875 32.8502 16.875H29.0627C28.5377 16.875 28.1252 17.2875 28.1252 17.8125V21.5625C28.1252 22.0687 28.5377 22.5 29.0627 22.5H32.8502C33.3565 22.5 33.7877 22.0875 33.7877 21.5625ZM33.7877 8.4375V12.1875C33.7877 12.7125 33.3565 13.125 32.8502 13.125H29.0627C28.5377 13.125 28.1252 12.7125 28.1252 12.1875V8.4375C28.1252 7.9125 28.5377 7.5 29.0627 7.5H32.8502C33.3752 7.5 33.7877 7.93125 33.7877 8.4375ZM15.0189 40.3125V36.5625C15.0189 36.0562 14.6064 35.625 14.0814 35.625H10.2939C9.7877 35.625 9.35645 36.0375 9.35645 36.5625V40.3312C9.35645 40.8375 9.76895 41.2687 10.2939 41.2687H14.0814C14.6064 41.25 15.0189 40.8375 15.0189 40.3125ZM15.0189 27.1875V30.9375C15.0189 31.4625 14.6064 31.875 14.0814 31.8937H10.2939C9.76895 31.8937 9.35645 31.4625 9.35645 30.9562V27.1875C9.35645 26.6625 9.7877 26.25 10.2939 26.25H14.0814C14.6064 26.25 15.0189 26.6812 15.0189 27.1875ZM15.0189 21.5625V17.8125C15.0189 17.3062 14.6064 16.875 14.0814 16.875H10.2939C9.7877 16.875 9.35645 17.2875 9.35645 17.8125V21.5625C9.35645 22.0687 9.76895 22.5 10.2939 22.5H14.0814C14.6064 22.5 15.0189 22.0875 15.0189 21.5625ZM15.0189 8.4375V12.1875C15.0189 12.7125 14.6064 13.125 14.0814 13.125H10.2939C9.76895 13.125 9.35645 12.6937 9.35645 12.1875V8.4375C9.35645 7.9125 9.7877 7.5 10.2939 7.5H14.0814C14.6064 7.5 15.0189 7.93125 15.0189 8.4375Z" fill="#50E2FF"/>
</svg>
