<svg width="60" height="60" viewBox="0 0 60 60" fill="none" xmlns="http://www.w3.org/2000/svg">
<path d="M43.4587 22.3579C43.8495 21.5411 44.0625 20.6357 44.0625 19.6768C44.0625 18.4162 43.6896 17.2443 43.0327 16.2678C42.3757 15.2912 42.0384 14.1371 42.0384 12.9474V12.9297C42.0384 9.52059 39.2685 6.75071 35.8594 6.75071C35.5221 6.75071 35.2024 6.59091 35.0072 6.32458C33.9062 4.76207 32.0775 3.75 30 3.75C27.9403 3.75 26.1114 4.76207 24.9928 6.32458C24.7976 6.60866 24.4779 6.76847 24.1406 6.76847C20.7315 6.76847 17.9617 9.53835 17.9617 12.9474V12.9652C17.9617 14.1548 17.6243 15.2912 16.9673 16.2855C16.3281 17.2443 15.9375 18.4162 15.9375 19.6768C15.9375 20.6357 16.1506 21.5411 16.5412 22.3579C16.6655 22.6243 16.6655 22.9438 16.5412 23.2103C16.1506 24.0092 15.9375 24.897 15.9375 25.8559C15.9375 29.1761 18.6364 31.875 21.9566 31.875H38.0256C41.3458 31.875 44.0447 29.1761 44.0447 25.8559C44.0447 24.9148 43.8317 24.0092 43.4411 23.2103C43.3344 22.9438 43.3344 22.6243 43.4587 22.3579Z" fill="#F1A11E"/>
<path d="M37.3336 13.8H31.3854C29.0238 13.8 26.8222 12.6281 25.4906 10.6928C25.2598 10.3732 24.7803 10.4264 24.6382 10.7993L24.4963 11.1544C24.0523 12.1842 23.2533 12.9832 22.259 13.4271C22.2058 13.4449 22.1347 13.4804 22.0636 13.4982C21.6375 13.729 20.6077 14.4037 20.5723 16.1793L20.8207 22.1097C21.0339 27.3654 25.0822 30.881 30.0005 30.881C34.9188 30.881 38.9671 27.3654 39.1801 22.1097L39.411 16.4634C39.411 13.9776 37.671 13.8 37.3336 13.8Z" fill="#FFC83D"/>
<path d="M25.1174 17.2441C26.165 17.2441 27.0174 17.9721 27.5677 18.7888C27.1359 18.9191 26.7159 19.0393 26.3004 19.1584C25.469 19.3965 24.656 19.6292 23.8036 19.9252L22.9158 19.1263C22.5607 18.7888 22.5785 18.1852 22.9869 17.9011C23.5728 17.475 24.3718 17.2441 25.1174 17.2441Z" fill="black"/>
<path d="M34.9004 17.2441C33.8529 17.2441 32.9829 17.9721 32.4502 18.7888C32.9131 18.9304 33.3644 19.0601 33.8133 19.1893C34.604 19.4167 35.3876 19.6421 36.2143 19.9252L37.1021 19.1263C37.4572 18.7888 37.4394 18.1852 37.031 17.9011C36.4451 17.475 35.6461 17.2441 34.9004 17.2441Z" fill="black"/>
<path d="M25.4369 17.4395C24.2117 17.4395 23.182 18.274 22.8979 19.4103C22.8269 19.73 23.0755 20.0495 23.4128 20.0495H27.5854C27.8517 20.0495 28.0647 19.801 28.0114 19.5524C27.763 18.345 26.7152 17.4395 25.4369 17.4395Z" fill="white"/>
<path d="M34.5642 17.4395C35.7893 17.4395 36.819 18.274 37.1033 19.4104C37.1742 19.7299 36.9257 20.0496 36.606 20.0496H32.4334C32.1672 20.0496 31.954 19.801 32.0072 19.5523C32.2382 18.345 33.3034 17.4395 34.5642 17.4395Z" fill="white"/>
<path d="M24.1582 19.6061C24.1582 18.6827 24.9039 17.937 25.8273 17.937C26.7506 17.937 27.4963 18.6827 27.4963 19.6061C27.4963 19.7481 27.4786 19.9078 27.4252 20.0499H24.2115C24.176 19.9078 24.1582 19.7659 24.1582 19.6061Z" fill="#7D4533"/>
<path d="M35.842 19.6061C35.842 18.6827 35.0964 17.937 34.1731 17.937C33.2497 17.937 32.504 18.6827 32.5218 19.6061C32.5218 19.7659 32.5394 19.9078 32.575 20.0499H35.7888C35.8242 19.9078 35.842 19.7659 35.842 19.6061Z" fill="#7D4533"/>
<path d="M25.8102 18.6465C26.3429 18.6465 26.7691 19.0726 26.7691 19.6053C26.7691 19.7651 26.7337 19.9072 26.6448 20.0491H24.9581C24.887 19.9072 24.8516 19.7651 24.8516 19.6053C24.8516 19.0726 25.2777 18.6465 25.8102 18.6465Z" fill="black"/>
<path d="M34.1903 18.6465C33.6576 18.6465 33.2314 19.0726 33.2314 19.6053C33.2314 19.7651 33.2671 19.9072 33.3558 20.0491H35.0425C35.1136 19.9072 35.149 19.7651 35.149 19.6053C35.149 19.0726 34.723 18.6465 34.1903 18.6465Z" fill="black"/>
<path d="M25.5606 18.9483C25.5606 19.115 25.4256 19.2502 25.2589 19.2502C25.092 19.2502 24.957 19.115 24.957 18.9483C24.957 18.7816 25.092 18.6465 25.2589 18.6465C25.4256 18.6465 25.5606 18.7816 25.5606 18.9483Z" fill="#ED9200"/>
<path d="M33.9239 18.9483C33.9239 19.115 33.7889 19.2502 33.6222 19.2502C33.4553 19.2502 33.3203 19.115 33.3203 18.9483C33.3203 18.7816 33.4553 18.6465 33.6222 18.6465C33.7889 18.6465 33.9239 18.7816 33.9239 18.9483Z" fill="#ED9200"/>
<path d="M29.3512 19.2932L28.4216 22.5529C28.2287 23.22 28.6847 23.9063 29.3336 23.9063H30.7016C31.3505 23.9063 31.8065 23.22 31.6136 22.5529L30.6842 19.2932C30.4912 18.5689 29.5616 18.5689 29.3512 19.2932Z" fill="#ED9200"/>
<path d="M30.0009 25.6981C28.9687 25.6981 27.9939 25.4378 27.1721 24.9771C26.8854 24.817 26.5987 25.1575 26.7706 25.4378C27.4588 26.539 28.6438 27.2798 30.0009 27.2798C31.358 27.2798 32.543 26.539 33.2311 25.4378C33.4033 25.1575 33.0975 24.8371 32.8299 24.9771C31.9888 25.4378 31.0331 25.6981 30.0009 25.6981Z" fill="#990839"/>
<path d="M36.3741 16.2146C36.4452 16.2679 36.5339 16.2856 36.6228 16.2856C36.8003 16.2856 36.9601 16.1968 37.0488 16.0193C37.1909 15.7707 37.1198 15.4689 36.8712 15.3268C36.8179 15.2913 35.1844 14.3858 33.3201 14.7231C33.0361 14.7764 32.8585 15.0427 32.9118 15.309C32.965 15.5931 33.2314 15.7707 33.4977 15.7174C34.8783 15.4738 36.1251 16.092 36.3413 16.1991C36.3614 16.209 36.3741 16.2146 36.3741 16.2146Z" fill="#D37034"/>
<path d="M22.9326 16.0365C23.0393 16.1963 23.1991 16.2851 23.3766 16.2851C23.4653 16.2851 23.5542 16.2673 23.6252 16.2318C23.6429 16.214 24.9923 15.4683 26.5017 15.7346C26.7857 15.7879 27.0342 15.5926 27.0698 15.3263C27.1231 15.0599 26.9277 14.7936 26.6614 14.7403C24.874 14.3999 23.3151 15.2344 23.1269 15.3352C23.1188 15.3396 23.1102 15.344 23.1102 15.344C22.8794 15.4861 22.7907 15.7879 22.9326 16.0365Z" fill="#D37034"/>
<path d="M3.90375 53.6438C4.91625 51.3188 7.2225 49.6875 9.9225 49.6875C12.6412 49.6875 14.9663 51.3375 15.9788 53.7C16.485 54.9187 15.5663 56.25 14.2538 56.25H5.61C4.26 56.25 3.37875 54.8813 3.90375 53.6438Z" fill="#FFC83D"/>
<path d="M44.0483 53.6438C45.0608 51.3188 47.367 49.6875 50.067 49.6875C52.7858 49.6875 55.1108 51.3375 56.1233 53.7C56.6295 54.9187 55.7108 56.25 54.3983 56.25H45.7545C44.4045 56.25 43.5233 54.8813 44.0483 53.6438Z" fill="#FFC83D"/>
<path d="M48.8102 30H11.1977C10.2039 30 9.37891 30.8062 9.37891 31.8187V56.25H50.629V31.8187C50.629 30.8062 49.804 30 48.8102 30Z" fill="#A999BE"/>
<path d="M27.082 41.0454C27.082 40.7865 27.2918 40.5767 27.5508 40.5767H32.4447C32.7035 40.5767 32.9135 40.7865 32.9135 41.0454V45.5748C32.9135 45.8338 32.7035 46.0436 32.4447 46.0436H27.5508C27.2918 46.0436 27.082 45.8338 27.082 45.5748V41.0454Z" fill="#533566"/>
</svg>
