<svg width="60" height="60" viewBox="0 0 60 60" fill="none" xmlns="http://www.w3.org/2000/svg">
<path d="M24.0885 7.18858C24.2505 5.24497 25.8752 3.75 27.8256 3.75H32.1744C34.1248 3.75 35.7495 5.24497 35.9115 7.18858L36.3529 12.4851C36.4163 13.2445 37.311 13.6151 37.8928 13.1229L41.9501 9.68979C43.4389 8.42998 45.6448 8.52174 47.0241 9.90084L50.0993 12.976C51.4783 14.3552 51.57 16.5611 50.3102 18.05L46.8773 22.1072C46.3849 22.689 46.7556 23.5837 47.5149 23.6471L52.8114 24.0885C54.7551 24.2505 56.25 25.8752 56.25 27.8256V32.1744C56.25 34.1248 54.7551 35.7495 52.8114 35.9115L47.5149 36.3529C46.7556 36.4163 46.3849 37.311 46.8773 37.8928L50.3102 41.9499C51.57 43.4389 51.4783 45.6448 50.0993 47.0239L47.0241 50.0993C45.6448 51.4783 43.4389 51.57 41.9501 50.3102L37.8928 46.8771C37.311 46.3849 36.4163 46.7556 36.3529 47.5149L35.9115 52.8114C35.7495 54.7551 34.1248 56.25 32.1744 56.25H27.8256C25.8752 56.25 24.2505 54.7551 24.0885 52.8114L23.6471 47.5149C23.5837 46.7556 22.689 46.3849 22.1072 46.8773L18.05 50.3102C16.5611 51.57 14.3552 51.4783 12.976 50.0993L9.90084 47.0241C8.52174 45.6448 8.43 43.4389 9.68979 41.9501L13.1229 37.8928C13.6151 37.311 13.2445 36.4163 12.4851 36.3529L7.18858 35.9115C5.24497 35.7495 3.75 34.1248 3.75 32.1744V27.8256C3.75 25.8752 5.24497 24.2505 7.18858 24.0885L12.4851 23.6471C13.2445 23.5837 13.6151 22.689 13.1229 22.1072L9.68979 18.05C8.43 16.5611 8.52174 14.3551 9.90084 12.976L12.976 9.90081C14.3552 8.52171 16.5611 8.42994 18.05 9.68976L22.1072 13.1228C22.689 13.6151 23.5837 13.2444 23.6471 12.485L24.0885 7.18858ZM39.375 30C39.375 24.8224 35.1776 20.625 30 20.625C24.8224 20.625 20.625 24.8224 20.625 30C20.625 35.1776 24.8224 39.375 30 39.375C35.1776 39.375 39.375 35.1776 39.375 30Z" fill="#B4ACBC"/>
<path d="M45 30C45 38.2843 38.2843 45 30 45C21.7157 45 15 38.2843 15 30C15 21.7157 21.7157 15 30 15C38.2843 15 45 21.7157 45 30ZM38.4375 30C38.4375 25.3401 34.6599 21.5625 30 21.5625C25.3401 21.5625 21.5625 25.3401 21.5625 30C21.5625 34.6599 25.3401 38.4375 30 38.4375C34.6599 38.4375 38.4375 34.6599 38.4375 30Z" fill="#998EA4"/>
<path d="M19.6875 30C19.6875 24.3045 24.3045 19.6875 30 19.6875C35.6955 19.6875 40.3125 24.3045 40.3125 30C40.3125 35.6955 35.6955 40.3125 30 40.3125C24.3045 40.3125 19.6875 35.6955 19.6875 30ZM39.375 30C39.375 24.8224 35.1776 20.625 30 20.625C24.8224 20.625 20.625 24.8224 20.625 30C20.625 35.1776 24.8224 39.375 30 39.375C35.1776 39.375 39.375 35.1776 39.375 30Z" fill="#CDC4D6"/>
</svg>
