<svg width="60" height="60" viewBox="0 0 60 60" fill="none" xmlns="http://www.w3.org/2000/svg">
<path d="M29.0625 52.5C40.9712 52.5 50.625 42.8462 50.625 30.9375C50.625 19.0288 40.9712 9.375 29.0625 9.375C17.1539 9.375 7.5 19.0288 7.5 30.9375C7.5 42.8462 17.1539 52.5 29.0625 52.5Z" fill="#F4F4F4"/>
<path d="M48.3118 14.4993C49.0183 14.8207 49.8017 15 50.625 15C53.7188 15 56.25 12.4688 56.25 9.375C56.25 6.28125 53.7188 3.75 50.625 3.75C47.5312 3.75 45 6.28125 45 9.375C45 10.1983 45.1792 10.9817 45.5006 11.6882C41.0781 7.90785 35.3368 5.625 29.0625 5.625C15.0828 5.625 3.75 16.9578 3.75 30.9375C3.75 44.9171 15.0828 56.25 29.0625 56.25C43.0421 56.25 54.375 44.9171 54.375 30.9375C54.375 24.6632 52.0922 18.9219 48.3118 14.4993ZM47.6062 9.35625C47.6062 7.6875 48.9562 6.3375 50.625 6.3375C52.275 6.3375 53.6438 7.6875 53.6438 9.35625C53.6438 11.025 52.2938 12.375 50.625 12.375C48.9562 12.375 47.6062 11.025 47.6062 9.35625ZM48.75 30.9375C48.75 41.8106 39.9356 50.625 29.0625 50.625C18.1894 50.625 9.375 41.8106 9.375 30.9375C9.375 20.0644 18.1894 11.25 29.0625 11.25C39.9356 11.25 48.75 20.0644 48.75 30.9375Z" fill="#F9C23C"/>
<path d="M47.5314 15L44.9814 12.45L47.5314 9.89995C48.2252 9.2062 49.3689 9.2062 50.0814 9.89995C50.7752 10.5937 50.7752 11.7375 50.0814 12.45L47.5314 15Z" fill="#FFB02E"/>
<path d="M24.7942 33.2326L21.3939 37.8938C21.0564 38.3438 21.6189 38.9063 22.0876 38.5876L26.7631 35.1768L28.5189 46.4061C28.6126 47.0249 29.5126 47.0249 29.6064 46.4061L31.6246 33.4994L44.5314 31.4811C45.1501 31.3874 45.1501 30.4874 44.5314 30.3936L33.302 28.6379L36.7126 23.9626C37.0501 23.5126 36.4876 22.9501 36.0189 23.2688L31.3578 26.6689L29.6064 15.4687C29.5126 14.85 28.6126 14.85 28.5189 15.4687L26.5008 28.3756L13.5939 30.3936C12.9752 30.4874 12.9752 31.3874 13.5939 31.4811L24.7942 33.2326Z" fill="#9B9B9B"/>
<path d="M32.5091 28.125L39.2612 39.9883C39.6808 40.7353 38.8597 41.5554 38.1114 41.1364L26.25 34.3755L32.5091 28.125Z" fill="#9B9B9B"/>
<path d="M25.6417 33.75L18.8634 21.885C18.4454 21.1389 19.2632 20.3199 20.0083 20.7386L31.875 27.5081L25.6417 33.75Z" fill="#E5336D"/>
<path d="M29.0625 35.625C31.6513 35.625 33.75 33.5263 33.75 30.9375C33.75 28.3487 31.6513 26.25 29.0625 26.25C26.4737 26.25 24.375 28.3487 24.375 30.9375C24.375 33.5263 26.4737 35.625 29.0625 35.625Z" fill="#D3D3D3"/>
</svg>
