<svg width="60" height="60" viewBox="0 0 60 60" fill="none" xmlns="http://www.w3.org/2000/svg">
<path d="M23.9442 19.8558C23.9442 21.5851 22.5423 22.9871 20.813 22.9871C19.0835 22.9871 17.6816 21.5851 17.6816 19.8558C17.6816 18.1265 19.0835 16.7246 20.813 16.7246C22.5423 16.7246 23.9442 18.1265 23.9442 19.8558Z" fill="#FDBB11"/>
<path d="M42.3006 19.8558C42.3006 21.5851 40.8986 22.9871 39.1693 22.9871C37.44 22.9871 36.0381 21.5851 36.0381 19.8558C36.0381 18.1265 37.44 16.7246 39.1693 16.7246C40.8986 16.7246 42.3006 18.1265 42.3006 19.8558Z" fill="#FDBB11"/>
<path d="M29.1662 5.625C23.941 5.625 19.8089 10.1385 20.1794 15.464L20.9205 26.1339C21.2355 29.4767 23.8298 31.875 26.9798 31.875H33.0203C36.1703 31.875 38.7645 29.4767 39.0795 26.1339L39.8207 15.464C40.1912 10.1574 36.0591 5.625 30.8339 5.625H29.1662Z" fill="#FFC83D"/>
<path d="M23.0817 19.6907C23.3629 18.5471 24.4129 17.6846 25.6504 17.6846C26.9442 17.6846 28.0129 18.6033 28.2567 19.822C28.3129 20.0845 28.1067 20.3282 27.8254 20.3282H23.5879C23.2504 20.3282 22.9879 20.0095 23.0817 19.6907Z" fill="white"/>
<path d="M37.3132 19.6907C37.0319 18.5471 35.9819 17.6846 34.7444 17.6846C33.4507 17.6846 32.3819 18.6033 32.1382 19.822C32.0819 20.0845 32.2882 20.3282 32.5694 20.3282H36.8069C37.1444 20.3282 37.3882 20.0282 37.3132 19.6907Z" fill="white"/>
<path d="M24.3379 19.8968C24.3379 18.9593 25.1066 18.1904 26.0441 18.1904C26.9816 18.1904 27.7316 18.9405 27.7316 19.878C27.7316 20.0468 27.7129 20.1968 27.6754 20.3468H24.3941C24.3566 20.1968 24.3379 20.0468 24.3379 19.8968Z" fill="#7D4533"/>
<path d="M36.0559 19.8968C36.0559 18.9593 35.2871 18.1904 34.3496 18.1904C33.4121 18.1904 32.6621 18.9405 32.6621 19.8968C32.6621 20.0468 32.6809 20.1968 32.7184 20.3468H35.9996C36.0371 20.1968 36.0559 20.0468 36.0559 19.8968Z" fill="#7D4533"/>
<path d="M26.0443 18.9028C26.5881 18.9028 27.0193 19.3341 27.0193 19.8778C27.0193 20.0466 26.9631 20.1966 26.9068 20.3278H25.1818C25.1068 20.1966 25.0693 20.0466 25.0693 19.8778C25.0693 19.3341 25.5006 18.9028 26.0443 18.9028Z" fill="black"/>
<path d="M34.35 18.9028C33.8063 18.9028 33.375 19.3341 33.375 19.8778C33.375 20.0466 33.4312 20.1966 33.4875 20.3278H35.2125C35.2875 20.1966 35.325 20.0466 35.325 19.8778C35.325 19.3341 34.8938 18.9028 34.35 18.9028Z" fill="black"/>
<path d="M25.7621 19.2219C25.7621 19.3876 25.6279 19.5219 25.4621 19.5219C25.2965 19.5219 25.1621 19.3876 25.1621 19.2219C25.1621 19.0561 25.2965 18.9219 25.4621 18.9219C25.6279 18.9219 25.7621 19.0561 25.7621 19.2219Z" fill="white"/>
<path d="M34.1244 19.2219C34.1244 19.3876 33.9902 19.5219 33.8244 19.5219C33.6587 19.5219 33.5244 19.3876 33.5244 19.2219C33.5244 19.0561 33.6587 18.9219 33.8244 18.9219C33.9902 18.9219 34.1244 19.0561 34.1244 19.2219Z" fill="white"/>
<path d="M39.7181 8.23445L38.9338 7.8407C38.3867 7.55945 37.8759 7.18445 37.4381 6.73445L35.9061 5.15945C34.7569 3.9782 33.0606 3.58445 31.5283 4.1282C30.5434 4.48445 29.4489 4.48445 28.464 4.1282C27.1326 3.43445 25.5092 3.7157 24.4329 4.8032L22.5724 6.7157C22.1348 7.1657 21.624 7.5407 21.0585 7.8407L20.2924 8.23445C18.8514 8.98445 18.0489 10.6157 18.3407 12.2469L19.3804 18.1157C19.4899 18.6969 19.9824 19.1282 20.5478 19.1469C20.5478 19.1469 20.4384 17.4782 20.3653 16.4094C20.3289 15.8657 20.5478 15.3219 20.949 14.9469L21.2957 14.6282C21.7699 14.1969 22.0253 13.5782 22.0253 12.9407V11.2907C22.0253 10.8219 22.3354 10.4094 22.7732 10.2969C23.9588 9.99695 26.4941 9.47195 29.9963 9.47195C33.4984 9.47195 36.0338 9.99695 37.2193 10.2969C37.6569 10.4094 37.9671 10.8219 37.9671 11.2907V12.9407C37.9671 13.5782 38.2406 14.1969 38.6966 14.6282L39.0615 14.9657C39.4628 15.3407 39.6818 15.8657 39.6452 16.4282C39.5723 17.4969 39.4628 19.1469 39.4628 19.1469C40.0283 19.1094 40.5024 18.6969 40.6119 18.1157L41.6516 12.2469C41.9618 10.6157 41.1774 8.98445 39.7181 8.23445Z" fill="#F1A11E"/>
<path d="M36.0744 16.7469C36.2807 16.8782 36.4869 16.9532 36.7119 16.9532C37.0307 16.9532 37.3307 16.8219 37.5182 16.5407C37.8744 16.0907 37.7807 15.4344 37.3307 15.0782C37.2744 15.0219 35.6994 13.8219 33.4119 14.1032C32.8307 14.1782 32.4182 14.7032 32.4932 15.2657C32.5682 15.8469 33.0744 16.2594 33.6557 16.1844C35.0182 16.0209 35.9584 16.6672 36.0666 16.7416C36.0701 16.744 36.0744 16.7469 36.0744 16.7469Z" fill="#D37034"/>
<path d="M22.8564 16.541C23.0439 16.8035 23.3627 16.9534 23.6814 16.9534C23.8877 16.9534 24.1127 16.8784 24.3002 16.7472C24.3377 16.7097 25.2939 16.016 26.7189 16.1847C27.3002 16.241 27.8064 15.8284 27.8814 15.2659C27.9377 14.6847 27.5252 14.1784 26.9627 14.1034C24.6939 13.8409 23.1002 15.0222 23.0439 15.0784C22.5939 15.4347 22.5002 16.0722 22.8564 16.541Z" fill="#D37034"/>
<path d="M29.3512 19.2932L28.4216 22.5529C28.2287 23.22 28.6847 23.9063 29.3336 23.9063H30.7016C31.3505 23.9063 31.8065 23.22 31.6136 22.5529L30.6842 19.2932C30.4912 18.5689 29.5616 18.5689 29.3512 19.2932Z" fill="#ED9200"/>
<path d="M30.0009 25.6981C28.9687 25.6981 27.9939 25.4378 27.1721 24.9771C26.8854 24.817 26.5987 25.1575 26.7706 25.4378C27.4588 26.539 28.6438 27.2798 30.0009 27.2798C31.358 27.2798 32.543 26.539 33.2311 25.4378C33.4033 25.1575 33.0975 24.8371 32.8299 24.9771C31.9888 25.4378 31.0331 25.6981 30.0009 25.6981Z" fill="#990839"/>
<path d="M3.91299 53.6396C4.90674 51.3334 7.23174 49.7021 9.91299 49.7021C12.613 49.7021 14.938 51.3522 15.9505 53.6959C16.4567 54.9147 15.538 56.2459 14.2255 56.2459H5.60049C4.25049 56.2459 3.36924 54.8771 3.91299 53.6396Z" fill="#FFC83D"/>
<path d="M43.982 53.6396C44.9758 51.3334 47.3008 49.7021 49.982 49.7021C52.7008 49.7021 55.0258 51.3522 56.0195 53.6959C56.5258 54.9147 55.607 56.2459 54.2945 56.2459H45.6695C44.3383 56.2459 43.457 54.8771 43.982 53.6396Z" fill="#FFC83D"/>
<path d="M48.7253 30.0332H11.1691C10.1754 30.0332 9.36914 30.8582 9.36914 31.852V56.227H50.544V31.852C50.5253 30.8582 49.719 30.0332 48.7253 30.0332Z" fill="#A999BE"/>
<path d="M27.082 41.0454C27.082 40.7865 27.2918 40.5767 27.5508 40.5767H32.4447C32.7035 40.5767 32.9135 40.7865 32.9135 41.0454V45.5748C32.9135 45.8338 32.7035 46.0436 32.4447 46.0436H27.5508C27.2918 46.0436 27.082 45.8338 27.082 45.5748V41.0454Z" fill="#533566"/>
</svg>
