<svg width="60" height="60" viewBox="0 0 60 60" fill="none" xmlns="http://www.w3.org/2000/svg">
<path d="M9.375 54.375L5.625 50.625L35.625 20.625L39.375 24.375L9.375 54.375Z" fill="#433B6B"/>
<path d="M33.75 22.5L37.5 26.25L40.6389 23.1238C41.4536 22.2896 41.4536 20.8003 40.6389 19.9837L40.0192 19.3624C39.1867 18.5458 37.5 18.75 36.5625 19.6875L33.75 22.5ZM4.38281 54.8467L5.15156 55.6177C5.97656 56.4637 7.34531 56.4637 8.17031 55.599L11.25 52.5105L7.5 48.75L4.38281 51.8008C3.53906 52.647 3.53906 54.0007 4.38281 54.8467Z" fill="#F4F4F4"/>
<path d="M52.2579 8.29394C52.5026 8.82475 52.917 9.24572 53.463 9.48368L55.7415 10.4721C56.4195 10.7833 56.4195 11.7167 55.7415 12.0279L53.4819 13.0163C52.9358 13.2543 52.5026 13.6753 52.2767 14.2061L50.4877 18.2695C50.1677 18.9101 49.2073 18.9101 48.8873 18.2695L47.0983 14.2061C46.8534 13.6753 46.4392 13.2543 45.8931 13.0163L43.6335 12.0279C42.9555 11.7167 42.9555 10.7833 43.6335 10.4721L45.8931 9.48368C46.4392 9.24572 46.8724 8.82475 47.0983 8.29394L48.8873 4.23047C49.2073 3.58984 50.1677 3.58984 50.4877 4.23047L52.2579 8.29394ZM30.8273 10.505C30.4371 10.3407 30.1444 10.0487 29.9689 9.68363L28.7006 6.89104C28.4664 6.45299 27.7836 6.45299 27.5494 6.89104L26.2813 9.68363C26.1251 10.0487 25.8129 10.3407 25.4227 10.505L23.8033 11.1803C23.3156 11.3993 23.3156 12.0382 23.8033 12.2572L25.4227 12.9325C25.8129 13.0968 26.1056 13.3888 26.2813 13.7539L27.5494 16.5465C27.7836 16.9845 28.4664 16.9845 28.7006 16.5465L29.9689 13.7539C30.1249 13.3888 30.4371 13.0968 30.8273 12.9325L32.4467 12.2572C32.9344 12.0382 32.9344 11.3993 32.4467 11.1803L30.8273 10.505ZM48.6576 30.558C48.2762 30.3743 47.9751 30.0681 47.7945 29.6597L46.5096 26.6175C46.2688 26.1276 45.5861 26.1276 45.3654 26.6175L44.0805 29.6597C43.92 30.0476 43.5988 30.3743 43.2174 30.558L41.6113 31.2932C41.1296 31.5381 41.1296 32.2324 41.6113 32.4568L43.2174 33.192C43.5988 33.3758 43.8999 33.6819 44.0805 34.0903L45.3654 37.1325C45.6062 37.6224 46.2889 37.6224 46.5096 37.1325L47.7945 34.0903C47.955 33.7024 48.2762 33.3758 48.6576 33.192L50.2637 32.4568C50.7454 32.2119 50.7454 31.5176 50.2637 31.2932L48.6576 30.558ZM22.5 26.25C23.5356 26.25 24.375 25.4106 24.375 24.375C24.375 23.3394 23.5356 22.5 22.5 22.5C21.4644 22.5 20.625 23.3394 20.625 24.375C20.625 25.4106 21.4644 26.25 22.5 26.25ZM56.25 24.375C56.25 25.4106 55.4106 26.25 54.375 26.25C53.3394 26.25 52.5 25.4106 52.5 24.375C52.5 23.3394 53.3394 22.5 54.375 22.5C55.4106 22.5 56.25 23.3394 56.25 24.375ZM35.625 7.50001C36.6606 7.50001 37.5 6.66055 37.5 5.625C37.5 4.58946 36.6606 3.75 35.625 3.75C34.5894 3.75 33.75 4.58946 33.75 5.625C33.75 6.66055 34.5894 7.50001 35.625 7.50001ZM37.5 39.375C37.5 40.4106 36.6606 41.25 35.625 41.25C34.5894 41.25 33.75 40.4106 33.75 39.375C33.75 38.3394 34.5894 37.5 35.625 37.5C36.6606 37.5 37.5 38.3394 37.5 39.375Z" fill="#F9C23C"/>
</svg>
