<svg width="60" height="60" viewBox="0 0 60 60" fill="none" xmlns="http://www.w3.org/2000/svg">
<path d="M28.7812 4.01719C29.3813 3.66094 30.1125 3.66094 30.6938 4.01719L51.1688 16.4672C51.6562 16.7672 51.9562 17.3109 51.9562 17.8734L29.7375 32.8125L7.5 18.0608V17.8734C7.5 17.3109 7.8 16.7672 8.2875 16.4859L28.7812 4.01719Z" fill="#F3C07B"/>
<path d="M29.73 30.4618L51.03 17.5244C51.1234 17.4687 51.2301 17.4388 51.3388 17.4377C51.4476 17.4365 51.5546 17.4642 51.6491 17.518C51.7436 17.5717 51.8222 17.6495 51.8768 17.7435C51.9315 17.8376 51.9602 17.9444 51.9602 18.0531V41.1906C51.9604 41.7478 51.8173 42.2957 51.5447 42.7817C51.2722 43.2677 50.8792 43.6751 50.4037 43.9656L30.4539 56.0781C30.4031 56.106 30.3478 56.1252 30.2906 56.1345C30.2402 56.1495 30.1877 56.1565 30.135 56.1552C29.9222 56.2148 29.6996 56.2318 29.4801 56.2052C29.2605 56.1784 29.0486 56.1085 28.8563 55.9995H28.8675L24.375 35.625L29.73 30.4618Z" fill="#FFCE7C"/>
<path d="M29.7375 55.542V30.4732L8.45625 17.5358C8.025 17.2733 7.5 17.5733 7.5 18.0608V41.1982C7.5 42.342 8.1 43.392 9.05625 43.9732L28.875 56.0107C29.25 56.2545 29.7375 55.9732 29.7375 55.542Z" fill="#E19747"/>
<path d="M27.1873 50.217V46.542C27.1873 46.1107 26.9623 45.717 26.6061 45.492L21.3561 42.3232C20.9998 42.117 20.5498 42.3607 20.5498 42.7732V46.4482C20.5498 46.8795 20.7748 47.2732 21.1311 47.4982L26.3811 50.667C26.7373 50.8732 27.1873 50.6295 27.1873 50.217Z" fill="#D3D3D3"/>
<path d="M22.0504 31.036V25.8047V22.4862L15.9004 22.0735V27.9985C15.9004 28.186 15.9941 28.3735 16.1629 28.486L21.1879 31.5422C21.5629 31.7485 22.0504 31.486 22.0504 31.036Z" fill="#8C5543"/>
<path d="M38.1379 8.55469L15.9004 22.0734L22.0504 25.8234L44.2879 12.3234L38.1379 8.55469Z" fill="#A56953"/>
</svg>
