<svg width="60" height="60" viewBox="0 0 60 60" fill="none" xmlns="http://www.w3.org/2000/svg">
<path fill-rule="evenodd" clip-rule="evenodd" d="M30 15.0947C31.1912 13.8792 32.8513 13.125 34.6875 13.125H49.6875C51.0802 13.125 52.2922 13.8834 52.9387 15.0061C53.0692 15.2325 53.118 15.4943 53.118 15.7556V20.0572L54.375 47.8125C54.375 50.4013 52.2763 52.5 49.6875 52.5H10.3125C7.72367 52.5 5.625 50.4013 5.625 47.8125L6.88196 20.0572V15.7556C6.88196 15.4943 6.93081 15.2325 7.06119 15.0061C7.70779 13.8835 8.91983 13.125 10.3125 13.125H25.3125C27.1487 13.125 28.8088 13.8792 30 15.0947Z" fill="#B4ACBC"/>
<path d="M33.2483 56.25H53.4354C54.9928 56.25 56.25 54.9789 56.25 53.4278V51.4526C56.25 49.9013 54.9928 46.875 53.4354 46.875H6.56451C5.00715 46.875 3.75 49.9013 3.75 51.4526V53.4463C3.75 54.9977 5.00715 56.25 6.56451 56.25H26.7518C27.4001 57.3709 28.6119 58.125 30 58.125C31.3881 58.125 32.5999 57.3709 33.2483 56.25Z" fill="#0074BA"/>
<path fill-rule="evenodd" clip-rule="evenodd" d="M6.56451 18.75H26.25V20.625H33.75V18.75H53.4354C54.9928 18.75 56.25 20.0023 56.25 21.5537V51.5527C56.25 53.1039 54.9928 54.375 53.4354 54.375H33.2483C32.5999 55.4959 31.3881 56.25 30 56.25C28.6119 56.25 27.4001 55.4959 26.7518 54.375H6.56451C5.00715 54.375 3.75 53.1227 3.75 51.5713V21.5537C3.75 20.0023 5.00715 18.75 6.56451 18.75ZM32.8125 51.5625C32.8125 53.1157 31.5532 54.375 30 54.375C28.4468 54.375 27.1875 53.1157 27.1875 51.5625C27.1875 50.0093 28.4468 48.75 30 48.75C31.5532 48.75 32.8125 50.0093 32.8125 51.5625Z" fill="#00A6ED"/>
<path d="M24.375 15H10.8802C9.93984 15 9.06169 15.47 8.54006 16.2524L5.625 20.625V47.8125C5.625 49.3657 6.88419 50.625 8.4375 50.625H51.5625C53.1157 50.625 54.375 49.3657 54.375 47.8125V20.625L51.4599 16.2524C50.9383 15.47 50.0603 15 49.1198 15H35.625V20.625H24.375V15Z" fill="#B4ACBC"/>
<path d="M10.3125 15H25.3125C27.9013 15 30 17.0987 30 19.6875V50.625L29.1615 48.948C28.5263 47.6775 27.2278 46.875 25.8073 46.875H10.3125C9.27697 46.875 8.4375 46.0356 8.4375 45V16.875C8.4375 15.8395 9.27697 15 10.3125 15Z" fill="#F3EEF8"/>
<path d="M34.6875 15H49.6875C50.7231 15 51.5625 15.8395 51.5625 16.875V45C51.5625 46.0356 50.7231 46.875 49.6875 46.875H34.1927C32.8425 46.875 31.6024 47.6001 30.9375 48.7631V16.8745C31.7927 15.7363 33.1541 15 34.6875 15Z" fill="#F3EEF8"/>
</svg>
