<svg width="60" height="60" viewBox="0 0 60 60" fill="none" xmlns="http://www.w3.org/2000/svg">
<path d="M55.1437 5.37939C55.1437 4.38564 54.2812 3.63564 53.3063 3.76689L21.4875 7.89189C20.6812 8.00439 20.0625 8.69814 20.0625 9.52314V35.0418C18.9562 34.6668 17.7563 34.4418 16.5188 34.4418C10.5 34.4418 5.625 39.3356 5.625 45.3543C5.625 51.3731 10.5 56.2481 16.5188 56.2481C22.5375 56.2481 27.4125 51.3731 27.4125 45.3543C27.4125 45.1293 27.3937 44.8856 27.3937 44.6606V18.5981C27.3937 17.8669 27.9375 17.2669 28.65 17.1731L46.1812 14.9044C47.0437 14.7919 47.8125 15.4669 47.8125 16.3294V28.5731C46.6875 28.1793 45.4875 27.9731 44.25 27.9731C38.2313 27.9731 33.3563 32.8481 33.3563 38.8668C33.3563 44.8856 38.2313 49.7606 44.25 49.7606C50.2687 49.7606 55.1437 44.8856 55.1437 38.8668C55.1437 38.8481 55.1437 38.8481 55.1437 38.8293V5.37939Z" fill="#402A32"/>
</svg>
