<svg width="60" height="60" viewBox="0 0 60 60" fill="none" xmlns="http://www.w3.org/2000/svg">
<path d="M56.25 16.7065H3.75V43.0879H56.25V16.7065Z" fill="#83CBFF"/>
<path d="M56.25 18.7875V10.9125C56.25 10.0688 55.5563 9.375 54.7125 9.375H5.2875C4.44375 9.375 3.75 10.0688 3.75 10.9125V18.7875H10.7625C12.75 18.7875 14.3625 20.4 14.3625 22.3875V37.5C14.3625 39.4875 12.75 41.1 10.7625 41.1H3.75V48.975C3.75 49.8188 4.44375 50.5125 5.2875 50.5125H54.7125C55.5563 50.5125 56.25 49.8188 56.25 48.975V41.1H49.2375C47.25 41.1 45.6375 39.4875 45.6375 37.5V22.3875C45.6375 20.4 47.25 18.7875 49.2375 18.7875H56.25ZM37.7063 41.1H22.2938C20.3063 41.1 18.6938 39.4875 18.6938 37.5V22.3875C18.6938 20.4 20.3063 18.7875 22.2938 18.7875H37.7063C39.6938 18.7875 41.3063 20.4 41.3063 22.3875V37.5C41.3063 39.4875 39.6938 41.1 37.7063 41.1ZM10.8188 43.8562C11.1563 43.8562 11.4188 44.1187 11.4188 44.4562V47.0438C11.4188 47.3812 11.1563 47.6437 10.8188 47.6437H8.23127C7.89377 47.6437 7.63127 47.3812 7.63127 47.0438V44.4562C7.63127 44.1187 7.89377 43.8562 8.23127 43.8562H10.8188ZM21.0562 43.8562C21.3937 43.8562 21.6562 44.1187 21.6562 44.4562V47.0438C21.6562 47.3812 21.3937 47.6437 21.0562 47.6437H18.4688C18.1313 47.6437 17.8688 47.3812 17.8688 47.0438V44.4562C17.8688 44.1187 18.1313 43.8562 18.4688 43.8562H21.0562ZM28.7063 43.8562H31.2938C31.6313 43.8562 31.8938 44.1187 31.8938 44.4562V47.0438C31.8938 47.3812 31.6313 47.6437 31.2938 47.6437H28.7063C28.3688 47.6437 28.1062 47.3812 28.1062 47.0438V44.4562C28.1062 44.1187 28.3688 43.8562 28.7063 43.8562ZM41.5312 43.8562C41.85 43.8562 42.1312 44.1187 42.1312 44.4562V47.0438C42.1312 47.3812 41.8687 47.6437 41.5312 47.6437H38.9438C38.6063 47.6437 38.3438 47.3812 38.3438 47.0438V44.4562C38.3438 44.1187 38.6063 43.8562 38.9438 43.8562H41.5312ZM49.1812 43.8562H51.7688C52.0875 43.8562 52.3688 44.1187 52.3688 44.4562V47.0438C52.3688 47.3812 52.1063 47.6437 51.7688 47.6437H49.1812C48.8438 47.6437 48.5812 47.3812 48.5812 47.0438V44.4562C48.5812 44.1187 48.8438 43.8562 49.1812 43.8562ZM8.23127 12.15H10.8188C11.1563 12.15 11.4188 12.4312 11.4188 12.75V15.3375C11.4188 15.675 11.1563 15.9375 10.8188 15.9375H8.23127C7.89377 15.9375 7.63127 15.675 7.63127 15.3375V12.75C7.63127 12.4125 7.89377 12.15 8.23127 12.15ZM18.4688 12.15H21.0562C21.3937 12.15 21.6562 12.4312 21.6562 12.75V15.3375C21.6562 15.675 21.3937 15.9375 21.0562 15.9375H18.4688C18.1313 15.9375 17.8688 15.675 17.8688 15.3375V12.75C17.8688 12.4125 18.1313 12.15 18.4688 12.15ZM31.2938 12.15C31.6313 12.15 31.8938 12.4312 31.8938 12.75V15.3375C31.8938 15.675 31.6313 15.9375 31.2938 15.9375H28.7063C28.3688 15.9375 28.1062 15.675 28.1062 15.3375V12.75C28.1062 12.4125 28.3688 12.15 28.7063 12.15H31.2938ZM38.9438 12.15H41.5312C41.85 12.15 42.1312 12.4312 42.1312 12.75V15.3375C42.1312 15.675 41.8687 15.9375 41.5312 15.9375H38.9438C38.6063 15.9375 38.3438 15.675 38.3438 15.3375V12.75C38.3438 12.4125 38.6063 12.15 38.9438 12.15ZM51.7688 12.15C52.0875 12.15 52.3688 12.4312 52.3688 12.75V15.3375C52.3688 15.675 52.1063 15.9375 51.7688 15.9375H49.1812C48.8438 15.9375 48.5812 15.675 48.5812 15.3375V12.75C48.5812 12.4125 48.8438 12.15 49.1812 12.15H51.7688Z" fill="#433B6B"/>
</svg>
