<svg width="60" height="60" viewBox="0 0 60 60" fill="none" xmlns="http://www.w3.org/2000/svg">
<path d="M5.62559 13.125L19.6881 35.625L51.5631 45L55.8872 46.5116C56.0959 46.2984 56.2225 46.0031 56.2131 45.675V8.6625C56.2131 8.025 55.7068 7.5 55.0506 7.5H4.91309C4.59434 7.5 4.30371 7.63125 4.09277 7.84219L5.62559 13.125Z" fill="#FFCE7C"/>
<path d="M4.9125 46.8563H55.0687C55.3875 46.8563 55.6781 46.7251 55.8866 46.5119L54.375 45.0001L5.625 9.3751L4.09219 7.84229C3.88125 8.05322 3.75 8.34385 3.75 8.6626V45.6938C3.75 46.3313 4.275 46.8563 4.9125 46.8563Z" fill="#E19747"/>
<path d="M5.625 44.9813V9.375H54.3563V44.9813H5.625Z" fill="#44911B"/>
<path d="M44.2305 23.4C44.643 22.5375 44.868 21.5813 44.868 20.5688C44.868 19.2375 44.4743 18 43.7805 16.9688C43.0868 15.9375 42.7305 14.7188 42.7305 13.4625V13.4438C42.7305 9.84375 39.8055 6.91875 36.2055 6.91875C35.8493 6.91875 35.5118 6.75 35.3055 6.46875C34.143 4.81875 32.2118 3.75 30.0368 3.75C27.843 3.75 25.9118 4.81875 24.7305 6.46875C24.5243 6.76875 24.1868 6.9375 23.8305 6.9375C20.2305 6.9375 17.3055 9.8625 17.3055 13.4625V13.4812C17.3055 14.7375 16.9492 15.9375 16.2555 16.9875C15.5805 18 15.168 19.2375 15.168 20.5688C15.168 21.5813 15.393 22.5375 15.8055 23.4C15.9367 23.6812 15.9367 24.0187 15.8055 24.3C15.393 25.1437 15.168 26.0812 15.168 27.0938C15.168 30.6 18.018 33.45 21.5243 33.45H38.493C41.9993 33.45 44.8493 30.6 44.8493 27.0938C44.8493 26.1 44.6243 25.1437 44.2118 24.3C44.0993 24.0187 44.0993 23.6812 44.2305 23.4Z" fill="#F1A11E"/>
<path d="M16.875 33.7772C20.4424 30.8314 25.0162 29.0625 30 29.0625C34.9873 29.0625 39.5606 30.834 43.125 33.7836L45.9375 45L43.125 56.25H16.875L14.0625 45L16.875 33.7772Z" fill="#8C5543"/>
<path d="M21.1688 35.5125L23.7188 30H26.2501V56.25L21.0001 41.4937C20.7563 40.8375 20.9438 40.1062 21.4313 39.6187L23.9813 37.125C24.2813 36.825 24.0751 36.2813 23.6251 36.2813H21.6563C21.2626 36.2813 21.0001 35.8688 21.1688 35.5125Z" fill="#6D4534"/>
<path d="M38.925 35.5125L36.375 30H33.75V56.25L39.0938 41.4937C39.3375 40.8375 39.15 40.1062 38.6625 39.6187L36.1125 37.125C35.8125 36.825 36.0188 36.2813 36.4688 36.2813H38.4375C38.8313 36.2813 39.0938 35.8688 38.925 35.5125Z" fill="#6D4534"/>
<path d="M16.8751 33.75C12.3188 37.5562 9.35634 43.2937 9.37509 49.6875V56.25H16.8751V33.75Z" fill="#6D4534"/>
<path d="M43.125 33.75V56.25H50.625V54.3934C50.625 54.3872 50.625 54.3812 50.625 54.375L50.6062 49.6687C50.6062 43.275 47.7188 37.5375 43.125 33.75Z" fill="#6D4534"/>
<path d="M33.8439 31.5376H26.1377V56.2501H33.8439V31.5376Z" fill="#E6E6E6"/>
<path d="M30.0002 35.0064C27.8627 35.0064 26.1377 33.2814 26.1377 31.1439V26.3439C26.1377 24.2064 27.8627 22.4814 30.0002 22.4814C32.1377 22.4814 33.8627 24.2064 33.8627 26.3439V31.1439C33.8439 33.2814 32.1189 35.0064 30.0002 35.0064Z" fill="#FCB100"/>
<path d="M24.3771 20.0441C24.3771 21.732 23.0088 23.1004 21.3209 23.1004C19.633 23.1004 18.2646 21.732 18.2646 20.0441C18.2646 18.3561 19.633 16.9878 21.3209 16.9878C23.0088 16.9878 24.3771 18.3561 24.3771 20.0441Z" fill="#FDBB11"/>
<path d="M41.6223 20.0441C41.6223 21.732 40.2539 23.1004 38.566 23.1004C36.8781 23.1004 35.5098 21.732 35.5098 20.0441C35.5098 18.3561 36.8781 16.9878 38.566 16.9878C40.2539 16.9878 41.6223 18.3561 41.6223 20.0441Z" fill="#FDBB11"/>
<path d="M33.8812 31.5566H26.1562V56.2879H33.8812V31.5566Z" fill="#E6E6E6"/>
<path d="M30 35.025C27.9248 35.025 26.25 33.3 26.25 31.1625V26.3625C26.25 24.225 27.9248 22.5 30 22.5C32.0753 22.5 33.75 24.225 33.75 26.3625V31.1625C33.75 33.3 32.0753 35.025 30 35.025Z" fill="#FCB100"/>
<path d="M37.7625 14.3622H31.4813C28.9875 14.3622 26.6625 13.1247 25.2563 11.081C25.0125 10.7435 24.5062 10.7997 24.3562 11.1935L24.2063 11.5685C23.7675 12.6467 22.5225 13.564 21.6375 14.0435C21.1875 14.2872 20.1 14.9997 20.0625 16.8747L20.325 23.1372C20.55 28.6872 24.825 32.3997 30.0188 32.3997C35.2125 32.3997 39.4875 28.6872 39.7125 23.1372L39.9562 17.1747C39.9562 14.5497 38.1187 14.3622 37.7625 14.3622Z" fill="#FFC83D"/>
<path d="M24.8633 18C25.9696 18 26.8883 18.7688 27.4508 19.6313C26.9948 19.7687 26.5512 19.8956 26.1125 20.0214C25.2346 20.2729 24.376 20.5187 23.4758 20.8313L22.5383 19.9875C22.1633 19.6313 22.1821 18.9938 22.6133 18.6938C23.2321 18.2438 24.0758 18 24.8633 18Z" fill="black"/>
<path d="M35.1939 18C34.0877 18 33.1689 18.7688 32.6064 19.6313C33.0953 19.7807 33.5719 19.9178 34.0461 20.0541C34.881 20.2943 35.7084 20.5322 36.5814 20.8313L37.5189 19.9875C37.8939 19.6313 37.8752 18.9938 37.4439 18.6938C36.8252 18.2438 35.9814 18 35.1939 18Z" fill="black"/>
<path d="M22.5187 20.2874C22.8187 19.0874 23.9062 18.2061 25.2 18.2061C26.55 18.2061 27.6562 19.1624 27.9187 20.4374C27.975 20.6999 27.75 20.9624 27.4687 20.9624H23.0625C22.7062 20.9624 22.4437 20.6249 22.5187 20.2874Z" fill="white"/>
<path d="M37.5188 20.2874C37.2188 19.0874 36.1313 18.2061 34.8376 18.2061C33.5063 18.2061 32.3813 19.1624 32.1376 20.4374C32.0813 20.6999 32.3063 20.9624 32.5876 20.9624H36.9938C37.3313 20.9624 37.6126 20.6249 37.5188 20.2874Z" fill="white"/>
<path d="M23.8506 20.494C23.8506 19.519 24.6381 18.7314 25.6131 18.7314C26.5881 18.7314 27.3756 19.519 27.3568 20.494C27.3568 20.6627 27.3381 20.8127 27.3006 20.9627H23.9068C23.8693 20.8127 23.8506 20.6627 23.8506 20.494Z" fill="#7D4533"/>
<path d="M36.2067 20.494C36.2067 19.519 35.4192 18.7314 34.4442 18.7314C33.4692 18.7314 32.663 19.519 32.7005 20.494C32.7005 20.6627 32.7192 20.8127 32.7567 20.9627H36.1505C36.188 20.8127 36.2067 20.6627 36.2067 20.494Z" fill="#7D4533"/>
<path d="M25.6131 19.481C26.1756 19.481 26.6256 19.931 26.6256 20.4935C26.6256 20.6622 26.5693 20.8122 26.4943 20.9622H24.7131C24.6381 20.8122 24.6006 20.6622 24.6006 20.4935C24.6006 19.931 25.0506 19.481 25.6131 19.481Z" fill="black"/>
<path d="M34.4441 19.481C33.8816 19.481 33.4316 19.931 33.4316 20.4935C33.4316 20.6622 33.4691 20.8122 33.5629 20.9622H35.3441C35.4191 20.8122 35.4566 20.6622 35.4566 20.4935C35.4566 19.931 35.0066 19.481 34.4441 19.481Z" fill="black"/>
<path d="M25.3309 19.7997C25.3309 19.9758 25.1882 20.1185 25.0121 20.1185C24.8362 20.1185 24.6934 19.9758 24.6934 19.7997C24.6934 19.6236 24.8362 19.481 25.0121 19.481C25.1882 19.481 25.3309 19.6236 25.3309 19.7997Z" fill="white"/>
<path d="M34.1619 19.7997C34.1619 19.9758 34.0192 20.1185 33.8432 20.1185C33.6671 20.1185 33.5244 19.9758 33.5244 19.7997C33.5244 19.6236 33.6671 19.481 33.8432 19.481C34.0192 19.481 34.1619 19.6236 34.1619 19.7997Z" fill="white"/>
<path d="M30.0189 26.4376C28.9877 26.4376 28.0314 26.1939 27.2064 25.7626C26.9252 25.6126 26.6439 25.9314 26.8127 26.1939C27.4877 27.2439 28.6689 27.9376 30.0189 27.9376C31.3689 27.9376 32.5502 27.2439 33.2252 26.1939C33.3939 25.9314 33.0939 25.6126 32.8314 25.7626C32.0064 26.1939 31.0502 26.4376 30.0189 26.4376Z" fill="#990839"/>
<path d="M29.2883 20.0437L28.2946 23.2874C28.0883 23.9437 28.5946 24.6187 29.2883 24.6187H30.7696C31.4633 24.6187 31.9696 23.9437 31.7633 23.2874L30.7508 20.0437C30.5258 19.3312 29.5133 19.3312 29.2883 20.0437Z" fill="#ED9200"/>
<path d="M36.7502 16.9127C36.8252 16.9689 36.9189 16.9877 37.0127 16.9877C37.2002 16.9877 37.3689 16.8939 37.4627 16.7064C37.6127 16.4439 37.5377 16.1252 37.2752 15.9752C37.2189 15.9377 35.4939 14.9814 33.5252 15.3377C33.2252 15.3939 33.0377 15.6752 33.0939 15.9564C33.1502 16.2564 33.4314 16.4439 33.7127 16.3877C35.1705 16.1304 36.4873 16.7832 36.7155 16.8963C36.7367 16.9068 36.7502 16.9127 36.7502 16.9127Z" fill="#D37034"/>
<path d="M22.5566 16.7249C22.6691 16.8937 22.8379 16.9874 23.0254 16.9874C23.1191 16.9874 23.2129 16.9687 23.2691 16.9312C23.2879 16.9124 24.7129 16.1249 26.3066 16.4062C26.5879 16.4624 26.8691 16.2562 26.9254 15.9749C26.9816 15.6937 26.7754 15.4124 26.4941 15.3562C24.6066 14.9967 22.9605 15.878 22.7616 15.9844C22.7531 15.989 22.7441 15.9937 22.7441 15.9937C22.5004 16.1437 22.4066 16.4624 22.5566 16.7249Z" fill="#D37034"/>
<path d="M38.9445 17.0625H32.4383C31.8758 17.0625 31.3508 17.325 30.9945 17.7563C30.7695 18.0375 30.432 18.2063 30.0383 18.2063C29.6445 18.2063 29.307 18.0375 29.082 17.7563C28.7258 17.325 28.2008 17.0625 27.6383 17.0625H21.0945C20.7383 17.0625 20.457 17.3438 20.457 17.7V18.1125C20.457 18.3188 20.5508 18.4875 20.7008 18.6C20.7758 18.6563 20.832 18.75 20.832 18.8438V20.9063C20.832 22.875 22.4258 24.4875 24.4133 24.4875H25.7445C27.7133 24.4875 29.3258 22.8938 29.3258 20.9063V19.7625C29.3445 19.3875 29.6445 19.1063 30.0195 19.1063C30.3945 19.1063 30.6945 19.4063 30.7133 19.7813V19.8188C30.7133 19.8188 30.7133 19.8188 30.7133 19.8375V20.9063C30.7133 22.8938 32.3258 24.4875 34.2945 24.4875H35.6258C37.6133 24.4875 39.207 22.875 39.207 20.9063V18.825C39.207 18.7313 39.2445 18.6375 39.3195 18.5813C39.4695 18.4688 39.5633 18.2813 39.5633 18.0938V17.6813C39.582 17.3438 39.3008 17.0625 38.9445 17.0625ZM28.707 20.7188C28.707 22.425 27.3195 23.8125 25.6133 23.8125H24.582C22.8758 23.8125 21.4883 22.425 21.4883 20.7188V19.3688C21.4883 18.45 22.2195 17.7188 23.1383 17.7188H27.0383C27.957 17.7188 28.6883 18.45 28.6883 19.3688V20.7188H28.707ZM38.607 20.7188C38.607 22.425 37.2195 23.8125 35.5133 23.8125H34.482C32.7758 23.8125 31.3883 22.425 31.3883 20.7188V19.3688C31.3883 18.45 32.1195 17.7188 33.0383 17.7188H36.957C37.8758 17.7188 38.607 18.45 38.607 19.3688V20.7188Z" fill="#433B6B"/>
<path d="M17.4941 45.2065C17.4941 44.1753 18.3379 43.3315 19.3692 43.3315C20.4005 43.3315 21.2442 44.1753 21.2442 45.2065V49.5003H17.4941V45.2065Z" fill="#F59F00"/>
<path d="M42.5244 45.2065C42.5244 44.1753 41.6807 43.3315 40.6494 43.3315C39.6182 43.3315 38.7744 44.1753 38.7744 45.2065V49.5003H42.5244V45.2065Z" fill="#F59F00"/>
<path d="M21.2061 42.9002V56.2502H40.5936V40.8939C40.5936 40.0502 39.9186 39.3752 39.0748 39.3752H24.7498C22.7811 39.3564 21.2061 40.9502 21.2061 42.9002Z" fill="#F92F60"/>
<path d="M19.3311 56.2502V41.0252C19.3311 39.0752 20.9061 37.4814 22.8748 37.5002H39.0748C39.9186 37.5002 40.5936 38.1752 40.5936 39.0189V40.1899H22.5V56.2502H19.3311Z" fill="#433B6B"/>
<path d="M40.5754 39.1128H22.6879C21.7879 39.1128 21.0566 39.844 21.0566 40.744C21.0566 41.644 21.7879 42.3753 22.6879 42.3753H40.5754V39.1128Z" fill="#E6E6E6"/>
<path d="M26.737 47.7937C26.7183 47.025 26.062 46.425 25.2933 46.425V46.4062H19.1058C18.2059 46.4062 17.4746 47.1375 17.4746 48.0375V54.6187C17.4746 55.5187 18.2059 56.25 19.1058 56.25H25.2933C26.062 56.25 26.7183 55.65 26.737 54.8813C26.737 54.375 26.4933 53.925 26.0995 53.6625C26.4933 53.4188 26.737 52.9875 26.737 52.5C26.737 52.0125 26.4745 51.5812 26.0995 51.3375C26.4933 51.0937 26.737 50.6625 26.737 50.175C26.737 49.6875 26.4745 49.2562 26.0995 49.0125C26.4933 48.75 26.7558 48.3 26.737 47.7937Z" fill="#FFC83D"/>
<path d="M33.2441 47.7937C33.2629 47.025 33.9191 46.425 34.6879 46.425V46.4062H40.8754C41.7754 46.4062 42.5066 47.1375 42.5066 48.0375V54.6187C42.5066 55.5187 41.7754 56.25 40.8754 56.25H34.6879C33.9191 56.25 33.2629 55.65 33.2441 54.8813C33.2441 54.375 33.4879 53.925 33.8816 53.6625C33.4879 53.4188 33.2441 52.9875 33.2441 52.5C33.2441 52.0125 33.5066 51.5812 33.8816 51.3375C33.4879 51.0937 33.2441 50.6625 33.2441 50.175C33.2441 49.6875 33.5066 49.2562 33.8816 49.0125C33.4879 48.75 33.2254 48.3 33.2441 47.7937Z" fill="#FFC83D"/>
</svg>
