<svg width="60" height="60" viewBox="0 0 60 60" fill="none" xmlns="http://www.w3.org/2000/svg">
<path d="M30.0519 7.5C15.3113 7.5 6.62052 18.292 3.12563 23.8174C1.4477 26.4703 1.44771 29.7797 3.12563 32.4326C4.75378 35.0066 7.4484 38.6333 11.3018 41.8153V49.6907C11.3018 51.7941 13.526 53.1531 15.3976 52.1934L23.5533 48.0118C25.5796 48.4841 27.7458 48.75 30.0519 48.75C44.7924 48.75 53.4832 37.9579 56.978 32.4326C58.6559 29.7797 58.6559 26.4703 56.978 23.8174C53.4832 18.292 44.7924 7.5 30.0519 7.5Z" fill="#9B9B9B"/>
<path d="M30.0519 46.875C27.6391 46.875 25.397 46.5645 23.3217 46.0234L14.5421 50.5251C13.9182 50.8449 13.1768 50.3919 13.1768 49.6907V40.9166C9.16116 37.7792 6.36732 34.05 4.71027 31.4303C3.4195 29.3895 3.4195 26.8605 4.71025 24.8197C8.11433 19.4379 16.3158 9.375 30.0519 9.375C43.7879 9.375 51.9894 19.4379 55.3934 24.8197C56.6842 26.8605 56.6842 29.3895 55.3934 31.4303C51.9894 36.8121 43.7879 46.875 30.0519 46.875Z" fill="white"/>
</svg>
