<svg width="60" height="60" viewBox="0 0 60 60" fill="none" xmlns="http://www.w3.org/2000/svg">
<path d="M26.2497 53.0478C36.9074 53.0478 45.5472 44.408 45.5472 33.7501C45.5472 23.0924 36.9074 14.4526 26.2497 14.4526C15.592 14.4526 6.95215 23.0924 6.95215 33.7501C6.95215 44.408 15.592 53.0478 26.2497 53.0478Z" fill="#F4F4F4"/>
<path d="M48.75 33.75C48.75 21.3236 38.6764 11.25 26.25 11.25C13.8236 11.25 3.75 21.3236 3.75 33.75C3.75 46.1764 13.8236 56.25 26.25 56.25C38.6764 56.25 48.75 46.1764 48.75 33.75ZM43.125 33.75C43.125 43.0697 35.5699 50.625 26.25 50.625C16.9302 50.625 9.375 43.0697 9.375 33.75C9.375 24.4301 16.9302 16.875 26.25 16.875C35.5699 16.875 43.125 24.4301 43.125 33.75ZM26.25 45C20.0368 45 15 39.9632 15 33.75C15 27.5368 20.0368 22.5 26.25 22.5C32.4632 22.5 37.5 27.5368 37.5 33.75C37.5 39.9632 32.4632 45 26.25 45ZM31.875 33.75C31.875 30.6435 29.3567 28.125 26.25 28.125C23.1433 28.125 20.625 30.6435 20.625 33.75C20.625 36.8565 23.1433 39.375 26.25 39.375C29.3567 39.375 31.875 36.8565 31.875 33.75Z" fill="#F8312F"/>
<path d="M26.7197 33.2663C27.3656 33.9113 28.3836 33.9113 29.0295 33.2663L37.0155 25.2906C37.6614 24.6454 37.6614 23.6289 37.0155 22.9838C36.3696 22.3388 35.3518 22.3388 34.7059 22.9838L26.7197 30.9594C26.0934 31.6046 26.0934 32.6211 26.7197 33.2663Z" fill="#9B9B9B"/>
<path d="M36.8582 18.9244L36.0145 15.9431C35.002 12.3806 35.9957 8.53684 38.6207 5.93059L40.2895 4.26187C41.2082 3.32437 42.7832 3.73684 43.1395 4.99309L45 11.25L36.8582 18.9244ZM41.25 23.1186L44.197 23.9782C47.7186 25.0097 51.5181 23.9974 54.0945 21.3229L55.744 19.6228C56.6708 18.6868 56.263 17.0822 55.0212 16.7192L48.75 15L41.25 23.1186Z" fill="#46A4FB"/>
<path d="M29.7186 30.2844C32.013 32.5772 35.7707 32.3604 37.7942 29.8333L47.9653 17.0886C49.1037 15.6625 48.9951 13.6045 47.6944 12.3048C46.3937 11.0051 44.334 10.8967 42.9068 12.034L30.1521 22.1972C27.6409 24.2372 27.4242 27.9919 29.7186 30.2844Z" fill="#50E2FF"/>
<path d="M39.8588 20.1412C40.5039 20.7862 41.5204 20.7862 42.1656 20.1412L50.1413 12.1655C50.7863 11.5204 50.7863 10.5039 50.1413 9.85882C49.4961 9.21373 48.4796 9.21373 47.8344 9.85882L39.8588 17.8345C39.2138 18.4796 39.2138 19.5156 39.8588 20.1412Z" fill="#46A4FB"/>
</svg>
