<svg width="25" height="25" viewBox="0 0 25 25" fill="none" xmlns="http://www.w3.org/2000/svg">
<g clip-path="url(#clip0_14_384)">
<path d="M16.999 2.31895C18.6663 0.663596 21.3672 0.663481 23.0342 2.31895L23.1855 2.47813C24.7004 4.14385 24.6502 6.71484 23.0342 8.31993L21.0439 10.2955L21.2656 10.9361C21.4472 11.4645 21.3104 12.0488 20.917 12.444L19.8447 13.5191C19.2701 14.0955 18.3339 14.0967 17.7578 13.5231L17.1191 12.8893L7.20506 22.7359C5.94267 23.9909 3.89605 23.991 2.63377 22.7359C1.3695 21.4811 1.36945 19.4458 2.63377 18.191L12.5439 8.34532L11.7851 7.59142C11.2081 7.01957 11.2081 6.08906 11.7851 5.5172L12.8652 4.44493L13.0215 4.31017C13.4045 4.02475 13.9085 3.93886 14.3711 4.09239L15.0019 4.3004L16.999 2.31895ZM4.05174 19.6051C3.57541 20.0796 3.5748 20.8472 4.05076 21.3219C4.52987 21.7978 5.30797 21.7978 5.78709 21.3219L15.6543 11.5221L13.9219 9.80235L4.05174 19.6051ZM21.6162 3.73302C20.7321 2.85651 19.3008 2.85721 18.417 3.73399L18.416 3.73302L16.1592 5.97716C15.7823 6.35003 15.2256 6.48185 14.7197 6.31505L14.0488 6.09142L13.584 6.55333L18.7969 11.732L19.2568 11.2711L19.0224 10.5914C18.8474 10.0843 18.9801 9.52474 19.3603 9.14708L21.6162 6.90587C22.4981 6.02883 22.4977 4.60859 21.6162 3.73302Z" fill="#0BA1A1"/>
</g>
<defs>
<clipPath id="clip0_14_384">
<rect width="24" height="24" fill="white" transform="translate(0.985352 0.377563)"/>
</clipPath>
</defs>
</svg>
