<svg width="20" height="20" viewBox="0 0 20 20" fill="none" xmlns="http://www.w3.org/2000/svg">
<g clip-path="url(#clip0_2192_11900)">
<path d="M1.6665 10C1.6665 14.6024 5.39746 18.3333 9.99984 18.3333C11.3805 18.3333 12.4998 17.2141 12.4998 15.8333V15.4167C12.4998 15.0297 12.4998 14.8361 12.5212 14.6737C12.6689 13.5519 13.5517 12.6691 14.6735 12.5214C14.836 12.5 15.0295 12.5 15.4165 12.5H15.8332C17.2139 12.5 18.3332 11.3807 18.3332 10C18.3332 5.39763 14.6022 1.66667 9.99984 1.66667C5.39746 1.66667 1.6665 5.39763 1.6665 10Z" stroke="#6b7280" stroke-width="1.66667" stroke-linecap="round" stroke-linejoin="round"/>
<path d="M5.83317 10.8333C6.29341 10.8333 6.6665 10.4602 6.6665 10C6.6665 9.53977 6.29341 9.16667 5.83317 9.16667C5.37293 9.16667 4.99984 9.53977 4.99984 10C4.99984 10.4602 5.37293 10.8333 5.83317 10.8333Z" stroke="#6b7280" stroke-width="1.66667" stroke-linecap="round" stroke-linejoin="round"/>
<path d="M13.3332 7.50001C13.7934 7.50001 14.1665 7.12691 14.1665 6.66667C14.1665 6.20643 13.7934 5.83334 13.3332 5.83334C12.8729 5.83334 12.4998 6.20643 12.4998 6.66667C12.4998 7.12691 12.8729 7.50001 13.3332 7.50001Z" stroke="#6b7280" stroke-width="1.66667" stroke-linecap="round" stroke-linejoin="round"/>
<path d="M8.33317 6.66667C8.79341 6.66667 9.1665 6.29358 9.1665 5.83334C9.1665 5.3731 8.79341 5.00001 8.33317 5.00001C7.87293 5.00001 7.49984 5.3731 7.49984 5.83334C7.49984 6.29358 7.87293 6.66667 8.33317 6.66667Z" stroke="#6b7280" stroke-width="1.66667" stroke-linecap="round" stroke-linejoin="round"/>
</g>
<defs>
<clipPath id="clip0_2192_11900">
<rect width="20" height="20" fill="white"/>
</clipPath>
</defs>
</svg>
