<svg width="21" height="21" viewBox="0 0 21 21" fill="none" xmlns="http://www.w3.org/2000/svg">
<path d="M8.24194 2.25635C10.2416 1.65766 12.3901 1.7919 14.2996 2.63525C16.2087 3.47858 17.7547 4.97598 18.6589 6.85693L18.8416 7.26611C19.1831 8.08191 19.4005 8.94496 19.4851 9.82568L19.5134 10.2056C19.5317 10.764 19.3843 11.3137 19.0925 11.7856L18.9587 11.9829C18.5558 12.5259 17.9637 12.8644 17.2986 13.1021C16.9726 13.2185 16.6273 13.3107 16.28 13.3911L15.2458 13.6108L15.2205 13.6167L14.0916 13.9194C13.6601 14.0351 13.2843 14.2972 13.0261 14.6567L12.9226 14.8169C12.6673 15.259 12.5983 15.7847 12.7302 16.2778V16.2788L12.821 16.6187C12.9984 17.2977 12.8528 18.0205 12.4265 18.5786C12.1377 18.9563 11.7337 19.2293 11.2761 19.355H11.2751C11.0931 19.4022 10.9048 19.426 10.7166 19.4243H10.7146C8.60906 19.4142 6.57717 18.646 4.99097 17.2612C3.40408 15.8759 2.36891 13.9653 2.07495 11.8794C1.78117 9.79377 2.24821 7.67173 3.39038 5.90186C4.52221 4.14796 6.24239 2.85505 8.24194 2.25635ZM10.4978 2.79639C8.43878 2.86386 6.48777 3.737 5.06519 5.22705C3.6428 6.71701 2.8616 8.70543 2.8894 10.7651C2.91737 12.825 3.75236 14.7919 5.2146 16.2427C6.67701 17.6935 8.65076 18.5132 10.7107 18.5249H10.7156C11.1055 18.5237 11.4713 18.3407 11.7078 18.0308L11.7087 18.0317C11.9397 17.7412 12.0376 17.3681 11.9832 17.0044L11.9509 16.8491L11.8601 16.5112C11.6662 15.7871 11.7678 15.0155 12.1423 14.3667C12.5172 13.7177 13.1352 13.2433 13.8591 13.0493C14.1895 12.9608 14.5652 12.8937 14.9626 12.8237C15.3583 12.7541 15.774 12.6814 16.1755 12.5835C16.9746 12.3885 17.7527 12.0842 18.2253 11.4546C18.4844 11.1095 18.621 10.6869 18.6111 10.2544V10.2466L18.6101 10.2388C18.5003 8.18569 17.591 6.2567 16.0769 4.86572C14.56 3.47214 12.5566 2.72897 10.4978 2.79639ZM6.23022 8.4917C6.55871 8.40368 6.90938 8.44961 7.20386 8.61963C7.49826 8.78967 7.71254 9.07051 7.80054 9.39893C7.88847 9.72734 7.84259 10.0772 7.67261 10.3716C7.50258 10.666 7.22272 10.8812 6.89429 10.9692C6.56599 11.0572 6.21601 11.0111 5.92163 10.8413C5.62715 10.6713 5.41199 10.3905 5.32397 10.062C5.24706 9.77474 5.27289 9.47127 5.39429 9.20264L5.4519 9.08936C5.6219 8.79493 5.90183 8.57974 6.23022 8.4917ZM13.9753 6.66162C14.3038 6.5736 14.6545 6.61953 14.949 6.78955C15.2434 6.95958 15.4576 7.2404 15.5457 7.56885C15.6336 7.89724 15.5877 8.24711 15.4177 8.5415C15.2477 8.83585 14.9678 9.05117 14.6394 9.13916C14.311 9.22711 13.9612 9.18024 13.6667 9.01025C13.3723 8.84022 13.1571 8.5604 13.0691 8.23193C12.9812 7.90357 13.0271 7.55367 13.197 7.25928C13.367 6.96491 13.647 6.7497 13.9753 6.66162ZM9.61011 5.40186C9.93859 5.31384 10.2893 5.35977 10.5837 5.52979C10.878 5.69981 11.0924 5.97986 11.1804 6.30811C11.2684 6.63649 11.2224 6.98634 11.0525 7.28076C10.8825 7.57519 10.6026 7.79038 10.2742 7.87842C9.94581 7.9664 9.59592 7.92035 9.30151 7.75049C9.00711 7.58051 8.79192 7.30052 8.70386 6.97217C8.61584 6.64368 8.66177 6.29301 8.83179 5.99854C9.00179 5.70431 9.28188 5.48988 9.61011 5.40186Z" fill="#6B7280" stroke="#6B7280"/>
</svg>
