<svg width="18" height="18" viewBox="0 0 18 18" fill="none" xmlns="http://www.w3.org/2000/svg">
<g clip-path="url(#clip0_2192_4495)">
<path d="M1.49902 9.00006C1.49902 13.1422 4.85689 16.5001 8.99902 16.5001C10.2417 16.5001 11.249 15.4927 11.249 14.2501V13.8751C11.249 13.5267 11.249 13.3526 11.2683 13.2064C11.4012 12.1967 12.1957 11.4022 13.2053 11.2693C13.3516 11.2501 13.5257 11.2501 13.874 11.2501H14.249C15.4917 11.2501 16.499 10.2427 16.499 9.00006C16.499 4.85793 13.1412 1.50006 8.99902 1.50006C4.85689 1.50006 1.49902 4.85793 1.49902 9.00006Z" stroke="#438606" stroke-width="1.5" stroke-linecap="round" stroke-linejoin="round"/>
<path d="M5.24902 9.75006C5.66324 9.75006 5.99902 9.41428 5.99902 9.00006C5.99902 8.58585 5.66324 8.25006 5.24902 8.25006C4.83481 8.25006 4.49902 8.58585 4.49902 9.00006C4.49902 9.41428 4.83481 9.75006 5.24902 9.75006Z" stroke="#438606" stroke-width="1.5" stroke-linecap="round" stroke-linejoin="round"/>
<path d="M11.999 6.75006C12.4132 6.75006 12.749 6.41427 12.749 6.00006C12.749 5.58585 12.4132 5.25006 11.999 5.25006C11.5848 5.25006 11.249 5.58585 11.249 6.00006C11.249 6.41427 11.5848 6.75006 11.999 6.75006Z" stroke="#438606" stroke-width="1.5" stroke-linecap="round" stroke-linejoin="round"/>
<path d="M7.49902 6.00006C7.91324 6.00006 8.24902 5.66427 8.24902 5.25006C8.24902 4.83585 7.91324 4.50006 7.49902 4.50006C7.08481 4.50006 6.74902 4.83585 6.74902 5.25006C6.74902 5.66427 7.08481 6.00006 7.49902 6.00006Z" stroke="#438606" stroke-width="1.5" stroke-linecap="round" stroke-linejoin="round"/>
</g>
<defs>
<clipPath id="clip0_2192_4495">
<rect width="18" height="18" fill="white"/>
</clipPath>
</defs>
</svg>
