<svg width="20" height="20" viewBox="0 0 20 20" fill="none" xmlns="http://www.w3.org/2000/svg">
<path fill-rule="evenodd" clip-rule="evenodd" d="M14.4477 4.66123L14.4487 4.66025C13.759 4.63905 12.9955 4.7238 12.1811 4.88682H12.1792C10.6868 5.19656 9.17113 5.11934 7.81003 4.88486C7.01145 4.72165 6.23477 4.65928 5.56003 4.65928H5.55417C3.88031 4.69176 2.76724 5.57055 2.02487 6.72764C1.29089 7.87166 0.906897 9.30235 0.665495 10.5001C0.394799 11.8143 0.210039 12.9924 0.199675 14.0021C0.189364 15.0103 0.352631 15.8857 0.811003 16.5675L0.812956 16.5704C1.265 17.2255 1.94062 17.6227 2.78659 17.7745L2.78757 17.7755C5.00473 18.1669 7.0015 16.453 8.37155 13.419H11.6255C12.8549 16.1791 14.5951 17.8194 16.5796 17.8194C16.7777 17.8194 16.9935 17.7968 17.1723 17.7774L17.1821 17.7765L17.1909 17.7755C18.0556 17.6243 18.7356 17.2258 19.1694 16.5636C19.6363 15.8822 19.805 15.0083 19.7973 14.0021C19.7915 13.2443 19.6857 12.3921 19.519 11.4591L19.3335 10.5001C19.092 9.31223 18.7087 7.88686 17.9751 6.74326C17.2331 5.58683 16.1207 4.70432 14.4477 4.66123ZM12.8852 12.4913C12.6539 12.123 12.2573 11.9005 11.8198 11.9005H8.17917C7.67934 11.9007 7.23256 12.1922 7.02585 12.6583L7.02389 12.6622C6.75814 13.2825 6.26306 14.2944 5.57077 15.0968C4.87363 15.9048 4.0348 16.4358 3.07175 16.2638C2.58894 16.1737 2.29212 15.9861 2.10983 15.713L2.10788 15.711C1.82646 15.2967 1.72611 14.6178 1.76803 13.7315C1.80934 12.8589 1.98455 11.8482 2.19382 10.8204C2.53029 9.18676 2.97394 8.04391 3.53561 7.30967C4.05039 6.63686 4.6679 6.30074 5.43112 6.24619L5.58639 6.23936H5.71921C6.25807 6.23936 6.85741 6.29712 7.49753 6.43272H7.49948C9.1175 6.76081 10.8375 6.76041 12.4555 6.43272L12.4565 6.43369C13.1568 6.29775 13.8156 6.23965 14.3745 6.23936C15.2187 6.25778 15.8893 6.59614 16.438 7.31553C16.9996 8.05193 17.4378 9.1947 17.7641 10.8185L17.7661 10.8253C17.996 11.8517 18.1817 12.862 18.228 13.7335C18.275 14.6184 18.1736 15.2971 17.8921 15.711L17.8901 15.714C17.7081 15.9871 17.4116 16.1736 16.9292 16.2638L16.7495 16.2862C15.86 16.3592 15.0825 15.8431 14.4292 15.088C13.7367 14.2877 13.2415 13.2805 12.976 12.6612L12.9741 12.6583L12.8852 12.4913Z" fill="#0BA0A0"/>
<path d="M7.46001 9.13982H6.49985V8.17966C6.49985 8.05935 6.39985 7.93982 6.26001 7.93982H5.53969C5.41938 7.93982 5.29985 8.03982 5.29985 8.17966V9.13982H4.33969C4.21938 9.13982 4.09985 9.23982 4.09985 9.37966V10.1C4.09985 10.2203 4.19985 10.3398 4.33969 10.3398H5.29985V11.3C5.29985 11.4203 5.39985 11.5398 5.53969 11.5398H6.26001C6.38033 11.5398 6.49985 11.4398 6.49985 11.3V10.3398H7.46001C7.58033 10.3398 7.69985 10.2398 7.69985 10.1V9.37966C7.69985 9.26013 7.59985 9.13982 7.46001 9.13982Z" fill="#0BA0A0"/>
<path d="M13.9999 7.80005C13.6398 7.80005 13.3601 8.07973 13.3601 8.43989C13.3601 8.80005 13.6398 9.07973 13.9999 9.07973C14.3601 9.07973 14.6398 8.80005 14.6398 8.43989C14.6398 8.10005 14.3601 7.80005 13.9999 7.80005Z" fill="#0BA0A0"/>
<path d="M15.2795 9.10004C14.9193 9.10004 14.6396 9.37972 14.6396 9.73988C14.6396 10.1 14.9193 10.3797 15.2795 10.3797C15.6396 10.3797 15.9193 10.1 15.9193 9.73988C15.9201 9.37972 15.6396 9.10004 15.2795 9.10004Z" fill="#0BA0A0"/>
<path d="M12.6999 9.10004C12.3397 9.10004 12.0601 9.37972 12.0601 9.73988C12.0601 10.1 12.3397 10.3797 12.6999 10.3797C13.0601 10.3797 13.3397 10.1 13.3397 9.73988C13.3397 9.40004 13.0601 9.10004 12.6999 9.10004Z" fill="#0BA0A0"/>
<path d="M13.9794 10.4C13.6193 10.4 13.3396 10.6797 13.3396 11.0399C13.3396 11.4 13.6193 11.6797 13.9794 11.6797C14.3396 11.6797 14.6193 11.4 14.6193 11.0399C14.6201 10.6797 14.3396 10.4 13.9794 10.4Z" fill="#0BA0A0"/>
</svg>
