<svg width="21" height="21" viewBox="0 0 21 21" fill="none" xmlns="http://www.w3.org/2000/svg">
<path d="M8.07178 2.25635C10.0714 1.65766 12.2199 1.7919 14.1294 2.63525C16.0385 3.47858 17.5845 4.97598 18.4888 6.85693L18.6714 7.26611C19.0129 8.08191 19.2303 8.94496 19.3149 9.82568L19.3433 10.2056C19.3615 10.764 19.2142 11.3137 18.9224 11.7856L18.7886 11.9829C18.3856 12.5259 17.7935 12.8644 17.1284 13.1021C16.8024 13.2185 16.4571 13.3107 16.1099 13.3911L15.0757 13.6108L15.0503 13.6167L13.9214 13.9194C13.4899 14.0351 13.1142 14.2972 12.856 14.6567L12.7524 14.8169C12.4972 15.259 12.4281 15.7847 12.5601 16.2778V16.2788L12.6509 16.6187C12.8282 17.2977 12.6826 18.0205 12.2563 18.5786C11.9676 18.9563 11.5636 19.2293 11.106 19.355H11.105C10.923 19.4022 10.7347 19.426 10.5464 19.4243H10.5444C8.4389 19.4142 6.40701 18.646 4.8208 17.2612C3.23392 15.8759 2.19875 13.9653 1.90479 11.8794C1.611 9.79377 2.07804 7.67173 3.22021 5.90186C4.35205 4.14796 6.07223 2.85505 8.07178 2.25635ZM10.3276 2.79639C8.26861 2.86386 6.3176 3.737 4.89502 5.22705C3.47264 6.71701 2.69143 8.70543 2.71924 10.7651C2.74721 12.825 3.58219 14.7919 5.04443 16.2427C6.50684 17.6935 8.4806 18.5132 10.5405 18.5249H10.5454C10.9354 18.5237 11.3012 18.3407 11.5376 18.0308L11.5386 18.0317C11.7696 17.7412 11.8674 17.3681 11.813 17.0044L11.7808 16.8491L11.6899 16.5112C11.496 15.7871 11.5976 15.0155 11.9722 14.3667C12.347 13.7177 12.965 13.2433 13.689 13.0493C14.0193 12.9608 14.395 12.8937 14.7925 12.8237C15.1882 12.7541 15.6038 12.6814 16.0054 12.5835C16.8044 12.3885 17.5825 12.0842 18.0552 11.4546C18.3142 11.1095 18.4508 10.6869 18.4409 10.2544V10.2466L18.4399 10.2388C18.3301 8.18569 17.4209 6.2567 15.9067 4.86572C14.3898 3.47214 12.3864 2.72897 10.3276 2.79639ZM6.06006 8.4917C6.38854 8.40368 6.73921 8.44961 7.03369 8.61963C7.32809 8.78967 7.54237 9.07051 7.63037 9.39893C7.71831 9.72734 7.67242 10.0772 7.50244 10.3716C7.33241 10.666 7.05255 10.8812 6.72412 10.9692C6.39582 11.0572 6.04584 11.0111 5.75146 10.8413C5.45698 10.6713 5.24182 10.3905 5.15381 10.062C5.0769 9.77474 5.10273 9.47127 5.22412 9.20264L5.28174 9.08936C5.45174 8.79493 5.73166 8.57974 6.06006 8.4917ZM13.8052 6.66162C14.1337 6.5736 14.4843 6.61953 14.7788 6.78955C15.0733 6.95958 15.2875 7.2404 15.3755 7.56885C15.4634 7.89724 15.4175 8.24711 15.2476 8.5415C15.0775 8.83585 14.7976 9.05117 14.4692 9.13916C14.1408 9.22711 13.791 9.18024 13.4966 9.01025C13.2021 8.84022 12.9869 8.5604 12.8989 8.23193C12.811 7.90357 12.857 7.55367 13.0269 7.25928C13.1968 6.96491 13.4769 6.7497 13.8052 6.66162ZM9.43994 5.40186C9.76842 5.31384 10.1191 5.35977 10.4136 5.52979C10.7078 5.69981 10.9223 5.97986 11.0103 6.30811C11.0982 6.63649 11.0522 6.98634 10.8823 7.28076C10.7123 7.57519 10.4324 7.79038 10.104 7.87842C9.77564 7.9664 9.42576 7.92035 9.13135 7.75049C8.83695 7.58051 8.62175 7.30052 8.53369 6.97217C8.44567 6.64368 8.4916 6.29301 8.66162 5.99854C8.83162 5.70431 9.11171 5.48988 9.43994 5.40186Z" fill="#0BA1A1" stroke="#0BA1A1"/>
</svg>
