<svg width="60" height="60" viewBox="0 0 60 60" fill="none" xmlns="http://www.w3.org/2000/svg">
<path d="M44.3313 47.0694H15.6723C13.8289 47.0694 12.3296 45.5701 12.3296 43.7246V42.6145C12.3296 41.3917 12.7106 40.2242 13.4315 39.241C16.1066 35.591 17.5198 31.5437 17.5198 27.5312V26.1036C17.5198 19.2215 23.1197 13.6216 30.0018 13.6216C36.8839 13.6216 42.4838 19.2215 42.4838 26.1036V27.5312C42.4838 31.5417 43.8971 35.591 46.5721 39.241C47.2931 40.2242 47.6741 41.3917 47.6741 42.6145V43.7246C47.6741 45.568 46.1748 47.0694 44.3313 47.0694ZM30.0018 14.6662C23.6953 14.6662 18.5644 19.797 18.5644 26.1036V27.5312C18.5644 31.767 17.0815 36.0294 14.2734 39.8575C13.6835 40.6604 13.3721 41.6149 13.3721 42.6145V43.7246C13.3721 44.9925 14.4044 46.0248 15.6703 46.0248H44.3293C45.5972 46.0248 46.6274 44.9925 46.6274 43.7246V42.6145C46.6274 41.6149 46.3161 40.6604 45.7262 39.8575C42.9201 36.0273 41.4351 31.7649 41.4351 27.5312V26.1036C41.4351 19.797 36.3043 14.6662 29.9977 14.6662H30.0018Z" fill="#262626"/>
<path d="M22.763 26.6262C22.4742 26.6262 22.2407 26.3927 22.2407 26.1039C22.2407 22.4355 24.8481 19.2362 28.4407 18.5009C28.7213 18.4435 28.9999 18.6238 29.0573 18.9064C29.1146 19.1891 28.9323 19.4656 28.6497 19.5229C25.5404 20.162 23.2833 22.9292 23.2833 26.1039C23.2833 26.3927 23.0498 26.6262 22.761 26.6262H22.763Z" fill="#262626"/>
<path d="M30.0016 53.3981C28.2278 53.3981 26.5258 52.7836 25.2087 51.6653C24.9896 51.4789 24.9609 51.1491 25.1493 50.9299C25.3357 50.7108 25.6655 50.6821 25.8847 50.8705C27.0132 51.8291 28.4757 52.3555 30.0016 52.3555C31.5276 52.3555 32.99 51.8291 34.1186 50.8705C34.3398 50.6841 34.6675 50.7108 34.8539 50.9299C35.0403 51.1491 35.0137 51.4789 34.7945 51.6653C33.4775 52.7836 31.7754 53.3981 30.0016 53.3981Z" fill="#262626"/>
<path d="M30.0018 9.94684C29.713 9.94684 29.4795 9.71334 29.4795 9.42454V7.12435C29.4795 6.83555 29.713 6.60205 30.0018 6.60205C30.2906 6.60205 30.5241 6.83555 30.5241 7.12435V9.42454C30.5241 9.71334 30.2906 9.94684 30.0018 9.94684Z" fill="#262626"/>
<path d="M49.5848 34.7552C49.4885 34.7552 49.3882 34.7286 49.3022 34.6712C49.0605 34.5135 48.9908 34.1919 49.1485 33.9482C50.0231 32.5984 50.484 31.0254 50.484 29.3991C50.484 27.7727 50.0211 26.2059 49.1465 24.8499C48.9908 24.6082 49.0605 24.2846 49.3022 24.1289C49.5438 23.9733 49.8674 24.0409 50.0252 24.2846C51.0083 25.8085 51.5286 27.5782 51.5286 29.3991C51.5286 31.2199 51.0083 32.9958 50.0252 34.5156C49.9248 34.6692 49.7569 34.7532 49.5869 34.7532L49.5848 34.7552Z" fill="#262626"/>
<path d="M56.9212 36.9122C56.8454 36.9122 56.7696 36.8958 56.6979 36.8631C56.4378 36.7402 56.3252 36.4288 56.4481 36.1687C57.4476 34.0508 57.9556 31.7732 57.9556 29.4034C57.9556 27.0336 57.4476 24.7559 56.4481 22.638C56.3252 22.3779 56.4358 22.0666 56.6979 21.9437C56.9581 21.8208 57.2694 21.9314 57.3923 22.1936C58.4594 24.4528 59.0002 26.8799 59.0002 29.4054C59.0002 31.9309 58.4594 34.3581 57.3923 36.6173C57.3042 36.8057 57.1158 36.9163 56.9191 36.9163L56.9212 36.9122Z" fill="#262626"/>
<path d="M10.4202 34.7556C10.2482 34.7556 10.0823 34.6716 9.98192 34.518C8.99876 32.9982 8.47852 31.2285 8.47852 29.4015C8.47852 27.5744 8.99876 25.8109 9.98192 24.287C10.1396 24.0453 10.4612 23.9757 10.705 24.1313C10.9466 24.287 11.0163 24.6106 10.8606 24.8544C9.98602 26.2103 9.52311 27.7834 9.52311 29.4035C9.52311 31.0237 9.98602 32.6008 10.8586 33.9527C11.0163 34.1944 10.9466 34.518 10.705 34.6757C10.6169 34.733 10.5186 34.7597 10.4223 34.7597L10.4202 34.7556Z" fill="#262626"/>
<path d="M3.08102 36.9116C2.88439 36.9116 2.698 36.801 2.60788 36.6126C1.54074 34.3533 1 31.9282 1 29.4007C1 26.8732 1.54074 24.448 2.60788 22.1888C2.73077 21.9287 3.04211 21.816 3.30224 21.9389C3.56236 22.0618 3.67501 22.3732 3.55212 22.6333C2.55257 24.7512 2.04461 27.0268 2.04461 29.3986C2.04461 31.7705 2.55257 34.0461 3.55212 36.164C3.67501 36.4241 3.56441 36.7355 3.30224 36.8584C3.23055 36.8932 3.15476 36.9075 3.07897 36.9075L3.08102 36.9116Z" fill="#262626"/>
</svg>
