<svg width="60" height="60" viewBox="0 0 60 60" fill="none" xmlns="http://www.w3.org/2000/svg">
<path d="M29.9993 54.8963C24.7819 54.8963 20.6948 52.8962 20.6948 50.344C20.6948 47.7918 24.7819 45.7939 29.9993 45.7939C35.2168 45.7939 39.3038 47.794 39.3038 50.344C39.3038 52.8941 35.2168 54.8963 29.9993 54.8963ZM29.9993 46.9027C26.1232 46.9027 21.8035 48.3157 21.8035 50.344C21.8035 52.3723 26.1232 53.7875 29.9993 53.7875C33.8755 53.7875 38.1951 52.3745 38.1951 50.344C38.1951 48.3135 33.8755 46.9027 29.9993 46.9027Z" fill="#262626"/>
<path d="M29.9996 43.5481C27.2322 43.5481 24.98 41.2959 24.98 38.5284C24.98 35.761 27.2322 33.5088 29.9996 33.5088C32.7671 33.5088 35.0193 35.761 35.0193 38.5284C35.0193 41.2959 32.7671 43.5481 29.9996 43.5481ZM29.9996 34.6175C27.8431 34.6175 26.0887 36.3719 26.0887 38.5284C26.0887 40.685 27.8431 42.4394 29.9996 42.4394C32.1562 42.4394 33.9106 40.685 33.9106 38.5284C33.9106 36.3719 32.1562 34.6175 29.9996 34.6175Z" fill="#262626"/>
<path d="M46.2611 51.2005C44.8893 51.2005 43.5654 51.0613 42.3284 50.7874C42.0284 50.7222 41.8415 50.4244 41.9067 50.1265C41.9741 49.8287 42.2676 49.6417 42.5676 49.7048C43.7263 49.9613 44.9698 50.0917 46.2611 50.0917C50.1372 50.0917 54.4591 48.6787 54.4591 46.6504C54.4591 44.6221 50.1394 43.2069 46.2611 43.2069C43.2763 43.2069 40.511 43.9243 39.0414 45.0764C38.8001 45.2656 38.4523 45.2243 38.2631 44.983C38.074 44.7417 38.1153 44.3938 38.3566 44.2047C40.0371 42.8851 42.9915 42.0981 46.2611 42.0981C51.4786 42.0981 55.5678 44.0982 55.5678 46.6504C55.5678 49.2026 51.4807 51.2005 46.2611 51.2005Z" fill="#262626"/>
<path d="M46.2599 39.8528C43.4924 39.8528 41.2402 37.6006 41.2402 34.8331C41.2402 32.0657 43.4924 29.8135 46.2599 29.8135C49.0273 29.8135 51.2795 32.0657 51.2795 34.8331C51.2795 37.6006 49.0273 39.8528 46.2599 39.8528ZM46.2599 30.9222C44.1033 30.9222 42.3489 32.6766 42.3489 34.8331C42.3489 36.9897 44.1033 38.7441 46.2599 38.7441C48.4164 38.7441 50.1708 36.9897 50.1708 34.8331C50.1708 32.6766 48.4164 30.9222 46.2599 30.9222Z" fill="#262626"/>
<path d="M13.7383 51.2005C8.52084 51.2005 4.43164 49.2026 4.43164 46.6504C4.43164 44.0982 8.51866 42.0981 13.7383 42.0981C17.0079 42.0981 19.9623 42.8851 21.6428 44.2047C21.8841 44.3938 21.9254 44.7417 21.7363 44.983C21.5471 45.2221 21.1993 45.2656 20.958 45.0764C19.4884 43.9221 16.7231 43.2069 13.7383 43.2069C9.86216 43.2069 5.54036 44.6221 5.54036 46.6504C5.54036 48.6787 9.85999 50.0917 13.7383 50.0917C15.0296 50.0917 16.2731 49.9613 17.4319 49.7048C17.7319 49.6417 18.0275 49.8287 18.0927 50.1265C18.1579 50.4244 17.971 50.7222 17.671 50.7874C16.434 51.0613 15.1101 51.2005 13.7383 51.2005Z" fill="#262626"/>
<path d="M13.7389 39.8528C10.9714 39.8528 8.71924 37.6006 8.71924 34.8331C8.71924 32.0657 10.9714 29.8135 13.7389 29.8135C16.5063 29.8135 18.7585 32.0657 18.7585 34.8331C18.7585 37.6006 16.5063 39.8528 13.7389 39.8528ZM13.7389 30.9222C11.5823 30.9222 9.82795 32.6766 9.82795 34.8331C9.82795 36.9897 11.5823 38.7441 13.7389 38.7441C15.8954 38.7441 17.6498 36.9897 17.6498 34.8331C17.6498 32.6766 15.8954 30.9222 13.7389 30.9222Z" fill="#262626"/>
<path d="M34.2803 29.3435C34.2085 29.3435 34.1368 29.3305 34.0672 29.3022C33.8607 29.2174 33.7259 29.0153 33.7259 28.7892V25.3695H33.602C30.8498 25.3695 28.6128 23.1304 28.6128 20.3803V10.0932C28.6128 7.34317 30.8498 5.104 33.602 5.104H46.2913C49.0436 5.104 51.2806 7.34317 51.2806 10.0932V20.3803C51.2806 23.1304 49.0436 25.3695 46.2913 25.3695H38.4825L34.6716 29.1805C34.5651 29.287 34.4238 29.3435 34.2803 29.3435ZM33.602 6.21489C31.4628 6.21489 29.7215 7.95622 29.7215 10.0954V20.3825C29.7215 22.5217 31.4628 24.263 33.602 24.263H34.2803C34.5868 24.263 34.8346 24.5108 34.8346 24.8174V27.4522L37.8608 24.426C37.9651 24.3217 38.1064 24.263 38.2521 24.263H46.2892C48.4283 24.263 50.1697 22.5217 50.1697 20.3825V10.0954C50.1697 7.95622 48.4283 6.21489 46.2892 6.21489H33.5998H33.602Z" fill="#262626"/>
<path d="M24.0218 30.9219C23.8783 30.9219 23.737 30.8654 23.6304 30.7589L19.8195 26.9479H12.0107C9.25848 26.9479 7.02148 24.7088 7.02148 21.9587V11.6738C7.02148 8.92374 9.25848 6.68457 12.0107 6.68457H24.6979C25.1674 6.68457 25.6348 6.75196 26.087 6.88457C26.3805 6.97153 26.5501 7.27806 26.4631 7.57154C26.3761 7.86502 26.0696 8.03459 25.7761 7.94763C25.424 7.84546 25.0609 7.79328 24.6979 7.79328H12.0107C9.87153 7.79328 8.1302 9.53462 8.1302 11.6738V21.9587C8.1302 24.0979 9.87153 25.8392 12.0107 25.8392H20.0478C20.1956 25.8392 20.3347 25.8979 20.4391 26.0023L23.4652 29.0284V26.3936C23.4652 26.0871 23.7131 25.8392 24.0196 25.8392H24.6957C25.524 25.8392 26.3153 25.5783 26.987 25.0849C27.2349 24.9044 27.5805 24.9566 27.7609 25.2044C27.9414 25.4523 27.8892 25.7979 27.6414 25.9805C26.7783 26.6132 25.7587 26.9479 24.6935 26.9479H24.5718V30.3676C24.5718 30.5915 24.437 30.7936 24.2305 30.8806C24.1609 30.9089 24.0891 30.9219 24.0174 30.9219H24.0218Z" fill="#262626"/>
</svg>
