<svg width="60" height="60" viewBox="0 0 60 60" fill="none" xmlns="http://www.w3.org/2000/svg">
<path d="M11.3872 55.5703C9.68061 55.5703 8.07406 54.9051 6.86751 53.6964C5.6588 52.4877 4.99365 50.8833 4.99365 49.1768V28.5177C4.99365 28.2112 5.24144 27.9634 5.54797 27.9634C5.85449 27.9634 6.10228 28.2112 6.10228 28.5177V49.1768C6.10228 50.5876 6.65232 51.9138 7.65016 52.9138C8.648 53.9116 9.97627 54.4616 11.3872 54.4616C14.3003 54.4616 16.6677 52.0898 16.6677 49.1768V28.5177C16.6677 28.2112 16.9156 27.9634 17.2221 27.9634C17.5286 27.9634 17.7764 28.2112 17.7764 28.5177V49.1768C17.7764 52.7029 14.9111 55.5703 11.3872 55.5703Z" fill="#262626"/>
<path d="M19.7351 25.3758H3.03918C2.73265 25.3758 2.48486 25.128 2.48486 24.8214C2.48486 24.5149 2.73265 24.2671 3.03918 24.2671H19.7351C20.0416 24.2671 20.2895 24.5149 20.2895 24.8214C20.2895 25.128 20.0416 25.3758 19.7351 25.3758Z" fill="#262626"/>
<path d="M40.3966 49.5783C36.0118 49.5783 31.627 47.9087 28.2878 44.5716C23.1899 39.4694 21.842 31.7475 24.8725 25.2387L17.2006 17.5669C16.9832 17.3495 16.9832 16.9995 17.2006 16.7821C17.418 16.5647 17.768 16.5647 17.9854 16.7821L25.9355 24.7322C26.1029 24.8996 26.1464 25.1561 26.0398 25.3692C22.9985 31.5258 24.2159 38.9281 29.0725 43.7869C35.3161 50.0326 45.4793 50.0326 51.7229 43.7869C57.9665 37.5411 57.9665 27.3801 51.7229 21.1365C46.8685 16.2777 39.4684 15.0581 33.3096 18.0995C33.0966 18.2038 32.84 18.1625 32.6726 17.9951L24.7225 10.045C24.5051 9.82761 24.5051 9.47761 24.7225 9.26021C24.9399 9.04282 25.2899 9.04282 25.5073 9.26021L33.1792 16.9321C39.6901 13.8994 47.4098 15.2494 52.5077 20.3517C59.1839 27.0279 59.1839 37.8933 52.5077 44.5695C49.1685 47.9087 44.7837 49.5761 40.3988 49.5761L40.3966 49.5783Z" fill="#262626"/>
<path d="M13.0045 17.0912C12.8632 17.0912 12.7219 17.0369 12.6132 16.9282C12.3958 16.7108 12.3958 16.3608 12.6132 16.1434L24.1634 4.59322C24.3808 4.37583 24.7309 4.37583 24.9483 4.59322C25.1657 4.81062 25.1657 5.16062 24.9483 5.37802L13.398 16.9282C13.2893 17.0369 13.148 17.0912 13.0067 17.0912H13.0045Z" fill="#262626"/>
<path d="M40.3947 35.2582C36.1164 35.2582 31.8381 34.9604 27.5902 34.3647C27.288 34.3213 27.0749 34.043 27.1184 33.7386C27.1619 33.4365 27.4423 33.2256 27.7445 33.2669C36.1381 34.4452 44.6513 34.4452 53.0449 33.2669C53.3449 33.2256 53.6275 33.4365 53.6709 33.7386C53.7144 34.0408 53.5014 34.3213 53.1992 34.3647C48.9513 34.9604 44.673 35.2582 40.3947 35.2582Z" fill="#262626"/>
</svg>
