<svg width="60" height="60" viewBox="0 0 60 60" fill="none" xmlns="http://www.w3.org/2000/svg">
<path d="M37.3193 50.657H9.93625C7.33621 50.657 5.22314 48.5417 5.22314 45.9438V14.0564C5.22314 11.4563 7.33838 9.34326 9.93625 9.34326H37.3193C39.9194 9.34326 42.0324 11.4585 42.0324 14.0564V27.2718C42.0324 27.5783 41.7846 27.8262 41.4781 27.8262C41.1716 27.8262 40.9237 27.5783 40.9237 27.2718V14.0564C40.9237 12.0694 39.3063 10.452 37.3193 10.452H9.93625C7.94926 10.452 6.33188 12.0694 6.33188 14.0564V45.9438C6.33188 47.9308 7.94926 49.5482 9.93625 49.5482H37.3193C39.3063 49.5482 40.9237 47.9308 40.9237 45.9438V45.7004C40.9237 45.3938 41.1716 45.146 41.4781 45.146C41.7846 45.146 42.0324 45.3938 42.0324 45.7004V45.9438C42.0324 48.5439 39.9172 50.657 37.3193 50.657Z" fill="#262626"/>
<path d="M20.8277 25.7566H11.9884C11.6819 25.7566 11.4341 25.5087 11.4341 25.2022V16.363C11.4341 16.0564 11.6819 15.8086 11.9884 15.8086H20.8277C21.1342 15.8086 21.3821 16.0564 21.3821 16.363V25.2022C21.3821 25.5087 21.1342 25.7566 20.8277 25.7566ZM12.5428 24.6479H20.2733V16.9173H12.5428V24.6479Z" fill="#262626"/>
<path d="M36.0329 18.3045H26.048C25.7415 18.3045 25.4937 18.0567 25.4937 17.7502C25.4937 17.4436 25.7415 17.1958 26.048 17.1958H36.0329C36.3395 17.1958 36.5873 17.4436 36.5873 17.7502C36.5873 18.0567 36.3395 18.3045 36.0329 18.3045Z" fill="#262626"/>
<path d="M27.3495 32.0936H11.4167C11.1101 32.0936 10.8623 31.8457 10.8623 31.5392C10.8623 31.2327 11.1101 30.9849 11.4167 30.9849H27.3495C27.6561 30.9849 27.9039 31.2327 27.9039 31.5392C27.9039 31.8457 27.6561 32.0936 27.3495 32.0936Z" fill="#262626"/>
<path d="M33.3779 38.1595H11.4167C11.1101 38.1595 10.8623 37.9117 10.8623 37.6051C10.8623 37.2986 11.1101 37.0508 11.4167 37.0508H33.3779C33.6844 37.0508 33.9323 37.2986 33.9323 37.6051C33.9323 37.9117 33.6844 38.1595 33.3779 38.1595Z" fill="#262626"/>
<path d="M35.6868 44.2244H11.069C10.7625 44.2244 10.5146 43.9766 10.5146 43.6701C10.5146 43.3636 10.7625 43.1157 11.069 43.1157H35.6868C35.9933 43.1157 36.2411 43.3636 36.2411 43.6701C36.2411 43.9766 35.9933 44.2244 35.6868 44.2244Z" fill="#262626"/>
<path d="M49.9064 49.7853C49.7585 49.7853 49.6194 49.7266 49.5151 49.6222L30.0626 30.1698C29.9952 30.1024 29.9474 30.0197 29.9213 29.9306L28.2038 23.8979C28.1495 23.7044 28.2039 23.4957 28.3452 23.3544C28.4865 23.2131 28.6952 23.1588 28.8887 23.2131L34.9214 24.9305C35.0127 24.9566 35.0952 25.0044 35.1605 25.0718L54.613 44.5243C54.8303 44.7417 54.8303 45.0917 54.613 45.3091L50.2977 49.6244C50.1933 49.7288 50.052 49.7875 49.9064 49.7875V49.7853ZM30.9474 29.4871L49.9064 48.4461L53.4369 44.9156L34.4779 25.9566L29.543 24.5523L30.9474 29.4871Z" fill="#262626"/>
<path d="M47.1046 46.9833C46.9633 46.9833 46.822 46.929 46.7133 46.8203C46.4959 46.6029 46.4959 46.2529 46.7133 46.0355L51.0286 41.7202C51.246 41.5028 51.596 41.5028 51.8134 41.7202C52.0308 41.9376 52.0308 42.2876 51.8134 42.505L47.4981 46.8203C47.3894 46.929 47.2481 46.9833 47.1068 46.9833H47.1046Z" fill="#262626"/>
<path d="M30.4538 30.3326C30.3125 30.3326 30.1712 30.2783 30.0625 30.1696C29.8451 29.9522 29.8451 29.6021 30.0625 29.3847L34.3169 25.1303C34.5343 24.9129 34.8843 24.9129 35.1017 25.1303C35.3191 25.3477 35.3191 25.6977 35.1017 25.9151L30.8473 30.1696C30.7386 30.2783 30.5973 30.3326 30.456 30.3326H30.4538Z" fill="#262626"/>
</svg>
