<svg width="60" height="60" viewBox="0 0 60 60" fill="none" xmlns="http://www.w3.org/2000/svg">
<path d="M48.4233 26.3666C48.1168 26.3666 47.8689 26.1188 47.8689 25.8123C47.8689 15.9578 39.8514 7.94026 29.9969 7.94026C20.1424 7.94026 12.1248 15.9578 12.1248 25.8123C12.1248 26.1188 11.8771 26.3666 11.5705 26.3666C11.264 26.3666 11.0161 26.1188 11.0161 25.8123C11.0161 15.3469 19.5315 6.83154 29.9969 6.83154C40.4622 6.83154 48.9776 15.3469 48.9776 25.8123C48.9776 26.1188 48.7298 26.3666 48.4233 26.3666Z" fill="#262626"/>
<path d="M13.7012 39.1836H9.44682C7.8381 39.1836 6.5293 37.8749 6.5293 36.2662V28.1748C6.5293 26.566 7.8381 25.2573 9.44682 25.2573H13.7012C15.3099 25.2573 16.6186 26.566 16.6186 28.1748V36.2662C16.6186 37.8749 15.3099 39.1836 13.7012 39.1836ZM9.44895 26.366C8.45111 26.366 7.64026 27.1769 7.64026 28.1748V36.2662C7.64026 37.264 8.45111 38.0749 9.44895 38.0749H13.7033C14.7012 38.0749 15.5121 37.264 15.5121 36.2662V28.1748C15.5121 27.1769 14.7012 26.366 13.7033 26.366H9.44895Z" fill="#262626"/>
<path d="M50.5533 39.1836H46.2989C44.6902 39.1836 43.3813 37.8749 43.3813 36.2662V28.1748C43.3813 26.566 44.6902 25.2573 46.2989 25.2573H50.5533C52.162 25.2573 53.4707 26.566 53.4707 28.1748V36.2662C53.4707 37.8749 52.162 39.1836 50.5533 39.1836ZM46.2989 26.366C45.301 26.366 44.4901 27.1769 44.4901 28.1748V36.2662C44.4901 37.264 45.301 38.0749 46.2989 38.0749H50.5533C51.5511 38.0749 52.3619 37.264 52.3619 36.2662V28.1748C52.3619 27.1769 51.5511 26.366 50.5533 26.366H46.2989Z" fill="#262626"/>
<path d="M30.0009 40.8428C24.9313 40.8428 20.8052 36.7188 20.8052 31.6492C20.8052 26.5796 24.9291 22.4556 30.0009 22.4556C35.0728 22.4556 39.1967 26.5796 39.1967 31.6492C39.1967 36.7188 35.0728 40.8428 30.0009 40.8428ZM30.0009 23.5621C25.5422 23.5621 21.916 27.1904 21.916 31.647C21.916 36.1036 25.5443 39.7319 30.0009 39.7319C34.4575 39.7319 38.0858 36.1036 38.0858 31.647C38.0858 27.1904 34.4575 23.5621 30.0009 23.5621Z" fill="#262626"/>
<path d="M46.5819 53.1688C46.2754 53.1688 46.0276 52.921 46.0276 52.6144C46.0276 48.61 38.6883 45.2274 30.0012 45.2274C21.3141 45.2274 13.9748 48.61 13.9748 52.6144C13.9748 52.921 13.7271 53.1688 13.4205 53.1688C13.114 53.1688 12.8662 52.921 12.8662 52.6144C12.8662 47.8513 20.3924 44.1187 30.0012 44.1187C39.6101 44.1187 47.1363 47.8513 47.1363 52.6144C47.1363 52.921 46.8885 53.1688 46.5819 53.1688Z" fill="#262626"/>
<path d="M18.9769 42.8663H15.255C15.1072 42.8663 14.9681 42.8076 14.8638 42.7033L11.1811 39.0206C10.9637 38.8032 10.9637 38.4532 11.1811 38.2358C11.3985 38.0184 11.7485 38.0184 11.9659 38.2358L15.4855 41.7554H18.9769C19.2834 41.7554 19.5312 42.0032 19.5312 42.3098C19.5312 42.6163 19.2834 42.8641 18.9769 42.8641V42.8663Z" fill="#262626"/>
</svg>
