<svg width="60" height="60" viewBox="0 0 60 60" fill="none" xmlns="http://www.w3.org/2000/svg">
<path d="M48.1752 42.4903H38.1034C37.7968 42.4903 37.549 42.2424 37.549 41.9359C37.549 41.6294 37.7968 41.3815 38.1034 41.3815H48.1752C50.3144 41.3815 52.0557 39.6402 52.0557 37.501V9.81148C52.0557 7.67231 50.3144 5.93098 48.1752 5.93098H11.8247C9.68551 5.93098 7.94418 7.67231 7.94418 9.81148V37.4989C7.94418 39.638 9.68551 41.3794 11.8247 41.3794H21.8944C22.2009 41.3794 22.4488 41.6272 22.4488 41.9337C22.4488 42.2403 22.2009 42.4881 21.8944 42.4881H11.8247C9.07463 42.4881 6.83545 40.2511 6.83545 37.4989V9.81148C6.83545 7.05926 9.07463 4.82227 11.8247 4.82227H48.1752C50.9253 4.82227 53.1645 7.05926 53.1645 9.81148V37.4989C53.1645 40.2511 50.9253 42.4881 48.1752 42.4881V42.4903Z" fill="#262626"/>
<path d="M35.1182 12.0594H24.8854C24.5789 12.0594 24.3311 11.8116 24.3311 11.505C24.3311 11.1985 24.5789 10.9507 24.8854 10.9507H35.1182C35.4247 10.9507 35.6725 11.1985 35.6725 11.505C35.6725 11.8116 35.4247 12.0594 35.1182 12.0594Z" fill="#262626"/>
<path d="M46.3264 21.8533H13.6716C13.365 21.8533 13.1172 21.6055 13.1172 21.299C13.1172 20.9925 13.365 20.7446 13.6716 20.7446H46.3264C46.6329 20.7446 46.8808 20.9925 46.8808 21.299C46.8808 21.6055 46.6329 21.8533 46.3264 21.8533Z" fill="#262626"/>
<path d="M46.327 30.286H36.8986C36.5921 30.286 36.3442 30.0381 36.3442 29.7316C36.3442 29.4251 36.5921 29.1772 36.8986 29.1772H46.327C46.6335 29.1772 46.8814 29.4251 46.8814 29.7316C46.8814 30.0381 46.6335 30.286 46.327 30.286Z" fill="#262626"/>
<path d="M23.1 30.286H13.6716C13.365 30.286 13.1172 30.0381 13.1172 29.7316C13.1172 29.4251 13.365 29.1772 13.6716 29.1772H23.1C23.4065 29.1772 23.6543 29.4251 23.6543 29.7316C23.6543 30.0381 23.4065 30.286 23.1 30.286Z" fill="#262626"/>
<path d="M43.0747 55.1778C42.7682 55.1778 42.5203 54.93 42.5203 54.6234C42.5203 50.7734 36.905 47.6429 30.0006 47.6429C23.0961 47.6429 17.4808 50.7756 17.4808 54.6234C17.4808 54.93 17.233 55.1778 16.9264 55.1778C16.6199 55.1778 16.3721 54.93 16.3721 54.6234C16.3721 50.1625 22.4852 46.5342 30.0006 46.5342C37.5159 46.5342 43.629 50.1625 43.629 54.6234C43.629 54.93 43.3812 55.1778 43.0747 55.1778Z" fill="#262626"/>
<path d="M30.0005 43.1538C26.3721 43.1538 23.4199 40.2016 23.4199 36.5754C23.4199 32.9493 26.3721 29.9971 30.0005 29.9971C33.6288 29.9971 36.5788 32.9493 36.5788 36.5754C36.5788 40.2016 33.6266 43.1538 30.0005 43.1538ZM30.0005 31.1036C26.983 31.1036 24.5286 33.558 24.5286 36.5733C24.5286 39.5885 26.983 42.0429 30.0005 42.0429C33.0179 42.0429 35.4701 39.5885 35.4701 36.5733C35.4701 33.558 33.0157 31.1036 30.0005 31.1036Z" fill="#262626"/>
</svg>
