<svg width="60" height="60" viewBox="0 0 60 60" fill="none" xmlns="http://www.w3.org/2000/svg">
<path d="M23.1202 43.8538C18.6224 43.8538 14.1244 42.1407 10.7004 38.7189C3.85247 31.871 3.85247 20.7295 10.7004 13.8816C17.5483 7.03362 28.6898 7.03362 35.5378 13.8816C42.3857 20.7295 42.3857 31.871 35.5378 38.7189C32.1138 42.1429 27.6159 43.8538 23.118 43.8538H23.1202ZM23.1202 9.85324C18.9071 9.85324 14.6918 11.4576 11.4853 14.6642C5.06996 21.0795 5.06996 31.5188 11.4853 37.9341C17.9006 44.3494 28.3399 44.3494 34.7552 37.9341C41.1705 31.5188 41.1705 21.0795 34.7552 14.6642C31.5465 11.4554 27.3334 9.85324 23.1202 9.85324Z" fill="#262626"/>
<path d="M13.8604 36.1127C13.7191 36.1127 13.5778 36.0583 13.4691 35.9496C10.8908 33.3713 9.47119 29.9452 9.47119 26.2995C9.47119 25.993 9.71909 25.7451 10.0256 25.7451C10.3321 25.7451 10.5799 25.993 10.5799 26.2995C10.5799 29.6495 11.8843 32.7974 14.2539 35.167C14.4713 35.3844 14.4713 35.7344 14.2539 35.9518C14.1452 36.0605 14.0039 36.1149 13.8626 36.1149L13.8604 36.1127Z" fill="#262626"/>
<path d="M44.4111 51.2546C43.4306 51.2546 42.5089 50.8742 41.8197 50.185L38.1892 46.5545C37.5001 45.8654 37.1196 44.9436 37.1196 43.9632C37.1196 42.9827 37.5001 42.061 38.1892 41.3718C38.8783 40.6827 39.8001 40.3022 40.7805 40.3022C41.761 40.3022 42.6827 40.6827 43.3719 41.3718L47.0024 45.0023C47.6915 45.6915 48.072 46.6132 48.072 47.5937C48.072 48.5741 47.6915 49.4959 47.0024 50.185C46.3132 50.8742 45.3915 51.2546 44.4111 51.2546ZM40.7828 41.4088C40.1284 41.4088 39.474 41.6588 38.9762 42.1566C37.9805 43.1523 37.9805 44.7741 38.9762 45.7719L42.6066 49.4024C43.6023 50.3981 45.2241 50.3981 46.222 49.4024C47.2176 48.4067 47.2176 46.785 46.222 45.7871L42.5914 42.1566C42.0936 41.6588 41.4392 41.4088 40.7849 41.4088H40.7828Z" fill="#262626"/>
<path d="M18.4171 31.3735C18.1106 31.3735 17.8628 31.1257 17.8628 30.8192V25.8278C17.8628 25.5213 18.1106 25.2734 18.4171 25.2734C18.7236 25.2734 18.9715 25.5213 18.9715 25.8278V30.8192C18.9715 31.1257 18.7236 31.3735 18.4171 31.3735Z" fill="#262626"/>
<path d="M24.8434 31.3732C24.5369 31.3732 24.2891 31.1254 24.2891 30.8189V22.7926C24.2891 22.4861 24.5369 22.2383 24.8434 22.2383C25.1499 22.2383 25.3978 22.4861 25.3978 22.7926V30.8189C25.3978 31.1254 25.1499 31.3732 24.8434 31.3732Z" fill="#262626"/>
<path d="M31.2722 31.3731C30.9657 31.3731 30.7178 31.1253 30.7178 30.8188V17.9142C30.7178 17.6077 30.9657 17.3599 31.2722 17.3599C31.5787 17.3599 31.8265 17.6077 31.8265 17.9142V30.8188C31.8265 31.1253 31.5787 31.3731 31.2722 31.3731Z" fill="#262626"/>
<path d="M46.7029 31.3732C46.3963 31.3732 46.1484 31.1254 46.1484 30.8189V20.0187C46.1484 19.7122 46.3963 19.4644 46.7029 19.4644C47.0094 19.4644 47.2572 19.7122 47.2572 20.0187V30.8189C47.2572 31.1254 47.0094 31.3732 46.7029 31.3732Z" fill="#262626"/>
<path d="M53.8811 31.3729C53.5746 31.3729 53.3267 31.1251 53.3267 30.8186V13.4552C53.3267 13.1487 53.5746 12.9009 53.8811 12.9009C54.1876 12.9009 54.4354 13.1487 54.4354 13.4552V30.8186C54.4354 31.1251 54.1876 31.3729 53.8811 31.3729Z" fill="#262626"/>
</svg>
