<svg width="60" height="60" viewBox="0 0 60 60" fill="none" xmlns="http://www.w3.org/2000/svg">
<path d="M40.3944 28.3988C40.0878 28.3988 39.84 28.151 39.84 27.8445C39.84 21.1422 32.3073 20.6204 29.9985 20.6204C27.6898 20.6204 20.1571 21.1422 20.1571 27.8445C20.1571 28.151 19.9092 28.3988 19.6027 28.3988C19.2962 28.3988 19.0483 28.151 19.0483 27.8445C19.0483 22.7053 23.2441 19.5117 29.9985 19.5117C36.753 19.5117 40.9487 22.7053 40.9487 27.8445C40.9487 28.151 40.7009 28.3988 40.3944 28.3988Z" fill="#262626"/>
<path d="M30.0006 17.2791C27.0202 17.2791 24.5962 14.8551 24.5962 11.8747C24.5962 8.89417 27.0202 6.47021 30.0006 6.47021C32.9811 6.47021 35.4051 8.89417 35.4051 11.8747C35.4051 14.8551 32.9811 17.2791 30.0006 17.2791ZM30.0006 7.58111C27.6332 7.58111 25.7049 9.50722 25.7049 11.8768C25.7049 14.2464 27.631 16.1725 30.0006 16.1725C32.3703 16.1725 34.2964 14.2464 34.2964 11.8768C34.2964 9.50722 32.3703 7.58111 30.0006 7.58111Z" fill="#262626"/>
<path d="M50.5642 34.546H9.43751C8.3201 34.546 7.40923 33.646 7.39184 32.5351L7.03311 29.4002C7.03093 29.3785 7.02881 29.3589 7.02881 29.3372C7.02881 28.2089 7.9462 27.2915 9.07447 27.2915H50.9251C52.0534 27.2915 52.9708 28.2089 52.9708 29.3372C52.9708 29.3589 52.9708 29.3785 52.9665 29.4002L52.6078 32.5351C52.5904 33.6481 51.6795 34.546 50.5621 34.546H50.5642ZM8.13967 29.3089L8.49622 32.4372C8.4984 32.459 8.50052 32.4785 8.50052 32.5003C8.50052 33.0177 8.92011 33.4373 9.43751 33.4373H50.5642C51.0816 33.4373 51.5012 33.0177 51.5012 32.5003C51.5012 32.4785 51.5012 32.459 51.5056 32.4372L51.8621 29.3089C51.8469 28.8046 51.4338 28.4002 50.9251 28.4002H9.07447C8.56794 28.4002 8.15271 28.8046 8.13749 29.3089H8.13967Z" fill="#262626"/>
<path d="M15.2804 28.3987C14.9739 28.3987 14.7261 28.1509 14.7261 27.8443V20.5986C14.7261 20.4486 14.7869 20.3073 14.8935 20.2029L20.0761 15.142C20.2957 14.9289 20.6457 14.9333 20.8609 15.1507C21.074 15.3702 21.0696 15.7202 20.8522 15.9355L15.8369 20.8334V27.8465C15.8369 28.153 15.5891 28.4009 15.2826 28.4009L15.2804 28.3987Z" fill="#262626"/>
<path d="M37.1079 43.2206H22.8947C22.1599 43.2206 21.562 42.6228 21.562 41.888V39.2858C21.562 38.551 22.1599 37.9531 22.8947 37.9531H37.1079C37.8427 37.9531 38.4406 38.551 38.4406 39.2858V41.888C38.4406 42.6228 37.8427 43.2206 37.1079 43.2206ZM22.8947 39.0618C22.7729 39.0618 22.6707 39.164 22.6707 39.2858V41.888C22.6707 42.0097 22.7729 42.1119 22.8947 42.1119H37.1079C37.2297 42.1119 37.3318 42.0097 37.3318 41.888V39.2858C37.3318 39.164 37.2297 39.0618 37.1079 39.0618H22.8947Z" fill="#262626"/>
<path d="M43.8401 53.5272H16.1614C14.7092 53.5272 13.5266 52.3533 13.5114 50.9032L12.2788 37.6574C12.2505 37.353 12.4744 37.0834 12.7788 37.0552C13.0766 37.0247 13.3527 37.2508 13.3832 37.5552L14.6179 50.825C14.6179 50.8424 14.6201 50.8598 14.6201 50.8771C14.6201 51.7272 15.3114 52.4185 16.1614 52.4185H43.8401C44.6901 52.4185 45.3815 51.7272 45.3815 50.8771C45.3815 50.8598 45.3815 50.8424 45.3837 50.825L46.9598 33.9399C46.988 33.6356 47.2598 33.4116 47.5641 33.4399C47.8685 33.4682 48.0924 33.7377 48.0641 34.0443L46.4902 50.9054C46.4749 52.3533 45.2923 53.5294 43.8401 53.5294V53.5272Z" fill="#262626"/>
</svg>
