<svg width="60" height="60" viewBox="0 0 60 60" fill="none" xmlns="http://www.w3.org/2000/svg">
<path d="M16.1202 39.4275H9.90058C6.62227 39.4275 3.95264 36.76 3.95264 33.4795V12.1183C3.95264 8.84001 6.62009 6.17041 9.90058 6.17041H33.2683C36.5467 6.17041 39.2162 8.83784 39.2162 12.1183V32.4056C39.2162 32.7121 38.9685 32.96 38.6619 32.96C38.3554 32.96 38.1076 32.7121 38.1076 32.4056V12.1183C38.1076 9.45089 35.938 7.27912 33.2683 7.27912H9.90058C7.23315 7.27912 5.06137 9.44872 5.06137 12.1183V33.4795C5.06137 36.147 7.23097 38.3187 9.90058 38.3187H16.1202C16.4267 38.3187 16.6746 38.5666 16.6746 38.8731C16.6746 39.1796 16.4267 39.4275 16.1202 39.4275Z" fill="#262626"/>
<path d="M55.4926 31.9403C55.3839 31.9403 55.2752 31.9077 55.1796 31.8446L42.5729 23.2575C42.4207 23.1554 42.3315 22.9836 42.3315 22.7988C42.3315 22.6141 42.4229 22.4445 42.5729 22.3401L55.1796 13.753C55.3492 13.6378 55.5687 13.6248 55.7513 13.7204C55.9339 13.8161 56.047 14.0052 56.047 14.2096V31.3838C56.047 31.5881 55.9339 31.7772 55.7513 31.8729C55.6709 31.9164 55.5818 31.9381 55.4926 31.9381V31.9403ZM43.8707 22.7988L54.9383 30.3381V15.2596L43.8707 22.7988Z" fill="#262626"/>
<path d="M21.5854 17.3312C20.8919 17.3312 20.3267 16.7659 20.3267 16.0725C20.3267 15.379 20.8919 14.8159 21.5854 14.8159C22.2789 14.8159 22.8441 15.379 22.8441 16.0725C22.8441 16.7659 22.2789 17.3312 21.5854 17.3312ZM21.5854 15.9246C21.5028 15.9246 21.4353 15.992 21.4353 16.0725C21.4353 16.1529 21.5028 16.2225 21.5854 16.2225C21.668 16.2225 21.7354 16.1551 21.7354 16.0725C21.7354 15.9898 21.668 15.9246 21.5854 15.9246Z" fill="#262626"/>
<path d="M13.9745 17.3312C13.2811 17.3312 12.7158 16.7659 12.7158 16.0725C12.7158 15.379 13.2811 14.8159 13.9745 14.8159C14.668 14.8159 15.2311 15.379 15.2311 16.0725C15.2311 16.7659 14.668 17.3312 13.9745 17.3312ZM13.9745 15.9246C13.8919 15.9246 13.8246 15.992 13.8246 16.0725C13.8246 16.1529 13.8919 16.2225 13.9745 16.2225C14.0572 16.2225 14.1224 16.1551 14.1224 16.0725C14.1224 15.9898 14.055 15.9246 13.9745 15.9246Z" fill="#262626"/>
<path d="M29.1967 17.3312C28.5032 17.3312 27.938 16.7659 27.938 16.0725C27.938 15.379 28.5032 14.8159 29.1967 14.8159C29.8902 14.8159 30.4554 15.379 30.4554 16.0725C30.4554 16.7659 29.8902 17.3312 29.1967 17.3312ZM29.1967 15.9246C29.1141 15.9246 29.0467 15.992 29.0467 16.0725C29.0467 16.1529 29.1141 16.2225 29.1967 16.2225C29.2793 16.2225 29.3467 16.1551 29.3467 16.0725C29.3467 15.9898 29.2793 15.9246 29.1967 15.9246Z" fill="#262626"/>
<path d="M33.7359 53.8297C31.2968 53.8297 28.9772 52.7797 27.3815 50.8884C27.3184 50.8536 27.2619 50.8079 27.2206 50.7492L20.4749 41.3773C20.0879 40.8817 19.9118 40.2425 19.9922 39.5969C20.0727 38.9512 20.3988 38.3751 20.9118 37.9751L20.9596 37.936C21.4596 37.5468 22.0814 37.3729 22.7097 37.4534C23.3379 37.5316 23.8988 37.849 24.288 38.349L26.4858 41.1686L26.5076 28.351C26.5076 27.7097 26.7597 27.1097 27.2119 26.6575C27.6641 26.2053 28.2663 25.9575 28.9054 25.9575H29.0337C30.3555 25.9597 31.4294 27.038 31.4272 28.3597L31.4163 35.3446L38.8686 36.4142C40.6969 36.7207 42.0122 38.2751 42.01 40.1164L42.0013 45.4644C41.9948 49.3883 39.2882 52.821 35.5664 53.6297C34.9555 53.7623 34.3425 53.8275 33.7359 53.8275V53.8297ZM28.0098 49.947C28.0554 49.9753 28.0945 50.0123 28.1293 50.0536C29.8489 52.184 32.6098 53.1406 35.3295 52.5493C38.5469 51.8514 40.8861 48.8709 40.8904 45.4644L40.8991 40.1164C40.9013 38.8208 39.9752 37.7251 38.6969 37.5121L30.7816 36.3751C30.5077 36.336 30.3054 36.1012 30.3054 35.8251L30.3185 28.3597C30.3185 27.6489 29.7424 27.0706 29.0315 27.0684H28.9076C28.9076 27.0684 28.9076 27.0684 28.9054 27.0684C28.5619 27.0684 28.238 27.201 27.9946 27.4445C27.7511 27.688 27.6163 28.0119 27.6163 28.3554L27.5924 42.7817C27.5924 43.0187 27.4424 43.2295 27.2184 43.3056C26.9945 43.3817 26.7467 43.3078 26.601 43.1208L23.414 39.0316C23.2075 38.7643 22.9075 38.5947 22.5727 38.5534C22.238 38.5121 21.9075 38.6034 21.6401 38.8099L21.5923 38.849C21.3119 39.0664 21.1336 39.3795 21.0901 39.7317C21.0466 40.0838 21.1423 40.4317 21.3597 40.7099L28.0076 49.9449L28.0098 49.947Z" fill="#262626"/>
</svg>
