<svg width="60" height="60" viewBox="0 0 60 60" fill="none" xmlns="http://www.w3.org/2000/svg">
<path d="M27.776 37.3069H13.2257C10.2366 37.3069 7.80615 34.8743 7.80615 31.8873V8.88254C7.80615 5.89336 10.2387 3.46289 13.2257 3.46289H46.7742C49.7633 3.46289 52.1937 5.89554 52.1937 8.88254V31.8873C52.1937 33.5721 51.3851 35.1895 50.0329 36.2134C49.1372 36.8895 48.0133 37.2526 46.7806 37.2591L39.3284 37.3069H39.324C39.0197 37.3069 38.7718 37.0613 38.7696 36.7569C38.7696 36.4504 39.0153 36.2004 39.3197 36.1982L46.7719 36.1504C47.7633 36.1439 48.6589 35.8591 49.3633 35.3286C50.4568 34.5003 51.085 33.246 51.085 31.8873V8.88254C51.085 6.50424 49.1503 4.57161 46.7742 4.57161H13.2257C10.8474 4.57161 8.91478 6.50642 8.91478 8.88254V31.8873C8.91478 34.2656 10.8496 36.1982 13.2257 36.1982H27.776C28.0825 36.1982 28.3303 36.446 28.3303 36.7526C28.3303 37.0591 28.0825 37.3069 27.776 37.3069Z" fill="#262626"/>
<path d="M26.9484 24.604C26.8527 24.604 26.7571 24.5801 26.6701 24.5301C26.4984 24.4323 26.394 24.2475 26.394 24.0497V13.4734C26.394 13.2756 26.5006 13.093 26.6701 12.993C26.8419 12.893 27.0527 12.893 27.2245 12.993L36.3833 18.28C36.555 18.3778 36.6616 18.5626 36.6616 18.7605C36.6616 18.9583 36.555 19.1409 36.3833 19.2409L27.2245 24.5279C27.1397 24.5779 27.0418 24.6018 26.9484 24.6018V24.604ZM27.5027 14.4343V23.0888L34.9984 18.7605L27.5027 14.4321V14.4343Z" fill="#262626"/>
<path d="M47.0944 32.1282H38.5183C38.2118 32.1282 37.9639 31.8804 37.9639 31.5739C37.9639 31.2674 38.2118 31.0195 38.5183 31.0195H47.0944C47.401 31.0195 47.6489 31.2674 47.6489 31.5739C47.6489 31.8804 47.401 32.1282 47.0944 32.1282Z" fill="#262626"/>
<path d="M27.1762 32.1282H12.9065C12.5999 32.1282 12.3521 31.8804 12.3521 31.5739C12.3521 31.2674 12.5999 31.0195 12.9065 31.0195H27.1762C27.4827 31.0195 27.7306 31.2674 27.7306 31.5739C27.7306 31.8804 27.4827 32.1282 27.1762 32.1282Z" fill="#262626"/>
<path d="M27.1764 33.8442C26.8699 33.8442 26.6221 33.5963 26.6221 33.2898V29.8615C26.6221 29.555 26.8699 29.3071 27.1764 29.3071C27.4829 29.3071 27.7308 29.555 27.7308 29.8615V33.2898C27.7308 33.5963 27.4829 33.8442 27.1764 33.8442Z" fill="#262626"/>
<path d="M37.8566 56.5372C35.6435 56.5372 33.5369 55.585 32.0869 53.8698C32.026 53.835 31.9739 53.7893 31.9325 53.7328L25.8455 45.2762C25.0955 44.3131 25.2715 42.8957 26.2498 42.1326L26.2955 42.0978C27.2498 41.3543 28.6324 41.5261 29.3759 42.4805L31.263 44.9022L31.2825 33.4934C31.2825 32.2716 32.2782 31.2803 33.5 31.2803H33.6174C34.8391 31.2824 35.8325 32.2781 35.8304 33.502L35.8195 39.7565L42.4978 40.7152C44.174 40.9957 45.3805 42.4218 45.3783 44.1109L45.3697 48.9371C45.3632 52.5024 42.9044 55.6241 39.5196 56.3589C38.9631 56.4785 38.4066 56.5372 37.8566 56.5372ZM32.7281 52.9393C32.7694 52.9676 32.8086 53.0002 32.8412 53.0415C34.3803 54.9481 36.85 55.8024 39.2848 55.2741C42.1631 54.6502 44.2566 51.9828 44.261 48.9349L44.2697 44.1087C44.2697 42.9652 43.4544 42 42.3283 41.8109L35.1869 40.7848C34.913 40.7456 34.7108 40.5109 34.7108 40.2348L34.7216 33.4977C34.7216 32.8868 34.226 32.389 33.6151 32.3868H33.5021C33.2064 32.3868 32.9281 32.502 32.7194 32.7107C32.5086 32.9194 32.3933 33.1977 32.3933 33.4934L32.3717 46.511C32.3717 46.7479 32.2216 46.9588 31.9977 47.0349C31.7738 47.111 31.526 47.037 31.3804 46.8501L28.5042 43.1587C28.1368 42.687 27.452 42.6022 26.9802 42.9696L26.9346 43.0044C26.4389 43.3913 26.3498 44.1109 26.7367 44.6087L32.7304 52.935L32.7281 52.9393Z" fill="#262626"/>
</svg>
