<svg width="64" height="60" viewBox="0 0 64 60" fill="none" xmlns="http://www.w3.org/2000/svg">
<path d="M53.6639 21.6442C53.4465 21.6442 53.24 21.5138 53.1508 21.3007C49.6117 12.6941 41.3093 7.13313 31.9983 7.13313C26.7874 7.13313 21.6916 8.93315 17.6481 12.2028C17.409 12.3963 17.0612 12.3571 16.8677 12.1202C16.6742 11.881 16.7111 11.5332 16.9503 11.3397C21.1895 7.9114 26.533 6.02441 31.9961 6.02441C41.7572 6.02441 50.4617 11.8549 54.1726 20.879C54.29 21.1616 54.153 21.4855 53.8704 21.6029C53.8009 21.6312 53.7291 21.6442 53.6596 21.6442H53.6639Z" fill="#262626"/>
<path d="M25.4308 14.3944C25.2112 14.3944 25.0025 14.2618 24.9156 14.0466C24.8025 13.7618 24.9395 13.4401 25.2243 13.3248C28.4808 12.0205 32.0461 11.69 35.5353 12.3683C36.4136 12.54 37.2875 12.7748 38.1288 13.0683C38.4179 13.1683 38.5701 13.4857 38.4701 13.7748C38.3701 14.064 38.0527 14.2162 37.7636 14.1162C36.9723 13.8401 36.1505 13.6183 35.3244 13.4574C32.0439 12.8205 28.6939 13.1292 25.6373 14.3553C25.5699 14.3814 25.5004 14.3944 25.4308 14.3944Z" fill="#262626"/>
<path d="M45.7078 19.4942C45.5491 19.4942 45.3926 19.4268 45.2839 19.2964C44.2817 18.1051 43.1208 17.0529 41.8338 16.1724C41.5816 15.9985 41.5164 15.655 41.6903 15.4007C41.8642 15.1485 42.2077 15.0833 42.4621 15.2572C43.8317 16.1942 45.0664 17.3138 46.1339 18.5812C46.3317 18.816 46.3012 19.166 46.0664 19.3616C45.9621 19.4486 45.836 19.492 45.7099 19.492L45.7078 19.4942Z" fill="#262626"/>
<path d="M31.9983 53.9752C22.2569 53.9752 13.5589 48.1556 9.83929 39.1511C9.72189 38.8685 9.85665 38.5446 10.1393 38.4272C10.4219 38.3098 10.7458 38.4446 10.8632 38.7272C14.4111 47.3164 22.7069 52.8665 31.9983 52.8665C36.5354 52.8665 40.9159 51.5426 44.6637 49.0382C44.9181 48.8687 45.2616 48.936 45.4333 49.1904C45.6029 49.4447 45.5355 49.7882 45.2812 49.96C41.3485 52.5861 36.7571 53.9731 31.9983 53.9731V53.9752Z" fill="#262626"/>
<path d="M32.0334 48.9059C30.8508 48.9059 29.666 48.7928 28.4986 48.5667C23.9333 47.6798 19.9071 45.1384 17.1679 41.4123C16.9875 41.1666 17.0397 40.8188 17.2853 40.6362C17.531 40.4557 17.8788 40.5079 18.0614 40.7536C20.6376 44.2558 24.4181 46.6428 28.7116 47.4754C31.4008 47.9994 34.1986 47.8776 36.803 47.1254C37.0965 47.0406 37.4052 47.2102 37.49 47.5037C37.5748 47.7972 37.4052 48.1059 37.1117 48.1907C35.4704 48.6646 33.7552 48.9037 32.0356 48.9037L32.0334 48.9059Z" fill="#262626"/>
<path d="M11.1096 23.3447C8.23565 23.3447 5.89648 21.0055 5.89648 18.1316C5.89648 15.2576 8.23565 12.9185 11.1096 12.9185C13.9836 12.9185 16.3227 15.2576 16.3227 18.1316C16.3227 21.0055 13.9836 23.3447 11.1096 23.3447ZM11.1096 14.025C8.84653 14.025 7.00517 15.8663 7.00517 18.1294C7.00517 20.3925 8.84653 22.2338 11.1096 22.2338C13.3727 22.2338 15.214 20.3925 15.214 18.1294C15.214 15.8663 13.3727 14.025 11.1096 14.025Z" fill="#262626"/>
<path d="M11.1093 35.2774C5.32228 35.2774 0.789551 33.2404 0.789551 30.6382C0.789551 28.036 5.32228 25.999 11.1093 25.999C16.8964 25.999 21.4291 28.036 21.4291 30.6382C21.4291 33.2404 16.8964 35.2774 11.1093 35.2774ZM11.1093 27.1099C5.68098 27.1099 1.89829 28.9708 1.89829 30.6404C1.89829 32.31 5.68098 34.1709 11.1093 34.1709C16.5377 34.1709 20.3203 32.31 20.3203 30.6404C20.3203 28.9708 16.5377 27.1099 11.1093 27.1099Z" fill="#262626"/>
<path d="M52.8899 35.1489C50.0159 35.1489 47.6768 32.8097 47.6768 29.9358C47.6768 27.0618 50.0159 24.7227 52.8899 24.7227C55.7638 24.7227 58.103 27.0618 58.103 29.9358C58.103 32.8097 55.7638 35.1489 52.8899 35.1489ZM52.8899 25.8314C50.6268 25.8314 48.7854 27.6727 48.7854 29.9358C48.7854 32.1989 50.6268 34.0402 52.8899 34.0402C55.153 34.0402 56.9943 32.1989 56.9943 29.9358C56.9943 27.6727 55.153 25.8314 52.8899 25.8314Z" fill="#262626"/>
<path d="M52.8905 47.0836C47.1035 47.0836 42.5708 45.0466 42.5708 42.4444C42.5708 39.8422 47.1035 37.8052 52.8905 37.8052C58.6776 37.8052 63.2102 39.8422 63.2102 42.4444C63.2102 45.0466 58.6776 47.0836 52.8905 47.0836ZM52.8905 38.9161C47.4622 38.9161 43.6795 40.777 43.6795 42.4466C43.6795 44.1161 47.4622 45.977 52.8905 45.977C58.3189 45.977 62.1015 44.1161 62.1015 42.4466C62.1015 40.777 58.3189 38.9161 52.8905 38.9161Z" fill="#262626"/>
</svg>
