<svg width="60" height="60" viewBox="0 0 60 60" fill="none" xmlns="http://www.w3.org/2000/svg">
<path d="M23.7024 28.0807C19.1589 28.0807 15.4609 23.735 15.4609 18.3914C15.4609 13.0479 19.1589 8.70215 23.7024 8.70215C28.246 8.70215 31.9438 13.0479 31.9438 18.3914C31.9438 23.735 28.246 28.0807 23.7024 28.0807ZM23.7024 9.81086C19.7697 9.81086 16.5697 13.6609 16.5697 18.3914C16.5697 23.1219 19.7697 26.972 23.7024 26.972C27.6351 26.972 30.8351 23.1219 30.8351 18.3914C30.8351 13.6609 27.6351 9.81086 23.7024 9.81086Z" fill="#262626"/>
<path d="M35.3526 51.2958C35.046 51.2958 34.7982 51.048 34.7982 50.7415V40.6065C34.7982 40.3 35.046 40.0522 35.3526 40.0522H48.5876C50.705 40.0522 52.4289 38.3283 52.4289 36.2108C52.4289 34.0934 50.705 32.3695 48.5876 32.3695H27.4264L24.172 37.5456C24.0698 37.7065 23.8937 37.8043 23.7024 37.8043C23.5111 37.8043 23.335 37.7065 23.2328 37.5456C21.1306 34.2064 20.3176 32.9108 19.9958 32.3999C7.95867 33.6347 4.73471 44.4783 4.73471 50.7437C4.73471 51.0502 4.48687 51.298 4.18034 51.298C3.87382 51.298 3.62598 51.0502 3.62598 50.7437C3.62598 44.0436 7.12384 32.3999 20.2371 31.2651C20.4501 31.2455 20.6523 31.352 20.7589 31.5303C20.8371 31.6542 22.5154 34.3238 23.7024 36.2086L26.6502 31.5194C26.7524 31.3586 26.9285 31.2607 27.1198 31.2607H48.5854C51.3159 31.2607 53.5355 33.4803 53.5355 36.2108C53.5355 38.9413 51.3159 41.1609 48.5854 41.1609H35.9048V50.7415C35.9048 51.048 35.6569 51.2958 35.3504 51.2958H35.3526Z" fill="#262626"/>
<path d="M20.6605 51.2959C20.6192 51.2959 20.58 51.2915 20.5387 51.2828C20.2409 51.2154 20.0517 50.9198 20.1191 50.6198L23.1626 37.1261C23.23 36.8283 23.5257 36.6391 23.8257 36.7065C24.1235 36.7739 24.3127 37.0696 24.2453 37.3696L21.2018 50.8633C21.1431 51.122 20.9148 51.2959 20.6605 51.2959Z" fill="#262626"/>
<path d="M26.7456 51.2962C26.4912 51.2962 26.2629 51.1222 26.2042 50.8635L23.1607 37.3699C23.0933 37.072 23.2803 36.7742 23.5803 36.7068C23.8803 36.6372 24.1759 36.8264 24.2433 37.1264L27.2869 50.6201C27.3543 50.9179 27.1673 51.2157 26.8673 51.2831C26.8259 51.2918 26.7847 51.2962 26.7456 51.2962Z" fill="#262626"/>
<path d="M50.7585 28.9043C50.6977 28.9043 50.6368 28.8956 50.5781 28.8739C50.2889 28.7739 50.1346 28.4586 50.2346 28.1695L55.2955 13.5019C55.3955 13.2127 55.7107 13.0584 55.9999 13.1584C56.289 13.2584 56.4434 13.5736 56.3434 13.8628L51.2824 28.5304C51.2042 28.7608 50.989 28.9043 50.7585 28.9043Z" fill="#262626"/>
</svg>
