<svg width="60" height="60" viewBox="0 0 60 60" fill="none" xmlns="http://www.w3.org/2000/svg">
<path d="M48.3991 53.2275H10.9897C8.32883 53.2275 6.80273 51.2426 6.80273 47.7839C6.80273 44.3251 8.32883 42.3403 10.9897 42.3403H48.3991C48.7056 42.3403 48.9534 42.5882 48.9534 42.8947C48.9534 43.2012 48.7056 43.449 48.3991 43.449C45.7207 43.449 45.3207 46.1643 45.3207 47.7839C45.3207 49.4035 45.7207 52.1187 48.3991 52.1187C48.7056 52.1187 48.9534 52.3666 48.9534 52.6731C48.9534 52.9796 48.7056 53.2275 48.3991 53.2275ZM10.9897 43.4469C8.31144 43.4469 7.91144 46.1621 7.91144 47.7817C7.91144 49.4013 8.31144 52.1166 10.9897 52.1166H45.5794C44.6903 51.1948 44.212 49.7187 44.212 47.7817C44.212 45.8447 44.6903 44.3686 45.5794 43.4469H10.9897Z" fill="#262626"/>
<path d="M25.5598 49.5648H11.8205C11.5139 49.5648 11.2661 49.3169 11.2661 49.0104C11.2661 48.7039 11.5139 48.4561 11.8205 48.4561H25.5598C25.8663 48.4561 26.1142 48.7039 26.1142 49.0104C26.1142 49.3169 25.8663 49.5648 25.5598 49.5648Z" fill="#262626"/>
<path d="M52.6432 40.8598H15.2339C12.573 40.8598 11.0469 38.875 11.0469 35.4162C11.0469 31.9575 12.573 29.9727 15.2339 29.9727H52.6432C52.9497 29.9727 53.1976 30.2205 53.1976 30.527C53.1976 30.8335 52.9497 31.0814 52.6432 31.0814C49.9649 31.0814 49.5649 33.7966 49.5649 35.4162C49.5649 37.0358 49.9649 39.7511 52.6432 39.7511C52.9497 39.7511 53.1976 39.9989 53.1976 40.3054C53.1976 40.612 52.9497 40.8598 52.6432 40.8598ZM15.2339 31.0814C12.5556 31.0814 12.1556 33.7966 12.1556 35.4162C12.1556 37.0358 12.5556 39.7511 15.2339 39.7511H49.8236C48.9344 38.8293 48.4562 37.3532 48.4562 35.4162C48.4562 33.4792 48.9344 32.0031 49.8236 31.0814H15.2339Z" fill="#262626"/>
<path d="M27.6517 37.1995H16.0646C15.7581 37.1995 15.5103 36.9517 15.5103 36.6452C15.5103 36.3386 15.7581 36.0908 16.0646 36.0908H27.6517C27.9583 36.0908 28.2061 36.3386 28.2061 36.6452C28.2061 36.9517 27.9583 37.1995 27.6517 37.1995Z" fill="#262626"/>
<path d="M39.278 26.8839C38.9715 26.8839 38.7236 26.6361 38.7236 26.3296V13.3859C38.7236 13.0794 38.9715 12.8315 39.278 12.8315C39.5845 12.8315 39.8324 13.0794 39.8324 13.3859V26.3296C39.8324 26.6361 39.5845 26.8839 39.278 26.8839Z" fill="#262626"/>
<path d="M18.3517 26.8839C18.0452 26.8839 17.7974 26.6361 17.7974 26.3296V13.3859C17.7974 13.0794 18.0452 12.8315 18.3517 12.8315C18.6582 12.8315 18.9061 13.0794 18.9061 13.3859V26.3296C18.9061 26.6361 18.6582 26.8839 18.3517 26.8839Z" fill="#262626"/>
<path d="M28.8146 16.2683C28.7733 16.2683 28.7341 16.2639 28.695 16.2552L9.8469 12.0617C9.59255 12.0051 9.41211 11.7812 9.41211 11.5204C9.41211 11.2595 9.59255 11.0356 9.8469 10.979L28.695 6.7855C28.7755 6.76811 28.8559 6.76811 28.9363 6.7855L47.7844 10.979C48.0388 11.0356 48.2192 11.2595 48.2192 11.5204C48.2192 11.7812 48.0388 12.0051 47.7844 12.0617L28.9363 16.2552C28.8972 16.2639 28.8559 16.2683 28.8168 16.2683H28.8146ZM12.5187 11.5204L28.8146 15.1443L45.1105 11.5204L28.8146 7.89639L12.5187 11.5204Z" fill="#262626"/>
<path d="M9.96646 17.2691C9.65994 17.2691 9.41211 17.0212 9.41211 16.7147V11.5212C9.41211 11.2146 9.65994 10.9668 9.96646 10.9668C10.273 10.9668 10.5208 11.2146 10.5208 11.5212V16.7147C10.5208 17.0212 10.273 17.2691 9.96646 17.2691Z" fill="#262626"/>
</svg>
