<svg width="60" height="60" viewBox="0 0 60 60" fill="none" xmlns="http://www.w3.org/2000/svg">
<path d="M35.2662 46.4102C34.9596 46.4102 34.7118 46.1623 34.7118 45.8558V40.8883C34.7118 40.6601 34.8509 40.4557 35.0639 40.3731C40.4249 38.2731 43.888 33.1969 43.888 27.4425C43.888 19.7858 37.6597 13.5575 30.003 13.5575C22.3464 13.5575 16.118 19.7858 16.118 27.4425C16.118 33.1969 19.5811 38.2709 24.9421 40.3731C25.1551 40.4557 25.2942 40.6601 25.2942 40.8883V45.8558C25.2942 46.1623 25.0464 46.4102 24.7399 46.4102C24.4333 46.4102 24.1856 46.1623 24.1856 45.8558V41.2622C18.5985 38.9122 15.0093 33.5295 15.0093 27.4425C15.0093 19.1749 21.7355 12.4487 30.003 12.4487C38.2706 12.4487 44.9968 19.1749 44.9968 27.4425C44.9968 33.5295 41.4076 38.9122 35.8205 41.2622V45.8558C35.8205 46.1623 35.5727 46.4102 35.2662 46.4102Z" fill="#262626"/>
<path d="M30.4656 56.7403H29.5395C26.5872 56.7403 24.1851 54.3381 24.1851 51.3859C24.1851 51.0794 24.4328 50.8315 24.7394 50.8315H35.2678C35.5744 50.8315 35.8222 51.0794 35.8222 51.3859C35.8222 54.3381 33.42 56.7403 30.4677 56.7403H30.4656ZM25.3286 51.9381C25.6003 54.0185 27.3851 55.6295 29.5395 55.6295H30.4656C32.62 55.6295 34.4048 54.0185 34.6765 51.9381H25.3307H25.3286Z" fill="#262626"/>
<path d="M34.7631 51.9385H25.239C23.4586 51.9385 22.0107 50.4907 22.0107 48.7102C22.0107 46.9298 23.4586 45.4819 25.239 45.4819H34.7631C36.5436 45.4819 37.9914 46.9298 37.9914 48.7102C37.9914 50.4907 36.5436 51.9385 34.7631 51.9385ZM25.239 46.5906C24.0694 46.5906 23.1194 47.5407 23.1194 48.7102C23.1194 49.8798 24.0694 50.8298 25.239 50.8298H34.7631C35.9327 50.8298 36.8827 49.8798 36.8827 48.7102C36.8827 47.5407 35.9327 46.5906 34.7631 46.5906H25.239Z" fill="#262626"/>
<path d="M31.9397 37.9422C31.9136 37.9422 31.8875 37.9422 31.8614 37.9378C31.5592 37.8944 31.3462 37.6139 31.3896 37.3117L32.4027 30.116C31.7288 30.6442 30.8875 30.966 30.0027 30.966C29.1179 30.966 28.2787 30.6442 27.6026 30.116L28.6157 37.3117C28.6592 37.6139 28.4461 37.8944 28.144 37.9378C27.8396 37.9791 27.5613 37.7683 27.5178 37.4661L26.1896 28.0203C26.107 27.7181 26.0635 27.4051 26.0635 27.0855C26.0635 26.7942 26.2896 26.5529 26.5787 26.5333C26.8657 26.5116 27.1266 26.7203 27.1657 27.0094L27.2787 27.8138C27.6222 28.9638 28.7483 29.8573 30.0027 29.8573C31.2571 29.8573 32.3809 28.9638 32.7266 27.8138L32.8397 27.0094C32.881 26.7203 33.1375 26.5137 33.4267 26.5333C33.718 26.5529 33.9419 26.7963 33.9419 27.0855C33.9419 27.4051 33.8984 27.7181 33.8158 28.0203L32.4875 37.4661C32.4484 37.7422 32.2114 37.9422 31.9397 37.9422Z" fill="#262626"/>
<path d="M30.0002 9.36542C29.6936 9.36542 29.4458 9.11759 29.4458 8.81106V3.81316C29.4458 3.50663 29.6936 3.25879 30.0002 3.25879C30.3067 3.25879 30.5545 3.50663 30.5545 3.81316V8.81106C30.5545 9.11759 30.3067 9.36542 30.0002 9.36542Z" fill="#262626"/>
<path d="M16.8311 14.8266C16.6898 14.8266 16.5463 14.7723 16.4398 14.6636L12.9028 11.1265C12.6854 10.9092 12.6854 10.5592 12.9028 10.3418C13.1202 10.1244 13.4702 10.1244 13.6876 10.3418L17.2246 13.8788C17.442 14.0962 17.442 14.4462 17.2246 14.6636C17.1159 14.7723 16.9746 14.8266 16.8333 14.8266H16.8311Z" fill="#262626"/>
<path d="M53.6289 27.9964H48.631C48.3245 27.9964 48.0767 27.7486 48.0767 27.4421C48.0767 27.1355 48.3245 26.8877 48.631 26.8877H53.6289C53.9355 26.8877 54.1833 27.1355 54.1833 27.4421C54.1833 27.7486 53.9355 27.9964 53.6289 27.9964Z" fill="#262626"/>
<path d="M11.3735 27.9964H6.37121C6.06468 27.9964 5.81689 27.7486 5.81689 27.4421C5.81689 27.1355 6.06468 26.8877 6.37121 26.8877H11.3735C11.68 26.8877 11.9278 27.1355 11.9278 27.4421C11.9278 27.7486 11.68 27.9964 11.3735 27.9964Z" fill="#262626"/>
<path d="M43.1745 14.8223C43.0332 14.8223 42.8919 14.7679 42.7832 14.6592C42.5658 14.4418 42.5658 14.0918 42.7832 13.8744L46.3158 10.3418C46.5332 10.1244 46.8833 10.1244 47.1006 10.3418C47.318 10.5592 47.318 10.9092 47.1006 11.1265L43.568 14.6592C43.4593 14.7679 43.318 14.8223 43.1767 14.8223H43.1745Z" fill="#262626"/>
</svg>
