<svg width="60" height="60" viewBox="0 0 60 60" fill="none" xmlns="http://www.w3.org/2000/svg">
<path d="M19.5973 33.159C19.3864 33.159 19.1842 33.0373 19.0929 32.8329L15.8472 25.685C15.1016 24.0415 15.7798 22.1154 17.3929 21.3001L30.5452 14.6783C30.8192 14.5413 31.1518 14.65 31.2888 14.924C31.4257 15.1979 31.317 15.5305 31.0431 15.6674L17.8929 22.2871C16.8146 22.8328 16.3581 24.1219 16.8581 25.2241L20.1038 32.3699C20.2299 32.6481 20.1082 32.9764 19.8277 33.1047C19.7538 33.1394 19.6755 33.1547 19.5995 33.1547L19.5973 33.159Z" fill="#262626"/>
<path d="M7.58619 38.763C7.2601 38.763 6.93402 38.7043 6.6188 38.5869C5.93183 38.3282 5.38833 37.8195 5.08615 37.1521L3.8209 34.3608C3.19698 32.9825 3.81004 31.3542 5.18614 30.7303L13.0037 27.1802C13.2819 27.0541 13.6102 27.178 13.7385 27.4563C13.8646 27.7346 13.7406 28.0628 13.4624 28.1911L5.64487 31.7412C4.82529 32.1129 4.46007 33.0847 4.83182 33.9042L6.09702 36.6956C6.27745 37.0934 6.60136 37.3978 7.01006 37.55C7.41877 37.7043 7.86225 37.6891 8.26008 37.5086L16.0798 33.9608C16.3581 33.8347 16.6885 33.9586 16.8146 34.2369C16.9407 34.5151 16.8168 34.8434 16.5385 34.9717L8.71881 38.5195C8.35576 38.6848 7.97315 38.7652 7.58619 38.7652V38.763Z" fill="#262626"/>
<path d="M43.8526 31.4264C42.5678 31.4264 41.3547 30.6894 40.7873 29.4394L33.1306 12.5652C32.3698 10.8913 33.0698 8.94559 34.7198 8.1347L45.3482 2.9281C45.483 2.86288 45.6395 2.85419 45.7787 2.90419C45.92 2.95419 46.0352 3.06071 46.096 3.19766L56.3745 25.8459C56.4354 25.9828 56.4397 26.1372 56.3854 26.2785C56.331 26.4176 56.2223 26.5285 56.0832 26.5872L45.1678 31.159C44.7373 31.3394 44.2895 31.4264 43.8526 31.4264ZM45.3243 4.17812L35.209 9.13254C34.0981 9.67603 33.6306 10.9826 34.1415 12.1087L41.7982 28.9829C42.309 30.1068 43.6004 30.6155 44.7417 30.1372L55.131 25.785L45.3243 4.17594V4.17812Z" fill="#262626"/>
<path d="M44.9827 26.3168C44.7718 26.3168 44.5697 26.195 44.4783 25.9907L41.3174 19.0254C41.1913 18.7471 41.3152 18.4188 41.5935 18.2906C41.8718 18.1645 42.2022 18.2884 42.3283 18.5666L45.4892 25.532C45.6153 25.8102 45.4914 26.1385 45.2132 26.2668C45.1393 26.3016 45.061 26.3168 44.9849 26.3168H44.9827Z" fill="#262626"/>
<path d="M28.7223 40.4826C25.3635 40.4826 22.6309 37.75 22.6309 34.3912C22.6309 31.0325 25.3635 28.2998 28.7223 28.2998C32.081 28.2998 34.8115 31.0325 34.8115 34.3912C34.8115 37.75 32.0788 40.4826 28.7223 40.4826ZM28.7223 29.4107C25.9744 29.4107 23.7396 31.6455 23.7396 34.3934C23.7396 37.1413 25.9744 39.3761 28.7223 39.3761C31.4701 39.3761 33.7028 37.1413 33.7028 34.3934C33.7028 31.6455 31.468 29.4107 28.7223 29.4107Z" fill="#262626"/>
<path d="M19.5928 57.1288C19.5233 57.1288 19.4515 57.1157 19.382 57.0875C19.0993 56.9701 18.9645 56.6462 19.0797 56.3636L24.669 42.7764C24.7842 42.4938 25.1081 42.3568 25.3929 42.4742C25.6755 42.5916 25.8103 42.9155 25.6951 43.1981L20.1059 56.7853C20.0168 56.9983 19.8102 57.1288 19.5928 57.1288Z" fill="#262626"/>
<path d="M37.8497 57.1288C37.6323 57.1288 37.4258 56.9984 37.3367 56.7854L31.7474 43.1982C31.6301 42.9156 31.7649 42.5917 32.0497 42.4743C32.3344 42.3591 32.6562 42.4938 32.7735 42.7765L38.3628 56.3636C38.4802 56.6462 38.3454 56.9702 38.0606 57.0875C37.991 57.1158 37.9193 57.1288 37.8497 57.1288Z" fill="#262626"/>
</svg>
