<svg width="60" height="60" viewBox="0 0 60 60" fill="none" xmlns="http://www.w3.org/2000/svg">
<path d="M28.3967 41.5113H10.5312C7.77899 41.5113 5.54199 39.2743 5.54199 36.5221V11.2065C5.54199 8.45644 7.77899 6.21729 10.5312 6.21729H49.4688C52.221 6.21729 54.458 8.45644 54.458 11.2065V36.5221C54.458 37.133 54.3471 37.7308 54.1297 38.2961C54.0189 38.583 53.6993 38.7243 53.4123 38.6135C53.1275 38.5026 52.9841 38.183 53.0949 37.896C53.2645 37.4591 53.3493 36.996 53.3493 36.5221V11.2065C53.3493 9.06732 51.6079 7.32599 49.4688 7.32599H10.5312C8.39204 7.32599 6.65071 9.06732 6.65071 11.2065V36.5221C6.65071 38.6613 8.39204 40.4026 10.5312 40.4026H28.3967C28.7032 40.4026 28.9511 40.6505 28.9511 40.957C28.9511 41.2635 28.7032 41.5113 28.3967 41.5113Z" fill="#262626"/>
<path d="M24.1918 32.6265C24.0353 32.6265 23.8809 32.5613 23.7722 32.4352C23.1852 31.7569 22.8613 30.883 22.8613 29.9721V17.7545C22.8613 16.3914 23.5657 15.1697 24.7483 14.4871C25.9309 13.8044 27.3397 13.8044 28.5201 14.4871L39.1007 20.5959C40.2812 21.2785 40.9855 22.4981 40.9855 23.8633C40.9855 25.2285 40.2812 26.4481 39.1007 27.1307L34.5615 29.7503C34.2963 29.9025 33.9572 29.8134 33.805 29.5482C33.6528 29.283 33.7419 28.9438 34.0072 28.7916L38.5464 26.172C39.379 25.6916 39.8768 24.8285 39.8768 23.8655C39.8768 22.9024 39.379 22.0394 38.5464 21.5589L27.9658 15.4501C27.1331 14.9697 26.1375 14.9697 25.3027 15.4501C24.4679 15.9305 23.97 16.7936 23.97 17.7567V29.9743C23.97 30.6265 24.1918 31.2265 24.6114 31.7112C24.8114 31.9417 24.7874 32.2917 24.5548 32.4939C24.4505 32.5852 24.32 32.6286 24.1918 32.6286V32.6265Z" fill="#262626"/>
<path d="M44.0421 53.783C43.2465 53.783 42.4465 53.6743 41.6573 53.4482C41.5769 53.4548 41.4943 53.4439 41.4182 53.4156L30.0245 49.1634C29.4006 48.9591 28.8788 48.509 28.5745 47.9025C28.2701 47.2981 28.2201 46.6112 28.431 45.9677L28.4506 45.9047C28.8788 44.6112 30.2767 43.9068 31.5702 44.3351L35.2268 45.5438L27.6897 34.2436C27.3201 33.6892 27.1875 33.024 27.318 32.3697C27.4484 31.7153 27.8267 31.1522 28.381 30.7827L28.4897 30.7088C29.0441 30.3392 29.7093 30.2066 30.3637 30.337C31.018 30.4674 31.5811 30.8457 31.9506 31.4001L36.0464 37.5393L43.2182 34.1001C44.9835 33.3023 47.0313 33.8892 48.0987 35.4914L51.2227 40.1785C53.5075 43.6046 53.151 48.1786 50.377 51.0569C48.6683 52.8287 46.3835 53.7809 44.04 53.7809L44.0421 53.783ZM41.6247 52.3047C41.6791 52.3047 41.7334 52.3134 41.7899 52.3287C44.5552 53.1895 47.54 52.4069 49.5835 50.2873C51.9988 47.7829 52.3031 43.7894 50.3053 40.7937L47.1813 36.1067C46.4161 34.9588 44.9487 34.5393 43.6921 35.1067L36.0985 38.748C35.8485 38.8676 35.5507 38.785 35.3985 38.5567L31.0376 32.0153C30.8332 31.7066 30.518 31.4979 30.155 31.424C29.7919 31.3501 29.4223 31.424 29.1136 31.6305L29.0049 31.7044C28.6962 31.9088 28.4875 32.224 28.4136 32.5871C28.3419 32.9501 28.4136 33.3197 28.6202 33.6284L37.0486 46.2677C37.179 46.4633 37.1725 46.7221 37.029 46.9112C36.8855 47.0982 36.6398 47.1764 36.4137 47.1025L31.2289 45.3894C30.5158 45.1546 29.7462 45.5416 29.5093 46.2547L29.4897 46.3177C29.3702 46.6807 29.3984 47.0655 29.5702 47.4068C29.7419 47.7481 30.0354 48.0003 30.3963 48.1199L41.6182 52.3069H41.6269L41.6247 52.3047Z" fill="#262626"/>
</svg>
