<svg width="60" height="60" viewBox="0 0 60 60" fill="none" xmlns="http://www.w3.org/2000/svg">
<path d="M48.0177 34.6947C47.7112 34.6947 47.4633 34.4469 47.4633 34.1404V11.9748C47.4633 9.99869 45.8546 8.38997 43.8785 8.38997H12.5714C10.5953 8.38997 8.98661 9.99869 8.98661 11.9748V21.8315C8.98661 22.138 8.73882 22.3858 8.4323 22.3858C8.12577 22.3858 7.87793 22.138 7.87793 21.8315V11.9748C7.87793 9.38564 9.98445 7.28125 12.5714 7.28125H43.8785C46.4676 7.28125 48.572 9.38781 48.572 11.9748V34.1404C48.572 34.4469 48.3242 34.6947 48.0177 34.6947Z" fill="#262626"/>
<path d="M39.9959 39.3072C37.1741 39.3072 34.8784 37.0115 34.8784 34.1897C34.8784 31.368 37.1741 29.0723 39.9959 29.0723C42.8177 29.0723 45.1134 31.368 45.1134 34.1897C45.1134 37.0115 42.8177 39.3072 39.9959 39.3072ZM39.9959 30.1832C37.785 30.1832 35.9872 31.981 35.9872 34.1919C35.9872 36.4028 37.785 38.2007 39.9959 38.2007C42.2068 38.2007 44.0046 36.4028 44.0046 34.1919C44.0046 31.981 42.2068 30.1832 39.9959 30.1832Z" fill="#262626"/>
<path d="M44.5565 52.7182C44.25 52.7182 44.0021 52.4704 44.0021 52.1638V46.1659C44.0021 46.0007 44.076 45.842 44.2043 45.7377L49.0391 41.7811L53.9936 37.7571C54.2936 37.5114 54.4675 37.1462 54.4675 36.7571C54.4675 36.4658 54.3653 36.1766 54.1784 35.944C53.9653 35.681 53.6588 35.5158 53.3153 35.481C52.9719 35.4462 52.6371 35.544 52.374 35.7592L43.9043 42.6398C43.8065 42.7202 43.6825 42.7637 43.5543 42.7637H34.352C32.4607 42.7637 30.9237 44.3007 30.9237 46.1877V52.1638C30.9237 52.4704 30.6758 52.7182 30.3693 52.7182C30.0628 52.7182 29.8149 52.4704 29.8149 52.1638V46.1877C29.8149 43.6876 31.8498 41.655 34.352 41.655H43.3586L51.674 34.8984C52.1697 34.4962 52.7936 34.3114 53.4284 34.3766C54.0654 34.4418 54.6371 34.7505 55.0393 35.2462C55.3849 35.6766 55.574 36.2114 55.574 36.7549C55.574 37.4788 55.2523 38.1571 54.6914 38.6136L49.737 42.6376L45.1065 46.4268V52.1617C45.1065 52.4682 44.8587 52.716 44.5521 52.716L44.5565 52.7182Z" fill="#262626"/>
<path d="M34.0372 52.7163C33.7307 52.7163 33.4829 52.4685 33.4829 52.1619V49.2858C33.4829 48.9793 33.7307 48.7314 34.0372 48.7314C34.3438 48.7314 34.5916 48.9793 34.5916 49.2858V52.1619C34.5916 52.4685 34.3438 52.7163 34.0372 52.7163Z" fill="#262626"/>
<path d="M4.98064 47.0861C4.67411 47.0861 4.42627 46.8383 4.42627 46.5318V31.9294C4.42627 31.6228 4.67411 31.375 4.98064 31.375H28.2658C28.5723 31.375 28.8201 31.6228 28.8201 31.9294V41.9339C28.8201 42.2404 28.5723 42.4882 28.2658 42.4882C27.9593 42.4882 27.7115 42.2404 27.7115 41.9339V32.4837H5.535V46.5318C5.535 46.8383 5.28716 47.0861 4.98064 47.0861Z" fill="#262626"/>
<path d="M24.8175 29.0318C24.511 29.0318 24.2632 28.784 24.2632 28.4775C24.2632 25.5731 20.8371 23.2078 16.6239 23.2078C12.4108 23.2078 8.98466 25.5709 8.98466 28.4775C8.98466 28.784 8.73687 29.0318 8.43034 29.0318C8.12382 29.0318 7.87598 28.784 7.87598 28.4775C7.87598 24.96 11.8 22.0991 16.6239 22.0991C21.4479 22.0991 25.3719 24.96 25.3719 28.4775C25.3719 28.784 25.1241 29.0318 24.8175 29.0318Z" fill="#262626"/>
<path d="M16.6234 19.6901C14.1299 19.6901 12.1016 17.6618 12.1016 15.1683C12.1016 12.6748 14.1299 10.6465 16.6234 10.6465C19.1169 10.6465 21.1452 12.6748 21.1452 15.1683C21.1452 17.6618 19.1169 19.6901 16.6234 19.6901ZM16.6234 11.7552C14.7407 11.7552 13.2103 13.2857 13.2103 15.1683C13.2103 17.0509 14.7407 18.5814 16.6234 18.5814C18.506 18.5814 20.0365 17.0509 20.0365 15.1683C20.0365 13.2857 18.506 11.7552 16.6234 11.7552Z" fill="#262626"/>
</svg>
