<svg width="60" height="60" viewBox="0 0 60 60" fill="none" xmlns="http://www.w3.org/2000/svg">
<path d="M26.3355 48.1234C20.7528 48.1234 15.1701 45.9973 10.92 41.7494C2.41989 33.2493 2.41989 19.4208 10.92 10.9207C19.4202 2.42271 33.2487 2.42054 41.7488 10.9207C50.2489 19.4208 50.2489 33.2493 41.7488 41.7494C37.4987 45.9995 31.916 48.1234 26.3333 48.1234H26.3355ZM26.3355 5.65537C21.0376 5.65537 15.7396 7.6728 11.7048 11.7055C3.63727 19.773 3.63727 32.8993 11.7048 40.9668C19.7723 49.0343 32.8986 49.0343 40.9661 40.9668C49.0337 32.8993 49.0315 19.773 40.9661 11.7055C36.9313 7.6728 31.6334 5.65537 26.3355 5.65537Z" fill="#262626"/>
<path d="M50.6665 55.4535C49.6643 55.4535 48.6643 55.0731 47.9012 54.31L43.2055 49.6143C41.6815 48.0882 41.6815 45.6077 43.2055 44.0838L44.086 43.2033C44.8229 42.4664 45.8033 42.062 46.8512 42.062C47.899 42.062 48.8817 42.4664 49.6165 43.2033L54.3122 47.8991C55.8362 49.423 55.8362 51.9056 54.3122 53.4296L53.4317 54.31C52.6687 55.0731 51.6687 55.4535 50.6665 55.4535ZM46.849 43.1707C46.099 43.1707 45.3946 43.4599 44.8664 43.9881L43.986 44.8686C42.8925 45.9621 42.8925 47.7382 43.986 48.8317L48.6817 53.5274C49.7752 54.6209 51.5535 54.6209 52.6448 53.5274L53.5252 52.647C54.6187 51.5535 54.6187 49.7752 53.5252 48.6839L48.8295 43.9881C48.3034 43.462 47.599 43.1707 46.8468 43.1707H46.849Z" fill="#262626"/>
<path d="M26.3373 38.298C23.409 38.298 20.4808 37.6654 17.6938 36.4001C17.4959 36.311 17.3677 36.1132 17.3677 35.8958V27.5739C17.3677 27.2674 17.6155 27.0195 17.922 27.0195C18.2285 27.0195 18.4763 27.2674 18.4763 27.5739V35.5371C23.559 37.7414 29.1157 37.7414 34.1984 35.5371V27.5739C34.1984 27.2674 34.4462 27.0195 34.7527 27.0195C35.0592 27.0195 35.3071 27.2674 35.3071 27.5739V35.8958C35.3071 36.1132 35.181 36.311 34.981 36.4001C32.194 37.6654 29.2656 38.298 26.3373 38.298Z" fill="#262626"/>
<path d="M40.0764 27.2929C39.7699 27.2929 39.522 27.045 39.522 26.7385V21.1232C39.522 20.8167 39.7699 20.5688 40.0764 20.5688C40.3829 20.5688 40.6307 20.8167 40.6307 21.1232V26.7385C40.6307 27.045 40.3829 27.2929 40.0764 27.2929Z" fill="#262626"/>
<path d="M26.3355 27.8599C26.2572 27.8599 26.1811 27.8447 26.1072 27.8121L12.3656 21.6272C12.1656 21.5381 12.0396 21.3403 12.0396 21.1207C12.0396 20.9011 12.1678 20.7055 12.3656 20.6142L26.1072 14.4293C26.2506 14.3641 26.4181 14.3641 26.5616 14.4293L40.3031 20.6142C40.5031 20.7033 40.6292 20.9011 40.6292 21.1207C40.6292 21.3403 40.5009 21.5359 40.3031 21.6272L26.5616 27.8121C26.4898 27.8447 26.4115 27.8599 26.3333 27.8599H26.3355ZM13.9461 21.1207L26.3355 26.6969L38.7248 21.1207L26.3355 15.5445L13.9461 21.1207Z" fill="#262626"/>
</svg>
