<svg width="60" height="60" viewBox="0 0 60 60" fill="none" xmlns="http://www.w3.org/2000/svg">
<path d="M54.446 49.6755C52.6459 49.6755 50.4024 49.132 47.8045 48.5037C42.0631 47.1124 34.9174 45.3841 30.3738 49.532C30.163 49.7255 29.839 49.7255 29.626 49.532C25.0803 45.3841 17.9367 47.1146 12.1953 48.5037C9.59741 49.132 7.35389 49.6755 5.55387 49.6755C5.24734 49.6755 4.99951 49.4277 4.99951 49.1211V13.6293C4.99951 13.3227 5.24734 13.0749 5.55387 13.0749C7.22128 13.0749 9.51045 12.5206 11.9344 11.9336C17.7823 10.5162 25.0259 8.76397 29.9999 12.8945C34.9761 8.76397 42.2175 10.5183 48.0654 11.9336C50.4894 12.5206 52.7785 13.0749 54.446 13.0749C54.7525 13.0749 55.0003 13.3227 55.0003 13.6293V49.1211C55.0003 49.4277 54.7525 49.6755 54.446 49.6755ZM38.0544 45.8146C41.4175 45.8146 44.9414 46.6689 48.0676 47.4254C50.2328 47.9494 52.2916 48.4472 53.8938 48.5494V14.1684C52.1959 14.0749 50.1437 13.5771 47.8067 13.0119C42.0653 11.6205 34.9195 9.89225 30.376 14.0401C30.1651 14.2336 29.8412 14.2336 29.6282 14.0401C25.0824 9.89225 17.9388 11.6227 12.1974 13.0119C9.86046 13.5771 7.80825 14.0749 6.1104 14.1684V48.5494C7.7126 48.4494 9.77133 47.9515 11.9366 47.4254C17.7845 46.008 25.0281 44.2558 30.0021 48.3863C32.3173 46.4624 35.1261 45.8146 38.0544 45.8146Z" fill="#262626"/>
<path d="M29.9997 34.7992C29.6931 34.7992 29.4453 34.5514 29.4453 34.2448V13.6271C29.4453 13.3206 29.6931 13.0728 29.9997 13.0728C30.3062 13.0728 30.554 13.3206 30.554 13.6271V34.2448C30.554 34.5514 30.3062 34.7992 29.9997 34.7992Z" fill="#262626"/>
<path d="M29.9997 49.6756C29.6931 49.6756 29.4453 49.4278 29.4453 49.1212V39.3776C29.4453 39.0711 29.6931 38.8232 29.9997 38.8232C30.3062 38.8232 30.554 39.0711 30.554 39.3776V49.1212C30.554 49.4278 30.3062 49.6756 29.9997 49.6756Z" fill="#262626"/>
<path d="M10.9122 38.8687C10.8426 38.8687 10.7709 38.8557 10.7013 38.8274C10.4187 38.71 10.2839 38.3861 10.4013 38.1035L17.2666 21.4728C17.384 21.1902 17.7058 21.0554 17.9905 21.1728C18.2732 21.2902 18.4079 21.6141 18.2905 21.8967L11.4252 38.5274C11.3361 38.7404 11.1296 38.8709 10.9122 38.8709V38.8687Z" fill="#262626"/>
<path d="M24.6403 38.8689C24.4229 38.8689 24.2164 38.7407 24.1272 38.5255L17.2641 21.8948C17.1467 21.6121 17.2815 21.2882 17.5641 21.1708C17.8489 21.0534 18.1706 21.1882 18.288 21.4708L25.1512 38.1015C25.2686 38.3841 25.1338 38.7081 24.8512 38.8254C24.7816 38.8537 24.7099 38.8668 24.6403 38.8668V38.8689Z" fill="#262626"/>
<path d="M18.627 32.7728H13.4269C13.1204 32.7728 12.8726 32.525 12.8726 32.2184C12.8726 31.9119 13.1204 31.6641 13.4269 31.6641H18.627C18.9335 31.6641 19.1814 31.9119 19.1814 32.2184C19.1814 32.525 18.9335 32.7728 18.627 32.7728Z" fill="#262626"/>
<path d="M49.1175 39.6139C48.9892 39.6139 48.8609 39.5704 48.7566 39.4791L37.6238 29.8725C37.3912 29.6725 37.3651 29.3225 37.5651 29.0898C37.7651 28.8572 38.1151 28.8333 38.3477 29.0333L49.4805 38.64C49.7131 38.84 49.7392 39.19 49.5392 39.4226C49.4305 39.5487 49.274 39.6139 49.1196 39.6139H49.1175Z" fill="#262626"/>
<path d="M38.1211 40.3012C37.8994 40.3012 37.6907 40.1664 37.6037 39.949C37.4929 39.6642 37.6342 39.3425 37.9189 39.2316C42.1408 37.5816 47.9735 29.2771 48.2148 28.4662C48.3017 28.1727 48.6126 28.0075 48.9039 28.0945C49.1974 28.1814 49.3648 28.4901 49.2756 28.7836C48.9213 29.9706 42.8777 38.4838 38.3211 40.2642C38.2559 40.2903 38.1863 40.3034 38.119 40.3034L38.1211 40.3012Z" fill="#262626"/>
<path d="M34.9346 26.686C34.6389 26.686 34.3911 26.4512 34.3802 26.1533C34.3694 25.8468 34.6063 25.5903 34.9129 25.5794L51.174 24.9664C51.4805 24.962 51.737 25.1925 51.7479 25.499C51.7588 25.8055 51.5218 26.062 51.2153 26.0729L34.9542 26.686C34.9542 26.686 34.9411 26.686 34.9324 26.686H34.9346Z" fill="#262626"/>
<path d="M44.4099 22.6055H44.4012C44.0947 22.6012 43.8512 22.349 43.8555 22.0425L43.8838 20.2424C43.8881 19.9359 44.136 19.7055 44.4468 19.6968C44.7534 19.7011 44.9968 19.9533 44.9925 20.2598L44.9642 22.0599C44.9599 22.362 44.7121 22.6055 44.4099 22.6055Z" fill="#262626"/>
</svg>
