<svg width="60" height="60" viewBox="0 0 60 60" fill="none" xmlns="http://www.w3.org/2000/svg">
<path d="M45.5012 40.7968H42.462C42.1555 40.7968 41.9076 40.5489 41.9076 40.2424C41.9076 39.9359 42.1555 39.688 42.462 39.688H45.5012C47.7012 39.688 49.4926 37.8967 49.4926 35.6967V9.92235C49.4926 7.72231 47.7012 5.93098 45.5012 5.93098H14.4985C12.2985 5.93098 10.5071 7.72231 10.5071 9.92235V35.6967C10.5071 37.8967 12.2985 39.688 14.4985 39.688H16.4833C16.7899 39.688 17.0377 39.9359 17.0377 40.2424C17.0377 40.5489 16.7899 40.7968 16.4833 40.7968H14.4985C11.6854 40.7968 9.39844 38.5098 9.39844 35.6967V9.92235C9.39844 7.10926 11.6854 4.82227 14.4985 4.82227H45.5012C48.3143 4.82227 50.6013 7.10926 50.6013 9.92235V35.6967C50.6013 38.5098 48.3143 40.7968 45.5012 40.7968Z" fill="#262626"/>
<path d="M21.2879 19.0483H15.903C15.5965 19.0483 15.3486 18.8004 15.3486 18.4939V13.109C15.3486 12.8025 15.5965 12.5547 15.903 12.5547H21.2879C21.5944 12.5547 21.8422 12.8025 21.8422 13.109V18.4939C21.8422 18.8004 21.5944 19.0483 21.2879 19.0483ZM16.4595 17.9396H20.7357V13.6634H16.4595V17.9396Z" fill="#262626"/>
<path d="M21.2879 31.0136H15.903C15.5965 31.0136 15.3486 30.7658 15.3486 30.4592V25.0744C15.3486 24.7679 15.5965 24.52 15.903 24.52H21.2879C21.5944 24.52 21.8422 24.7679 21.8422 25.0744V30.4592C21.8422 30.7658 21.5944 31.0136 21.2879 31.0136ZM16.4595 29.9049H20.7357V25.6287H16.4595V29.9049Z" fill="#262626"/>
<path d="M44.2775 14.5423H26.1598C25.8533 14.5423 25.6055 14.2945 25.6055 13.988C25.6055 13.6814 25.8533 13.4336 26.1598 13.4336H44.2775C44.584 13.4336 44.8319 13.6814 44.8319 13.988C44.8319 14.2945 44.584 14.5423 44.2775 14.5423Z" fill="#262626"/>
<path d="M44.2775 17.8377H26.1598C25.8533 17.8377 25.6055 17.5899 25.6055 17.2834C25.6055 16.9768 25.8533 16.729 26.1598 16.729H44.2775C44.584 16.729 44.8319 16.9768 44.8319 17.2834C44.8319 17.5899 44.584 17.8377 44.2775 17.8377Z" fill="#262626"/>
<path d="M37.7401 29.6683H26.3747C26.0681 29.6683 25.8203 29.4205 25.8203 29.1139C25.8203 28.8074 26.0681 28.5596 26.3747 28.5596H37.7401C38.0466 28.5596 38.2944 28.8074 38.2944 29.1139C38.2944 29.4205 38.0466 29.6683 37.7401 29.6683Z" fill="#262626"/>
<path d="M44.0641 26.4417H26.3747C26.0681 26.4417 25.8203 26.1939 25.8203 25.8874C25.8203 25.5808 26.0681 25.333 26.3747 25.333H44.0641C44.3706 25.333 44.6184 25.5808 44.6184 25.8874C44.6184 26.1939 44.3706 26.4417 44.0641 26.4417Z" fill="#262626"/>
<path d="M33.4352 55.1776C32.6852 55.1776 31.9287 55.0732 31.1852 54.858C31.1135 54.8623 31.0439 54.8558 30.9765 54.8297L20.4372 50.8971C19.2067 50.4905 18.5263 49.1383 18.9394 47.8905C19.1394 47.2861 19.5633 46.7948 20.1329 46.5079C20.7024 46.2209 21.3503 46.1731 21.9546 46.3731L25.1634 47.434L18.2937 37.1316C17.9372 36.5968 17.8089 35.9533 17.935 35.3229C18.0611 34.6924 18.4263 34.1468 18.9611 33.7903C19.4959 33.4337 20.1394 33.3055 20.7698 33.4316C21.4003 33.5577 21.9459 33.9229 22.3024 34.4577L26.0373 40.0556L32.6374 36.8903C34.2896 36.1446 36.2048 36.6925 37.2049 38.1903L40.0549 42.4643C42.5528 46.21 41.6223 51.2775 37.9788 53.7645C36.6157 54.6949 35.0353 55.1754 33.4309 55.1754L33.4352 55.1776ZM31.1982 53.7275C31.2482 53.7275 31.2982 53.7341 31.3461 53.7493C33.3961 54.3862 35.5874 54.058 37.357 52.8514C40.4984 50.7057 41.2962 46.3231 39.1353 43.0817L36.2853 38.8077C35.5896 37.7642 34.2526 37.3794 33.1091 37.8968L26.0851 41.2643C25.8373 41.3839 25.5373 41.3013 25.3851 41.073L21.385 35.0729C21.1916 34.7838 20.8981 34.5859 20.5568 34.5185C20.2155 34.449 19.8676 34.5185 19.5785 34.712C19.2894 34.9055 19.0915 35.199 19.0241 35.5403C18.9567 35.8816 19.0241 36.2294 19.2176 36.5186L26.9808 48.1601C27.1112 48.3557 27.1047 48.6144 26.9612 48.8035C26.8177 48.9927 26.5699 49.0688 26.346 48.9949L21.609 47.4296C21.285 47.3231 20.9394 47.347 20.635 47.5014C20.3307 47.6557 20.1024 47.9187 19.9959 48.2427C19.7741 48.9122 20.1394 49.6362 20.8089 49.8557L31.1917 53.7297H31.2004L31.1982 53.7275Z" fill="#262626"/>
</svg>
