<svg width="60" height="60" viewBox="0 0 60 60" fill="none" xmlns="http://www.w3.org/2000/svg">
<path d="M44.6311 46.7497C44.5311 46.7497 44.4289 46.7214 44.3376 46.6649L41.6702 44.9953C41.4115 44.8323 41.331 44.491 41.4941 44.2323C41.6571 43.9736 41.9984 43.8953 42.2571 44.0562L44.455 45.4323L56.3726 26.4081L17.8524 2.2729L14.2654 7.9969C14.1023 8.25778 13.761 8.33386 13.5023 8.17299C13.2436 8.00995 13.1632 7.66864 13.3262 7.40994L17.2067 1.21636C17.285 1.09244 17.4089 1.00332 17.5524 0.970706C17.6958 0.938097 17.8459 0.962006 17.9719 1.04027L57.4313 25.7646C57.69 25.9276 57.7682 26.2689 57.6074 26.5276L45.1006 46.491C44.9963 46.6584 44.8159 46.7519 44.6311 46.7519V46.7497Z" fill="#262626"/>
<path d="M21.5033 17.0706C21.4033 17.0706 21.3011 17.0424 21.2098 16.9858L16.3553 13.9445C16.0966 13.7814 16.0184 13.4401 16.1793 13.1814L19.8924 7.25525C20.0554 6.99655 20.3989 6.91829 20.6554 7.07916C20.9141 7.2422 20.9946 7.58352 20.8315 7.84222L17.414 13.2988L21.3293 15.751L24.7468 10.2944C24.9098 10.0336 25.2533 9.95529 25.5099 10.1183C25.7686 10.2814 25.849 10.6227 25.6859 10.8814L21.975 16.8076C21.8707 16.975 21.6902 17.0685 21.5054 17.0685L21.5033 17.0706Z" fill="#262626"/>
<path d="M17.4091 18.2166C17.3091 18.2166 17.2069 18.1884 17.1156 18.1318C16.8569 17.9688 16.7765 17.6275 16.9395 17.3688L18.6069 14.7035C18.77 14.4427 19.1113 14.3666 19.37 14.5274C19.6287 14.6905 19.7091 15.0318 19.5461 15.2905L17.8786 17.9557C17.7743 18.1231 17.5939 18.2166 17.4091 18.2166Z" fill="#262626"/>
<path d="M23.8227 24.8536C23.7227 24.8536 23.6205 24.8253 23.5292 24.7688C23.2705 24.6058 23.1922 24.2644 23.3531 24.0057L29.914 13.536C30.0771 13.2773 30.4184 13.199 30.6793 13.3599C30.938 13.523 31.0163 13.8643 30.8554 14.123L24.2944 24.5927C24.19 24.7601 24.0096 24.8536 23.8248 24.8536H23.8227Z" fill="#262626"/>
<path d="M36.6925 26.5867C36.5903 26.5867 36.4882 26.5585 36.399 26.5019L31.5446 23.4606C31.4207 23.3823 31.3315 23.2584 31.2989 23.1149C31.2663 22.9715 31.2924 22.8215 31.3685 22.6975L35.0816 16.7714C35.2447 16.5127 35.5881 16.4344 35.8447 16.5953C36.1034 16.7583 36.1838 17.0996 36.0208 17.3583L32.6033 22.8149L36.5186 25.2671L39.936 19.8105C40.0991 19.5518 40.4426 19.4736 40.6991 19.6344C40.9578 19.7975 41.0382 20.1388 40.8752 20.3975L37.1643 26.3237C37.086 26.4476 36.9621 26.5367 36.8186 26.5693C36.7773 26.578 36.736 26.5824 36.6947 26.5824L36.6925 26.5867Z" fill="#262626"/>
<path d="M31.8119 28.9844C31.7119 28.9844 31.6097 28.9562 31.5184 28.8996C31.2597 28.7366 31.1793 28.3953 31.3423 28.1366L33.7967 24.2191C33.9598 23.9604 34.3011 23.8822 34.5598 24.043C34.8185 24.2061 34.8989 24.5474 34.7359 24.8061L32.2815 28.7235C32.1771 28.8909 31.9967 28.9844 31.8119 28.9844Z" fill="#262626"/>
<path d="M46.8211 32.9319C46.7211 32.9319 46.6189 32.9037 46.5276 32.8472L41.6732 29.8058C41.4145 29.6428 41.3363 29.3015 41.4971 29.0428L45.2102 23.1166C45.3733 22.8579 45.7146 22.7796 45.9733 22.9405C46.232 23.1035 46.3124 23.4448 46.1494 23.7035L42.7319 29.1601L46.6472 31.6124L50.0647 26.1557C50.2277 25.897 50.569 25.8188 50.8277 25.9797C51.0864 26.1427 51.1668 26.484 51.0038 26.7427L47.2929 32.6689C47.1885 32.8363 47.0081 32.9298 46.8233 32.9298L46.8211 32.9319Z" fill="#262626"/>
<path d="M39.7147 38.8779C39.6147 38.8779 39.5126 38.8497 39.4213 38.7932C39.1626 38.6301 39.0821 38.2888 39.2452 38.0301L43.9235 30.5604C44.0865 30.3017 44.43 30.2235 44.6866 30.3843C44.9453 30.5474 45.0257 30.8887 44.8626 31.1474L40.1843 38.6171C40.08 38.7845 39.8995 38.8779 39.7147 38.8779Z" fill="#262626"/>
<path d="M20.8898 59.0433C20.3029 59.0433 19.7267 59.0107 19.1615 58.9433C15.8245 58.5477 13.3245 57.015 12.1223 54.6324C11.307 53.0193 11.1614 51.1171 11.6984 49.1367C11.7158 49.0584 11.744 48.9519 11.7853 48.828C12.3484 47.1171 12.3962 45.8388 11.9331 44.9192C11.6005 44.2605 11.0397 43.8431 10.4983 43.4409L10.3201 43.3083C9.5331 42.7931 8.9092 42.1083 8.49615 41.2909C7.407 39.1322 7.94394 36.3886 9.97224 33.7603C10.1592 33.519 10.507 33.4734 10.7505 33.6603C10.994 33.8473 11.0375 34.1951 10.8505 34.4386C9.09397 36.7147 8.59831 39.03 9.48745 40.7909C9.81137 41.4322 10.3049 41.9735 10.957 42.3996L11.1571 42.5474C11.7418 42.9822 12.4701 43.5214 12.9223 44.417C13.5245 45.6127 13.4962 47.1671 12.8375 49.1714C12.8093 49.2584 12.7897 49.3323 12.7723 49.4019C12.3027 51.1345 12.4223 52.7628 13.1114 54.128C14.1419 56.1672 16.3354 57.4846 19.292 57.8368C22.3311 58.1977 25.7877 57.4977 29.0247 55.8628C32.2617 54.2302 34.8813 51.865 36.3966 49.2062C37.8705 46.6192 38.1162 44.0714 37.0857 42.0322C36.3966 40.667 35.1574 39.6039 33.5052 38.9604C33.4204 38.9235 33.3487 38.8952 33.2617 38.8669C28.9399 37.443 28.9356 35.1212 28.9334 33.5842V33.3668C28.9769 32.5538 28.8356 31.8342 28.5117 31.1929C27.6225 29.4298 25.4768 28.4602 22.592 28.5146C22.2855 28.5255 22.0333 28.2776 22.0268 27.9711C22.0203 27.6646 22.2638 27.4124 22.5703 27.4059C25.8856 27.3341 28.4139 28.5342 29.503 30.6929C29.9161 31.5103 30.0965 32.419 30.0421 33.3929V33.5821C30.0465 35.0864 30.0486 36.6408 33.6096 37.8147C33.7313 37.856 33.8357 37.8952 33.927 37.9365C35.8205 38.6734 37.2618 39.9213 38.077 41.5344C39.2792 43.917 39.0249 46.8388 37.3618 49.7584C35.74 52.6041 32.9574 55.1259 29.5269 56.8563C26.6921 58.2868 23.6855 59.0412 20.8898 59.0412V59.0433Z" fill="#262626"/>
<path d="M21.4575 45.7101C20.9466 45.7101 20.4336 45.6275 19.9357 45.4645C18.7053 45.0601 17.7053 44.1993 17.1226 43.0427C15.9183 40.6557 16.8813 37.7318 19.2683 36.5274C20.4249 35.9426 21.7401 35.8448 22.9706 36.2513C24.201 36.6557 25.201 37.5165 25.7836 38.6731C26.988 41.0601 26.025 43.984 23.638 45.1884C22.951 45.5362 22.2075 45.7101 21.4575 45.7101ZM21.4488 37.1122C20.8705 37.1122 20.2988 37.247 19.7683 37.5144C17.927 38.4426 17.1835 40.6992 18.1118 42.5405C18.5618 43.4319 19.3336 44.0971 20.2814 44.4101C21.2314 44.7232 22.2445 44.6471 23.138 44.1971C24.9793 43.2688 25.7228 41.0123 24.7945 39.1709C24.3445 38.2796 23.5728 37.6144 22.6249 37.3013C22.2401 37.1752 21.8445 37.1122 21.451 37.1122H21.4488Z" fill="#262626"/>
<path d="M15.3731 33.7387C15.0905 33.7387 14.8079 33.693 14.5318 33.6039C13.8514 33.38 13.2992 32.9039 12.9774 32.2669L7.57517 21.5602C7.37082 21.1559 6.97949 20.8602 6.47078 20.7254C5.70555 20.5232 5.06424 20.0015 4.70772 19.295L2.83377 15.5819C1.61854 13.171 2.58811 10.2209 4.99902 9.0035L5.60556 8.69697C6.77297 8.10783 8.10124 8.00783 9.34256 8.4187C10.5839 8.8274 11.5926 9.69698 12.1818 10.8644L14.0535 14.5775C14.41 15.284 14.447 16.1101 14.1557 16.8449C13.9622 17.3341 13.9687 17.8254 14.1709 18.2297L19.5732 28.9364C20.2384 30.256 19.708 31.8691 18.3884 32.5343L16.5731 33.4495C16.1927 33.6408 15.7818 33.7387 15.3688 33.7387H15.3731ZM7.80994 9.27959C7.22515 9.27959 6.64472 9.41654 6.10775 9.68829L5.50121 9.99481C3.63597 10.9361 2.88596 13.2188 3.82511 15.0819L5.69905 18.795C5.9121 19.2189 6.29906 19.5298 6.75776 19.6515C7.57734 19.8689 8.21864 20.3689 8.56865 21.058L13.9709 31.7647C14.16 32.1387 14.484 32.4169 14.8818 32.5495C15.2796 32.68 15.7057 32.6495 16.0797 32.4604L17.8949 31.5452C18.6688 31.156 18.9797 30.2082 18.5905 29.4364L13.1883 18.7297C12.8405 18.0406 12.8187 17.2254 13.1318 16.4384C13.3057 15.9971 13.2839 15.5014 13.0709 15.0775L11.1991 11.3644C10.7426 10.46 9.96215 9.78829 9.00126 9.47307C8.61213 9.34481 8.21213 9.28176 7.81212 9.28176L7.80994 9.27959Z" fill="#262626"/>
</svg>
