<svg width="60" height="60" viewBox="0 0 60 60" fill="none" xmlns="http://www.w3.org/2000/svg">
<path d="M48.7581 44.5449H11.2422C8.60959 44.5449 6.46826 42.4035 6.46826 39.7709V13.9879C6.46826 11.3552 8.60959 9.21387 11.2422 9.21387H48.7581C51.3907 9.21387 53.5321 11.3552 53.5321 13.9879V39.7709C53.5321 42.4035 51.3907 44.5449 48.7581 44.5449ZM11.2422 10.3226C9.22047 10.3226 7.57697 11.9661 7.57697 13.9879V39.7709C7.57697 41.7926 9.22047 43.4362 11.2422 43.4362H48.7581C50.7799 43.4362 52.4234 41.7926 52.4234 39.7709V13.9879C52.4234 11.9661 50.7799 10.3226 48.7581 10.3226H11.2422Z" fill="#262626"/>
<path d="M23.0122 55.6558C22.9122 55.6558 22.81 55.6275 22.7166 55.571C22.4579 55.408 22.3796 55.0667 22.5427 54.8058L29.5297 43.6947C29.6319 43.5339 29.808 43.436 29.9993 43.436C30.1906 43.436 30.3667 43.5339 30.4689 43.6947L37.4559 54.8058C37.619 55.0645 37.5407 55.408 37.282 55.571C37.0233 55.7341 36.6798 55.6558 36.5168 55.3971L29.9993 45.0317L23.4818 55.3971C23.3774 55.5645 23.197 55.6558 23.0122 55.6558Z" fill="#262626"/>
<path d="M46.5478 5.45295H13.4538C13.1472 5.45295 12.8994 5.20512 12.8994 4.8986C12.8994 4.59207 13.1472 4.34424 13.4538 4.34424H46.5478C46.8543 4.34424 47.1021 4.59207 47.1021 4.8986C47.1021 5.20512 46.8543 5.45295 46.5478 5.45295Z" fill="#262626"/>
<path d="M47.9587 22.0057H35.0802C34.7737 22.0057 34.5259 21.7579 34.5259 21.4513C34.5259 21.1448 34.7737 20.897 35.0802 20.897H47.9587C48.2652 20.897 48.5131 21.1448 48.5131 21.4513C48.5131 21.7579 48.2652 22.0057 47.9587 22.0057Z" fill="#262626"/>
<path d="M47.9587 32.8626H35.0802C34.7737 32.8626 34.5259 32.6148 34.5259 32.3083C34.5259 32.0017 34.7737 31.7539 35.0802 31.7539H47.9587C48.2652 31.7539 48.5131 32.0017 48.5131 32.3083C48.5131 32.6148 48.2652 32.8626 47.9587 32.8626Z" fill="#262626"/>
<path d="M20.1802 35.5714C15.3867 35.5714 11.4888 31.6713 11.4888 26.8799C11.4888 22.0885 15.3889 18.1885 20.1802 18.1885C24.9716 18.1885 28.8717 22.0885 28.8717 26.8799C28.8717 31.6713 24.9716 35.5714 20.1802 35.5714ZM20.1802 19.295C15.9997 19.295 12.5975 22.6972 12.5975 26.8777C12.5975 31.0582 15.9997 34.4605 20.1802 34.4605C24.3607 34.4605 27.763 31.0582 27.763 26.8777C27.763 22.6972 24.3607 19.295 20.1802 19.295Z" fill="#262626"/>
<path d="M25.9348 33.1863C25.7935 33.1863 25.6522 33.1319 25.5435 33.0232L19.789 27.2688C19.6847 27.1644 19.626 27.0231 19.626 26.8775V18.7404C19.626 18.4339 19.8738 18.186 20.1803 18.186C20.4869 18.186 20.7347 18.4339 20.7347 18.7404V26.6492L26.3261 32.2406C26.5435 32.458 26.5435 32.808 26.3261 33.0254C26.2174 33.1341 26.0761 33.1884 25.9348 33.1884V33.1863Z" fill="#262626"/>
</svg>
