<svg width="60" height="60" viewBox="0 0 60 60" fill="none" xmlns="http://www.w3.org/2000/svg">
<path d="M3.75 11.25C3.75 7.10786 7.10786 3.75 11.25 3.75H48.75C52.8921 3.75 56.25 7.10786 56.25 11.25V48.75C56.25 51.5261 54.7417 53.9499 52.5 55.2467L49.7882 54.3744C47.9209 53.7739 45.8923 53.9287 44.1379 54.8061L41.25 56.25H35.625L30 53.4375L24.375 56.25H18.75L15.8622 54.8061C14.1076 53.9287 12.0792 53.7739 10.2117 54.3744L7.5 55.2467C5.25825 53.9499 3.75 51.5261 3.75 48.75V11.25Z" fill="#E1D8EC"/>
<path d="M18.75 20.625V39.375H3.75V41.25H18.75V56.25H20.625V41.25H39.375V56.25H41.25V41.25H56.25V39.375H41.25V20.625H56.25V18.75H41.25V3.75H39.375V18.75H20.625V3.75H18.75V18.75H3.75V20.625H18.75ZM20.625 20.625H39.375V39.375H20.625V20.625Z" fill="#B4ACBC"/>
<path d="M11.25 56.25H18.75V19.1503C18.75 17.8904 17.7238 16.875 16.4506 16.875H9.79941C8.52619 16.875 7.5 17.8904 7.5 19.1503V55.2467C8.60316 55.8847 9.88393 56.25 11.25 56.25Z" fill="#00D26A"/>
<path d="M33.3255 31.875H26.6745C25.4012 31.875 24.375 32.8907 24.375 34.1507V56.25H35.625V34.1507C35.625 32.8907 34.5988 31.875 33.3255 31.875Z" fill="#F70A8D"/>
<path d="M41.25 56.25H48.75C50.1161 56.25 51.3969 55.8847 52.5 55.2467V13.5169C52.5 12.2617 51.4738 11.25 50.2005 11.25H43.5495C42.2762 11.25 41.25 12.2617 41.25 13.5169V56.25Z" fill="#00A6ED"/>
</svg>
