<svg width="60" height="60" viewBox="0 0 60 60" fill="none" xmlns="http://www.w3.org/2000/svg">
<path d="M21.5669 52.8681C21.3364 52.8681 21.1234 52.7246 21.0429 52.4942C20.0038 49.4942 16.1733 49.1702 14.5755 49.1702C11.245 49.1702 8.82536 50.4116 8.10361 52.4942C8.00361 52.7833 7.68621 52.9355 7.39925 52.8355C7.11011 52.7355 6.95575 52.4203 7.05793 52.1311C7.94055 49.5833 10.7515 48.0615 14.5776 48.0615C18.4038 48.0615 21.2103 49.5833 22.0929 52.1311C22.1929 52.4203 22.0408 52.7355 21.7517 52.8355C21.6908 52.8572 21.6299 52.8659 21.569 52.8659L21.5669 52.8681Z" fill="#262626"/>
<path d="M14.5734 46.4499C12.3951 46.4499 10.6211 44.6781 10.6211 42.4976C10.6211 40.3172 12.3929 38.5454 14.5734 38.5454C16.7538 38.5454 18.5256 40.3172 18.5256 42.4976C18.5256 44.6781 16.7538 46.4499 14.5734 46.4499ZM14.5734 39.6541C13.006 39.6541 11.7298 40.9302 11.7298 42.4976C11.7298 44.0651 13.006 45.3412 14.5734 45.3412C16.1408 45.3412 17.4169 44.0651 17.4169 42.4976C17.4169 40.9302 16.1408 39.6541 14.5734 39.6541Z" fill="#262626"/>
<path d="M36.9975 52.8674C36.7671 52.8674 36.554 52.7239 36.4736 52.4957C36.0366 51.2391 35.0497 50.3152 33.541 49.7478C32.5388 49.3717 31.3148 49.1717 30.0018 49.1717C28.6887 49.1717 27.4626 49.3717 26.4626 49.7478C26.0756 49.8956 25.743 50.0565 25.4495 50.2369C25.1886 50.3978 24.8473 50.3174 24.6865 50.0587C24.5256 49.7978 24.606 49.4565 24.8647 49.2956C25.219 49.076 25.6125 48.8847 26.0691 48.7108C27.2126 48.2804 28.5343 48.063 30.0018 48.063C31.4692 48.063 32.7909 48.2804 33.9322 48.7086C35.7388 49.3891 36.9801 50.5717 37.5214 52.1304C37.6214 52.4196 37.4693 52.7348 37.1801 52.837C37.1193 52.8587 37.0584 52.8674 36.9975 52.8674Z" fill="#262626"/>
<path d="M29.9996 46.4499C27.8213 46.4499 26.0474 44.6781 26.0474 42.4976C26.0474 40.3172 27.8191 38.5454 29.9996 38.5454C32.1801 38.5454 33.9518 40.3172 33.9518 42.4976C33.9518 44.6781 32.1801 46.4499 29.9996 46.4499ZM29.9996 39.6541C28.4322 39.6541 27.156 40.9302 27.156 42.4976C27.156 44.0651 28.4322 45.3412 29.9996 45.3412C31.567 45.3412 32.8431 44.0651 32.8431 42.4976C32.8431 40.9302 31.567 39.6541 29.9996 39.6541Z" fill="#262626"/>
<path d="M52.4223 52.8674C52.1918 52.8674 51.9788 52.7239 51.8984 52.4957C50.8527 49.4956 47.0244 49.1717 45.4265 49.1717C43.6026 49.1717 42.0243 49.5391 40.8677 50.2369C40.6069 50.3956 40.2656 50.3109 40.1069 50.0478C39.9482 49.7848 40.0329 49.4456 40.296 49.2869C41.6264 48.4869 43.4004 48.063 45.4265 48.063C49.2483 48.063 52.0592 49.5847 52.9462 52.1304C53.0462 52.4196 52.894 52.7348 52.6049 52.837C52.544 52.8587 52.4831 52.8674 52.4223 52.8674Z" fill="#262626"/>
<path d="M45.4244 46.4499C43.2461 46.4499 41.4722 44.6781 41.4722 42.4976C41.4722 40.3172 43.2439 38.5454 45.4244 38.5454C47.6049 38.5454 49.3766 40.3172 49.3766 42.4976C49.3766 44.6781 47.6049 46.4499 45.4244 46.4499ZM45.4244 39.6541C43.857 39.6541 42.5808 40.9302 42.5808 42.4976C42.5808 44.0651 43.857 45.3412 45.4244 45.3412C46.9918 45.3412 48.2679 44.0651 48.2679 42.4976C48.2679 40.9302 46.9918 39.6541 45.4244 39.6541Z" fill="#262626"/>
<path d="M9.82976 36.9954C9.52323 36.9954 9.27539 36.7476 9.27539 36.4411V13.5646C9.27539 13.2581 9.52323 13.0103 9.82976 13.0103H50.1652C50.4717 13.0103 50.7196 13.2581 50.7196 13.5646V36.4367C50.7196 36.7432 50.4717 36.9911 50.1652 36.9911C49.8587 36.9911 49.6108 36.7432 49.6108 36.4367V14.119H10.3841V36.4411C10.3841 36.7476 10.1363 36.9954 9.82976 36.9954Z" fill="#262626"/>
<path d="M51.6942 14.1194H8.30649C7.26952 14.1194 6.42822 13.2759 6.42822 12.2411V9.01062C6.42822 7.97365 7.27169 7.13232 8.30649 7.13232H51.6942C52.7311 7.13232 53.5724 7.97582 53.5724 9.01062V12.2411C53.5724 13.2781 52.729 14.1194 51.6942 14.1194ZM8.30649 8.23887C7.88257 8.23887 7.5369 8.58452 7.5369 9.00844V12.2389C7.5369 12.6628 7.88257 13.0085 8.30649 13.0085H51.6942C52.1181 13.0085 52.4637 12.6628 52.4637 12.2389V9.00844C52.4637 8.58452 52.1181 8.23887 51.6942 8.23887H8.30649Z" fill="#262626"/>
<path d="M38.3888 19.6668H21.6081C21.3016 19.6668 21.0537 19.419 21.0537 19.1125C21.0537 18.8059 21.3016 18.5581 21.6081 18.5581H38.3888C38.6953 18.5581 38.9431 18.8059 38.9431 19.1125C38.9431 19.419 38.6953 19.6668 38.3888 19.6668Z" fill="#262626"/>
<path d="M26.6018 25.0975H14.5734C14.2669 25.0975 14.019 24.8497 14.019 24.5431C14.019 24.2366 14.2669 23.9888 14.5734 23.9888H26.6018C26.9084 23.9888 27.1562 24.2366 27.1562 24.5431C27.1562 24.8497 26.9084 25.0975 26.6018 25.0975Z" fill="#262626"/>
<path d="M45.1716 35.0479H35.6931C34.8279 35.0479 34.1235 34.3436 34.1235 33.4783V25.5608C34.1235 24.6956 34.8279 23.9912 35.6931 23.9912H45.1716C46.0368 23.9912 46.7411 24.6956 46.7411 25.5608V33.4783C46.7411 34.3436 46.0368 35.0479 45.1716 35.0479ZM35.6931 25.0978C35.4388 25.0978 35.2323 25.3043 35.2323 25.5586V33.4761C35.2323 33.7305 35.4388 33.937 35.6931 33.937H45.1716C45.4259 33.937 45.6324 33.7305 45.6324 33.4761V25.5586C45.6324 25.3043 45.4259 25.0978 45.1716 25.0978H35.6931Z" fill="#262626"/>
<path d="M26.6018 32.4671H14.5734C14.2669 32.4671 14.019 32.2193 14.019 31.9128C14.019 31.6062 14.2669 31.3584 14.5734 31.3584H26.6018C26.9084 31.3584 27.1562 31.6062 27.1562 31.9128C27.1562 32.2193 26.9084 32.4671 26.6018 32.4671Z" fill="#262626"/>
</svg>
