<svg width="60" height="60" viewBox="0 0 60 60" fill="none" xmlns="http://www.w3.org/2000/svg">
<path d="M50.71 22.8761C50.686 22.8761 50.6643 22.8761 50.6404 22.8717C50.3361 22.8348 50.1208 22.5565 50.1599 22.2522L52.097 6.71932L24.7269 3.30406L23.9552 9.47588C23.9161 9.78023 23.6421 9.99547 23.3356 9.95634C23.0313 9.91938 22.816 9.64112 22.8552 9.33677L23.6943 2.61491C23.7313 2.31056 24.0095 2.09535 24.3139 2.13448L52.7839 5.6867C53.0883 5.72366 53.3035 6.00192 53.2643 6.30627L51.2578 22.3891C51.223 22.6696 50.9839 22.8739 50.7078 22.8739L50.71 22.8761Z" fill="#262626"/>
<path d="M27.912 57.8678C27.8946 57.8678 27.8772 57.8678 27.8598 57.8656C27.7141 57.8526 27.5794 57.7808 27.4859 57.6678L4.55937 29.9043C4.4659 29.7913 4.42028 29.6456 4.4355 29.4978C4.44854 29.3521 4.52026 29.2173 4.63331 29.1238L26.7576 10.8562C26.8706 10.7627 27.0163 10.7192 27.1641 10.7322C27.3098 10.7453 27.4446 10.817 27.538 10.9301L34.8381 19.7694C35.0338 20.0063 34.999 20.3541 34.7642 20.5498C34.5295 20.7455 34.1794 20.7107 33.9838 20.4759L27.038 12.0649L5.7681 29.626L27.988 56.5352L39.8121 46.7698C39.9143 46.685 40.0382 46.6437 40.1643 46.6437H40.1687C40.3143 46.6437 40.4622 46.7024 40.5709 46.8154C40.7817 47.0372 40.773 47.3872 40.5513 47.5981C40.5295 47.6198 40.5057 47.6372 40.4796 47.6546L28.2663 57.7439C28.1663 57.8265 28.0424 57.87 27.9141 57.87L27.912 57.8678Z" fill="#262626"/>
<path d="M40.9991 43.9784C40.1252 43.9784 39.2447 43.8741 38.3752 43.6654C35.4925 42.9697 33.0555 41.1936 31.5077 38.6631C28.3163 33.4413 29.9685 26.5955 35.1903 23.4042C40.4122 20.2128 47.2579 21.865 50.4493 27.0868C51.995 29.6173 52.4645 32.5978 51.7689 35.4783C51.0732 38.3609 49.2971 40.7979 46.7666 42.3458C45.0014 43.4241 43.0166 43.9784 40.9991 43.9784ZM40.9644 22.8846C39.1883 22.8846 37.3925 23.3563 35.7708 24.3477C31.0707 27.2194 29.5837 33.3826 32.4555 38.0827C33.8468 40.3588 36.0425 41.9588 38.636 42.5849C41.2295 43.211 43.9122 42.7893 46.1905 41.3979C48.4666 40.0066 50.0667 37.8109 50.6928 35.2174C51.3189 32.6239 50.8971 29.9412 49.5058 27.6629C47.6253 24.5846 44.3318 22.8846 40.9644 22.8846Z" fill="#262626"/>
<path d="M40.9904 39.7931C38.5556 39.7931 36.3447 38.5539 35.0773 36.48C34.9186 36.2191 34.999 35.8778 35.2621 35.7169C35.523 35.5582 35.8642 35.6387 36.0251 35.9017C37.0903 37.643 38.9469 38.6844 40.9926 38.6844C41.2991 38.6844 41.5469 38.9322 41.5469 39.2387C41.5469 39.5452 41.2991 39.7931 40.9926 39.7931H40.9904Z" fill="#262626"/>
<path d="M52.406 54.7437C51.3777 54.7437 50.3733 54.2241 49.7994 53.285L46.9515 48.6262C46.0754 47.1914 46.5298 45.311 47.9624 44.4348L48.082 44.3609C49.5168 43.4827 51.3973 43.9392 52.2734 45.3718L55.1212 50.0306C55.5451 50.7241 55.6713 51.5415 55.48 52.335C55.2887 53.1285 54.8017 53.798 54.1082 54.222L53.9886 54.2959C53.493 54.5981 52.9451 54.7437 52.4038 54.7437H52.406ZM49.669 45.024C49.3233 45.024 48.9755 45.1153 48.6603 45.3088L48.5407 45.3827C47.6276 45.9414 47.3385 47.1371 47.8972 48.0501L50.7451 52.7089C51.3038 53.6219 52.4995 53.9111 53.4125 53.3524L53.5321 53.2785C53.9712 53.0089 54.2821 52.5828 54.4038 52.0785C54.5256 51.5719 54.4452 51.0524 54.1756 50.611L51.3277 45.9523C50.9625 45.3544 50.3233 45.024 49.669 45.024Z" fill="#262626"/>
</svg>
