<svg width="60" height="60" viewBox="0 0 60 60" fill="none" xmlns="http://www.w3.org/2000/svg">
<path d="M54.7495 5.53076C52.9737 3.75497 49.6866 3.66098 47.59 4.73529C45.8792 5.32273 44.077 5.98521 42.2389 6.72806L42.2586 6.74784C37.4293 8.79915 30.207 12.4457 24.4266 17.8122C20.3687 21.5796 18.0436 24.4798 16.4864 27.1213L6.5522 30.778C5.26786 31.2509 4.90634 32.8958 5.87407 33.8635C12.835 40.8244 19.7959 47.7854 26.7568 54.7463C27.7245 55.714 29.3695 55.3525 29.8423 54.0681L33.9737 42.8445C36.99 41.0477 40.0165 38.785 43.1766 35.6249C47.6586 31.1429 51.3623 23.3265 53.5142 18.0808L53.5298 18.0965C54.2817 16.2393 54.9516 14.4181 55.5448 12.6903C56.6192 10.5936 56.9322 7.71349 54.7495 5.53076Z" fill="#CA0B4A"/>
<path d="M43.6853 8.18347C38.9661 10.1327 31.5389 13.7686 25.7033 19.1863C21.926 22.6932 19.7579 25.3635 18.3171 27.7165C16.8752 30.0715 16.1138 32.1803 15.1994 34.7299L15.1947 34.743C14.8757 35.6327 14.5373 36.576 14.1475 37.5827L22.6889 46.1243C29.4436 43.3517 35.3275 40.8233 41.8518 34.299C46.2606 29.8902 49.9872 21.8447 52.0786 16.6344L43.6853 8.18347Z" fill="#F4F4F4"/>
<path d="M45.9893 21.0938C45.9893 24.4592 43.2609 27.1875 39.8955 27.1875C36.5299 27.1875 33.8018 24.4592 33.8018 21.0938C33.8018 17.7283 36.5299 15 39.8955 15C43.2609 15 45.9893 17.7283 45.9893 21.0938Z" fill="#9B9B9B"/>
<path d="M44.1143 21.0938C44.1143 23.4236 42.2254 25.3125 39.8955 25.3125C37.5654 25.3125 35.6768 23.4236 35.6768 21.0938C35.6768 18.7639 37.5654 16.875 39.8955 16.875C42.2254 16.875 44.1143 18.7639 44.1143 21.0938Z" fill="#83CBFF"/>
<path d="M4.59545 55.5203C3.26961 54.1945 3.80151 45.0001 8.48898 43.1251C8.48898 43.1251 13.1765 41.2501 16.1971 44.251C19.2178 47.2521 17.864 50.6249 17.864 50.6249C16.5382 54.6023 10.8938 56.1835 10.2309 55.5205C9.86478 55.1545 10.524 54.4879 10.2309 54.1947C9.93775 53.9016 9.48511 54.2361 8.24215 54.8577C7.35828 55.2996 5.12577 56.0507 4.59545 55.5203Z" fill="#FF8257"/>
<path d="M11.4156 39.4888C12.5139 38.3904 14.2947 38.3904 15.393 39.4888L22.0221 46.1179C23.1205 47.2163 23.1205 48.9969 22.0221 50.0953C20.9239 51.1937 19.143 51.1937 18.0447 50.0953L11.4156 43.4663C10.3172 42.3679 10.3172 40.5872 11.4156 39.4888Z" fill="#533566"/>
<path d="M29.1276 35.1037C29.9562 32.8526 27.7677 30.6641 25.5165 31.4927L12.1772 36.4029C10.8929 36.8758 10.5313 38.5207 11.4991 39.4884L21.1318 49.1212C22.0995 50.0889 23.7445 49.7274 24.2173 48.4431L29.1276 35.1037Z" fill="#F92F60"/>
</svg>
