<svg width="60" height="60" viewBox="0 0 60 60" fill="none" xmlns="http://www.w3.org/2000/svg">
<path d="M53.6546 51.1628C53.5416 51.1628 53.4286 51.128 53.3329 51.0606C47.2654 46.7541 34.1456 46.5758 30.1194 47.454C30.0412 47.4714 29.9608 47.4714 29.8825 47.454C25.8563 46.5758 12.7366 46.7541 6.66913 51.0606C6.49956 51.1802 6.27773 51.1976 6.09295 51.1019C5.90816 51.0063 5.79297 50.8171 5.79297 50.6084V16.547C5.79297 16.2405 6.04086 15.9927 6.34739 15.9927C6.65392 15.9927 6.9017 16.2405 6.9017 16.547V49.5867C13.5344 45.6214 25.7803 45.4779 29.9999 46.3453C34.2195 45.4779 46.4654 45.6214 53.0981 49.5867V16.547C53.0981 16.2405 53.3459 15.9927 53.6524 15.9927C53.9589 15.9927 54.2068 16.2405 54.2068 16.547V50.6084C54.2068 50.815 54.0916 51.0063 53.9069 51.1019C53.8264 51.1432 53.7394 51.1628 53.6524 51.1628H53.6546Z" fill="#262626"/>
<path d="M29.9351 43.5568C29.8547 43.5568 29.7763 43.5394 29.7024 43.5068C26.5328 42.0415 17.5197 40.2698 11.05 42.8111C10.8804 42.8785 10.6869 42.8567 10.5347 42.7524C10.3826 42.6502 10.2935 42.4785 10.2935 42.2937V10.2628C10.2935 10.0301 10.4391 9.82144 10.6565 9.74318C14.3761 8.38229 26.1503 8.4497 29.9351 10.6563C33.7199 8.4497 45.4962 8.38229 49.218 9.74318C49.4375 9.82362 49.581 10.0301 49.581 10.2628V42.2937C49.581 42.4763 49.4897 42.648 49.3397 42.7524C49.1875 42.8567 48.9962 42.8763 48.8245 42.8111C42.3526 40.2719 33.3373 42.0437 30.1677 43.5068C30.0938 43.5416 30.0155 43.5568 29.9351 43.5568ZM18.7457 40.4328C23.3523 40.4328 27.7481 41.4546 29.9372 42.3959C33.3112 40.9459 41.9244 39.3067 48.4745 41.5024V10.6649C44.594 9.52144 33.1873 9.68232 30.259 11.765C30.0677 11.9019 29.809 11.9019 29.6155 11.765C26.6872 9.68449 15.2827 9.52361 11.4022 10.6649V41.5024C13.7022 40.7306 16.2544 40.4328 18.7457 40.4328Z" fill="#262626"/>
<path d="M29.9348 43.556C29.6283 43.556 29.3804 43.3081 29.3804 43.0016V22.0578C29.3804 21.7513 29.6283 21.5034 29.9348 21.5034C30.2413 21.5034 30.4891 21.7513 30.4891 22.0578V43.0016C30.4891 43.3081 30.2413 43.556 29.9348 43.556Z" fill="#262626"/>
<path d="M29.9348 17.8584C29.6283 17.8584 29.3804 17.6106 29.3804 17.3041V11.3126C29.3804 11.0061 29.6283 10.7583 29.9348 10.7583C30.2413 10.7583 30.4891 11.0061 30.4891 11.3126V17.3041C30.4891 17.6106 30.2413 17.8584 29.9348 17.8584Z" fill="#262626"/>
</svg>
