<svg width="60" height="60" viewBox="0 0 60 60" fill="none" xmlns="http://www.w3.org/2000/svg">
<path d="M31.5624 18.75H46.875C49.0288 18.75 50.625 20.3462 50.625 22.5V24.375L26.25 44.0625L4.89259 52.9322C4.16436 51.8066 3.75 50.199 3.75 48.75V15.1506C3.75 12.9968 5.49667 11.25 7.65051 11.25H20.1662C21.6825 11.25 23.1367 11.8502 24.2119 12.9195L28.8107 17.6017C29.5419 18.3282 30.5317 18.75 31.5624 18.75Z" fill="#FFB02E"/>
<path d="M52.3329 24.375H20.4111C18.9894 24.3754 17.6026 24.8149 16.4403 25.6333C15.2781 26.4519 14.3971 27.6096 13.9179 28.9481C5.30982 53.6325 6.02045 51.8586 5.80295 52.1361C5.71092 52.2782 5.58526 52.3954 5.43708 52.4771C5.2889 52.5589 5.12279 52.6028 4.95357 52.6048C4.83265 52.6033 4.71451 52.5683 4.6123 52.5038C5.25297 53.7094 6.22799 54.7046 7.42034 55.3697C8.61269 56.0349 9.97173 56.3419 11.3342 56.2538H44.9942C45.8122 56.2498 46.6076 55.9828 47.2622 55.4921C47.9169 55.0016 48.3964 54.3135 48.6298 53.5294L56.0586 29.4637C56.2438 28.878 56.2886 28.2568 56.1891 27.6508C56.0895 27.0446 55.8486 26.4705 55.4856 25.9749C55.1227 25.4792 54.6484 25.0763 54.1005 24.7982C53.5528 24.5203 52.9472 24.3752 52.3329 24.375Z" fill="#FCD53F"/>
</svg>
