<svg width="60" height="60" viewBox="0 0 60 60" fill="none" xmlns="http://www.w3.org/2000/svg">
<path d="M22.4494 24.7911C22.3081 24.7911 22.1667 24.7367 22.058 24.628L12.6362 15.2061C12.4188 14.9887 12.4188 14.6387 12.6362 14.4213C12.8536 14.204 13.2036 14.204 13.421 14.4213L22.8429 23.8432C23.0603 24.0606 23.0603 24.4107 22.8429 24.628C22.7342 24.7367 22.5929 24.7911 22.4515 24.7911H22.4494Z" fill="#262626"/>
<path d="M13.0275 51.3848C12.8862 51.3848 12.7449 51.3305 12.6362 51.2218C12.4188 51.0044 12.4188 50.6544 12.6362 50.437L22.058 41.0151C22.2754 40.7977 22.6255 40.7977 22.8429 41.0151C23.0603 41.2325 23.0603 41.5825 22.8429 41.7999L13.421 51.2218C13.3123 51.3305 13.1709 51.3848 13.0296 51.3848H13.0275Z" fill="#262626"/>
<path d="M39.6232 24.7911C39.4819 24.7911 39.3406 24.7367 39.2319 24.628C39.0145 24.4107 39.0145 24.0606 39.2319 23.8432L48.6538 14.4213C48.8712 14.204 49.2212 14.204 49.4386 14.4213C49.656 14.6387 49.656 14.9887 49.4386 15.2061L40.0167 24.628C39.908 24.7367 39.7667 24.7911 39.6254 24.7911H39.6232Z" fill="#262626"/>
<path d="M19.8543 33.3763H6.13884C5.83231 33.3763 5.58447 33.1285 5.58447 32.8219C5.58447 32.5154 5.83231 32.2676 6.13884 32.2676H19.8543C20.1608 32.2676 20.4087 32.5154 20.4087 32.8219C20.4087 33.1285 20.1608 33.3763 19.8543 33.3763Z" fill="#262626"/>
<path d="M31.0363 22.1933C30.7298 22.1933 30.4819 21.9455 30.4819 21.6389V7.92348C30.4819 7.61695 30.7298 7.36914 31.0363 7.36914C31.3428 7.36914 31.5907 7.61695 31.5907 7.92348V21.6389C31.5907 21.9455 31.3428 22.1933 31.0363 22.1933Z" fill="#262626"/>
<path d="M44.7042 52.6309C43.8107 52.6309 42.9107 52.507 42.0237 52.2526C41.9389 52.2613 41.852 52.2526 41.7715 52.22L28.9366 47.4308C28.2496 47.2047 27.6778 46.709 27.3431 46.046C27.0083 45.3808 26.9539 44.6264 27.1865 43.9199L27.2082 43.8503C27.6778 42.4307 29.2126 41.6568 30.6344 42.1264L34.9453 43.5503L26.343 30.6501C25.9365 30.0414 25.793 29.3109 25.9365 28.5914C26.08 27.874 26.4952 27.2544 27.1039 26.8479L27.2278 26.7653C28.4865 25.9261 30.1909 26.2674 31.0301 27.524L35.6758 34.4915L43.8085 30.5914C45.7629 29.7088 48.0325 30.3588 49.2173 32.1327L52.737 37.4111C55.2913 41.2437 54.8957 46.359 51.7913 49.5786C49.8825 51.5591 47.3238 52.6265 44.702 52.6265L44.7042 52.6309ZM41.9803 51.1069C42.0346 51.1069 42.0911 51.1156 42.1455 51.133C45.2847 52.1091 48.676 51.22 50.9956 48.8156C53.7391 45.9699 54.0848 41.435 51.8174 38.0328L48.2977 32.7545C47.4173 31.4327 45.7259 30.9479 44.2803 31.6023L35.7236 35.7045C35.4758 35.8241 35.1758 35.7415 35.0236 35.5132L30.1105 28.1457C29.6105 27.3979 28.5953 27.1935 27.8474 27.6935L27.7235 27.7761C26.9735 28.2761 26.7713 29.2914 27.2713 30.0392L36.7671 44.2764C36.8976 44.472 36.891 44.7308 36.7476 44.9199C36.6041 45.109 36.3562 45.1851 36.1323 45.1112L30.2931 43.1807C29.454 42.9046 28.5452 43.3612 28.2692 44.2003L28.2474 44.2699C28.1061 44.696 28.1409 45.1503 28.3409 45.5503C28.5431 45.9503 28.8866 46.2482 29.3127 46.3895L41.965 51.1113C41.965 51.1113 41.978 51.1113 41.9867 51.1113L41.9803 51.1069Z" fill="#262626"/>
</svg>
