<svg width="60" height="60" viewBox="0 0 60 60" fill="none" xmlns="http://www.w3.org/2000/svg">
<path d="M43.9939 33.1691C43.8526 33.1691 43.7113 33.1147 43.6048 33.0082C43.3874 32.793 43.3852 32.4408 43.6004 32.2234C49.0527 26.7125 49.7267 17.6275 45.2005 10.6187C42.6418 6.65562 38.8025 3.85775 34.3894 2.73817C29.9937 1.62511 25.5523 2.31425 21.8871 4.6795C16.7087 8.02303 14.0152 14.1362 14.8587 20.6319C14.8978 20.9363 14.6848 21.2145 14.3805 21.2537C14.0739 21.2928 13.7978 21.0798 13.7586 20.7754C12.8586 13.8514 15.7435 7.32736 21.2871 3.74905C25.2133 1.21205 29.9655 0.472914 34.6634 1.66424C39.3482 2.85121 43.4221 5.81865 46.1331 10.0187C50.9375 17.4601 50.2049 27.1277 44.3896 33.0039C44.2809 33.1126 44.1375 33.1691 43.9962 33.1691H43.9939Z" fill="#262626"/>
<path d="M41.7245 13.4208C41.5419 13.4208 41.3636 13.3317 41.2592 13.1665C37.3874 7.17072 29.8396 5.13372 24.4351 8.62508C24.1786 8.7903 23.8351 8.71639 23.6677 8.45986C23.5025 8.20334 23.5764 7.85986 23.8329 7.69247C29.7504 3.87066 37.9853 6.05548 42.1898 12.5643C42.355 12.8208 42.281 13.1643 42.0245 13.3317C41.931 13.3926 41.8267 13.4208 41.7245 13.4208Z" fill="#262626"/>
<path d="M49.6554 53.4566C49.588 53.4566 49.5206 53.4436 49.4554 53.4197C49.2902 53.3566 49.1662 53.2175 49.1206 53.0458C48.7075 51.5066 46.7836 47.9718 44.4422 44.4478C44.2727 44.1934 44.3422 43.8478 44.5966 43.6782C44.8509 43.5086 45.1966 43.5782 45.3662 43.8326C47.501 47.0457 49.2532 50.1935 49.9576 52.0479L53.5206 49.7501C50.3662 46.6 43.7466 36.2433 43.4444 32.6606C43.4183 32.3563 43.6445 32.0867 43.951 32.0606C44.2553 32.0346 44.5249 32.2606 44.5488 32.5672C44.8401 36.0324 52.2271 47.3196 54.775 49.3979C54.9119 49.5109 54.9881 49.6805 54.9772 49.8588C54.9663 50.037 54.8728 50.1979 54.725 50.2935L49.9576 53.3675C49.8663 53.4262 49.7619 53.4566 49.6576 53.4566H49.6554Z" fill="#262626"/>
<path d="M23.4355 58.891C18.6745 58.891 13.9179 57.0627 10.32 53.4148C3.18729 46.1843 3.26769 34.4971 10.4982 27.3644C17.7288 20.2317 29.4159 20.3121 36.5487 27.5427C40.0031 31.0449 41.8879 35.6841 41.8553 40.6059C41.8205 45.5256 39.8727 50.1387 36.3704 53.5931C32.7878 57.1258 28.1094 58.891 23.4355 58.891ZM11.2788 28.1536C4.483 34.858 4.4069 45.8408 11.1114 52.6366C17.8158 59.4323 28.7985 59.5084 35.5943 52.804C38.8856 49.5561 40.7183 45.2212 40.7487 40.5972C40.7813 35.9733 39.0096 31.6123 35.7617 28.321C29.0594 21.5252 18.0745 21.4513 11.2788 28.1536Z" fill="#262626"/>
<path d="M10.7149 53.5802C10.5714 53.5802 10.4279 53.5259 10.3192 53.415C10.104 53.1976 10.1062 52.8454 10.3236 52.6302L35.7631 27.5385C35.9805 27.3233 36.3327 27.3254 36.5479 27.5428C36.7631 27.7602 36.761 28.1124 36.5414 28.3276L11.1019 53.4193C10.9932 53.5259 10.854 53.578 10.7127 53.578L10.7149 53.5802Z" fill="#262626"/>
<path d="M35.9828 53.7538C35.8393 53.7538 35.6958 53.6994 35.5871 53.5886L13.2411 30.9317C13.0259 30.7143 13.0281 30.3621 13.2455 30.1469C13.4629 29.9317 13.815 29.9338 14.0302 30.1512L36.3763 52.8081C36.5915 53.0255 36.5893 53.3777 36.3719 53.5929C36.2632 53.6994 36.1241 53.7516 35.9828 53.7516V53.7538Z" fill="#262626"/>
<path d="M22.5024 58.8758C22.4807 58.8758 22.4568 58.8758 22.435 58.8714C22.1307 58.8345 21.9154 58.5584 21.9524 58.254C22.1154 56.9149 22.4307 55.567 22.8872 54.2496C23.9938 51.0561 25.9156 48.0517 28.4439 45.5582C30.9722 43.0646 34.0048 41.1842 37.2114 40.1233C37.5027 40.0276 37.8157 40.1842 37.9114 40.4755C38.007 40.7668 37.8505 41.0798 37.5592 41.1755C34.5134 42.1842 31.6287 43.9733 29.2221 46.3473C26.8134 48.7213 24.9851 51.58 23.935 54.6127C23.5046 55.8562 23.2068 57.1257 23.0524 58.3888C23.0176 58.6692 22.7785 58.8758 22.5024 58.8758Z" fill="#262626"/>
<path d="M9.48492 40.8669C9.2523 40.8669 9.03482 40.7191 8.95873 40.4865C8.86308 40.1952 9.01963 39.8821 9.31094 39.7865C12.3566 38.7778 15.2415 36.9886 17.648 34.6147C20.0568 32.2386 21.885 29.382 22.9351 26.3493C23.3655 25.1058 23.6633 23.8362 23.8177 22.5732C23.8546 22.2688 24.133 22.0536 24.4352 22.0906C24.7395 22.1275 24.9547 22.4036 24.9177 22.708C24.7547 24.0471 24.4395 25.395 23.983 26.7124C22.8764 29.9037 20.9568 32.9103 18.4285 35.4038C15.9002 37.8973 12.8675 39.7778 9.66091 40.8387C9.60222 40.8582 9.54356 40.8669 9.48704 40.8669H9.48492Z" fill="#262626"/>
</svg>
