<svg width="60" height="60" viewBox="0 0 60 60" fill="none" xmlns="http://www.w3.org/2000/svg">
<path d="M27.9272 45.992C24.6967 45.992 21.4836 45.2833 18.4771 43.8767C18.201 43.7463 18.0792 43.4158 18.2097 43.1398C18.3401 42.8615 18.6684 42.7419 18.9466 42.8724C24.0815 45.2767 29.8533 45.5333 35.1991 43.5963C40.5448 41.6593 44.8123 37.7658 47.2167 32.6309C49.621 27.496 49.8776 21.7242 47.9406 16.3784C46.0036 11.0327 42.11 6.76525 36.9752 4.36086C36.6969 4.23043 36.5773 3.89998 36.7078 3.62389C36.8382 3.34563 37.1665 3.22606 37.4448 3.3565C42.847 5.8848 46.9449 10.3762 48.9819 16.0002C51.0189 21.6242 50.7471 27.696 48.2188 33.0983C45.6905 38.5005 41.1992 42.5984 35.5752 44.6354C33.0816 45.5376 30.499 45.9876 27.9272 45.9876V45.992Z" fill="#262626"/>
<path d="M27.9601 52.5029C27.6536 52.5029 27.4058 52.2551 27.4058 51.9485V45.4289C27.4058 45.1223 27.6536 44.8745 27.9601 44.8745C28.2666 44.8745 28.5145 45.1223 28.5145 45.4289V51.9485C28.5145 52.2551 28.2666 52.5029 27.9601 52.5029Z" fill="#262626"/>
<path d="M38.5389 56.6967C38.2323 56.6967 37.9845 56.4489 37.9845 56.1424C37.9845 54.4206 33.867 52.4988 27.9604 52.4988C22.0538 52.4988 17.9364 54.4184 17.9364 56.1424C17.9364 56.4489 17.6885 56.6967 17.382 56.6967C17.0755 56.6967 16.8276 56.4489 16.8276 56.1424C16.8276 53.4336 21.6147 51.3901 27.9604 51.3901C34.3062 51.3901 39.0932 53.4336 39.0932 56.1424C39.0932 56.4489 38.8454 56.6967 38.5389 56.6967Z" fill="#262626"/>
<path d="M27.9923 41.9111C27.4401 41.9111 26.8857 41.8872 26.327 41.8372C21.4595 41.4003 17.0551 39.0959 13.9225 35.3458C10.7898 31.5957 9.305 26.85 9.73979 21.9847C10.1768 17.1173 12.4811 12.7128 16.2312 9.58018C19.9813 6.44752 24.7248 4.96271 29.5923 5.3975C34.4597 5.83447 38.8642 8.13885 41.999 11.8889C45.1317 15.639 46.6165 20.3847 46.1817 25.25C45.7447 30.1175 43.4403 34.5219 39.6903 37.6545C36.3685 40.4285 32.2684 41.9111 27.9923 41.9111ZM27.9444 6.43882C24.0574 6.43882 20.1486 7.74754 16.9399 10.428C13.4181 13.3715 11.2529 17.5107 10.842 22.0826C10.4333 26.6544 11.8268 31.1131 14.7703 34.6349C17.7138 38.1567 21.853 40.322 26.4248 40.7329C30.9967 41.1416 35.4554 39.7481 38.9772 36.8045C42.499 33.861 44.6643 29.7218 45.0751 25.15C45.4838 20.5782 44.0903 16.1194 41.1468 12.5976C37.7533 8.53451 32.8662 6.43882 27.9444 6.43882Z" fill="#262626"/>
<path d="M21.7208 40.5179C21.1882 40.5179 20.6839 40.4136 20.2165 40.194C18.2969 39.2984 17.3664 36.6896 17.599 32.8483C17.8208 29.183 19.0621 24.7655 21.0969 20.4089C23.1317 16.0523 25.7209 12.2653 28.3905 9.74354C31.1862 7.10219 33.7841 6.13913 35.7037 7.03697C39.5516 8.83483 39.1668 17.5241 34.8254 26.8221C31.0101 34.9918 25.5926 40.5179 21.723 40.5179H21.7208ZM34.1841 7.82177C32.8058 7.82177 31.0384 8.76961 29.1514 10.5501C26.5818 12.9784 24.0774 16.6458 22.1013 20.8785C20.1252 25.1112 18.9186 29.3852 18.7056 32.9157C18.5056 36.2222 19.2273 38.5092 20.686 39.1897C23.86 40.6723 29.8753 34.7939 33.8189 26.3503C37.7602 17.9089 38.4081 9.52397 35.2341 8.03917C34.9189 7.89134 34.5667 7.8196 34.1841 7.8196V7.82177Z" fill="#262626"/>
<path d="M37.5582 34.3934C33.906 34.3934 29.2625 33.2716 24.4906 31.0433C15.1948 26.702 9.43605 20.0388 11.3796 15.8735C13.3252 11.7082 22.1297 11.8474 31.4277 16.1888C40.7235 20.5301 46.4823 27.1933 44.5388 31.3586C43.5931 33.3847 41.0213 34.3934 37.5582 34.3934ZM18.2884 13.9648C15.3209 13.9648 13.1318 14.7474 12.3861 16.3431C10.76 19.8236 16.5188 26.0954 24.9602 30.039C33.4016 33.9803 41.9083 34.3716 43.5344 30.889C45.1605 27.4085 39.4017 21.1367 30.9603 17.1931C26.3863 15.0583 21.7949 13.9648 18.2884 13.9648Z" fill="#262626"/>
</svg>
