<svg width="60" height="60" viewBox="0 0 60 60" fill="none" xmlns="http://www.w3.org/2000/svg">
<path d="M27.059 47.5548H9.64128C9.33475 47.5548 9.08691 47.307 9.08691 47.0005V5.23893C9.08691 4.9324 9.33475 4.68457 9.64128 4.68457H48.6311C48.9376 4.68457 49.1854 4.9324 49.1854 5.23893V34.0242C49.1854 34.3307 48.9376 34.5785 48.6311 34.5785C48.3245 34.5785 48.0767 34.3307 48.0767 34.0242V5.79328H10.1956V46.4461H27.059C27.3655 46.4461 27.6133 46.6939 27.6133 47.0005C27.6133 47.307 27.3655 47.5548 27.059 47.5548Z" fill="#262626"/>
<path d="M32.0667 12.1678H26.2057C25.8992 12.1678 25.6514 11.92 25.6514 11.6134C25.6514 11.3069 25.8992 11.0591 26.2057 11.0591H32.0667C32.3732 11.0591 32.621 11.3069 32.621 11.6134C32.621 11.92 32.3732 12.1678 32.0667 12.1678Z" fill="#262626"/>
<path d="M42.046 20.0213H16.2282C15.9217 20.0213 15.6738 19.7735 15.6738 19.467C15.6738 19.1604 15.9217 18.9126 16.2282 18.9126H42.046C42.3525 18.9126 42.6004 19.1604 42.6004 19.467C42.6004 19.7735 42.3525 20.0213 42.046 20.0213Z" fill="#262626"/>
<path d="M42.046 25.1024H16.2282C15.9217 25.1024 15.6738 24.8545 15.6738 24.548C15.6738 24.2415 15.9217 23.9937 16.2282 23.9937H42.046C42.3525 23.9937 42.6004 24.2415 42.6004 24.548C42.6004 24.8545 42.3525 25.1024 42.046 25.1024Z" fill="#262626"/>
<path d="M18.4196 37.7328C18.2782 37.7328 18.1369 37.6785 18.0282 37.5698L15.8369 35.3784C15.6195 35.161 15.6195 34.811 15.8369 34.5936C16.0543 34.3762 16.4043 34.3762 16.6217 34.5936L18.4217 36.3937L22.3457 32.4697C22.5631 32.2523 22.9131 32.2523 23.1305 32.4697C23.3479 32.6871 23.3479 33.0371 23.1305 33.2545L18.8152 37.5698C18.7065 37.6785 18.5652 37.7328 18.4239 37.7328H18.4196Z" fill="#262626"/>
<path d="M40.4742 55.3158C34.7176 55.3158 30.0327 50.6331 30.0327 44.8744C30.0327 39.1156 34.7154 34.4351 40.4742 34.4351C46.233 34.4351 50.9135 39.1177 50.9135 44.8744C50.9135 50.631 46.2308 55.3158 40.4742 55.3158ZM40.4742 35.5438C35.3285 35.5438 31.1414 39.7308 31.1414 44.8744C31.1414 50.0179 35.3285 54.2071 40.4742 54.2071C45.6199 54.2071 49.8048 50.0201 49.8048 44.8744C49.8048 39.7286 45.6178 35.5438 40.4742 35.5438Z" fill="#262626"/>
<path d="M42.5545 49.3547C42.4132 49.3547 42.2719 49.3003 42.1632 49.1916L39.7153 46.7438C39.6109 46.6394 39.5522 46.4981 39.5522 46.3525V40.1632C39.5522 39.8567 39.8001 39.6089 40.1066 39.6089C40.4131 39.6089 40.6609 39.8567 40.6609 40.1632V46.1242L42.9479 48.4112C43.1653 48.6286 43.1653 48.9786 42.9479 49.196C42.8392 49.3047 42.698 49.359 42.5567 49.359L42.5545 49.3547Z" fill="#262626"/>
</svg>
