<svg width="60" height="60" viewBox="0 0 60 60" fill="none" xmlns="http://www.w3.org/2000/svg">
<path d="M37.8817 46.958H11.9117C9.11381 46.958 6.83984 44.6818 6.83984 41.8861V11.5791C6.83984 8.78344 9.11598 6.50732 11.9117 6.50732H47.197C49.9949 6.50732 52.2689 8.78344 52.2689 11.5791V40.0013C52.2689 40.3079 52.021 40.5557 51.7145 40.5557C51.408 40.5557 51.1601 40.3079 51.1601 40.0013V11.5791C51.1601 9.39432 49.3819 7.61603 47.197 7.61603H11.9117C9.72686 7.61603 7.94858 9.39432 7.94858 11.5791V41.8861C7.94858 44.071 9.72686 45.8492 11.9117 45.8492H37.8817C38.1882 45.8492 38.436 46.0971 38.436 46.4036C38.436 46.7101 38.1882 46.958 37.8817 46.958Z" fill="#262626"/>
<path d="M51.7167 16.9139H7.39421C7.08768 16.9139 6.83984 16.6661 6.83984 16.3595C6.83984 16.053 7.08768 15.8052 7.39421 15.8052H51.7167C52.0232 15.8052 52.2711 16.053 52.2711 16.3595C52.2711 16.6661 52.0232 16.9139 51.7167 16.9139Z" fill="#262626"/>
<path d="M16.6694 12.8529C16.0389 12.8529 15.5259 12.3399 15.5259 11.7094C15.5259 11.079 16.0389 10.5659 16.6694 10.5659C17.2998 10.5659 17.8129 11.079 17.8129 11.7094C17.8129 12.3399 17.2998 12.8529 16.6694 12.8529ZM16.6694 11.6746C16.6498 11.6746 16.6346 11.6899 16.6346 11.7094C16.6346 11.7464 16.702 11.7464 16.702 11.7094C16.702 11.6899 16.6868 11.6746 16.6672 11.6746H16.6694Z" fill="#262626"/>
<path d="M23.5488 12.8529C22.9183 12.8529 22.4053 12.3399 22.4053 11.7094C22.4053 11.079 22.9183 10.5659 23.5488 10.5659C24.1792 10.5659 24.6923 11.079 24.6923 11.7094C24.6923 12.3399 24.1792 12.8529 23.5488 12.8529ZM23.5488 11.6746C23.5292 11.6746 23.514 11.6899 23.514 11.7094C23.514 11.7464 23.5814 11.7464 23.5814 11.7094C23.5814 11.6899 23.5662 11.6746 23.5466 11.6746H23.5488Z" fill="#262626"/>
<path d="M30.175 24.8382H13.8161C13.5096 24.8382 13.2617 24.5904 13.2617 24.2839C13.2617 23.9773 13.5096 23.7295 13.8161 23.7295H30.175C30.4816 23.7295 30.7294 23.9773 30.7294 24.2839C30.7294 24.5904 30.4816 24.8382 30.175 24.8382Z" fill="#262626"/>
<path d="M30.2533 33.6512H13.8161C13.5096 33.6512 13.2617 33.4034 13.2617 33.0968C13.2617 32.7903 13.5096 32.5425 13.8161 32.5425H30.2533C30.5599 32.5425 30.8076 32.7903 30.8076 33.0968C30.8076 33.4034 30.5599 33.6512 30.2533 33.6512Z" fill="#262626"/>
<path d="M44.1316 50.2925C43.9403 50.2925 43.7534 50.1925 43.6512 50.0142L33.6097 32.4966C33.4576 32.2313 33.5489 31.8922 33.8141 31.74L40.4555 27.9335C40.5838 27.8595 40.7359 27.84 40.8772 27.8791C41.0185 27.9182 41.1403 28.0117 41.212 28.1378L51.2535 45.6555C51.3274 45.7837 51.347 45.9337 51.3078 46.0772C51.2687 46.2185 51.1752 46.3403 51.0492 46.4142L44.4077 50.2208C44.3208 50.2708 44.2251 50.2947 44.1316 50.2947V50.2925ZM34.8467 32.427L44.336 48.9838L50.0165 45.7294L40.5273 29.1726L34.8467 32.4292V32.427Z" fill="#262626"/>
<path d="M45.9639 53.4908C45.916 53.4908 45.866 53.4843 45.8182 53.4712C45.6769 53.4321 45.5551 53.3386 45.4834 53.2125L43.6508 50.0147C43.4986 49.7494 43.5899 49.4103 43.8551 49.2581L50.4965 45.4515C50.7617 45.2994 51.1009 45.3907 51.2531 45.6559L53.0857 48.8538C53.1596 48.982 53.1792 49.132 53.1401 49.2755C53.1009 49.4168 53.0074 49.5386 52.8813 49.6125L46.24 53.4191C46.1552 53.4669 46.0595 53.493 45.9639 53.493V53.4908ZM44.8877 49.9451L46.1682 52.1799L51.8487 48.9233L50.5683 46.6885L44.8877 49.9429V49.9451Z" fill="#262626"/>
<path d="M34.0897 32.7753C33.9963 32.7753 33.9006 32.7514 33.8158 32.7035C33.6463 32.6079 33.5397 32.4274 33.5354 32.2318L33.3854 24.273C33.381 24.0708 33.4876 23.8816 33.6637 23.7816C33.8397 23.6816 34.055 23.6838 34.2289 23.7903L41.0203 27.9426C41.1877 28.0448 41.2877 28.2274 41.2855 28.423C41.2834 28.6187 41.1768 28.7991 41.0073 28.8969L34.3658 32.7035C34.2811 32.7514 34.1854 32.7774 34.0897 32.7774V32.7753ZM34.5136 25.2621L34.6267 31.2752L39.6442 28.3991L34.5136 25.2621Z" fill="#262626"/>
</svg>
