<svg width="60" height="60" viewBox="0 0 60 60" fill="none" xmlns="http://www.w3.org/2000/svg">
<path d="M47.8593 46.7754H35.7395C35.433 46.7754 35.1851 46.5275 35.1851 46.221C35.1851 45.9145 35.433 45.6666 35.7395 45.6666H47.8593C50.0506 45.6666 51.8332 43.884 51.8332 41.6927V13.7292C51.8332 11.5378 50.0506 9.7552 47.8593 9.7552H12.1413C9.94992 9.7552 8.16733 11.5378 8.16733 13.7292V41.6948C8.16733 43.8862 9.94992 45.6688 12.1413 45.6688H12.6804C12.9869 45.6688 13.2348 45.9166 13.2348 46.2232C13.2348 46.5297 12.9869 46.7775 12.6804 46.7775H12.1413C9.33904 46.7775 7.05859 44.4971 7.05859 41.6948V13.7292C7.05859 10.927 9.33904 8.64648 12.1413 8.64648H47.8593C50.6615 8.64648 52.942 10.927 52.942 13.7292V41.6948C52.942 44.4971 50.6615 46.7775 47.8593 46.7775V46.7754Z" fill="#262626"/>
<path d="M26.9757 36.6863C23.9191 36.6863 21.4321 34.1993 21.4321 31.1427C21.4321 28.0861 23.9191 25.5991 26.9757 25.5991C30.0323 25.5991 32.5193 28.0861 32.5193 31.1427C32.5193 34.1993 30.0323 36.6863 26.9757 36.6863ZM26.9757 26.7078C24.53 26.7078 22.5408 28.697 22.5408 31.1427C22.5408 33.5884 24.53 35.5775 26.9757 35.5775C29.4214 35.5775 31.4105 33.5884 31.4105 31.1427C31.4105 28.697 29.4214 26.7078 26.9757 26.7078Z" fill="#262626"/>
<path d="M31.9675 51.3529C31.661 51.3529 31.4131 51.1051 31.4131 50.7985V44.2397C31.4131 44.0745 31.4871 43.9158 31.6153 43.8115L36.9023 39.4831L42.322 35.0809C42.6633 34.8026 42.859 34.3896 42.859 33.9461C42.859 33.6157 42.7438 33.2874 42.5307 33.0243C42.0264 32.4026 41.109 32.3091 40.4829 32.8156L31.2218 40.3397C31.124 40.4201 31.0001 40.4636 30.8719 40.4636H20.8064C18.7107 40.4636 17.0042 42.168 17.0042 44.2615V50.7964C17.0042 51.1029 16.7565 51.3507 16.4499 51.3507C16.1434 51.3507 15.8955 51.1029 15.8955 50.7964V44.2615C15.8955 41.5571 18.0977 39.3549 20.8064 39.3549H30.674L39.7828 31.9548C40.8828 31.0634 42.5003 31.2308 43.3916 32.3265C43.7612 32.7874 43.9655 33.3613 43.9655 33.9439C43.9655 34.72 43.622 35.4461 43.0199 35.9374L37.6024 40.3375L32.5197 44.4984V50.7964C32.5197 51.1029 32.2718 51.3507 31.9653 51.3507L31.9675 51.3529Z" fill="#262626"/>
<path d="M20.4606 51.354C20.154 51.354 19.9062 51.1062 19.9062 50.7997V47.654C19.9062 47.3474 20.154 47.0996 20.4606 47.0996C20.7671 47.0996 21.015 47.3474 21.015 47.654V50.7997C21.015 51.1062 20.7671 51.354 20.4606 51.354Z" fill="#262626"/>
<path d="M36.921 15.1312H23.0773C22.7707 15.1312 22.5229 14.8833 22.5229 14.5768C22.5229 14.2703 22.7707 14.0225 23.0773 14.0225H36.921C37.2275 14.0225 37.4753 14.2703 37.4753 14.5768C37.4753 14.8833 37.2275 15.1312 36.921 15.1312Z" fill="#262626"/>
<path d="M47.4562 20.8026H12.5426C12.2361 20.8026 11.9883 20.5547 11.9883 20.2482C11.9883 19.9417 12.2361 19.6938 12.5426 19.6938H47.4562C47.7627 19.6938 48.0105 19.9417 48.0105 20.2482C48.0105 20.5547 47.7627 20.8026 47.4562 20.8026Z" fill="#262626"/>
<path d="M47.4566 25.7806H33.8064C33.4998 25.7806 33.252 25.5328 33.252 25.2262C33.252 24.9197 33.4998 24.6719 33.8064 24.6719H47.4566C47.7631 24.6719 48.0109 24.9197 48.0109 25.2262C48.0109 25.5328 47.7631 25.7806 47.4566 25.7806Z" fill="#262626"/>
<path d="M20.1479 25.7806H12.5455C12.239 25.7806 11.9912 25.5328 11.9912 25.2262C11.9912 24.9197 12.239 24.6719 12.5455 24.6719H20.1479C20.4544 24.6719 20.7022 24.9197 20.7022 25.2262C20.7022 25.5328 20.4544 25.7806 20.1479 25.7806Z" fill="#262626"/>
</svg>
