<svg width="60" height="60" viewBox="0 0 60 60" fill="none" xmlns="http://www.w3.org/2000/svg">
<path d="M33.0963 41.7563H25.8026C24.3213 41.7563 23.1026 42.9563 23.1213 44.4376V51.7313C23.1213 53.2126 24.3213 54.4126 25.8026 54.4126H26.2677C26.8912 55.5205 28.0782 56.2688 29.4401 56.2688C30.8019 56.2688 31.9887 55.5205 32.6122 54.4126H33.0963C34.5776 54.4126 35.7776 53.2126 35.7776 51.7313V44.4376C35.7776 42.9563 34.5776 41.7563 33.0963 41.7563Z" fill="#9B9B9B"/>
<path d="M34.0521 43.3687C34.5021 43.3687 34.8583 43.0312 34.8958 42.6C35.0271 40.9875 35.7208 37.0688 39.5083 32.8688C43.0521 30.075 45.3958 25.8375 45.6771 21.0375C45.7146 20.5875 45.7333 20.2875 45.7333 20.1V20.0812V20.0625C45.7333 19.9688 45.7333 19.9125 45.7333 19.9125C45.6208 10.95 38.3646 3.75 29.4208 3.75C20.4771 3.75 13.2208 10.95 13.1271 19.875C13.1271 19.875 13.1083 20.325 13.1833 21.075C13.4833 25.8375 15.8083 30.0563 19.3521 32.85C23.1396 37.0688 23.8896 40.9875 24.0208 42.6C24.0583 43.0312 24.4146 43.3687 24.8646 43.3687H34.0521Z" fill="#FCD53F"/>
<path d="M29.4396 20.0625C32.4771 20.0625 34.9521 22.5187 34.9896 25.5562V25.7062C34.9896 25.7625 34.9896 25.8375 34.9709 25.95C34.8771 27.525 34.1084 29.0062 32.8709 29.9812L32.7396 30.075L32.6271 30.1875C30.5646 32.475 30.1334 38.2875 30.0584 41.475H28.8396C28.7459 38.2875 28.2959 32.475 26.2334 30.1875L26.1209 30.075L25.9896 29.9812C24.7521 29.0062 23.9834 27.5437 23.8896 25.9125C23.8896 25.8375 23.8709 25.7812 23.8709 25.7437V25.575C23.9271 22.5375 26.4209 20.0625 29.4396 20.0625ZM29.4396 18.1874C25.3709 18.1874 22.0521 21.4687 22.0146 25.5375C22.0146 25.5375 22.0146 25.7437 22.0334 26.0812C22.1646 28.2562 23.2334 30.1687 24.8459 31.4437C27.0959 33.9562 26.9834 43.3687 26.9834 43.3687H31.9334C31.9334 43.3687 31.7834 33.9562 34.0521 31.4625C35.6646 30.1875 36.7334 28.2562 36.8646 26.0625C36.8834 25.8562 36.8834 25.725 36.8834 25.6312C36.8834 25.5937 36.8834 25.5562 36.8834 25.5562C36.8271 21.4687 33.5271 18.1874 29.4396 18.1874Z" fill="#FFB02E"/>
<path d="M35.9381 46.9735C36.4481 46.8842 36.7892 46.3984 36.6999 45.8884C36.6105 45.3784 36.1247 45.0374 35.6147 45.1266L22.9772 47.3391C22.4672 47.4284 22.1261 47.9142 22.2154 48.4242C22.3048 48.9344 22.7906 49.2752 23.3006 49.186L35.9381 46.9735ZM35.8451 51.0047C36.3549 50.9149 36.6956 50.4289 36.606 49.9189C36.5162 49.4089 36.0302 49.0684 35.5202 49.1581L23.0514 51.3518C22.5414 51.4416 22.2007 51.9276 22.2905 52.4376C22.3802 52.9474 22.8664 53.2881 23.3764 53.1985L35.8451 51.0047Z" fill="#D3D3D3"/>
<path d="M25.8592 10.1999C23.778 13.7999 24.828 18.2999 28.203 20.2312C31.578 22.1625 35.9842 20.8312 38.0655 17.2312C40.1467 13.6312 39.0967 9.13116 35.7217 7.19991C32.3467 5.26866 27.9405 6.59991 25.8592 10.1999Z" fill="#FFF478"/>
</svg>
