<svg width="60" height="60" viewBox="0 0 60 60" fill="none" xmlns="http://www.w3.org/2000/svg">
<path d="M19.9748 41.8572C19.9009 41.8572 19.8248 41.842 19.7531 41.8115C19.0357 41.4985 17.7682 40.8724 17.3443 40.1854C17.29 40.0985 17.2617 39.9963 17.2617 39.8941V34.9005C17.2617 34.594 17.5096 34.3462 17.8161 34.3462C18.1226 34.3462 18.3704 34.594 18.3704 34.9005V39.705C18.5791 39.9245 19.1291 40.3311 20.1987 40.7985C20.4792 40.9202 20.6074 41.2485 20.4857 41.5289C20.3944 41.7376 20.19 41.8615 19.977 41.8615L19.9748 41.8572Z" fill="#262626"/>
<path d="M3.56558 31.7745C3.25906 31.7745 3.01123 31.5267 3.01123 31.2202V17.2243C3.01123 16.9177 3.25906 16.6699 3.56558 16.6699C3.87211 16.6699 4.11995 16.9177 4.11995 17.2243V31.2202C4.11995 31.5267 3.87211 31.7745 3.56558 31.7745Z" fill="#262626"/>
<path d="M3.56581 36.5574C1.94187 36.5574 0.620117 35.2357 0.620117 33.6117C0.620117 31.9878 1.94187 30.666 3.56581 30.666C5.18975 30.666 6.51152 31.9878 6.51152 33.6117C6.51152 35.2357 5.18975 36.5574 3.56581 36.5574ZM3.56581 31.7747C2.55275 31.7747 1.72884 32.5987 1.72884 33.6117C1.72884 34.6248 2.55275 35.4487 3.56581 35.4487C4.57887 35.4487 5.40282 34.6248 5.40282 33.6117C5.40282 32.5987 4.57887 31.7747 3.56581 31.7747Z" fill="#262626"/>
<path d="M48.4748 51.407C48.3334 51.407 48.1921 51.3526 48.0834 51.2439L43.7094 46.8699L41.8529 50.3417C41.7485 50.5352 41.542 50.6482 41.3225 50.633C41.1029 50.6156 40.9159 50.4722 40.842 50.2656L35.6876 35.7002C35.6158 35.498 35.668 35.2741 35.818 35.1241C35.968 34.9719 36.1941 34.9219 36.3941 34.9937L50.9596 40.1481C51.1661 40.222 51.3118 40.409 51.327 40.6285C51.3444 40.8481 51.2291 41.0546 51.0356 41.159L47.4899 43.0546L51.8813 47.446C51.9857 47.5504 52.0444 47.6917 52.0444 47.8373C52.0444 47.983 51.9857 48.1243 51.8813 48.2286L48.8682 51.2417C48.7595 51.3504 48.6182 51.4048 48.4769 51.4048L48.4748 51.407ZM43.5703 45.3938C43.716 45.3938 43.8573 45.4503 43.9616 45.5569L48.4726 50.0678L50.7009 47.8395L46.1725 43.3112C46.0486 43.1873 45.9899 43.0112 46.016 42.8373C46.0421 42.6633 46.1486 42.5133 46.303 42.4286L49.4008 40.772L37.1159 36.4241L41.4638 48.7091L43.0812 45.6851C43.1638 45.5308 43.316 45.4243 43.4899 45.3982C43.516 45.3938 43.5442 45.3916 43.5703 45.3916V45.3938Z" fill="#262626"/>
<path d="M45.5617 35.5461C45.2552 35.5461 45.0073 35.2983 45.0073 34.9918V21.8263C45.0073 21.5198 45.2552 21.272 45.5617 21.272C45.8682 21.272 46.116 21.5198 46.116 21.8263V34.9918C46.116 35.2983 45.8682 35.5461 45.5617 35.5461Z" fill="#262626"/>
<path d="M30.057 47.1463C20.9025 47.1463 13.998 44.1897 13.998 40.2679V21.4176C13.998 21.1111 14.2459 20.8633 14.5524 20.8633C14.8589 20.8633 15.1068 21.1111 15.1068 21.4176V40.2679C15.1068 43.1049 20.6982 46.0376 30.057 46.0376C32.1288 46.0376 34.0636 45.8485 35.9723 45.4615C36.2723 45.4028 36.5658 45.5941 36.6267 45.8941C36.6876 46.1941 36.4941 46.4876 36.1941 46.5485C34.2114 46.9507 32.2049 47.1463 30.057 47.1463Z" fill="#262626"/>
<path d="M30.0576 27.6635C29.9923 27.6635 29.9271 27.6526 29.8662 27.6287L8.58114 19.8133C8.29418 19.7068 8.14635 19.3894 8.25287 19.1025C8.35939 18.8155 8.67679 18.6677 8.96376 18.7742L30.0641 26.5222L56.9645 17.2785L30.0641 9.72405L3.7267 17.7546C3.43321 17.8437 3.12451 17.6785 3.03538 17.3872C2.94625 17.0937 3.11147 16.785 3.40496 16.6959L29.8967 8.61751C29.9989 8.58708 30.1054 8.58491 30.2076 8.61317L58.9754 16.6916C59.208 16.7568 59.3732 16.9676 59.3798 17.209C59.3863 17.4524 59.2363 17.6698 59.0058 17.7481L30.238 27.633C30.1793 27.6526 30.1184 27.6635 30.0576 27.6635Z" fill="#262626"/>
</svg>
