<svg width="60" height="60" viewBox="0 0 60 60" fill="none" xmlns="http://www.w3.org/2000/svg">
<path d="M29.9979 56.2459C47.4999 56.2459 56.2459 44.4943 56.2459 29.9979C56.2459 15.5016 47.4999 3.75 29.9979 3.75C12.4958 3.75 3.75 15.5016 3.75 29.9979C3.75 44.4943 12.4958 56.2459 29.9979 56.2459Z" fill="#FFB02E"/>
<path d="M18.7495 40.3125V34.5737C18.7495 33.0833 17.5413 31.875 16.0508 31.875C14.4744 31.875 13.2285 33.2214 13.2056 34.7977C13.1683 37.3504 12.8154 40.728 11.2495 41.25C5.62435 43.125 3.74961 51.5625 8.43702 55.3125C12.1871 58.3127 15.937 58.125 18.7495 58.125H23.9319C25.2118 58.125 26.2494 57.0874 26.2494 55.8073C26.2494 54.9294 25.7535 54.1269 24.9684 53.7345L24.3744 53.4375H25.7231C26.5836 53.4375 27.3336 52.8519 27.5423 52.0172L27.6698 51.5064C27.9008 50.5826 27.2019 49.6875 26.2494 49.6875L26.8667 49.3789C27.6375 48.9934 28.1244 48.2055 28.1244 47.3438C28.1244 46.482 27.6375 45.6941 26.8667 45.3086L26.2494 45H29.5307C30.8252 45 31.8744 43.9508 31.8744 42.6562C31.8744 41.3617 30.8252 40.3125 29.5307 40.3125H18.7495Z" fill="#FFB02E"/>
<path d="M19.5356 30.4207C23.891 30.4207 27.4219 26.8901 27.4219 22.5347C27.4219 18.1792 23.891 14.6484 19.5356 14.6484C15.1802 14.6484 11.6494 18.1792 11.6494 22.5347C11.6494 26.8901 15.1802 30.4207 19.5356 30.4207Z" fill="white"/>
<path d="M40.4405 30.5646C44.8355 30.5646 48.3985 27.0017 48.3985 22.6065C48.3985 18.2114 44.8355 14.6484 40.4405 14.6484C36.0453 14.6484 32.4824 18.2114 32.4824 22.6065C32.4824 27.0017 36.0453 30.5646 40.4405 30.5646Z" fill="white"/>
<path d="M18.7495 40.3125V34.5737C18.7495 33.0833 17.5413 31.875 16.0508 31.875C14.4744 31.875 13.2285 33.2214 13.2056 34.7977C13.1683 37.3504 12.8154 40.728 11.2495 41.25C5.62435 43.125 3.74961 51.5625 8.43702 55.3125C12.1871 58.3127 15.937 58.125 18.7495 58.125H23.9319C25.2118 58.125 26.2494 57.0874 26.2494 55.8073C26.2494 54.9294 25.7535 54.1269 24.9684 53.7345L24.3744 53.4375H25.7231C26.5836 53.4375 27.3336 52.8519 27.5423 52.0172L27.6698 51.5064C27.9008 50.5826 27.2019 49.6875 26.2494 49.6875L26.8667 49.3789C27.6375 48.9934 28.1244 48.2055 28.1244 47.3438C28.1244 46.482 27.6375 45.6941 26.8667 45.3086L26.2494 45H29.5307C30.8252 45 31.8744 43.9508 31.8744 42.6562C31.8744 41.3617 30.8252 40.3125 29.5307 40.3125H18.7495Z" fill="#FF822D"/>
<path d="M13.3996 7.77459C14.1438 7.03033 16.1814 5.625 18.75 5.625C21.3186 5.625 23.3561 7.03033 24.1005 7.77459C24.4665 8.14071 24.4665 8.73429 24.1005 9.10041C23.7343 9.46654 23.1407 9.46654 22.7745 9.10041C22.2688 8.59466 20.6814 7.5 18.75 7.5C16.8186 7.5 15.2312 8.59466 14.7254 9.10041C14.3593 9.46654 13.7657 9.46654 13.3996 9.10041C13.0335 8.73429 13.0335 8.14071 13.3996 7.77459Z" fill="#402A32"/>
<path d="M34.0873 15.2173C34.9699 14.4819 37.3506 13.125 40.3125 13.125C43.2744 13.125 45.6551 14.4819 46.5377 15.2173C46.9354 15.5488 46.9892 16.1399 46.6577 16.5377C46.3262 16.9354 45.735 16.9892 45.3373 16.6577C44.7199 16.1431 42.7506 15 40.3125 15C37.8744 15 35.9051 16.1431 35.2877 16.6577C34.89 16.9892 34.2988 16.9354 33.9673 16.5377C33.6358 16.1399 33.6896 15.5488 34.0873 15.2173Z" fill="#402A32"/>
<path d="M24.375 21.5625C24.375 24.6692 21.8567 27.1875 18.75 27.1875C15.6434 27.1875 13.125 24.6692 13.125 21.5625C13.125 18.4559 15.6434 15.9375 18.75 15.9375C21.8567 15.9375 24.375 18.4559 24.375 21.5625Z" fill="#402A32"/>
<path d="M45 21.5625C45 24.6692 42.4817 27.1875 39.375 27.1875C36.2683 27.1875 33.75 24.6692 33.75 21.5625C33.75 18.4559 36.2683 15.9375 39.375 15.9375C42.4817 15.9375 45 18.4559 45 21.5625Z" fill="#402A32"/>
<path d="M30.1528 35.5983C27.9586 35.2233 26.3662 36.2855 25.7008 36.951C24.9686 37.6831 23.7813 37.6831 23.0491 36.951C22.317 36.2188 22.317 35.0315 23.0491 34.2993C24.2587 33.0898 27.0097 31.2566 30.7846 31.902C34.4653 32.5312 36.3607 34.6325 37.3256 36.7106C37.7617 37.6498 37.3537 38.7646 36.4145 39.2008C35.4753 39.6369 34.3605 39.2289 33.9243 38.2897C33.398 37.1561 32.4412 35.9896 30.1528 35.5983Z" fill="#402A32"/>
</svg>
