<svg width="60" height="60" viewBox="0 0 60 60" fill="none" xmlns="http://www.w3.org/2000/svg">
<path d="M49.5087 45.0051H10.4884C8.91448 45.0051 7.63623 43.7247 7.63623 42.1529V18.3938C7.63623 16.9873 8.68406 15.7764 10.0732 15.572C10.4015 15.5242 10.7102 15.7873 10.7102 16.1199C10.7102 16.4068 10.495 16.6416 10.2146 16.6721C9.36237 16.8068 8.74497 17.5264 8.74497 18.3938V42.1529C8.74497 43.1138 9.52754 43.8964 10.4884 43.8964H49.5087C50.4695 43.8964 51.2521 43.1138 51.2521 42.1529V18.3938C51.2521 17.8699 51.0217 17.3808 50.6173 17.0481C50.3804 16.8525 50.3478 16.5047 50.5434 16.2677C50.7369 16.0307 51.0869 15.9981 51.3239 16.1938C51.9826 16.7373 52.3609 17.5395 52.3609 18.396V42.1551C52.3609 43.729 51.0804 45.0073 49.5087 45.0073V45.0051Z" fill="#262626"/>
<path d="M51.7212 55.2962H8.27703C7.14657 55.2962 6.09439 54.7375 5.46178 53.8027C4.82916 52.8679 4.70088 51.6831 5.12045 50.6352L6.96178 46.033C7.48135 44.7351 8.72051 43.896 10.1184 43.896H49.8821C51.2799 43.896 52.5191 44.7351 53.0386 46.033L54.88 50.6352C55.2995 51.6831 55.1713 52.8679 54.5386 53.8027C53.906 54.7375 52.8538 55.2962 51.7234 55.2962H51.7212ZM10.1184 45.0047C9.17704 45.0047 8.34223 45.5699 7.99223 46.4439L6.1509 51.0461C5.86394 51.7635 5.94874 52.5418 6.38135 53.1809C6.81397 53.8201 7.50528 54.1875 8.2792 54.1875H51.7234C52.4951 54.1875 53.1865 53.8201 53.6212 53.1809C54.0539 52.5418 54.1387 51.7635 53.8517 51.0461L52.0103 46.4439C51.6603 45.5699 50.8256 45.0047 49.8842 45.0047H10.1205H10.1184Z" fill="#262626"/>
<path d="M29.8606 30.4745C26.1692 30.4745 22.4779 29.6767 18.9648 28.0832C18.7669 27.994 18.6387 27.7962 18.6387 27.5788V16.133C18.6387 15.8264 18.8865 15.5786 19.193 15.5786C19.4995 15.5786 19.7474 15.8264 19.7474 16.133V27.2179C26.2822 30.0788 33.4367 30.0788 39.9716 27.2179V16.133C39.9716 15.8264 40.2194 15.5786 40.526 15.5786C40.8325 15.5786 41.0803 15.8264 41.0803 16.133V27.5788C41.0803 27.7962 40.9521 27.994 40.7542 28.0832C37.2411 29.6767 33.5497 30.4745 29.8584 30.4745H29.8606Z" fill="#262626"/>
<path d="M47.2756 20.7697C46.969 20.7697 46.7212 20.5218 46.7212 20.2153V13.0978C46.7212 12.7913 46.969 12.5435 47.2756 12.5435C47.5821 12.5435 47.8299 12.7913 47.8299 13.0978V20.2153C47.8299 20.5218 47.5821 20.7697 47.2756 20.7697Z" fill="#262626"/>
<path d="M29.8578 21.4919C29.7795 21.4919 29.7034 21.4767 29.6295 21.4441L12.2118 13.6048C12.014 13.5157 11.8857 13.3179 11.8857 13.0983C11.8857 12.8787 12.014 12.6831 12.2118 12.5918L29.6295 4.75253C29.7751 4.68731 29.9404 4.68731 30.0839 4.75253L47.5015 12.5918C47.6993 12.6809 47.8276 12.8787 47.8276 13.0983C47.8276 13.3179 47.6993 13.5135 47.5015 13.6048L30.0839 21.4441C30.0121 21.4767 29.9338 21.4919 29.8556 21.4919H29.8578ZM13.7901 13.0983L29.8578 20.331L45.9254 13.0983L29.8578 5.86559L13.7901 13.0983Z" fill="#262626"/>
</svg>
