<svg width="60" height="60" viewBox="0 0 60 60" fill="none" xmlns="http://www.w3.org/2000/svg">
<path d="M29.9996 52.8434C17.4038 52.8434 7.15576 42.5955 7.15576 29.9996C7.15576 17.4038 17.4038 7.15576 29.9996 7.15576C42.5955 7.15576 52.8435 17.4038 52.8435 29.9996C52.8435 42.5955 42.5955 52.8434 29.9996 52.8434ZM29.9996 8.26229C18.0146 8.26229 8.26448 18.0125 8.26448 29.9974C8.26448 41.9824 18.0146 51.7326 29.9996 51.7326C41.9846 51.7326 51.7347 41.9824 51.7347 29.9974C51.7347 18.0125 41.9846 8.26229 29.9996 8.26229Z" fill="#262626"/>
<path d="M30.0001 52.8434C24.8478 52.8434 20.813 42.8085 20.813 29.9996C20.813 17.1907 24.8478 7.15576 30.0001 7.15576C35.1523 7.15576 39.1872 17.1907 39.1872 29.9996C39.1872 42.8085 35.1523 52.8434 30.0001 52.8434ZM30.0001 8.26229C25.6218 8.26229 21.9217 18.2168 21.9217 29.9974C21.9217 41.7781 25.6218 51.7326 30.0001 51.7326C34.3784 51.7326 38.0785 41.7781 38.0785 29.9974C38.0785 18.2168 34.3784 8.26229 30.0001 8.26229Z" fill="#262626"/>
<path d="M52.2891 30.554H7.71012C7.4036 30.554 7.15576 30.3062 7.15576 29.9997C7.15576 29.6932 7.4036 29.4453 7.71012 29.4453H52.2891C52.5956 29.4453 52.8435 29.6932 52.8435 29.9997C52.8435 30.3062 52.5956 30.554 52.2891 30.554Z" fill="#262626"/>
<path d="M30.0002 20.2696C23.9023 20.2696 18.1066 18.6 13.2391 15.4391C12.9826 15.2717 12.9086 14.9282 13.076 14.6717C13.2434 14.4152 13.5869 14.3413 13.8434 14.5087C18.5326 17.5522 24.1197 19.1609 30.0024 19.1609C35.8851 19.1609 41.4721 17.5522 46.1635 14.5087C46.42 14.3413 46.7635 14.4152 46.9309 14.6717C47.0983 14.9282 47.0244 15.2717 46.7679 15.4391C41.8961 18.5978 36.0981 20.2696 30.0024 20.2696H30.0002Z" fill="#262626"/>
<path d="M46.4628 45.5786C46.3584 45.5786 46.2541 45.5503 46.1606 45.4895C41.4692 42.446 35.88 40.8372 29.9995 40.8372C24.1189 40.8372 18.5297 42.446 13.8405 45.4895C13.584 45.6569 13.2405 45.583 13.0731 45.3264C12.9057 45.0699 12.9796 44.7264 13.2362 44.559C18.1036 41.4003 23.9015 39.7285 29.9973 39.7285C36.093 39.7285 41.891 41.3981 46.7628 44.559C47.0193 44.7264 47.0932 45.0699 46.9258 45.3264C46.8193 45.4895 46.641 45.5786 46.4606 45.5786H46.4628Z" fill="#262626"/>
</svg>
