<svg width="60" height="60" viewBox="0 0 60 60" fill="none" xmlns="http://www.w3.org/2000/svg">
<path d="M30.1973 36.7137C29.8908 36.7137 29.6429 36.4659 29.6429 36.1594V33.1419H9.72082C9.41429 33.1419 9.1665 32.8941 9.1665 32.5875C9.1665 32.281 9.41429 32.0332 9.72082 32.0332H30.1973C30.5039 32.0332 30.7516 32.281 30.7516 32.5875V36.1594C30.7516 36.4659 30.5039 36.7137 30.1973 36.7137Z" fill="#262626"/>
<path d="M47.3673 28.3979H12.6319C10.721 28.3979 9.16455 26.8435 9.16455 24.9304V8.32145C9.16455 6.41055 10.7189 4.854 12.6319 4.854H47.3673C49.2782 4.854 50.8347 6.40838 50.8347 8.32145V24.9304C50.8347 26.8413 49.2804 28.3979 47.3673 28.3979ZM12.6319 5.9649C11.3319 5.9649 10.2732 7.02361 10.2732 8.32363V24.9326C10.2732 26.2326 11.3319 27.2913 12.6319 27.2913H47.3673C48.6674 27.2913 49.726 26.2326 49.726 24.9326V8.32363C49.726 7.02361 48.6674 5.9649 47.3673 5.9649H12.6319Z" fill="#262626"/>
<path d="M44.6692 11.7037H44.6649L41.7605 11.6776C41.454 11.6754 41.2083 11.4254 41.2105 11.1188C41.2126 10.8145 41.4605 10.5688 41.7649 10.5688H41.7692L44.6736 10.5949C44.9801 10.5971 45.2257 10.8471 45.2236 11.1536C45.2214 11.458 44.9736 11.7037 44.6692 11.7037Z" fill="#262626"/>
<path d="M38.0692 11.6499H38.0648L35.1603 11.6239C34.8538 11.6217 34.6082 11.3717 34.6104 11.0651C34.6125 10.7608 34.8603 10.5151 35.1647 10.5151H35.169L38.0735 10.5412C38.38 10.5434 38.6256 10.7934 38.6235 11.0999C38.6213 11.4043 38.3735 11.6499 38.0692 11.6499Z" fill="#262626"/>
<path d="M31.4694 11.5888H31.4651L28.5607 11.5671C28.2542 11.5649 28.0086 11.3149 28.0108 11.0083C28.0129 10.7018 28.2585 10.4475 28.5694 10.4583L31.4738 10.4801C31.7803 10.4823 32.026 10.7323 32.0239 11.0388C32.0217 11.3431 31.7738 11.5888 31.4694 11.5888Z" fill="#262626"/>
<path d="M24.869 11.5347H24.8646L21.9602 11.5086C21.6537 11.5064 21.408 11.2564 21.4102 10.9499C21.4123 10.6456 21.6602 10.3999 21.9646 10.3999H21.9689L24.8733 10.426C25.1798 10.4282 25.4255 10.6782 25.4234 10.9847C25.4212 11.289 25.1733 11.5347 24.869 11.5347Z" fill="#262626"/>
<path d="M18.2668 11.4781H18.2624L15.3581 11.452C15.0516 11.4498 14.8059 11.1998 14.8081 10.8933C14.8103 10.5889 15.0581 10.3433 15.3624 10.3433H15.3668L18.2712 10.3693C18.5777 10.3715 18.8234 10.6215 18.8212 10.9281C18.819 11.2324 18.5712 11.4781 18.2668 11.4781Z" fill="#262626"/>
<path d="M18.2668 17.1851H18.2624L15.3581 17.159C15.0516 17.1568 14.8059 16.9068 14.8081 16.6003C14.8103 16.2959 15.0581 16.0503 15.3624 16.0503H15.3668L18.2712 16.0764C18.5777 16.0786 18.8234 16.3285 18.8212 16.6351C18.819 16.9394 18.5712 17.1851 18.2668 17.1851Z" fill="#262626"/>
<path d="M24.869 17.2412H24.8646L21.9602 17.2152C21.6537 17.213 21.408 16.963 21.4102 16.6564C21.4123 16.3521 21.6602 16.1064 21.9646 16.1064H21.9689L24.8733 16.1325C25.1798 16.1347 25.4255 16.3847 25.4234 16.6912C25.4212 16.9956 25.1733 17.2412 24.869 17.2412Z" fill="#262626"/>
<path d="M31.4694 17.295H31.4651L28.5607 17.2733C28.2542 17.2711 28.0086 17.0211 28.0108 16.7146C28.0129 16.4102 28.2607 16.1646 28.5651 16.1646H28.5694L31.4738 16.1863C31.7803 16.1885 32.026 16.4385 32.0239 16.745C32.0217 17.0494 31.7738 17.295 31.4694 17.295Z" fill="#262626"/>
<path d="M38.0692 17.3545H38.0648L35.1603 17.3285C34.8538 17.3263 34.6082 17.0763 34.6104 16.7697C34.6125 16.4654 34.8603 16.2197 35.1647 16.2197H35.169L38.0735 16.2458C38.38 16.248 38.6256 16.498 38.6235 16.8045C38.6213 17.1089 38.3735 17.3545 38.0692 17.3545Z" fill="#262626"/>
<path d="M44.6692 17.4107H44.6649L41.7605 17.3846C41.454 17.3824 41.2083 17.1324 41.2105 16.8259C41.2126 16.5215 41.4605 16.2759 41.7649 16.2759H41.7692L44.6736 16.302C44.9801 16.3041 45.2257 16.5542 45.2236 16.8607C45.2214 17.165 44.9736 17.4107 44.6692 17.4107Z" fill="#262626"/>
<path d="M44.6692 23.1133H44.6649L41.7605 23.0872C41.454 23.085 41.2083 22.835 41.2105 22.5285C41.2126 22.2242 41.4605 21.9785 41.7649 21.9785H41.7692L44.6736 22.0046C44.9801 22.0068 45.2257 22.2568 45.2236 22.5633C45.2214 22.8676 44.9736 23.1133 44.6692 23.1133Z" fill="#262626"/>
<path d="M38.0236 23.0239H38.0192L21.9602 22.9174C21.6537 22.9174 21.408 22.6652 21.4102 22.3587C21.4102 22.0521 21.6646 21.7891 21.9689 21.8086L38.0279 21.9152C38.3344 21.9152 38.5801 22.1673 38.5779 22.4739C38.5757 22.7782 38.3279 23.0239 38.0236 23.0239Z" fill="#262626"/>
<path d="M18.2668 22.8867H18.2624L15.3581 22.8607C15.0516 22.8585 14.8059 22.6085 14.8081 22.302C14.8103 21.9976 15.0581 21.752 15.3624 21.752H15.3668L18.2712 21.778C18.5777 21.7802 18.8234 22.0302 18.8212 22.3367C18.819 22.6411 18.5712 22.8867 18.2668 22.8867Z" fill="#262626"/>
<path d="M31.2174 55.146H29.1781C26.4259 55.146 24.189 52.9068 24.189 50.1568V43.998C24.189 41.2479 26.4259 39.0088 29.1781 39.0088H31.2174C33.9696 39.0088 36.2065 41.2479 36.2065 43.998V50.1568C36.2065 52.9068 33.9696 55.146 31.2174 55.146ZM29.1781 40.1175C27.0389 40.1175 25.2977 41.8588 25.2977 43.998V50.1568C25.2977 52.296 27.0389 54.0373 29.1781 54.0373H31.2174C33.3565 54.0373 35.0979 52.296 35.0979 50.1568V43.998C35.0979 41.8588 33.3565 40.1175 31.2174 40.1175H29.1781Z" fill="#262626"/>
<path d="M30.1975 44.7223C29.891 44.7223 29.6431 44.4745 29.6431 44.168V43.0593C29.6431 42.7527 29.891 42.5049 30.1975 42.5049C30.504 42.5049 30.7518 42.7527 30.7518 43.0593V44.168C30.7518 44.4745 30.504 44.7223 30.1975 44.7223Z" fill="#262626"/>
</svg>
