<svg width="60" height="60" viewBox="0 0 60 60" fill="none" xmlns="http://www.w3.org/2000/svg">
<path d="M48.4687 40.0838H33.4119C33.1054 40.0838 32.8576 39.836 32.8576 39.5295C32.8576 39.223 33.1054 38.9751 33.4119 38.9751H48.4687C50.6079 38.9751 52.3492 37.2338 52.3492 35.0946V11.5312C52.3492 9.39204 50.6079 7.6507 48.4687 7.6507H18.7182C16.7747 7.6507 15.1225 9.10073 14.8747 11.0268C14.8356 11.3312 14.5551 11.5443 14.2529 11.5051C13.9486 11.466 13.7355 11.1877 13.7747 10.8834C14.0964 8.40941 16.2203 6.54199 18.7182 6.54199H48.4687C51.2187 6.54199 53.4579 8.78116 53.4579 11.5312V35.0946C53.4579 37.8447 51.2187 40.0838 48.4687 40.0838Z" fill="#262626"/>
<path d="M29.7158 43.8034H7.09587C6.78934 43.8034 6.5415 43.5555 6.5415 43.249V38.9533C6.5415 38.6467 6.78934 38.3989 7.09587 38.3989H29.7158C30.0223 38.3989 30.2701 38.6467 30.2701 38.9533V43.249C30.2701 43.5555 30.0223 43.8034 29.7158 43.8034ZM7.64806 42.6946H29.1593V39.5076H7.64806V42.6946Z" fill="#262626"/>
<path d="M26.866 53.4575C26.5595 53.4575 26.3116 53.2097 26.3116 52.9032V43.803H10.4983V52.9032C10.4983 53.2097 10.2505 53.4575 9.94396 53.4575C9.63744 53.4575 9.38965 53.2097 9.38965 52.9032V43.2487C9.38965 42.9422 9.63744 42.6943 9.94396 42.6943H26.866C27.1725 42.6943 27.4204 42.9422 27.4204 43.2487V52.9032C27.4204 53.2097 27.1725 53.4575 26.866 53.4575Z" fill="#262626"/>
<path d="M25.7709 35.8121C25.4643 35.8121 25.2165 35.5643 25.2165 35.2578V29.8381C25.2165 29.5316 25.4643 29.2838 25.7709 29.2838H33.9014C34.8862 29.2838 35.6884 28.4816 35.6884 27.4968C35.6884 26.512 34.8862 25.7098 33.9014 25.7098H15.7772C13.4337 25.7098 11.5271 27.6163 11.5271 29.9599V35.2578C11.5271 35.5643 11.2793 35.8121 10.9728 35.8121C10.6662 35.8121 10.4185 35.5643 10.4185 35.2578V29.9599C10.4185 27.0055 12.8228 24.6011 15.7772 24.6011H33.9014C35.4971 24.6011 36.7971 25.8989 36.7971 27.4968C36.7971 29.0946 35.4993 30.3925 33.9014 30.3925H26.3252V35.2578C26.3252 35.5643 26.0774 35.8121 25.7709 35.8121Z" fill="#262626"/>
<path d="M18.3706 22.2035C15.8205 22.2035 13.7466 20.1296 13.7466 17.5796C13.7466 15.0295 15.8205 12.9556 18.3706 12.9556C20.9206 12.9556 22.9946 15.0295 22.9946 17.5796C22.9946 20.1296 20.9206 22.2035 18.3706 22.2035ZM18.3706 14.0643C16.4314 14.0643 14.8553 15.6404 14.8553 17.5796C14.8553 19.5187 16.4314 21.0948 18.3706 21.0948C20.3097 21.0948 21.8859 19.5187 21.8859 17.5796C21.8859 15.6404 20.3097 14.0643 18.3706 14.0643Z" fill="#262626"/>
</svg>
