<svg width="60" height="60" viewBox="0 0 60 60" fill="none" xmlns="http://www.w3.org/2000/svg">
<path d="M45.3914 53.7819H6.75162C6.4451 53.7819 6.19727 53.5341 6.19727 53.2275V25.2619C6.19727 24.9553 6.4451 24.7075 6.75162 24.7075H11.8343C12.1408 24.7075 12.3887 24.9553 12.3887 25.2619C12.3887 25.5684 12.1408 25.8162 11.8343 25.8162H7.30598V52.6732H44.8392V34.949C44.8392 34.6425 45.087 34.3946 45.3935 34.3946C45.7001 34.3946 45.9479 34.6425 45.9479 34.949V53.2275C45.9479 53.5341 45.7001 53.7819 45.3935 53.7819H45.3914Z" fill="#262626"/>
<path d="M40.3114 50.106C37.0613 50.106 34.3939 49.556 32.2482 49.1147C28.896 48.4234 27.3786 48.1864 26.5677 49.8016C26.4742 49.9886 26.2829 50.1082 26.072 50.1082C25.8612 50.1082 25.6699 49.9908 25.5764 49.8016C24.7655 48.1864 23.2481 48.4234 19.8958 49.1147C17.7523 49.556 15.0827 50.106 11.8327 50.106C11.5262 50.106 11.2783 49.8582 11.2783 49.5516V21.586C11.2783 21.2795 11.5262 21.0316 11.8327 21.0316C14.4218 21.0316 16.598 20.6729 18.385 20.3229C18.6871 20.2642 18.9763 20.4599 19.035 20.7599C19.0937 21.0599 18.898 21.3512 18.598 21.4099C16.8871 21.7447 14.8262 22.0882 12.3849 22.1338V48.9908C15.2762 48.9321 17.698 48.4342 19.6698 48.0277C22.5633 47.432 24.7503 46.9799 26.0699 48.5408C27.3894 46.982 29.5764 47.432 32.47 48.0277C34.4396 48.4342 36.8635 48.9342 39.7549 48.9908V34.9492C39.7549 34.6427 40.0027 34.3949 40.3092 34.3949C40.6157 34.3949 40.8636 34.6427 40.8636 34.9492V49.5516C40.8636 49.8582 40.6157 50.106 40.3092 50.106H40.3114Z" fill="#262626"/>
<path d="M26.0714 45.2453C25.7649 45.2453 25.5171 44.9975 25.5171 44.6909V34.8669C25.5171 34.5603 25.7649 34.3125 26.0714 34.3125C26.378 34.3125 26.6258 34.5603 26.6258 34.8669V44.6909C26.6258 44.9975 26.378 45.2453 26.0714 45.2453Z" fill="#262626"/>
<path d="M31.5589 37.2862C31.4871 37.2862 31.4154 37.2731 31.3458 37.2448C31.1393 37.1601 31.0045 36.9579 31.0045 36.7318V31.5078H27.2805C24.3305 31.5078 21.9326 29.1078 21.9326 26.1599V11.5662C21.9326 8.61613 24.3327 6.21826 27.2805 6.21826H48.4548C51.4048 6.21826 53.8027 8.61831 53.8027 11.5662V26.1599C53.8027 29.1099 51.4027 31.5078 48.4548 31.5078H37.5655L31.9502 37.1231C31.8436 37.2296 31.7023 37.2862 31.5589 37.2862ZM27.2805 7.32698C24.9435 7.32698 23.0413 9.22919 23.0413 11.5662V26.1599C23.0413 28.4969 24.9435 30.3991 27.2805 30.3991H31.5589C31.8654 30.3991 32.1132 30.6469 32.1132 30.9534V35.3927L36.9459 30.5599C37.0502 30.4556 37.1916 30.3969 37.3372 30.3969H48.4548C50.7918 30.3969 52.694 28.4947 52.694 26.1577V11.564C52.694 9.22701 50.7918 7.32481 48.4548 7.32481H27.2805V7.32698Z" fill="#262626"/>
<path d="M36.1562 25.9144C36.1084 25.9144 36.0627 25.9079 36.0149 25.897C35.7193 25.8188 35.5432 25.5166 35.6193 25.2188L37.9345 16.4317C38.0128 16.136 38.315 15.9578 38.6106 16.036C38.9063 16.1143 39.0824 16.4165 39.0063 16.7143L36.691 25.5014C36.6258 25.7492 36.4019 25.9144 36.1562 25.9144Z" fill="#262626"/>
<path d="M39.4088 13.5729C39.361 13.5729 39.3132 13.5663 39.2675 13.5533C38.9719 13.475 38.7958 13.1729 38.8741 12.875L39.0458 12.2207C39.1241 11.925 39.4284 11.7489 39.7241 11.8272C40.0197 11.9054 40.1958 12.2076 40.1176 12.5054L39.9458 13.1598C39.8806 13.4076 39.6567 13.5729 39.411 13.5729H39.4088Z" fill="#262626"/>
</svg>
