<svg width="60" height="60" viewBox="0 0 60 60" fill="none" xmlns="http://www.w3.org/2000/svg">
<path d="M45.8756 51.9729H14.1251C11.2424 51.9729 8.89893 49.4642 8.89893 46.3794V17.8724C8.89893 14.7876 11.2446 12.2788 14.1251 12.2788H16.8577C17.1643 12.2788 17.4121 12.5266 17.4121 12.8332C17.4121 13.1397 17.1643 13.3875 16.8577 13.3875H14.1251C11.8555 13.3875 10.0076 15.3984 10.0076 17.8724V46.3794C10.0076 48.8533 11.8555 50.8642 14.1251 50.8642H45.8756C48.1452 50.8642 49.993 48.8511 49.993 46.3794V17.8724C49.993 15.3984 48.1452 13.3875 45.8756 13.3875H43.1386C42.8321 13.3875 42.5842 13.1397 42.5842 12.8332C42.5842 12.5266 42.8321 12.2788 43.1386 12.2788H45.8756C48.7583 12.2788 51.1018 14.7876 51.1018 17.8724V46.3794C51.1018 49.4642 48.7561 51.9729 45.8756 51.9729Z" fill="#262626"/>
<path d="M35.3509 13.3875H24.6442C24.3377 13.3875 24.0898 13.1397 24.0898 12.8332C24.0898 12.5266 24.3377 12.2788 24.6442 12.2788H35.3509C35.6574 12.2788 35.9052 12.5266 35.9052 12.8332C35.9052 13.1397 35.6574 13.3875 35.3509 13.3875Z" fill="#262626"/>
<path d="M20.7526 16.1705C20.4461 16.1705 20.1982 15.9226 20.1982 15.6161V8.58122C20.1982 8.2747 20.4461 8.02686 20.7526 8.02686C21.0591 8.02686 21.307 8.2747 21.307 8.58122V15.6161C21.307 15.9226 21.0591 16.1705 20.7526 16.1705Z" fill="#262626"/>
<path d="M39.2458 16.1705C38.9392 16.1705 38.6914 15.9226 38.6914 15.6161V8.58122C38.6914 8.2747 38.9392 8.02686 39.2458 8.02686C39.5523 8.02686 39.8001 8.2747 39.8001 8.58122V15.6161C39.8001 15.9226 39.5523 16.1705 39.2458 16.1705Z" fill="#262626"/>
<path d="M46.6531 23.2054H13.3439C13.0374 23.2054 12.7896 22.9576 12.7896 22.651C12.7896 22.3445 13.0374 22.0967 13.3439 22.0967H46.6531C46.9596 22.0967 47.2075 22.3445 47.2075 22.651C47.2075 22.9576 46.9596 23.2054 46.6531 23.2054Z" fill="#262626"/>
<path d="M19.3511 31.9711H15.6032C15.2967 31.9711 15.0488 31.7233 15.0488 31.4167V27.5319C15.0488 27.2254 15.2967 26.9775 15.6032 26.9775C15.9097 26.9775 16.1576 27.2254 16.1576 27.5319V30.8624H19.3511C19.6576 30.8624 19.9054 31.1102 19.9054 31.4167C19.9054 31.7233 19.6576 31.9711 19.3511 31.9711Z" fill="#262626"/>
<path d="M31.872 31.9711H28.1242C27.8176 31.9711 27.5698 31.7233 27.5698 31.4167V27.5319C27.5698 27.2254 27.8176 26.9775 28.1242 26.9775C28.4307 26.9775 28.6785 27.2254 28.6785 27.5319V30.8624H31.872C32.1786 30.8624 32.4264 31.1102 32.4264 31.4167C32.4264 31.7233 32.1786 31.9711 31.872 31.9711Z" fill="#262626"/>
<path d="M44.3916 31.9711H40.6437C40.3372 31.9711 40.0894 31.7233 40.0894 31.4167V27.5319C40.0894 27.2254 40.3372 26.9775 40.6437 26.9775C40.9502 26.9775 41.1981 27.2254 41.1981 27.5319V30.8624H44.3916C44.6981 30.8624 44.9459 31.1102 44.9459 31.4167C44.9459 31.7233 44.6981 31.9711 44.3916 31.9711Z" fill="#262626"/>
<path d="M19.3511 43.7836H15.6032C15.2967 43.7836 15.0488 43.5358 15.0488 43.2292V39.3444C15.0488 39.0379 15.2967 38.79 15.6032 38.79C15.9097 38.79 16.1576 39.0379 16.1576 39.3444V42.6749H19.3511C19.6576 42.6749 19.9054 42.9227 19.9054 43.2292C19.9054 43.5358 19.6576 43.7836 19.3511 43.7836Z" fill="#262626"/>
<path d="M32.8884 44.7298H27.11C26.8035 44.7298 26.5557 44.482 26.5557 44.1755V38.3971C26.5557 38.0906 26.8035 37.8428 27.11 37.8428H32.8884C33.1949 37.8428 33.4427 38.0906 33.4427 38.3971V44.1755C33.4427 44.482 33.1949 44.7298 32.8884 44.7298ZM27.6665 43.6211H32.3362V38.9515H27.6665V43.6211Z" fill="#262626"/>
</svg>
