<svg width="60" height="60" viewBox="0 0 60 60" fill="none" xmlns="http://www.w3.org/2000/svg">
<path d="M37.6394 10.5955C37.3915 10.5955 37.1655 10.4281 37.1024 10.1759C36.6894 8.51719 35.2067 7.35849 33.5002 7.35849H26.5001C24.7935 7.35849 23.3109 8.51719 22.8979 10.1759C22.8239 10.4737 22.5239 10.6542 22.2261 10.5803C21.9283 10.5064 21.7478 10.2064 21.8217 9.90852C22.3587 7.75631 24.2826 6.25195 26.5001 6.25195H33.5002C35.7176 6.25195 37.6416 7.75631 38.1785 9.90852C38.2525 10.2064 38.072 10.5064 37.7742 10.5803C37.7285 10.5911 37.685 10.5977 37.6394 10.5977V10.5955Z" fill="#262626"/>
<path d="M43.0141 53.7484H16.9854C14.3266 53.7484 12.1636 51.5853 12.1636 48.9265V27.5827C12.1636 19.1717 19.0072 12.3281 27.4182 12.3281H32.5813C40.9923 12.3281 47.8359 19.1717 47.8359 27.5827V48.9265C47.8359 51.5853 45.6728 53.7484 43.0141 53.7484ZM27.4182 13.4368C19.6181 13.4368 13.2723 19.7826 13.2723 27.5827V48.9265C13.2723 50.9744 14.9375 52.6397 16.9854 52.6397H43.0141C45.0619 52.6397 46.7272 50.9744 46.7272 48.9265V27.5827C46.7272 19.7826 40.3814 13.4368 32.5813 13.4368H27.4182Z" fill="#262626"/>
<path d="M9.50463 51.227H8.05895C5.98283 51.227 4.2915 49.5378 4.2915 47.4595V34.7963C4.2915 32.718 5.98065 31.0288 8.05895 31.0288H9.50463C11.5829 31.0288 13.2721 32.718 13.2721 34.7963V47.4595C13.2721 49.5378 11.5829 51.227 9.50463 51.227ZM8.05895 32.1397C6.59371 32.1397 5.40021 33.3332 5.40021 34.7984V47.4617C5.40021 48.9269 6.59371 50.1204 8.05895 50.1204H9.50463C10.9699 50.1204 12.1634 48.9269 12.1634 47.4617V34.7984C12.1634 33.3332 10.9699 32.1397 9.50463 32.1397H8.05895Z" fill="#262626"/>
<path d="M51.9407 51.227H50.495C48.4167 51.227 46.7275 49.5378 46.7275 47.4595V34.7963C46.7275 32.718 48.4167 31.0288 50.495 31.0288H51.9407C54.019 31.0288 55.7081 32.718 55.7081 34.7963V47.4595C55.7081 49.5378 54.019 51.227 51.9407 51.227ZM50.495 32.1397C49.0297 32.1397 47.8362 33.3332 47.8362 34.7984V47.4617C47.8362 48.9269 49.0297 50.1204 50.495 50.1204H51.9407C53.4059 50.1204 54.5994 48.9269 54.5994 47.4617V34.7984C54.5994 33.3332 53.4081 32.1397 51.9407 32.1397H50.495Z" fill="#262626"/>
<path d="M37.1774 48.3829H22.6946C19.8075 48.3829 17.4575 46.0329 17.4575 43.1459V35.3805C17.4575 35.074 17.7054 34.8262 18.0119 34.8262H41.8601C42.1666 34.8262 42.4145 35.074 42.4145 35.3805V43.1459C42.4145 46.0329 40.0644 48.3829 37.1774 48.3829ZM18.5662 35.9327V43.1437C18.5662 45.4198 20.4184 47.272 22.6946 47.272H37.1774C39.4535 47.272 41.3057 45.4198 41.3057 43.1437V35.9327H18.5662Z" fill="#262626"/>
<path d="M30.0015 23.9C27.695 23.9 25.8862 22.6413 25.8862 21.0347C25.8862 19.4282 27.695 18.1694 30.0015 18.1694C32.3081 18.1694 34.1168 19.4282 34.1168 21.0347C34.1168 22.6413 32.3081 23.9 30.0015 23.9ZM30.0015 19.276C28.3711 19.276 26.9949 20.0803 26.9949 21.0325C26.9949 21.9847 28.3711 22.7891 30.0015 22.7891C31.632 22.7891 33.0081 21.9847 33.0081 21.0325C33.0081 20.0803 31.632 19.276 30.0015 19.276Z" fill="#262626"/>
</svg>
