<svg width="60" height="60" viewBox="0 0 60 60" fill="none" xmlns="http://www.w3.org/2000/svg">
<path d="M51.2957 53.3251H12.1276C11.9081 53.3251 11.7081 53.1946 11.6189 52.9925C11.5298 52.7903 11.5711 52.5555 11.7189 52.3946L50.887 10.0722C51.0413 9.9048 51.2848 9.84828 51.4957 9.93306C51.7087 10.0157 51.8478 10.22 51.8478 10.4483V52.7707C51.8478 53.0772 51.6 53.3251 51.2935 53.3251H51.2957ZM13.3951 52.2164H50.7413V11.8635L13.3951 52.2164Z" fill="#262626"/>
<path d="M43.0154 45.0444H31.0739C30.8544 45.0444 30.6544 44.914 30.5652 44.7118C30.4761 44.5096 30.5174 44.2748 30.6652 44.114L42.6067 31.2094C42.7611 31.042 43.0024 30.9877 43.2154 31.0703C43.4285 31.1529 43.5676 31.3572 43.5676 31.5855V44.4901C43.5676 44.7966 43.3198 45.0444 43.0133 45.0444H43.0154ZM32.3413 43.9357H42.4611V33.0007L32.3413 43.9357Z" fill="#262626"/>
<path d="M19.5046 53.3251C19.198 53.3251 18.9502 53.0772 18.9502 52.7707V51.1598C18.9502 50.8533 19.198 50.6055 19.5046 50.6055C19.8111 50.6055 20.0589 50.8533 20.0589 51.1598V52.7707C20.0589 53.0772 19.8111 53.3251 19.5046 53.3251Z" fill="#262626"/>
<path d="M23.942 53.3251C23.6355 53.3251 23.3877 53.0772 23.3877 52.7707V51.1598C23.3877 50.8533 23.6355 50.6055 23.942 50.6055C24.2486 50.6055 24.4964 50.8533 24.4964 51.1598V52.7707C24.4964 53.0772 24.2486 53.3251 23.942 53.3251Z" fill="#262626"/>
<path d="M28.3766 53.3251C28.0701 53.3251 27.8223 53.0772 27.8223 52.7707V51.1598C27.8223 50.8533 28.0701 50.6055 28.3766 50.6055C28.6831 50.6055 28.931 50.8533 28.931 51.1598V52.7707C28.931 53.0772 28.6831 53.3251 28.3766 53.3251Z" fill="#262626"/>
<path d="M32.8136 53.3251C32.5071 53.3251 32.2593 53.0772 32.2593 52.7707V51.1598C32.2593 50.8533 32.5071 50.6055 32.8136 50.6055C33.1202 50.6055 33.368 50.8533 33.368 51.1598V52.7707C33.368 53.0772 33.1202 53.3251 32.8136 53.3251Z" fill="#262626"/>
<path d="M37.2482 53.3251C36.9417 53.3251 36.6938 53.0772 36.6938 52.7707V51.1598C36.6938 50.8533 36.9417 50.6055 37.2482 50.6055C37.5547 50.6055 37.8026 50.8533 37.8026 51.1598V52.7707C37.8026 53.0772 37.5547 53.3251 37.2482 53.3251Z" fill="#262626"/>
<path d="M41.6852 53.3251C41.3787 53.3251 41.1309 53.0772 41.1309 52.7707V51.1598C41.1309 50.8533 41.3787 50.6055 41.6852 50.6055C41.9917 50.6055 42.2396 50.8533 42.2396 51.1598V52.7707C42.2396 53.0772 41.9917 53.3251 41.6852 53.3251Z" fill="#262626"/>
<path d="M46.1222 53.3251C45.8157 53.3251 45.5679 53.0772 45.5679 52.7707V51.1598C45.5679 50.8533 45.8157 50.6055 46.1222 50.6055C46.4287 50.6055 46.6766 50.8533 46.6766 51.1598V52.7707C46.6766 53.0772 46.4287 53.3251 46.1222 53.3251Z" fill="#262626"/>
<path d="M18.4843 34.5356C18.3429 34.5356 18.206 34.4813 18.1038 34.3834L9.77979 26.5072C9.55804 26.2963 9.54715 25.9463 9.75803 25.7224L24.5104 10.1308C24.7213 9.90911 25.0713 9.89824 25.2931 10.1091L33.6171 17.9853C33.8388 18.1962 33.8497 18.5462 33.6389 18.7701L18.8864 34.3617C18.7864 34.4682 18.6451 34.5312 18.4995 34.5356C18.4951 34.5356 18.4886 34.5356 18.4843 34.5356ZM10.945 26.0833L18.4625 33.1964L32.454 18.4093L24.9365 11.2961L10.945 26.0811V26.0833Z" fill="#262626"/>
<path d="M33.2375 18.9441C33.1006 18.9441 32.9636 18.8941 32.8571 18.7919L24.5331 10.9157C24.4265 10.8135 24.3635 10.6744 24.3591 10.5287C24.3548 10.3809 24.4091 10.2396 24.5113 10.1331L27.6179 6.85042C27.7179 6.7439 27.8592 6.68085 28.0048 6.67651C28.1592 6.66346 28.294 6.72651 28.4005 6.82868L36.7245 14.7049C36.8311 14.8049 36.8941 14.9462 36.8985 15.0918C36.9028 15.2397 36.8485 15.381 36.7463 15.4875L33.6397 18.7702C33.531 18.8854 33.3832 18.9441 33.2375 18.9441ZM25.6983 10.4918L33.2158 17.6049L35.5593 15.1288L28.0418 8.01565L25.6983 10.494V10.4918Z" fill="#262626"/>
<path d="M8.70647 36.5337C8.56516 36.5337 8.43038 36.4793 8.32603 36.3815C8.19559 36.2576 8.13254 36.0771 8.15863 35.8989L9.61519 26.0248C9.64562 25.8204 9.78692 25.6487 9.98257 25.5813C10.1782 25.5139 10.3956 25.5596 10.5456 25.7031L18.8697 33.5793C19.0197 33.7206 19.0784 33.9358 19.0218 34.1336C18.9653 34.3315 18.8023 34.4837 18.6001 34.525L8.81952 36.525C8.78256 36.5315 8.7456 36.5359 8.70864 36.5359L8.70647 36.5337ZM10.5543 27.2401L9.36953 35.2793L17.3305 33.651L10.5565 27.2401H10.5543Z" fill="#262626"/>
<path d="M17.6583 27.0724C17.5213 27.0724 17.3844 27.0224 17.2778 26.9202C17.0561 26.7093 17.0452 26.3593 17.2561 26.1354L25.341 17.5918C25.5519 17.3701 25.9019 17.3592 26.1236 17.57C26.3454 17.7809 26.3562 18.1309 26.1453 18.3549L18.0605 26.8985C17.9518 27.0137 17.8039 27.0724 17.6583 27.0724Z" fill="#262626"/>
</svg>
