<svg width="60" height="60" viewBox="0 0 60 60" fill="none" xmlns="http://www.w3.org/2000/svg">
<path d="M8.3125 27.7312L25.4313 18.975L21.8125 15C8.3125 15 8.3125 27.7312 8.3125 27.7312Z" fill="black"/>
<path d="M50.8687 27.7312L33.75 18.975L37.3688 15C50.8687 15 50.8687 27.7312 50.8687 27.7312Z" fill="black"/>
<path d="M50.9593 23.4583C50.0036 19.446 46.5369 16.875 42.3769 16.875H17.5671C13.4258 16.875 9.94047 19.446 8.9848 23.4583C8.9848 23.4583 2.16394 45.3116 4.09401 51.9727C4.71239 54.1153 6.73615 55.3618 8.2165 56.0241C9.13469 56.433 10.2216 56.2772 11.0086 55.6344C11.0086 55.6344 19.6937 48.1995 20.3871 47.6736C21.0804 47.1476 21.9236 46.875 22.7856 46.875C23.6477 46.875 26.1212 46.875 26.1212 46.875H37.2144C38.0764 46.875 38.9196 47.1671 39.6129 47.6736L49.0104 55.6344C49.7974 56.2772 51.1226 56.3229 51.8025 56.0241C53.2641 55.3813 55.2878 54.1153 55.9249 51.9727C57.7988 45.3116 50.9593 23.4583 50.9593 23.4583Z" fill="#604F9E"/>
<path d="M42.5879 25.4814C43.6235 25.4814 44.4629 24.642 44.4629 23.6064C44.4629 22.5709 43.6235 21.7314 42.5879 21.7314C41.5523 21.7314 40.7129 22.5709 40.7129 23.6064C40.7129 24.642 41.5523 25.4814 42.5879 25.4814Z" fill="#FCD53F"/>
<path d="M42.5879 33.9561C43.6235 33.9561 44.4629 33.1164 44.4629 32.0811C44.4629 31.0455 43.6235 30.2061 42.5879 30.2061C41.5523 30.2061 40.7129 31.0455 40.7129 32.0811C40.7129 33.1164 41.5523 33.9561 42.5879 33.9561Z" fill="#86D72F"/>
<path d="M38.3506 29.719C39.3861 29.719 40.2256 28.8796 40.2256 27.844C40.2256 26.8084 39.3861 25.969 38.3506 25.969C37.315 25.969 36.4756 26.8084 36.4756 27.844C36.4756 28.8796 37.315 29.719 38.3506 29.719Z" fill="#00A6ED"/>
<path d="M46.8252 29.719C47.8608 29.719 48.7002 28.8796 48.7002 27.844C48.7002 26.8084 47.8608 25.969 46.8252 25.969C45.7896 25.969 44.9502 26.8084 44.9502 27.844C44.9502 28.8796 45.7896 29.719 46.8252 29.719Z" fill="#F8312F"/>
<path d="M18.1377 31.95C20.3641 31.95 22.169 30.1451 22.169 27.9187C22.169 25.6923 20.3641 23.8875 18.1377 23.8875C15.9113 23.8875 14.1064 25.6923 14.1064 27.9187C14.1064 30.1451 15.9113 31.95 18.1377 31.95Z" fill="#A4AEEB"/>
<path d="M36.8877 42.8626C39.1141 42.8626 40.9189 41.0577 40.9189 38.8313C40.9189 36.6049 39.1141 34.8 36.8877 34.8C34.6611 34.8 32.8564 36.6049 32.8564 38.8313C32.8564 41.0577 34.6611 42.8626 36.8877 42.8626Z" fill="#A4AEEB"/>
<path d="M26.8007 37.6126H27.5507C28.0757 37.6126 28.582 37.9689 28.6382 38.4939C28.7695 39.1689 28.2445 39.7689 27.5882 39.7689H26.782C26.182 39.7689 25.6945 40.2564 25.6945 40.8564V41.6626C25.6945 42.3189 25.0945 42.8439 24.4195 42.7126C23.8945 42.6189 23.5382 42.1126 23.5382 41.5876V40.8376C23.5382 40.2376 23.0507 39.7501 22.4507 39.7501H21.6445C20.9882 39.7501 20.4632 39.1501 20.5945 38.4751C20.6882 37.9501 21.1945 37.5939 21.7195 37.5939H22.4695C23.0695 37.5939 23.557 37.1064 23.557 36.5064V35.7001C23.557 35.0439 24.157 34.5189 24.832 34.6501C25.357 34.7439 25.7132 35.2501 25.7132 35.7751V36.5251C25.7132 37.1251 26.2007 37.6126 26.8007 37.6126Z" fill="#A4AEEB"/>
</svg>
