<svg width="60" height="60" viewBox="0 0 60 60" fill="none" xmlns="http://www.w3.org/2000/svg">
<path d="M20.0217 56.2814C17.8826 56.2814 16.1412 54.5379 16.1412 52.3966V46.2508L5.98235 41.4095C5.76495 41.3073 5.55405 41.179 5.35622 41.0334C3.71489 40.0834 2.69531 38.329 2.69531 36.4442V22.3352C2.69531 19.4135 5.07364 17.0352 7.99542 17.0352H11.8607C14.7825 17.0352 17.1608 19.4135 17.1608 22.3352L17.1521 25.8005H24.4457C26.4957 25.8005 28.161 27.4679 28.161 29.5158C28.161 31.5637 26.4935 33.2311 24.4457 33.2311H13.4346C11.3868 33.2311 9.71935 31.5637 9.71935 29.5158V24.507C9.71935 24.2005 9.96719 23.9527 10.2737 23.9527C10.5802 23.9527 10.8281 24.2005 10.8281 24.507V29.5158C10.8281 30.9528 11.9977 32.1224 13.4346 32.1224H24.4457C25.8827 32.1224 27.0522 30.9528 27.0522 29.5158C27.0522 28.0788 25.8827 26.9092 24.4457 26.9092H16.5956C16.4477 26.9092 16.3064 26.8505 16.2043 26.7462C16.0999 26.6418 16.0412 26.5005 16.0412 26.3527L16.0499 22.3352C16.0499 20.0243 14.1694 18.1439 11.8585 18.1439H7.99325C5.68234 18.1439 3.80187 20.0243 3.80187 22.3352V36.4442C3.80187 37.9442 4.61929 39.3399 5.93453 40.0877C5.95627 40.1008 5.97801 40.1138 5.99758 40.129C6.14106 40.2377 6.29538 40.3334 6.45408 40.4073L16.9304 45.4008C17.1239 45.4921 17.2456 45.6878 17.2456 45.9008V52.3966C17.2456 53.9271 18.4891 55.1727 20.0174 55.1727C21.5457 55.1727 22.7935 53.9271 22.7935 52.3966V43.9943C22.7913 43.9682 22.7892 43.9421 22.7892 43.9139C22.8174 42.7551 22.2022 41.7051 21.2239 41.2355L16.3651 38.9225C16.1716 38.8312 16.0499 38.6355 16.0499 38.4225V36.6355C16.0499 36.329 16.2978 36.0811 16.6043 36.0811C16.9108 36.0811 17.1586 36.329 17.1586 36.6355V38.0725L21.7044 40.2355C23.0652 40.8877 23.9217 42.3225 23.9 43.8986C23.9022 43.9204 23.9022 43.9399 23.9022 43.9595V52.3966C23.9022 54.5379 22.1587 56.2814 20.0174 56.2814H20.0217Z" fill="#262626"/>
<path d="M9.92801 14.452C6.96927 14.452 4.56055 12.0455 4.56055 9.08454C4.56055 6.12362 6.96709 3.71924 9.92801 3.71924C12.8889 3.71924 15.2934 6.1258 15.2934 9.08454C15.2934 12.0433 12.8868 14.452 9.92801 14.452ZM9.92801 4.82796C7.58015 4.82796 5.66928 6.73885 5.66928 9.08454C5.66928 11.4302 7.58015 13.3433 9.92801 13.3433C12.2759 13.3433 14.1846 11.4324 14.1846 9.08454C14.1846 6.73668 12.2737 4.82796 9.92801 4.82796Z" fill="#262626"/>
<path d="M56.7507 33.9627H32.3263C32.0198 33.9627 31.772 33.7149 31.772 33.4084C31.772 33.1018 32.0198 32.854 32.3263 32.854H56.7507C57.0572 32.854 57.305 33.1018 57.305 33.4084C57.305 33.7149 57.0572 33.9627 56.7507 33.9627Z" fill="#262626"/>
<path d="M35.8879 56.2807C35.5813 56.2807 35.3335 56.0329 35.3335 55.7264V33.4108C35.3335 33.1043 35.5813 32.8564 35.8879 32.8564C36.1944 32.8564 36.4422 33.1043 36.4422 33.4108V55.7264C36.4422 56.0329 36.1944 56.2807 35.8879 56.2807Z" fill="#262626"/>
<path d="M46.8961 30.009H37.009C36.7024 30.009 36.4546 29.7612 36.4546 29.4547C36.4546 29.1481 36.7024 28.9003 37.009 28.9003H46.4852L49.9592 17.2653C50.0461 16.9718 50.357 16.8045 50.6483 16.8936C50.9418 16.9805 51.1092 17.2892 51.02 17.5827L47.4265 29.6134C47.3569 29.8481 47.1396 30.009 46.8961 30.009Z" fill="#262626"/>
</svg>
