<svg width="60" height="60" viewBox="0 0 60 60" fill="none" xmlns="http://www.w3.org/2000/svg">
<path d="M47.5983 44.6522H12.4042C9.65419 44.6522 7.41504 42.413 7.41504 39.663V14.3212C7.41504 11.5712 9.65419 9.33203 12.4042 9.33203H47.5983C50.3484 9.33203 52.5875 11.5712 52.5875 14.3212V39.663C52.5875 42.413 50.3484 44.6522 47.5983 44.6522ZM12.4042 10.4386C10.2651 10.4386 8.52377 12.1799 8.52377 14.3191V39.6608C8.52377 41.7999 10.2651 43.5413 12.4042 43.5413H47.5983C49.7375 43.5413 51.4788 41.7999 51.4788 39.6608V14.3191C51.4788 12.1799 49.7375 10.4386 47.5983 10.4386H12.4042Z" fill="#262626"/>
<path d="M29.9999 32.9812C26.0716 32.9812 22.0933 31.9986 22.0933 30.1203C22.0933 29.8137 22.3411 29.5659 22.6476 29.5659C22.9542 29.5659 23.2019 29.8137 23.2019 30.1203C23.2019 30.7159 25.602 31.8725 29.9999 31.8725C34.3978 31.8725 36.7978 30.7138 36.7978 30.1203C36.7978 29.8137 37.0457 29.5659 37.3522 29.5659C37.6587 29.5659 37.9066 29.8137 37.9066 30.1203C37.9066 31.9986 33.9282 32.9812 29.9999 32.9812Z" fill="#262626"/>
<path d="M37.3517 30.6716C37.0452 30.6716 36.7974 30.4238 36.7974 30.1173V24.215C36.7974 23.9085 37.0452 23.6606 37.3517 23.6606C37.6583 23.6606 37.9061 23.9085 37.9061 24.215V30.1173C37.9061 30.4238 37.6583 30.6716 37.3517 30.6716Z" fill="#262626"/>
<path d="M22.6476 30.6716C22.3411 30.6716 22.0933 30.4238 22.0933 30.1173V24.215C22.0933 23.9085 22.3411 23.6606 22.6476 23.6606C22.9542 23.6606 23.2019 23.9085 23.2019 24.215V30.1173C23.2019 30.4238 22.9542 30.6716 22.6476 30.6716Z" fill="#262626"/>
<path d="M29.9995 27.0869C29.9365 27.0869 29.8734 27.076 29.8147 27.0543L22.5124 24.4651C22.2233 24.363 22.0733 24.0456 22.1755 23.7564C22.2776 23.4673 22.595 23.3173 22.8842 23.4195L29.993 25.9391L41.6584 21.4759L29.9995 17.7302L17.2254 21.8346V25.7478C17.2254 26.0543 16.9776 26.3021 16.6711 26.3021C16.3645 26.3021 16.1167 26.0543 16.1167 25.7478V21.4303C16.1167 21.189 16.2732 20.9759 16.5015 20.902L29.8299 16.6193C29.9408 16.5846 30.0582 16.5846 30.1691 16.6193L43.4976 20.902C43.7215 20.9738 43.8758 21.1803 43.8824 21.4151C43.8889 21.6499 43.7454 21.8629 43.5258 21.9477L30.1974 27.0456C30.1343 27.0695 30.0669 27.0826 29.9995 27.0826V27.0869Z" fill="#262626"/>
<path d="M47.2463 39.9984H7.96745C7.66093 39.9984 7.41309 39.7505 7.41309 39.444C7.41309 39.1375 7.66093 38.8896 7.96745 38.8896H47.2463C47.5529 38.8896 47.8007 39.1375 47.8007 39.444C47.8007 39.7505 47.5529 39.9984 47.2463 39.9984Z" fill="#262626"/>
<path d="M37.5023 50.6678H22.5021C22.1955 50.6678 21.9478 50.42 21.9478 50.1134C21.9478 49.8069 22.1955 49.5591 22.5021 49.5591H37.5023C37.8088 49.5591 38.0567 49.8069 38.0567 50.1134C38.0567 50.42 37.8088 50.6678 37.5023 50.6678Z" fill="#262626"/>
</svg>
