<svg width="60" height="60" viewBox="0 0 60 60" fill="none" xmlns="http://www.w3.org/2000/svg">
<path d="M46.4333 47.8711H25.596C25.2895 47.8711 25.0417 47.6232 25.0417 47.3167C25.0417 47.0102 25.2895 46.7624 25.596 46.7624H46.4333C48.4659 46.7624 50.1203 45.108 50.1203 43.0753V18.2489C50.1203 16.2162 48.4659 14.5618 46.4333 14.5618H13.9197C11.8871 14.5618 10.2327 16.2162 10.2327 18.2489V27.0794C10.2327 27.386 9.98492 27.6338 9.67839 27.6338C9.37186 27.6338 9.12402 27.386 9.12402 27.0794V18.2489C9.12402 15.6053 11.2762 13.4531 13.9197 13.4531H46.4333C49.0768 13.4531 51.229 15.6053 51.229 18.2489V43.0753C51.229 45.7189 49.0768 47.8711 46.4333 47.8711Z" fill="#262626"/>
<path d="M22.063 50.4904C21.7565 50.4904 21.5086 50.2425 21.5086 49.936V42.6815H30.1696C30.9392 42.6815 31.5653 42.0554 31.5653 41.2859C31.5653 40.5163 30.9392 39.8902 30.1696 39.8902H11.1976C9.16496 39.8902 7.51054 41.5424 7.51054 43.575V49.936C7.51054 50.2425 7.26275 50.4904 6.95622 50.4904C6.6497 50.4904 6.40186 50.2425 6.40186 49.936V43.575C6.40186 40.9315 8.55408 38.7793 11.1976 38.7793H30.1696C31.55 38.7793 32.674 39.9032 32.674 41.2859C32.674 42.6685 31.55 43.7902 30.1696 43.7902H22.6173V49.936C22.6173 50.2425 22.3695 50.4904 22.063 50.4904Z" fill="#262626"/>
<path d="M17.2046 36.2071C14.2198 36.2071 11.7915 33.7788 11.7915 30.794C11.7915 27.8092 14.2198 25.3809 17.2046 25.3809C20.1894 25.3809 22.6177 27.8092 22.6177 30.794C22.6177 33.7788 20.1894 36.2071 17.2046 36.2071ZM17.2046 26.4874C14.8307 26.4874 12.9002 28.4179 12.9002 30.7918C12.9002 33.1658 14.8307 35.0962 17.2046 35.0962C19.5786 35.0962 21.509 33.1658 21.509 30.7918C21.509 28.4179 19.5786 26.4874 17.2046 26.4874Z" fill="#262626"/>
<path d="M10.8586 50.4897C10.552 50.4897 10.3042 50.2418 10.3042 49.9353V46.8722C10.3042 46.5657 10.552 46.3179 10.8586 46.3179C11.1651 46.3179 11.4129 46.5657 11.4129 46.8722V49.9353C11.4129 50.2418 11.1651 50.4897 10.8586 50.4897Z" fill="#262626"/>
<path d="M54.2959 10.618H5.70378C5.39725 10.618 5.14941 10.3702 5.14941 10.0636C5.14941 9.75711 5.39725 9.50928 5.70378 9.50928H54.2959C54.6024 9.50928 54.8502 9.75711 54.8502 10.0636C54.8502 10.3702 54.6024 10.618 54.2959 10.618Z" fill="#262626"/>
<path d="M35.805 37.0211L31.5549 32.7711L28.4288 35.8972C28.2114 36.1146 27.8614 36.1146 27.644 35.8972C27.4266 35.6798 27.4266 35.3298 27.644 35.1124L31.5549 31.2015L35.8441 35.4907L43.8464 28.2601C44.0725 28.0536 44.4247 28.0732 44.629 28.2992C44.8334 28.5253 44.816 28.8775 44.5899 29.0819L35.8072 37.0189L35.805 37.0211Z" fill="#262626"/>
<path d="M44.218 20.6033H15.8654C15.5589 20.6033 15.311 20.3555 15.311 20.049C15.311 19.7425 15.5589 19.4946 15.8654 19.4946H44.218C44.5245 19.4946 44.7724 19.7425 44.7724 20.049C44.7724 20.3555 44.5245 20.6033 44.218 20.6033Z" fill="#262626"/>
<path d="M29.7355 24.3138H23.092C22.7854 24.3138 22.5376 24.066 22.5376 23.7594C22.5376 23.4529 22.7854 23.2051 23.092 23.2051H29.7355C30.042 23.2051 30.2899 23.4529 30.2899 23.7594C30.2899 24.066 30.042 24.3138 29.7355 24.3138Z" fill="#262626"/>
</svg>
