<svg width="60" height="60" viewBox="0 0 60 60" fill="none" xmlns="http://www.w3.org/2000/svg">
<path d="M46.8868 38.7786H25.6734C25.3669 38.7786 25.1191 38.5307 25.1191 38.2242C25.1191 37.9177 25.3669 37.6699 25.6734 37.6699H46.8868C48.8608 37.6699 50.4674 36.0633 50.4674 34.0894V11.989C50.4674 10.0151 48.8608 8.40852 46.8868 8.40852H17.532C15.5581 8.40852 13.9515 10.0151 13.9515 11.989V26.5197C13.9515 26.8262 13.7037 27.074 13.3972 27.074C13.0907 27.074 12.8428 26.8262 12.8428 26.5197V11.989C12.8428 9.40419 14.945 7.2998 17.532 7.2998H46.8868C49.4716 7.2998 51.576 9.40201 51.576 11.989V34.0894C51.576 36.6742 49.4738 38.7786 46.8868 38.7786Z" fill="#262626"/>
<path d="M38.1018 48.9159H26.3147C26.0081 48.9159 25.7603 48.668 25.7603 48.3615C25.7603 48.055 26.0081 47.8071 26.3147 47.8071H38.1018C38.4083 47.8071 38.6562 48.055 38.6562 48.3615C38.6562 48.668 38.4083 48.9159 38.1018 48.9159Z" fill="#262626"/>
<path d="M32.2081 48.9158C31.9016 48.9158 31.6538 48.6679 31.6538 48.3614V38.2243C31.6538 37.9177 31.9016 37.6699 32.2081 37.6699C32.5146 37.6699 32.7624 37.9177 32.7624 38.2243V48.3614C32.7624 48.6679 32.5146 48.9158 32.2081 48.9158Z" fill="#262626"/>
<path d="M39.1348 14.265H25.2824C24.9759 14.265 24.728 14.0171 24.728 13.7106C24.728 13.4041 24.9759 13.1562 25.2824 13.1562H39.1348C39.4413 13.1562 39.6892 13.4041 39.6892 13.7106C39.6892 14.0171 39.4413 14.265 39.1348 14.265Z" fill="#262626"/>
<path d="M38.1017 22.1888H17.7732C17.4666 22.1888 17.2188 21.941 17.2188 21.6344C17.2188 21.3279 17.4666 21.0801 17.7732 21.0801H38.1017C38.4082 21.0801 38.6561 21.3279 38.6561 21.6344C38.6561 21.941 38.4082 22.1888 38.1017 22.1888Z" fill="#262626"/>
<path d="M43.9368 30.4678C43.7955 30.4678 43.6542 30.4134 43.5455 30.3047L42.2324 28.9916C42.015 28.7743 42.015 28.4243 42.2324 28.2069C42.4476 27.9895 42.7999 27.9895 43.0173 28.2069L43.939 29.1286L46.239 26.8286C46.4564 26.6112 46.8064 26.6112 47.0238 26.8286C47.2412 27.046 47.2412 27.396 47.0238 27.6134L44.3324 30.3047C44.2238 30.4134 44.0825 30.4678 43.9412 30.4678H43.9368Z" fill="#262626"/>
<path d="M38.1015 30.2518H26.4275C26.1209 30.2518 25.873 30.0039 25.873 29.6974C25.873 29.3909 26.1209 29.1431 26.4275 29.1431H38.1015C38.408 29.1431 38.6559 29.3909 38.6559 29.6974C38.6559 30.0039 38.408 30.2518 38.1015 30.2518Z" fill="#262626"/>
<path d="M43.9368 22.4048C43.789 22.4048 43.6498 22.3461 43.5455 22.2417L42.2324 20.9287C42.015 20.7113 42.015 20.3613 42.2324 20.1439C42.4498 19.9265 42.7999 19.9265 43.0173 20.1439L43.939 21.0656L46.239 18.7656C46.4564 18.5482 46.8064 18.5482 47.0238 18.7656C47.2412 18.983 47.2412 19.333 47.0238 19.5504L44.3324 22.2417C44.2281 22.3461 44.0868 22.4048 43.9412 22.4048H43.9368Z" fill="#262626"/>
<path d="M10.5906 38.2656C10.3232 38.2656 10.0884 38.0721 10.0449 37.8003L9.15368 32.2763C9.13847 32.1807 9.14714 32.0829 9.18192 31.9937L10.4015 28.7437C10.471 28.5567 10.6363 28.4219 10.8319 28.3915C11.0297 28.3611 11.2276 28.435 11.3515 28.5915L13.5319 31.2937C13.5928 31.3698 13.632 31.4589 13.6472 31.5546L14.5668 37.2503C14.6146 37.5525 14.4103 37.8373 14.1081 37.8851C13.8059 37.9329 13.5211 37.7286 13.4732 37.4264L12.5777 31.8742L11.0993 30.0415L10.271 32.2459L11.1406 37.6242C11.1884 37.9264 10.9841 38.2112 10.6819 38.259C10.6515 38.2634 10.6232 38.2656 10.5928 38.2656H10.5906Z" fill="#262626"/>
<path d="M20.4751 38.2325C20.4208 38.2325 20.3664 38.2238 20.3121 38.2086C20.0186 38.1173 19.8556 37.8086 19.9469 37.5151L22.2404 30.0998L22.0187 27.1889L19.9947 29.4476L17.4274 37.7521C17.3361 38.0434 17.0251 38.2086 16.7338 38.1173C16.4403 38.026 16.2773 37.7173 16.3686 37.4238L18.973 29.0041C18.9969 28.928 19.0361 28.8585 19.0904 28.7976L22.0622 25.478C22.21 25.3128 22.4447 25.2519 22.6534 25.3236C22.8643 25.3954 23.0122 25.5845 23.0274 25.8063L23.3556 30.1194C23.36 30.1889 23.3535 30.2585 23.3317 30.3259L21.0078 37.8412C20.9339 38.0782 20.7143 38.2325 20.4774 38.2325H20.4751Z" fill="#262626"/>
<path d="M21.5533 52.7005H9.66828C9.37262 52.7005 9.12918 52.4679 9.11397 52.1722L8.42484 37.8763C8.41832 37.7242 8.47261 37.5763 8.57696 37.4676C8.6813 37.3568 8.82698 37.2959 8.97916 37.2959H22.2425C22.3946 37.2959 22.5381 37.3589 22.6447 37.4676C22.749 37.5763 22.8033 37.7242 22.7968 37.8763L22.1077 52.1722C22.0946 52.4679 21.849 52.7005 21.5533 52.7005ZM10.1966 51.5918H21.025L21.6598 38.4046H9.55958L10.1945 51.5918H10.1966Z" fill="#262626"/>
</svg>
