<svg width="60" height="60" viewBox="0 0 60 60" fill="none" xmlns="http://www.w3.org/2000/svg">
<path d="M49.0873 36.7688C52.9395 36.7688 56.0623 33.646 56.0623 29.7938C56.0623 25.9417 52.9395 22.8188 49.0873 22.8188C45.2351 22.8188 42.1123 25.9417 42.1123 29.7938C42.1123 33.646 45.2351 36.7688 49.0873 36.7688Z" fill="#212121"/>
<path d="M20.6246 20.625L21.8996 18.75C24.2433 18.75 26.5683 18.2062 28.6683 17.1937L40.4058 11.4187V48.2063L28.6683 42.4313C26.5683 41.4 24.2433 40.8563 21.8996 40.8563L20.6246 37.5V20.625ZM11.6545 54.3906H16.4808C17.737 54.3906 18.7495 53.3781 18.7495 52.1218V37.2938H9.38574V52.1218C9.38574 53.3781 10.3982 54.3906 11.6545 54.3906Z" fill="#D3D3D3"/>
<path d="M45.1312 5.625C41.9625 5.625 39.375 8.19375 39.375 11.3813V48.225C39.375 51.3937 41.9437 53.9813 45.1312 53.9813C48.3 53.9813 50.8875 51.4125 50.8875 48.225V11.3813C50.8687 8.19375 48.3 5.625 45.1312 5.625Z" fill="#F8312F"/>
<path d="M6.98741 18.75H22.5V40.8375H6.98741C5.19527 40.8375 3.75 39.4313 3.75 37.7063V21.9C3.75 20.1563 5.19527 18.75 6.98741 18.75Z" fill="#CA0B4A"/>
</svg>
