<svg width="60" height="60" viewBox="0 0 60 60" fill="none" xmlns="http://www.w3.org/2000/svg">
<path d="M7.30241 43.4787C6.99589 43.4787 6.74805 43.2309 6.74805 42.9244V10.5608C6.74805 9.30211 7.23718 8.11948 8.12632 7.23033C9.01982 6.34119 10.2025 5.85205 11.4546 5.85205H40.3812C40.6877 5.85205 40.9356 6.09988 40.9356 6.40641V12.6782C40.9356 12.9848 40.6877 13.2326 40.3812 13.2326C40.0747 13.2326 39.8268 12.9848 39.8268 12.6782V6.96076H11.4546C10.4959 6.96076 9.59158 7.33468 8.90896 8.01513C8.23069 8.6934 7.85676 9.59559 7.85676 10.5586V42.9222C7.85676 43.2287 7.60894 43.4766 7.30241 43.4766V43.4787Z" fill="#262626"/>
<path d="M27.1261 47.631H10.852C8.58889 47.631 6.74756 45.7896 6.74756 43.5266V42.3222C6.74756 40.0591 8.58889 38.2178 10.852 38.2178H20.9456C21.2522 38.2178 21.5 38.4656 21.5 38.7721C21.5 39.0787 21.2522 39.3265 20.9456 39.3265H10.852C9.19977 39.3265 7.85627 40.67 7.85627 42.3222V43.5266C7.85627 45.1788 9.19977 46.5223 10.852 46.5223H27.1261C27.4327 46.5223 27.6805 46.7701 27.6805 47.0766C27.6805 47.3831 27.4327 47.631 27.1261 47.631Z" fill="#262626"/>
<path d="M30.5547 18.5995H17.1305C16.824 18.5995 16.5762 18.3516 16.5762 18.0451V13.3146C16.5762 13.0081 16.824 12.7603 17.1305 12.7603H30.5547C30.8612 12.7603 31.109 13.0081 31.109 13.3146V18.0451C31.109 18.3516 30.8612 18.5995 30.5547 18.5995ZM17.6827 17.4908H29.9981V13.869H17.6827V17.4908Z" fill="#262626"/>
<path d="M45.07 54.146H41.4177C38.3264 54.146 35.5459 52.4373 34.1372 49.6807L24.9001 40.4436C23.7631 39.3067 23.7631 37.4545 24.9001 36.3175C26.0371 35.1805 27.8871 35.1805 29.0262 36.3175L33.2394 40.5306V22.9477C33.2394 21.339 34.5481 20.0303 36.1568 20.0303C37.7655 20.0303 39.0742 21.339 39.0742 22.9477V34.7609C39.0742 35.0675 38.8264 35.3153 38.5199 35.3153C38.2134 35.3153 37.9655 35.0675 37.9655 34.7609V22.9477C37.9655 21.9499 37.1546 21.139 36.1568 21.139C35.159 21.139 34.3481 21.9499 34.3481 22.9477V41.8698C34.3481 42.0937 34.2133 42.2958 34.0068 42.3828C33.8002 42.4698 33.5611 42.4219 33.4024 42.2632L28.2436 37.1045C27.5393 36.4001 26.3914 36.4001 25.6871 37.1045C25.3458 37.4458 25.1566 37.9001 25.1566 38.3827C25.1566 38.8654 25.3458 39.3197 25.6871 39.661L34.9872 48.9612C35.0307 49.0025 35.0655 49.0525 35.0916 49.1068C36.2981 51.533 38.7221 53.0395 41.4199 53.0395H45.0722C48.9701 53.0395 52.144 49.8677 52.144 45.9676V26.3847C52.144 25.3869 51.3331 24.576 50.3353 24.576C49.3374 24.576 48.5266 25.3869 48.5266 26.3847V34.7609C48.5266 35.0675 48.2787 35.3153 47.9722 35.3153C47.6657 35.3153 47.4178 35.0675 47.4178 34.7609V26.3847C47.4178 24.776 48.7266 23.4673 50.3353 23.4673C51.944 23.4673 53.2527 24.776 53.2527 26.3847V45.9676C53.2527 50.4786 49.5831 54.1482 45.0722 54.1482L45.07 54.146Z" fill="#262626"/>
<path d="M43.2444 35.3158C42.9379 35.3158 42.69 35.0679 42.69 34.7614V18.6894C42.69 17.6916 41.8792 16.8807 40.8813 16.8807C39.8835 16.8807 39.0726 17.6916 39.0726 18.6894V34.7614C39.0726 35.0679 38.8248 35.3158 38.5182 35.3158C38.2117 35.3158 37.9639 35.0679 37.9639 34.7614V18.6894C37.9639 17.0807 39.2726 15.772 40.8813 15.772C42.49 15.772 43.7988 17.0807 43.7988 18.6894V34.7614C43.7988 35.0679 43.5509 35.3158 43.2444 35.3158Z" fill="#262626"/>
<path d="M47.97 35.3159C47.6635 35.3159 47.4156 35.0681 47.4156 34.7616V21.2788C47.4156 20.2809 46.6047 19.47 45.6069 19.47C44.6091 19.47 43.7982 20.2809 43.7982 21.2788V34.7616C43.7982 35.0681 43.5503 35.3159 43.2438 35.3159C42.9373 35.3159 42.6895 35.0681 42.6895 34.7616V21.2788C42.6895 19.67 43.9982 18.3613 45.6069 18.3613C47.2156 18.3613 48.5243 19.67 48.5243 21.2788V34.7616C48.5243 35.0681 48.2765 35.3159 47.97 35.3159Z" fill="#262626"/>
</svg>
