<svg width="60" height="60" viewBox="0 0 60 60" fill="none" xmlns="http://www.w3.org/2000/svg">
<path d="M13.014 39.6249C12.8032 39.6249 12.6032 39.5054 12.5097 39.301C12.338 38.9271 12.251 38.5423 12.251 38.1553V22.8747C12.251 22.5681 12.4988 22.3203 12.8053 22.3203C13.1119 22.3203 13.3597 22.5681 13.3597 22.8747V38.1553C13.3597 38.3836 13.4119 38.6075 13.5162 38.838C13.6445 39.1162 13.5206 39.4445 13.2423 39.5728C13.1684 39.6075 13.0879 39.6228 13.0119 39.6228L13.014 39.6249Z" fill="#262626"/>
<path d="M40.1448 43.4405C39.897 43.4405 39.6709 43.2731 39.6079 43.021C39.5339 42.7231 39.7144 42.4231 40.0122 42.3492C44.1014 41.3296 46.6428 39.7231 46.6428 38.1578V22.8815C46.6428 22.575 46.8906 22.3271 47.1971 22.3271C47.5036 22.3271 47.7515 22.575 47.7515 22.8815V38.1578C47.7515 40.3231 45.0297 42.2427 40.2818 43.4253C40.2362 43.4362 40.1927 43.4427 40.147 43.4427L40.1448 43.4405Z" fill="#262626"/>
<path d="M30.001 27.2511C29.914 27.2511 29.8292 27.2316 29.7487 27.1903L6.99405 15.6227C6.80709 15.527 6.69189 15.3379 6.69189 15.1292C6.69189 14.9205 6.80926 14.7292 6.99405 14.6357L29.7487 3.06814C29.9074 2.9877 30.0922 2.9877 30.2509 3.06814L53.0056 14.6357C53.1904 14.7292 53.3078 14.9205 53.3078 15.1292C53.3078 15.3379 53.1904 15.5292 53.0056 15.6227L30.2509 27.1903C30.1727 27.2294 30.0857 27.2511 29.9988 27.2511H30.001ZM8.47017 15.1292L30.001 26.075L51.5317 15.1292L30.001 4.18337L8.47017 15.1292Z" fill="#262626"/>
<path d="M7.24621 26.9901C6.93968 26.9901 6.69189 26.7423 6.69189 26.4358V15.1291C6.69189 14.8225 6.93968 14.5747 7.24621 14.5747C7.55274 14.5747 7.80058 14.8225 7.80058 15.1291V26.4358C7.80058 26.7423 7.55274 26.9901 7.24621 26.9901Z" fill="#262626"/>
<path d="M26.4442 52.4489C24.2355 52.4489 22.0876 51.7641 20.255 50.4554C15.4592 47.0314 14.3418 40.3422 17.768 35.5465C21.1919 30.7507 27.8811 29.6333 32.6791 33.0573C35.003 34.716 36.54 37.1813 37.0118 39.9965C37.4813 42.8118 36.827 45.6423 35.1683 47.9662C33.5095 50.2902 31.0443 51.8293 28.229 52.2989C27.6333 52.3989 27.0377 52.4467 26.4464 52.4467L26.4442 52.4489ZM26.479 32.179C23.4855 32.179 20.5376 33.5725 18.668 36.19C15.5984 40.49 16.5984 46.4836 20.8984 49.5532C22.9811 51.0402 25.5159 51.625 28.0421 51.2054C30.566 50.7837 32.7747 49.4054 34.2617 47.3227C35.7487 45.2401 36.3357 42.7031 35.9139 40.1792C35.4922 37.6552 34.1139 35.4465 32.0312 33.9595C30.3486 32.7573 28.4029 32.179 26.479 32.179Z" fill="#262626"/>
<path d="M22.6623 47.64C22.5514 47.64 22.4384 47.6074 22.3405 47.5379C19.1535 45.2617 18.4122 40.8182 20.6883 37.629C20.8666 37.3812 21.2122 37.3225 21.4622 37.5007C21.7122 37.679 21.7687 38.0247 21.5905 38.2747C19.6709 40.9638 20.297 44.7161 22.9862 46.6357C23.2362 46.8139 23.2927 47.1596 23.1144 47.4096C23.0057 47.5618 22.8362 47.6422 22.6623 47.6422V47.64Z" fill="#262626"/>
<path d="M43.3125 56.9927C42.7103 56.9927 42.1038 56.8122 41.5777 56.4361L37.9015 53.8122C36.558 52.8535 36.245 50.9795 37.2058 49.636L37.4058 49.3556C38.3645 48.0121 40.2385 47.6991 41.582 48.6578L45.256 51.2817C46.5995 52.2404 46.9125 54.1144 45.9538 55.4579L45.7538 55.7383C45.1712 56.5557 44.2473 56.9927 43.3125 56.9927ZM39.845 49.2099C39.2559 49.2099 38.6754 49.4839 38.308 49.9991L38.1081 50.2774C37.5037 51.123 37.7015 52.3035 38.5471 52.9078L42.2211 55.5318C43.0668 56.1361 44.2472 55.9383 44.8516 55.0926L45.0516 54.8144C45.3429 54.4057 45.4582 53.9078 45.3734 53.4078C45.2908 52.91 45.019 52.4752 44.6125 52.1839L40.9385 49.5599C40.608 49.323 40.2255 49.2099 39.845 49.2099Z" fill="#262626"/>
</svg>
