<svg width="60" height="60" viewBox="0 0 60 60" fill="none" xmlns="http://www.w3.org/2000/svg">
<path d="M42.8369 52.567C42.626 52.567 42.4238 52.4475 42.3325 52.2431C42.2064 51.9649 42.3282 51.6366 42.6065 51.5083C50.0153 48.1387 54.8023 40.706 54.8023 32.5732C54.8023 21.11 45.4761 11.786 34.015 11.786C30.3236 11.786 26.6997 12.7664 23.5322 14.623C23.267 14.7773 22.9279 14.6882 22.7735 14.4251C22.6192 14.1599 22.7083 13.8208 22.9714 13.6664C26.3084 11.712 30.1258 10.6772 34.0128 10.6772C46.0869 10.6772 55.9088 20.4991 55.9088 32.5754C55.9088 41.1408 50.8675 48.9692 43.063 52.5192C42.9891 52.554 42.9108 52.5692 42.8347 52.5692L42.8369 52.567Z" fill="#262626"/>
<path d="M38.3892 8.08785H29.639C28.2629 8.08785 27.1455 6.96827 27.1455 5.59216C27.1455 4.21605 28.2651 3.09863 29.639 3.09863H38.3892C39.7653 3.09863 40.8848 4.21822 40.8848 5.59216C40.8848 6.96609 39.7653 8.08785 38.3892 8.08785ZM29.639 4.20735C28.8738 4.20735 28.2542 4.8291 28.2542 5.59433C28.2542 6.35956 28.876 6.98131 29.639 6.98131H38.3892C39.1544 6.98131 39.7761 6.35956 39.7761 5.59433C39.7761 4.8291 39.1544 4.20735 38.3892 4.20735H29.639Z" fill="#262626"/>
<path d="M34.0157 35.6207C32.3352 35.6207 30.9678 34.2532 30.9678 32.5728C30.9678 30.8923 32.3352 29.5249 34.0157 29.5249C35.6961 29.5249 37.0635 30.8923 37.0635 32.5728C37.0635 34.2532 35.6961 35.6207 34.0157 35.6207ZM34.0157 30.6314C32.9461 30.6314 32.0765 31.501 32.0765 32.5706C32.0765 33.6402 32.9461 34.512 34.0157 34.512C35.0852 34.512 35.9548 33.6424 35.9548 32.5706C35.9548 31.4988 35.0852 30.6314 34.0157 30.6314Z" fill="#262626"/>
<path d="M34.0158 30.6315C33.7093 30.6315 33.4614 30.3837 33.4614 30.0772V19.0509C33.4614 18.7444 33.7093 18.4966 34.0158 18.4966C34.3223 18.4966 34.5701 18.7444 34.5701 19.0509V30.0772C34.5701 30.3837 34.3223 30.6315 34.0158 30.6315Z" fill="#262626"/>
<path d="M4.64568 51.3579C4.33915 51.3579 4.09131 51.1101 4.09131 50.8036V38.0382C4.09131 34.5142 6.95875 31.6489 10.4805 31.6489H22.9525C25.3938 31.6489 27.5852 33.0055 28.67 35.1903C28.8069 35.4642 28.6939 35.7968 28.42 35.9338C28.1461 36.0707 27.8134 35.9577 27.6765 35.6838C26.7786 33.8794 24.9677 32.7576 22.9503 32.7576H10.4784C7.56745 32.7576 5.19785 35.1272 5.19785 38.0382V50.8036C5.19785 51.1101 4.95003 51.3579 4.6435 51.3579H4.64568Z" fill="#262626"/>
<path d="M16.7174 28.9943C12.8325 28.9943 9.66943 25.8334 9.66943 21.9464C9.66943 18.0594 12.8304 14.8984 16.7174 14.8984C20.6044 14.8984 23.7653 18.0594 23.7653 21.9464C23.7653 25.8334 20.6044 28.9943 16.7174 28.9943ZM16.7174 16.0072C13.4434 16.0072 10.7781 18.6702 10.7781 21.9464C10.7781 25.2225 13.4412 27.8856 16.7174 27.8856C19.9935 27.8856 22.6566 25.2225 22.6566 21.9464C22.6566 18.6702 19.9935 16.0072 16.7174 16.0072Z" fill="#262626"/>
<path d="M35.4632 56.9019H19.7652C17.7303 56.9019 16.0086 55.4518 15.7586 53.5301L14.3759 42.8929C14.2368 41.8233 14.5585 40.782 15.2846 39.9559C16.0542 39.0798 17.1825 38.5776 18.3825 38.5776H36.848C38.0459 38.5776 39.1763 39.0798 39.9459 39.9559C40.672 40.782 40.9938 41.8255 40.8546 42.8929L39.472 53.5301C39.222 55.4518 37.5002 56.9019 35.4654 56.9019H35.4632ZM18.3804 39.6863C17.4999 39.6863 16.6738 40.0516 16.1151 40.6885C15.6042 41.2711 15.376 42.0038 15.4716 42.7516L16.8542 53.3887C17.0325 54.7605 18.2825 55.7953 19.7608 55.7953H35.4589C36.9372 55.7953 38.1872 54.7605 38.3655 53.3887L39.7481 42.7516C39.8459 42.0038 39.6176 41.2711 39.1046 40.6885C38.5459 40.0516 37.7198 39.6863 36.8393 39.6863H18.3738H18.3804Z" fill="#262626"/>
</svg>
