<svg width="60" height="60" viewBox="0 0 60 60" fill="none" xmlns="http://www.w3.org/2000/svg">
<path d="M39.6516 39.6514C36.6141 38.8444 34.3136 39.4002 30.9891 40.7202L24.5953 47.1139C21.2766 50.4327 15.8953 50.4327 12.5953 47.1139C9.27656 43.7952 9.27656 38.4139 12.5953 35.1139L18.9891 28.7202H20.7167L25.1953 25.2139C27.6516 24.9514 30.2203 25.7202 32.0953 27.6139C33.9703 29.5077 34.7578 32.0577 34.4953 34.5139C35.8419 35.9824 37.6401 36.2959 39.0651 34.8709L40.7016 31.0077C40.1953 28.1202 38.8266 25.3452 36.5953 23.1139C34.3641 20.8827 31.5891 19.5139 28.7016 19.0077L24.5953 17.7446L20.0578 20.0577C18.4453 20.7702 16.9266 21.7827 15.5953 23.1139L8.09531 30.6139C2.30156 36.4077 2.30156 45.8389 8.09531 51.6327C13.8891 57.4264 23.3203 57.4264 29.1141 51.6327L36.6141 44.1327C37.9266 42.8014 38.9391 41.2827 39.6516 39.6514Z" fill="#9B9B9B"/>
<path d="M51.6141 8.09531C45.8203 2.30156 36.3891 2.30156 30.5953 8.09531L23.0953 15.5953C21.7828 16.9266 20.7703 18.4453 20.0578 20.0578C22.7953 18.8391 25.8141 18.4828 28.7203 18.9891L35.1141 12.5953C38.4328 9.27656 43.8141 9.27656 47.1141 12.5953C50.4141 15.9141 50.4328 21.2953 47.1141 24.5953L40.7203 30.9891L39.6141 32.0953C38.1891 33.5203 36.3703 34.2891 34.5141 34.4953C32.0578 34.7578 29.4891 33.9891 27.6141 32.0953C25.7391 30.2016 24.9516 27.6516 25.2141 25.1953C23.3391 25.4016 21.5391 26.1703 20.1141 27.5953L19.0078 28.7016C19.5141 31.5891 20.8828 34.3641 23.1141 36.5953C25.3453 38.8266 28.1203 40.1953 31.0078 40.7016C33.9141 41.2078 36.9328 40.8516 39.6703 39.6328C41.2828 38.9203 42.8016 37.9078 44.1328 36.5766L51.6328 29.0766C57.4078 23.3203 57.4078 13.8891 51.6141 8.09531Z" fill="#BEBEBE"/>
</svg>
