<svg width="60" height="60" viewBox="0 0 60 60" fill="none" xmlns="http://www.w3.org/2000/svg">
<path d="M31.9897 4.87824C32.9516 4.1754 34.1398 3.75 35.4411 3.75C38.6473 3.75 41.25 6.3024 41.25 9.44666V11.25H45V10.3125C45 7.72367 47.0987 5.625 49.6875 5.625C53.4375 5.625 58.125 7.5 58.125 15C58.125 21 52.5 23.7501 49.6875 24.375C41.5626 23.7501 27.375 22.5 35.625 22.5H24.375C32.625 22.5 18.4375 23.7501 10.3125 24.375C7.5 23.7501 1.875 21 1.875 15C1.875 7.5 6.5625 5.625 10.3125 5.625C12.9013 5.625 15 7.72367 15 10.3125V11.25H18.75V9.44666C18.75 6.3024 21.3527 3.75 24.5589 3.75C25.8602 3.75 27.0484 4.1754 28.0103 4.87824C29.1041 5.95099 30.8959 5.95099 31.9897 4.87824Z" fill="#6D4534"/>
<path d="M13.639 19.1779C17.2774 20.8999 22.6386 22.5 30 22.5C37.3616 22.5 42.723 20.8997 46.3614 19.1777C50.4557 23.286 52.5 29.137 52.5 35.625C52.5 48.0602 44.9938 58.125 30 58.125C15.0063 58.125 7.5 48.0602 7.5 35.625C7.5 29.1308 9.54724 23.2832 13.639 19.1779Z" fill="#FFB02E"/>
<path d="M28.125 27.1875C28.125 30.8119 25.1869 33.75 21.5625 33.75C17.9381 33.75 15 30.8119 15 27.1875C15 23.5631 17.9381 20.625 21.5625 20.625C25.1869 20.625 28.125 23.5631 28.125 27.1875Z" fill="white"/>
<path d="M45 27.1875C45 30.8119 42.0619 33.75 38.4375 33.75C34.8131 33.75 31.875 30.8119 31.875 27.1875C31.875 23.5631 34.8131 20.625 38.4375 20.625C42.0619 20.625 45 23.5631 45 27.1875Z" fill="white"/>
<path d="M27.1875 28.125C27.1875 30.7138 25.0888 32.8125 22.5 32.8125C19.9112 32.8125 17.8125 30.7138 17.8125 28.125C17.8125 25.5362 19.9112 23.4375 22.5 23.4375C25.0888 23.4375 27.1875 25.5362 27.1875 28.125Z" fill="#402A32"/>
<path d="M42.1875 28.125C42.1875 30.7138 40.0888 32.8125 37.5 32.8125C34.9112 32.8125 32.8125 30.7138 32.8125 28.125C32.8125 25.5362 34.9112 23.4375 37.5 23.4375C40.0888 23.4375 42.1875 25.5362 42.1875 28.125Z" fill="#402A32"/>
<path d="M45.0006 11.25H15.0007V13.125C14.7838 15.2939 15.4099 18.9682 18.5717 21.0135C21.6601 21.888 25.4478 22.5 30.0006 22.5C34.5535 22.5 38.3414 21.888 41.4297 21.0135C44.5915 18.9682 45.2176 15.2939 45.0006 13.125V11.25Z" fill="#8C5543"/>
<path d="M18.75 9.375H41.25V11.25H18.75V9.375Z" fill="#A56953"/>
<path d="M30 52.5C15 52.5 15 37.5 15 37.5H45C45 37.5 45 52.5 30 52.5Z" fill="#BB1D80"/>
<path d="M16.875 38.4375V37.5H43.125V38.4375C43.125 39.4731 42.2856 40.3125 41.25 40.3125H18.75C17.7145 40.3125 16.875 39.4731 16.875 38.4375Z" fill="white"/>
</svg>
