<svg width="60" height="60" viewBox="0 0 60 60" fill="none" xmlns="http://www.w3.org/2000/svg">
<path d="M8.31997 49.8293C8.01344 49.8293 7.76562 49.5815 7.76562 49.2749V36.3465C7.76562 30.3485 12.6439 25.4702 18.6419 25.4702H37.6835C41.8662 25.4702 45.7271 27.9268 47.525 31.729C47.6554 32.0051 47.538 32.3355 47.2597 32.4682C46.9836 32.5986 46.6532 32.4812 46.5206 32.2029C44.9054 28.7877 41.4379 26.5789 37.6813 26.5789H18.6397C13.2527 26.5789 8.87216 30.9616 8.87216 36.3465V49.2749C8.87216 49.5815 8.62432 49.8293 8.31779 49.8293H8.31997Z" fill="#262626"/>
<path d="M28.1636 21.0704C22.994 21.0704 18.7896 16.866 18.7896 11.6963C18.7896 6.52668 22.994 2.32227 28.1636 2.32227C33.3333 2.32227 37.5377 6.52668 37.5377 11.6963C37.5377 16.866 33.3333 21.0704 28.1636 21.0704ZM28.1636 3.43316C23.607 3.43316 19.8983 7.13973 19.8983 11.6985C19.8983 16.2573 23.6048 19.9639 28.1636 19.9639C32.7224 19.9639 36.429 16.2573 36.429 11.6985C36.429 7.13973 32.7224 3.43316 28.1636 3.43316Z" fill="#262626"/>
<path d="M47.1364 57.6778H26.6861C24.6773 57.6778 22.973 56.1104 22.8056 54.1082L21.5991 39.6362C21.5077 38.5536 21.8795 37.4753 22.6143 36.6774C23.3491 35.8774 24.3926 35.4209 25.4795 35.4209H48.3408C49.4278 35.4209 50.4712 35.8796 51.206 36.6774C51.9408 37.4753 52.3104 38.5557 52.2213 39.6362L51.0147 54.1082C50.8473 56.1104 49.143 57.6778 47.1342 57.6778H47.1364ZM25.4795 36.5274C24.6904 36.5274 23.9643 36.847 23.4295 37.4275C22.8969 38.0079 22.6382 38.7579 22.7034 39.5449L23.91 54.0169C24.0295 55.4495 25.2469 56.5712 26.6839 56.5712H47.1342C48.5712 56.5712 49.7908 55.4495 49.9082 54.0169L51.1147 39.5449C51.1799 38.7601 50.9234 38.0079 50.3886 37.4275C49.8538 36.847 49.1278 36.5274 48.3386 36.5274H25.4774H25.4795Z" fill="#262626"/>
<path d="M36.9121 49.8926C35.0664 49.8926 33.5664 48.3925 33.5664 46.5469C33.5664 44.7012 35.0664 43.2012 36.9121 43.2012C37.2186 43.2012 37.4665 43.449 37.4665 43.7555C37.4665 44.0621 37.2186 44.3099 36.9121 44.3099C35.6795 44.3099 34.6751 45.3142 34.6751 46.5469C34.6751 47.7795 35.6795 48.7839 36.9121 48.7839C37.2186 48.7839 37.4665 49.0317 37.4665 49.3382C37.4665 49.6447 37.2186 49.8926 36.9121 49.8926Z" fill="#262626"/>
</svg>
