<svg width="60" height="60" viewBox="0 0 60 60" fill="none" xmlns="http://www.w3.org/2000/svg">
<path d="M19.7239 13.2219C19.1747 12.995 18.743 12.5599 18.5272 12.0303L16.7419 7.98234C16.4083 7.33922 15.447 7.33922 15.1331 7.98234L13.3478 12.0303C13.1124 12.5599 12.6808 12.976 12.1511 13.2219L9.87529 14.2055C9.20824 14.5271 9.20824 15.454 9.87529 15.7755L12.1511 16.7591C12.7004 16.9861 13.132 17.4212 13.3478 17.9508L15.1331 22.0176C15.4667 22.6609 16.428 22.6609 16.7419 22.0176L18.5272 17.9508C18.7626 17.4212 19.1942 17.005 19.7239 16.7591L21.9998 15.7755C22.6667 15.454 22.6667 14.5271 21.9998 14.2055L19.7239 13.2219Z" fill="#F9C23C"/>
<path d="M47.952 25.4149C46.3209 24.6887 45.0311 23.3511 44.3484 21.7078L38.9807 9.01919C37.9944 6.9936 35.1306 6.9936 34.1443 9.01919L28.7766 21.7078C28.0749 23.3511 26.7851 24.6887 25.173 25.4149L18.3829 28.4916C16.3724 29.4851 16.3724 32.3899 18.3829 33.3834L25.173 36.4601C26.8041 37.1863 28.0939 38.5239 28.7766 40.1672L34.1443 52.8559C35.1306 54.8814 37.9944 54.8814 38.9807 52.8559L44.3484 40.1672C45.0501 38.5239 46.3399 37.1863 47.952 36.4601L54.7421 33.3834C56.7527 32.3899 56.7527 29.4851 54.7421 28.4916L47.952 25.4149Z" fill="#F9C23C"/>
<path d="M15.5271 38.1195C15.8282 38.8541 16.3775 39.4233 17.0684 39.7539L19.974 41.1131C20.8419 41.5539 20.8419 42.821 19.974 43.2618L17.0684 44.621C16.3775 44.9516 15.8282 45.5392 15.5271 46.2555L13.2239 51.8388C12.7987 52.7203 11.5763 52.7203 11.1511 51.8388L8.84794 46.2555C8.54676 45.5208 7.99754 44.9516 7.3066 44.621L4.40108 43.2618C3.53297 42.821 3.53297 41.5539 4.40108 41.1131L7.3066 39.7539C7.99754 39.4233 8.54676 38.8357 8.84794 38.1195L11.1511 32.5361C11.5763 31.6546 12.7987 31.6546 13.2239 32.5361L15.5271 38.1195Z" fill="#F9C23C"/>
</svg>
