<svg width="60" height="60" viewBox="0 0 60 60" fill="none" xmlns="http://www.w3.org/2000/svg">
<path d="M50.0981 43.372H48.509C48.2024 43.372 47.9547 43.1241 47.9547 42.8176C47.9547 42.5111 48.2024 42.2633 48.509 42.2633H50.0981C51.2286 42.2633 52.1482 41.3437 52.1482 40.2132V8.37359C52.1482 7.24314 51.2286 6.32356 50.0981 6.32356H9.90622C8.77359 6.32356 7.85179 7.24314 7.85179 8.37359V40.2132C7.85179 41.3437 8.77359 42.2633 9.90622 42.2633H28.3325C28.6391 42.2633 28.887 42.5111 28.887 42.8176C28.887 43.1241 28.6391 43.372 28.3325 43.372H9.90622C8.16271 43.372 6.74316 41.9546 6.74316 40.2132V8.37359C6.74316 6.63008 8.16271 5.21484 9.90622 5.21484H50.0981C51.8395 5.21484 53.2569 6.63226 53.2569 8.37359V40.2132C53.2569 41.9567 51.8395 43.372 50.0981 43.372Z" fill="#262626"/>
<path d="M36.4132 12.513H23.5934C23.2869 12.513 23.0391 12.2652 23.0391 11.9587C23.0391 11.6521 23.2869 11.4043 23.5934 11.4043H36.4132C36.7197 11.4043 36.9675 11.6521 36.9675 11.9587C36.9675 12.2652 36.7197 12.513 36.4132 12.513Z" fill="#262626"/>
<path d="M47.807 21.2479H15.963C15.6565 21.2479 15.4087 21 15.4087 20.6935C15.4087 20.387 15.6565 20.1392 15.963 20.1392H47.807C48.1135 20.1392 48.3614 20.387 48.3614 20.6935C48.3614 21 48.1135 21.2479 47.807 21.2479Z" fill="#262626"/>
<path d="M47.807 28.1824H41.7678C41.4613 28.1824 41.2134 27.9346 41.2134 27.6281C41.2134 27.3216 41.4613 27.0737 41.7678 27.0737H47.807C48.1135 27.0737 48.3614 27.3216 48.3614 27.6281C48.3614 27.9346 48.1135 28.1824 47.807 28.1824Z" fill="#262626"/>
<path d="M35.072 28.1824H11.5261C11.2196 28.1824 10.9717 27.9346 10.9717 27.6281C10.9717 27.3216 11.2196 27.0737 11.5261 27.0737H35.072C35.3786 27.0737 35.6265 27.3216 35.6265 27.6281C35.6265 27.9346 35.3786 28.1824 35.072 28.1824Z" fill="#262626"/>
<path d="M27.9434 35.1199H11.5279C11.2214 35.1199 10.9736 34.8721 10.9736 34.5656C10.9736 34.2591 11.2214 34.0112 11.5279 34.0112H27.9434C28.2499 34.0112 28.4978 34.2591 28.4978 34.5656C28.4978 34.8721 28.2499 35.1199 27.9434 35.1199Z" fill="#262626"/>
<path d="M38.422 46.159C34.0372 46.159 30.4697 42.5915 30.4697 38.2067C30.4697 33.8218 34.0372 30.2544 38.422 30.2544C42.8069 30.2544 46.3744 33.8218 46.3744 38.2067C46.3744 42.5915 42.8069 46.159 38.422 46.159ZM38.422 31.3609C34.6481 31.3609 31.5785 34.4306 31.5785 38.2045C31.5785 41.9785 34.6481 45.0481 38.422 45.0481C42.196 45.0481 45.2656 41.9785 45.2656 38.2045C45.2656 34.4306 42.196 31.3609 38.422 31.3609Z" fill="#262626"/>
<path d="M38.4221 42.4633C36.0743 42.4633 34.1655 40.5524 34.1655 38.2067C34.1655 37.9002 34.4134 37.6523 34.7199 37.6523C35.0265 37.6523 35.2743 37.9002 35.2743 38.2067C35.2743 39.9437 36.6873 41.3546 38.4221 41.3546C38.7287 41.3546 38.9764 41.6024 38.9764 41.9089C38.9764 42.2155 38.7287 42.4633 38.4221 42.4633Z" fill="#262626"/>
<path d="M42.7358 54.7852C42.6575 54.7852 42.5793 54.7678 42.5054 54.7352L38.4227 52.8808L34.34 54.7352C34.1683 54.8134 33.9705 54.8004 33.8096 54.696C33.6509 54.5939 33.5552 54.4178 33.5552 54.2308V48.672C33.5552 48.3655 33.8031 48.1177 34.1096 48.1177C34.4161 48.1177 34.6639 48.3655 34.6639 48.672V53.3699L38.1922 51.7656C38.3379 51.6982 38.5052 51.6982 38.6509 51.7656L42.1793 53.3699V48.672C42.1793 48.3655 42.4271 48.1177 42.7336 48.1177C43.0402 48.1177 43.2879 48.3655 43.2879 48.672V54.2308C43.2879 54.4199 43.1923 54.596 43.0336 54.696C42.9423 54.7547 42.838 54.7852 42.7336 54.7852H42.7358Z" fill="#262626"/>
</svg>
