<svg width="60" height="60" viewBox="0 0 60 60" fill="none" xmlns="http://www.w3.org/2000/svg">
<path d="M50.8481 44.2469H9.15181C6.40176 44.2469 4.1626 42.0077 4.1626 39.2577V11.6137C4.1626 8.86368 6.40176 6.62451 9.15181 6.62451H50.8481C53.5982 6.62451 55.8373 8.86368 55.8373 11.6137V39.2577C55.8373 42.0077 53.5982 44.2469 50.8481 44.2469ZM9.15181 7.73323C7.01264 7.73323 5.27131 9.47456 5.27131 11.6137V39.2577C5.27131 41.3968 7.01264 43.1381 9.15181 43.1381H50.8481C52.9873 43.1381 54.7286 41.3968 54.7286 39.2577V11.6137C54.7286 9.47456 52.9873 7.73323 50.8481 7.73323H9.15181Z" fill="#262626"/>
<path d="M37.0267 53.3753H22.9743C22.6678 53.3753 22.4199 53.1275 22.4199 52.821C22.4199 52.5144 22.6678 52.2666 22.9743 52.2666H37.0267C37.3332 52.2666 37.581 52.5144 37.581 52.821C37.581 53.1275 37.3332 53.3753 37.0267 53.3753Z" fill="#262626"/>
<path d="M29.9997 53.3754C29.6931 53.3754 29.4453 53.1275 29.4453 52.821V47.5231C29.4453 47.2166 29.6931 46.9688 29.9997 46.9688C30.3062 46.9688 30.554 47.2166 30.554 47.5231V52.821C30.554 53.1275 30.3062 53.3754 29.9997 53.3754Z" fill="#262626"/>
<path d="M39.9789 18.2055H20.022C19.1698 18.2055 18.4785 17.512 18.4785 16.662V14.8228C18.4785 13.9706 19.172 13.2793 20.022 13.2793H39.9789C40.831 13.2793 41.5224 13.9728 41.5224 14.8228V16.662C41.5224 17.5141 40.8289 18.2055 39.9789 18.2055ZM20.022 14.3858C19.7829 14.3858 19.5872 14.5815 19.5872 14.8206V16.6598C19.5872 16.8989 19.7829 17.0946 20.022 17.0946H39.9789C40.218 17.0946 40.4137 16.8989 40.4137 16.6598V14.8206C40.4137 14.5815 40.218 14.3858 39.9789 14.3858H20.022Z" fill="#262626"/>
<path d="M16.9997 37.869C13.0301 37.869 9.80176 34.6407 9.80176 30.6711C9.80176 26.7015 13.0301 23.4731 16.9997 23.4731C20.9693 23.4731 24.1976 26.7015 24.1976 30.6711C24.1976 34.6407 20.9693 37.869 16.9997 37.869ZM16.9997 24.584C13.6431 24.584 10.9105 27.3167 10.9105 30.6733C10.9105 34.0298 13.641 36.7625 16.9997 36.7625C20.3584 36.7625 23.0889 34.032 23.0889 30.6733C23.0889 27.3145 20.3584 24.584 16.9997 24.584Z" fill="#262626"/>
<path d="M49.6431 27.4686H32.7668C32.4602 27.4686 32.2124 27.2207 32.2124 26.9142C32.2124 26.6077 32.4602 26.3599 32.7668 26.3599H49.6431C49.9496 26.3599 50.1975 26.6077 50.1975 26.9142C50.1975 27.2207 49.9496 27.4686 49.6431 27.4686Z" fill="#262626"/>
<path d="M43.8539 33.9905H32.7668C32.4602 33.9905 32.2124 33.7427 32.2124 33.4362C32.2124 33.1297 32.4602 32.8818 32.7668 32.8818H43.8539C44.1604 32.8818 44.4083 33.1297 44.4083 33.4362C44.4083 33.7427 44.1604 33.9905 43.8539 33.9905Z" fill="#262626"/>
</svg>
