<svg width="60" height="60" viewBox="0 0 60 60" fill="none" xmlns="http://www.w3.org/2000/svg">
<path d="M38.3996 53.3013H10.9839C9.11428 53.3013 7.59473 51.7817 7.59473 49.9121V46.9686C7.59473 45.099 9.11428 43.5794 10.9839 43.5794H24.3211C24.0993 42.4598 23.9711 41.2228 23.9406 39.8967C23.845 35.8532 25.4124 31.8901 28.2408 29.0248C31.006 26.2226 34.6778 24.7074 38.5583 24.7443C46.4497 24.8291 52.8694 31.3183 52.8694 39.2119C52.8694 48.6947 48.1367 53.3035 38.4017 53.3035L38.3996 53.3013ZM10.9839 44.6881C9.72734 44.6881 8.70346 45.7099 8.70346 46.9686V49.9121C8.70346 51.1687 9.72734 52.1926 10.9839 52.1926H38.3996C47.6389 52.1926 51.7585 48.1882 51.7585 39.2098C51.7585 31.9205 45.8301 25.9291 38.5452 25.8508C34.9452 25.8139 31.5799 27.2161 29.0276 29.8031C26.408 32.4575 24.9581 36.1271 25.0472 39.8706C25.0842 41.3946 25.2515 42.7859 25.5472 44.0055C25.5863 44.1707 25.5472 44.3446 25.445 44.4794C25.3406 44.6142 25.1798 44.6903 25.0102 44.6903H10.9839V44.6881Z" fill="#262626"/>
<path d="M38.5522 44.4423C35.563 44.4423 33.1304 42.0097 33.1304 39.0205C33.1304 36.0313 35.563 33.5986 38.5522 33.5986C41.5414 33.5986 43.974 36.0313 43.974 39.0205C43.974 42.0097 41.5414 44.4423 38.5522 44.4423ZM38.5522 34.7073C36.1739 34.7073 34.2391 36.6422 34.2391 39.0205C34.2391 41.3988 36.1739 43.3336 38.5522 43.3336C40.9305 43.3336 42.8654 41.3988 42.8654 39.0205C42.8654 36.6422 40.9305 34.7073 38.5522 34.7073Z" fill="#262626"/>
<path d="M41.7086 26.2445C41.6847 26.2445 41.6587 26.2445 41.6326 26.2401C41.3304 26.1988 41.1173 25.9184 41.1586 25.6162C41.1934 25.3684 41.2108 25.1053 41.2108 24.8379C41.2108 22.677 39.9934 20.8509 38.552 20.8509C37.1107 20.8509 35.8933 22.677 35.8933 24.8379C35.8933 25.0684 35.9085 25.3097 35.9389 25.5706C35.9737 25.8749 35.7564 26.1488 35.452 26.1858C35.1542 26.2227 34.8737 26.0032 34.8368 25.6988C34.802 25.3945 34.7847 25.1119 34.7847 24.8379C34.7847 22.0292 36.4737 19.7422 38.552 19.7422C40.6303 19.7422 42.3195 22.027 42.3195 24.8379C42.3195 25.1553 42.3 25.4684 42.2587 25.7662C42.2217 26.0445 41.9826 26.2445 41.7108 26.2445H41.7086Z" fill="#262626"/>
<path d="M17.0886 29.1467C14.3277 29.1467 11.6907 27.9662 9.85375 25.9053C5.94064 21.5161 6.28625 14.7116 10.6211 10.7377L12.8799 8.6659C14.2712 7.39631 16.069 6.69629 17.9451 6.69629C20.1365 6.69629 22.2104 7.64848 23.6366 9.30503C24.4105 10.2072 25.5409 10.7246 26.7344 10.7246C27.1388 10.7246 27.5388 10.6659 27.9193 10.5485C30.1519 9.86591 32.5084 10.1007 34.5519 11.2051C36.5868 12.3051 38.1194 14.1942 38.7585 16.3878C38.8433 16.6812 38.6759 16.9899 38.3802 17.0747C38.0867 17.1617 37.7781 16.9899 37.6933 16.6965C37.1368 14.7856 35.7998 13.1377 34.0259 12.179C32.2432 11.2159 30.191 11.0116 28.2431 11.6072C27.7562 11.7551 27.2497 11.8312 26.7344 11.8312C25.217 11.8312 23.7822 11.1725 22.7952 10.0246C21.58 8.61155 19.8125 7.80066 17.9451 7.80066C16.3473 7.80066 14.8125 8.39633 13.6277 9.47895L11.3689 11.5485C7.47756 15.116 7.16888 21.2204 10.6798 25.1596C12.3081 26.9836 14.6429 28.0292 17.0886 28.0292C19.0256 28.0292 20.8583 27.3945 22.3888 26.1966L26.4693 22.99C28.0649 21.7357 30.0671 21.0813 32.0932 21.1465C32.3997 21.1574 32.6389 21.4117 32.6302 21.7183C32.6193 22.0248 32.3694 22.2748 32.0585 22.2553C30.2824 22.2009 28.5475 22.7683 27.1562 23.8618L23.0735 27.0684C21.3713 28.4032 19.2452 29.138 17.0886 29.138V29.1467Z" fill="#262626"/>
</svg>
