<svg width="60" height="60" viewBox="0 0 60 60" fill="none" xmlns="http://www.w3.org/2000/svg">
<path d="M35.1898 21.5813L25.4023 5.49377C24.7648 4.40627 23.621 3.75 22.3648 3.75H10.0085C7.28977 3.75 5.58352 6.67502 6.91477 9.03752C9.38977 13.4063 12.8773 17.1375 17.096 19.875C18.521 20.9813 20.2835 21.5813 22.1023 21.5813H35.1898Z" fill="#0074BA"/>
<path d="M49.984 3.75H37.6277C36.3715 3.75 35.2277 4.40627 34.5902 5.49377L24.8027 21.5813H37.909C39.7277 21.5813 41.4715 20.9813 42.9152 19.875C47.134 17.1375 50.6215 13.425 53.0965 9.03752C54.409 6.67502 52.7027 3.75 49.984 3.75Z" fill="#00A6ED"/>
<path d="M29.9813 56.2498C40.378 56.2498 48.8063 47.6117 48.8063 36.9561C48.8063 26.3004 40.378 17.6624 29.9813 17.6624C19.5844 17.6624 11.1562 26.3004 11.1562 36.9561C11.1562 47.6117 19.5844 56.2498 29.9813 56.2498Z" fill="#FFB02E"/>
<path d="M26.3916 30.0769C26.3916 29.0413 27.231 28.2019 28.2666 28.2019H29.9993C31.0349 28.2019 31.8743 29.0413 31.8743 30.0769V43.125C31.8743 44.1606 31.0349 45 29.9993 45C28.9637 45 28.1243 44.1606 28.1243 43.125V31.9467C27.1553 31.8739 26.3916 31.0647 26.3916 30.0769Z" fill="#6D4534"/>
<path d="M29.9995 53.9248C25.5745 53.9248 21.412 52.1623 18.2996 48.9561C15.1684 45.7498 13.4434 41.4936 13.4434 36.9561C13.4434 32.4186 15.1684 28.1623 18.2996 24.9561C24.7495 18.3372 35.2495 18.3372 41.7183 24.9561C48.1683 31.5748 48.1683 42.3373 41.7183 48.9561C38.5683 52.1623 34.4058 53.9248 29.9995 53.9248ZM29.9808 22.2936C26.3245 22.2936 22.6495 23.7186 19.8745 26.5873C17.1746 29.3623 15.6934 33.0373 15.6934 36.9561C15.6934 40.8748 17.1746 44.5498 19.8745 47.3248C22.5745 50.0998 26.1745 51.6186 29.9808 51.6186C33.8058 51.6186 37.387 50.0998 40.087 47.3248C45.6558 41.6061 45.6558 32.3061 40.087 26.5873C37.312 23.7186 33.6558 22.2936 29.9808 22.2936Z" fill="#FCD53F"/>
</svg>
