<svg width="60" height="60" viewBox="0 0 60 60" fill="none" xmlns="http://www.w3.org/2000/svg">
<path d="M47.1708 38.7325H28.8031C28.4966 38.7325 28.2488 38.4847 28.2488 38.1781C28.2488 37.8716 28.4966 37.6238 28.8031 37.6238H47.1708C49.0578 37.6238 50.5948 36.089 50.5948 34.1998V15.9126C50.5948 14.0256 49.06 12.4886 47.1708 12.4886H22.6508C20.7639 12.4886 19.2269 14.0234 19.2269 15.9126V23.6801C19.2269 23.9866 18.979 24.2344 18.6725 24.2344C18.366 24.2344 18.1182 23.9866 18.1182 23.6801V15.9126C18.1182 13.4147 20.1508 11.3799 22.6508 11.3799H47.1708C49.6687 11.3799 51.7035 13.4125 51.7035 15.9126V34.1998C51.7035 36.6977 49.6708 38.7325 47.1708 38.7325Z" fill="#262626"/>
<path d="M40.2813 43.0198H32.966C32.6594 43.0198 32.4116 42.772 32.4116 42.4655C32.4116 42.159 32.6594 41.9111 32.966 41.9111H40.2813C40.5878 41.9111 40.8357 42.159 40.8357 42.4655C40.8357 42.772 40.5878 43.0198 40.2813 43.0198Z" fill="#262626"/>
<path d="M34.9098 24.802C33.2337 24.802 31.8706 23.4389 31.8706 21.7628C31.8706 20.0867 33.2337 18.7236 34.9098 18.7236C36.5859 18.7236 37.949 20.0867 37.949 21.7628C37.949 23.4389 36.5859 24.802 34.9098 24.802ZM34.9098 19.8323C33.8446 19.8323 32.9793 20.6997 32.9793 21.7628C32.9793 22.8259 33.8467 23.6933 34.9098 23.6933C35.9728 23.6933 36.8403 22.8259 36.8403 21.7628C36.8403 20.6997 35.9728 19.8323 34.9098 19.8323Z" fill="#262626"/>
<path d="M34.9094 31.9298C31.9572 31.9298 28.9702 31.0319 28.9702 29.3167C28.9702 27.6014 31.9594 26.7036 34.9094 26.7036C37.8595 26.7036 40.8487 27.6014 40.8487 29.3167C40.8487 31.0319 37.8595 31.9298 34.9094 31.9298ZM34.9094 27.8123C32.005 27.8123 30.0789 28.7167 30.0789 29.3167C30.0789 29.9167 32.005 30.8211 34.9094 30.8211C37.8138 30.8211 39.74 29.9167 39.74 29.3167C39.74 28.7167 37.8138 27.8123 34.9094 27.8123Z" fill="#262626"/>
<path d="M20.7071 39.8087C16.9962 39.8087 13.9766 36.7891 13.9766 33.0782C13.9766 29.3673 16.9962 26.3477 20.7071 26.3477C24.418 26.3477 27.4376 29.3673 27.4376 33.0782C27.4376 36.7891 24.418 39.8087 20.7071 39.8087ZM20.7071 27.4542C17.6071 27.4542 15.0853 29.976 15.0853 33.076C15.0853 36.1761 17.6071 38.6978 20.7071 38.6978C23.8072 38.6978 26.3289 36.1761 26.3289 33.076C26.3289 29.976 23.8072 27.4542 20.7071 27.4542Z" fill="#262626"/>
<path d="M32.5598 48.6203C32.2533 48.6203 32.0055 48.3725 32.0055 48.066C32.0055 45.2898 26.8315 42.9442 20.7053 42.9442C14.5791 42.9442 9.4051 45.2898 9.4051 48.066C9.4051 48.3725 9.15727 48.6203 8.85075 48.6203C8.54422 48.6203 8.29639 48.3725 8.29639 48.066C8.29639 44.5724 13.7465 41.8354 20.7053 41.8354C27.6641 41.8354 33.1142 44.5724 33.1142 48.066C33.1142 48.3725 32.8664 48.6203 32.5598 48.6203Z" fill="#262626"/>
</svg>
