<svg width="60" height="60" viewBox="0 0 60 60" fill="none" xmlns="http://www.w3.org/2000/svg">
<path d="M31.191 14.2227L39.647 18.9746L44.4493 27.4809L17.5678 54.3624L8.45186 49.5427L4.30957 41.1041L31.191 14.2227Z" fill="#FF822D"/>
<path d="M2.60547 52.6222L3.697 55.0818L6.05009 56.0669L17.5446 54.332L4.34031 41.1277L2.60547 52.6222Z" fill="#FFCE7C"/>
<path d="M1.99316 56.6793L2.60548 52.6223L6.05006 56.0669L1.99316 56.6793Z" fill="#402A32"/>
<path d="M41.7677 3.64571C43.2323 2.18125 45.6066 2.18125 47.071 3.64571L55.026 11.6007C56.4904 13.0651 56.4904 15.4395 55.026 16.904L48.397 23.533L39.9085 19.2878L35.1387 10.2748L41.7677 3.64571Z" fill="#F92F60"/>
<path d="M35.1386 10.2749L48.3969 23.5331L44.4193 27.5107L31.1611 14.2524L35.1386 10.2749Z" fill="#D3D3D3"/>
</svg>
