<svg width="60" height="60" viewBox="0 0 60 60" fill="none" xmlns="http://www.w3.org/2000/svg">
<path d="M33.2468 55.0144H11.4508C8.63114 55.0144 6.33545 52.7187 6.33545 49.8991V10.1007C6.33545 7.28104 8.63114 4.98535 11.4508 4.98535H33.2468C36.0685 4.98535 38.362 7.28104 38.362 10.1007V14.2094C38.362 14.5159 38.1142 14.7638 37.8077 14.7638C37.5012 14.7638 37.2533 14.5159 37.2533 14.2094V10.1007C37.2533 7.89192 35.4555 6.09407 33.2468 6.09407H11.4508C9.24202 6.09407 7.44413 7.89192 7.44413 10.1007V49.8969C7.44413 52.1057 9.24202 53.9035 11.4508 53.9035H33.2468C35.4555 53.9035 37.2533 52.1057 37.2533 49.8969V46.4121C37.2533 46.1056 37.5012 45.8577 37.8077 45.8577C38.1142 45.8577 38.362 46.1056 38.362 46.4121V49.8969C38.362 52.7187 36.0664 55.0122 33.2468 55.0122V55.0144Z" fill="#262626"/>
<path d="M23.6796 50.9539H21.0187C20.7122 50.9539 20.4644 50.7061 20.4644 50.3996C20.4644 50.093 20.7122 49.8452 21.0187 49.8452H23.6796C23.9862 49.8452 24.2339 50.093 24.2339 50.3996C24.2339 50.7061 23.9862 50.9539 23.6796 50.9539Z" fill="#262626"/>
<path d="M24.6295 10.1551H20.0685C19.762 10.1551 19.5142 9.90727 19.5142 9.60074C19.5142 9.29422 19.762 9.04639 20.0685 9.04639H24.6295C24.936 9.04639 25.1838 9.29422 25.1838 9.60074C25.1838 9.90727 24.936 10.1551 24.6295 10.1551Z" fill="#262626"/>
<path d="M33.5623 43.5733C27.4622 43.5733 22.6816 40.8254 22.6816 37.3167C22.6816 33.8079 27.46 31.0601 33.5623 31.0601C39.6645 31.0601 44.4429 33.8079 44.4429 37.3167C44.4429 40.8254 39.6645 43.5733 33.5623 43.5733ZM33.5623 32.1709C28.2643 32.1709 23.7904 34.5275 23.7904 37.3189C23.7904 40.1102 28.2643 42.4668 33.5623 42.4668C38.8602 42.4668 43.3341 40.1102 43.3341 37.3189C43.3341 34.5275 38.8602 32.1709 33.5623 32.1709Z" fill="#262626"/>
<path d="M33.5619 28.5579C30.2162 28.5579 27.4966 25.8361 27.4966 22.4926C27.4966 19.149 30.2184 16.4272 33.5619 16.4272C36.9055 16.4272 39.6272 19.149 39.6272 22.4926C39.6272 25.8361 36.9055 28.5579 33.5619 28.5579ZM33.5619 17.536C30.8293 17.536 28.6053 19.7599 28.6053 22.4926C28.6053 25.2252 30.8293 27.4492 33.5619 27.4492C36.2946 27.4492 38.5185 25.2252 38.5185 22.4926C38.5185 19.7599 36.2946 17.536 33.5619 17.536Z" fill="#262626"/>
<path d="M46.0683 26.9467C46.0574 26.9467 46.0443 26.9467 46.0334 26.9467C45.7269 26.9271 45.4943 26.6641 45.5139 26.3597C45.6509 24.1227 44.4574 22.0009 42.4704 20.9575C42.1986 20.814 42.0943 20.4792 42.2377 20.2096C42.379 19.9379 42.716 19.8335 42.9856 19.977C45.3573 21.2227 46.7834 23.7553 46.6204 26.4293C46.603 26.7228 46.3574 26.9489 46.0683 26.9489V26.9467Z" fill="#262626"/>
<path d="M53.0886 27.3708C53.0777 27.3708 53.0647 27.3708 53.0538 27.3708C52.7473 27.3512 52.5147 27.0903 52.5343 26.7838C52.8408 21.7924 50.1756 17.0641 45.7472 14.7358C45.4755 14.5923 45.3711 14.2575 45.5146 13.9879C45.6581 13.7162 45.9907 13.6118 46.2624 13.7553C51.0755 16.2858 53.9712 21.4272 53.6386 26.8534C53.6212 27.1468 53.3756 27.3729 53.0865 27.3729L53.0886 27.3708Z" fill="#262626"/>
</svg>
