<svg width="60" height="60" viewBox="0 0 60 60" fill="none" xmlns="http://www.w3.org/2000/svg">
<path d="M42.1606 18.5254H17.2885C17.1906 18.5254 17.095 18.4993 17.0102 18.4515L8.15352 13.3296C7.98178 13.2296 7.87744 13.047 7.87744 12.8492C7.87744 12.6514 7.98178 12.4688 8.15352 12.3688L17.0102 7.24042C17.095 7.19259 17.1906 7.1665 17.2885 7.1665H42.1606C42.4671 7.1665 42.715 7.41433 42.715 7.72086V17.9732C42.715 18.2797 42.4671 18.5276 42.1606 18.5276V18.5254ZM17.4363 17.4167H41.6041V8.27304H17.4363L9.53616 12.847L17.4363 17.4145V17.4167Z" fill="#262626"/>
<path d="M35.1994 18.5254C34.8928 18.5254 34.645 18.2776 34.645 17.971V7.72086C34.645 7.41433 34.8928 7.1665 35.1994 7.1665C35.5059 7.1665 35.7537 7.41433 35.7537 7.72086V17.971C35.7537 18.2776 35.5059 18.5254 35.1994 18.5254Z" fill="#262626"/>
<path d="M17.2885 18.5261C17.1189 18.5261 16.9515 18.4478 16.8428 18.3021C16.6602 18.0565 16.7102 17.7087 16.9558 17.526L19.7994 15.4086L16.9558 13.2912C16.8145 13.1868 16.7319 13.0216 16.7319 12.8455C16.7319 12.6694 16.8145 12.5064 16.9558 12.3999L19.7994 10.2825L16.9558 8.16503C16.7102 7.98241 16.6602 7.63458 16.8428 7.38893C17.0254 7.14327 17.3733 7.09327 17.6189 7.27588L21.0603 9.83897C21.2016 9.94331 21.2842 10.1085 21.2842 10.2846C21.2842 10.4607 21.2016 10.6238 21.0603 10.7303L18.2167 12.8477L21.0603 14.9651C21.2016 15.0695 21.2842 15.2347 21.2842 15.4108C21.2842 15.5869 21.2016 15.7499 21.0603 15.8565L17.6189 18.4195C17.5189 18.4935 17.4037 18.5282 17.2885 18.5282V18.5261Z" fill="#262626"/>
<path d="M51.5687 42.6522H35.8163C35.5097 42.6522 35.2619 42.4043 35.2619 42.0978V25.0453H20.1595V31.1324C20.1595 31.4389 19.9117 31.6868 19.6051 31.6868C19.2986 31.6868 19.0508 31.4389 19.0508 31.1324V24.491C19.0508 24.1845 19.2986 23.9366 19.6051 23.9366H35.8163C36.1228 23.9366 36.3706 24.1845 36.3706 24.491V41.5434H51.0143V13.4017H45.8534C45.5469 13.4017 45.299 13.1539 45.299 12.8473C45.299 12.5408 45.5469 12.293 45.8534 12.293H51.5687C51.8752 12.293 52.1231 12.5408 52.1231 12.8473V42.0978C52.1231 42.4043 51.8752 42.6522 51.5687 42.6522Z" fill="#262626"/>
<path d="M22.5775 52.8336H16.6318C13.8817 52.8336 11.6426 50.5944 11.6426 47.8444V35.7094C11.6426 32.9594 13.8817 30.7202 16.6318 30.7202H22.5775C25.3276 30.7202 27.5667 32.9594 27.5667 35.7094V47.8444C27.5667 50.5944 25.3276 52.8336 22.5775 52.8336ZM16.6318 31.8289C14.4926 31.8289 12.7513 33.5703 12.7513 35.7094V47.8444C12.7513 49.9836 14.4926 51.7249 16.6318 51.7249H22.5775C24.7167 51.7249 26.458 49.9836 26.458 47.8444V35.7094C26.458 33.5703 24.7167 31.8289 22.5775 31.8289H16.6318Z" fill="#262626"/>
<path d="M19.6051 39.217C19.2986 39.217 19.0508 38.9692 19.0508 38.6627V35.2648C19.0508 34.9583 19.2986 34.7104 19.6051 34.7104C19.9117 34.7104 20.1595 34.9583 20.1595 35.2648V38.6627C20.1595 38.9692 19.9117 39.217 19.6051 39.217Z" fill="#262626"/>
</svg>
