<svg width="60" height="60" viewBox="0 0 60 60" fill="none" xmlns="http://www.w3.org/2000/svg">
<path d="M44.2933 40.1717L46.1586 42.0392C47.1658 43.0476 48.7886 43.0476 49.7959 42.0392L55.6903 36.1382C56.4366 35.3912 56.4366 34.1961 55.6903 33.4491L44.7596 22.5062C44.4238 22.17 44.4238 21.6472 44.7596 21.3111C44.9647 21.1057 45.2445 21.0309 45.5057 21.087C47.2777 21.3859 49.1617 20.8629 50.5234 19.4998C52.7805 17.2402 52.7617 13.5614 50.4675 11.3205L48.8632 9.6959L48.1357 9.93868C46.3078 9.39712 44.256 9.78928 42.7449 11.0965C41.1782 12.4597 40.5439 14.4578 40.8424 16.3252C40.8797 16.6053 40.8051 16.8667 40.5999 17.0721L40.5626 17.1095C40.2268 17.4456 39.7046 17.4456 39.3688 17.1095L28.4379 6.18521C27.6919 5.43826 26.4981 5.43826 25.7518 6.18521L19.9134 12.0301C19.7642 12.1795 19.6522 12.3476 19.5403 12.5157L19.1486 12.1235L17.7683 13.5054L19.9134 15.6529L19.9507 15.6902C20.4729 16.2131 21.1819 16.4932 21.9094 16.4559C23.5881 16.3812 25.3042 17.0348 26.5166 18.4353C28.3633 20.5641 28.3821 23.7947 26.5166 25.9423C24.3156 28.4818 20.4729 28.5939 18.1227 26.2597C16.9102 25.0459 16.3506 23.4399 16.4626 21.8526C16.4999 21.1243 16.2387 20.4148 15.7164 19.8919C15.6978 19.8546 15.6791 19.8358 15.6605 19.8172L13.8324 17.9871L13.0303 18.8089L13.3848 19.1636C12.8998 19.257 12.4521 19.4998 12.079 19.8731L6.18459 25.7741C5.43847 26.5211 5.43847 27.7162 6.18459 28.4632L17.1341 39.4249C17.4698 39.7609 17.4698 40.2838 17.1341 40.62C16.9289 40.8253 16.6491 40.9001 16.3879 40.8441C14.504 40.5266 12.4894 41.1427 11.1091 42.7114C9.24373 44.8402 9.22507 48.0894 11.0904 50.2371C13.2915 52.7766 17.1341 52.8887 19.4844 50.5357C20.8275 49.1912 21.3684 47.3239 21.0885 45.5872C21.0512 45.3071 21.1258 45.0456 21.3311 44.8402L21.3684 44.8029C21.7041 44.4667 22.2264 44.4667 22.5622 44.8029L33.4371 55.6897C34.1831 56.4367 35.3769 56.4367 36.1232 55.6897L41.9616 49.8448C42.9688 48.8364 42.9688 47.2117 41.9616 46.2034L41.9242 46.1661L40.2641 44.5041L39.5366 45.2323L39.7419 45.4378C38.1377 45.4378 36.5334 44.7842 35.3769 43.4584C33.5302 41.3295 33.5117 38.0989 35.3769 35.9514C37.578 33.4117 41.4206 33.2998 43.7709 35.634C44.7409 36.6051 45.3006 37.8562 45.4125 39.126L45.3752 39.0887L44.2933 40.1717Z" fill="#D3D3D3"/>
<path d="M40.8191 9.20481C39.2528 10.5685 38.6188 12.5673 38.9171 14.4354C38.9544 14.7156 38.8798 14.9772 38.6747 15.1827L38.6374 15.22C38.3018 15.5563 37.7798 15.5563 37.4441 15.22L26.5359 4.31042C25.7901 3.56319 24.5966 3.56319 23.8508 4.31042L18.0145 10.1575C17.0076 11.1663 17.0076 12.7915 18.0145 13.8003L18.0704 13.8376C18.5739 14.342 19.2825 14.6222 20.0096 14.5849C21.6879 14.5102 23.4034 15.164 24.6154 16.565C26.4613 18.6946 26.4801 21.9264 24.6154 24.0748C22.4151 26.6152 18.5739 26.7274 16.2245 24.3923C15.0311 23.1594 14.4717 21.5527 14.5649 19.965C14.6209 19.2364 14.3412 18.5078 13.8191 18.0035C12.8122 16.9947 11.1899 16.9947 10.183 18.0035L4.30939 23.8879C3.56354 24.6351 3.56354 25.8307 4.30939 26.5779L15.2548 37.5435C15.5905 37.8799 15.5905 38.4028 15.2548 38.7392C15.0497 38.9447 14.77 39.0193 14.509 38.9632C12.6257 38.6458 10.6119 39.2623 9.23205 40.8315C7.3674 42.9609 7.34877 46.2114 9.2134 48.3598C11.4137 50.9004 15.2548 51.0124 17.6043 48.6587C18.9469 47.3136 19.4876 45.4455 19.2079 43.7083C19.1706 43.428 19.2452 43.1664 19.4503 42.9609L19.4876 42.9236C19.8233 42.5874 20.3453 42.5874 20.6809 42.9236L31.5518 53.8146C32.2976 54.5617 33.4911 54.5617 34.2369 53.8146L40.0733 47.9676C41.0801 46.9588 41.0801 45.3336 40.0733 44.3248L40.0359 44.2873C39.5325 43.7829 38.8239 43.5028 38.0966 43.5401C36.4185 43.6149 34.7031 42.9609 33.4911 41.5599C31.6449 39.4303 31.6264 36.1986 33.4911 34.0502C35.6914 31.5098 39.5325 31.3976 41.8819 33.7328C43.0939 34.947 43.6534 36.5535 43.5414 38.1414C43.5041 38.8699 43.7651 39.5798 44.2873 40.1029C45.2942 41.1116 46.9164 41.1116 47.9233 40.1029L53.8157 34.1998C54.5614 33.4524 54.5614 32.2569 53.8157 31.5098L42.8888 20.5627C42.5531 20.2266 42.5531 19.7034 42.8888 19.3672C43.0939 19.1617 43.3736 19.0869 43.6346 19.143C45.4061 19.4419 47.2894 18.9187 48.6506 17.5551C50.9814 15.22 50.8881 11.3531 48.3336 9.14876C46.1706 7.3554 42.9448 7.3554 40.8191 9.20481Z" fill="#C3EF3C"/>
</svg>
