<svg width="60" height="60" viewBox="0 0 60 60" fill="none" xmlns="http://www.w3.org/2000/svg">
<path d="M25.6964 35.4065C23.8377 35.4065 22.3311 34.5065 21.979 33.2739H5.36784C5.06132 33.2739 4.81348 33.0261 4.81348 32.7195V6.62564C4.81348 6.31912 5.06132 6.07129 5.36784 6.07129H10.0353C10.3418 6.07129 10.5897 6.31912 10.5897 6.62564C10.5897 6.93217 10.3418 7.18 10.0353 7.18H5.92216V32.1652H22.455C22.7616 32.1652 23.0094 32.413 23.0094 32.7195C23.0094 33.5739 24.2399 34.2978 25.6943 34.2978C27.1486 34.2978 28.3769 33.5761 28.3769 32.7195C28.3769 32.413 28.6247 32.1652 28.9312 32.1652H45.4641V7.18H41.6314C41.3249 7.18 41.0771 6.93217 41.0771 6.62564C41.0771 6.31912 41.3249 6.07129 41.6314 6.07129H46.0185C46.325 6.07129 46.5728 6.31912 46.5728 6.62564V32.7195C46.5728 33.0261 46.325 33.2739 46.0185 33.2739H29.4073C29.0551 34.5065 27.5508 35.4065 25.6943 35.4065H25.6964Z" fill="#262626"/>
<path d="M25.8327 28.7911H10.0368C9.73026 28.7911 9.48242 28.5432 9.48242 28.2367V3.92546C9.48242 3.61893 9.73026 3.37109 10.0368 3.37109H21.7761C24.3175 3.37109 26.387 5.43852 26.387 7.98204V28.2367C26.387 28.5432 26.1392 28.7911 25.8327 28.7911ZM10.5911 27.6824H25.2783V7.98204C25.2783 6.05158 23.7066 4.47982 21.7761 4.47982H10.5911V27.6824Z" fill="#262626"/>
<path d="M41.631 28.7911H25.8307C25.5242 28.7911 25.2764 28.5432 25.2764 28.2367V7.98204C25.2764 5.4407 27.3438 3.37109 29.8873 3.37109H41.631C41.9375 3.37109 42.1853 3.61893 42.1853 3.92546V28.2367C42.1853 28.5432 41.9375 28.7911 41.631 28.7911ZM26.3873 27.6824H41.0767V4.47982H29.8873C27.9568 4.47982 26.3851 6.05158 26.3851 7.98204V27.6824H26.3873Z" fill="#262626"/>
<path d="M29.1139 42.7136C28.8074 42.7136 28.5596 42.4658 28.5596 42.1593V38.794C28.5596 38.4875 28.8074 38.2396 29.1139 38.2396H54.0773V26.7982H50.3665C50.0599 26.7982 49.8121 26.5503 49.8121 26.2438C49.8121 25.9373 50.0599 25.6895 50.3665 25.6895H54.6317C54.9382 25.6895 55.1861 25.9373 55.1861 26.2438V38.794C55.1861 39.1005 54.9382 39.3484 54.6317 39.3484H29.6683V42.1593C29.6683 42.4658 29.4205 42.7136 29.1139 42.7136Z" fill="#262626"/>
<path d="M29.1132 56.6287C26.2871 56.6287 23.9849 54.3286 23.9849 51.5025V47.4611C23.9849 44.635 26.2849 42.335 29.1132 42.335C31.9415 42.335 34.2415 44.635 34.2415 47.4611V51.5025C34.2415 54.3286 31.9415 56.6287 29.1132 56.6287ZM29.1132 43.4415C26.898 43.4415 25.0936 45.2437 25.0936 47.459V51.5003C25.0936 53.7156 26.8958 55.52 29.1132 55.52C31.3307 55.52 33.1329 53.7178 33.1329 51.5003V47.459C33.1329 45.2437 31.3307 43.4415 29.1132 43.4415Z" fill="#262626"/>
<path d="M29.1139 48.2787C28.8074 48.2787 28.5596 48.0309 28.5596 47.7244V46.3004C28.5596 45.9939 28.8074 45.7461 29.1139 45.7461C29.4205 45.7461 29.6683 45.9939 29.6683 46.3004V47.7244C29.6683 48.0309 29.4205 48.2787 29.1139 48.2787Z" fill="#262626"/>
</svg>
