<svg width="60" height="60" viewBox="0 0 60 60" fill="none" xmlns="http://www.w3.org/2000/svg">
<path d="M18.9038 50.014C14.8472 50.014 11.6493 49.2314 10.3776 47.9596C8.52317 46.1052 7.84271 40.5095 8.72533 34.3529C9.34925 30.0072 11.3015 21.8092 17.3777 15.733C23.4538 9.65684 31.6518 7.70246 35.9975 7.08071C42.1541 6.19809 47.7499 6.87636 49.6043 8.73291C53.1369 12.2656 52.8913 30.6724 42.602 40.9617C36.0193 47.5444 26.1082 50.0162 18.9016 50.0162L18.9038 50.014ZM41.1606 7.80464C39.6432 7.80464 37.9606 7.91768 36.1562 8.17638C31.9474 8.78074 24.0125 10.6656 18.1624 16.5156C12.3123 22.3657 10.4254 30.3006 9.82319 34.5094C8.90143 40.9443 9.82316 45.8379 11.1601 47.1748C13.9732 49.9857 31.6757 50.3184 41.8215 40.1725C51.9673 30.0267 51.6347 12.3243 48.8238 9.51119C47.8607 8.54813 45.0563 7.80029 41.1628 7.80029L41.1606 7.80464Z" fill="#262626"/>
<path d="M28.7775 53.3028C28.5275 53.3028 28.3014 53.1332 28.2405 52.8811C28.1666 52.5832 28.3493 52.2832 28.6449 52.2093C32.7559 51.1919 36.4994 49.6332 39.7712 47.5788C40.0299 47.4179 40.3734 47.494 40.5364 47.7527C40.6995 48.0114 40.6212 48.3549 40.3625 48.5179C36.9907 50.6354 33.1385 52.2397 28.9123 53.2854C28.8667 53.2963 28.8232 53.3006 28.7797 53.3006L28.7775 53.3028Z" fill="#262626"/>
<path d="M45.4386 44.3486C45.2973 44.3486 45.156 44.2942 45.0473 44.1855C44.8299 43.9681 44.8299 43.6181 45.0473 43.4007C46.1495 42.2986 47.1843 41.0811 48.1213 39.7789C48.2995 39.5311 48.6474 39.4746 48.8952 39.6529C49.143 39.8311 49.1996 40.1789 49.0213 40.4268C48.0496 41.7746 46.9756 43.0399 45.8321 44.1834C45.7234 44.2921 45.5821 44.3464 45.4408 44.3464L45.4386 44.3486Z" fill="#262626"/>
<path d="M13.4357 35.9376C13.3531 35.9376 13.2683 35.918 13.1879 35.8789C12.914 35.742 12.8031 35.4093 12.94 35.1354C12.9596 35.0941 12.9792 35.0528 12.9987 35.0093L13.1161 34.7659C13.1466 34.7006 13.1792 34.6332 13.214 34.568C14.9205 31.0332 17.9597 25.807 22.7076 21.0591C27.4599 16.3069 32.6839 13.272 36.2274 11.5633C36.3274 11.5111 36.4404 11.4546 36.5513 11.4024C36.8274 11.2742 37.1578 11.3916 37.2883 11.6698C37.4187 11.9459 37.2991 12.2764 37.0209 12.4068C36.923 12.4524 36.8231 12.5025 36.7209 12.5546C33.2382 14.2329 28.1316 17.2004 23.488 21.8417C18.8488 26.4788 15.8792 31.5897 14.2031 35.0593C14.1683 35.1289 14.1401 35.1854 14.114 35.2419L14.0053 35.4702C13.9814 35.5246 13.9575 35.5767 13.9314 35.6267C13.8335 35.8202 13.6379 35.9333 13.4357 35.9333V35.9376Z" fill="#262626"/>
<path d="M27.3018 48.9706C27.1844 48.9706 27.067 48.9337 26.967 48.8576C23.7647 46.438 20.6234 43.6923 17.632 40.7031C14.6429 37.7139 11.8993 34.5726 9.47322 31.366C9.28843 31.1225 9.33626 30.7747 9.58191 30.5899C9.8254 30.4051 10.1732 30.453 10.358 30.6986C12.7537 33.8661 15.4646 36.9683 18.4169 39.9205C21.3713 42.8749 24.4735 45.5858 27.6366 47.975C27.88 48.1598 27.93 48.5076 27.7453 48.7511C27.6366 48.8946 27.4713 48.9706 27.3018 48.9706Z" fill="#262626"/>
<path d="M50.0628 26.2111C49.8954 26.2111 49.7303 26.135 49.6194 25.9915C47.2281 22.8263 44.5171 19.7262 41.5649 16.7718C38.6149 13.8196 35.5104 11.1087 32.343 8.713C32.0995 8.52821 32.0495 8.18038 32.2343 7.93689C32.4191 7.69124 32.7669 7.64341 33.0104 7.8282C36.2192 10.2543 39.3605 13 42.3475 15.987C45.3367 18.9762 48.0802 22.1154 50.502 25.322C50.6868 25.5654 50.6389 25.9133 50.3933 26.0981C50.2933 26.1741 50.1759 26.2111 50.0585 26.2111H50.0628Z" fill="#262626"/>
</svg>
