<svg width="60" height="60" viewBox="0 0 60 60" fill="none" xmlns="http://www.w3.org/2000/svg">
<path d="M41.7847 54.8342C41.6847 54.8342 41.587 54.8081 41.4978 54.7537C41.3717 54.6776 41.2804 54.5559 41.2456 54.4124L36.7695 36.3708C36.6956 36.073 36.876 35.773 37.1738 35.6991C37.4716 35.6273 37.7716 35.8078 37.8455 36.1034L42.1869 53.6059L51.7957 51.2211L44.2109 20.6445L37.4412 22.325C37.1434 22.3989 36.8434 22.2184 36.7695 21.9206C36.6956 21.6228 36.876 21.3228 37.1738 21.2488L44.4804 19.4336C44.6217 19.3988 44.7739 19.4206 44.9 19.4966C45.0261 19.5727 45.1175 19.6945 45.1522 19.838L53.0045 51.4906C53.0784 51.7885 52.898 52.0885 52.6001 52.1624L41.9152 54.8124C41.8717 54.8233 41.8261 54.8277 41.7826 54.8277L41.7847 54.8342Z" fill="#262626"/>
<path d="M33.7679 54.8337H30.0961C29.7896 54.8337 29.5418 54.5859 29.5418 54.2794C29.5418 53.9728 29.7896 53.725 30.0961 53.725H33.2135V6.27424H22.6199V21.118C22.6199 21.4245 22.3721 21.6723 22.0655 21.6723C21.759 21.6723 21.5112 21.4245 21.5112 21.118V5.71989C21.5112 5.41336 21.759 5.16553 22.0655 5.16553H33.7679C34.0745 5.16553 34.3222 5.41336 34.3222 5.71989V54.2794C34.3222 54.5859 34.0745 54.8337 33.7679 54.8337Z" fill="#262626"/>
<path d="M29.8784 20.3531H25.9523C25.6457 20.3531 25.3979 20.1052 25.3979 19.7987V12.5334C25.3979 12.2268 25.6457 11.979 25.9523 11.979H29.8784C30.185 11.979 30.4328 12.2268 30.4328 12.5334V19.7987C30.4328 20.1052 30.185 20.3531 29.8784 20.3531ZM26.5067 19.2443H29.3241V13.0877H26.5067V19.2443Z" fill="#262626"/>
<path d="M26.5433 54.834H8.91903C8.62772 54.834 8.38433 54.608 8.36694 54.3166L6.97988 33.2837C6.96901 33.1315 7.0234 32.9794 7.12775 32.8685C7.2321 32.7576 7.3799 32.6924 7.53207 32.6924H27.9302C28.0846 32.6924 28.2302 32.7554 28.3346 32.8685C28.4389 32.9815 28.4933 33.1315 28.4824 33.2837L27.0955 54.3166C27.0759 54.608 26.8345 54.834 26.5411 54.834H26.5433ZM9.43863 53.7253H26.0237L27.3368 33.8011H8.12343L9.43651 53.7253H9.43863Z" fill="#262626"/>
<path d="M15.228 30.3338C14.9649 30.3338 14.7324 30.1468 14.6824 29.8772L13.3932 22.7576L11.5779 20.5662L10.6475 23.2554L11.8106 29.6794C11.8649 29.9816 11.6649 30.2686 11.3649 30.3229C11.0627 30.3773 10.7757 30.1773 10.7214 29.8751L9.5323 23.3076C9.5149 23.2141 9.52362 23.1184 9.55406 23.0271L10.8541 19.2684C10.9193 19.0792 11.0823 18.9401 11.2802 18.9032C11.4758 18.8684 11.678 18.9401 11.8062 19.0945L14.3432 22.1554C14.4041 22.2293 14.4454 22.3163 14.4606 22.4097L15.7737 29.6729C15.828 29.9751 15.628 30.262 15.3258 30.3164C15.2932 30.3229 15.2585 30.3251 15.2259 30.3251L15.228 30.3338Z" fill="#262626"/>
<path d="M24.8887 30.3341C24.8539 30.3341 24.8169 30.3298 24.7821 30.3233C24.4821 30.2646 24.2865 29.9733 24.343 29.6732L25.0821 25.8841L22.3429 25.3471L21.4538 29.8863C21.3951 30.1863 21.1039 30.382 20.8039 30.3233C20.5039 30.2646 20.3081 29.9733 20.3668 29.6732L21.3625 24.5906C21.4212 24.2906 21.7103 24.0927 22.0125 24.1536L25.8409 24.9014C26.1409 24.9601 26.3365 25.2514 26.2778 25.5514L25.4322 29.8863C25.38 30.1515 25.1496 30.3341 24.8887 30.3341Z" fill="#262626"/>
</svg>
