<svg width="60" height="60" viewBox="0 0 60 60" fill="none" xmlns="http://www.w3.org/2000/svg">
<path d="M7.63132 38.4755C7.41175 38.4755 7.20526 38.3451 7.1183 38.1298C5.9335 35.2146 5.3335 32.1232 5.3335 28.9406C5.3335 23.3035 7.1944 18.0056 10.714 13.6186C15.3945 7.78369 22.3663 4.43799 29.8382 4.43799C39.9514 4.43799 49.1581 10.7859 52.7494 20.2317C52.8581 20.5187 52.7147 20.8383 52.4277 20.9469C52.1429 21.0556 51.8212 20.9122 51.7125 20.6252C48.2841 11.6055 39.4927 5.5467 29.8382 5.5467C22.7033 5.5467 16.0489 8.7424 11.5792 14.3121C8.22049 18.5013 6.44435 23.56 6.44435 28.9406C6.44435 31.9797 7.01829 34.932 8.14657 37.7124C8.26179 37.995 8.12485 38.319 7.84224 38.4342C7.77485 38.4624 7.70312 38.4755 7.63355 38.4755H7.63132Z" fill="#262626"/>
<path d="M29.8362 29.4942C29.7123 29.4942 29.5906 29.4529 29.4906 29.3724L10.8011 14.3961C10.562 14.2048 10.5229 13.8548 10.7142 13.6178C10.9055 13.3787 11.2555 13.3396 11.4925 13.5309L29.2819 27.7854V4.98942C29.2819 4.68289 29.5297 4.43506 29.8362 4.43506C30.1427 4.43506 30.3905 4.68289 30.3905 4.98942V28.9398C30.3905 29.1528 30.2688 29.3463 30.0754 29.4398C29.9993 29.4768 29.9166 29.4942 29.8362 29.4942Z" fill="#262626"/>
<path d="M29.8358 29.4945H5.88548C5.57895 29.4945 5.33105 29.2466 5.33105 28.9401C5.33105 28.6336 5.57895 28.3857 5.88548 28.3857H29.8358C30.1424 28.3857 30.3902 28.6336 30.3902 28.9401C30.3902 29.2466 30.1424 29.4945 29.8358 29.4945Z" fill="#262626"/>
<path d="M21.4338 55.5649H11.1466C10.8401 55.5649 10.5923 55.3171 10.5923 55.0106V41.6647C10.5923 41.3582 10.8401 41.1104 11.1466 41.1104H21.4338C21.7403 41.1104 21.9881 41.3582 21.9881 41.6647V55.0106C21.9881 55.3171 21.7403 55.5649 21.4338 55.5649ZM11.701 54.4562H20.8794V42.2191H11.701V54.4562Z" fill="#262626"/>
<path d="M37.7751 55.5641H27.488C27.1815 55.5641 26.9336 55.3163 26.9336 55.0098V33.7116C26.9336 33.4051 27.1815 33.1572 27.488 33.1572H37.7751C38.0816 33.1572 38.3294 33.4051 38.3294 33.7116V55.0098C38.3294 55.3163 38.0816 55.5641 37.7751 55.5641ZM28.0402 54.4554H37.2186V34.2659H28.0402V54.4554Z" fill="#262626"/>
<path d="M54.1145 55.5643H43.8273C43.5207 55.5643 43.2729 55.3165 43.2729 55.0099V24.1681C43.2729 23.8616 43.5207 23.6138 43.8273 23.6138H54.1145C54.421 23.6138 54.6688 23.8616 54.6688 24.1681V55.0099C54.6688 55.3165 54.421 55.5643 54.1145 55.5643ZM44.3817 54.4556H53.56V24.7225H44.3817V54.4556Z" fill="#262626"/>
</svg>
