<svg width="60" height="60" viewBox="0 0 60 60" fill="none" xmlns="http://www.w3.org/2000/svg">
<path d="M38.9263 46.4265H10.8911C8.13885 46.4265 5.90186 44.1895 5.90186 41.4373V14.3369C5.90186 11.5846 8.13885 9.34766 10.8911 9.34766H38.9263C41.6785 9.34766 43.9155 11.5846 43.9155 14.3369V30.4089C43.9155 30.7154 43.6677 30.9632 43.3612 30.9632C43.0546 30.9632 42.8068 30.7154 42.8068 30.4089V14.3369C42.8068 12.1977 41.0655 10.4564 38.9263 10.4564H10.8911C8.7519 10.4564 7.01057 12.1977 7.01057 14.3369V41.4373C7.01057 43.5765 8.7519 45.3178 10.8911 45.3178H38.9263C39.2002 45.3178 39.4807 45.2874 39.7589 45.2265C40.0589 45.1613 40.3524 45.3526 40.4176 45.6504C40.4828 45.9504 40.2915 46.2439 39.9937 46.3091C39.6394 46.3852 39.2807 46.4243 38.9263 46.4243V46.4265Z" fill="#262626"/>
<path d="M17.7194 59.5829C17.6172 59.5829 17.5215 59.5655 17.4302 59.5394C16.5563 59.2959 15.8215 58.2937 18.2063 49.4218C18.2868 49.1262 18.5889 48.9523 18.8846 49.0305C19.1802 49.111 19.3563 49.4131 19.2759 49.7088C17.4846 56.3763 17.6302 58.0263 17.765 58.422C18.152 58.1959 19.4803 56.8741 22.9173 49.3349C23.0455 49.0566 23.3738 48.9349 23.6521 49.061C23.9303 49.1871 24.0542 49.5175 23.926 49.7958C20.0564 58.2785 18.6107 59.5807 17.7172 59.5807L17.7194 59.5829Z" fill="#262626"/>
<path d="M32.1001 59.5831C31.2088 59.5831 29.7631 58.2831 25.8935 49.7982C25.7674 49.5199 25.8891 49.1917 26.1674 49.0634C26.4457 48.9373 26.7739 49.0591 26.9022 49.3373C30.3436 56.8831 31.6697 58.1983 32.0545 58.4244C32.1892 58.0309 32.3371 56.3831 30.5436 49.7112C30.4631 49.4156 30.6392 49.1112 30.9349 49.033C31.2327 48.9547 31.5349 49.1286 31.6131 49.4243C33.998 58.2962 33.2632 59.2984 32.3871 59.5418C32.2958 59.5679 32.2001 59.5853 32.0979 59.5853L32.1001 59.5831Z" fill="#262626"/>
<path d="M29.0691 6.76031C28.7626 6.76031 28.5147 6.51247 28.5147 6.20595V5.13419C28.5147 4.16896 28.1387 3.26242 27.4582 2.5798C26.7799 1.89718 25.8734 1.52326 24.9082 1.52326C22.919 1.52326 21.3016 3.14286 21.3016 5.13419V6.20595C21.3016 6.51247 21.0538 6.76031 20.7472 6.76031C20.4407 6.76031 20.1929 6.51247 20.1929 6.20595V5.13419C20.1929 2.53198 22.3081 0.414551 24.9082 0.414551C26.1712 0.414551 27.356 0.905863 28.243 1.79718C29.1343 2.6885 29.6235 3.8733 29.6235 5.13419V6.20595C29.6235 6.51247 29.3756 6.76031 29.0691 6.76031Z" fill="#262626"/>
<path d="M50.2456 51.1156C50.0261 51.1156 49.8022 51.1004 49.5761 51.0678C47.8739 50.8265 46.2238 49.7178 45.1651 48.1047L36.078 34.2697C35.141 32.8436 35.4911 31.5479 36.2541 30.8957C37.0172 30.2436 38.352 30.1001 39.6129 31.2479L51.8587 42.3829C53.287 43.6807 54.124 45.4829 54.0979 47.2025C54.0783 48.4351 53.6066 49.5069 52.7674 50.2243C52.0848 50.8069 51.2044 51.1156 50.2435 51.1156H50.2456ZM37.6367 31.5066C37.3693 31.5066 37.1411 31.5936 36.9759 31.7371C36.5824 32.0718 36.4411 32.7958 37.0063 33.6588L46.0934 47.4938C46.9804 48.846 48.3413 49.77 49.7348 49.9678C50.3717 50.0591 51.2913 50.0287 52.05 49.3808C52.8109 48.7308 52.9826 47.8286 52.9913 47.1851C53.0131 45.7786 52.3109 44.2894 51.1152 43.2025L38.8694 32.0675C38.4302 31.6675 37.9998 31.5088 37.6389 31.5088L37.6367 31.5066Z" fill="#262626"/>
<path d="M31.472 30.0217C31.2328 30.0217 30.9937 30.0044 30.7481 29.9717C29.3524 29.7804 28.0524 29.0543 27.0893 27.9282C24.8849 25.3847 24.7654 23.3977 24.6588 21.6433C24.5675 20.1238 24.4936 18.9216 23.0436 17.5737C22.8914 17.4324 22.8327 17.2194 22.8871 17.0215C22.9414 16.8215 23.1045 16.6694 23.3066 16.628C26.4893 15.9476 33.0503 19.239 34.7677 21.3955C36.7569 23.7238 36.6677 27.1 34.5546 28.9043C33.6981 29.6348 32.6242 30.0217 31.472 30.0217ZM24.6219 17.6737C25.611 19.0063 25.6893 20.3107 25.7675 21.5781C25.8675 23.2325 25.9719 24.9434 27.9328 27.2065C28.7198 28.1282 29.7741 28.7195 30.9002 28.8739C32.0024 29.0261 33.0459 28.7369 33.8351 28.063C35.4829 26.6543 35.5199 23.9803 33.9133 22.102C32.2285 19.9868 27.3263 17.8976 24.6219 17.6737Z" fill="#262626"/>
</svg>
