<svg width="60" height="60" viewBox="0 0 60 60" fill="none" xmlns="http://www.w3.org/2000/svg">
<path d="M35.1898 21.5813L25.4023 5.49377C24.7648 4.40627 23.621 3.75 22.3648 3.75H19.2523H18.5398H10.6648H10.0085C7.28977 3.75 5.58352 6.67502 6.91477 9.03752C9.38977 13.4063 12.8773 17.1375 17.096 19.875C18.521 20.9813 20.2835 21.5813 22.1023 21.5813H35.1898Z" fill="#0074BA"/>
<path d="M49.984 3.75H49.3277H41.4527H40.7402H37.6277C36.3715 3.75 35.2277 4.40627 34.5902 5.49377L24.8027 21.5813H37.909C39.7277 21.5813 41.4715 20.9813 42.9152 19.875C47.134 17.1375 50.6215 13.425 53.0965 9.03752C54.409 6.67502 52.7027 3.75 49.984 3.75Z" fill="#00A6ED"/>
<path d="M29.9813 56.2499C40.378 56.2499 48.8063 47.6118 48.8063 36.9561C48.8063 26.3005 40.378 17.6624 29.9813 17.6624C19.5844 17.6624 11.1562 26.3005 11.1562 36.9561C11.1562 47.6118 19.5844 56.2499 29.9813 56.2499Z" fill="#D3883E"/>
<path d="M29.9995 53.9247C25.5745 53.9247 21.412 52.1622 18.2996 48.956C15.1684 45.7497 13.4434 41.4935 13.4434 36.956C13.4434 32.4185 15.1684 28.1622 18.2996 24.956C24.7495 18.3373 35.2495 18.3373 41.7183 24.956C48.1683 31.5747 48.1683 42.3372 41.7183 48.956C38.5683 52.1622 34.4058 53.9247 29.9995 53.9247ZM29.9808 22.2935C26.3245 22.2935 22.6495 23.7185 19.8745 26.5872C17.1746 29.3622 15.6934 33.0372 15.6934 36.956C15.6934 40.8747 17.1746 44.5497 19.8745 47.3247C22.5745 50.0997 26.1745 51.6185 29.9808 51.6185C33.8058 51.6185 37.387 50.0997 40.087 47.3247C45.6558 41.606 45.6558 32.306 40.087 26.5872C37.312 23.7185 33.6558 22.2935 29.9808 22.2935Z" fill="#F3AD61"/>
<path d="M32.6287 34.2649L34.5928 30.8707C34.917 30.2987 34.917 29.6123 34.5928 29.0402C34.2686 28.4681 33.6585 28.125 33.0101 28.125H27.2135C26.2029 28.125 25.383 28.9449 25.383 29.9556C25.383 30.966 26.2029 31.7859 27.2135 31.7859H29.8449L28.4338 34.2458C28.1859 34.5508 28.0335 34.9513 28.0335 35.3708C28.0335 36.3814 28.8534 37.2013 29.864 37.2013C31.008 37.2013 31.9423 38.1356 31.9423 39.2796C31.9423 40.4237 31.008 41.358 29.864 41.358C28.9869 41.358 28.205 40.8051 27.9191 39.9851C27.5758 39.0319 26.5462 38.5551 25.5928 38.8792C24.6393 39.2224 24.1436 40.2521 24.4867 41.2056C25.3066 43.4747 27.4614 45 29.864 45C33.0101 45 35.5843 42.4449 35.5843 39.2796C35.5651 37.1059 34.383 35.2372 32.6287 34.2649Z" fill="#402A32"/>
</svg>
