<svg width="60" height="60" viewBox="0 0 60 60" fill="none" xmlns="http://www.w3.org/2000/svg">
<path d="M17.1735 31.6241C16.4409 31.6241 15.9322 31.4154 15.6517 30.998C15.48 30.7436 15.5474 30.4002 15.8017 30.2284C16.0561 30.0567 16.3996 30.1262 16.5713 30.3784C16.6648 30.5175 17.4191 30.7415 19.5866 29.9784C21.3888 29.3458 23.5692 28.224 25.4214 26.9784C27.278 25.7283 29.1432 24.1348 30.4063 22.7109C31.9324 20.9957 32.0107 20.2152 31.9172 20.0761C31.7454 19.8217 31.8129 19.4782 32.0672 19.3065C32.3216 19.1348 32.665 19.2022 32.8368 19.4565C33.3933 20.2826 32.852 21.6239 31.2346 23.4457C29.8911 24.9566 27.9976 26.5784 26.0388 27.8958C24.0844 29.211 21.8648 30.3502 19.9518 31.0219C18.8148 31.4219 17.8865 31.6197 17.1713 31.6197L17.1735 31.6241Z" fill="#262626"/>
<path d="M32.3802 20.3242C32.2019 20.3242 32.0258 20.2373 31.9193 20.0786L28.1171 14.4241C27.9453 14.1698 28.0127 13.8263 28.267 13.6546C28.5214 13.4828 28.8649 13.5524 29.0366 13.8046L32.8389 19.459C33.0106 19.7134 32.9432 20.0568 32.6889 20.2286C32.5932 20.2916 32.4867 20.3221 32.3802 20.3221V20.3242Z" fill="#262626"/>
<path d="M16.1106 31.2417C15.9324 31.2417 15.7563 31.1548 15.6498 30.9961L11.8475 25.3416C11.6758 25.0873 11.7432 24.7438 11.9975 24.572C12.2519 24.4003 12.5954 24.4699 12.7671 24.722L16.5693 30.3765C16.7411 30.6308 16.6737 30.9743 16.4193 31.1461C16.3237 31.2091 16.2172 31.2395 16.1106 31.2395V31.2417Z" fill="#262626"/>
<path d="M7.57086 30.9113C7.3926 30.9113 7.21651 30.8244 7.10999 30.6657L4.32732 26.5286C4.19037 26.3243 4.20341 26.0547 4.35994 25.8656L15.4601 12.4501C15.5275 12.3675 15.6188 12.3067 15.721 12.2741L32.343 7.06528C32.5734 6.99354 32.8213 7.07832 32.9604 7.27398C33.0995 7.46963 33.0974 7.73268 32.9539 7.92616L22.3798 22.122C22.3081 22.2177 22.208 22.2873 22.095 22.322L12.3405 25.2699C12.047 25.359 11.7383 25.1917 11.6492 24.9003C11.5601 24.6069 11.7274 24.2982 12.0188 24.209L21.5972 21.3155L31.0408 8.63705L16.208 13.2849L5.47518 26.2547L8.02739 30.0483C8.19913 30.3026 8.13175 30.6461 7.8774 30.8178C7.78174 30.8809 7.67521 30.9113 7.56869 30.9113H7.57086Z" fill="#262626"/>
<path d="M46.7826 47.4789H22.1365C19.2147 47.4789 16.8364 45.1006 16.8364 42.1788V35.02C16.8364 34.7135 17.0843 34.4656 17.3908 34.4656C17.6973 34.4656 17.9451 34.7135 17.9451 35.02V42.1788C17.9451 44.4897 19.8256 46.3702 22.1365 46.3702H46.7826C49.0935 46.3702 50.9739 44.4897 50.9739 42.1788V24.7024C50.9739 22.3915 49.0935 20.5111 46.7826 20.5111H36.4454C36.1389 20.5111 35.8911 20.2632 35.8911 19.9567C35.8911 19.6502 36.1389 19.4023 36.4454 19.4023H46.7826C49.7043 19.4023 52.0826 21.7806 52.0826 24.7024V42.1788C52.0826 45.1006 49.7043 47.4789 46.7826 47.4789Z" fill="#262626"/>
<path d="M46.841 42.8377H17.3927C17.0862 42.8377 16.8384 42.5899 16.8384 42.2834C16.8384 41.9768 17.0862 41.729 17.3927 41.729H46.841C47.1476 41.729 47.3954 41.9768 47.3954 42.2834C47.3954 42.5899 47.1476 42.8377 46.841 42.8377Z" fill="#262626"/>
<path d="M30.8522 38.2612C30.7565 38.2612 30.6609 38.2373 30.5739 38.1873C30.4022 38.0895 30.2979 37.9047 30.2979 37.7068V29.1741C30.2979 28.9763 30.4044 28.7937 30.5739 28.6937C30.7457 28.5937 30.9565 28.5937 31.1283 28.6937L38.5175 32.9589C38.6893 33.0568 38.7958 33.2416 38.7958 33.4394C38.7958 33.6372 38.6893 33.8198 38.5175 33.9198L31.1283 38.1851C31.0435 38.2351 30.9457 38.259 30.8522 38.259V38.2612ZM31.4066 30.135V36.7481L37.1327 33.4416L31.4066 30.135Z" fill="#262626"/>
<path d="M55.2131 52.9598H13.7038C13.3972 52.9598 13.1494 52.712 13.1494 52.4054C13.1494 52.0989 13.3972 51.8511 13.7038 51.8511H55.2131C55.5197 51.8511 55.7675 52.0989 55.7675 52.4054C55.7675 52.712 55.5197 52.9598 55.2131 52.9598Z" fill="#262626"/>
</svg>
