<svg width="60" height="60" viewBox="0 0 60 60" fill="none" xmlns="http://www.w3.org/2000/svg">
<path d="M48.75 36.2623C48.75 47.6987 39.2796 56.8971 27.8439 56.2144C16.0902 55.5126 8.04225 44.2089 9.55826 32.3934C10.4753 25.2054 13.8443 19.0416 17.5126 14.2622C18.149 13.4277 18.804 20.1416 19.4591 19.4019C20.1142 18.6433 26.1969 8.1173 28.3119 4.41898C28.7049 3.73622 29.6032 3.5276 30.2396 4.02071C34.4882 7.22591 48.75 19.2692 48.75 36.2623Z" fill="#FF6723"/>
<path d="M43.125 40.971C43.125 48.5494 36.5273 54.6412 28.5021 54.366C19.8403 54.0724 13.8985 46.1454 15.1717 37.98C17.0044 26.2733 29.0229 18.75 29.0229 18.75C29.0229 18.75 43.125 27.576 43.125 40.971Z" fill="#FFB02E"/>
</svg>
