<svg width="60" height="60" viewBox="0 0 60 60" fill="none" xmlns="http://www.w3.org/2000/svg">
<path d="M35.1897 21.5813L25.4022 5.49377C24.7647 4.40627 23.621 3.75 22.3647 3.75H10.0085C7.28977 3.75 5.58352 6.67502 6.91477 9.03752C9.38977 13.4063 12.8773 17.1375 17.096 19.875C18.521 20.9813 20.2835 21.5813 22.1022 21.5813H35.1897Z" fill="#0074BA"/>
<path d="M49.983 3.75H37.6268C36.3705 3.75 35.2268 4.40627 34.5893 5.49377L24.8018 21.5813H37.908C39.7268 21.5813 41.4705 20.9813 42.9143 19.875C47.133 17.1375 50.6205 13.425 53.0955 9.03752C54.408 6.67502 52.7018 3.75 49.983 3.75Z" fill="#00A6ED"/>
<path d="M29.9246 56.2521C40.3214 56.2521 48.7496 47.6139 48.7496 36.9583C48.7496 26.3027 40.3214 17.6646 29.9246 17.6646C19.5279 17.6646 11.0996 26.3027 11.0996 36.9583C11.0996 47.6139 19.5279 56.2521 29.9246 56.2521Z" fill="#BEBEBE"/>
<path d="M29.9244 53.9269C25.4995 53.9269 21.337 52.1644 18.2244 48.9581C15.0932 45.7519 13.3682 41.4956 13.3682 36.9581C13.3682 32.4206 15.0932 28.1644 18.2244 24.9581C24.6745 18.3395 35.1744 18.3395 41.6432 24.9581C48.0932 31.5769 48.0932 42.3394 41.6432 48.9581C38.4932 52.1644 34.3307 53.9269 29.9244 53.9269ZM29.9057 22.2956C26.2494 22.2956 22.5745 23.7206 19.7995 26.5894C17.0994 29.3644 15.6182 33.0394 15.6182 36.9581C15.6182 40.8769 17.0994 44.5519 19.7995 47.3269C22.4995 50.1019 26.0995 51.6206 29.9057 51.6206C33.7307 51.6206 37.3119 50.1019 40.0119 47.3269C45.5807 41.6081 45.5807 32.3081 40.0119 26.5894C37.2369 23.7206 33.5807 22.2956 29.9057 22.2956Z" fill="#E6E6E6"/>
<path d="M33.4454 44.9063H26.0016C25.2704 44.9063 24.6141 44.4939 24.2954 43.8188C23.9766 43.1626 24.0704 42.3751 24.5391 41.8126L30.7266 34.2188C31.2141 33.6188 30.9891 32.9813 30.9141 32.7938C30.8204 32.5688 30.5204 32.0626 29.8266 32.0438C29.8079 32.0438 29.7704 32.0438 29.7329 32.0438C29.1329 32.0438 28.5891 32.3251 28.2329 32.8126C27.6329 33.6563 26.4516 33.8626 25.5891 33.2626C24.7266 32.6626 24.5391 31.4813 25.1391 30.6188C26.1891 29.1376 27.8954 28.2563 29.7141 28.2563C29.8079 28.2563 29.8829 28.2563 29.9579 28.2563C31.8704 28.3501 33.5391 29.4938 34.3266 31.2376C35.1329 33.0376 34.8703 35.0813 33.6328 36.6001L29.9766 41.1001H33.4266C34.4766 41.1001 35.3204 41.9438 35.3204 42.9938C35.3204 44.0438 34.4954 44.9063 33.4454 44.9063Z" fill="#636363"/>
</svg>
