<svg width="212" height="193" viewBox="0 0 212 193" fill="none" xmlns="http://www.w3.org/2000/svg">
<path d="M62.8118 1.8777e-05C68.5417 1.85212e-05 74.6623 2.08361 81.1735 6.25082C87.5546 10.2878 96.3448 17.4502 107.544 27.738C126.817 11.5901 137.098 7.95263 146.995 7.95263C153.376 7.95263 158.845 9.71069 163.403 13.2268C171.799 19.6474 173.2 34.3105 167.318 43.951C162.629 51.6343 156.509 59.9036 148.956 68.7589C166.145 88.2927 175.747 102.348 175.747 111.985C175.747 118.886 173.598 124.161 169.301 127.807C164.873 131.453 159.338 133.276 152.697 133.276C142.67 133.276 126.948 125.667 107.544 109.389C96.475 119.156 87.7499 125.928 81.3689 129.704C74.8576 133.481 68.6719 135.369 62.8118 135.369C54.9983 135.369 48.9428 132.83 44.6454 127.751C40.2177 122.542 38.0039 116.421 38.0039 109.389C38.0039 104.831 38.655 100.859 39.9573 97.4736C41.2595 94.0877 43.6687 90.3112 47.1848 86.144C50.7009 81.8466 56.3005 75.9213 63.9838 68.3683C56.561 60.8152 51.0915 54.7597 47.5755 50.2018C43.9292 45.5137 41.4549 41.4116 40.1526 37.8956C38.7201 34.3795 38.0039 30.4727 38.0039 26.1753C38.0039 21.6174 38.9806 17.3851 40.934 13.4783C42.8873 9.44135 45.7523 6.18571 49.5288 3.71143C53.3054 1.23715 57.733 1.90037e-05 62.8118 1.8777e-05Z" fill="#26DDC7"/>
<path d="M56.2134 187.551C50.7834 187.551 46.8037 183.674 46.8037 178.327C46.8037 172.981 50.7834 169.104 56.2134 169.104C62.2504 169.104 66.2639 173.716 65.4544 179.898H51.7278C52.2674 181.97 53.92 183.207 56.2134 183.207C57.7648 183.207 59.1139 182.605 59.8221 181.669H65.0497C63.8018 185.278 60.3617 187.551 56.2134 187.551ZM51.7615 176.657H60.7327C60.1931 174.718 58.608 173.448 56.2134 173.448C53.9537 173.448 52.3348 174.685 51.7615 176.657Z" fill="#132032"/>
<path d="M25.0304 166.402C26.0382 166.402 27.1147 166.769 28.2599 167.502C29.3823 168.212 30.9283 169.472 32.8982 171.281C36.2881 168.441 38.0962 167.801 39.837 167.801C40.9593 167.801 41.9213 168.11 42.723 168.729C44.1998 169.858 44.4461 172.437 43.4114 174.133C42.5869 175.484 41.5104 176.939 40.1819 178.496C43.2053 181.932 44.8941 184.404 44.8941 186.099C44.8941 187.313 44.5161 188.24 43.7603 188.882C42.9815 189.523 42.008 189.844 40.8399 189.844C39.0762 189.844 36.311 188.506 32.8982 185.642C30.9512 187.36 29.4166 188.551 28.2943 189.216C27.149 189.88 26.0611 190.212 25.0304 190.212C23.6561 190.212 22.591 189.765 21.8351 188.872C21.0564 187.956 20.667 186.879 20.667 185.642C20.667 184.841 20.7815 184.142 21.0106 183.547C21.2396 182.951 21.6634 182.287 22.2818 181.554C22.9002 180.798 23.8851 179.756 25.2365 178.427C23.9309 177.099 22.9689 176.034 22.3505 175.232C21.7092 174.408 21.274 173.686 21.0449 173.068C20.793 172.449 20.667 171.762 20.667 171.006C20.667 170.205 20.8388 169.46 21.1823 168.773C21.5259 168.063 22.0298 167.49 22.6941 167.055C23.3583 166.62 24.1371 166.402 25.0304 166.402Z" fill="#26DDC7"/>
<path d="M9.40968 187.551C3.97972 187.551 0 183.674 0 178.327C0 172.981 3.97972 169.104 9.40968 169.104C15.4467 169.104 19.4602 173.716 18.6507 179.898H4.92406C5.46369 181.97 7.11628 183.207 9.40968 183.207C10.9611 183.207 12.3102 182.605 13.0184 181.669H18.246C16.9981 185.278 13.558 187.551 9.40968 187.551ZM4.95779 176.657H13.929C13.3894 174.718 11.8043 173.448 9.40968 173.448C7.15001 173.448 5.53114 174.685 4.95779 176.657Z" fill="#132032"/>
<path d="M201.65 192.965C196.955 192.965 193.288 190.874 192.74 186.556H197.572C197.983 188.03 199.662 188.613 201.376 188.613C204.117 188.613 206.208 187.31 206.208 184.672V184.123C204.734 185.22 202.884 185.871 200.862 185.871C195.893 185.871 192.089 182.341 192.089 177.201C192.089 172.266 195.858 168.462 200.862 168.462C203.089 168.462 205.111 169.251 206.653 170.587L206.79 168.839H211.04V184.123C211.04 189.846 206.996 192.965 201.65 192.965ZM197.058 177.304C197.058 179.874 198.874 181.69 201.616 181.69C204.391 181.69 206.208 179.908 206.208 177.304C206.208 174.699 204.391 172.917 201.616 172.917C198.874 172.917 197.058 174.768 197.058 177.304Z" fill="#132032"/>
<path d="M171.002 187.002V168.839H175.628L175.765 170.998C177.17 169.388 179.158 168.497 181.591 168.497C186.32 168.497 188.616 171.581 188.616 176.481V187.002H183.716V177.03C183.716 174.425 182.448 173.02 180.152 173.02C177.582 173.02 175.902 174.562 175.902 177.132V187.002H171.002Z" fill="#132032"/>
<path d="M161.063 187.002V168.839H165.963V187.002H161.063ZM160.549 164.281C160.549 162.637 161.783 161.403 163.53 161.403C165.244 161.403 166.477 162.637 166.477 164.281C166.477 165.926 165.244 167.126 163.53 167.126C161.783 167.126 160.549 165.926 160.549 164.281Z" fill="#132032"/>
<path d="M138.708 187.002V168.839H143.334L143.471 170.998C144.876 169.388 146.864 168.497 149.297 168.497C154.026 168.497 156.322 171.581 156.322 176.481V187.002H151.422V177.03C151.422 174.425 150.154 173.02 147.858 173.02C145.288 173.02 143.608 174.562 143.608 177.132V187.002H138.708Z" fill="#132032"/>
<path d="M123.682 187.002V168.84H128.239L128.411 170.861C129.644 169.354 131.392 168.565 133.38 168.565C134.065 168.565 134.785 168.668 135.47 168.84V173.363C134.716 173.226 134.031 173.123 133.38 173.123C130.398 173.123 128.582 174.871 128.582 177.852V187.002H123.682Z" fill="#132032"/>
<path d="M108.371 187.379C102.923 187.379 99.2217 183.267 99.2217 177.921C99.2217 172.369 103.094 168.462 108.371 168.462C110.702 168.462 112.724 169.285 114.266 170.656L114.437 168.839H118.686V187.002H114.437L114.266 185.186C112.689 186.556 110.633 187.379 108.371 187.379ZM104.191 177.921C104.191 180.765 106.213 182.787 109.023 182.787C111.798 182.787 113.82 180.765 113.82 177.921C113.82 175.076 111.798 173.054 109.023 173.054C106.213 173.054 104.191 175.076 104.191 177.921Z" fill="#132032"/>
<path d="M87.3315 187.379C81.8142 187.379 77.7705 183.404 77.7705 177.921C77.7705 172.438 81.8142 168.462 87.3315 168.462C93.4657 168.462 97.5437 173.192 96.7212 179.531H82.7738C83.3221 181.656 85.0013 182.924 87.3315 182.924C88.9079 182.924 90.2787 182.307 90.9983 181.348H96.31C95.0421 185.049 91.5466 187.379 87.3315 187.379ZM82.808 176.207H91.9236C91.3753 174.22 89.7646 172.917 87.3315 172.917C85.0355 172.917 83.3906 174.185 82.808 176.207Z" fill="#132032"/>
<path d="M69.0986 187.002V163.014H73.9991V187.002H69.0986Z" fill="#132032"/>
</svg>
