<svg width="60" height="60" viewBox="0 0 60 60" fill="none" xmlns="http://www.w3.org/2000/svg">
<path d="M10.667 48.1247V11.8747C10.667 10.2723 11.3035 8.7356 12.4366 7.60257C13.5696 6.46954 15.1063 5.83301 16.7087 5.83301H46.917C47.5579 5.83301 48.1726 6.08762 48.6258 6.54083C49.0791 6.99405 49.3337 7.60873 49.3337 8.24967V51.7497C49.3337 52.3906 49.0791 53.0053 48.6258 53.4585C48.1726 53.9117 47.5579 54.1663 46.917 54.1663H16.7087C15.1063 54.1663 13.5696 53.5298 12.4366 52.3968C11.3035 51.2637 10.667 49.727 10.667 48.1247ZM10.667 48.1247C10.667 46.5223 11.3035 44.9856 12.4366 43.8526C13.5696 42.7195 15.1063 42.083 16.7087 42.083H49.3337" stroke="#262626" stroke-width="3.33333" stroke-linecap="round" stroke-linejoin="round"/>
<path d="M20.333 27.583H39.6663" stroke="#262626" stroke-width="3.33333" stroke-linecap="round" stroke-linejoin="round"/>
<path d="M20.333 17.9165H34.833" stroke="#262626" stroke-width="3.33333" stroke-linecap="round" stroke-linejoin="round"/>
</svg>
