<svg width="60" height="60" viewBox="0 0 60 60" fill="none" xmlns="http://www.w3.org/2000/svg">
<path d="M20.3333 8.24976H17.9167C16.6348 8.24976 15.4054 8.75898 14.499 9.66541C13.5926 10.5718 13.0833 11.8012 13.0833 13.0831V25.1664C13.0833 26.4483 12.5741 27.6777 11.6677 28.5841C10.7613 29.4905 9.53188 29.9998 8.25 29.9998C9.53188 29.9998 10.7613 30.509 11.6677 31.4154C12.5741 32.3218 13.0833 33.5512 13.0833 34.8331V46.9164C13.0833 49.5748 15.2583 51.7498 17.9167 51.7498H20.3333" stroke="#262626" stroke-width="3.33333" stroke-linecap="round" stroke-linejoin="round"/>
<path d="M39.667 51.7498H42.0837C43.3655 51.7498 44.5949 51.2405 45.5013 50.3341C46.4078 49.4277 46.917 48.1983 46.917 46.9164V34.8331C46.917 32.1748 49.092 29.9998 51.7503 29.9998C50.4684 29.9998 49.2391 29.4905 48.3326 28.5841C47.4262 27.6777 46.917 26.4483 46.917 25.1664V13.0831C46.917 11.8012 46.4078 10.5718 45.5013 9.66541C44.5949 8.75898 43.3655 8.24976 42.0837 8.24976H39.667" stroke="#262626" stroke-width="3.33333" stroke-linecap="round" stroke-linejoin="round"/>
</svg>
