<svg width="60" height="60" viewBox="0 0 60 60" fill="none" xmlns="http://www.w3.org/2000/svg">
<path d="M51.7497 8.25H8.24967C6.91499 8.25 5.83301 9.33198 5.83301 10.6667V17.9167C5.83301 19.2513 6.91499 20.3333 8.24967 20.3333H51.7497C53.0843 20.3333 54.1663 19.2513 54.1663 17.9167V10.6667C54.1663 9.33198 53.0843 8.25 51.7497 8.25Z" stroke="#262626" stroke-width="3.33333" stroke-linecap="round" stroke-linejoin="round"/>
<path d="M10.667 20.3335V46.9168C10.667 48.1987 11.1762 49.4281 12.0826 50.3345C12.9891 51.2409 14.2184 51.7502 15.5003 51.7502H44.5003C45.7822 51.7502 47.0116 51.2409 47.918 50.3345C48.8244 49.4281 49.3337 48.1987 49.3337 46.9168V20.3335" stroke="#262626" stroke-width="3.33333" stroke-linecap="round" stroke-linejoin="round"/>
<path d="M25.167 30H34.8337" stroke="#262626" stroke-width="3.33333" stroke-linecap="round" stroke-linejoin="round"/>
</svg>
