<svg width="60" height="60" viewBox="0 0 60 60" fill="none" xmlns="http://www.w3.org/2000/svg">
<path d="M25.8145 51.7502C26.2387 52.4849 26.8488 53.095 27.5836 53.5192C28.3183 53.9434 29.1517 54.1667 30.0001 54.1667C30.8485 54.1667 31.6819 53.9434 32.4167 53.5192C33.1514 53.095 33.7616 52.4849 34.1858 51.7502" stroke="#262626" stroke-width="3.33333" stroke-linecap="round" stroke-linejoin="round"/>
<path d="M8.88238 38.038C8.56668 38.384 8.35833 38.8143 8.28269 39.2766C8.20706 39.7388 8.26738 40.2131 8.45633 40.6417C8.64529 41.0703 8.95472 41.4348 9.347 41.6907C9.73927 41.9467 10.1975 42.0832 10.6659 42.0835H49.3325C49.8009 42.0837 50.2592 41.9477 50.6517 41.6923C51.0442 41.4368 51.3541 41.0727 51.5435 40.6444C51.733 40.2161 51.7939 39.7419 51.7189 39.2797C51.6438 38.8174 51.4361 38.3868 51.1209 38.0404C47.9067 34.7272 44.4992 31.2061 44.4992 20.3335C44.4992 16.4879 42.9715 12.7997 40.2523 10.0804C37.533 7.36117 33.8449 5.8335 29.9992 5.8335C26.1536 5.8335 22.4654 7.36117 19.7462 10.0804C17.0269 12.7997 15.4992 16.4879 15.4992 20.3335C15.4992 31.2061 12.0893 34.7272 8.88238 38.038Z" stroke="#262626" stroke-width="3.33333" stroke-linecap="round" stroke-linejoin="round"/>
</svg>
