<svg width="60" height="60" viewBox="0 0 60 60" fill="none" xmlns="http://www.w3.org/2000/svg">
<path d="M29.9997 54.1664C43.3465 54.1664 54.1663 43.3467 54.1663 29.9998C54.1663 16.6529 43.3465 5.83313 29.9997 5.83313C16.6528 5.83313 5.83301 16.6529 5.83301 29.9998C5.83301 43.3467 16.6528 54.1664 29.9997 54.1664Z" stroke="#262626" stroke-width="3.33333" stroke-linecap="round" stroke-linejoin="round"/>
<path d="M15.5 29.9997C15.5 25.8914 17.1917 22.2664 19.85 19.8497" stroke="#262626" stroke-width="3.33333" stroke-linecap="round" stroke-linejoin="round"/>
<path d="M30.0003 34.833C32.6697 34.833 34.8337 32.6691 34.8337 29.9997C34.8337 27.3303 32.6697 25.1664 30.0003 25.1664C27.3309 25.1664 25.167 27.3303 25.167 29.9997C25.167 32.6691 27.3309 34.833 30.0003 34.833Z" stroke="#262626" stroke-width="3.33333" stroke-linecap="round" stroke-linejoin="round"/>
<path d="M44.5004 29.9998C44.5004 34.1081 42.8087 37.7331 40.1504 40.1498" stroke="#262626" stroke-width="3.33333" stroke-linecap="round" stroke-linejoin="round"/>
</svg>
