<svg width="60" height="60" viewBox="0 0 60 60" fill="none" xmlns="http://www.w3.org/2000/svg">
<path d="M38.4036 32.1509L42.0649 52.7554C42.1059 52.998 42.0718 53.2474 41.9673 53.4701C41.8627 53.6929 41.6927 53.8784 41.4799 54.0019C41.267 54.1254 41.0216 54.1809 40.7763 54.1612C40.531 54.1414 40.2976 54.0472 40.1074 53.8912L31.4557 47.3976C31.038 47.0856 30.5307 46.917 30.0093 46.917C29.488 46.917 28.9806 47.0856 28.5629 47.3976L19.8968 53.8888C19.7066 54.0445 19.4735 54.1385 19.2286 54.1583C18.9836 54.1782 18.7384 54.1228 18.5257 53.9996C18.313 53.8765 18.1429 53.6914 18.0382 53.4691C17.9334 53.2468 17.8989 52.9978 17.9393 52.7554L21.5981 32.1509" stroke="#262626" stroke-width="3.33333" stroke-linecap="round" stroke-linejoin="round"/>
<path d="M30 34.8335C38.0081 34.8335 44.5 28.3416 44.5 20.3335C44.5 12.3254 38.0081 5.8335 30 5.8335C21.9919 5.8335 15.5 12.3254 15.5 20.3335C15.5 28.3416 21.9919 34.8335 30 34.8335Z" stroke="#262626" stroke-width="3.33333" stroke-linecap="round" stroke-linejoin="round"/>
</svg>
