<svg width="60" height="60" viewBox="0 0 60 60" fill="none" xmlns="http://www.w3.org/2000/svg">
<path d="M27.583 25.1665L34.833 32.4165" stroke="#262626" stroke-width="3.33333" stroke-linecap="round" stroke-linejoin="round"/>
<path d="M25.0908 42.158L52.6625 14.5911C53.6246 13.629 54.1651 12.3242 54.1651 10.9637C54.1651 9.60314 53.6246 8.29832 52.6625 7.33627C51.7005 6.37421 50.3957 5.83374 49.0351 5.83374C47.6746 5.83374 46.3697 6.37421 45.4077 7.33627L17.8359 34.908" stroke="#262626" stroke-width="3.33333" stroke-linecap="round" stroke-linejoin="round"/>
<path d="M16.7075 51.7497C18.3804 51.7497 20.0157 51.2536 21.4067 50.3242C22.7976 49.3948 23.8817 48.0738 24.5219 46.5282C25.1621 44.9827 25.3296 43.282 25.0033 41.6412C24.6769 40.0005 23.8713 38.4933 22.6884 37.3104C21.5055 36.1275 19.9983 35.3219 18.3576 34.9955C16.7168 34.6692 15.0161 34.8367 13.4706 35.4769C11.925 36.1171 10.604 37.2012 9.6746 38.5921C8.74519 39.9831 8.24912 41.6184 8.24912 43.2913C8.24956 44.8998 7.63782 46.4482 6.53812 47.622C6.19927 47.96 5.96841 48.391 5.8748 48.8604C5.78119 49.3297 5.82906 49.8163 6.01233 50.2584C6.19559 50.7005 6.50601 51.0783 6.90423 51.3438C7.30244 51.6093 7.77052 51.7505 8.24912 51.7497H16.7075Z" stroke="#262626" stroke-width="3.33333" stroke-linecap="round" stroke-linejoin="round"/>
</svg>
