<svg width="60" height="60" viewBox="0 0 60 60" fill="none" xmlns="http://www.w3.org/2000/svg">
<path d="M54.167 25.1666V39.6666" stroke="#262626" stroke-width="3.33333" stroke-linecap="round" stroke-linejoin="round"/>
<path d="M52.7647 27.3948C53.1974 27.2039 53.5645 26.8903 53.8206 26.4929C54.0768 26.0954 54.2107 25.6315 54.2058 25.1587C54.201 24.6859 54.0575 24.2249 53.7931 23.8328C53.5288 23.4407 53.1553 23.1348 52.7188 22.9529L32.0056 13.5183C31.3759 13.231 30.6918 13.0824 29.9997 13.0824C29.3076 13.0824 28.6236 13.231 27.9939 13.5183L7.28309 22.9433C6.85284 23.1317 6.48684 23.4414 6.22982 23.8346C5.97281 24.2277 5.83594 24.6872 5.83594 25.1569C5.83594 25.6266 5.97281 26.0861 6.22982 26.4793C6.48684 26.8724 6.85284 27.1822 7.28309 27.3706L27.9939 36.8149C28.6236 37.1022 29.3076 37.2508 29.9997 37.2508C30.6918 37.2508 31.3759 37.1022 32.0056 36.8149L52.7647 27.3948Z" stroke="#262626" stroke-width="3.33333" stroke-linecap="round" stroke-linejoin="round"/>
<path d="M15.5 31.2084V39.6667C15.5 41.5895 17.0277 43.4336 19.747 44.7932C22.4662 46.1529 26.1544 46.9167 30 46.9167C33.8456 46.9167 37.5338 46.1529 40.2531 44.7932C42.9723 43.4336 44.5 41.5895 44.5 39.6667V31.2084" stroke="#262626" stroke-width="3.33333" stroke-linecap="round" stroke-linejoin="round"/>
</svg>
