<svg width="60" height="60" viewBox="0 0 60 60" fill="none" xmlns="http://www.w3.org/2000/svg">
<path d="M43.2913 30.0003C43.2913 40.6337 34.5913 49.3337 23.958 49.3337C21.0738 49.3337 18.3077 48.1879 16.2682 46.1484C14.2288 44.109 13.083 41.3429 13.083 38.4587C13.083 23.9587 32.4163 28.792 32.4163 17.917C32.4163 15.9942 31.6525 14.1501 30.2929 12.7905C28.9332 11.4308 27.0892 10.667 25.1663 10.667C23.2435 10.667 21.3995 11.4308 20.0398 12.7905C18.6802 14.1501 17.9163 15.9942 17.9163 17.917C17.9163 25.167 23.958 38.4587 46.9163 49.3337" stroke="#262626" stroke-width="3.33333" stroke-linecap="round" stroke-linejoin="round"/>
<path d="M39.667 30H46.917" stroke="#262626" stroke-width="3.33333" stroke-linecap="round" stroke-linejoin="round"/>
</svg>
