<svg width="60" height="60" viewBox="0 0 60 60" fill="none" xmlns="http://www.w3.org/2000/svg">
<path d="M30 51.7498V17.9165" stroke="#262626" stroke-width="3.33333" stroke-linecap="round" stroke-linejoin="round"/>
<path d="M39.667 29.9998L44.5003 34.8332L54.167 25.1665" stroke="#262626" stroke-width="3.33333" stroke-linecap="round" stroke-linejoin="round"/>
<path d="M54.1663 15.4998V10.6664C54.1663 10.0255 53.9117 9.41079 53.4585 8.95758C53.0053 8.50437 52.3906 8.24976 51.7497 8.24976H39.6663C37.1026 8.24976 34.6438 9.2682 32.831 11.0811C31.0181 12.8939 29.9997 15.3527 29.9997 17.9164C29.9997 15.3527 28.9812 12.8939 27.1684 11.0811C25.3555 9.2682 22.8968 8.24976 20.333 8.24976H8.24967C7.60873 8.24976 6.99405 8.50437 6.54083 8.95758C6.08762 9.41079 5.83301 10.0255 5.83301 10.6664V42.0831C5.83301 42.724 6.08762 43.3387 6.54083 43.7919C6.99405 44.2451 7.60873 44.4998 8.24967 44.4998H22.7497C24.6725 44.4998 26.5166 45.2636 27.8762 46.6232C29.2358 47.9829 29.9997 49.8269 29.9997 51.7498C29.9997 49.8269 30.7635 47.9829 32.1231 46.6232C33.4828 45.2636 35.3268 44.4998 37.2497 44.4998H51.7497C52.3906 44.4998 53.0053 44.2451 53.4585 43.7919C53.9117 43.3387 54.1663 42.724 54.1663 42.0831V38.9414" stroke="#262626" stroke-width="3.33333" stroke-linecap="round" stroke-linejoin="round"/>
</svg>
