<svg width="60" height="60" viewBox="0 0 60 60" fill="none" xmlns="http://www.w3.org/2000/svg">
<path d="M25.167 29.9998H34.8337" stroke="#262626" stroke-width="3.33333" stroke-linecap="round" stroke-linejoin="round"/>
<path d="M25.167 20.333H34.8337" stroke="#262626" stroke-width="3.33333" stroke-linecap="round" stroke-linejoin="round"/>
<path d="M34.8337 51.7498V44.4998C34.8337 43.218 34.3244 41.9886 33.418 41.0822C32.5116 40.1757 31.2822 39.6665 30.0003 39.6665C28.7184 39.6665 27.4891 40.1757 26.5826 41.0822C25.6762 41.9886 25.167 43.218 25.167 44.4998V51.7498" stroke="#262626" stroke-width="3.33333" stroke-linecap="round" stroke-linejoin="round"/>
<path d="M15.4997 25.1665H10.6663C9.38446 25.1665 8.15508 25.6757 7.24866 26.5822C6.34223 27.4886 5.83301 28.718 5.83301 29.9998V46.9165C5.83301 48.1984 6.34223 49.4278 7.24866 50.3342C8.15508 51.2406 9.38446 51.7498 10.6663 51.7498H49.333C50.6149 51.7498 51.8442 51.2406 52.7507 50.3342C53.6571 49.4278 54.1663 48.1984 54.1663 46.9165V22.7498C54.1663 21.468 53.6571 20.2386 52.7507 19.3322C51.8442 18.4257 50.6149 17.9165 49.333 17.9165H44.4997" stroke="#262626" stroke-width="3.33333" stroke-linecap="round" stroke-linejoin="round"/>
<path d="M15.5 51.7498V13.0831C15.5 11.8012 16.0092 10.5718 16.9157 9.66541C17.8221 8.75898 19.0515 8.24976 20.3333 8.24976H39.6667C40.9485 8.24976 42.1779 8.75898 43.0843 9.66541C43.9908 10.5718 44.5 11.8012 44.5 13.0831V51.7498" stroke="#262626" stroke-width="3.33333" stroke-linecap="round" stroke-linejoin="round"/>
</svg>
