<svg width="60" height="60" viewBox="0 0 60 60" fill="none" xmlns="http://www.w3.org/2000/svg">
<path d="M29.9997 39.6668C35.3384 39.6668 39.6663 35.3389 39.6663 30.0002C39.6663 24.6614 35.3384 20.3335 29.9997 20.3335C24.6609 20.3335 20.333 24.6614 20.333 30.0002C20.333 35.3389 24.6609 39.6668 29.9997 39.6668Z" stroke="#262626" stroke-width="3.33333" stroke-linecap="round" stroke-linejoin="round"/>
<path d="M39.6663 20.3335V32.4168C39.6663 34.3397 40.4302 36.1837 41.7898 37.5434C43.1495 38.903 44.9935 39.6668 46.9163 39.6668C48.8392 39.6668 50.6832 38.903 52.0429 37.5434C53.4025 36.1837 54.1663 34.3397 54.1663 32.4168V30.0002C54.1663 24.5562 52.3282 19.2716 48.9497 15.0027C45.5713 10.7339 40.8504 7.73078 35.552 6.48C30.2537 5.22922 24.6882 5.80405 19.7573 8.11135C14.8264 10.4186 10.819 14.3232 8.38438 19.1925C5.94974 24.0618 5.23051 29.6105 6.3432 34.9395C7.45589 40.2686 10.3353 45.0659 14.515 48.5542C18.6946 52.0424 23.9296 54.0172 29.3718 54.1587C34.814 54.3001 40.1445 52.5999 44.4997 49.3335" stroke="#262626" stroke-width="3.33333" stroke-linecap="round" stroke-linejoin="round"/>
</svg>
