<svg width="60" height="60" viewBox="0 0 60 60" fill="none" xmlns="http://www.w3.org/2000/svg">
<path d="M34.833 5.83337V15.5C34.833 16.7819 35.3422 18.0113 36.2487 18.9177C37.1551 19.8241 38.3845 20.3334 39.6663 20.3334H49.333" stroke="#262626" stroke-width="3.33333" stroke-linecap="round" stroke-linejoin="round"/>
<path d="M37.2503 5.83337H15.5003C14.2184 5.83337 12.9891 6.3426 12.0826 7.24902C11.1762 8.15545 10.667 9.38483 10.667 10.6667V49.3334C10.667 50.6152 11.1762 51.8446 12.0826 52.751C12.9891 53.6575 14.2184 54.1667 15.5003 54.1667H44.5003C45.7822 54.1667 47.0116 53.6575 47.918 52.751C48.8244 51.8446 49.3337 50.6152 49.3337 49.3334V17.9167L37.2503 5.83337Z" stroke="#262626" stroke-width="3.33333" stroke-linecap="round" stroke-linejoin="round"/>
</svg>
