<svg width="60" height="60" viewBox="0 0 60 60" fill="none" xmlns="http://www.w3.org/2000/svg">
<path d="M42.083 25.1663C43.7747 23.4747 46.1672 25.1663 48.1247 25.1663C49.727 25.1663 51.2637 24.5298 52.3968 23.3968C53.5298 22.2637 54.1663 20.727 54.1663 19.1247C54.1663 17.5223 53.5298 15.9856 52.3968 14.8526C51.2637 13.7195 49.727 13.083 48.1247 13.083C47.8042 13.083 47.4968 12.9557 47.2702 12.7291C47.0436 12.5025 46.9163 12.1951 46.9163 11.8747C46.9163 10.2723 46.2798 8.7356 45.1468 7.60257C44.0137 6.46954 42.477 5.83301 40.8747 5.83301C39.2723 5.83301 37.7356 6.46954 36.6026 7.60257C35.4695 8.7356 34.833 10.2723 34.833 11.8747C34.833 13.8322 36.5247 16.2247 34.833 17.9163L17.9163 34.833C16.2247 36.5247 13.8322 34.833 11.8747 34.833C10.2723 34.833 8.7356 35.4695 7.60257 36.6026C6.46954 37.7356 5.83301 39.2723 5.83301 40.8747C5.83301 42.477 6.46954 44.0137 7.60257 45.1468C8.7356 46.2798 10.2723 46.9163 11.8747 46.9163C12.5513 46.9163 13.083 47.448 13.083 48.1247C13.083 49.727 13.7195 51.2637 14.8526 52.3968C15.9856 53.5298 17.5223 54.1663 19.1247 54.1663C20.727 54.1663 22.2637 53.5298 23.3968 52.3968C24.5298 51.2637 25.1663 49.727 25.1663 48.1247C25.1663 46.1672 23.4747 43.7747 25.1663 42.083L42.083 25.1663Z" stroke="#262626" stroke-width="3.33333" stroke-linecap="round" stroke-linejoin="round"/>
</svg>
