<svg width="60" height="60" viewBox="0 0 60 60" fill="none" xmlns="http://www.w3.org/2000/svg">
<rect width="60" height="60" rx="5" fill="#282573"/>
<path d="M38.333 26.6666C39.4997 25.4999 41.1497 26.6666 42.4997 26.6666C43.6047 26.6666 44.6646 26.2276 45.446 25.4462C46.2274 24.6648 46.6663 23.605 46.6663 22.4999C46.6663 21.3948 46.2274 20.335 45.446 19.5536C44.6646 18.7722 43.6047 18.3333 42.4997 18.3333C42.2787 18.3333 42.0667 18.2455 41.9104 18.0892C41.7541 17.9329 41.6663 17.7209 41.6663 17.4999C41.6663 16.3948 41.2274 15.335 40.446 14.5536C39.6646 13.7722 38.6047 13.3333 37.4997 13.3333C36.3946 13.3333 35.3348 13.7722 34.5534 14.5536C33.772 15.335 33.333 16.3948 33.333 17.4999C33.333 18.8499 34.4997 20.4999 33.333 21.6666L21.6663 33.3333C20.4997 34.4999 18.8497 33.3333 17.4997 33.3333C16.3946 33.3333 15.3348 33.7722 14.5534 34.5536C13.772 35.335 13.333 36.3948 13.333 37.4999C13.333 38.605 13.772 39.6648 14.5534 40.4462C15.3348 41.2276 16.3946 41.6666 17.4997 41.6666C17.9663 41.6666 18.333 42.0333 18.333 42.4999C18.333 43.605 18.772 44.6648 19.5534 45.4462C20.3348 46.2276 21.3946 46.6666 22.4997 46.6666C23.6047 46.6666 24.6646 46.2276 25.446 45.4462C26.2274 44.6648 26.6663 43.605 26.6663 42.4999C26.6663 41.1499 25.4997 39.4999 26.6663 38.3333L38.333 26.6666Z" stroke="white" stroke-width="3.33333" stroke-linecap="round" stroke-linejoin="round"/>
</svg>
