<svg width="60" height="60" viewBox="0 0 60 60" fill="none" xmlns="http://www.w3.org/2000/svg">
<rect width="60" height="60" rx="5" fill="#282573"/>
<path d="M16.417 24.3669C16.1737 23.2711 16.2111 22.1316 16.5256 21.0541C16.8401 19.9766 17.4216 18.996 18.2161 18.2031C19.0106 17.4102 19.9925 16.8308 21.0707 16.5186C22.1488 16.2063 23.2884 16.1714 24.3837 16.4169C24.9865 15.4741 25.817 14.6982 26.7986 14.1607C27.7802 13.6233 28.8812 13.3416 30.0003 13.3416C31.1194 13.3416 32.2205 13.6233 33.2021 14.1607C34.1836 14.6982 35.0141 15.4741 35.617 16.4169C36.7139 16.1703 37.8554 16.2051 38.9353 16.5181C40.0152 16.8311 40.9984 17.4121 41.7934 18.2072C42.5884 19.0022 43.1695 19.9854 43.4825 21.0652C43.7955 22.1451 43.8303 23.2866 43.5837 24.3836C44.5265 24.9864 45.3024 25.8169 45.8398 26.7985C46.3773 27.7801 46.659 28.8812 46.659 30.0002C46.659 31.1193 46.3773 32.2204 45.8398 33.202C45.3024 34.1836 44.5265 35.0141 43.5837 35.6169C43.8292 36.7122 43.7942 37.8517 43.482 38.9299C43.1697 40.0081 42.5903 40.9899 41.7975 41.7845C41.0046 42.579 40.0239 43.1605 38.9464 43.475C37.8689 43.7895 36.7294 43.8268 35.6337 43.5836C35.0316 44.53 34.2005 45.3093 33.2172 45.8491C32.2339 46.389 31.1304 46.672 30.0087 46.672C28.8869 46.672 27.7834 46.389 26.8001 45.8491C25.8169 45.3093 24.9857 44.53 24.3837 43.5836C23.2884 43.8291 22.1488 43.7942 21.0707 43.4819C19.9925 43.1697 19.0106 42.5902 18.2161 41.7974C17.4216 41.0045 16.8401 40.0239 16.5256 38.9463C16.2111 37.8688 16.1737 36.7294 16.417 35.6336C15.4669 35.0323 14.6843 34.2005 14.1421 33.2156C13.5998 32.2307 13.3154 31.1246 13.3154 30.0002C13.3154 28.8759 13.5998 27.7698 14.1421 26.7849C14.6843 25.8 15.4669 24.9682 16.417 24.3669Z" stroke="white" stroke-width="3.33333" stroke-linecap="round" stroke-linejoin="round"/>
<path d="M30 23.3335V30.0002" stroke="#FFCC00" stroke-width="3.33333" stroke-linecap="round" stroke-linejoin="round"/>
<path d="M30 36.6667H30.0167" stroke="#FFCC00" stroke-width="3.33333" stroke-linecap="round" stroke-linejoin="round"/>
</svg>
