<svg width="60" height="60" viewBox="0 0 60 60" fill="none" xmlns="http://www.w3.org/2000/svg">
<rect width="60" height="60" rx="5" fill="#282573"/>
<path d="M32.1941 13.7411C34.5345 13.7411 36.4402 15.6452 36.4402 17.9872V31.6161C36.4402 31.9599 36.162 32.2379 35.8181 32.2382C35.4741 32.2382 35.1951 31.9601 35.1951 31.6161V17.9872C35.1951 16.3332 33.8494 14.9862 32.1941 14.9862H16.4958C14.8418 14.9862 13.4949 16.3319 13.4949 17.9872V32.3378C13.495 33.9917 14.8406 35.3387 16.4958 35.3387H20.6736C21.0175 35.3387 21.2965 35.6169 21.2966 35.9608C21.2966 36.3048 21.0176 36.5839 20.6736 36.5839H16.4958C14.1555 36.5839 12.2499 34.6797 12.2498 32.3378V17.9872C12.2498 15.6468 14.1539 13.7411 16.4958 13.7411H32.1941Z" fill="white" stroke="white" stroke-width="0.5"/>
<path d="M46.7749 18.8783C46.9649 18.7492 47.211 18.7341 47.4155 18.8412C47.621 18.9489 47.7474 19.1616 47.7476 19.391V30.9291C47.7475 31.1577 47.6216 31.3688 47.4175 31.477C47.4037 31.4844 47.3897 31.4911 47.3755 31.4975V31.5531H47.1255C47.0023 31.5531 46.8817 31.5161 46.7778 31.4477L46.7739 31.4457L38.3062 25.6772C38.1328 25.5606 38.0337 25.3662 38.0337 25.1615C38.0337 24.9536 38.137 24.7635 38.3032 24.6479L38.3052 24.6469L46.7739 18.8783H46.7749ZM39.7612 25.1615L46.5034 29.7533V20.5688L39.7612 25.1615Z" fill="white" stroke="white" stroke-width="0.5"/>
<path d="M24.3467 20.544C24.2913 20.544 24.2463 20.5888 24.2461 20.6426L24.2539 20.6817C24.2642 20.7056 24.2835 20.725 24.3076 20.7354L24.3467 20.7442M24.3467 20.544V20.7442M24.3467 20.544L24.3857 20.5518C24.4217 20.5667 24.4471 20.6012 24.4473 20.6426C24.4473 20.6981 24.4021 20.7441 24.3467 20.7442M24.3467 20.544V20.7442M24.3467 19.5489C24.9499 19.5489 25.4422 20.0383 25.4424 20.6426C25.4424 21.2465 24.9506 21.7383 24.3467 21.7383C23.7427 21.7383 23.251 21.2466 23.251 20.6426C23.2512 20.0383 23.7434 19.5489 24.3467 19.5489Z" fill="white" stroke="white" stroke-width="0.5"/>
<path d="M19.2341 20.5441C19.1788 20.5441 19.1338 20.5889 19.1335 20.6427L19.1414 20.6818C19.1516 20.7057 19.171 20.7251 19.1951 20.7355L19.2341 20.7443M19.2341 20.5441V20.7443M19.2341 20.5441L19.2722 20.5519C19.3076 20.5668 19.3336 20.6013 19.3337 20.6427L19.3259 20.6828C19.3109 20.7187 19.2756 20.7443 19.2341 20.7443M19.2341 20.5441V20.7443M19.2341 19.549C19.8379 19.549 20.3277 20.039 20.3279 20.6427C20.3279 21.2461 19.8386 21.7384 19.2341 21.7384C18.6302 21.7384 18.1384 21.2467 18.1384 20.6427C18.1386 20.0384 18.6309 19.549 19.2341 19.549Z" fill="white" stroke="white" stroke-width="0.5"/>
<path d="M29.459 20.544C29.4036 20.544 29.3586 20.5888 29.3584 20.6426L29.3662 20.6817C29.3765 20.7056 29.3958 20.725 29.4199 20.7354L29.459 20.7442M29.459 20.544V20.7442M29.459 20.544L29.498 20.5518C29.534 20.5667 29.5594 20.6012 29.5596 20.6426C29.5596 20.6981 29.5144 20.7441 29.459 20.7442M29.459 20.544V20.7442M29.459 19.5489C30.0622 19.5489 30.5545 20.0383 30.5547 20.6426C30.5547 21.2465 30.0629 21.7383 29.459 21.7383C28.855 21.7383 28.3633 21.2466 28.3633 20.6426C28.3635 20.0383 28.8557 19.5489 29.459 19.5489Z" fill="white" stroke="white" stroke-width="0.5"/>
<path d="M29.3511 27.0339L29.5415 27.0437C30.4786 27.1408 31.2111 27.9364 31.2095 28.8982L31.2017 33.3728L35.9937 34.0613L35.9995 34.0623L36.2476 34.115C37.4654 34.4322 38.3204 35.5216 38.3188 36.7966L38.313 40.3894C38.3083 43.1379 36.4124 45.5496 33.7925 46.1189C33.4486 46.1935 33.1034 46.2353 32.7603 46.2498V46.2585H32.5103C30.8096 46.2585 29.1905 45.5304 28.0708 44.2175C28.0211 44.1836 27.9705 44.1423 27.9302 44.0857L23.3979 37.7888V37.7878C23.101 37.4027 22.9672 36.9104 23.0288 36.4158C23.0911 35.9166 23.3437 35.4695 23.7407 35.1599L23.769 35.1375L23.7729 35.1335C24.1605 34.8319 24.6451 34.6959 25.1343 34.7585H25.1333C25.6208 34.8193 26.0575 35.0665 26.3599 35.4548L27.3901 36.7761L27.4038 28.8914C27.404 28.3936 27.6008 27.9278 27.9507 27.5779C28.3016 27.2269 28.7699 27.0339 29.2651 27.0339H29.3511ZM29.2651 28.28C29.1 28.28 28.9458 28.3435 28.8296 28.4597C28.7127 28.5767 28.6489 28.7313 28.6489 28.8953L28.6323 38.5867L28.6255 38.6843C28.5899 38.9087 28.4334 39.1003 28.2124 39.1755C27.9614 39.2608 27.6834 39.1778 27.52 38.9685L25.3784 36.2205H25.3774C25.2799 36.0941 25.1393 36.0135 24.98 35.9939C24.8232 35.9746 24.6693 36.0163 24.5425 36.1121L24.5103 36.1384L24.5054 36.1423C24.3695 36.2477 24.2832 36.3977 24.2622 36.5681C24.2464 36.6965 24.2685 36.8227 24.3247 36.9343L24.3931 37.0408L24.3989 37.0486L28.8452 43.2263C28.8547 43.2339 28.8649 43.24 28.8735 43.2478L28.9351 43.3113L28.938 43.3152C30.0326 44.6712 31.7913 45.2816 33.5278 44.9041C35.5687 44.4613 37.0641 42.5653 37.0669 40.3884L37.0728 36.7957L37.0669 36.657C37.0068 35.9723 36.4964 35.411 35.8071 35.2937L30.4897 34.53C30.182 34.4859 29.9556 34.2219 29.9556 33.9128L29.9644 28.8982L29.9517 28.7732C29.9023 28.5329 29.7132 28.3427 29.4731 28.2927L29.3491 28.28H29.2651Z" fill="#FFCC00" stroke="#FFCC00" stroke-width="0.5"/>
</svg>
