<svg width="60" height="60" viewBox="0 0 60 60" fill="none" xmlns="http://www.w3.org/2000/svg">
<rect width="60" height="60" rx="5" fill="#282573"/>
<path d="M29.9997 46.6665C39.2044 46.6665 46.6663 39.2045 46.6663 29.9998C46.6663 20.7951 39.2044 13.3331 29.9997 13.3331C20.7949 13.3331 13.333 20.7951 13.333 29.9998C13.333 39.2045 20.7949 46.6665 29.9997 46.6665Z" stroke="white" stroke-width="3.33333" stroke-linecap="round" stroke-linejoin="round"/>
<path d="M20 29.9998C20 27.1664 21.1667 24.6664 23 22.9998" stroke="#FFCC00" stroke-width="3.33333" stroke-linecap="round" stroke-linejoin="round"/>
<path d="M30.0003 33.3332C31.8413 33.3332 33.3337 31.8408 33.3337 29.9998C33.3337 28.1589 31.8413 26.6665 30.0003 26.6665C28.1594 26.6665 26.667 28.1589 26.667 29.9998C26.667 31.8408 28.1594 33.3332 30.0003 33.3332Z" stroke="white" stroke-width="3.33333" stroke-linecap="round" stroke-linejoin="round"/>
<path d="M40 29.9999C40 32.8332 38.8333 35.3332 37 36.9999" stroke="#FFCC00" stroke-width="3.33333" stroke-linecap="round" stroke-linejoin="round"/>
</svg>
