<svg width="60" height="60" viewBox="0 0 60 60" fill="none" xmlns="http://www.w3.org/2000/svg">
<rect width="60" height="60" rx="5" fill="#282573"/>
<path d="M30.002 18.2635C35.5506 18.2635 40.0645 22.7773 40.0645 28.326C40.0645 32.354 37.7202 35.9218 34.0596 37.532V40.3768C34.0594 40.7153 33.7848 40.9891 33.4463 40.9891C33.1078 40.989 32.8342 40.7153 32.834 40.3768V37.1258C32.834 36.8741 32.987 36.6473 33.2227 36.5555C36.6353 35.2186 38.8389 31.989 38.8389 28.326C38.8389 23.4532 34.8747 19.4891 30.002 19.4891C25.1292 19.4891 21.165 23.4533 21.165 28.326C21.165 31.989 23.3685 35.2172 26.7812 36.5555H26.7803C27.0164 36.6471 27.1699 36.8738 27.1699 37.1258V40.3768C27.1697 40.7153 26.8961 40.989 26.5576 40.9891C26.219 40.9891 25.9445 40.7153 25.9443 40.3768V37.532C22.2838 35.9218 19.9395 32.354 19.9395 28.326C19.9395 22.7773 24.4533 18.2635 30.002 18.2635Z" fill="white" stroke="white" stroke-width="0.5"/>
<path d="M33.4473 43.3828C33.786 43.3828 34.0605 43.6575 34.0605 43.9961C34.0603 46.066 32.3756 47.75 30.3057 47.75H29.6982C27.6284 47.7499 25.9446 46.0659 25.9443 43.9961C25.9443 43.6576 26.2181 43.3831 26.5566 43.3828H33.4473ZM27.2461 44.6074C27.5207 45.706 28.5152 46.5224 29.6982 46.5225H30.3047C31.4877 46.5224 32.4822 45.706 32.7568 44.6074H27.2461Z" fill="white" stroke="white" stroke-width="0.5"/>
<path d="M33.1162 39.8813C34.4193 39.8814 35.4783 40.9406 35.4785 42.2437C35.4785 43.5469 34.4195 44.6069 33.1162 44.6069H26.8828C25.5797 44.6067 24.5205 43.5468 24.5205 42.2437C24.5207 40.9407 25.5799 39.8816 26.8828 39.8813H33.1162ZM26.8828 41.1069C26.2558 41.1072 25.7463 41.6166 25.7461 42.2437C25.7461 42.8709 26.2556 43.3811 26.8828 43.3813H33.1162C33.7435 43.3813 34.2529 42.871 34.2529 42.2437C34.2527 41.6165 33.7434 41.107 33.1162 41.1069H26.8828Z" fill="white" stroke="white" stroke-width="0.5"/>
<path d="M32.2607 27.4818C32.5839 27.5037 32.831 27.773 32.8311 28.0921C32.8311 28.3156 32.7998 28.5341 32.7441 28.7454L31.877 34.9202V34.9212C31.8335 35.2267 31.571 35.4475 31.2705 35.4476C31.2576 35.4476 31.2224 35.4466 31.1836 35.4407V35.4417C31.1823 35.4415 31.181 35.4409 31.1797 35.4407H31.1777V35.4398C30.8486 35.3891 30.6151 35.0837 30.6631 34.7493L31.25 30.5745C30.8704 30.7681 30.4459 30.8821 30.0029 30.8821C29.5589 30.8821 29.134 30.7678 28.7539 30.5735L29.3428 34.7493L29.3477 34.8734C29.3303 35.1584 29.113 35.3997 28.8223 35.4417H28.8203C28.4851 35.4872 28.1769 35.2548 28.1289 34.9212V34.9202L27.2617 28.7454C27.2061 28.5341 27.1748 28.3156 27.1748 28.0921C27.1749 27.7707 27.4237 27.5054 27.7432 27.4827V27.4818L27.7441 27.4827L27.7451 27.4818V27.4827C28.0632 27.4596 28.3494 27.6879 28.3936 28.0071L28.4639 28.5101C28.663 29.1552 29.3019 29.6566 30.0029 29.6566C30.704 29.6565 31.3409 29.1544 31.541 28.5081L31.6123 28.0071L31.6396 27.8919C31.7288 27.6349 31.9811 27.4628 32.2607 27.4818Z" fill="white" stroke="white" stroke-width="0.5"/>
<path d="M30 12.25C30.3385 12.2503 30.6123 12.5248 30.6123 12.8633V16.1338C30.6122 16.4722 30.3384 16.7458 30 16.7461C29.6614 16.7461 29.3868 16.4724 29.3867 16.1338V12.8633C29.3867 12.5246 29.6613 12.25 30 12.25Z" fill="#FFCC00" stroke="#FFCC00" stroke-width="0.5"/>
<path d="M18.6348 16.958C18.8746 16.7182 19.262 16.7183 19.502 16.958L21.8174 19.2734C22.0569 19.5134 22.0571 19.9009 21.8174 20.1406C21.698 20.26 21.5407 20.3203 21.3838 20.3203H21.3828C21.2284 20.3203 21.0696 20.2612 20.9502 20.1406L18.6348 17.8252C18.3951 17.5853 18.3949 17.1978 18.6348 16.958Z" fill="#FFCC00" stroke="#FFCC00" stroke-width="0.5"/>
<path d="M45.4639 27.7136C45.8025 27.7136 46.0762 27.9882 46.0762 28.3268C46.0759 28.6653 45.8023 28.9391 45.4639 28.9391H42.1934C41.8549 28.9391 41.5803 28.6653 41.5801 28.3268C41.5801 27.9882 41.8547 27.7136 42.1934 27.7136H45.4639Z" fill="#FFCC00" stroke="#FFCC00" stroke-width="0.5"/>
<path d="M17.8105 27.7136C18.1491 27.7137 18.4229 27.9883 18.4229 28.3268C18.4226 28.6652 18.1489 28.939 17.8105 28.9391H14.5361C14.1978 28.9389 13.9241 28.6651 13.9238 28.3268C13.9238 27.9884 14.1976 27.7138 14.5361 27.7136H17.8105Z" fill="#FFCC00" stroke="#FFCC00" stroke-width="0.5"/>
<path d="M40.502 16.958C40.7419 16.7184 41.1293 16.7182 41.3691 16.958C41.6089 17.1978 41.6087 17.5853 41.3691 17.8252L39.0566 20.1377C38.9374 20.2568 38.7808 20.3174 38.624 20.3174H38.623C38.4662 20.3174 38.3088 20.257 38.1895 20.1377C37.9496 19.8979 37.9498 19.5104 38.1895 19.2705L40.502 16.958Z" fill="#FFCC00" stroke="#FFCC00" stroke-width="0.5"/>
</svg>
