<svg width="60" height="60" viewBox="0 0 60 60" fill="none" xmlns="http://www.w3.org/2000/svg">
<rect width="60" height="60" rx="5" fill="#282573"/>
<path d="M34.1699 12.6032C34.3138 12.2964 34.6783 12.1639 34.9863 12.3083L34.9854 12.3093C38.5867 13.9948 41.3199 16.9884 42.6777 20.737C44.0355 24.4857 43.8543 28.535 42.1689 32.1364C40.4834 35.738 37.4881 38.471 33.7393 39.8288C32.1584 40.4008 30.5229 40.6966 28.8906 40.7243V40.7331H28.6406C26.4862 40.7331 24.3436 40.2604 22.3398 39.3229H22.3389C22.0357 39.1797 21.8999 38.8155 22.0449 38.5075H22.0439C22.1878 38.2007 22.5523 38.0672 22.8604 38.2116H22.8594C26.1651 39.7595 29.8802 39.9246 33.3223 38.6774C36.7644 37.4302 39.5116 34.9246 41.0596 31.6188C42.6074 28.3132 42.7725 24.598 41.5254 21.1559C40.2782 17.7138 37.7716 14.9666 34.4658 13.4186C34.1595 13.2749 34.0254 12.91 34.1699 12.6032Z" fill="white" stroke="white" stroke-width="0.5"/>
<path d="M28.6631 39.5002C29.0021 39.5002 29.2763 39.7746 29.2764 40.1135V44.3879C29.2761 44.7267 29.0019 45.0012 28.6631 45.0012C28.3243 45.0012 28.0501 44.7267 28.0498 44.3879V40.1135C28.0499 39.7746 28.3242 39.5003 28.6631 39.5002Z" fill="white" stroke="white" stroke-width="0.5"/>
<path d="M28.6626 43.7716C30.7655 43.7716 32.6253 44.1101 33.9692 44.6837C35.2911 45.248 36.2104 46.0872 36.2104 47.1368C36.2104 47.4758 35.9361 47.7501 35.5972 47.7501C35.2582 47.7501 34.9839 47.4758 34.9839 47.1368C34.9839 46.9575 34.8749 46.7295 34.5864 46.4747C34.3019 46.2235 33.8711 45.9736 33.3081 45.7521C32.1842 45.3098 30.5738 44.9982 28.6626 44.9982C26.7515 44.9982 25.141 45.3091 24.0171 45.7511C23.4541 45.9726 23.0233 46.2235 22.7388 46.4747C22.4506 46.7293 22.3413 46.9571 22.3413 47.1368C22.3413 47.4758 22.067 47.7501 21.728 47.7501C21.3891 47.7501 21.1147 47.4758 21.1147 47.1368C21.1147 46.0872 22.0341 45.248 23.356 44.6837C24.6999 44.1101 26.5597 43.7716 28.6626 43.7716Z" fill="white" stroke="white" stroke-width="0.5"/>
<path d="M20.8135 16.422C23.3226 14.326 26.4981 13.3323 29.7549 13.6232C33.0116 13.9156 35.9602 15.4578 38.0576 17.9669C40.1536 20.4761 41.1474 23.653 40.8564 26.9083C40.5641 30.1649 39.0216 33.1131 36.5127 35.2091H36.5117C34.2894 37.0648 31.5454 38.0577 28.6836 38.0577C28.3144 38.0577 27.9432 38.0414 27.5693 38.0079C24.3127 37.7155 21.3646 36.1733 19.2686 33.6642C17.1725 31.155 16.1788 27.9781 16.4697 24.7228C16.7622 21.4662 18.3044 18.518 20.8135 16.422ZM28.6523 14.8048C26.1605 14.8048 23.6553 15.6434 21.5986 17.3615C19.3409 19.2485 17.9538 21.9012 17.6904 24.8322C17.4285 27.7631 18.3211 30.6205 20.208 32.8781C22.095 35.1357 24.7478 36.5229 27.6787 36.7863C30.6096 37.0482 33.467 36.1556 35.7246 34.2687C37.9823 32.3816 39.3694 29.7289 39.6328 26.798L39.6689 26.2491C39.7797 23.512 38.8842 20.8685 37.1152 18.7521C34.9404 16.1481 31.8081 14.8048 28.6523 14.8048Z" fill="white" stroke="white" stroke-width="0.5"/>
<path d="M31.4697 14.7291C32.3261 14.4121 33.1385 14.3905 33.8438 14.7203C34.5514 15.051 35.0457 15.6915 35.3477 16.5289C35.6488 17.3645 35.7655 18.4129 35.7129 19.5992C35.6075 21.9733 34.8215 24.9534 33.3887 28.0221C32.129 30.7195 30.6009 32.9888 29.0605 34.5875C27.5318 36.1742 25.9476 37.1441 24.5732 37.1442H24.5713C24.2365 37.1441 23.9134 37.0867 23.6084 36.9645L23.4795 36.9088C22.7742 36.5797 22.2695 35.9429 21.9629 35.0826C21.6572 34.2248 21.5426 33.1308 21.6201 31.8512C21.7679 29.4092 22.5934 26.4829 23.9365 23.6071C25.2798 20.7311 26.9937 18.22 28.7725 16.5397C29.7037 15.6599 30.6157 15.0453 31.4697 14.7291ZM32.7412 15.7115C31.9877 15.7117 30.9759 16.2069 29.8428 17.2213L29.6143 17.4313C27.9588 18.9957 26.3339 21.3711 25.0479 24.1256C23.7617 26.8804 22.982 29.6518 22.8447 31.9264C22.7803 32.9915 22.866 33.8751 23.0752 34.5377C23.2588 35.1193 23.5289 35.5083 23.8555 35.7184L23.999 35.7975L24.166 35.861C24.5691 35.9848 25.0674 35.9271 25.6514 35.6686C26.3171 35.3739 27.0617 34.8317 27.834 34.0768C29.3771 32.5684 30.9927 30.2478 32.2754 27.5016C33.5574 24.7559 34.2996 22.0271 34.4658 19.8756C34.549 18.7993 34.4872 17.8809 34.2861 17.1813C34.0844 16.4797 33.7537 16.0306 33.3242 15.8297C33.1654 15.7552 32.9843 15.7162 32.7812 15.7115H32.7412Z" fill="#FFCC00" stroke="#FFCC00" stroke-width="0.5"/>
<path d="M22.5596 18.502C24.9674 18.5399 27.9693 19.2859 31.04 20.7197C34.11 22.1535 36.6089 23.9759 38.1836 25.7979C39.7432 27.6025 40.4586 29.4878 39.7549 30.9961C39.0698 32.4636 37.2459 33.1298 34.9531 33.1299C32.5132 33.1299 29.4319 32.3819 26.2803 30.9102C23.2103 29.4764 20.7114 27.654 19.1367 25.832C17.577 24.0274 16.8617 22.1421 17.5654 20.6338C18.27 19.1255 20.1746 18.4644 22.5596 18.502ZM22.3203 19.7383C21.3671 19.7383 20.5552 19.8644 19.9307 20.1084C19.3072 20.352 18.8869 20.7058 18.6777 21.1533C18.4501 21.641 18.4698 22.2501 18.7451 22.958C19.0206 23.6661 19.5439 24.4487 20.2822 25.2529C21.758 26.8603 24.0564 28.5172 26.7998 29.7988C29.5432 31.0797 32.2887 31.7789 34.4688 31.8789C35.5594 31.9289 36.4959 31.8283 37.2158 31.585C37.9358 31.3416 38.4156 30.9647 38.6436 30.4766L38.7178 30.2881C38.8631 29.835 38.8182 29.2906 38.5771 28.6709C38.3016 27.9628 37.7774 27.1801 37.0391 26.376C35.5632 24.7686 33.2648 23.1126 30.5215 21.8311C27.5474 20.443 24.5737 19.7383 22.3203 19.7383Z" fill="#FFCC00" stroke="#FFCC00" stroke-width="0.5"/>
</svg>
