<svg width="60" height="60" viewBox="0 0 60 60" fill="none" xmlns="http://www.w3.org/2000/svg">
<rect width="60" height="60" rx="5" fill="#282573"/>
<path d="M35.1699 15.7415C37.1444 15.7416 38.749 17.3478 38.749 19.3206V28.6546C38.749 29.0091 38.4618 29.2961 38.1074 29.2962C37.7529 29.2962 37.4658 29.0092 37.4658 28.6546V19.3206C37.4658 18.0553 36.4352 17.0248 35.1699 17.0247H15.8291C14.5638 17.0247 13.5332 18.0553 13.5332 19.3206V41.8431C13.5334 43.1083 14.5639 44.139 15.8291 44.139H35.1699C36.4351 44.1389 37.4657 43.1083 37.4658 41.8431V41.6712C37.4658 41.3167 37.7528 41.0296 38.1074 41.0296C38.4619 41.0298 38.749 41.3168 38.749 41.6712V41.8431C38.7489 43.8175 37.1426 45.4212 35.1699 45.4212H15.8291C13.8546 45.4212 12.2502 43.8159 12.25 41.8431V19.3206C12.25 17.3461 13.8562 15.7415 15.8291 15.7415H35.1699Z" fill="white" stroke="white" stroke-width="0.5"/>
<path d="M23.522 20.3083C23.8765 20.3083 24.1636 20.5953 24.1636 20.9499V27.1931C24.1636 27.5476 23.8765 27.8347 23.522 27.8347H17.2788C16.9242 27.8347 16.6372 27.5476 16.6372 27.1931V20.9499C16.6372 20.5953 16.9242 20.3083 17.2788 20.3083H23.522ZM17.9204 26.5515H22.8804V21.5915H17.9204V26.5515Z" fill="#FFCC00" stroke="#FFCC00" stroke-width="0.5"/>
<path d="M34.2603 21.2874C34.6147 21.2876 34.9019 21.5746 34.9019 21.929C34.9018 22.2835 34.6146 22.5705 34.2603 22.5706H27.2075C26.853 22.5706 26.5659 22.2836 26.5659 21.929C26.5659 21.5745 26.8529 21.2874 27.2075 21.2874H34.2603Z" fill="white" stroke="white" stroke-width="0.5"/>
<path d="M28.1294 31.0274C28.4837 31.0277 28.77 31.3146 28.77 31.669C28.77 32.0234 28.4837 32.3104 28.1294 32.3106H16.8755C16.5209 32.3106 16.2339 32.0236 16.2339 31.669C16.2339 31.3144 16.5209 31.0274 16.8755 31.0274H28.1294Z" fill="white" stroke="white" stroke-width="0.5"/>
<path d="M32.3872 35.3106L32.5161 35.3233C32.8086 35.383 33.0288 35.6419 33.0288 35.9522C33.0288 36.3066 32.7416 36.5936 32.3872 36.5938H16.8755C16.5209 36.5938 16.2339 36.3067 16.2339 35.9522C16.2339 35.5976 16.5209 35.3106 16.8755 35.3106H32.3872Z" fill="white" stroke="white" stroke-width="0.5"/>
<path d="M34.0166 39.5951C34.3712 39.5951 34.6582 39.8822 34.6582 40.2367C34.6582 40.5912 34.3712 40.8783 34.0166 40.8783H16.6289C16.2744 40.8783 15.9873 40.5913 15.9873 40.2367C15.9873 39.8821 16.2743 39.5951 16.6289 39.5951H34.0166Z" fill="white" stroke="white" stroke-width="0.5"/>
<path d="M29.1992 25.5283L29.2842 25.5468L33.5459 26.7597C33.6482 26.789 33.7443 26.8434 33.8223 26.9228L47.5625 40.662C47.8136 40.9131 47.8134 41.3191 47.5625 41.5703L44.5146 44.6181C44.3946 44.7381 44.2312 44.8065 44.0615 44.8066H43.8115V44.7538C43.7361 44.7218 43.6664 44.6761 43.6074 44.6171L29.8682 30.8769C29.7902 30.7988 29.7349 30.7033 29.7051 30.6015V30.6005L28.4922 26.3388V26.3378C28.4296 26.1147 28.4913 25.8739 28.6553 25.7099C28.7988 25.5664 29.0014 25.5005 29.1992 25.5283ZM30.8936 30.0888L44.0605 43.2558L46.2012 41.1152L33.0322 27.9462L30.042 27.0956L30.8936 30.0888Z" fill="white" stroke="white" stroke-width="0.5"/>
<path d="M44.6753 38.6818C44.9265 38.4306 45.3323 38.4306 45.5835 38.6818C45.8344 38.933 45.8346 39.3389 45.5835 39.59L42.5356 42.6378C42.4107 42.7628 42.2458 42.8263 42.0815 42.8263H42.0806C41.9164 42.8263 41.7524 42.7626 41.6274 42.6378C41.3763 42.3866 41.3763 41.9808 41.6274 41.7296L44.6753 38.6818Z" fill="white" stroke="white" stroke-width="0.5"/>
<path d="M32.8721 26.9645C33.1232 26.7134 33.5291 26.7134 33.7803 26.9645C34.0312 27.2157 34.0314 27.6216 33.7803 27.8727L30.7754 30.8776C30.6505 31.0025 30.4863 31.066 30.3223 31.0661H30.3203C30.1562 31.0661 29.9921 31.0024 29.8672 30.8776C29.616 30.6264 29.616 30.2206 29.8672 29.9694L32.8721 26.9645Z" fill="white" stroke="white" stroke-width="0.5"/>
</svg>
