<svg width="60" height="60" viewBox="0 0 60 60" fill="none" xmlns="http://www.w3.org/2000/svg">
<rect width="60" height="60" rx="5" fill="#282573"/>
<path d="M33.333 13.3334V20C33.333 20.8841 33.6842 21.7319 34.3093 22.3571C34.9344 22.9822 35.7823 23.3334 36.6663 23.3334H43.333" stroke="#FFCC00" stroke-width="3.33333" stroke-linecap="round" stroke-linejoin="round"/>
<path d="M35.0003 13.3334H20.0003C19.1163 13.3334 18.2684 13.6846 17.6433 14.3097C17.0182 14.9348 16.667 15.7827 16.667 16.6667V43.3334C16.667 44.2174 17.0182 45.0653 17.6433 45.6904C18.2684 46.3155 19.1163 46.6667 20.0003 46.6667H40.0003C40.8844 46.6667 41.7322 46.3155 42.3573 45.6904C42.9825 45.0653 43.3337 44.2174 43.3337 43.3334V21.6667L35.0003 13.3334Z" stroke="white" stroke-width="3.33333" stroke-linecap="round" stroke-linejoin="round"/>
</svg>
