<svg width="60" height="60" viewBox="0 0 60 60" fill="none" xmlns="http://www.w3.org/2000/svg">
<rect width="60" height="60" rx="5" fill="#282573"/>
<path d="M44.1211 13.9169C46.1216 13.917 47.7497 15.5453 47.75 17.5458V36.2704C47.75 38.2711 46.1217 39.9001 44.1211 39.9003H15.8779C13.8774 39.9 12.249 38.271 12.249 36.2704V17.5458C12.2493 15.5454 13.8775 13.9171 15.8779 13.9169H44.1211ZM15.8779 15.1678C14.5674 15.1681 13.5003 16.2353 13.5 17.5458V36.2704C13.5 37.5811 14.5673 38.649 15.8779 38.6493H44.1211C45.4318 38.6491 46.499 37.5811 46.499 36.2704V17.5458C46.4988 16.2352 45.4317 15.168 44.1211 15.1678H15.8779Z" fill="white" stroke="white" stroke-width="0.5"/>
<path d="M34.7578 44.8319C35.1033 44.8319 35.3835 45.1114 35.3838 45.4569C35.3838 45.8026 35.1035 46.0829 34.7578 46.0829H25.2393C24.8938 46.0826 24.6143 45.8024 24.6143 45.4569C24.6145 45.1116 24.894 44.8322 25.2393 44.8319H34.7578Z" fill="white" stroke="white" stroke-width="0.5"/>
<path d="M29.999 41.2437C30.3446 41.2437 30.6247 41.5232 30.625 41.8687V45.4575C30.625 45.8032 30.3447 46.0835 29.999 46.0835C29.6535 46.0832 29.374 45.803 29.374 45.4575V41.8687C29.3743 41.5233 29.6537 41.2439 29.999 41.2437Z" fill="white" stroke="white" stroke-width="0.5"/>
<path d="M36.7573 18.4246C37.4728 18.4246 38.0532 19.0069 38.0532 19.7205V20.9656C38.0532 21.6812 37.4709 22.2615 36.7573 22.2615H23.2407C22.5252 22.2615 21.9448 21.6792 21.9448 20.9656V19.7205L21.9517 19.5877C22.0182 18.9344 22.5717 18.4246 23.2407 18.4246H36.7573ZM23.2407 19.6736C23.2168 19.6736 23.1958 19.6947 23.1958 19.7186V20.9647C23.196 20.9884 23.2169 21.0086 23.2407 21.0086H36.7573C36.7811 21.0086 36.8021 20.9884 36.8022 20.9647V19.7186C36.8022 19.6947 36.7812 19.6736 36.7573 19.6736H23.2407Z" fill="white" stroke="white" stroke-width="0.5"/>
<path d="M21.1934 25.3291C24.0201 25.3291 26.3191 27.6274 26.3193 30.4541C26.3193 33.2809 24.0202 35.58 21.1934 35.58C18.3667 35.5798 16.0684 33.2808 16.0684 30.4541C16.0686 27.6276 18.3669 25.3293 21.1934 25.3291ZM21.1934 26.582C19.0581 26.5822 17.3193 28.3207 17.3193 30.456C17.3194 32.5914 19.0567 34.3298 21.1934 34.33C23.3303 34.33 25.0683 32.5929 25.0684 30.456C25.0684 28.3191 23.3303 26.582 21.1934 26.582Z" fill="#FFCC00" stroke="#FFCC00" stroke-width="0.5"/>
<path d="M43.3047 27.2843C43.6501 27.2844 43.9294 27.5639 43.9297 27.9093C43.9297 28.255 43.6503 28.5352 43.3047 28.5353H31.873C31.5276 28.535 31.248 28.2549 31.248 27.9093C31.2483 27.564 31.5277 27.2846 31.873 27.2843H43.3047Z" fill="#FFCC00" stroke="#FFCC00" stroke-width="0.5"/>
<path d="M39.3828 31.7014C39.7283 31.7014 40.0085 31.981 40.0088 32.3264C40.0088 32.6721 39.7285 32.9524 39.3828 32.9524H31.873C31.5276 32.9522 31.248 32.672 31.248 32.3264C31.2483 31.9811 31.5277 31.7017 31.873 31.7014H39.3828Z" fill="white" stroke="white" stroke-width="0.5"/>
</svg>
