<svg width="60" height="60" viewBox="0 0 60 60" fill="none" xmlns="http://www.w3.org/2000/svg">
<rect width="60" height="60" rx="5" fill="#282573"/>
<path d="M21.873 28.4545C22.2061 28.4545 22.4756 28.7241 22.4756 29.0571V42.1967C22.4754 44.5771 20.5415 46.5131 18.1621 46.5131C17.0104 46.5131 15.9247 46.0633 15.1104 45.2475C14.2951 44.432 13.8458 43.3483 13.8457 42.1967V29.0571C13.8457 28.7241 14.1152 28.4545 14.4482 28.4545C14.7813 28.4545 15.0508 28.7241 15.0508 29.0571V42.1967C15.0509 43.0275 15.374 43.8077 15.9619 44.3969C16.5496 44.9845 17.3311 45.308 18.1621 45.308C19.8764 45.308 21.2704 43.9115 21.2705 42.1967V29.0571C21.2705 28.724 21.5401 28.4546 21.873 28.4545Z" fill="white" stroke="white" stroke-width="0.5"/>
<path d="M23.4717 26.1039C23.8045 26.1041 24.0742 26.3735 24.0742 26.7064C24.0742 27.0394 23.8045 27.3088 23.4717 27.309H12.8525C12.5195 27.309 12.25 27.0394 12.25 26.7064C12.25 26.3734 12.5195 26.1039 12.8525 26.1039H23.4717Z" fill="white" stroke="white" stroke-width="0.5"/>
<path d="M26.4668 16.6318C26.7027 16.396 27.0835 16.396 27.3193 16.6318L32.0771 21.3896C36.2792 19.512 41.2172 20.4086 44.4922 23.6865C48.8356 28.0302 48.8356 35.0986 44.4922 39.4423C42.3456 41.5889 39.5345 42.6714 36.7168 42.6972L36.7139 42.7011H36.6123C33.7602 42.7011 30.907 41.6154 28.7344 39.4443C25.4594 36.1665 24.5642 31.227 26.4404 27.0263L21.6826 22.2685C21.4469 22.0326 21.4469 21.6518 21.6826 21.416C21.9185 21.1801 22.2993 21.1802 22.5352 21.416L27.5918 26.4726C27.7733 26.6542 27.8214 26.9332 27.7051 27.166C25.8188 30.9854 26.5741 35.5776 29.5869 38.5917C33.4603 42.4662 39.7664 42.4663 43.6396 38.5917C47.513 34.7171 47.5127 28.4123 43.6396 24.539C40.628 21.5246 36.0368 20.7683 32.2158 22.6552H32.2148C31.9847 22.7678 31.7064 22.7238 31.5234 22.541L26.4668 17.4843C26.231 17.2484 26.2309 16.8676 26.4668 16.6318Z" fill="white" stroke="white" stroke-width="0.5"/>
<path d="M26.1094 13.6638C26.3453 13.4279 26.727 13.4279 26.9629 13.6638C27.1986 13.8996 27.1985 14.2805 26.9629 14.5164L19.6162 21.863C19.4989 21.9801 19.3446 22.0398 19.1904 22.0398H19.1895C19.0352 22.0398 18.881 21.9803 18.7637 21.863C18.5279 21.6272 18.5281 21.2464 18.7637 21.0105L26.1094 13.6638Z" fill="white" stroke="white" stroke-width="0.5"/>
<path d="M44.6221 31.8304C44.9484 31.7855 45.2544 32.0134 45.3018 32.3422C45.3494 32.673 45.1168 32.9767 44.79 33.0238H44.7891C42.0758 33.4043 39.343 33.5941 36.6104 33.5941C33.8777 33.5941 31.1448 33.4043 28.4316 33.0238H28.4307C28.1045 32.9767 27.8715 32.6746 27.9189 32.3422C27.9662 32.0138 28.2706 31.7856 28.5986 31.8304H28.5996C33.9149 32.5766 39.3058 32.5766 44.6211 31.8304H44.6221Z" fill="#FFCC00" stroke="#FFCC00" stroke-width="0.5"/>
</svg>
