<svg width="60" height="60" viewBox="0 0 60 60" fill="none" xmlns="http://www.w3.org/2000/svg">
<rect width="60" height="60" rx="5" fill="#282573"/>
<path d="M28.333 26.6665L33.333 31.6665" stroke="white" stroke-width="3.33333" stroke-linecap="round" stroke-linejoin="round"/>
<path d="M26.6147 38.3847L45.6297 19.3731C46.2931 18.7096 46.6659 17.8097 46.6659 16.8714C46.6659 15.9331 46.2931 15.0332 45.6297 14.3697C44.9662 13.7062 44.0663 13.3335 43.128 13.3335C42.1897 13.3335 41.2898 13.7062 40.6263 14.3697L21.6113 33.3847" stroke="white" stroke-width="3.33333" stroke-linecap="round" stroke-linejoin="round"/>
<path d="M20.8331 44.9999C21.9868 44.9999 23.1146 44.6578 24.0739 44.0168C25.0332 43.3759 25.7808 42.4648 26.2224 41.3989C26.6639 40.333 26.7794 39.1601 26.5543 38.0286C26.3292 36.897 25.7737 35.8576 24.9578 35.0418C24.142 34.226 23.1026 33.6704 21.9711 33.4453C20.8395 33.2203 19.6666 33.3358 18.6007 33.7773C17.5348 34.2188 16.6238 34.9665 15.9828 35.9258C15.3418 36.885 14.9997 38.0129 14.9997 39.1666C15 40.2759 14.5781 41.3437 13.8197 42.1533C13.586 42.3864 13.4268 42.6836 13.3623 43.0073C13.2977 43.331 13.3307 43.6666 13.4571 43.9715C13.5835 44.2764 13.7976 44.5369 14.0722 44.72C14.3468 44.9031 14.6697 45.0005 14.9997 44.9999H20.8331Z" stroke="#FFCC00" stroke-width="3.33333" stroke-linecap="round" stroke-linejoin="round"/>
</svg>
