<svg width="60" height="60" viewBox="0 0 60 60" fill="none" xmlns="http://www.w3.org/2000/svg">
<rect width="60" height="60" rx="5" fill="#282573"/>
<path d="M30.002 18.9858C34.2929 18.9861 37.784 22.4771 37.7842 26.7681V27.6294C37.7842 29.9897 38.6161 32.3828 40.2031 34.5483C40.6697 35.1847 40.916 35.9412 40.916 36.7319V37.4019C40.916 38.652 39.8999 39.6701 38.6494 39.6704H21.3545C20.1039 39.6704 19.0869 38.6535 19.0869 37.4019V36.7319L19.0986 36.437C19.1523 35.7539 19.3916 35.1051 19.7998 34.5483C21.3869 32.3828 22.2188 29.991 22.2188 27.6294V26.7681C22.2189 22.477 25.7108 18.9858 30.002 18.9858ZM30 20.1167C26.3331 20.1175 23.3497 23.101 23.3496 26.7681V27.6294C23.3496 30.245 22.434 32.8687 20.7119 35.2163H20.7109C20.3868 35.6576 20.2159 36.1818 20.2158 36.7319V37.4019C20.2158 38.0289 20.727 38.5403 21.3525 38.5405H38.6475C39.2742 38.5405 39.7842 38.0292 39.7842 37.4019V36.7319C39.7841 36.2503 39.6534 35.7888 39.4033 35.3853L39.2891 35.2163C37.5683 32.8675 36.6514 30.2439 36.6514 27.6294V26.7681C36.6512 23.1008 33.6672 20.1172 30 20.1167Z" fill="#FFCC00" stroke="#FFCC00" stroke-width="0.5"/>
<path d="M29.1221 21.9235C29.3831 21.9234 29.621 22.1051 29.6758 22.3746C29.7377 22.6798 29.5409 22.9784 29.2344 23.0406C27.4746 23.4027 26.1963 24.9713 26.1963 26.7682C26.1962 27.08 25.9444 27.3318 25.6328 27.3326V27.3336H25.6309V27.3326C25.3193 27.3317 25.0674 27.0799 25.0674 26.7682C25.0674 24.4359 26.7242 22.4028 29.0088 21.9352L29.1221 21.9235Z" fill="white" stroke="white" stroke-width="0.5"/>
<path d="M32.3252 41.5226C32.5631 41.3224 32.9179 41.3503 33.1201 41.588C33.322 41.8254 33.2931 42.182 33.0557 42.3839C32.2144 43.0983 31.1297 43.4893 30.002 43.4894C28.8741 43.4894 27.7886 43.0984 26.9473 42.3839C26.7113 42.183 26.6784 41.826 26.8838 41.587C27.0844 41.3522 27.4401 41.3197 27.6787 41.5236L27.9258 41.714C28.5203 42.1319 29.2462 42.3605 30.002 42.3605C30.8656 42.3604 31.6901 42.0622 32.3242 41.5236L32.3252 41.5226Z" fill="#FFCC00" stroke="#FFCC00" stroke-width="0.5"/>
<path d="M30.002 14.7497C30.3142 14.7498 30.5674 15.0028 30.5674 15.3151V16.7028C30.5674 17.0151 30.3142 17.2681 30.002 17.2682C29.6896 17.2682 29.4365 17.0152 29.4365 16.7028V15.3151C29.4365 15.0028 29.6896 14.7497 30.002 14.7497Z" fill="white" stroke="white" stroke-width="0.5"/>
<path d="M41.5137 25.3664C41.7746 25.1986 42.1244 25.2718 42.2949 25.5354L42.4082 25.717C42.9546 26.6348 43.2421 27.6821 43.2422 28.757C43.2422 29.9036 42.9147 31.0226 42.2949 31.9807V31.9817C42.2095 32.1124 42.078 32.195 41.9365 32.2248L41.9229 32.2395H41.8193C41.7172 32.2394 41.6088 32.2111 41.5127 32.1477V32.1487L41.5107 32.1467H41.5098V32.1457C41.2515 31.975 41.177 31.6287 41.3467 31.3664C41.8477 30.593 42.1123 29.6908 42.1123 28.757C42.1123 27.8237 41.8464 26.9254 41.3447 26.1477C41.1762 25.886 41.2514 25.5353 41.5137 25.3664Z" fill="white" stroke="white" stroke-width="0.5"/>
<path d="M46.0068 24.0329C46.2879 23.9005 46.6234 24.0193 46.7568 24.3024C47.4168 25.6996 47.752 27.2009 47.752 28.7614C47.7519 30.3219 47.4178 31.8233 46.7578 33.2204L46.7568 33.2194C46.6604 33.4251 46.4567 33.5436 46.2461 33.5436H45.8418L45.9023 33.4235C45.6972 33.2653 45.6207 32.9808 45.7363 32.736C46.3235 31.4918 46.622 30.1538 46.6221 28.7604C46.6221 27.3668 46.3226 26.0282 45.7354 24.7839L45.7363 24.7829C45.604 24.5016 45.7231 24.1649 46.0068 24.0319V24.0329Z" fill="white" stroke="white" stroke-width="0.5"/>
<path d="M17.7109 25.5355C17.8597 25.3075 18.1438 25.2213 18.3887 25.3158L18.4912 25.3675L18.5811 25.4388C18.7691 25.6227 18.8075 25.9195 18.6611 26.1488L18.6602 26.1497C18.1586 26.9274 17.8936 27.8295 17.8936 28.7591C17.8936 29.6885 18.1585 30.5928 18.6582 31.3675C18.8296 31.6302 18.7535 31.9809 18.4932 32.1507C18.3977 32.2129 18.29 32.2415 18.1855 32.2415H18.0312L18.0166 32.2122C17.8951 32.1745 17.7857 32.0971 17.7109 31.9828L17.71 31.9818C17.0903 31.0238 16.7627 29.9084 16.7627 28.7581C16.7627 27.6077 17.0906 26.4965 17.71 25.5365L17.7109 25.5355Z" fill="white" stroke="white" stroke-width="0.5"/>
<path d="M13.2441 24.2998C13.3769 24.0188 13.7135 23.8958 13.9961 24.0293C14.277 24.162 14.3999 24.4986 14.2666 24.7812C13.6794 26.0254 13.3809 27.3621 13.3809 28.7568C13.3809 30.1516 13.6793 31.489 14.2666 32.7334C14.3814 32.9768 14.3064 33.2611 14.1006 33.4199L14.1611 33.541H13.7559C13.5436 33.541 13.3422 33.4214 13.2451 33.2187L13.2441 33.2177C12.5842 31.8207 12.25 30.3204 12.25 28.7588C12.25 27.1971 12.5843 25.6969 13.2441 24.2998Z" fill="white" stroke="white" stroke-width="0.5"/>
</svg>
