<svg width="60" height="60" viewBox="0 0 60 60" fill="none" xmlns="http://www.w3.org/2000/svg">
<rect width="60" height="60" rx="5" fill="#282573"/>
<path d="M34.9997 13.3333H24.9997C24.0792 13.3333 23.333 14.0794 23.333 14.9999V18.3333C23.333 19.2537 24.0792 19.9999 24.9997 19.9999H34.9997C35.9201 19.9999 36.6663 19.2537 36.6663 18.3333V14.9999C36.6663 14.0794 35.9201 13.3333 34.9997 13.3333Z" stroke="white" stroke-width="3.33333" stroke-linecap="round" stroke-linejoin="round"/>
<path d="M36.667 16.6665H40.0003C40.8844 16.6665 41.7322 17.0177 42.3573 17.6428C42.9825 18.2679 43.3337 19.1158 43.3337 19.9998V43.3332C43.3337 44.2172 42.9825 45.0651 42.3573 45.6902C41.7322 46.3153 40.8844 46.6665 40.0003 46.6665H20.0003C19.1163 46.6665 18.2684 46.3153 17.6433 45.6902C17.0182 45.0651 16.667 44.2172 16.667 43.3332V19.9998C16.667 19.1158 17.0182 18.2679 17.6433 17.6428C18.2684 17.0177 19.1163 16.6665 20.0003 16.6665H23.3337" stroke="white" stroke-width="3.33333" stroke-linecap="round" stroke-linejoin="round"/>
<path d="M30 28.3333H36.6667" stroke="#FFCC00" stroke-width="3.33333" stroke-linecap="round" stroke-linejoin="round"/>
<path d="M30 36.6665H36.6667" stroke="#FFCC00" stroke-width="3.33333" stroke-linecap="round" stroke-linejoin="round"/>
<path d="M23.333 28.3333H23.3497" stroke="#FFCC00" stroke-width="3.33333" stroke-linecap="round" stroke-linejoin="round"/>
<path d="M23.333 36.6665H23.3497" stroke="#FFCC00" stroke-width="3.33333" stroke-linecap="round" stroke-linejoin="round"/>
</svg>
