<svg width="60" height="60" viewBox="0 0 60 60" fill="none" xmlns="http://www.w3.org/2000/svg">
<rect width="60" height="60" rx="5" fill="#282573"/>
<path d="M17.377 18.6573C17.6304 18.4039 18.0395 18.4039 18.293 18.6573L25.0459 25.4103C25.2993 25.6637 25.2993 26.0728 25.0459 26.3263C24.9198 26.4524 24.7545 26.5167 24.5889 26.5167H24.5869C24.4213 26.5167 24.2559 26.4523 24.1299 26.3263L17.377 19.5734C17.1235 19.3199 17.1235 18.9108 17.377 18.6573Z" fill="#FFCC00" stroke="#FFCC00" stroke-width="0.5"/>
<path d="M24.1299 37.7192C24.3833 37.4658 24.7924 37.4658 25.0459 37.7192C25.2992 37.9727 25.2993 38.3818 25.0459 38.6353L18.293 45.3882C18.1669 45.5143 18.0007 45.5786 17.835 45.5786H17.834C17.6683 45.5786 17.503 45.5142 17.377 45.3882C17.1235 45.1347 17.1235 44.7256 17.377 44.4722L24.1299 37.7192Z" fill="#FFCC00" stroke="#FFCC00" stroke-width="0.5"/>
<path d="M43.1924 18.6573C43.4458 18.4039 43.8549 18.4039 44.1084 18.6573C44.3617 18.9108 44.3618 19.3199 44.1084 19.5734L37.3555 26.3263C37.2294 26.4524 37.0632 26.5167 36.8975 26.5167H36.8965C36.7308 26.5167 36.5656 26.4523 36.4395 26.3263C36.186 26.0728 36.186 25.6637 36.4395 25.4103L43.1924 18.6573Z" fill="#FFCC00" stroke="#FFCC00" stroke-width="0.5"/>
<path d="M22.7275 31.3752C23.0852 31.3754 23.375 31.665 23.375 32.0227C23.3749 32.3803 23.0851 32.67 22.7275 32.6702H12.8965C12.5387 32.6702 12.2491 32.3804 12.249 32.0227C12.249 31.6649 12.5387 31.3752 12.8965 31.3752H22.7275Z" fill="white" stroke="white" stroke-width="0.5"/>
<path d="M30.7432 13.5287C31.1009 13.5287 31.3906 13.8184 31.3906 14.1761V24.0072C31.3904 24.3648 31.1008 24.6546 30.7432 24.6547C30.3855 24.6547 30.0959 24.3648 30.0957 24.0072V14.1761C30.0957 13.8184 30.3854 13.5287 30.7432 13.5287Z" fill="white" stroke="white" stroke-width="0.5"/>
<path d="M27.8735 27.4736C28.8905 26.7958 30.2667 27.0709 30.9448 28.0859V28.0869L34.1538 32.8994L39.7886 30.1982L39.7935 30.1963L40.0796 30.082C41.5219 29.5797 43.1209 30.1021 43.981 31.3896L46.5044 35.1729C48.3975 38.0133 48.1086 41.811 45.7983 44.207C44.4789 45.5761 42.7384 46.3568 40.9302 46.4561L40.938 46.4707H40.5386C39.888 46.4707 39.2331 46.3815 38.5874 46.2002C38.5106 46.2018 38.4292 46.1915 38.3491 46.1602V46.1611L29.1587 42.7305V42.7314C28.6019 42.5482 28.1407 42.147 27.8716 41.6143L27.8706 41.6133C27.601 41.0772 27.5575 40.4681 27.7446 39.8994L27.7593 39.8525L27.7603 39.8486C28.1402 38.7004 29.3816 38.0744 30.5317 38.4541L32.9321 39.2471L27.1694 30.6045C26.8411 30.1127 26.7256 29.5216 26.8413 28.9414C26.9572 28.3621 27.2925 27.8603 27.7837 27.5322H27.7847L27.8735 27.4736ZM29.8696 28.8086C29.5874 28.3876 29.0155 28.2738 28.5952 28.5547H28.5942L28.5054 28.6143C28.0831 28.8961 27.9694 29.4678 28.2505 29.8887V29.8896L35.0571 40.0938C35.2093 40.3219 35.202 40.6238 35.0347 40.8447C34.867 41.0657 34.5775 41.1547 34.3159 41.0684L30.1304 39.6846C29.6596 39.53 29.1501 39.7872 28.9956 40.2568L28.981 40.3027L28.98 40.3066C28.8998 40.5485 28.9196 40.806 29.0337 41.0342C29.149 41.2616 29.3428 41.4295 29.5845 41.5098L29.5933 41.5127V41.5137L38.6196 44.8809C38.6737 44.8838 38.7284 44.8924 38.7808 44.9092H38.7798C40.9373 45.5795 43.2695 44.9691 44.8677 43.3125C46.7485 41.3616 46.9923 38.2422 45.4292 35.8965L42.9058 32.1133C42.3434 31.269 41.265 30.9574 40.3413 31.373L40.3423 31.374L34.2095 34.3145L34.2085 34.3135C33.9184 34.4528 33.569 34.3567 33.3911 34.0898L29.8696 28.8096V28.8086Z" fill="white" stroke="white" stroke-width="0.5"/>
</svg>
