<svg width="60" height="60" viewBox="0 0 60 60" fill="none" xmlns="http://www.w3.org/2000/svg">
<rect width="60" height="60" rx="5" fill="#282573"/>
<path d="M41.572 18.0973C43.5716 18.0973 45.1997 19.7247 45.2 21.7242V39.2086C45.1998 41.2082 43.5717 42.8356 41.572 42.8356H26.8982C26.5443 42.8356 26.2576 42.5489 26.2576 42.1949C26.2578 41.8412 26.5444 41.5553 26.8982 41.5553H41.572C42.8653 41.5553 43.9186 40.5019 43.9187 39.2086V21.7242C43.9185 20.431 42.8653 19.3785 41.572 19.3785H18.6746C17.3815 19.3787 16.3291 20.4311 16.3289 21.7242V27.943C16.3289 28.2968 16.0421 28.5835 15.6882 28.5836C15.3343 28.5836 15.0476 28.2969 15.0476 27.943V21.7242C15.0478 19.7248 16.6751 18.0975 18.6746 18.0973H41.572Z" fill="white" stroke="white" stroke-width="0.5"/>
<path d="M30.1194 35.9335C31.2297 35.9336 32.1331 36.8375 32.1331 37.9491C32.1328 39.0608 31.2293 39.9627 30.1194 39.9628H25.051V44.0409C25.0508 44.3946 24.7641 44.6805 24.4104 44.6805C24.0566 44.6805 23.77 44.3946 23.7698 44.0409V38.6815H30.1194C30.5231 38.6814 30.8516 38.3527 30.8518 37.9491C30.8518 37.5453 30.5232 37.2158 30.1194 37.2157H16.7581C15.4648 37.2159 14.4126 38.2675 14.4124 39.5604V44.0409C14.4121 44.3945 14.1254 44.6804 13.7717 44.6805C13.4179 44.6805 13.1313 44.3946 13.1311 44.0409V39.5604L13.136 39.3749C13.2331 37.4613 14.8208 35.9337 16.7581 35.9335H30.1194Z" fill="white" stroke="white" stroke-width="0.5"/>
<path d="M20.989 26.4987C23.2289 26.4989 25.0505 28.3212 25.0505 30.5612C25.0503 32.801 23.2288 34.6225 20.989 34.6227C18.749 34.6227 16.9267 32.8011 16.9265 30.5612C16.9265 28.3211 18.7489 26.4987 20.989 26.4987ZM20.989 27.778C19.4553 27.778 18.2078 29.0255 18.2078 30.5592C18.2078 32.093 19.4553 33.3405 20.989 33.3405C22.5226 33.3402 23.7703 32.0928 23.7703 30.5592C23.7702 29.0256 22.5226 27.7782 20.989 27.778Z" fill="white" stroke="white" stroke-width="0.5"/>
<path d="M16.5198 41.2428C16.8736 41.2429 17.1604 41.5295 17.1604 41.8834V44.0406C17.1602 44.3943 16.8735 44.6801 16.5198 44.6803C16.1659 44.6803 15.8793 44.3944 15.8792 44.0406V41.8834C15.8792 41.5294 16.1658 41.2428 16.5198 41.2428Z" fill="white" stroke="white" stroke-width="0.5"/>
<path d="M47.1089 15.3202C47.4628 15.3202 47.7495 15.6069 47.7495 15.9608C47.7494 16.3146 47.4628 16.6014 47.1089 16.6014H12.8892C12.5353 16.6014 12.2487 16.3147 12.2485 15.9608C12.2485 15.6069 12.5352 15.3202 12.8892 15.3202H47.1089Z" fill="white" stroke="white" stroke-width="0.5"/>
<path d="M39.5811 28.5887C39.844 28.3497 40.2501 28.3744 40.4854 28.6346C40.7216 28.896 40.7022 29.3022 40.4404 29.5389L34.2549 35.1288L34.0859 35.2977L31.0928 32.3046L29.0684 34.33C28.8177 34.5806 28.4129 34.5804 28.1621 34.33C27.9114 34.0792 27.9114 33.6744 28.1621 33.4237L31.0928 30.493L34.1211 33.5214L39.5811 28.5887Z" fill="#FFCC00" stroke="#FFCC00" stroke-width="0.5"/>
<path d="M40.0129 22.3522C40.3669 22.3523 40.6536 22.6389 40.6536 22.9929C40.6534 23.3467 40.3668 23.6335 40.0129 23.6335H20.0461C19.6923 23.6335 19.4056 23.3467 19.4055 22.9929C19.4055 22.6389 19.6922 22.3522 20.0461 22.3522H40.0129Z" fill="#FFCC00" stroke="#FFCC00" stroke-width="0.5"/>
<path d="M29.8127 24.9658C30.1665 24.9659 30.4524 25.2525 30.4524 25.6064C30.4523 25.9601 30.1665 26.2468 29.8127 26.247H25.134C24.7802 26.247 24.4935 25.9602 24.4934 25.6064C24.4934 25.2524 24.7801 24.9658 25.134 24.9658H29.8127Z" fill="#FFCC00" stroke="#FFCC00" stroke-width="0.5"/>
</svg>
