<svg width="60" height="60" viewBox="0 0 60 60" fill="none" xmlns="http://www.w3.org/2000/svg">
<rect width="60" height="60" rx="5" fill="#282573"/>
<path d="M44.4277 12.1252C46.6054 12.1252 48.375 13.8965 48.375 16.0724V34.8332C48.375 35.256 48.3079 35.6714 48.1758 36.0685L48.1152 36.2375C47.9833 36.579 47.6011 36.7483 47.2598 36.6164V36.6154C46.9215 36.4837 46.7495 36.1034 46.8818 35.7609L46.957 35.5373C47.0214 35.3102 47.0537 35.0741 47.0537 34.8332V16.0724C47.0537 14.6253 45.8749 13.4465 44.4277 13.4465H15.5723C14.1251 13.4465 12.9463 14.6253 12.9463 16.0724V34.8332C12.9464 36.2803 14.1251 37.4591 15.5723 37.4592H28.8115C29.1767 37.4592 29.4725 37.7542 29.4727 38.1193C29.4727 38.4846 29.1767 38.7805 28.8115 38.7805H15.5723C13.3947 38.7804 11.6251 37.0108 11.625 34.8332V16.0724C11.625 13.8965 13.3946 12.1252 15.5723 12.1252H44.4277Z" fill="white" stroke="white" stroke-width="0.5"/>
<path d="M25.9829 18.2869C26.9365 17.7364 28.0756 17.7363 29.0278 18.2869L36.8687 22.8132V22.8142C37.8207 23.3647 38.3911 24.3509 38.3911 25.4519C38.391 26.5528 37.8206 27.5391 36.8687 28.0896L33.5054 30.031H33.5044C33.19 30.2113 32.7856 30.1069 32.603 29.7888C32.4228 29.4746 32.5266 29.0702 32.8442 28.8875L36.2085 26.946C36.7478 26.6347 37.0688 26.0774 37.0688 25.4529C37.0687 24.8286 36.7477 24.272 36.2085 23.9607L28.3677 19.4333C27.8281 19.122 27.1846 19.1217 26.6431 19.4333C26.1022 19.7447 25.7808 20.3021 25.7808 20.9265V29.9802C25.7808 30.4042 25.9242 30.7903 26.1948 31.1033C26.4335 31.3783 26.4042 31.7947 26.1284 32.0349C26.0023 32.1453 25.8466 32.1969 25.6958 32.197H25.4458V32.1453C25.3523 32.1072 25.2651 32.049 25.1948 31.9675V31.9666C24.7205 31.418 24.4595 30.7122 24.4595 29.9783V20.9246C24.4595 19.8252 25.0291 18.8374 25.9829 18.2869Z" fill="white" stroke="white" stroke-width="0.5"/>
<path d="M28.7417 30.3165C29.2074 30.0061 29.7679 29.8945 30.3179 30.004C30.8682 30.1137 31.3433 30.4328 31.6538 30.8986L34.5679 35.2667L39.687 32.8126L39.6929 32.8097C41.112 32.1686 42.7615 32.6413 43.6206 33.9308L45.9351 37.4034C47.6906 40.0359 47.4213 43.5563 45.2808 45.7775C44.108 46.9935 42.58 47.7069 40.981 47.8458L41.0093 47.8741H40.4058C39.8057 47.8741 39.2025 47.7931 38.6069 47.6261C38.5286 47.6263 38.4495 47.6139 38.3745 47.5861L29.9399 44.4376C29.479 44.2865 29.0855 43.9778 28.8237 43.5626L28.7202 43.379C28.4648 42.8718 28.4225 42.2942 28.5991 41.755L28.6128 41.712L28.6147 41.7072C28.9755 40.6181 30.1519 40.0252 31.2417 40.3859L33.2622 41.0529L28.0796 33.2833C27.7691 32.8176 27.6576 32.2571 27.7671 31.7072C27.8631 31.2256 28.1191 30.8016 28.4937 30.4952L28.6616 30.3712L28.7397 30.3185L28.7417 30.3165ZM30.0649 31.2999C29.8626 31.2587 29.6564 31.2978 29.4829 31.4132L29.4839 31.4142L29.4028 31.4689L29.4009 31.4708C29.2294 31.5843 29.1112 31.7593 29.0688 31.964L29.0698 31.965C29.0293 32.1698 29.0695 32.3761 29.1851 32.549V32.5499L35.4312 41.9161C35.5865 42.1492 35.5788 42.4572 35.4077 42.6827L35.4067 42.6837C35.2367 42.9053 34.9449 42.9994 34.6753 42.9113H34.6743L30.8325 41.6417C30.4369 41.5115 30.0088 41.7241 29.8745 42.1183L29.8755 42.1193L29.8608 42.1661L29.8589 42.17C29.7909 42.3763 29.8073 42.5936 29.9048 42.7872C29.99 42.9564 30.1273 43.086 30.2974 43.1613L30.3726 43.1906L30.3813 43.1935L38.6587 46.2814C38.6766 46.2826 38.6942 46.2837 38.7114 46.2863L38.8022 46.3048L38.811 46.3077L39.1802 46.4083C41.0301 46.844 42.973 46.2705 44.3325 44.8605C46.0368 43.0933 46.258 40.264 44.8394 38.1368L42.5239 34.6632C42.0247 33.9149 41.0692 33.6417 40.2495 34.0118L40.2485 34.0109L34.6274 36.7081C34.3302 36.8503 33.9744 36.7523 33.7925 36.4796L30.561 31.632L30.5601 31.631C30.4461 31.459 30.2706 31.3418 30.0649 31.2999Z" fill="#FFCC00" stroke="#FFCC00" stroke-width="0.5"/>
</svg>
