<svg width="60" height="60" viewBox="0 0 60 60" fill="none" xmlns="http://www.w3.org/2000/svg">
<rect width="60" height="60" rx="5" fill="#282573"/>
<path d="M29.9995 40.8514C31.8617 40.8514 33.5368 41.2075 34.7554 41.8035C35.9599 42.3927 36.7905 43.2572 36.7905 44.2996C36.7905 45.3421 35.9599 46.2071 34.7554 46.7967C33.5368 47.3931 31.8617 47.7498 29.9995 47.7498C28.1375 47.7498 26.4631 47.3929 25.2446 46.7967C24.04 46.2073 23.2095 45.3428 23.2095 44.2996C23.2095 43.2564 24.04 42.3925 25.2446 41.8035C26.4631 41.2077 28.1375 40.8514 29.9995 40.8514ZM29.9995 42.1307C28.6633 42.1307 27.2545 42.3752 26.188 42.7889C25.654 42.996 25.219 43.2405 24.9224 43.5067C24.6261 43.7726 24.4888 44.0395 24.4888 44.2996C24.4888 44.5599 24.6259 44.8274 24.9224 45.0936C25.219 45.3599 25.654 45.604 26.188 45.8113C27.2545 46.2254 28.6634 46.4705 29.9995 46.4705C31.3358 46.4705 32.7454 46.2262 33.812 45.8123C34.3459 45.6051 34.7801 45.3599 35.0767 45.0936C35.3731 44.8273 35.5112 44.5603 35.5112 44.2996C35.5112 44.0389 35.3731 43.7718 35.0767 43.5057C34.7801 43.2395 34.3459 42.9949 33.812 42.7879C32.7454 42.3744 31.3358 42.1307 29.9995 42.1307Z" fill="white" stroke="white" stroke-width="0.5"/>
<path d="M30.0005 32.2157C32.0838 32.2157 33.7788 33.9107 33.7788 35.994C33.7788 38.0774 32.0838 39.7723 30.0005 39.7723C27.9172 39.7723 26.2222 38.0773 26.2222 35.994C26.2222 33.9107 27.9172 32.2157 30.0005 32.2157ZM30.0005 33.495C28.6227 33.495 27.5015 34.6163 27.5015 35.994C27.5015 37.3718 28.6227 38.493 30.0005 38.493C31.3783 38.493 32.4995 37.3718 32.4995 35.994C32.4995 34.6162 31.3783 33.495 30.0005 33.495Z" fill="white" stroke="white" stroke-width="0.5"/>
<path d="M41.4302 38.2535C43.2921 38.2535 44.9671 38.6096 46.186 39.2057C47.391 39.7951 48.2222 40.6605 48.2222 41.7037C48.222 42.7468 47.3917 43.6109 46.187 44.1998C44.9682 44.7957 43.2931 45.152 41.4302 45.152C40.4496 45.152 39.5012 45.0518 38.6128 44.8551C38.2648 44.7793 38.0506 44.4354 38.1255 44.0934V44.0914C38.2034 43.7478 38.5421 43.5341 38.8853 43.6061H38.8882C39.6834 43.7821 40.5392 43.8727 41.4302 43.8727C42.7663 43.8727 44.1757 43.6281 45.2427 43.2145C45.7768 43.0074 46.2115 42.7628 46.5083 42.4967C46.8049 42.2307 46.9428 41.9638 46.9429 41.7037C46.9429 41.4435 46.8057 41.176 46.5093 40.9098C46.2126 40.6435 45.7776 40.3993 45.2437 40.192C44.1769 39.7779 42.7672 39.5328 41.4302 39.5328C39.3574 39.5329 37.4799 40.0336 36.5103 40.7936H36.5093C36.2316 41.0111 35.8303 40.964 35.6118 40.6852C35.3943 40.4075 35.4414 40.0062 35.7202 39.7877C36.9634 38.8116 39.1043 38.2536 41.4302 38.2535Z" fill="white" stroke="white" stroke-width="0.5"/>
<path d="M41.4312 29.6182C43.5145 29.6182 45.2094 31.3132 45.2095 33.3965C45.2095 35.4798 43.5145 37.1748 41.4312 37.1748C39.3478 37.1748 37.6528 35.4798 37.6528 33.3965C37.6529 31.3132 39.3479 29.6182 41.4312 29.6182ZM41.4312 30.8975C40.0534 30.8975 38.9322 32.0187 38.9321 33.3965C38.9321 34.7743 40.0534 35.8955 41.4312 35.8955C42.809 35.8955 43.9302 34.7743 43.9302 33.3965C43.9301 32.0187 42.8089 30.8975 41.4312 30.8975Z" fill="white" stroke="white" stroke-width="0.5"/>
<path d="M18.5693 38.2535C20.8954 38.2536 23.0371 38.8115 24.2803 39.7877H24.2793C24.5581 40.0062 24.6053 40.4075 24.3877 40.6852V40.6862C24.1702 40.9612 23.7691 41.0121 23.4902 40.7936H23.4893C22.5198 40.0322 20.6425 39.5329 18.5693 39.5328C17.2331 39.5328 15.8238 39.7779 14.7568 40.192C14.2227 40.3993 13.788 40.6435 13.4912 40.9098C13.1945 41.1761 13.0566 41.4435 13.0566 41.7037C13.0568 41.9638 13.194 42.2308 13.4902 42.4967C13.7869 42.7629 14.2218 43.0074 14.7559 43.2145C15.8227 43.6282 17.2323 43.8727 18.5693 43.8727C19.4603 43.8727 20.3161 43.7821 21.1113 43.6061H21.1143C21.456 43.5343 21.7981 43.7467 21.874 44.0934C21.9489 44.4355 21.7349 44.7804 21.3867 44.8561L21.3857 44.8551C20.4976 45.0516 19.5496 45.152 18.5693 45.152C16.7073 45.152 15.0324 44.7956 13.8135 44.1998C12.6086 43.6109 11.7775 42.7469 11.7773 41.7037C11.7773 40.6605 12.6076 39.7951 13.8125 39.2057C15.0313 38.6095 16.7065 38.2535 18.5693 38.2535Z" fill="white" stroke="white" stroke-width="0.5"/>
<path d="M18.5698 29.6182C20.6532 29.6182 22.3481 31.3132 22.3481 33.3965C22.3481 35.4798 20.6532 37.1748 18.5698 37.1748C16.4865 37.1748 14.7915 35.4798 14.7915 33.3965C14.7916 31.3132 16.4865 29.6182 18.5698 29.6182ZM18.5698 30.8975C17.1921 30.8975 16.0709 32.0187 16.0708 33.3965C16.0708 34.7743 17.192 35.8955 18.5698 35.8955C19.9476 35.8955 21.0688 34.7743 21.0688 33.3965C21.0688 32.0187 19.9476 30.8975 18.5698 30.8975Z" fill="white" stroke="white" stroke-width="0.5"/>
<path d="M41.4512 12.2494C43.5238 12.2495 45.2079 13.9353 45.208 16.0062V23.2377C45.2079 25.3086 43.5238 26.9944 41.4512 26.9945H36.0654L33.46 29.6C33.3378 29.7222 33.1744 29.7875 33.0078 29.7875C32.9269 29.7874 32.8446 29.773 32.7646 29.7406L32.7637 29.7396C32.5235 29.641 32.3682 29.4068 32.3682 29.1478V26.9896C30.3711 26.9038 28.7745 25.254 28.7744 23.2377V16.0062C28.7745 13.9353 30.4587 12.2495 32.5312 12.2494H41.4512ZM32.2783 13.5433C31.0311 13.6706 30.0537 14.728 30.0537 16.0082V23.2386C30.0537 24.6042 31.1657 25.7161 32.5312 25.7162H33.0078C33.3614 25.7162 33.6475 26.0033 33.6475 26.3568V27.6049L35.3486 25.9047C35.4683 25.785 35.6306 25.7163 35.7998 25.7162H41.4492C42.8148 25.7162 43.9268 24.6042 43.9268 23.2386V16.0082C43.9268 14.6426 42.8148 13.5306 41.4492 13.5306H32.5312L32.2783 13.5433Z" fill="#FFCC00" stroke="#FFCC00" stroke-width="0.5"/>
<path d="M26.2734 13.3604C26.5391 13.3604 26.804 13.3888 27.0635 13.4453L27.3203 13.5107L27.3213 13.5117C27.6576 13.6115 27.8549 13.9639 27.7539 14.3047C27.6543 14.641 27.3017 14.839 26.9609 14.7383V14.7373C26.736 14.6722 26.5043 14.6396 26.2734 14.6396H17.3555C15.99 14.6398 14.878 15.7517 14.8779 17.1172V24.3467C14.8779 25.7122 15.99 26.8241 17.3555 26.8242H23.0049C23.1763 26.8242 23.3376 26.8933 23.457 27.0127L25.1572 28.7129V27.4639C25.1574 27.1105 25.4435 26.8243 25.7969 26.8242H26.2725C26.8008 26.8242 27.3048 26.6582 27.7344 26.3428L27.7354 26.3418C28.0197 26.1348 28.4197 26.1942 28.6289 26.4814C28.8362 26.7663 28.7764 27.1647 28.4912 27.375L28.4902 27.376C27.8857 27.819 27.1777 28.0645 26.4355 28.0967V30.2578C26.4355 30.5162 26.2794 30.7487 26.042 30.8486L26.0391 30.8496C25.9601 30.8817 25.8789 30.8961 25.7988 30.8965V30.8975H25.7959V30.8965C25.6302 30.8958 25.4682 30.8305 25.3467 30.709L22.7412 28.1035H17.3555C15.2828 28.1034 13.5986 26.4177 13.5986 24.3467V17.1172C13.5987 15.0463 15.2829 13.3605 17.3555 13.3604H26.2734Z" fill="#FFCC00" stroke="#FFCC00" stroke-width="0.5"/>
</svg>
