<svg width="60" height="60" viewBox="0 0 60 60" fill="none" xmlns="http://www.w3.org/2000/svg">
<rect width="60" height="60" rx="5" fill="#282573"/>
<path d="M29.9983 12.4758C37.9393 12.476 44.4006 18.9371 44.4006 26.8782C44.4005 27.2447 44.1031 27.5413 43.7366 27.5413C43.3702 27.5411 43.0736 27.2446 43.0735 26.8782C43.0735 19.6688 37.2077 13.8031 29.9983 13.803C22.7888 13.803 16.9231 19.6687 16.9231 26.8782C16.923 27.2447 16.6256 27.5413 16.259 27.5413C15.8927 27.5411 15.5961 27.2446 15.5959 26.8782C15.5959 18.9371 22.0572 12.4758 29.9983 12.4758Z" fill="white" stroke="white" stroke-width="0.5"/>
<path d="M17.8477 26.2147C19.1849 26.2148 20.2722 27.3022 20.2725 28.6395V34.6727C20.2725 36.0102 19.1851 37.0983 17.8477 37.0985H14.6758C13.3383 37.0985 12.25 36.0102 12.25 34.6727V28.6395L12.2627 28.3924C12.387 27.1708 13.4218 26.2147 14.6758 26.2147H17.8477ZM14.6768 27.5418C14.0711 27.5419 13.5784 28.0338 13.5781 28.6395V34.6727C13.5781 35.2786 14.0709 35.7713 14.6768 35.7713H17.8486C18.4546 35.7713 18.9473 35.2786 18.9473 34.6727V28.6395C18.947 28.0338 18.4544 27.5418 17.8486 27.5418H14.6768Z" fill="#FFCC00" stroke="#FFCC00" stroke-width="0.5"/>
<path d="M45.3257 26.2147C46.663 26.2148 47.7502 27.3022 47.7505 28.6395V34.6727C47.7505 36.0102 46.6631 37.0983 45.3257 37.0985H42.1538C40.8163 37.0985 39.728 36.0102 39.728 34.6727V28.6395L39.7407 28.3924C39.8651 27.1708 40.8998 26.2147 42.1538 26.2147H45.3257ZM42.1538 27.5418C41.548 27.5418 41.0554 28.0338 41.0552 28.6395V34.6727C41.0552 35.2786 41.5479 35.7713 42.1538 35.7713H45.3257C45.9315 35.7712 46.4243 35.2785 46.4243 34.6727V28.6395C46.4241 28.0339 45.9313 27.542 45.3257 27.5418H42.1538Z" fill="#FFCC00" stroke="#FFCC00" stroke-width="0.5"/>
<path d="M30.0007 24.1241C33.9202 24.1241 37.107 27.3107 37.1072 31.2286C37.1072 35.1466 33.9203 38.334 30.0007 38.3341C26.0828 38.3341 22.8943 35.1467 22.8943 31.2286C22.8945 27.3107 26.0812 24.1241 30.0007 24.1241ZM30.0007 25.4493C26.8144 25.4493 24.2224 28.0428 24.2224 31.2276C24.2226 34.4123 26.8161 37.005 30.0007 37.005C33.1854 37.0049 35.7789 34.4122 35.7791 31.2276C35.7791 28.0429 33.1855 25.4493 30.0007 25.4493Z" fill="white" stroke="white" stroke-width="0.5"/>
<path d="M30.0015 40.2768C33.6124 40.2768 36.8464 40.9775 39.187 42.1381C41.5146 43.2923 43.0269 44.9417 43.0269 46.8617C43.0266 47.2281 42.7302 47.5248 42.3638 47.5248C41.9973 47.5248 41.7009 47.2281 41.7007 46.8617C41.7007 46.1964 41.3967 45.5363 40.812 44.9115C40.2265 44.2859 39.3701 43.7074 38.3003 43.2143C36.1613 42.2284 33.2107 41.603 30.0015 41.6029C26.792 41.6029 23.8407 42.2283 21.7017 43.2143C20.6322 43.7072 19.7764 44.2861 19.1909 44.9115C18.6062 45.5363 18.3013 46.1964 18.3013 46.8617C18.301 47.2281 18.0047 47.5248 17.6382 47.5248C17.2718 47.5247 16.9753 47.228 16.9751 46.8617C16.9751 44.9417 18.4874 43.2923 20.8149 42.1381C23.1556 40.9774 26.3904 40.2768 30.0015 40.2768Z" fill="white" stroke="white" stroke-width="0.5"/>
<path d="M15.7915 35.9636C16.0512 35.7039 16.4712 35.704 16.731 35.9636L19.2817 38.5154H21.7817C22.1482 38.5156 22.4448 38.812 22.4448 39.1785C22.4448 39.4563 22.2738 39.6929 22.0317 39.7917V39.8435H19.0063C18.8286 39.8435 18.6614 39.772 18.5376 39.6482L15.7915 36.9031C15.5319 36.6433 15.5318 36.2233 15.7915 35.9636Z" fill="#FFCC00" stroke="#FFCC00" stroke-width="0.5"/>
</svg>
