<svg width="60" height="60" viewBox="0 0 60 60" fill="none" xmlns="http://www.w3.org/2000/svg">
<rect width="60" height="60" rx="5" fill="#282573"/>
<path d="M40.4502 12.2501C43.1765 12.2501 45.3954 14.4674 45.3955 17.1954V35.0489C45.3955 36.6185 44.6348 38.1282 43.3896 39.0645L43.1338 39.2442C42.8367 39.438 42.4378 39.3554 42.2432 39.0596V39.0587C42.0494 38.7616 42.132 38.3637 42.4277 38.169L42.6172 38.0352C43.5409 37.3401 44.1074 36.2155 44.1074 35.0489V17.1954C44.1073 15.1787 42.4658 13.5374 40.4492 13.5372H19.6943C17.6775 13.5372 16.0352 15.1786 16.0352 17.1954V35.0489C16.0352 37.0891 17.7293 38.7079 19.9297 38.7081H32.2422C32.5977 38.7081 32.8856 38.9953 32.8857 39.3506C32.8857 39.7056 32.599 39.9923 32.2441 39.9932V39.9942H19.9316C17.0395 39.9942 14.75 37.8315 14.75 35.0489V17.1954C14.7501 14.4691 16.9674 12.2501 19.6953 12.2501H40.4502Z" fill="white" stroke="white" stroke-width="0.5"/>
<path d="M27.5117 34.1526C27.8671 34.1527 28.1553 34.4406 28.1553 34.7961C28.1552 35.1516 27.8671 35.4396 27.5117 35.4397H19.3779C19.0224 35.4397 18.7345 35.1516 18.7344 34.7961C18.7344 34.4406 19.0223 34.1526 19.3779 34.1526H27.5117Z" fill="white" stroke="white" stroke-width="0.5"/>
<path d="M21.8232 26.338L21.9531 26.3507C22.2466 26.4106 22.4668 26.6704 22.4668 26.9816V31.6857C22.4668 32.0412 22.1788 32.3292 21.8232 32.3292H19.6133C19.2578 32.3292 18.9697 32.0413 18.9697 31.6857V26.9816C18.9697 26.626 19.2577 26.338 19.6133 26.338H21.8232ZM20.2568 31.0431H21.1807V27.6251H20.2568V31.0431Z" fill="white" stroke="white" stroke-width="0.5"/>
<path d="M27.7148 24.7277C28.0704 24.7277 28.3584 25.0157 28.3584 25.3713V31.6857C28.3584 32.0413 28.0704 32.3293 27.7148 32.3293H25.5049C25.1493 32.3293 24.8613 32.0413 24.8613 31.6857V25.3713C24.8613 25.0157 25.1493 24.7277 25.5049 24.7277H27.7148ZM26.1494 31.0432H27.0732V26.0148H26.1494V31.0432Z" fill="white" stroke="white" stroke-width="0.5"/>
<path d="M33.3677 20.7739C33.7232 20.7739 34.0112 21.0618 34.0112 21.4174V31.686C34.0112 32.0415 33.7232 32.3295 33.3677 32.3295H31.1577C30.8022 32.3295 30.5142 32.0415 30.5142 31.686V21.4174C30.5142 21.0618 30.8022 20.7739 31.1577 20.7739H33.3677ZM31.8013 31.0424H32.7251V22.061H31.8013V31.0424Z" fill="white" stroke="white" stroke-width="0.5"/>
<path d="M39.4541 17.0242C39.8097 17.0242 40.0977 17.3122 40.0977 17.6677V31.6863C40.0976 32.0418 39.8096 32.3298 39.4541 32.3298H37.2441C36.8886 32.3298 36.6007 32.0418 36.6006 31.6863V17.6677C36.6006 17.3122 36.8885 17.0242 37.2441 17.0242H39.4541ZM37.8877 31.0427H38.8115V18.3113H37.8877V31.0427Z" fill="white" stroke="white" stroke-width="0.5"/>
<path d="M29.9897 33.6168C30.3852 33.3538 30.8613 33.259 31.3276 33.3522C31.7934 33.4453 32.1986 33.7144 32.4624 34.111H32.4614L34.7134 37.4869L38.6772 35.5865L38.6821 35.5846C39.8621 35.0517 41.2303 35.4435 41.9448 36.5143H41.9458L43.7808 39.2662C45.1577 41.3309 44.9975 44.0729 43.4067 45.8805L43.2485 46.0524C42.1853 47.1543 40.7613 47.7496 39.2983 47.7496C38.8111 47.7496 38.3192 47.6836 37.8345 47.5465C37.7726 47.5447 37.7089 47.537 37.647 47.5143L37.645 47.5133L30.9536 45.0162V45.0153C30.0265 44.7038 29.5177 43.6837 29.8296 42.7428V42.7418L29.8413 42.7057C29.9887 42.2586 30.3044 41.893 30.7261 41.6813C31.1472 41.47 31.626 41.4338 32.0747 41.5826L33.3452 42.0026L29.4312 36.1344C28.8855 35.3159 29.1084 34.2077 29.9243 33.6608H29.9253L29.9897 33.6178V33.6168ZM31.0767 34.6149C30.9445 34.5889 30.8132 34.6151 30.7046 34.6881L30.7036 34.6891L30.6392 34.7321C30.4117 34.8837 30.3497 35.1928 30.5015 35.4205L35.4517 42.8434C35.6028 43.0703 35.5947 43.3701 35.4282 43.5895C35.2616 43.809 34.9742 43.8969 34.7144 43.8112L31.6694 42.8063L31.6685 42.8053C31.5475 42.7651 31.4177 42.7754 31.3022 42.8336C31.2158 42.8772 31.1465 42.9428 31.1001 43.025L31.061 43.1129L31.0493 43.15C30.96 43.4218 31.1079 43.7159 31.3784 43.8053L31.3882 43.8092L37.936 46.2516C37.9792 46.2548 38.0246 46.2616 38.0698 46.276H38.0688C39.5745 46.7435 41.2037 46.3182 42.3208 45.1588C43.6325 43.7993 43.803 41.6212 42.7095 39.9801L40.8735 37.2281C40.511 36.6837 39.8165 36.4844 39.2202 36.7545L39.2192 36.7535L34.7671 38.8893C34.4787 39.0284 34.1306 38.933 33.9536 38.6676L31.3921 34.8268C31.3178 34.7153 31.2068 34.6405 31.0767 34.6149Z" fill="#FFCC00" stroke="#FFCC00" stroke-width="0.5"/>
</svg>
