<svg width="60" height="60" viewBox="0 0 60 60" fill="none" xmlns="http://www.w3.org/2000/svg">
<rect width="60" height="60" rx="5" fill="#282573"/>
<path d="M32.7109 16.6984C41.0044 16.6984 47.7509 23.4445 47.751 31.7394C47.751 37.622 44.2888 42.9967 38.9297 45.4357C38.8435 45.4762 38.7544 45.4942 38.6699 45.4943H38.0664L38.2402 45.3195C38.1842 45.266 38.1364 45.2017 38.1025 45.1261V45.1271C37.9609 44.8141 38.0982 44.4451 38.4111 44.3009L38.4121 44.2999C43.3271 42.0645 46.5028 37.1334 46.5029 31.7384C46.5029 24.1338 40.316 17.9476 32.7129 17.9474C30.2638 17.9474 27.8596 18.5979 25.7588 19.8292H25.7578C25.4601 20.0025 25.0785 19.9032 24.9043 19.6066L24.9033 19.6056C24.7301 19.3078 24.8302 18.9262 25.127 18.7521C27.4193 17.4095 30.0413 16.6984 32.7109 16.6984Z" fill="white" stroke="white" stroke-width="0.5"/>
<path d="M35.666 11.5795C36.7333 11.5797 37.6016 12.4479 37.6016 13.5141C37.6014 14.5798 36.7335 15.4495 35.666 15.4496H29.7559C28.6881 15.4496 27.8215 14.5812 27.8213 13.5141C27.8213 12.4464 28.6899 11.5795 29.7559 11.5795H35.666ZM29.7559 12.8286C29.3776 12.8286 29.0704 13.1358 29.0703 13.5151C29.0703 13.8941 29.3788 14.2016 29.7559 14.2016H35.666C36.0447 14.2015 36.3525 13.8938 36.3525 13.5151C36.3524 13.1364 36.0447 12.8287 35.666 12.8286H29.7559Z" fill="white" stroke="white" stroke-width="0.5"/>
<path d="M32.7119 29.429C33.985 29.429 35.0205 30.4645 35.0205 31.7375C35.0205 33.0107 33.985 34.0461 32.7119 34.0461C31.4388 34.0461 30.4033 33.0107 30.4033 31.7375C30.4034 30.4645 31.4388 29.429 32.7119 29.429ZM32.7119 30.676C32.1276 30.6761 31.6523 31.1522 31.6523 31.7366C31.6526 32.3211 32.1281 32.7971 32.7119 32.7971C33.296 32.7971 33.7713 32.3224 33.7715 31.7366C33.7715 31.1509 33.2965 30.676 32.7119 30.676Z" fill="white" stroke="white" stroke-width="0.5"/>
<path d="M32.7119 21.9799C33.0569 21.9799 33.3367 22.259 33.3369 22.6039V30.0522C33.3368 30.3972 33.057 30.6762 32.7119 30.6762C32.3671 30.676 32.088 30.3971 32.0879 30.0522V22.6039C32.0881 22.2592 32.3671 21.9801 32.7119 21.9799Z" fill="white" stroke="white" stroke-width="0.5"/>
<path d="M25.2393 30.8644C26.9827 30.8644 28.549 31.8343 29.3242 33.3947H29.3252C29.4801 33.7046 29.3518 34.079 29.0449 34.2325C28.7736 34.3682 28.4531 34.286 28.2744 34.0577L28.207 33.9513C27.6429 32.8175 26.5061 32.1134 25.2383 32.1134H16.8145C14.9864 32.1134 13.4972 33.6018 13.4971 35.4298V44.0519C13.4971 44.3966 13.2187 44.6753 12.874 44.6759V44.6769H12.873V44.6759C12.5286 44.6751 12.25 44.3965 12.25 44.0519V35.4298C12.2501 32.9116 14.2988 30.8645 16.8154 30.8644H25.2393Z" fill="#FFCC00" stroke="#FFCC00" stroke-width="0.5"/>
<path d="M21.0278 19.5501C23.7913 19.5502 26.0386 21.7974 26.0386 24.5609C26.0384 27.3242 23.7912 29.5715 21.0278 29.5716C18.2659 29.5716 16.0172 27.3243 16.0171 24.5609C16.0171 21.7973 18.2643 19.5501 21.0278 19.5501ZM21.0278 20.7991C18.9545 20.7991 17.2661 22.4861 17.2661 24.5609C17.2662 26.6355 18.9531 28.3226 21.0278 28.3226C23.1024 28.3224 24.7894 26.6355 24.7896 24.5609C24.7896 22.4861 23.1025 20.7993 21.0278 20.7991Z" fill="#FFCC00" stroke="#FFCC00" stroke-width="0.5"/>
<path d="M34.625 35.5438L34.7891 35.5477C35.6065 35.5905 36.372 35.9524 36.9053 36.5594C37.4422 37.1703 37.6826 37.9472 37.5791 38.741L36.6455 45.9256C36.4593 47.3572 35.1818 48.4205 33.6914 48.4207H23.0859C21.5955 48.4205 20.3181 47.3572 20.1318 45.9256L19.1982 38.741C19.0948 37.9457 19.3351 37.1703 19.8721 36.5594C20.4408 35.912 21.2723 35.5438 22.1523 35.5438H34.625ZM21.9561 36.8026C21.5056 36.8493 21.0955 37.0575 20.8086 37.3846C20.5096 37.7257 20.3795 38.1492 20.4346 38.5809L21.3682 45.7654C21.4707 46.5547 22.1971 47.1735 23.083 47.1736H33.6865C34.5726 47.1736 35.2998 46.5548 35.4023 45.7654L36.3359 38.5809C36.3924 38.1496 36.2623 37.7257 35.9619 37.3846H35.9609C35.6332 37.0109 35.1451 36.7928 34.6191 36.7928H22.1514L21.9561 36.8026Z" fill="white" stroke="white" stroke-width="0.5"/>
</svg>
