<svg width="60" height="60" viewBox="0 0 60 60" fill="none" xmlns="http://www.w3.org/2000/svg">
<rect width="60" height="60" rx="5" fill="#282573"/>
<path d="M44.1904 12.2497C45.5578 12.2499 46.6699 13.3628 46.6699 14.7302V37.2106C46.6698 38.5796 45.5576 39.6909 44.1904 39.6911H43.0684C42.7139 39.6911 42.4269 39.4038 42.4268 39.0495C42.4268 38.695 42.7138 38.4079 43.0684 38.4079H44.1904C44.8502 38.4077 45.3876 37.8705 45.3877 37.2106V14.7302C45.3877 14.0702 44.8503 13.5331 44.1904 13.5329H15.8125C15.1504 13.5329 14.6123 14.0706 14.6123 14.7302V37.2106C14.6124 37.8701 15.1504 38.4079 15.8125 38.4079H28.8223C29.1767 38.4079 29.4639 38.695 29.4639 39.0495C29.4637 39.4039 29.1766 39.6911 28.8223 39.6911H15.8125C14.4438 39.6911 13.3292 38.5784 13.3291 37.2106V14.7302C13.3291 13.3606 14.4439 12.2497 15.8125 12.2497H44.1904Z" fill="white" stroke="white" stroke-width="0.5"/>
<path d="M34.5254 16.6198C34.8799 16.6198 35.167 16.9069 35.167 17.2614C35.1669 17.6158 34.8798 17.903 34.5254 17.903H25.4746C25.1202 17.903 24.8331 17.6158 24.833 17.2614C24.833 16.9069 25.1201 16.6198 25.4746 16.6198H34.5254Z" fill="white" stroke="white" stroke-width="0.5"/>
<path d="M42.5713 22.7873C42.9257 22.7873 43.2129 23.0744 43.2129 23.4289C43.2128 23.7833 42.9256 24.0704 42.5713 24.0705H20.0879C19.7334 24.0705 19.4464 23.7832 19.4463 23.4289C19.4463 23.0744 19.7334 22.7873 20.0879 22.7873H42.5713Z" fill="white" stroke="white" stroke-width="0.5"/>
<path d="M42.5713 27.6838C42.9257 27.6838 43.2129 27.9709 43.2129 28.3254C43.2128 28.6799 42.9257 28.967 42.5713 28.967H38.3076C37.9532 28.967 37.6661 28.6799 37.666 28.3254C37.666 27.9709 37.9532 27.6838 38.3076 27.6838H42.5713Z" fill="white" stroke="white" stroke-width="0.5"/>
<path d="M33.5801 27.6838C33.9343 27.6841 34.2207 27.971 34.2207 28.3254C34.2206 28.6797 33.9342 28.9668 33.5801 28.967H16.9551C16.6007 28.967 16.3136 28.6799 16.3135 28.3254C16.3135 27.9709 16.6006 27.6838 16.9551 27.6838H33.5801Z" fill="white" stroke="white" stroke-width="0.5"/>
<path d="M28.5449 32.5813C28.8994 32.5813 29.1865 32.8683 29.1865 33.2229C29.1864 33.5773 28.8993 33.8645 28.5449 33.8645H16.9551C16.6006 33.8645 16.3136 33.5772 16.3135 33.2229C16.3135 32.8684 16.6006 32.5813 16.9551 32.5813H28.5449Z" fill="white" stroke="white" stroke-width="0.5"/>
<path d="M35.9434 29.9297C39.177 29.93 41.8074 32.5604 41.8076 35.794C41.8076 39.0279 39.1771 41.659 35.9434 41.6592C32.7094 41.6592 30.0781 39.028 30.0781 35.794C30.0784 32.5602 32.7095 29.9297 35.9434 29.9297ZM35.9434 31.211C33.4168 31.211 31.3613 33.2665 31.3613 35.793C31.3614 38.3195 33.4168 40.3751 35.9434 40.3751C38.4697 40.3748 40.5244 38.3194 40.5244 35.793C40.5244 33.2666 38.4697 31.2113 35.9434 31.211Z" fill="#FFCC00" stroke="#FFCC00" stroke-width="0.5"/>
<path d="M33.3311 35.153C33.6855 35.1531 33.9727 35.4402 33.9727 35.7946C33.9728 36.8827 34.8585 37.7672 35.9453 37.7672C36.2996 37.7675 36.5859 38.0545 36.5859 38.4088C36.5857 38.7629 36.2995 39.0492 35.9453 39.0495C34.1495 39.0495 32.6896 37.5887 32.6895 35.7946C32.6895 35.4401 32.9766 35.153 33.3311 35.153Z" fill="#FFCC00" stroke="#FFCC00" stroke-width="0.5"/>
<path d="M38.9893 42.5424C39.3438 42.5424 39.6309 42.8295 39.6309 43.184V47.1088C39.6308 47.3263 39.5201 47.5315 39.334 47.6488L39.333 47.6478C39.2299 47.7134 39.1118 47.749 38.9912 47.7494V47.7504H38.9893V47.7494C38.8975 47.7492 38.8087 47.7295 38.7275 47.6937L38.7246 47.6927L35.9453 46.4301L33.166 47.6927L33.165 47.6918C32.9919 47.7702 32.795 47.7692 32.624 47.6869L32.5527 47.6469C32.3697 47.5288 32.2589 47.3257 32.2588 47.1088V43.184C32.2588 42.8294 32.5459 42.5424 32.9004 42.5424C33.2548 42.5424 33.542 42.8295 33.542 43.184V46.1117L35.6797 45.14C35.8478 45.0629 36.0408 45.0631 36.209 45.14H36.21L38.3477 46.1117V43.184C38.3477 42.8295 38.6347 42.5424 38.9893 42.5424Z" fill="#FFCC00" stroke="#FFCC00" stroke-width="0.5"/>
</svg>
