<svg width="60" height="60" viewBox="0 0 60 60" fill="none" xmlns="http://www.w3.org/2000/svg">
<rect width="60" height="60" rx="5" fill="#282573"/>
<path d="M16.5515 16.5518C22.2876 10.8157 31.6201 10.8157 37.3562 16.5518C43.0923 22.2879 43.0923 31.6204 37.3562 37.3564C34.4885 40.2242 30.721 41.6558 26.9548 41.6562V41.6572H26.9529V41.6562C23.1867 41.6557 19.4191 40.2222 16.5515 37.3564C10.8155 31.6203 10.8154 22.2878 16.5515 16.5518ZM26.9548 13.6621C23.5492 13.6621 20.1428 14.9586 17.5515 17.5498C12.3669 22.7344 12.367 31.1718 17.5515 36.3564C22.7361 41.5411 31.1735 41.5411 36.3582 36.3564C41.5427 31.1718 41.5428 22.7344 36.3582 17.5498C33.7651 14.9568 30.3605 13.6621 26.9548 13.6621Z" fill="white" stroke="white" stroke-width="0.5"/>
<path d="M16.1738 26.2471C16.5642 26.2471 16.8806 26.5629 16.8809 26.9531C16.8809 29.6452 17.9288 32.1739 19.833 34.0781C20.1094 34.3547 20.1095 34.8016 19.833 35.0781C19.6954 35.2157 19.5146 35.2851 19.334 35.2852H19.2314L19.2178 35.2725C19.0769 35.2493 18.9415 35.1846 18.833 35.0762C16.6632 32.9064 15.4678 30.0213 15.4678 26.9531C15.468 26.563 15.7837 26.2473 16.1738 26.2471Z" fill="#FFCC00" stroke="#FFCC00" stroke-width="0.5"/>
<path d="M41.4973 38.2324C42.3703 38.2324 43.1933 38.5719 43.8079 39.1865L46.7971 42.1757C47.4116 42.7903 47.7502 43.6133 47.7502 44.4863C47.7502 45.3593 47.4117 46.1823 46.7971 46.7968C46.1826 47.4114 45.3596 47.7499 44.4866 47.7499C43.6136 47.7499 42.7906 47.4113 42.176 46.7968L39.1868 43.8076C38.5722 43.193 38.2327 42.37 38.2327 41.497C38.2327 40.6239 38.5721 39.8011 39.1868 39.1865C39.8014 38.5718 40.6242 38.2324 41.4973 38.2324ZM41.4993 39.6435C41.0241 39.6435 40.5489 39.8253 40.1877 40.1865C39.4661 40.9086 39.4663 42.0855 40.1887 42.8095H40.1877L43.177 45.7988C43.899 46.5208 45.0769 46.5212 45.801 45.7988C46.5228 45.0769 46.5229 43.8999 45.801 43.1757L42.8108 40.1865C42.4497 39.8253 41.9755 39.6435 41.5002 39.6435H41.4993Z" fill="#FFCC00" stroke="#FFCC00" stroke-width="0.5"/>
</svg>
