<svg width="60" height="60" viewBox="0 0 60 60" fill="none" xmlns="http://www.w3.org/2000/svg">
<rect width="60" height="60" rx="5" fill="#282573"/>
<mask id="path-2-outside-1_174_4051" maskUnits="userSpaceOnUse" x="19.2759" y="11.4995" width="21" height="21" fill="black">
<rect fill="white" x="19.2759" y="11.4995" width="21" height="21"/>
<path d="M31.7831 31.9529H28.2221C28.0168 31.9529 27.8508 31.7869 27.8508 31.5816V29.4648L26.4007 28.8708L24.907 30.3645C24.8371 30.4344 24.7425 30.4737 24.6449 30.4737C24.5459 30.4737 24.4513 30.4344 24.3829 30.3645L21.8672 27.8444C21.723 27.6988 21.723 27.4644 21.8672 27.3203L23.3638 25.8237L22.7596 24.3794H20.6471C20.4418 24.3794 20.2759 24.2135 20.2759 24.0082V20.4442C20.2759 20.2389 20.4418 20.073 20.6471 20.073H22.7596L23.3638 18.6287L21.8672 17.1321C21.7216 16.988 21.7216 16.7521 21.8672 16.608L24.3829 14.0879C24.4528 14.018 24.5474 13.9787 24.6449 13.9787C24.7439 13.9787 24.8371 14.018 24.907 14.0879L26.4007 15.5816L27.8508 14.9876V12.8707C27.8508 12.6655 28.0168 12.4995 28.2221 12.4995H31.7831C31.9884 12.4995 32.1543 12.6655 32.1543 12.8707C32.1543 12.8882 32.1543 12.9057 32.1514 12.9217V14.9876L33.6015 15.5816L35.0952 14.0879C35.1651 14.018 35.2597 13.9787 35.3573 13.9787C35.4563 13.9787 35.5509 14.018 35.6194 14.0879L38.1351 16.608C38.2792 16.7536 38.2792 16.988 38.1351 17.1321L36.6385 18.6287L37.2426 20.073H39.3551C39.5604 20.073 39.7264 20.2389 39.7264 20.4442V24.0082C39.7264 24.2135 39.5604 24.3794 39.3551 24.3794H37.2426L36.6385 25.8237L38.1351 27.3203C38.2807 27.4644 38.2807 27.7003 38.1351 27.8444L35.6194 30.3645C35.5495 30.4344 35.4548 30.4737 35.3573 30.4737C35.2583 30.4737 35.1651 30.4344 35.0952 30.3645L33.6015 28.8708L32.1514 29.4648V31.5307C32.1543 31.5467 32.1543 31.5642 32.1543 31.5816C32.1543 31.7869 31.9884 31.9529 31.7831 31.9529ZM28.5933 31.2104H31.4075V29.2159C31.4075 29.0659 31.4992 28.929 31.6375 28.8723L33.5477 28.089C33.686 28.0322 33.8447 28.0643 33.9509 28.1705L35.3573 29.5769L37.3489 27.5824L35.9396 26.1716C35.8333 26.0654 35.8013 25.9052 35.8596 25.7654L36.6545 23.8626C36.7127 23.7243 36.8467 23.634 36.9966 23.634H38.9853V20.8126H36.9966C36.8467 20.8126 36.7112 20.7223 36.6545 20.584L35.8596 18.6811C35.8013 18.5428 35.8333 18.3812 35.9396 18.275L37.3489 16.8642L35.3573 14.8697L33.9509 16.276C33.8447 16.3823 33.686 16.4144 33.5477 16.3576L31.6375 15.5743C31.4978 15.5175 31.4075 15.3821 31.4075 15.2307V13.2362H28.5933V15.2307C28.5933 15.3807 28.503 15.5175 28.3632 15.5743L26.4532 16.3576C26.3149 16.4144 26.1562 16.3823 26.0499 16.276L24.6435 14.8697L22.6518 16.8642L24.0612 18.275C24.1674 18.3812 24.1994 18.5414 24.1412 18.6811L23.3463 20.584C23.2881 20.7223 23.1541 20.8126 23.0042 20.8126H21.0155V23.634H23.0042C23.1541 23.634 23.2895 23.7243 23.3463 23.8626L24.1412 25.7654C24.1994 25.9037 24.1674 26.0654 24.0612 26.1716L22.6518 27.5824L24.6435 29.5769L26.0499 28.1705C26.1562 28.0643 26.3149 28.0337 26.4532 28.089L28.3632 28.8723C28.503 28.929 28.5933 29.0644 28.5933 29.2159V31.2104Z"/>
</mask>
<path d="M31.7831 31.9529H28.2221C28.0168 31.9529 27.8508 31.7869 27.8508 31.5816V29.4648L26.4007 28.8708L24.907 30.3645C24.8371 30.4344 24.7425 30.4737 24.6449 30.4737C24.5459 30.4737 24.4513 30.4344 24.3829 30.3645L21.8672 27.8444C21.723 27.6988 21.723 27.4644 21.8672 27.3203L23.3638 25.8237L22.7596 24.3794H20.6471C20.4418 24.3794 20.2759 24.2135 20.2759 24.0082V20.4442C20.2759 20.2389 20.4418 20.073 20.6471 20.073H22.7596L23.3638 18.6287L21.8672 17.1321C21.7216 16.988 21.7216 16.7521 21.8672 16.608L24.3829 14.0879C24.4528 14.018 24.5474 13.9787 24.6449 13.9787C24.7439 13.9787 24.8371 14.018 24.907 14.0879L26.4007 15.5816L27.8508 14.9876V12.8707C27.8508 12.6655 28.0168 12.4995 28.2221 12.4995H31.7831C31.9884 12.4995 32.1543 12.6655 32.1543 12.8707C32.1543 12.8882 32.1543 12.9057 32.1514 12.9217V14.9876L33.6015 15.5816L35.0952 14.0879C35.1651 14.018 35.2597 13.9787 35.3573 13.9787C35.4563 13.9787 35.5509 14.018 35.6194 14.0879L38.1351 16.608C38.2792 16.7536 38.2792 16.988 38.1351 17.1321L36.6385 18.6287L37.2426 20.073H39.3551C39.5604 20.073 39.7264 20.2389 39.7264 20.4442V24.0082C39.7264 24.2135 39.5604 24.3794 39.3551 24.3794H37.2426L36.6385 25.8237L38.1351 27.3203C38.2807 27.4644 38.2807 27.7003 38.1351 27.8444L35.6194 30.3645C35.5495 30.4344 35.4548 30.4737 35.3573 30.4737C35.2583 30.4737 35.1651 30.4344 35.0952 30.3645L33.6015 28.8708L32.1514 29.4648V31.5307C32.1543 31.5467 32.1543 31.5642 32.1543 31.5816C32.1543 31.7869 31.9884 31.9529 31.7831 31.9529ZM28.5933 31.2104H31.4075V29.2159C31.4075 29.0659 31.4992 28.929 31.6375 28.8723L33.5477 28.089C33.686 28.0322 33.8447 28.0643 33.9509 28.1705L35.3573 29.5769L37.3489 27.5824L35.9396 26.1716C35.8333 26.0654 35.8013 25.9052 35.8596 25.7654L36.6545 23.8626C36.7127 23.7243 36.8467 23.634 36.9966 23.634H38.9853V20.8126H36.9966C36.8467 20.8126 36.7112 20.7223 36.6545 20.584L35.8596 18.6811C35.8013 18.5428 35.8333 18.3812 35.9396 18.275L37.3489 16.8642L35.3573 14.8697L33.9509 16.276C33.8447 16.3823 33.686 16.4144 33.5477 16.3576L31.6375 15.5743C31.4978 15.5175 31.4075 15.3821 31.4075 15.2307V13.2362H28.5933V15.2307C28.5933 15.3807 28.503 15.5175 28.3632 15.5743L26.4532 16.3576C26.3149 16.4144 26.1562 16.3823 26.0499 16.276L24.6435 14.8697L22.6518 16.8642L24.0612 18.275C24.1674 18.3812 24.1994 18.5414 24.1412 18.6811L23.3463 20.584C23.2881 20.7223 23.1541 20.8126 23.0042 20.8126H21.0155V23.634H23.0042C23.1541 23.634 23.2895 23.7243 23.3463 23.8626L24.1412 25.7654C24.1994 25.9037 24.1674 26.0654 24.0612 26.1716L22.6518 27.5824L24.6435 29.5769L26.0499 28.1705C26.1562 28.0643 26.3149 28.0337 26.4532 28.089L28.3632 28.8723C28.503 28.929 28.5933 29.0644 28.5933 29.2159V31.2104Z" fill="#FFCC00"/>
<path d="M31.7831 31.9529H28.2221C28.0168 31.9529 27.8508 31.7869 27.8508 31.5816V29.4648L26.4007 28.8708L24.907 30.3645C24.8371 30.4344 24.7425 30.4737 24.6449 30.4737C24.5459 30.4737 24.4513 30.4344 24.3829 30.3645L21.8672 27.8444C21.723 27.6988 21.723 27.4644 21.8672 27.3203L23.3638 25.8237L22.7596 24.3794H20.6471C20.4418 24.3794 20.2759 24.2135 20.2759 24.0082V20.4442C20.2759 20.2389 20.4418 20.073 20.6471 20.073H22.7596L23.3638 18.6287L21.8672 17.1321C21.7216 16.988 21.7216 16.7521 21.8672 16.608L24.3829 14.0879C24.4528 14.018 24.5474 13.9787 24.6449 13.9787C24.7439 13.9787 24.8371 14.018 24.907 14.0879L26.4007 15.5816L27.8508 14.9876V12.8707C27.8508 12.6655 28.0168 12.4995 28.2221 12.4995H31.7831C31.9884 12.4995 32.1543 12.6655 32.1543 12.8707C32.1543 12.8882 32.1543 12.9057 32.1514 12.9217V14.9876L33.6015 15.5816L35.0952 14.0879C35.1651 14.018 35.2597 13.9787 35.3573 13.9787C35.4563 13.9787 35.5509 14.018 35.6194 14.0879L38.1351 16.608C38.2792 16.7536 38.2792 16.988 38.1351 17.1321L36.6385 18.6287L37.2426 20.073H39.3551C39.5604 20.073 39.7264 20.2389 39.7264 20.4442V24.0082C39.7264 24.2135 39.5604 24.3794 39.3551 24.3794H37.2426L36.6385 25.8237L38.1351 27.3203C38.2807 27.4644 38.2807 27.7003 38.1351 27.8444L35.6194 30.3645C35.5495 30.4344 35.4548 30.4737 35.3573 30.4737C35.2583 30.4737 35.1651 30.4344 35.0952 30.3645L33.6015 28.8708L32.1514 29.4648V31.5307C32.1543 31.5467 32.1543 31.5642 32.1543 31.5816C32.1543 31.7869 31.9884 31.9529 31.7831 31.9529ZM28.5933 31.2104H31.4075V29.2159C31.4075 29.0659 31.4992 28.929 31.6375 28.8723L33.5477 28.089C33.686 28.0322 33.8447 28.0643 33.9509 28.1705L35.3573 29.5769L37.3489 27.5824L35.9396 26.1716C35.8333 26.0654 35.8013 25.9052 35.8596 25.7654L36.6545 23.8626C36.7127 23.7243 36.8467 23.634 36.9966 23.634H38.9853V20.8126H36.9966C36.8467 20.8126 36.7112 20.7223 36.6545 20.584L35.8596 18.6811C35.8013 18.5428 35.8333 18.3812 35.9396 18.275L37.3489 16.8642L35.3573 14.8697L33.9509 16.276C33.8447 16.3823 33.686 16.4144 33.5477 16.3576L31.6375 15.5743C31.4978 15.5175 31.4075 15.3821 31.4075 15.2307V13.2362H28.5933V15.2307C28.5933 15.3807 28.503 15.5175 28.3632 15.5743L26.4532 16.3576C26.3149 16.4144 26.1562 16.3823 26.0499 16.276L24.6435 14.8697L22.6518 16.8642L24.0612 18.275C24.1674 18.3812 24.1994 18.5414 24.1412 18.6811L23.3463 20.584C23.2881 20.7223 23.1541 20.8126 23.0042 20.8126H21.0155V23.634H23.0042C23.1541 23.634 23.2895 23.7243 23.3463 23.8626L24.1412 25.7654C24.1994 25.9037 24.1674 26.0654 24.0612 26.1716L22.6518 27.5824L24.6435 29.5769L26.0499 28.1705C26.1562 28.0643 26.3149 28.0337 26.4532 28.089L28.3632 28.8723C28.503 28.929 28.5933 29.0644 28.5933 29.2159V31.2104Z" stroke="#FFCC00" mask="url(#path-2-outside-1_174_4051)"/>
<path d="M30.001 17.6882C32.5018 17.6882 34.5359 19.7217 34.5361 22.2224C34.5361 24.7234 32.5019 26.7576 30.001 26.7576C27.5002 26.7573 25.4668 24.7232 25.4668 22.2224C25.467 19.7218 27.5004 17.6885 30.001 17.6882ZM30.001 18.9304C28.1857 18.9306 26.7092 20.4084 26.709 22.2224C26.709 24.0365 28.1869 25.5152 30.001 25.5154C31.8152 25.5154 33.2939 24.0367 33.2939 22.2224C33.2937 20.4084 31.8151 18.9304 30.001 18.9304Z" fill="#FFCC00" stroke="#FFCC00" stroke-width="0.5"/>
<path d="M29.999 33.5115C30.3423 33.5115 30.62 33.7893 30.6201 34.1326V38.9636C30.62 39.3069 30.3422 39.5847 29.999 39.5847C29.6558 39.5846 29.3781 39.3068 29.3779 38.9636V34.1326C29.378 33.7894 29.6558 33.5115 29.999 33.5115Z" fill="white" stroke="white" stroke-width="0.5"/>
<path d="M34.1865 38.3419C34.5297 38.342 34.8075 38.6198 34.8076 38.963C34.8076 39.3064 34.5298 39.584 34.1865 39.5841H25.8164C25.4732 39.584 25.1953 39.3063 25.1953 38.963C25.1954 38.6198 25.4732 38.342 25.8164 38.3419H34.1865Z" fill="white" stroke="white" stroke-width="0.5"/>
<path d="M18.3975 35.2888C21.7879 35.2888 24.5457 38.0459 24.5459 41.4363C24.5459 44.8268 21.788 47.5847 18.3975 47.5847C15.0071 47.5846 12.25 44.8267 12.25 41.4363C12.2502 38.046 15.0072 35.289 18.3975 35.2888ZM18.3975 36.533C15.6937 36.5331 13.4922 38.7331 13.4922 41.4382C13.4923 44.1433 15.6924 46.3434 18.3975 46.3435C21.1026 46.3435 23.3026 44.1434 23.3027 41.4382C23.3027 38.733 21.1027 36.533 18.3975 36.533Z" fill="white" stroke="white" stroke-width="0.5"/>
<path d="M16.3691 39.4085C16.6124 39.1653 17.0048 39.1653 17.248 39.4085L20.4258 42.5862C20.669 42.8295 20.669 43.2219 20.4258 43.4651C20.3048 43.5862 20.1463 43.6478 19.9873 43.6478H19.9863C19.8288 43.6478 19.6662 43.5879 19.5449 43.4642V43.4632L16.3691 40.2874C16.1259 40.0442 16.1259 39.6517 16.3691 39.4085Z" fill="white" stroke="white" stroke-width="0.5"/>
<path d="M19.5469 39.4085C19.7901 39.1653 20.1826 39.1654 20.4258 39.4085C20.669 39.6517 20.669 40.0442 20.4258 40.2874L17.248 43.4651C17.1272 43.586 16.9685 43.6477 16.8096 43.6478H16.8076C16.6486 43.6477 16.4901 43.5861 16.3691 43.4651C16.1261 43.2219 16.126 42.8294 16.3691 42.5862L19.5469 39.4085Z" fill="white" stroke="white" stroke-width="0.5"/>
<path d="M41.6016 35.2888C44.992 35.2888 47.7498 38.0459 47.75 41.4363C47.75 44.8268 44.9921 47.5847 41.6016 47.5847C38.2112 47.5846 35.4541 44.8267 35.4541 41.4363C35.4543 38.046 38.2113 35.289 41.6016 35.2888ZM41.6016 36.533C38.8978 36.5331 36.6963 38.7331 36.6963 41.4382C36.6964 44.1433 38.8965 46.3434 41.6016 46.3435C44.3067 46.3435 46.5067 44.1434 46.5068 41.4382C46.5068 38.733 44.3068 36.533 41.6016 36.533Z" fill="white" stroke="white" stroke-width="0.5"/>
<path d="M43.27 39.5746C43.5132 39.3314 43.9057 39.3314 44.1489 39.5746C44.392 39.8179 44.3921 40.2104 44.1489 40.4536L41.3022 43.3002C41.1813 43.4209 41.0227 43.4819 40.8638 43.4819H40.8608C40.702 43.4818 40.5433 43.421 40.4224 43.3002L39.061 41.9389C38.8178 41.6957 38.8178 41.3022 39.061 41.059C39.3042 40.8162 39.6968 40.8162 39.9399 41.059L40.8628 41.9819L43.27 39.5746Z" fill="white" stroke="white" stroke-width="0.5"/>
</svg>
