<svg width="60" height="60" viewBox="0 0 60 60" fill="none" xmlns="http://www.w3.org/2000/svg">
<rect width="60" height="60" rx="5" fill="#282573"/>
<path d="M41.1602 11.625C43.3232 11.6252 45.0811 13.3838 45.0811 15.5469V34.1006C45.0811 36.2636 43.3232 38.0223 41.1602 38.0225H38.9717C38.6131 38.0223 38.3232 37.7317 38.3232 37.373C38.3235 37.0146 38.6132 36.7247 38.9717 36.7246H41.1602C42.6057 36.7244 43.7832 35.5462 43.7832 34.1006V15.5469C43.7832 14.1013 42.6057 12.923 41.1602 12.9229H18.8418C17.3961 12.9229 16.2178 14.1012 16.2178 15.5469V34.1006C16.2178 35.5463 17.3961 36.7246 18.8418 36.7246H20.2705C20.629 36.7248 20.9187 37.0146 20.9189 37.373C20.9189 37.7317 20.6291 38.0223 20.2705 38.0225H18.8418C16.6786 38.0225 14.9199 36.2638 14.9199 34.1006V15.5469C14.9199 13.3837 16.6786 11.625 18.8418 11.625H41.1602Z" fill="white" stroke="white" stroke-width="0.5"/>
<path d="M23.7285 17.1917C24.0873 17.1917 24.3779 17.4824 24.3779 17.8411V21.7171C24.3779 22.0758 24.0873 22.3665 23.7285 22.3665H19.8525C19.4938 22.3665 19.2031 22.0758 19.2031 21.7171V17.8411C19.2031 17.4824 19.4938 17.1917 19.8525 17.1917H23.7285ZM20.5029 21.0687H23.0811V18.4896H20.5029V21.0687Z" fill="white" stroke="white" stroke-width="0.5"/>
<path d="M23.7285 25.8059C24.0873 25.8059 24.3779 26.0966 24.3779 26.4553V30.3313C24.3779 30.69 24.0873 30.9807 23.7285 30.9807H19.8525C19.4938 30.9807 19.2031 30.69 19.2031 30.3313V26.4553C19.2031 26.0966 19.4938 25.8059 19.8525 25.8059H23.7285ZM20.5029 29.6829H23.0811V27.1038H20.5029V29.6829Z" fill="white" stroke="white" stroke-width="0.5"/>
<path d="M40.2773 17.824C40.6361 17.824 40.9268 18.1147 40.9268 18.4734C40.9266 18.832 40.636 19.1219 40.2773 19.1219H27.2354C26.8767 19.1219 26.5861 18.832 26.5859 18.4734C26.5859 18.1147 26.8766 17.824 27.2354 17.824H40.2773Z" fill="white" stroke="white" stroke-width="0.5"/>
<path d="M40.2773 20.1965C40.6361 20.1965 40.9268 20.4872 40.9268 20.8459C40.9266 21.2045 40.636 21.4943 40.2773 21.4943H27.2354C26.8767 21.4943 26.5861 21.2045 26.5859 20.8459C26.5859 20.4872 26.8766 20.1965 27.2354 20.1965H40.2773Z" fill="white" stroke="white" stroke-width="0.5"/>
<path d="M35.5732 28.7133C35.9319 28.7134 36.2217 29.0041 36.2217 29.3627C36.2215 29.7212 35.9318 30.0111 35.5732 30.0112H27.3916C27.033 30.0112 26.7424 29.7213 26.7422 29.3627C26.7422 29.004 27.0329 28.7133 27.3916 28.7133H35.5732Z" fill="white" stroke="white" stroke-width="0.5"/>
<path d="M40.126 26.3909L40.2568 26.4036C40.5526 26.4642 40.7744 26.7265 40.7744 27.0403C40.7742 27.3988 40.4844 27.6886 40.126 27.6888H27.3916C27.033 27.6888 26.7424 27.3989 26.7422 27.0403C26.7422 26.6816 27.0329 26.3909 27.3916 26.3909H40.126Z" fill="white" stroke="white" stroke-width="0.5"/>
<path d="M21.916 32.5205C22.356 32.2272 22.8871 32.1218 23.4062 32.2256C23.9248 32.3294 24.3745 32.6304 24.668 33.0703L27.2363 36.9189L31.792 34.7354L31.7979 34.7324C33.098 34.1458 34.6084 34.5775 35.3965 35.7578L37.4482 38.834C39.2613 41.5527 38.6676 45.2077 36.1377 47.1338L35.8867 47.3145C34.8648 48.0121 33.6788 48.3724 32.4746 48.373V48.375C31.9205 48.375 31.3619 48.2989 30.8125 48.1426C30.7506 48.1413 30.6832 48.1351 30.6143 48.1084V48.1074L23.0303 45.2783V45.2773C22.018 44.9373 21.4624 43.826 21.8018 42.8008C21.9666 42.3028 22.3171 41.8975 22.7861 41.6611C23.2553 41.4248 23.79 41.3851 24.2881 41.5498L25.9082 42.085L21.3662 35.2725C21.0731 34.8326 20.9675 34.3021 21.0713 33.7832C21.175 33.2644 21.4758 32.814 21.916 32.5205ZM23.1533 33.498C22.9737 33.4615 22.7917 33.4982 22.6387 33.6006C22.4849 33.7035 22.3812 33.8575 22.3457 34.0371C22.3098 34.2189 22.3455 34.4016 22.4473 34.5537L28.0361 42.9346C28.1887 43.1634 28.1815 43.466 28.0137 43.6875C27.8456 43.9091 27.5552 43.9986 27.293 43.9121L23.8828 42.7852C23.7116 42.7289 23.5317 42.7418 23.373 42.8223C23.2121 42.9039 23.0928 43.0416 23.0371 43.2109V43.2119C22.9357 43.5188 23.0698 43.8477 23.3398 44.002L23.4629 44.0566L23.4727 44.0596L30.9092 46.834C30.9535 46.8371 31.0002 46.8436 31.0469 46.8584H31.0459C32.4487 47.2939 33.9467 47.0695 35.1572 46.2441L35.3535 46.1025C37.3333 44.5932 37.8062 41.7111 36.3701 39.5566L34.3184 36.4795C33.8853 35.8299 33.0542 35.5912 32.3428 35.9131L32.3418 35.9121L27.292 38.335V38.334C27.001 38.4744 26.6503 38.3781 26.4717 38.1104L23.5918 33.791C23.4889 33.6374 23.3348 33.5335 23.1553 33.498H23.1533Z" fill="white" stroke="white" stroke-width="0.5"/>
<path d="M41.1602 11.625C43.3232 11.6252 45.0811 13.3838 45.0811 15.5469V34.1006C45.0811 36.2636 43.3232 38.0223 41.1602 38.0225H38.9717C38.6131 38.0223 38.3232 37.7317 38.3232 37.373C38.3235 37.0146 38.6132 36.7247 38.9717 36.7246H41.1602C42.6057 36.7244 43.7832 35.5462 43.7832 34.1006V15.5469C43.7832 14.1013 42.6057 12.923 41.1602 12.9229H18.8418C17.3961 12.9229 16.2178 14.1012 16.2178 15.5469V34.1006C16.2178 35.5463 17.3961 36.7246 18.8418 36.7246H20.2705C20.629 36.7248 20.9187 37.0146 20.9189 37.373C20.9189 37.7317 20.6291 38.0223 20.2705 38.0225H18.8418C16.6786 38.0225 14.9199 36.2638 14.9199 34.1006V15.5469C14.9199 13.3837 16.6786 11.625 18.8418 11.625H41.1602Z" fill="white" stroke="white" stroke-width="0.5"/>
<path d="M23.7285 17.1917C24.0873 17.1917 24.3779 17.4824 24.3779 17.8411V21.7171C24.3779 22.0758 24.0873 22.3665 23.7285 22.3665H19.8525C19.4938 22.3665 19.2031 22.0758 19.2031 21.7171V17.8411C19.2031 17.4824 19.4938 17.1917 19.8525 17.1917H23.7285ZM20.5029 21.0687H23.0811V18.4896H20.5029V21.0687Z" fill="white" stroke="white" stroke-width="0.5"/>
<path d="M23.7285 25.8059C24.0873 25.8059 24.3779 26.0966 24.3779 26.4553V30.3313C24.3779 30.69 24.0873 30.9807 23.7285 30.9807H19.8525C19.4938 30.9807 19.2031 30.69 19.2031 30.3313V26.4553C19.2031 26.0966 19.4938 25.8059 19.8525 25.8059H23.7285ZM20.5029 29.6829H23.0811V27.1038H20.5029V29.6829Z" fill="white" stroke="white" stroke-width="0.5"/>
<path d="M40.2773 17.824C40.6361 17.824 40.9268 18.1147 40.9268 18.4734C40.9266 18.832 40.636 19.1219 40.2773 19.1219H27.2354C26.8767 19.1219 26.5861 18.832 26.5859 18.4734C26.5859 18.1147 26.8766 17.824 27.2354 17.824H40.2773Z" fill="white" stroke="white" stroke-width="0.5"/>
<path d="M40.2773 20.1965C40.6361 20.1965 40.9268 20.4872 40.9268 20.8459C40.9266 21.2045 40.636 21.4943 40.2773 21.4943H27.2354C26.8767 21.4943 26.5861 21.2045 26.5859 20.8459C26.5859 20.4872 26.8766 20.1965 27.2354 20.1965H40.2773Z" fill="white" stroke="white" stroke-width="0.5"/>
<path d="M35.5732 28.7133C35.9319 28.7134 36.2217 29.0041 36.2217 29.3627C36.2215 29.7212 35.9318 30.0111 35.5732 30.0112H27.3916C27.033 30.0112 26.7424 29.7213 26.7422 29.3627C26.7422 29.004 27.0329 28.7133 27.3916 28.7133H35.5732Z" fill="white" stroke="white" stroke-width="0.5"/>
<path d="M40.126 26.3909L40.2568 26.4036C40.5526 26.4642 40.7744 26.7265 40.7744 27.0403C40.7742 27.3988 40.4844 27.6886 40.126 27.6888H27.3916C27.033 27.6888 26.7424 27.3989 26.7422 27.0403C26.7422 26.6816 27.0329 26.3909 27.3916 26.3909H40.126Z" fill="white" stroke="white" stroke-width="0.5"/>
<path d="M21.916 32.5205C22.356 32.2272 22.8871 32.1218 23.4062 32.2256C23.9248 32.3294 24.3745 32.6304 24.668 33.0703L27.2363 36.9189L31.792 34.7354L31.7979 34.7324C33.098 34.1458 34.6084 34.5775 35.3965 35.7578L37.4482 38.834C39.2613 41.5527 38.6676 45.2077 36.1377 47.1338L35.8867 47.3145C34.8648 48.0121 33.6788 48.3724 32.4746 48.373V48.375C31.9205 48.375 31.3619 48.2989 30.8125 48.1426C30.7506 48.1413 30.6832 48.1351 30.6143 48.1084V48.1074L23.0303 45.2783V45.2773C22.018 44.9373 21.4624 43.826 21.8018 42.8008C21.9666 42.3028 22.3171 41.8975 22.7861 41.6611C23.2553 41.4248 23.79 41.3851 24.2881 41.5498L25.9082 42.085L21.3662 35.2725C21.0731 34.8326 20.9675 34.3021 21.0713 33.7832C21.175 33.2644 21.4758 32.814 21.916 32.5205ZM23.1533 33.498C22.9737 33.4615 22.7917 33.4982 22.6387 33.6006C22.4849 33.7035 22.3812 33.8575 22.3457 34.0371C22.3098 34.2189 22.3455 34.4016 22.4473 34.5537L28.0361 42.9346C28.1887 43.1634 28.1815 43.466 28.0137 43.6875C27.8456 43.9091 27.5552 43.9986 27.293 43.9121L23.8828 42.7852C23.7116 42.7289 23.5317 42.7418 23.373 42.8223C23.2121 42.9039 23.0928 43.0416 23.0371 43.2109V43.2119C22.9357 43.5188 23.0698 43.8477 23.3398 44.002L23.4629 44.0566L23.4727 44.0596L30.9092 46.834C30.9535 46.8371 31.0002 46.8436 31.0469 46.8584H31.0459C32.4487 47.2939 33.9467 47.0695 35.1572 46.2441L35.3535 46.1025C37.3333 44.5932 37.8062 41.7111 36.3701 39.5566L34.3184 36.4795C33.8853 35.8299 33.0542 35.5912 32.3428 35.9131L32.3418 35.9121L27.292 38.335V38.334C27.001 38.4744 26.6503 38.3781 26.4717 38.1104L23.5918 33.791C23.4889 33.6374 23.3348 33.5335 23.1553 33.498H23.1533Z" fill="#FFCC00" stroke="#FFCC00" stroke-width="0.5"/>
</svg>
