<svg width="60" height="60" viewBox="0 0 60 60" fill="none" xmlns="http://www.w3.org/2000/svg">
<rect width="60" height="60" rx="5" fill="#282573"/>
<path d="M35.7956 31.4834L38.3206 45.6934C38.3488 45.8607 38.3254 46.0327 38.2533 46.1863C38.1812 46.3399 38.0639 46.4679 37.9171 46.5531C37.7703 46.6382 37.6011 46.6766 37.4319 46.6629C37.2628 46.6493 37.1018 46.5843 36.9706 46.4767L31.0039 41.9984C30.7159 41.7832 30.3659 41.6669 30.0064 41.6669C29.6468 41.6669 29.2969 41.7832 29.0089 41.9984L23.0322 46.4751C22.9011 46.5825 22.7403 46.6473 22.5714 46.661C22.4024 46.6746 22.2333 46.6364 22.0867 46.5515C21.94 46.4666 21.8227 46.3389 21.7504 46.1856C21.6782 46.0323 21.6544 45.8606 21.6822 45.6934L24.2056 31.4834" stroke="white" stroke-width="3.33333" stroke-linecap="round" stroke-linejoin="round"/>
<path d="M30 33.3335C35.5228 33.3335 40 28.8563 40 23.3335C40 17.8106 35.5228 13.3335 30 13.3335C24.4772 13.3335 20 17.8106 20 23.3335C20 28.8563 24.4772 33.3335 30 33.3335Z" stroke="#FFCC00" stroke-width="3.33333" stroke-linecap="round" stroke-linejoin="round"/>
</svg>
