<svg width="60" height="60" viewBox="0 0 60 60" fill="none" xmlns="http://www.w3.org/2000/svg">
<rect width="60" height="60" rx="5" fill="#282573"/>
<path d="M43.9365 18.0026L44.1328 18.0074C46.1448 18.1097 47.75 19.779 47.75 21.816V43.527C47.7499 45.6296 46.0391 47.3405 43.9365 47.3405H16.0635C13.9609 47.3405 12.2501 45.6296 12.25 43.527V21.816C12.25 19.7134 13.9608 18.0026 16.0635 18.0026H43.9365ZM16.0635 19.3707C14.7153 19.3707 13.6182 20.4679 13.6182 21.816V43.527C13.6183 44.875 14.7154 45.9713 16.0635 45.9713H43.9365C45.2846 45.9713 46.3817 44.875 46.3818 43.527V21.816C46.3818 20.4679 45.2847 19.3707 43.9365 19.3707H16.0635Z" fill="white" stroke="white" stroke-width="0.5"/>
<path d="M33.9033 12.6608C35.7875 12.6608 37.3469 14.1328 37.4531 16.0104L37.4463 16.149C37.4105 16.3931 37.2438 16.5937 37.0186 16.6823V16.734H36.7686C36.4095 16.7338 36.1062 16.4531 36.0869 16.0875L36.0645 15.8746C35.9021 14.8244 34.991 14.0289 33.9033 14.0289H26.0928C24.933 14.0291 23.9758 14.9342 23.9102 16.0885C23.8912 16.4187 23.6433 16.6804 23.3271 16.7262L23.1885 16.7321C22.8105 16.7106 22.5225 16.3881 22.5439 16.0104L22.5576 15.8356C22.7459 14.0404 24.2679 12.6609 26.0928 12.6608H33.9033Z" fill="white" stroke="white" stroke-width="0.5"/>
<path d="M34.5332 25.48C34.9113 25.48 35.2168 25.7865 35.2168 26.1646C35.2166 26.5424 34.9111 26.8481 34.5332 26.8481H17.0752C16.6972 26.8481 16.3909 26.5425 16.3906 26.1646C16.3906 25.7864 16.6971 25.48 17.0752 25.48H34.5332Z" fill="white" stroke="white" stroke-width="0.5"/>
<path d="M34.5332 31.9882C34.9113 31.9882 35.2168 32.2946 35.2168 32.6727C35.2165 33.0506 34.9111 33.3563 34.5332 33.3563H17.0752C16.6972 33.3563 16.3909 33.0506 16.3906 32.6727C16.3906 32.2946 16.6971 31.9882 17.0752 31.9882H34.5332Z" fill="white" stroke="white" stroke-width="0.5"/>
<path d="M34.5332 38.4962C34.9113 38.4963 35.2168 38.8027 35.2168 39.1808C35.2165 39.5587 34.9111 39.8643 34.5332 39.8644H17.0752C16.6972 39.8644 16.3909 39.5587 16.3906 39.1808C16.3906 38.8027 16.6971 38.4962 17.0752 38.4962H34.5332Z" fill="white" stroke="white" stroke-width="0.5"/>
<path d="M38.6582 23.7578C38.9261 23.4899 39.3581 23.4899 39.626 23.7578L42.5488 26.6807C42.8167 26.9485 42.8167 27.3806 42.5488 27.6484C42.4155 27.7818 42.2405 27.8496 42.0654 27.8496H42.0645C41.8893 27.8496 41.7144 27.7817 41.5811 27.6484L38.6582 24.7256C38.3903 24.4577 38.3903 24.0257 38.6582 23.7578Z" fill="#FFCC00" stroke="#FFCC00" stroke-width="0.5"/>
<path d="M41.5811 23.7578C41.8489 23.4899 42.281 23.49 42.5488 23.7578C42.8167 24.0257 42.8167 24.4577 42.5488 24.7256L39.626 27.6484C39.4927 27.7818 39.3177 27.8496 39.1426 27.8496H39.1416C38.9665 27.8496 38.7915 27.7818 38.6582 27.6484C38.3904 27.3806 38.3903 26.9485 38.6582 26.6807L41.5811 23.7578Z" fill="#FFCC00" stroke="#FFCC00" stroke-width="0.5"/>
<path d="M42.4458 31.0135C42.7137 30.7456 43.1467 30.7456 43.4146 31.0135C43.6821 31.2813 43.6822 31.7135 43.4146 31.9813L40.7769 34.618C40.6488 34.746 40.4753 34.8191 40.2944 34.8192H40.1909L40.1772 34.8055C40.0381 34.7816 39.9096 34.7174 39.8091 34.617L38.4985 33.3055C38.2307 33.0376 38.2307 32.6056 38.4985 32.3377C38.7664 32.07 39.1985 32.0699 39.4663 32.3377L40.2935 33.1649L42.4458 31.0135Z" fill="#FFCC00" stroke="#FFCC00" stroke-width="0.5"/>
<path d="M42.4458 37.9829C42.7137 37.715 43.1467 37.715 43.4146 37.9829C43.6821 38.2507 43.6822 38.6829 43.4146 38.9507L40.7769 41.5874C40.6436 41.7206 40.4694 41.7885 40.2944 41.7886H40.1909L40.1772 41.7749C40.0425 41.7517 39.9129 41.6902 39.8091 41.5864L38.4985 40.2749C38.2307 40.007 38.2307 39.575 38.4985 39.3071C38.7664 39.0394 39.1985 39.0394 39.4663 39.3071L40.2935 40.1343L42.4458 37.9829Z" fill="#FFCC00" stroke="#FFCC00" stroke-width="0.5"/>
</svg>
