<svg width="60" height="60" viewBox="0 0 60 60" fill="none" xmlns="http://www.w3.org/2000/svg">
<rect width="60" height="60" rx="5" fill="#282573"/>
<path d="M41.7402 13.9678C43.6752 13.9678 45.2508 15.541 45.251 17.4776V32.8428C45.251 34.7779 43.677 36.3536 41.7402 36.3536H26.9922C26.641 36.3536 26.3564 36.069 26.3564 35.7178C26.3565 35.3667 26.641 35.0821 26.9922 35.0821H41.7402C42.9745 35.0821 43.9795 34.0771 43.9795 32.8428V17.4776C43.9793 16.2435 42.9744 15.2383 41.7402 15.2383H21.3311C20.0971 15.2386 19.092 16.2436 19.0918 17.4776V27.5801C19.0918 27.9312 18.8081 28.2157 18.457 28.2159C18.1059 28.2159 17.8213 27.9314 17.8213 27.5801V17.4776C17.8215 15.5428 19.3946 13.9681 21.3311 13.9678H41.7402Z" fill="white" stroke="white" stroke-width="0.5"/>
<path d="M35.6323 42.1309C35.9835 42.1309 36.2681 42.4154 36.2681 42.7666C36.2679 43.1177 35.9834 43.4014 35.6323 43.4014H27.438C27.087 43.4014 26.8024 43.1177 26.8022 42.7666C26.8022 42.4154 27.0868 42.1309 27.438 42.1309H35.6323Z" fill="white" stroke="white" stroke-width="0.5"/>
<path d="M31.5361 35.0826C31.8872 35.0828 32.1709 35.3673 32.1709 35.7184V42.7662C32.1707 43.1171 31.8871 43.4008 31.5361 43.401C31.185 43.401 30.9006 43.1172 30.9004 42.7662V35.7184C30.9004 35.3672 31.1849 35.0826 31.5361 35.0826Z" fill="white" stroke="white" stroke-width="0.5"/>
<path d="M36.3496 18.0397C36.7006 18.0398 36.9844 18.3243 36.9844 18.6754C36.9842 19.0264 36.7005 19.31 36.3496 19.3102H26.7188C26.3677 19.3102 26.0832 19.0265 26.083 18.6754C26.083 18.3242 26.3676 18.0397 26.7188 18.0397H36.3496Z" fill="white" stroke="white" stroke-width="0.5"/>
<path d="M35.6333 23.549C35.9844 23.549 36.269 23.8335 36.269 24.1847C36.2689 24.5358 35.9843 24.8195 35.6333 24.8195H21.5005C21.1494 24.8195 20.8649 24.5358 20.8647 24.1847C20.8647 23.8335 21.1493 23.549 21.5005 23.549H35.6333Z" fill="white" stroke="white" stroke-width="0.5"/>
<path d="M41.1143 27.6187C41.363 27.3703 41.764 27.3702 42.0127 27.6187C42.2615 27.8675 42.2615 28.2694 42.0127 28.5181L40.1416 30.3892C40.018 30.5128 39.8559 30.5757 39.6934 30.5757H39.6904C39.5278 30.5757 39.365 30.5129 39.2412 30.3892L38.3281 29.4761C38.0794 29.2274 38.0794 28.8255 38.3281 28.5767C38.5761 28.3273 38.9796 28.3289 39.2275 28.5767L39.6914 29.0406L41.1143 27.6187Z" fill="#FFCC00" stroke="#FFCC00" stroke-width="0.5"/>
<path d="M35.6323 29.1546C35.9834 29.1547 36.2681 29.4392 36.2681 29.7903C36.2679 30.1414 35.9833 30.425 35.6323 30.4251H27.5161C27.1651 30.4251 26.8805 30.1414 26.8804 29.7903C26.8804 29.4391 27.165 29.1546 27.5161 29.1546H35.6323Z" fill="white" stroke="white" stroke-width="0.5"/>
<path d="M41.1143 22.0123C41.363 21.7639 41.764 21.7638 42.0127 22.0123C42.2615 22.2611 42.2615 22.663 42.0127 22.9117L40.1416 24.7828C40.0227 24.9016 39.8614 24.9693 39.6934 24.9694H39.6904C39.5203 24.9694 39.3598 24.9014 39.2412 24.7828L38.3281 23.8698C38.0794 23.621 38.0794 23.2191 38.3281 22.9703C38.5769 22.7217 38.9788 22.7217 39.2275 22.9703L39.6914 23.4342L41.1143 22.0123Z" fill="#FFCC00" stroke="#FFCC00" stroke-width="0.5"/>
<path d="M16.6348 28.6348C16.8566 28.6006 17.0842 28.6826 17.2285 28.8633L18.7441 30.7422L18.7451 30.7432C18.8145 30.8299 18.8595 30.9321 18.877 31.041L19.5166 35.001V35.002C19.571 35.3465 19.3374 35.6734 18.9893 35.7285C18.645 35.7828 18.3182 35.5507 18.2627 35.2031L17.6494 31.4072L16.9385 30.5254L16.5391 31.5869L17.1338 35.2607L17.1348 35.2617C17.1892 35.6064 16.9556 35.9342 16.6074 35.9893H16.6035C16.5718 35.9938 16.5406 35.9961 16.5068 35.9961H16.5049C16.2367 35.996 15.9965 35.8269 15.9072 35.5752L15.8789 35.4629L15.2588 31.6221C15.2418 31.5153 15.2514 31.4016 15.293 31.2949L16.1396 29.0391L16.1738 28.9619C16.2666 28.7879 16.4371 28.6655 16.6348 28.6348Z" fill="white" stroke="white" stroke-width="0.5"/>
<path d="M24.2944 26.6891C24.4643 26.4996 24.7331 26.4299 24.9731 26.5124L24.9722 26.5134C25.2115 26.595 25.3825 26.8096 25.4009 27.0651L25.6294 30.0641V30.0671C25.634 30.1402 25.6264 30.2194 25.6011 30.2995L25.6021 30.3005L23.9858 35.5251V35.5261C23.9012 35.7973 23.6504 35.9733 23.3784 35.9733H23.3774C23.3131 35.9733 23.2522 35.9634 23.1968 35.9479L23.189 35.946C22.854 35.8415 22.6666 35.4873 22.771 35.1511L24.3511 30.0417L24.2446 28.6481L23.2651 29.7419L21.4966 35.4636V35.4645C21.3924 35.7969 21.0368 35.9879 20.7007 35.8825V35.8815C20.3661 35.7768 20.1793 35.4236 20.2837 35.0876L22.0942 29.2341V29.2331C22.1214 29.1466 22.1664 29.0668 22.228 28.9977L24.2944 26.6891Z" fill="white" stroke="white" stroke-width="0.5"/>
<path d="M24.6064 34.8226C24.7383 34.8227 24.8626 34.8643 24.9668 34.9359L25.0645 35.017L25.0664 35.0189C25.1875 35.1452 25.2485 35.315 25.2412 35.4867V35.4886L24.7617 45.4271C24.7463 45.7673 24.4647 46.0326 24.127 46.0326H15.8643C15.5247 46.0326 15.2459 45.7656 15.2285 45.4281V45.4271L14.75 35.4886V35.4867C14.7427 35.3149 14.8036 35.1452 14.9248 35.0189C15.046 34.8911 15.2132 34.8226 15.3848 34.8226H24.6064ZM16.4678 44.7621H23.5215L23.9385 36.0931H16.0508L16.4678 44.7621Z" fill="white" stroke="white" stroke-width="0.5"/>
</svg>
