<svg width="60" height="60" viewBox="0 0 60 60" fill="none" xmlns="http://www.w3.org/2000/svg">
<rect width="60" height="60" rx="5" fill="#282573"/>
<path d="M30.4746 11.625C32.9235 11.625 34.9149 13.6166 34.915 16.0654V16.4863C34.9148 16.8429 34.6262 17.1318 34.2695 17.1318C33.9132 17.1316 33.6242 16.8428 33.624 16.4863V16.0654C33.6239 14.3285 32.2116 12.916 30.4746 12.916H25.1875C23.4506 12.9161 22.0382 14.3286 22.0381 16.0654V16.4863C22.0379 16.8429 21.7492 17.1318 21.3926 17.1318C21.0359 17.1318 20.7473 16.8429 20.7471 16.4863V16.0654L20.7529 15.8379C20.8718 13.4944 22.815 11.6251 25.1875 11.625H30.4746Z" fill="white" stroke="white" stroke-width="0.5"/>
<path d="M42.1777 19.0013C42.5345 19.0013 42.8232 19.29 42.8232 19.6468V32.4388C42.8232 32.7955 42.5345 33.0843 42.1777 33.0843C41.8212 33.0841 41.5322 32.7954 41.5322 32.4388V20.2923H14.1328V40.5442C14.1329 41.6079 14.9978 42.4728 16.0615 42.4729H31.1211C31.4778 42.4729 31.7665 42.7618 31.7666 43.1184C31.7666 43.4752 31.4779 43.7639 31.1211 43.7639H16.0615C14.2859 43.7638 12.8419 42.3199 12.8418 40.5442V19.6468C12.8418 19.29 13.1305 19.0013 13.4873 19.0013H42.1777Z" fill="white" stroke="white" stroke-width="0.5"/>
<path d="M42.1743 19.0028C42.5284 19.0029 42.8228 19.2891 42.8228 19.6483V26.3299C42.8228 26.3599 42.8218 26.4014 42.8188 26.4442L42.8198 26.4452C42.7602 28.5859 40.9739 30.3241 38.8286 30.3241H38.2144L38.2163 30.3221H35.2446C34.8878 30.3221 34.5991 30.0333 34.5991 29.6766C34.5991 29.3199 34.8878 29.0311 35.2446 29.0311H38.8306C40.2816 29.0309 41.4943 27.8483 41.5298 26.3993C41.5298 26.393 41.531 26.3829 41.5317 26.3709V20.2938H14.1304V26.3299C14.1305 27.8202 15.3432 29.0331 16.8335 29.0331H20.4194C20.7761 29.0332 21.0649 29.3219 21.0649 29.6786C21.0647 30.035 20.7759 30.3239 20.4194 30.3241H16.8335C14.6312 30.3241 12.8395 28.5322 12.8394 26.3299V19.6483L12.8521 19.5184C12.9121 19.2239 13.1726 19.0028 13.4849 19.0028H42.1743Z" fill="white" stroke="white" stroke-width="0.5"/>
<path d="M32.3271 29.0312C32.6837 29.0314 32.9717 29.3201 32.9717 29.6767C32.9717 30.0332 32.6837 30.3219 32.3271 30.3222H23.3359C22.9792 30.3222 22.6904 30.0334 22.6904 29.6767C22.6904 29.3199 22.9792 29.0312 23.3359 29.0312H32.3271Z" fill="white" stroke="white" stroke-width="0.5"/>
<path d="M21.8789 25.8036C23.039 25.8037 23.9824 26.747 23.9824 27.9071V31.4482C23.9822 32.6081 23.0389 33.5506 21.8789 33.5507C20.7189 33.5507 19.7756 32.6081 19.7754 31.4482V27.9071C19.7754 26.747 20.7188 25.8036 21.8789 25.8036ZM21.8789 27.0946C21.4307 27.0946 21.0664 27.459 21.0664 27.9071V31.4482C21.0666 31.8962 21.4308 32.2597 21.8789 32.2597C22.3269 32.2596 22.6912 31.8961 22.6914 31.4482V27.9071C22.6914 27.459 22.327 27.0947 21.8789 27.0946Z" fill="white" stroke="white" stroke-width="0.5"/>
<path d="M33.7856 25.8036C34.9457 25.8037 35.8892 26.747 35.8892 27.9071V31.4482C35.889 32.6081 34.9456 33.5506 33.7856 33.5507C32.6256 33.5507 31.6823 32.6081 31.6821 31.4482V27.9071C31.6821 26.747 32.6255 25.8036 33.7856 25.8036ZM33.7856 27.0946C33.3375 27.0946 32.9731 27.459 32.9731 27.9071V31.4482C32.9733 31.8962 33.3376 32.2597 33.7856 32.2597C34.2337 32.2596 34.5979 31.8961 34.5981 31.4482V27.9071C34.5981 27.459 34.2338 27.0947 33.7856 27.0946Z" fill="white" stroke="white" stroke-width="0.5"/>
<path d="M39.0562 34.3554C42.3194 34.3554 44.9721 37.0093 44.9722 40.2724C44.9722 43.5357 42.3178 46.1884 39.0562 46.1884C35.7931 46.1883 33.1392 43.5341 33.1392 40.2724C33.1392 37.0109 35.793 34.3555 39.0562 34.3554ZM39.0562 35.6464C36.5065 35.6465 34.4302 37.7213 34.4302 40.2724C34.4302 42.8236 36.505 44.8983 39.0562 44.8984C41.6074 44.8984 43.6821 42.8237 43.6821 40.2724C43.6821 37.7212 41.6074 35.6464 39.0562 35.6464Z" fill="#FFCC00" stroke="#FFCC00" stroke-width="0.5"/>
<path d="M44.2881 45.5007C44.5407 45.248 44.9484 45.2482 45.2012 45.5007L46.9727 47.2722C47.2253 47.5249 47.2253 47.9325 46.9727 48.1852C46.8469 48.311 46.6819 48.3747 46.5166 48.3747H46.5156C46.3504 48.3747 46.1853 48.311 46.0596 48.1852L44.2881 46.4138C44.0356 46.161 44.0355 45.7533 44.2881 45.5007Z" fill="#FFCC00" stroke="#FFCC00" stroke-width="0.5"/>
</svg>
