<svg width="60" height="60" viewBox="0 0 60 60" fill="none" xmlns="http://www.w3.org/2000/svg">
<rect width="60" height="60" rx="5" fill="#282573"/>
<path d="M39.4956 14.2039C41.4054 14.2039 42.9575 15.7576 42.9575 17.6658V32.8328C42.9575 33.1806 42.6755 33.4626 42.3276 33.4626C41.9799 33.4625 41.6987 33.1805 41.6987 32.8328V17.6658C41.6987 16.4517 40.7097 15.4627 39.4956 15.4626H18.0728C16.8586 15.4626 15.8696 16.4516 15.8696 17.6658V24.4099C15.8696 24.7577 15.5876 25.0398 15.2397 25.0398C14.8921 25.0396 14.6108 24.7576 14.6108 24.4099V17.6658C14.6108 15.7559 16.1645 14.2039 18.0728 14.2039H39.4956Z" fill="white" stroke="white" stroke-width="0.5"/>
<path d="M36.8394 29.1149C38.9083 29.115 40.5913 30.798 40.5913 32.8669C40.5912 34.9358 38.9082 36.6188 36.8394 36.6188C34.7704 36.6188 33.0875 34.9358 33.0874 32.8669C33.0874 30.7979 34.7704 29.1149 36.8394 29.1149ZM36.8394 30.3747C35.4647 30.3747 34.3464 31.4932 34.3462 32.8679C34.3462 34.2427 35.4645 35.361 36.8394 35.361C38.2141 35.3609 39.3325 34.2426 39.3325 32.8679C39.3323 31.4933 38.214 30.3748 36.8394 30.3747Z" fill="white" stroke="white" stroke-width="0.5"/>
<path d="M46.0566 32.7457C46.4958 32.7907 46.8972 32.9832 47.2031 33.2926L47.3281 33.4323V33.4332C47.5997 33.7714 47.7499 34.1923 47.75 34.6217C47.75 35.1919 47.4958 35.7275 47.0537 36.0875V36.0885L43.6631 38.8405L40.5869 41.359V45.1647C40.5869 45.5114 40.3072 45.7917 39.9609 45.7936V45.7955C39.6132 45.7955 39.3312 45.5143 39.3311 45.1666V41.0621C39.3311 40.8754 39.4142 40.6947 39.5615 40.5748L42.8691 37.8678H42.8701L46.2607 35.1139C46.4077 34.9931 46.4922 34.8143 46.4922 34.6237C46.4922 34.4823 46.4424 34.3397 46.3496 34.2242V34.2233C46.2464 34.0964 46.0979 34.0168 45.9287 33.9996C45.7577 33.9823 45.5947 34.0305 45.4678 34.1344V34.1354L39.6719 38.8434C39.5592 38.9356 39.418 38.984 39.2744 38.984H32.9775C31.8213 38.9841 30.8819 39.9239 30.8818 41.0768V45.1666C30.8817 45.5143 30.5997 45.7955 30.252 45.7955C29.9045 45.7953 29.6232 45.5142 29.623 45.1666V41.0768C29.6231 39.2278 31.1276 37.7253 32.9775 37.7252H39.0518L44.6729 33.1578H44.6738C45.0645 32.8409 45.5569 32.6945 46.0566 32.7457Z" fill="white" stroke="white" stroke-width="0.5"/>
<path d="M32.7617 42.5674C33.1094 42.5674 33.3914 42.8487 33.3916 43.1963V45.165C33.3915 45.5128 33.1095 45.7939 32.7617 45.7939C32.4141 45.7937 32.1329 45.5126 32.1328 45.165V43.1963C32.133 42.8488 32.4142 42.5676 32.7617 42.5674Z" fill="white" stroke="white" stroke-width="0.5"/>
<path d="M28.8125 30.6902C29.16 30.6905 29.4412 30.9717 29.4414 31.3192V38.1658C29.4412 38.5133 29.16 38.7945 28.8125 38.7947C28.4648 38.7947 28.1828 38.5135 28.1826 38.1658V31.949H13.5078V41.3113C13.5078 41.6592 13.2258 41.9412 12.8779 41.9412C12.5303 41.941 12.249 41.659 12.249 41.3113V31.3192C12.2493 30.9717 12.5305 30.6905 12.8779 30.6902H28.8125Z" fill="#FFCC00" stroke="#FFCC00" stroke-width="0.5"/>
<path d="M20.8457 24.3426C22.5435 24.3426 24.0927 24.8462 25.2236 25.6707C26.354 26.495 27.0819 27.6539 27.082 28.9568C27.082 29.3047 26.8 29.5867 26.4521 29.5867C26.1044 29.5867 25.8232 29.3046 25.8232 28.9568C25.8231 28.0692 25.2992 27.2367 24.3984 26.6151C23.4986 25.9942 22.2427 25.6014 20.8457 25.6014C19.4487 25.6014 18.1928 25.9935 17.293 26.6141C16.3921 27.2355 15.8683 28.0684 15.8682 28.9568C15.8682 29.3046 15.5861 29.5867 15.2383 29.5867C14.8907 29.5865 14.6094 29.3045 14.6094 28.9568C14.6095 27.6541 15.3366 26.495 16.4668 25.6707C17.5977 24.8461 19.1478 24.3426 20.8457 24.3426Z" fill="white" stroke="white" stroke-width="0.5"/>
<path d="M20.8452 16.5057C22.6894 16.5057 24.1897 18.0053 24.1899 19.8494C24.1899 21.6938 22.6896 23.1942 20.8452 23.1942C19.0011 23.1939 17.5015 21.6936 17.5015 19.8494C17.5017 18.0054 19.0012 16.5059 20.8452 16.5057ZM20.8452 17.7645C19.6954 17.7647 18.7605 18.6996 18.7603 19.8494C18.7603 20.9995 19.6952 21.9351 20.8452 21.9354C21.9954 21.9354 22.9312 20.9996 22.9312 19.8494C22.9309 18.6994 21.9953 17.7645 20.8452 17.7645Z" fill="white" stroke="white" stroke-width="0.5"/>
</svg>
