<svg width="60" height="60" viewBox="0 0 60 60" fill="none" xmlns="http://www.w3.org/2000/svg">
<rect width="60" height="60" rx="5" fill="#282573"/>
<path d="M46.6663 30.0002H42.533C41.8046 29.9986 41.0958 30.2357 40.5149 30.6751C39.934 31.1145 39.513 31.7322 39.3163 32.4335L35.3997 46.3668C35.3744 46.4534 35.3218 46.5294 35.2497 46.5835C35.1775 46.6376 35.0898 46.6668 34.9997 46.6668C34.9095 46.6668 34.8218 46.6376 34.7497 46.5835C34.6776 46.5294 34.6249 46.4534 34.5997 46.3668L25.3997 13.6335C25.3744 13.5469 25.3218 13.4709 25.2497 13.4168C25.1776 13.3627 25.0898 13.3335 24.9997 13.3335C24.9095 13.3335 24.8218 13.3627 24.7497 13.4168C24.6776 13.4709 24.6249 13.5469 24.5997 13.6335L20.683 27.5668C20.4871 28.2654 20.0686 28.881 19.4911 29.3202C18.9136 29.7593 18.2085 29.9981 17.483 30.0002H13.333" stroke="white" stroke-width="3.33333" stroke-linecap="round" stroke-linejoin="round"/>
</svg>
