<svg width="60" height="60" viewBox="0 0 60 60" fill="none" xmlns="http://www.w3.org/2000/svg">
<rect width="60" height="60" rx="5" fill="#282573"/>
<path d="M41.3379 11.8129C43.4962 11.8131 45.251 13.5692 45.251 15.726V31.2748C45.251 32.4926 44.6662 33.6589 43.6904 34.3978V34.3988C43.0381 34.8911 42.2245 35.15 41.3428 35.1547L41.3438 35.1556L36.3066 35.1879H36.3018C35.959 35.1878 35.6792 34.9111 35.6768 34.5677V34.5658C35.677 34.2237 35.952 33.9415 36.2969 33.9388H36.2979L41.334 33.9066C41.9571 33.9025 42.5094 33.7231 42.9375 33.4008C43.6144 32.8876 44.001 32.1134 44.001 31.2748V15.726C44.001 14.2568 42.8057 13.0621 41.3379 13.0619H18.6621C17.1928 13.0619 15.9981 14.2579 15.998 15.726V31.2748C15.998 32.7441 17.1941 33.9388 18.6621 33.9388H28.4971C28.842 33.9391 29.1209 34.218 29.1211 34.5629C29.1211 34.9079 28.8421 35.1876 28.4971 35.1879H18.6621C16.5036 35.1879 14.749 33.4317 14.749 31.2748V15.726C14.749 13.5675 16.5052 11.8129 18.6621 11.8129H41.3379Z" fill="white" stroke="white" stroke-width="0.5"/>
<path d="M27.623 18.2891C27.8165 18.1764 28.0544 18.1768 28.248 18.2891L34.4395 21.8613H34.4385C34.633 21.9724 34.752 22.1807 34.752 22.4033C34.7518 22.6273 34.6316 22.8318 34.4404 22.9434L34.4395 22.9443L28.25 26.5156L28.251 26.5166C28.2305 26.5287 28.2088 26.5385 28.1875 26.5479V26.6025H27.9375C27.8308 26.6025 27.7222 26.576 27.624 26.5195V26.5186C27.4285 26.4064 27.3125 26.1978 27.3125 25.9775V18.8291C27.3127 18.6054 27.4328 18.4007 27.6221 18.2891H27.623ZM28.5615 24.8955L32.8779 22.4023L28.5615 19.9102V24.8955Z" fill="#FFCC00" stroke="#FFCC00" stroke-width="0.5"/>
<path d="M41.5527 30.439C41.8979 30.439 42.1777 30.7187 42.1777 31.064C42.1776 31.4091 41.8978 31.688 41.5527 31.688H35.7568C35.4117 31.688 35.132 31.4091 35.1318 31.064C35.1318 30.7187 35.4116 30.439 35.7568 30.439H41.5527Z" fill="white" stroke="white" stroke-width="0.5"/>
<path d="M28.0908 30.439C28.436 30.439 28.7158 30.7187 28.7158 31.064C28.7157 31.4091 28.4359 31.688 28.0908 31.688H18.4463C18.1012 31.688 17.8215 31.4091 17.8213 31.064C17.8213 30.7187 18.1011 30.439 18.4463 30.439H28.0908Z" fill="white" stroke="white" stroke-width="0.5"/>
<path d="M28.0908 29.2803C28.4359 29.2805 28.7148 29.5602 28.7148 29.9053V32.2217C28.7148 32.5669 28.4359 32.8466 28.0908 32.8467C27.7455 32.8467 27.4658 32.567 27.4658 32.2217V29.9053C27.4658 29.5601 27.7455 29.2803 28.0908 29.2803Z" fill="white" stroke="white" stroke-width="0.5"/>
<path d="M32.4463 30.6152L32.624 30.6249C33.5044 30.7159 34.1929 31.462 34.1914 32.3671L34.1836 36.3769L38.4834 36.9951L38.4893 36.996C39.7421 37.2057 40.6462 38.2736 40.6445 39.538L40.6387 42.7997C40.6341 45.3217 38.8957 47.5377 36.4883 48.0605H36.4873C36.0941 48.1449 35.7001 48.1865 35.3105 48.1865C33.7525 48.1864 32.2679 47.5193 31.2402 46.3173C31.1899 46.2818 31.1434 46.2402 31.1055 46.1884L31.1035 46.1865L26.9893 40.4706V40.4697C26.4043 39.7089 26.5465 38.6003 27.3125 38.0029L27.3145 38.0009L27.3457 37.9775C28.0996 37.3924 29.1897 37.5291 29.7764 38.2822L30.6055 39.3456L30.6172 32.3603C30.6176 31.3961 31.4033 30.6152 32.3662 30.6152H32.4463ZM32.3682 31.8632C32.2346 31.8632 32.1097 31.9147 32.0156 32.0087L32.0146 32.0097C31.9198 32.1035 31.8682 32.2278 31.8682 32.3613L31.8535 41.1601C31.8533 41.4261 31.6848 41.6637 31.4316 41.7499C31.1796 41.8356 30.9003 41.7531 30.7363 41.5429L28.792 39.0478C28.6287 38.8381 28.3233 38.7995 28.1133 38.9628L28.1113 38.9648L28.082 38.9853L28.083 38.9863C27.8851 39.1408 27.8287 39.4126 27.9365 39.6308L27.9922 39.7206L27.998 39.7275L32.0352 45.3359C32.0619 45.358 32.0895 45.3846 32.1152 45.4169L32.3057 45.6357C33.2913 46.6945 34.7652 47.1543 36.2236 46.8378C38.0482 46.4421 39.3868 44.7461 39.3896 42.7978L39.3955 39.5361L39.3906 39.415C39.3374 38.8183 38.8928 38.3306 38.293 38.2294L33.4707 37.537C33.1619 37.4928 32.9348 37.2279 32.9346 36.9179V36.9169L32.9424 32.3642L32.9316 32.2636C32.8918 32.0687 32.7385 31.9147 32.5439 31.874L32.4434 31.8632H32.3682Z" fill="white" stroke="white" stroke-width="0.5"/>
</svg>
