<svg width="60" height="60" viewBox="0 0 60 60" fill="none" xmlns="http://www.w3.org/2000/svg">
<rect width="60" height="60" rx="5" fill="#282573"/>
<path d="M22.7397 32.3391C23.0604 32.3391 23.3197 32.5986 23.3198 32.9192V35.6682C23.4564 35.7828 23.7442 35.9783 24.2593 36.2034H24.2583C24.5529 36.3312 24.6861 36.6742 24.5591 36.967V36.968C24.4633 37.1868 24.2492 37.3157 24.0269 37.3157H23.8726L23.8569 37.2844C23.8367 37.2783 23.8159 37.2742 23.7964 37.2659L23.7935 37.2649C23.5747 37.1694 23.2674 37.0249 22.98 36.8489C22.7014 36.6782 22.4068 36.4568 22.2476 36.1995C22.1895 36.1066 22.1597 35.9999 22.1597 35.8938V32.9192C22.1597 32.5986 22.4192 32.3392 22.7397 32.3391Z" fill="white" stroke="white" stroke-width="0.5"/>
<path d="M14.2515 21.8096C14.5721 21.8096 14.8315 22.0691 14.8315 22.3897V30.7266C14.8315 31.0473 14.5721 31.3077 14.2515 31.3077C13.9309 31.3076 13.6714 31.0472 13.6714 30.7266V22.3897C13.6715 22.0692 13.9309 21.8097 14.2515 21.8096Z" fill="white" stroke="white" stroke-width="0.5"/>
<path d="M14.2512 30.1467C15.3566 30.1468 16.2561 31.0462 16.2561 32.1516C16.256 33.2569 15.3565 34.1564 14.2512 34.1565C13.1458 34.1565 12.2464 33.257 12.2463 32.1516C12.2463 31.0462 13.1458 30.1467 14.2512 30.1467ZM14.2512 31.3069C13.7858 31.3069 13.4065 31.6862 13.4065 32.1516C13.4066 32.6169 13.7859 32.9954 14.2512 32.9954C14.7165 32.9953 15.0949 32.6169 15.095 32.1516C15.095 31.6863 14.7166 31.307 14.2512 31.3069Z" fill="white" stroke="white" stroke-width="0.5"/>
<path d="M33.2888 32.8768C33.447 32.7175 33.6816 32.6659 33.8904 32.7401L33.8914 32.7391L42.5681 35.8094V35.8104C42.7818 35.8869 42.9367 36.0817 42.9529 36.3143H42.9519C42.9693 36.5452 42.848 36.7603 42.6482 36.868H42.6472L40.8318 37.8378L43.2097 40.2157C43.3183 40.3242 43.3806 40.4722 43.3806 40.6259C43.3806 40.7796 43.3183 40.9274 43.2097 41.036L41.4148 42.8309C41.3317 42.9139 41.2292 42.965 41.1218 42.9872L41.1082 43.0028H41.0037C40.8552 43.0027 40.7073 42.9447 40.5945 42.8319L38.2263 40.4637L37.28 42.2362C37.1846 42.4131 37.0068 42.5261 36.8113 42.5409H36.7234C36.4947 42.5226 36.2996 42.3723 36.2224 42.1571L36.2214 42.1561L33.1511 33.4794C33.076 33.2673 33.131 33.0327 33.2878 32.8759L33.2888 32.8768ZM36.8738 40.5282L37.571 39.2264C37.647 39.0845 37.7778 38.981 37.9304 38.9393L37.9978 38.9257C38.0264 38.9211 38.0557 38.9188 38.0828 38.9188H38.3328V38.9794C38.3906 39.0072 38.445 39.0433 38.4919 39.0907L41.0017 41.6005L41.9753 40.6268L39.4558 38.1063C39.3264 37.9768 39.2644 37.7927 39.2917 37.6102C39.3192 37.4278 39.431 37.2716 39.5896 37.1844L39.5925 37.1835L40.9382 36.4637L34.6482 34.2382L36.8738 40.5282Z" fill="#FFCC00" stroke="#FFCC00" stroke-width="0.5"/>
<path d="M39.2681 24.5511C39.5887 24.5511 39.8481 24.8106 39.8481 25.1312V32.974C39.8481 33.2946 39.5887 33.5541 39.2681 33.5541C38.9475 33.554 38.688 33.2946 38.688 32.974V25.1312C38.6881 24.8107 38.9475 24.5512 39.2681 24.5511Z" fill="white" stroke="white" stroke-width="0.5"/>
<path d="M20.7959 24.3074C21.1165 24.3074 21.3759 24.5669 21.376 24.8875V36.1169C21.3761 36.4527 21.5417 36.8188 21.9111 37.1902C22.2807 37.5616 22.8403 37.9231 23.5859 38.239C25.0763 38.8704 27.2679 39.3035 30.0322 39.3035C31.2505 39.3035 32.3863 39.1925 33.5059 38.9656L33.5078 38.9646C33.8183 38.9039 34.1263 39.1024 34.1904 39.4187C34.2538 39.732 34.0519 40.0394 33.7373 40.1033C32.5391 40.3463 31.3272 40.4636 30.0322 40.4636C27.2824 40.4636 24.8549 40.0205 23.1055 39.2712C21.3779 38.5313 20.216 37.4462 20.2158 36.1169V24.8875C20.2159 24.5669 20.4754 24.3075 20.7959 24.3074Z" fill="white" stroke="white" stroke-width="0.5"/>
<path d="M30.1069 17.0034L30.189 17.019L30.1899 17.02L47.3267 21.8315C47.57 21.8999 47.7427 22.1207 47.7495 22.3745C47.7561 22.6278 47.5989 22.8568 47.3569 22.939L47.356 22.938L30.2212 28.8267L30.2192 28.8276C30.1616 28.8468 30.0987 28.8589 30.0327 28.8589C29.968 28.8589 29.8997 28.8474 29.8325 28.8218L17.1528 24.1665H17.1519C16.8534 24.0554 16.697 23.7232 16.8091 23.4214C16.9201 23.1228 17.2523 22.9666 17.5542 23.0786H17.5532L30.0386 27.6626L45.2222 22.4458L30.0405 18.1821L14.4204 22.9448C14.1521 23.0263 13.8704 22.9048 13.7417 22.6685L13.6968 22.5601C13.6036 22.2531 13.7763 21.9299 14.0825 21.8364L29.8638 17.0239L29.8657 17.0229C29.9435 16.9998 30.0254 16.9931 30.1069 17.0034Z" fill="white" stroke="white" stroke-width="0.5"/>
</svg>
