<svg width="60" height="60" viewBox="0 0 60 60" fill="none" xmlns="http://www.w3.org/2000/svg">
<rect width="60" height="60" rx="5" fill="#282573"/>
<path d="M26.667 29.9998H33.3337" stroke="#FFCC00" stroke-width="3.33333" stroke-linecap="round" stroke-linejoin="round"/>
<path d="M26.667 23.3333H33.3337" stroke="#FFCC00" stroke-width="3.33333" stroke-linecap="round" stroke-linejoin="round"/>
<path d="M33.3337 44.9998V39.9998C33.3337 39.1158 32.9825 38.2679 32.3573 37.6428C31.7322 37.0177 30.8844 36.6665 30.0003 36.6665C29.1163 36.6665 28.2684 37.0177 27.6433 37.6428C27.0182 38.2679 26.667 39.1158 26.667 39.9998V44.9998" stroke="white" stroke-width="3.33333" stroke-linecap="round" stroke-linejoin="round"/>
<path d="M19.9997 26.6665H16.6663C15.7823 26.6665 14.9344 27.0177 14.3093 27.6428C13.6842 28.2679 13.333 29.1158 13.333 29.9998V41.6665C13.333 42.5506 13.6842 43.3984 14.3093 44.0235C14.9344 44.6486 15.7823 44.9998 16.6663 44.9998H43.333C44.2171 44.9998 45.0649 44.6486 45.69 44.0235C46.3152 43.3984 46.6663 42.5506 46.6663 41.6665V24.9998C46.6663 24.1158 46.3152 23.2679 45.69 22.6428C45.0649 22.0177 44.2171 21.6665 43.333 21.6665H39.9997" stroke="white" stroke-width="3.33333" stroke-linecap="round" stroke-linejoin="round"/>
<path d="M20 44.9998V18.3331C20 17.449 20.3512 16.6012 20.9763 15.9761C21.6014 15.3509 22.4493 14.9998 23.3333 14.9998H36.6667C37.5507 14.9998 38.3986 15.3509 39.0237 15.9761C39.6488 16.6012 40 17.449 40 18.3331V44.9998" stroke="white" stroke-width="3.33333" stroke-linecap="round" stroke-linejoin="round"/>
</svg>
