<svg width="60" height="60" viewBox="0 0 60 60" fill="none" xmlns="http://www.w3.org/2000/svg">
<rect width="60" height="60" rx="5" fill="#282573"/>
<path d="M29.8872 11.9717C37.0247 11.9717 43.5214 16.4506 46.0562 23.1172V23.1182C46.1802 23.4463 46.0157 23.8118 45.687 23.9365C45.3599 24.0612 44.9913 23.8974 44.8667 23.5684V23.5674C42.5188 17.3921 36.4978 13.2432 29.8872 13.2432C25.001 13.2432 20.4445 15.4307 17.3833 19.2451C15.0829 22.1143 13.8667 25.5783 13.8667 29.2637C13.8667 31.3453 14.2604 33.3661 15.0327 35.2695L15.0688 35.3936C15.1227 35.6832 14.9671 35.9796 14.6851 36.0957L14.686 36.0967C14.6064 36.1301 14.523 36.1445 14.4438 36.1445H14.4429C14.1921 36.1445 13.9542 35.996 13.854 35.749C13.0177 33.6913 12.5943 31.5089 12.5942 29.2637C12.5942 25.2863 13.9076 21.5458 16.3911 18.4502C19.6938 14.3329 24.6147 11.9717 29.8872 11.9717Z" fill="white" stroke="white" stroke-width="0.5"/>
<path d="M29.8853 11.9698C30.2365 11.9698 30.521 12.2544 30.521 12.6056V29.2628C30.521 29.4772 30.4135 29.6741 30.2388 29.7911L30.1606 29.8361C30.0718 29.8792 29.9766 29.8986 29.8853 29.8986C29.7432 29.8985 29.6026 29.8512 29.4878 29.7589V29.7579L16.4897 19.3429C16.2166 19.1241 16.1704 18.7228 16.3911 18.4493H16.3921C16.6107 18.1775 17.0095 18.1313 17.2827 18.3507L29.2495 27.9386V12.6056C29.2495 12.2544 29.534 11.9699 29.8853 11.9698Z" fill="white" stroke="white" stroke-width="0.5"/>
<path d="M29.8848 28.6273C30.2361 28.6273 30.5205 28.9118 30.5205 29.263C30.5204 29.6142 30.236 29.8987 29.8848 29.8987H13.2275C12.8764 29.8987 12.5919 29.6142 12.5918 29.263C12.5918 28.9117 12.8763 28.6273 13.2275 28.6273H29.8848Z" fill="white" stroke="white" stroke-width="0.5"/>
<path d="M24.0415 37.4767C24.3928 37.4767 24.6772 37.7613 24.6772 38.1125V47.3947C24.6771 47.7458 24.3927 48.0295 24.0415 48.0295H16.8872C16.536 48.0295 16.2516 47.7458 16.2515 47.3947V38.1125C16.2515 37.7613 16.5359 37.4767 16.8872 37.4767H24.0415ZM17.5229 46.759H23.4058V38.7482H17.5229V46.759Z" fill="white" stroke="white" stroke-width="0.5"/>
<path d="M35.4062 31.946L35.5352 31.9587C35.8247 32.0181 36.042 32.2746 36.042 32.5818V47.3943C36.042 47.7455 35.7575 48.03 35.4062 48.03H28.252C27.9007 48.03 27.6162 47.7456 27.6162 47.3943V32.5818C27.6162 32.2305 27.9007 31.946 28.252 31.946H35.4062ZM28.8857 46.7585H34.7695V33.2175H28.8857V46.7585Z" fill="#FFCC00" stroke="#FFCC00" stroke-width="0.5"/>
<path d="M46.771 25.3085C47.1223 25.3085 47.4067 25.593 47.4067 25.9442V47.3944C47.4067 47.7456 47.1223 48.0302 46.771 48.0302H39.6167C39.2654 48.0302 38.981 47.7456 38.981 47.3944V25.9442C38.981 25.593 39.2654 25.3085 39.6167 25.3085H46.771ZM40.2524 46.7587H46.1353V26.58H40.2524V46.7587Z" fill="white" stroke="white" stroke-width="0.5"/>
</svg>
