<svg width="60" height="60" viewBox="0 0 60 60" fill="none" xmlns="http://www.w3.org/2000/svg">
<rect width="60" height="60" rx="5" fill="#282573"/>
<path d="M37.6602 11.5817C38.0325 11.5817 38.334 11.8831 38.334 12.2555V17.0504C38.3338 17.4227 38.0324 17.7242 37.6602 17.7242C37.2881 17.724 36.9875 17.4225 36.9873 17.0504V12.9293H15.5469C14.8805 12.9294 14.2524 13.1892 13.7773 13.6627C13.3063 14.1341 13.047 14.7597 13.0469 15.4293V40.1705C13.0469 40.4544 12.8713 40.6962 12.623 40.7955V40.8463H12.373C12.0007 40.8463 11.6994 40.5448 11.6992 40.1725V15.4313C11.6992 14.4029 12.0995 13.4353 12.8262 12.7086V12.7076C13.5557 11.9817 14.5233 11.5818 15.5469 11.5817H37.6602Z" fill="white" stroke="white" stroke-width="0.5"/>
<path d="M22.8027 36.3235L22.9395 36.3372C23.2464 36.4001 23.4766 36.6716 23.4766 36.9973C23.4765 37.3697 23.1751 37.6711 22.8027 37.6711H15.0869C13.9619 37.6711 13.0469 38.5862 13.0469 39.7112V40.6321C13.047 41.757 13.962 42.6721 15.0869 42.6721H27.5283C27.9006 42.6723 28.2021 42.9737 28.2021 43.3459C28.2021 43.7182 27.9005 44.0196 27.5283 44.0198H15.0869C13.2189 44.0198 11.6993 42.5001 11.6992 40.6321V39.7112L11.7041 39.5374C11.7949 37.7497 13.2771 36.3235 15.0869 36.3235H22.8027Z" fill="white" stroke="white" stroke-width="0.5"/>
<path d="M30.1484 16.8619C30.5206 16.8622 30.8223 17.1635 30.8223 17.5358V21.152C30.8223 21.5242 30.5206 21.8256 30.1484 21.8258H19.8857C19.5133 21.8258 19.2119 21.5244 19.2119 21.152V17.5358L19.2256 17.4C19.2883 17.0928 19.5598 16.8619 19.8857 16.8619H30.1484ZM20.5576 20.4781H29.4727V18.2096H20.5576V20.4781Z" fill="#FFCC00" stroke="#FFCC00" stroke-width="0.5"/>
<path d="M34.4302 22.4194C35.7981 22.4194 36.9106 23.532 36.9106 24.8998V33.9301C36.9106 34.3025 36.6092 34.6039 36.2368 34.6039C35.8646 34.6038 35.563 34.3024 35.563 33.9301V24.8998C35.563 24.2751 35.0549 23.767 34.4302 23.767C33.8056 23.7673 33.2983 24.2752 33.2983 24.8998V39.3647C33.2983 39.6368 33.1343 39.8824 32.8843 39.9877C32.6318 40.094 32.3404 40.0347 32.1479 39.8422L28.2046 35.8989C27.7638 35.4581 27.0448 35.4582 26.604 35.8989C26.3897 36.1131 26.271 36.3973 26.271 36.6996C26.2711 37.0018 26.3898 37.2853 26.604 37.4995L33.7134 44.6088H33.7124C33.7675 44.6621 33.8088 44.7237 33.8394 44.7866H33.8403C34.7207 46.5564 36.487 47.6536 38.4536 47.6537H41.2466C44.0881 47.6535 46.4019 45.3407 46.4019 42.4975V27.5268C46.4017 26.9024 45.8945 26.3942 45.27 26.394C44.6454 26.394 44.1374 26.9022 44.1372 27.5268V33.9301C44.1372 34.3024 43.8356 34.6038 43.4634 34.6039C43.091 34.6039 42.7896 34.3025 42.7896 33.9301V27.5268C42.7897 26.1591 43.9022 25.0473 45.27 25.0473C46.6376 25.0475 47.7493 26.1592 47.7495 27.5268V42.4975C47.7495 46.0839 44.8329 49.0011 41.2466 49.0014H41.1431L41.1411 48.9995H38.4526C36.0097 48.9995 33.8107 47.6562 32.6851 45.4887L25.6489 38.4516C24.6821 37.4848 24.6821 35.9106 25.6489 34.9438C26.6158 33.9771 28.1875 33.9774 29.1558 34.9438H29.1567L31.9507 37.7377V24.8998C31.9507 23.5321 33.0625 22.4196 34.4302 22.4194Z" fill="white" stroke="white" stroke-width="0.5"/>
<path d="M38.042 19.1635C39.4098 19.1635 40.5225 20.2761 40.5225 21.6439V33.9301C40.5225 34.3024 40.2209 34.6037 39.8486 34.6039C39.4762 34.6039 39.1748 34.3025 39.1748 33.9301V21.6439C39.1748 21.0192 38.6667 20.5112 38.042 20.5111C37.4172 20.5111 36.9092 21.0192 36.9092 21.6439V33.9301C36.9092 34.3024 36.6077 34.6039 36.2354 34.6039C35.863 34.6039 35.5615 34.3025 35.5615 33.9301V21.6439L35.5742 21.39C35.7016 20.1409 36.7597 19.1635 38.042 19.1635Z" fill="white" stroke="white" stroke-width="0.5"/>
<path d="M41.6553 21.1428C43.0231 21.1429 44.1357 22.2555 44.1357 23.6233V33.9299C44.1357 34.3022 43.8342 34.6036 43.4619 34.6038C43.0895 34.6038 42.7881 34.3023 42.7881 33.9299V23.6233C42.7881 22.9986 42.2799 22.4906 41.6553 22.4905C41.0305 22.4905 40.5225 22.9985 40.5225 23.6233V33.9299C40.5225 34.3023 40.221 34.6037 39.8486 34.6038C39.4762 34.6038 39.1748 34.3023 39.1748 33.9299V23.6233C39.1748 22.2554 40.2874 21.1428 41.6553 21.1428Z" fill="white" stroke="white" stroke-width="0.5"/>
</svg>
