<svg width="60" height="60" viewBox="0 0 60 60" fill="none" xmlns="http://www.w3.org/2000/svg">
<rect width="60" height="60" rx="5" fill="#282573"/>
<path d="M42.8643 12.2505C44.9137 12.2505 46.582 13.9172 46.582 15.9683V35.2124C46.582 37.1794 45.0477 38.7915 43.1143 38.9204V38.9321H35.8643C35.5131 38.9321 35.2285 38.6475 35.2285 38.2964C35.2286 37.9454 35.5132 37.6616 35.8643 37.6616H42.8643C44.213 37.6616 45.3114 36.563 45.3115 35.2144V15.9683C45.3115 14.6195 44.213 13.521 42.8643 13.521H17.5986C16.2499 13.521 15.1514 14.6195 15.1514 15.9683V35.2124C15.1514 36.5612 16.2499 37.6597 17.5986 37.6597H24.5977C24.9488 37.6597 25.2334 37.9443 25.2334 38.2954C25.2332 38.6464 24.9487 38.9302 24.5977 38.9302H17.5986C15.5492 38.9302 13.8809 37.2635 13.8809 35.2124V15.9683C13.8809 13.9172 15.5492 12.2505 17.5986 12.2505H42.8643Z" fill="white" stroke="white" stroke-width="0.5"/>
<path d="M33.7896 16.5093C34.1405 16.5095 34.4243 16.7941 34.4243 17.1451C34.4241 17.4959 34.1404 17.7796 33.7896 17.7798H26.6772C26.3263 17.7798 26.0417 17.496 26.0415 17.1451C26.0415 16.794 26.3261 16.5093 26.6772 16.5093H33.7896Z" fill="#FFCC00" stroke="#FFCC00" stroke-width="0.5"/>
<path d="M41.582 23.3163C41.9331 23.3163 42.2178 23.6009 42.2178 23.952C42.2175 24.303 41.933 24.5868 41.582 24.5868H18.8857C18.5348 24.5868 18.2502 24.303 18.25 23.952C18.25 23.6009 18.5346 23.3163 18.8857 23.3163H41.582Z" fill="#FFCC00" stroke="#FFCC00" stroke-width="0.5"/>
<path d="M41.5811 29.1778C41.9322 29.1778 42.2168 29.4624 42.2168 29.8135C42.2166 30.1645 41.932 30.4483 41.5811 30.4483H35.0283C34.6773 30.4483 34.3928 30.1645 34.3926 29.8135C34.3926 29.4624 34.6772 29.1778 35.0283 29.1778H41.5811Z" fill="white" stroke="white" stroke-width="0.5"/>
<path d="M25.4385 29.1778C25.7896 29.1778 26.0742 29.4624 26.0742 29.8135C26.074 30.1645 25.7895 30.4483 25.4385 30.4483H18.8857C18.5348 30.4483 18.2502 30.1645 18.25 29.8135C18.25 29.4624 18.5346 29.1778 18.8857 29.1778H25.4385Z" fill="#FFCC00" stroke="#FFCC00" stroke-width="0.5"/>
<path d="M30.2334 41.242C32.8822 41.242 35.2958 41.8811 37.0557 42.9256C38.8099 43.9668 39.9559 45.4401 39.9561 47.1141C39.9561 47.4652 39.6714 47.7498 39.3203 47.7498C38.9693 47.7497 38.6855 47.4651 38.6855 47.1141C38.6853 45.908 37.802 44.7619 36.2617 43.9031C34.7298 43.0492 32.598 42.5125 30.2334 42.5125C27.8685 42.5125 25.7361 43.0498 24.2041 43.9041C22.664 44.7631 21.7815 45.9089 21.7812 47.1141C21.7812 47.4651 21.4974 47.7496 21.1465 47.7498C20.7954 47.7498 20.5107 47.4652 20.5107 47.1141C20.5109 45.4402 21.6561 43.9668 23.4102 42.9256C25.1701 41.881 27.5844 41.242 30.2334 41.242Z" fill="white" stroke="white" stroke-width="0.5"/>
<path d="M30.2334 29.7476C32.8932 29.7478 35.0556 31.9116 35.0557 34.5698C35.0557 37.2282 32.8917 39.3919 30.2334 39.3921C27.5735 39.3921 25.4092 37.2283 25.4092 34.5698C25.4092 31.9114 27.5735 29.7476 30.2334 29.7476ZM30.2334 31.0171C28.2741 31.0171 26.6797 32.6112 26.6797 34.5688C26.6799 36.5263 28.2743 38.1196 30.2334 38.1196C32.1922 38.1194 33.7849 36.5263 33.7852 34.5688C33.7852 32.6113 32.1909 31.0173 30.2334 31.0171Z" fill="white" stroke="white" stroke-width="0.5"/>
</svg>
