<svg width="60" height="60" viewBox="0 0 60 60" fill="none" xmlns="http://www.w3.org/2000/svg">
<rect width="60" height="60" rx="5" fill="#282573"/>
<path d="M29.9983 16.3061C35.5726 16.3062 40.545 19.6369 42.6643 24.7905H42.6633C42.7824 25.0785 42.6421 25.4042 42.3586 25.5219L42.3577 25.5229C42.2888 25.5509 42.2171 25.5636 42.1477 25.5639V25.5649H42.1448V25.5639C41.925 25.5629 41.7184 25.4316 41.6292 25.2182L41.6282 25.2172C39.6823 20.4852 35.1188 17.4282 29.9993 17.4282C27.1345 17.4282 24.3323 18.418 22.1096 20.2153L22.1086 20.2143C21.8659 20.4102 21.5146 20.3689 21.3206 20.1313C21.1252 19.8897 21.1633 19.5374 21.4045 19.3422C23.8261 17.3839 26.878 16.3061 29.9983 16.3061Z" fill="white" stroke="white" stroke-width="0.5"/>
<path d="M26.1074 20.4177C27.9787 19.6683 30.0264 19.4786 32.0293 19.8679C32.5331 19.9664 33.0353 20.1007 33.5186 20.2693H33.5176C33.8116 20.371 33.9638 20.6921 33.8633 20.9832C33.7616 21.2772 33.4405 21.4305 33.1494 21.3298L33.1484 21.3289C32.7163 21.1781 32.2668 21.0574 31.8154 20.9695C30.0225 20.6214 28.1927 20.7905 26.5244 21.4597L26.5225 21.4607C26.4567 21.4862 26.3868 21.4997 26.3164 21.4998C26.0944 21.4998 25.883 21.366 25.7949 21.1482V21.1462C25.681 20.8591 25.8191 20.534 26.1064 20.4177H26.1074Z" fill="white" stroke="white" stroke-width="0.5"/>
<path d="M35.2273 21.6718C35.4026 21.4176 35.7508 21.3517 36.0076 21.5273C36.7942 22.0654 37.5031 22.7087 38.116 23.4364C38.3154 23.6734 38.2859 24.0275 38.0476 24.2265C37.9757 24.2864 37.8916 24.3249 37.8044 24.3437L37.7898 24.3593H37.6863C37.5266 24.3593 37.3672 24.2908 37.2566 24.1581V24.1591C36.7093 23.5085 36.0755 22.9338 35.3728 22.453L35.3718 22.4521C35.1177 22.2767 35.0517 21.9295 35.2273 21.6728V21.6718Z" fill="white" stroke="white" stroke-width="0.5"/>
<path d="M17.646 34.4939C17.8968 34.3897 18.1797 34.4813 18.3257 34.697L18.3794 34.7966V34.7976C20.3302 39.5202 24.8909 42.571 29.9995 42.571C32.4941 42.571 34.9015 41.8429 36.9614 40.4666H36.9624C37.1873 40.3167 37.4806 40.3505 37.6665 40.533L37.7397 40.6199L37.7407 40.6208C37.9121 40.878 37.8429 41.225 37.5864 41.3982L37.5854 41.3992C35.4081 42.8531 32.8773 43.6391 30.2495 43.6863V43.6931H29.9995C24.6099 43.6931 19.7783 40.5731 17.5503 35.7029L17.3433 35.2263C17.2244 34.9398 17.361 34.6125 17.646 34.4939Z" fill="white" stroke="white" stroke-width="0.5"/>
<path d="M21.6023 35.7619C21.8201 35.6022 22.1155 35.6233 22.3093 35.797L22.3855 35.88L22.3865 35.881C23.7934 37.7937 25.8579 39.0978 28.2039 39.5529H28.2048C29.6741 39.8391 31.2029 39.7731 32.6248 39.3625C32.9214 39.2769 33.2331 39.4476 33.3191 39.7453C33.4046 40.0419 33.2339 40.3536 32.9363 40.4396C32.0262 40.7024 31.0771 40.8385 30.1248 40.8478L30.1228 40.8507H30.0193C29.3404 40.8507 28.6602 40.7862 27.99 40.6564V40.6554C25.3689 40.1462 23.0555 38.6873 21.4822 36.547C21.2995 36.2982 21.3526 35.9471 21.6003 35.7628L21.6023 35.7619Z" fill="white" stroke="white" stroke-width="0.5"/>
<path d="M18.2854 20.1725C20.0349 20.1725 21.4581 21.5959 21.4583 23.3453C21.4583 25.0949 20.035 26.5182 18.2854 26.5182C16.536 26.5181 15.1125 25.0948 15.1125 23.3453C15.1127 21.596 16.536 20.1726 18.2854 20.1725ZM18.2854 21.2926C17.1546 21.2927 16.2346 22.2136 16.2346 23.3444C16.2346 24.4752 17.1546 25.396 18.2854 25.3961C19.4163 25.3961 20.3372 24.4752 20.3372 23.3444C20.3372 22.2135 19.4163 21.2926 18.2854 21.2926Z" fill="#FFCC00" stroke="#FFCC00" stroke-width="0.5"/>
<path d="M18.2861 27.5071C19.9344 27.5071 21.4181 27.7966 22.499 28.2825C23.5593 28.7591 24.3232 29.4716 24.3232 30.3586C24.3231 31.2455 23.5592 31.9573 22.499 32.4338C21.4181 32.9197 19.9344 33.2092 18.2861 33.2092C16.6381 33.2092 15.1551 32.9196 14.0742 32.4338C13.014 31.9573 12.2502 31.2455 12.25 30.3586C12.25 29.4716 13.0139 28.7591 14.0742 28.2825C15.155 27.7967 16.6382 27.5071 18.2861 27.5071ZM18.2861 28.6301C16.7905 28.6302 15.5328 28.8864 14.6582 29.2493C14.2201 29.4311 13.8886 29.6354 13.6709 29.8381C13.4503 30.0436 13.3721 30.223 13.3721 30.3596C13.3721 30.4962 13.4503 30.6757 13.6709 30.8811C13.8886 31.0838 14.2201 31.2882 14.6582 31.47C15.5328 31.8328 16.7905 32.0891 18.2861 32.0891C19.7817 32.0891 21.0395 31.8328 21.9141 31.47C22.3522 31.2882 22.6846 31.0838 22.9023 30.8811C23.1228 30.6757 23.2012 30.4962 23.2012 30.3596C23.2012 30.223 23.1228 30.0435 22.9023 29.8381C22.6846 29.6354 22.3522 29.4311 21.9141 29.2493C21.0395 28.8865 19.7817 28.6301 18.2861 28.6301Z" fill="#FFCC00" stroke="#FFCC00" stroke-width="0.5"/>
<path d="M41.7131 26.7914C43.4626 26.7914 44.8859 28.2148 44.886 29.9642C44.886 31.7138 43.4627 33.1371 41.7131 33.1371C39.9637 33.1369 38.5403 31.7137 38.5403 29.9642C38.5404 28.2148 39.9638 26.7915 41.7131 26.7914ZM41.7131 27.9134C40.5824 27.9136 39.6625 28.8335 39.6624 29.9642C39.6624 31.095 40.5824 32.0158 41.7131 32.016C42.844 32.016 43.7649 31.0951 43.7649 29.9642C43.7648 28.8334 42.8439 27.9134 41.7131 27.9134Z" fill="#FFCC00" stroke="#FFCC00" stroke-width="0.5"/>
<path d="M41.7139 34.1267C43.3621 34.1267 44.8458 34.4162 45.9268 34.9021C46.9871 35.3787 47.751 36.0913 47.751 36.9783C47.7508 37.8651 46.9869 38.5769 45.9268 39.0535C44.8458 39.5393 43.3621 39.8289 41.7139 39.8289C40.0658 39.8288 38.5828 39.5393 37.502 39.0535C36.4418 38.5769 35.6779 37.8651 35.6777 36.9783C35.6777 36.0913 36.4416 35.3787 37.502 34.9021C38.5828 34.4163 40.0659 34.1267 41.7139 34.1267ZM41.7139 35.2498C40.2182 35.2498 38.9605 35.506 38.0859 35.8689C37.6478 36.0507 37.3163 36.255 37.0986 36.4578C36.878 36.6632 36.7998 36.8426 36.7998 36.9792C36.7998 37.1159 36.878 37.2953 37.0986 37.5007C37.3163 37.7035 37.6478 37.9078 38.0859 38.0896C38.9605 38.4525 40.2182 38.7087 41.7139 38.7087C43.2094 38.7087 44.4672 38.4524 45.3418 38.0896C45.78 37.9078 46.1124 37.7035 46.3301 37.5007C46.5506 37.2953 46.6289 37.1158 46.6289 36.9792C46.6289 36.8427 46.5506 36.6632 46.3301 36.4578C46.1124 36.255 45.78 36.0507 45.3418 35.8689C44.4672 35.5061 43.2094 35.2498 41.7139 35.2498Z" fill="#FFCC00" stroke="#FFCC00" stroke-width="0.5"/>
</svg>
