<svg width="60" height="60" viewBox="0 0 60 60" fill="none" xmlns="http://www.w3.org/2000/svg">
<rect width="60" height="60" rx="5" fill="#282573"/>
<path d="M18.3066 13.9591C18.6387 13.9591 18.908 14.2277 18.9082 14.5597C18.9082 14.8919 18.6388 15.1613 18.3066 15.1613H15.9521V30.4836H26.1719C26.5039 30.4837 26.7723 30.7521 26.7725 31.0841C26.7725 31.2268 26.8794 31.4098 27.1543 31.5714C27.4208 31.7281 27.8008 31.8341 28.2227 31.8341C28.6448 31.8341 29.0249 31.7289 29.291 31.5724C29.5652 31.4112 29.6719 31.2278 29.6719 31.0841C29.672 30.7522 29.9405 30.4837 30.2725 30.4836H40.4922V15.1613H38.3154C37.9832 15.1613 37.7139 14.8919 37.7139 14.5597C37.7141 14.2278 37.9834 13.9591 38.3154 13.9591H41.0938C41.4257 13.9593 41.6941 14.2279 41.6943 14.5597V31.0841C41.6943 31.4162 41.4258 31.6855 41.0938 31.6857H30.75C30.4017 32.5128 29.3752 33.0348 28.2246 33.0353V33.0363H28.2227V33.0353C27.071 33.0348 26.0428 32.513 25.6943 31.6857H15.3506C15.0186 31.6854 14.75 31.4162 14.75 31.0841V14.5597C14.7502 14.2279 15.0188 13.9594 15.3506 13.9591H18.3066Z" fill="white" stroke="white" stroke-width="0.5"/>
<path d="M25.7432 12.2492C27.4905 12.2492 28.9131 13.6703 28.9131 15.4191V28.2453C28.9131 28.5775 28.6437 28.8469 28.3115 28.8469H18.3086C17.9766 28.8466 17.708 28.5773 17.708 28.2453V12.8498C17.7083 12.518 17.9768 12.2495 18.3086 12.2492H25.7432ZM18.9102 27.6447H27.7109V15.4191C27.7109 14.3347 26.8275 13.4514 25.7432 13.4514H18.9102V27.6447Z" fill="white" stroke="white" stroke-width="0.5"/>
<path d="M38.3154 12.2489C38.6475 12.2489 38.9167 12.5175 38.917 12.8495V28.245C38.917 28.5772 38.6476 28.8466 38.3154 28.8466H28.3096C27.9776 28.8463 27.709 28.577 27.709 28.245V15.4188C27.709 13.6715 29.1301 12.2489 30.8789 12.2489H38.3154ZM30.8789 13.451C29.7945 13.451 28.9111 14.3344 28.9111 15.4188V27.6444H37.7148V13.451H30.8789Z" fill="white" stroke="white" stroke-width="0.5"/>
<path d="M46.5488 26.3833C46.8807 26.3835 47.1492 26.652 47.1494 26.9839V34.9321C47.1493 35.2641 46.8808 35.5325 46.5488 35.5327H30.9902V37.063C30.9902 37.3951 30.7209 37.6636 30.3887 37.6636C30.0567 37.6633 29.7881 37.395 29.7881 37.063V34.9321C29.7881 34.6001 30.0567 34.3308 30.3887 34.3306H45.9473V27.5854H43.8477C43.5155 27.5854 43.2461 27.3161 43.2461 26.9839C43.2463 26.6519 43.5156 26.3833 43.8477 26.3833H46.5488Z" fill="white" stroke="white" stroke-width="0.5"/>
<path d="M30.3896 36.9241C32.3185 36.9243 33.8867 38.4926 33.8867 40.4202V42.9797C33.8866 44.9073 32.3184 46.4756 30.3896 46.4758C28.4621 46.4758 26.8917 44.9075 26.8916 42.9797V40.4202C26.8917 38.4924 28.4606 36.9241 30.3896 36.9241ZM30.3896 38.1252C29.1247 38.1252 28.0938 39.1546 28.0938 40.4192V42.9778C28.0938 44.2426 29.1236 45.2737 30.3896 45.2737C31.6556 45.2734 32.6846 44.2438 32.6846 42.9778V40.4192C32.6846 39.1547 31.6557 38.1255 30.3896 38.1252Z" fill="#FFCC00" stroke="#FFCC00" stroke-width="0.5"/>
<path d="M30.3887 39.0844C30.7207 39.0844 30.99 39.353 30.9902 39.685V40.5873C30.9901 40.9194 30.7208 41.1879 30.3887 41.1879C30.0568 41.1877 29.7882 40.9193 29.7881 40.5873V39.685C29.7883 39.3532 30.0569 39.0847 30.3887 39.0844Z" fill="#FFCC00" stroke="#FFCC00" stroke-width="0.5"/>
</svg>
