<svg width="60" height="60" viewBox="0 0 60 60" fill="none" xmlns="http://www.w3.org/2000/svg">
<rect width="60" height="60" rx="5" fill="#282573"/>
<path d="M16.6338 25.8554L16.7666 25.869C17.0663 25.9305 17.291 26.1956 17.291 26.5136C17.2909 26.877 16.9972 27.1706 16.6338 27.1708H13.5508V46.4345H40.6709V33.6415C40.671 33.278 40.9655 32.9843 41.3291 32.9843C41.6925 32.9845 41.9862 33.2781 41.9863 33.6415V47.0927C41.9861 47.456 41.6924 47.7497 41.3291 47.7499H12.8936C12.53 47.7499 12.2355 47.4562 12.2354 47.0927V26.5136C12.2354 26.1499 12.5299 25.8554 12.8936 25.8554H16.6338Z" fill="white" stroke="white" stroke-width="0.5"/>
<path d="M21.5376 22.6205C21.8442 22.6231 22.1153 22.84 22.1763 23.1518C22.2459 23.5077 22.014 23.8534 21.6577 23.9232C20.4501 24.1596 18.9981 24.4004 17.2876 24.4516V43.7133C19.2776 43.648 20.9555 43.3068 22.3472 43.0199H22.3481C23.4036 42.8026 24.3671 42.603 25.189 42.6088C25.9303 42.614 26.5856 42.7874 27.1069 43.2797C27.6284 42.7875 28.2852 42.6152 29.0269 42.6098C29.8487 42.6038 30.8121 42.8026 31.8677 43.0199C33.2581 43.3069 34.9379 43.6493 36.9282 43.7133V33.641C36.9283 33.2775 37.2228 32.9828 37.5864 32.9828C37.9498 32.983 38.2435 33.2776 38.2437 33.641V44.3871C38.2434 44.7501 37.9503 45.0426 37.5874 45.0434V45.0443H37.5864V45.0434C35.1675 45.0432 33.183 44.6347 31.604 44.31C30.3588 44.0532 29.4997 43.8922 28.8784 43.9311C28.5756 43.95 28.3472 44.0161 28.1655 44.1303C27.9851 44.2437 27.8312 44.4171 27.6978 44.683L27.6968 44.682C27.5859 44.9037 27.3594 45.0463 27.1089 45.0463C26.8602 45.0461 26.6325 44.907 26.521 44.682C26.3876 44.4165 26.2335 44.2436 26.0532 44.1303C25.8716 44.0161 25.6432 43.95 25.3403 43.9311C24.8744 43.9019 24.2749 43.9853 23.479 44.1371L21.355 44.5619C20.0172 44.8142 18.446 45.0443 16.6313 45.0443C16.2679 45.0443 15.9734 44.7506 15.9731 44.3871V23.808C15.9731 23.4444 16.2677 23.1498 16.6313 23.1498C18.5131 23.1498 20.0964 22.8895 21.4048 22.6332L21.5376 22.6205Z" fill="white" stroke="white" stroke-width="0.5"/>
<path d="M27.1099 32.9226C27.4734 32.9228 27.7671 33.2173 27.7671 33.5808V40.8094C27.7671 41.1729 27.4734 41.4674 27.1099 41.4676C26.7462 41.4676 26.4517 41.173 26.4517 40.8094V33.5808C26.4517 33.2172 26.7462 32.9226 27.1099 32.9226Z" fill="white" stroke="white" stroke-width="0.5"/>
<path d="M43.5791 12.2497L43.7949 12.2556C46.004 12.3681 47.7646 14.2002 47.7646 16.4352V27.1745C47.7644 29.4833 45.8862 31.3591 43.5791 31.3591H35.6699L31.6113 35.4186C31.4857 35.5443 31.3176 35.6119 31.1465 35.612C31.063 35.612 30.9778 35.5966 30.8955 35.5632L30.8945 35.5622C30.6476 35.4608 30.4883 35.2202 30.4883 34.9538V31.3591H27.998C25.6892 31.3591 23.8127 29.4816 23.8125 27.1745V16.4352C23.8125 14.1263 25.6908 12.2497 27.998 12.2497H43.5791ZM28.248 13.5651H27.998C26.4164 13.5651 25.1279 14.8536 25.1279 16.4352V27.1745C25.1281 28.756 26.4165 30.0436 27.998 30.0436H31.1465C31.51 30.0438 31.8037 30.3383 31.8037 30.7018V33.3649L34.9336 30.235C35.0568 30.1119 35.2244 30.0417 35.3984 30.0417H43.5791C45.1607 30.0417 46.4492 28.7542 46.4492 27.1725V16.4333C46.4491 14.8517 45.1607 13.5641 43.5791 13.5641H28.248V13.5651Z" fill="white" stroke="white" stroke-width="0.5"/>
<path d="M36.3994 19.4815C36.7509 19.5746 36.9585 19.9337 36.8691 20.2843L36.8682 20.2862L35.1641 26.7511L35.165 26.752C35.0876 27.0465 34.8213 27.2432 34.5293 27.2433C34.4707 27.2433 34.4181 27.2346 34.3701 27.2237L34.3613 27.2218C34.0098 27.1287 33.802 26.7698 33.8916 26.419L33.8926 26.4171L35.5957 19.9513L35.6426 19.8263C35.7779 19.5529 36.0908 19.3998 36.3994 19.4815Z" fill="#FFCC00" stroke="#FFCC00" stroke-width="0.5"/>
<path d="M37.2192 16.3851C37.5705 16.4782 37.7793 16.837 37.687 17.1888L37.5601 17.6703C37.4826 17.9646 37.2172 18.1604 36.9253 18.1605H36.9233C36.8656 18.1605 36.8071 18.1533 36.7505 18.1371V18.1361C36.4023 18.041 36.1959 17.6844 36.2876 17.3344L36.4146 16.8529V16.8519C36.5076 16.5003 36.8688 16.2924 37.2192 16.3851Z" fill="#FFCC00" stroke="#FFCC00" stroke-width="0.5"/>
</svg>
