<svg width="60" height="60" viewBox="0 0 60 60" fill="none" xmlns="http://www.w3.org/2000/svg">
<rect width="60" height="60" rx="5" fill="#282573"/>
<path d="M20.7588 18.5241C21.0993 18.5241 21.375 18.7998 21.375 19.1403C21.375 19.4809 21.0993 19.7565 20.7588 19.7565H15.9814V45.3708H37.0107L44.0156 38.363V19.7565H39.2383C38.8978 19.7564 38.6221 19.4808 38.6221 19.1403C38.6221 18.7999 38.8978 18.5243 39.2383 18.5241H44.6318C44.9724 18.5241 45.248 18.7998 45.248 19.1403V38.6188C45.248 38.7838 45.1822 38.9385 45.0674 39.0534L37.7002 46.4235C37.5848 46.5389 37.4278 46.6042 37.2646 46.6042H37.0146V46.6032H15.3652C15.0247 46.6032 14.7491 46.3275 14.749 45.987V19.1403C14.7491 18.7998 15.0247 18.5241 15.3652 18.5241H20.7588Z" fill="white" stroke="white" stroke-width="0.5"/>
<path d="M30.7661 13.3938C32.2517 13.3938 33.4855 14.4793 33.7202 15.8987H35.9028C36.7359 15.8988 37.4133 16.5764 37.4136 17.4094V19.9524C37.4135 20.7855 36.7359 21.4631 35.9028 21.4631H24.0942C23.2612 21.4629 22.5836 20.7854 22.5835 19.9524V17.4094L22.5913 17.2551C22.669 16.4944 23.3134 15.8989 24.0942 15.8987H26.2769C26.5105 14.479 27.7456 13.3938 29.231 13.3938H30.7661ZM29.231 14.6252C28.2601 14.6252 27.4684 15.415 27.4683 16.387V16.5149C27.4683 16.8555 27.1926 17.1311 26.8521 17.1311H24.0962L24.0396 17.137C23.9131 17.1631 23.8181 17.2754 23.8179 17.4094V19.9524C23.818 20.1058 23.9428 20.2307 24.0962 20.2307H35.9028C36.0562 20.2306 36.181 20.1058 36.1812 19.9524V17.4094C36.1809 17.2562 36.0561 17.1312 35.9028 17.1311H33.145C32.8044 17.1311 32.5288 16.8555 32.5288 16.5149V16.387C32.5287 15.4162 31.7381 14.6252 30.7661 14.6252H29.231Z" fill="white" stroke="white" stroke-width="0.5"/>
<path d="M44.6328 38.0023C44.8817 38.0023 45.1059 38.1525 45.2021 38.3812C45.2992 38.6121 45.2453 38.8781 45.0693 39.054L37.7021 46.4222C37.5846 46.5397 37.4279 46.6027 37.2676 46.6028H37.2656C37.1876 46.6028 37.1082 46.5891 37.0312 46.5579L37.0303 46.5569C36.7988 46.4619 36.6494 46.2361 36.6494 45.9866V38.6185C36.6494 38.2779 36.9251 38.0023 37.2656 38.0023H44.6328ZM37.8818 44.4993L43.1445 39.2347H37.8818V44.4993Z" fill="white" stroke="white" stroke-width="0.5"/>
<path d="M29.999 25.7034C32.1231 25.7036 33.8799 27.3224 33.8799 29.3489C33.8799 30.6305 33.1502 31.8238 31.9893 32.4778C30.5661 33.3781 30.5918 34.7139 30.6104 35.5032V35.5052C30.6118 35.5814 30.6133 35.6545 30.6133 35.7191C30.6133 36.0596 30.3377 36.3353 29.9971 36.3353H29.3945L29.5693 36.1595C29.4542 36.0476 29.3829 35.8914 29.3828 35.7181L29.3799 35.5306C29.3611 34.7245 29.3086 32.7115 31.3535 31.4222L31.3643 31.4153C32.1691 30.9641 32.6475 30.1722 32.6475 29.3489C32.6475 28.0387 31.4798 26.936 29.999 26.9359C28.518 26.9359 27.3486 28.0387 27.3486 29.3489C27.3486 29.6895 27.073 29.9651 26.7324 29.9651C26.3919 29.9651 26.1162 29.6895 26.1162 29.3489C26.1162 27.3237 27.8749 25.7034 29.999 25.7034Z" fill="#FFCC00" stroke="#FFCC00" stroke-width="0.5"/>
<path d="M30 37.6989C30.3406 37.6989 30.6162 37.9746 30.6162 38.3151V38.8122C30.6162 39.1528 30.3406 39.4284 30 39.4284C29.6594 39.4284 29.3838 39.1527 29.3838 38.8122V38.3151C29.3838 37.9746 29.6594 37.6989 30 37.6989Z" fill="#FFCC00" stroke="#FFCC00" stroke-width="0.5"/>
</svg>
