<svg width="60" height="60" viewBox="0 0 60 60" fill="none" xmlns="http://www.w3.org/2000/svg">
<rect width="60" height="60" rx="5" fill="#282573"/>
<path d="M45.459 20.2958C45.809 20.296 46.0928 20.5795 46.0928 20.9296V44.6161C46.0926 44.966 45.8089 45.2497 45.459 45.2499H14.54C14.1899 45.2499 13.9064 44.9661 13.9062 44.6161V20.9296C13.9062 20.5794 14.1898 20.2958 14.54 20.2958C14.8902 20.2959 15.1738 20.5794 15.1738 20.9296V43.9823H44.8252V20.9296C44.8252 20.5794 45.1087 20.2958 45.459 20.2958Z" fill="white" stroke="white" stroke-width="0.5"/>
<path d="M24.1338 15.0436C25.5235 14.6973 26.9583 14.5868 28.1885 15.1022C28.9225 15.4103 29.5276 15.9181 29.999 16.6081C30.4696 15.9179 31.0752 15.4103 31.8105 15.1022C33.0399 14.5876 34.4744 14.6985 35.8643 15.0446C36.9092 15.3049 37.9517 15.7047 38.8945 16.0964L39.8008 16.4802L40.5703 16.8063C40.8169 16.9088 41.052 17.0026 41.2686 17.0827C41.7131 17.2472 42.0411 17.3366 42.2285 17.3366C42.5787 17.3366 42.8623 17.6202 42.8623 17.9704V41.6569C42.8622 42.007 42.5786 42.2907 42.2285 42.2907C41.8656 42.2907 41.4308 42.1742 40.9521 42.0036C40.4689 41.8314 39.9125 41.5933 39.3018 41.3317C38.2049 40.8625 36.9259 40.3164 35.6729 39.9899C34.4138 39.662 33.2285 39.5688 32.2988 39.9567C31.5421 40.2736 30.9798 40.8905 30.5889 41.8864C30.494 42.1301 30.2593 42.2888 29.999 42.2888C29.7389 42.2886 29.505 42.1299 29.4102 41.8864L29.2559 41.53C28.8758 40.7394 28.361 40.2327 27.7002 39.9567C26.7714 39.568 25.5863 39.6608 24.3271 39.989C23.0741 40.3156 21.795 40.8625 20.6973 41.3317C20.0866 41.5925 19.5301 41.8302 19.0469 42.0026C18.5683 42.1733 18.1335 42.2907 17.7705 42.2907C17.4204 42.2907 17.1368 42.007 17.1367 41.6569V17.9704L17.1494 17.8454C17.174 17.7234 17.2346 17.6118 17.3232 17.5231C17.4419 17.4045 17.6028 17.3366 17.7705 17.3366C17.9579 17.3366 18.286 17.2471 18.7305 17.0827C19.1636 16.9225 19.67 16.7065 20.1982 16.4802C21.352 15.9865 22.7407 15.3908 24.1338 15.0436ZM35.6729 16.3044C34.4921 15.9968 33.3759 15.8963 32.4756 16.2048L32.2988 16.2722C31.5421 16.5891 30.9798 17.2059 30.5889 18.2018C30.4939 18.4454 30.2592 18.6042 29.999 18.6042C29.739 18.604 29.5051 18.4452 29.4102 18.2018L29.2559 17.8454C28.8758 17.0548 28.361 16.5482 27.7002 16.2722C26.7713 15.8842 25.5863 15.9764 24.3271 16.3044C23.0742 16.6308 21.7949 17.177 20.6973 17.6462C19.8094 18.0254 19.025 18.3612 18.4043 18.5143V40.8835C18.8896 40.7257 19.5215 40.4572 20.1982 40.1677L21.1045 39.7839C22.047 39.3925 23.0892 38.9926 24.1338 38.7321C25.5235 38.3856 26.9583 38.2743 28.1885 38.7897C28.9227 39.0978 29.5276 39.6063 29.999 40.2966C30.4696 39.6061 31.075 39.0978 31.8105 38.7897C33.0399 38.2743 34.4744 38.3858 35.8643 38.7321C37.2576 39.0793 38.6469 39.674 39.8008 40.1677C40.4775 40.4572 41.1094 40.7257 41.5947 40.8835V18.5143C41.1467 18.4038 40.6134 18.1987 40.0176 17.9499L39.3018 17.6462C38.205 17.177 36.926 16.6308 35.6729 16.3044Z" fill="white" stroke="white" stroke-width="0.5"/>
<path d="M30.0005 19.9977C30.3506 19.9978 30.6343 20.2813 30.6343 20.6315V37.7076C30.6343 38.0578 30.3506 38.3413 30.0005 38.3414C29.6502 38.3414 29.3667 38.0578 29.3667 37.7076V20.6315C29.3667 20.2813 29.6503 19.9977 30.0005 19.9977Z" fill="white" stroke="white" stroke-width="0.5"/>
<path d="M26.6113 23.071C26.9611 23.0299 27.2746 23.2966 27.3066 23.6414C27.3349 23.946 27.142 24.2199 26.8604 24.3054L26.7344 24.3298C25.1688 24.4747 23.2554 25.1074 20.6982 26.3425L20.6963 26.3435C20.6079 26.3852 20.5135 26.405 20.4219 26.405C20.1871 26.4049 19.9611 26.2732 19.8516 26.0466H19.8506C19.6993 25.7317 19.8307 25.3528 20.1465 25.2009C22.8047 23.9171 24.8643 23.2341 26.6113 23.071Z" fill="#FFCC00" stroke="#FFCC00" stroke-width="0.5"/>
<path d="M26.6113 29.8658C26.9611 29.8247 27.2746 30.0914 27.3066 30.4362C27.339 30.7844 27.0824 31.0923 26.7344 31.1246C25.1671 31.271 23.2536 31.9024 20.6982 33.1373L20.6963 33.1383C20.6885 33.142 20.6798 33.1437 20.6719 33.1471V33.2008H20.4219C20.1872 33.2007 19.9612 33.0697 19.8516 32.8434L19.8506 32.8424C19.6992 32.5269 19.8316 32.15 20.1455 31.9967L20.1465 31.9957C22.8046 30.7135 24.8627 30.0289 26.6113 29.8658Z" fill="#FFCC00" stroke="#FFCC00" stroke-width="0.5"/>
<path d="M33.3877 23.0701L33.3867 23.071C35.1339 23.2339 37.1937 23.9168 39.8525 25.2009L39.9619 25.2683C40.1967 25.4469 40.2812 25.7719 40.1484 26.0466C40.0388 26.2733 39.8121 26.405 39.5771 26.405C39.4856 26.405 39.3919 26.3851 39.3037 26.3435L39.3018 26.3425C36.7461 25.1089 34.8319 24.4762 33.2646 24.3298C32.9169 24.2973 32.661 23.9894 32.6934 23.6414C32.7253 23.2981 33.0325 23.0292 33.3877 23.0701Z" fill="#FFCC00" stroke="#FFCC00" stroke-width="0.5"/>
<path d="M33.3877 29.8665L33.3867 29.8675C35.1355 30.0303 37.1939 30.7149 39.8525 31.9974L39.9619 32.0648C40.1971 32.2436 40.2806 32.5688 40.1484 32.8441V32.845C40.0388 33.0716 39.812 33.2025 39.5771 33.2025H39.3271V33.1487C39.3195 33.1455 39.3113 33.1435 39.3037 33.14L39.3018 33.139C36.7461 31.9054 34.8319 31.2726 33.2646 31.1263C32.9169 31.0938 32.661 30.7859 32.6934 30.4378C32.7253 30.0945 33.0325 29.8256 33.3877 29.8665Z" fill="#FFCC00" stroke="#FFCC00" stroke-width="0.5"/>
</svg>
