<svg width="60" height="60" viewBox="0 0 60 60" fill="none" xmlns="http://www.w3.org/2000/svg">
<rect width="60" height="60" rx="5" fill="#282573"/>
<path d="M18.5166 24.3232C18.855 24.3232 19.1288 24.5971 19.1289 24.9355V34.9267C19.1289 35.0353 19.1531 35.1466 19.208 35.2685C19.3197 35.5108 19.2575 35.7836 19.0791 35.959L19.2578 36.1377H18.6533C18.4212 36.1377 18.199 36.006 18.0957 35.7802L18.0967 35.7793C17.9706 35.5045 17.9043 35.2178 17.9043 34.9267V24.9355L17.917 24.8125C17.974 24.5332 18.2204 24.3233 18.5166 24.3232Z" fill="white" stroke="white" stroke-width="0.5"/>
<path d="M41.0029 24.3272C41.3414 24.3272 41.6161 24.6011 41.6162 24.9395V34.9278C41.6162 35.7512 41.0976 36.4856 40.2324 37.0957C39.3646 37.7077 38.1103 38.2246 36.542 38.6153H36.54C36.497 38.6255 36.448 38.6338 36.3936 38.6338H36.29L36.2764 38.6201C36.0507 38.5764 35.8587 38.4078 35.7988 38.169V38.168C35.7173 37.8395 35.9163 37.5075 36.2451 37.4258L36.7285 37.2979C37.8258 36.9903 38.7127 36.6184 39.3418 36.2207C40.0776 35.7556 40.3906 35.302 40.3906 34.9278V24.9395C40.3907 24.6012 40.6647 24.3274 41.0029 24.3272Z" fill="white" stroke="white" stroke-width="0.5"/>
<path d="M29.5498 11.7315C29.7086 11.6733 29.8851 11.6833 30.0381 11.7608L44.916 19.3243L44.9893 19.3683C45.1516 19.4816 45.251 19.6689 45.251 19.8702C45.2509 20.1003 45.1214 20.3122 44.916 20.4161L44.915 20.4151L30.0381 27.9786L30.0361 27.9796C29.9531 28.0211 29.859 28.0447 29.7617 28.045V28.046H29.7598V28.045C29.6648 28.0448 29.5707 28.0239 29.4824 27.9786V27.9776L14.6045 20.4151C14.3987 20.3098 14.2706 20.1004 14.2705 19.8702C14.2705 19.6403 14.3993 19.4284 14.6045 19.3243L29.4834 11.7608L29.5498 11.7315ZM16.2344 19.8692L29.7607 26.7452L43.2871 19.8692L29.7607 12.9933L16.2344 19.8692Z" fill="white" stroke="white" stroke-width="0.5"/>
<path d="M14.8828 19.2582C15.2212 19.2582 15.495 19.5321 15.4951 19.8705V27.2641C15.4949 27.6024 15.2211 27.8764 14.8828 27.8764C14.5445 27.8763 14.2708 27.6023 14.2705 27.2641V19.8705C14.2706 19.5322 14.5444 19.2583 14.8828 19.2582Z" fill="white" stroke="white" stroke-width="0.5"/>
<path d="M21.5586 33.0755C23.8776 29.8275 28.4077 29.071 31.6572 31.39C33.1323 32.4429 34.1392 33.9768 34.5225 35.7347L34.5908 36.0892C34.9088 37.9953 34.4658 39.9132 33.3428 41.4866C32.2197 43.0601 30.5488 44.1023 28.6426 44.4202L28.6436 44.4212C28.2756 44.483 27.9074 44.5127 27.542 44.5179L27.5381 44.5228H27.4346C25.9382 44.5227 24.4835 44.0579 23.2432 43.1722C19.9951 40.8532 19.2381 36.3236 21.5586 33.0755ZM27.458 31.2689C25.5778 31.2689 23.7271 32.1438 22.5537 33.7864C20.6268 36.4857 21.2549 40.2492 23.9541 42.1761C25.2616 43.1095 26.8521 43.4766 28.4385 43.2132L28.7334 43.1566C30.1949 42.8385 31.4674 42.0016 32.3428 40.7757C33.2765 39.468 33.6446 37.8761 33.3799 36.2913C33.115 34.7064 32.2501 33.3198 30.9424 32.386C29.8863 31.6316 28.6655 31.2689 27.458 31.2689Z" fill="#FFCC00" stroke="#FFCC00" stroke-width="0.5"/>
<path d="M23.5498 34.3438C23.7582 34.1509 24.0806 34.1226 24.3223 34.2949C24.5643 34.4678 24.6413 34.782 24.5254 35.042L24.4639 35.1494C23.289 36.7953 23.6726 39.0927 25.3184 40.2676L25.4121 40.3496C25.6066 40.5587 25.6323 40.8815 25.4609 41.1221C25.3411 41.2898 25.1529 41.3788 24.9619 41.3789H24.7119V41.3232C24.6758 41.3071 24.64 41.2885 24.6064 41.2646H24.6055C22.4094 39.6961 21.8994 36.634 23.4678 34.4365L23.5498 34.3438Z" fill="white" stroke="white" stroke-width="0.5"/>
<path d="M34.5371 41.9281C35.2258 41.1446 36.38 40.9515 37.2861 41.4681L37.4766 41.5902L39.8789 43.306C40.8695 44.0131 41.1005 45.3944 40.3936 46.3851L40.2627 46.5677C39.8327 47.171 39.1511 47.4935 38.4629 47.4935C38.0189 47.4935 37.5705 47.3597 37.1826 47.0824V47.0814L34.7793 45.3675C33.7884 44.6604 33.5579 43.2783 34.2666 42.2874L34.3975 42.1048L34.5371 41.9281ZM36.1953 42.4046C35.8871 42.4047 35.5855 42.5479 35.3945 42.8158L35.3936 42.8167L35.2627 42.9964L35.2637 42.9974C34.949 43.4377 35.0515 44.0534 35.4922 44.3685L37.8945 46.0843L37.9795 46.139C38.411 46.385 38.9703 46.2688 39.2656 45.8558L39.2666 45.8548L39.3965 45.6732C39.5481 45.4602 39.6078 45.202 39.5635 44.9408V44.9398C39.5202 44.6798 39.3789 44.4539 39.167 44.3021V44.3011L36.7656 42.5863H36.7646C36.5931 42.4633 36.3942 42.4046 36.1953 42.4046Z" fill="#FFCC00" stroke="#FFCC00" stroke-width="0.5"/>
</svg>
