<svg width="60" height="60" viewBox="0 0 60 60" fill="none" xmlns="http://www.w3.org/2000/svg">
<rect width="60" height="60" rx="5" fill="#282573"/>
<path d="M43.3613 11.5925L43.4922 11.6052C43.7874 11.6656 44.0087 11.9269 44.0088 12.24V32.8855C44.0088 33.2434 43.7192 33.5339 43.3613 33.5339C43.0035 33.5339 42.7139 33.2434 42.7139 32.8855V12.8875H16.0439V41.5457H27.8896C28.2474 41.5459 28.5371 41.8353 28.5371 42.1931C28.537 42.5508 28.2473 42.8403 27.8896 42.8406H15.3965C15.0387 42.8405 14.7491 42.5509 14.749 42.1931V12.24C14.7491 11.8822 15.0387 11.5926 15.3965 11.5925H43.3613Z" fill="white" stroke="white" stroke-width="0.5"/>
<path d="M31.4824 16.1653C31.8402 16.1654 32.1298 16.455 32.1299 16.8127C32.1299 17.1706 31.8402 17.4601 31.4824 17.4602H27.2783C26.9204 17.4601 26.6309 17.1706 26.6309 16.8127C26.6309 16.4549 26.9205 16.1653 27.2783 16.1653H31.4824Z" fill="white" stroke="white" stroke-width="0.5"/>
<path d="M38.6377 21.7986C38.9956 21.7986 39.2851 22.0882 39.2852 22.4461C39.2852 22.804 38.9956 23.0936 38.6377 23.0936H20.1201C19.7623 23.0935 19.4727 22.804 19.4727 22.4461C19.4727 22.0883 19.7623 21.7987 20.1201 21.7986H38.6377Z" fill="white" stroke="white" stroke-width="0.5"/>
<path d="M38.6377 25.4427C38.9956 25.4427 39.2851 25.7323 39.2852 26.0902C39.2852 26.4481 38.9956 26.7377 38.6377 26.7377H20.1201C19.7623 26.7376 19.4727 26.4481 19.4727 26.0902C19.4727 25.7324 19.7623 25.4428 20.1201 25.4427H38.6377Z" fill="white" stroke="white" stroke-width="0.5"/>
<path d="M24.3311 31.5956C24.5846 31.342 24.9945 31.342 25.248 31.5956C25.5012 31.8491 25.5012 32.2581 25.248 32.5116L22.1523 35.6073C22.0263 35.7332 21.8609 35.7967 21.6953 35.7968H21.6924C21.5267 35.7968 21.3605 35.7334 21.2344 35.6073L19.6631 34.035C19.4095 33.7815 19.4096 33.3726 19.6631 33.119C19.9166 32.8655 20.3255 32.8655 20.5791 33.119L21.6934 34.2333L24.3311 31.5956Z" fill="white" stroke="white" stroke-width="0.5"/>
<path d="M37.5127 32.9318C41.781 32.9319 45.2499 36.4023 45.25 40.6691C45.25 44.9358 41.7796 48.4082 37.5127 48.4083C33.2458 48.4083 29.7734 44.9376 29.7734 40.6691C29.7735 36.4006 33.2443 32.9318 37.5127 32.9318ZM37.5127 34.2267C33.9601 34.2267 31.0684 37.1181 31.0684 40.6691C31.0684 44.2202 33.9601 47.1134 37.5127 47.1134C41.0651 47.1133 43.9551 44.2217 43.9551 40.6691C43.955 37.1166 41.0636 34.2268 37.5127 34.2267Z" fill="#FFCC00" stroke="#FFCC00" stroke-width="0.5"/>
<path d="M37.248 36.6427C37.6059 36.6427 37.8954 36.9323 37.8955 37.2902V41.462L39.4629 43.0294C39.7163 43.2829 39.7163 43.6919 39.4629 43.9454C39.3368 44.0715 39.1715 44.1358 39.0059 44.1359H38.8506L38.8359 44.1075C38.7302 44.0789 38.6298 44.0253 38.5469 43.9425L36.791 42.1866C36.6698 42.0654 36.6006 41.901 36.6006 41.7296V37.2902C36.6007 36.9323 36.8902 36.6428 37.248 36.6427Z" fill="#FFCC00" stroke="#FFCC00" stroke-width="0.5"/>
</svg>
