<svg width="60" height="60" viewBox="0 0 60 60" fill="none" xmlns="http://www.w3.org/2000/svg">
<rect width="60" height="60" rx="5" fill="#282573"/>
<path d="M19.0991 15.0533C19.4914 15.0533 19.8091 15.371 19.8091 15.7633C19.809 16.1555 19.4913 16.4733 19.0991 16.4733H16.8325C15.1082 16.4734 13.6686 18.0081 13.6685 19.942V43.5846C13.6685 45.5186 15.1081 47.0541 16.8325 47.0543H43.1646C44.889 47.0543 46.3295 45.517 46.3296 43.5846V19.942C46.3294 18.008 44.889 16.4733 43.1646 16.4733H40.895C40.5028 16.4732 40.1852 16.1555 40.1851 15.7633C40.1851 15.371 40.5027 15.0534 40.895 15.0533H43.1646C45.709 15.0533 47.7493 17.262 47.7495 19.942V43.5846C47.7495 46.2648 45.7072 48.4733 43.1646 48.4733H16.8325C14.2882 48.4731 12.2486 46.2646 12.2485 43.5846V19.942C12.2487 17.262 14.2901 15.0535 16.8325 15.0533H19.0991Z" fill="white" stroke="white" stroke-width="0.5"/>
<path d="M34.4375 15.0533C34.8298 15.0533 35.1475 15.371 35.1475 15.7633C35.1474 16.1555 34.8297 16.4733 34.4375 16.4733H25.5586C25.1664 16.4733 24.8487 16.1555 24.8486 15.7633C24.8486 15.371 25.1663 15.0533 25.5586 15.0533H34.4375Z" fill="white" stroke="white" stroke-width="0.5"/>
<path d="M22.3313 11.527C22.7235 11.5272 23.0413 11.8448 23.0413 12.237V18.071C23.0413 18.4632 22.7235 18.7808 22.3313 18.7809C21.939 18.7809 21.6213 18.4633 21.6213 18.071V12.237C21.6213 11.8447 21.939 11.527 22.3313 11.527Z" fill="white" stroke="white" stroke-width="0.5"/>
<path d="M37.667 11.5273C38.0592 11.5275 38.377 11.8451 38.377 12.2373V18.0713C38.377 18.4635 38.0592 18.7811 37.667 18.7812C37.2747 18.7812 36.957 18.4636 36.957 18.0713V12.2373C36.957 11.845 37.2747 11.5273 37.667 11.5273Z" fill="white" stroke="white" stroke-width="0.5"/>
<path d="M43.8098 23.1954C44.2019 23.1956 44.5188 23.5132 44.5188 23.9054C44.5187 24.2975 44.2019 24.6152 43.8098 24.6154H16.1848C15.7926 24.6154 15.475 24.2976 15.4749 23.9054C15.4749 23.5131 15.7925 23.1954 16.1848 23.1954H43.8098Z" fill="white" stroke="white" stroke-width="0.5"/>
<path d="M18.0588 27.2422C18.451 27.2423 18.7688 27.5599 18.7688 27.9521V30.4639H21.1672C21.5594 30.464 21.8762 30.7816 21.8762 31.1738C21.8762 31.566 21.5594 31.8836 21.1672 31.8838H18.0588C17.6666 31.8838 17.3489 31.5661 17.3489 31.1738V27.9521C17.3489 27.5599 17.6666 27.2422 18.0588 27.2422Z" fill="white" stroke="white" stroke-width="0.5"/>
<path d="M28.4446 27.2427C28.8368 27.2428 29.1545 27.5604 29.1545 27.9526V30.4644H31.553C31.9451 30.4645 32.262 30.7821 32.262 31.1743C32.262 31.5665 31.9451 31.8841 31.553 31.8843H28.4446C28.0523 31.8843 27.7346 31.5666 27.7346 31.1743V27.9526C27.7346 27.5604 28.0523 27.2427 28.4446 27.2427Z" fill="white" stroke="white" stroke-width="0.5"/>
<path d="M38.8279 27.2427C39.2201 27.2428 39.5378 27.5604 39.5378 27.9526V30.4644H41.9363C42.3284 30.4645 42.6453 30.7821 42.6453 31.1743C42.6453 31.5665 42.3284 31.8841 41.9363 31.8843H38.8279C38.4356 31.8843 38.1179 31.5666 38.1179 31.1743V27.9526C38.1179 27.5604 38.4356 27.2427 38.8279 27.2427Z" fill="white" stroke="white" stroke-width="0.5"/>
<path d="M18.0588 37.0397C18.451 37.0398 18.7688 37.3575 18.7688 37.7497V40.2614H21.1672C21.5594 40.2616 21.8762 40.5792 21.8762 40.9714C21.8762 41.3636 21.5594 41.6812 21.1672 41.6813H18.0588C17.6666 41.6813 17.3489 41.3637 17.3489 40.9714V37.7497C17.3489 37.3574 17.6666 37.0397 18.0588 37.0397Z" fill="white" stroke="white" stroke-width="0.5"/>
<path d="M32.3955 36.2541C32.7878 36.2541 33.1055 36.5717 33.1055 36.964V41.756C33.1055 42.1483 32.7878 42.466 32.3955 42.466H27.6035C27.2112 42.466 26.8936 42.1483 26.8936 41.756V36.964C26.8936 36.5717 27.2112 36.2541 27.6035 36.2541H32.3955ZM28.3145 41.0461H31.6875V37.674H28.3145V41.0461Z" fill="#FFCC00" stroke="#FFCC00" stroke-width="0.5"/>
</svg>
