<svg width="60" height="60" viewBox="0 0 60 60" fill="none" xmlns="http://www.w3.org/2000/svg">
<rect width="60" height="60" rx="5" fill="#282573"/>
<path d="M43.8608 39.0474C44.2299 39.0474 44.5288 39.3463 44.5288 39.7153C44.5286 40.0842 44.2297 40.3823 43.8608 40.3823C43.4011 40.3824 43.0539 40.4983 42.7876 40.6782C42.5195 40.8594 42.3177 41.1159 42.1685 41.4185C41.8664 42.0306 41.7915 42.8014 41.7915 43.3989C41.7915 43.9964 41.8666 44.7664 42.1685 45.3784C42.3177 45.681 42.5195 45.9375 42.7876 46.1187C43.0539 46.2986 43.401 46.4145 43.8608 46.4146C44.2299 46.4146 44.5288 46.7135 44.5288 47.0825C44.5286 47.4514 44.2297 47.7495 43.8608 47.7495H15.6763C14.6051 47.7495 13.7393 47.3463 13.1489 46.5786C12.5658 45.8202 12.272 44.7337 12.272 43.3989C12.272 42.0638 12.5656 40.9767 13.1489 40.2183C13.7393 39.4506 14.6051 39.0474 15.6763 39.0474H43.8608ZM15.6763 40.3813C15.2164 40.3814 14.8694 40.4973 14.603 40.6772C14.3349 40.8584 14.1341 41.1149 13.9849 41.4175C13.6829 42.0296 13.6069 42.7995 13.6069 43.397C13.6069 43.9945 13.6829 44.7643 13.9849 45.3765C14.1342 45.6791 14.3349 45.9355 14.603 46.1167C14.8694 46.2967 15.2164 46.4126 15.6763 46.4126H41.2163C40.7113 45.6649 40.4565 44.6373 40.4565 43.397C40.4565 42.1566 40.7113 41.129 41.2163 40.3813H15.6763Z" fill="white" stroke="white" stroke-width="0.5"/>
<path d="M26.6533 43.6544C27.0223 43.6544 27.3213 43.9534 27.3213 44.3224C27.3211 44.6913 27.0222 44.9894 26.6533 44.9894H16.3027C15.9338 44.9894 15.6349 44.6913 15.6348 44.3224C15.6348 43.9534 15.9337 43.6544 16.3027 43.6544H26.6533Z" fill="white" stroke="white" stroke-width="0.5"/>
<path d="M47.0591 29.7297C47.4281 29.7297 47.7271 30.0287 47.7271 30.3977C47.7269 30.7666 47.428 31.0647 47.0591 31.0647C46.5993 31.0647 46.2522 31.1807 45.9858 31.3606C45.7177 31.5418 45.516 31.7982 45.3667 32.1008C45.0647 32.713 44.9897 33.4837 44.9897 34.0813C44.9898 34.6787 45.0648 35.4488 45.3667 36.0608C45.516 36.3634 45.7177 36.6198 45.9858 36.801C46.2522 36.981 46.5993 37.0969 47.0591 37.0969C47.4281 37.0969 47.7271 37.3959 47.7271 37.7649C47.7269 38.1337 47.428 38.4319 47.0591 38.4319H18.8745C17.8034 38.4318 16.9376 38.0286 16.3472 37.261C15.764 36.5026 15.4703 35.4161 15.4702 34.0813C15.4702 32.7462 15.7639 31.6591 16.3472 30.9006C16.9376 30.133 17.8034 29.7298 18.8745 29.7297H47.0591ZM18.8745 31.0647C18.4148 31.0647 18.0676 31.1807 17.8013 31.3606C17.5332 31.5417 17.3324 31.7984 17.1831 32.1008C16.8811 32.713 16.8052 33.4837 16.8052 34.0813C16.8052 34.6788 16.8811 35.4488 17.1831 36.0608C17.3324 36.3633 17.5332 36.6199 17.8013 36.801C18.0676 36.981 18.4147 37.0969 18.8745 37.0969H44.4146C43.9095 36.3493 43.6548 35.3216 43.6548 34.0813C43.6548 32.8407 43.9094 31.8124 44.4146 31.0647H18.8745Z" fill="white" stroke="white" stroke-width="0.5"/>
<path d="M28.2295 34.3386C28.5985 34.3386 28.8975 34.6376 28.8975 35.0066C28.8973 35.3755 28.5984 35.6736 28.2295 35.6736H19.5C19.1311 35.6736 18.8322 35.3755 18.832 35.0066C18.832 34.6376 19.131 34.3386 19.5 34.3386H28.2295Z" fill="white" stroke="white" stroke-width="0.5"/>
<path d="M36.9893 16.8142C37.3581 16.8144 37.6562 17.1133 37.6562 17.4822V27.2341C37.656 27.6029 37.358 27.901 36.9893 27.9011C36.6204 27.9011 36.3215 27.603 36.3213 27.2341V17.4822C36.3213 17.1132 36.6203 16.8142 36.9893 16.8142Z" fill="#FFCC00" stroke="#FFCC00" stroke-width="0.5"/>
<path d="M21.2227 16.8142C21.5915 16.8144 21.8896 17.1133 21.8896 17.4822V27.2341C21.8894 27.6029 21.5914 27.901 21.2227 27.9011C20.8538 27.9011 20.5549 27.603 20.5547 27.2341V17.4822C20.5547 17.1132 20.8536 16.8142 21.2227 16.8142Z" fill="#FFCC00" stroke="#FFCC00" stroke-width="0.5"/>
<path d="M28.9609 12.2653C29.0564 12.2447 29.1536 12.2447 29.249 12.2653H29.25L43.4512 15.4245H43.4502C43.7558 15.4924 43.9736 15.7627 43.9736 16.0768C43.9736 16.391 43.7557 16.6593 43.4502 16.7272L43.4512 16.7282L29.25 19.8884C29.2024 19.8989 29.1534 19.904 29.1064 19.904H29.1045C29.0798 19.904 29.0553 19.9027 29.0312 19.9001L28.96 19.8884L14.7598 16.7282C14.4542 16.6603 14.2363 16.391 14.2363 16.0768C14.2363 15.7627 14.4542 15.4924 14.7598 15.4245L28.96 12.2653H28.9609ZM17.9785 16.0768L29.1035 18.5505L40.2285 16.0768L29.1035 13.6022L17.9785 16.0768Z" fill="#FFCC00" stroke="#FFCC00" stroke-width="0.5"/>
<path d="M14.9043 15.4095C15.2732 15.4097 15.5713 15.7085 15.5713 16.0775V19.9896C15.5713 20.3585 15.2732 20.6574 14.9043 20.6575C14.5353 20.6575 14.2363 20.3586 14.2363 19.9896V16.0775C14.2363 15.7084 14.5353 15.4095 14.9043 15.4095Z" fill="#FFCC00" stroke="#FFCC00" stroke-width="0.5"/>
</svg>
