<svg width="60" height="60" viewBox="0 0 60 60" fill="none" xmlns="http://www.w3.org/2000/svg">
<rect width="60" height="60" rx="5" fill="#282573"/>
<path d="M16.7061 16.7065C22.6471 10.7672 32.3118 10.7656 38.2529 16.7065C44.1941 22.6477 44.1941 32.3132 38.2529 38.2544C35.2827 41.2245 31.381 42.708 27.4805 42.7085V42.7095H27.4785V42.7085C23.5779 42.7081 19.6762 41.2229 16.7061 38.2544C10.7649 32.3132 10.7649 22.6477 16.7061 16.7065ZM27.4805 13.5142C23.9018 13.5142 20.3236 14.8766 17.5986 17.6001C12.1504 23.0486 12.1502 31.9144 17.5986 37.3628C23.047 42.8111 31.9129 42.811 37.3613 37.3628C42.8097 31.9144 42.8083 23.0486 37.3613 17.6001C34.6365 14.8767 31.0591 13.5142 27.4805 13.5142Z" fill="white" stroke="white" stroke-width="0.5"/>
<path d="M41.5854 38.0427C42.371 38.0427 43.1101 38.3464 43.6626 38.9001H43.6636L46.8911 42.1286C48.0364 43.2739 48.0364 45.1386 46.8911 46.2839L46.2856 46.8884L46.2866 46.8894C45.7131 47.4628 44.9608 47.7487 44.2085 47.7487C43.4562 47.7487 42.7039 47.4629 42.1304 46.8894L38.9019 43.6609C37.7572 42.5141 37.7576 40.6508 38.9028 39.5056L39.5073 38.9001C40.0612 38.3463 40.7993 38.0427 41.5854 38.0427ZM41.5835 39.3044C41.1337 39.3045 40.7136 39.4781 40.3979 39.7937L39.7925 40.3991C39.1385 41.0533 39.1384 42.1162 39.7925 42.7702L43.021 45.9978C43.6752 46.6519 44.7387 46.6515 45.3911 45.9978H45.3921L45.9966 45.3923C46.6507 44.7381 46.6503 43.6746 45.9966 43.0222L42.769 39.7937C42.4548 39.4795 42.0344 39.3047 41.5835 39.3044Z" fill="white" stroke="white" stroke-width="0.5"/>
<path d="M33.2671 27.7003C33.6158 27.7003 33.8988 27.9825 33.8989 28.3312V34.0529C33.8987 34.299 33.7551 34.5239 33.5269 34.6261C31.5793 35.5102 29.5313 35.9542 27.4819 35.9542C25.5606 35.9542 23.6405 35.5644 21.8032 34.7872L21.437 34.6271C21.2119 34.5255 21.0661 34.3006 21.0659 34.0529V28.3312C21.066 27.9826 21.3481 27.7004 21.6968 27.7003C22.0455 27.7003 22.3275 27.9825 22.3276 28.3312V33.6388C25.6674 35.0416 29.2964 35.0414 32.6362 33.6388V28.3312C32.6364 27.9826 32.9185 27.7005 33.2671 27.7003Z" fill="#FFCC00" stroke="#FFCC00" stroke-width="0.5"/>
<path d="M36.9277 23.2662C37.2765 23.2662 37.5594 23.5484 37.5596 23.8971V27.7574C37.5596 28.1062 37.2766 28.3883 36.9277 28.3883C36.5791 28.3882 36.2969 28.1062 36.2969 27.7574V23.8971L36.3096 23.7701C36.3683 23.4825 36.6227 23.2664 36.9277 23.2662Z" fill="#FFCC00" stroke="#FFCC00" stroke-width="0.5"/>
<path d="M27.2212 19.069C27.3855 18.9943 27.5764 18.9934 27.7407 19.0681L27.7397 19.069L37.187 23.32H37.186C37.4152 23.4224 37.5581 23.6487 37.5581 23.8962C37.5581 24.1465 37.4115 24.3686 37.189 24.4714L37.187 24.4724L27.7397 28.7243L27.7388 28.7233C27.6547 28.7613 27.5668 28.7778 27.4819 28.778V28.779H27.48V28.778C27.3934 28.7778 27.3072 28.7619 27.2241 28.7253L27.2222 28.7243L17.7749 24.4724V24.4714C17.5464 24.3688 17.4038 24.1432 17.4038 23.8962C17.4038 23.6458 17.5504 23.4238 17.7729 23.321L17.7749 23.32L27.2212 19.069ZM19.5728 23.8952L27.481 27.4548L35.3892 23.8952L27.481 20.3366L19.5728 23.8952Z" fill="#FFCC00" stroke="#FFCC00" stroke-width="0.5"/>
</svg>
