<svg width="60" height="60" viewBox="0 0 60 60" fill="none" xmlns="http://www.w3.org/2000/svg">
<rect width="60" height="60" rx="5" fill="#282573"/>
<path d="M29.5469 21.8951C32.0802 21.8951 34.1636 22.4938 35.6201 23.6021C37.0841 24.7162 37.8945 26.3312 37.8945 28.3072C37.8945 28.6719 37.5991 28.9673 37.2344 28.9673C36.8698 28.9671 36.5752 28.6718 36.5752 28.3072C36.5752 27.1184 36.2417 26.2187 35.7275 25.5318C35.2109 24.8418 34.5004 24.3513 33.7246 24.0054C32.167 23.311 30.3895 23.2154 29.5469 23.2154C28.7042 23.2154 26.9267 23.3111 25.3691 24.0054C24.5934 24.3513 23.8828 24.8419 23.3662 25.5318C22.852 26.2187 22.5195 27.1185 22.5195 28.3072C22.5195 28.6719 22.224 28.9672 21.8594 28.9673C21.4946 28.9673 21.1992 28.6719 21.1992 28.3072C21.1992 26.3312 22.0097 24.7162 23.4736 23.6021C24.9301 22.4937 27.0135 21.8951 29.5469 21.8951Z" fill="#FFCC00" stroke="#FFCC00" stroke-width="0.5"/>
<path d="M29.5488 12.2507C31.8908 12.251 33.7949 14.1558 33.7949 16.4978C33.7947 18.8396 31.8906 20.7437 29.5488 20.7439C27.2068 20.7439 25.302 18.8398 25.3018 16.4978C25.3018 14.1556 27.2067 12.2507 29.5488 12.2507ZM29.5488 13.572C27.9361 13.572 26.6222 14.8847 26.6221 16.4988C26.6221 18.113 27.9346 19.4255 29.5488 19.4255C31.1629 19.4253 32.4756 18.1129 32.4756 16.4988C32.4755 14.8847 31.1628 13.5723 29.5488 13.572Z" fill="#FFCC00" stroke="#FFCC00" stroke-width="0.5"/>
<path d="M45.0215 27.6484C45.9938 27.6486 46.7841 28.4388 46.7842 29.4111C46.7842 29.4224 46.7823 29.4508 46.7773 29.4854L46.7793 29.4863L46.5137 31.8047C46.4857 32.7526 45.7078 33.5111 44.7539 33.5117V33.5127H14.3408C13.3862 33.5127 12.6081 32.7513 12.5801 31.8047L12.3145 29.4863V29.4824C12.3132 29.4697 12.3096 29.442 12.3096 29.4111C12.3096 28.4388 13.0999 27.6485 14.0723 27.6484H45.0215ZM14.0723 28.9688C13.8401 28.9688 13.6486 29.1487 13.6309 29.377L13.8936 31.6758V31.6787C13.8948 31.6912 13.8974 31.7191 13.8975 31.75C13.8975 31.9945 14.0963 32.1934 14.3408 32.1934H44.7539C44.9985 32.1934 45.1973 31.9945 45.1973 31.75C45.1973 31.7384 45.1982 31.7102 45.2031 31.6758H45.2021L45.4619 29.3887C45.45 29.1546 45.2587 28.9689 45.0215 28.9688H14.0723Z" fill="white" stroke="white" stroke-width="0.5"/>
<path d="M22.0352 18.7334C22.2639 18.5115 22.6111 18.4886 22.8652 18.6592L22.9678 18.7432L22.9688 18.7451C23.2222 19.0064 23.2167 19.4226 22.959 19.6777L22.958 19.6787L19.3242 23.2266V28.3086C19.324 28.6731 19.0287 28.9678 18.6641 28.9678H18.5605L18.5469 28.9541C18.2378 28.8992 18.003 28.6316 18.0029 28.3066V22.9482C18.0029 22.7687 18.0765 22.6007 18.2021 22.4775V22.4766L22.0352 18.7344V18.7334Z" fill="white" stroke="white" stroke-width="0.5"/>
<path d="M34.8042 35.5326C35.4856 35.5326 36.0395 36.0865 36.0396 36.7679V38.6927C36.0394 39.3741 35.4855 39.9281 34.8042 39.9281H24.2935C23.6122 39.928 23.0583 39.374 23.0581 38.6927V36.7679C23.0582 36.0866 23.6121 35.5327 24.2935 35.5326H34.8042ZM24.3784 38.6078H34.7202V36.8529H24.3784V38.6078Z" fill="white" stroke="white" stroke-width="0.5"/>
<path d="M18.4219 45.3052C18.4222 45.3106 18.4238 45.3244 18.4238 45.3394C18.4238 45.8299 18.823 46.2291 19.3135 46.2291H39.7822C40.2727 46.229 40.6719 45.8299 40.6719 45.3394C40.6719 45.3297 40.6719 45.3054 40.6748 45.2779L41.8398 32.7916C41.8736 32.428 42.1981 32.1623 42.5596 32.1959C42.8771 32.2256 43.1199 32.4754 43.1533 32.7808L43.1543 32.9146L41.9912 45.3619L41.9922 45.3629C41.9795 46.5701 40.9936 47.5513 39.7822 47.5513H39.5322V47.5494H19.3135C18.1091 47.5494 17.1282 46.5818 17.1045 45.3824L16.1934 35.5865C16.1599 35.2248 16.4251 34.9047 16.7861 34.8697H16.9199C17.1803 34.8973 17.4033 35.0819 17.4814 35.3326L17.5078 35.4634V35.4644L18.4209 45.2779L18.4219 45.2896V45.3052Z" fill="white" stroke="white" stroke-width="0.5"/>
</svg>
