<svg width="60" height="60" viewBox="0 0 60 60" fill="none" xmlns="http://www.w3.org/2000/svg">
<rect width="60" height="60" rx="5" fill="#282573"/>
<path d="M29.9997 31.6668C30.9201 31.6668 31.6663 30.9206 31.6663 30.0002C31.6663 29.0797 30.9201 28.3335 29.9997 28.3335C29.0792 28.3335 28.333 29.0797 28.333 30.0002C28.333 30.9206 29.0792 31.6668 29.9997 31.6668Z" stroke="#FFCC00" stroke-width="3.33333" stroke-linecap="round" stroke-linejoin="round"/>
<path d="M43.667 43.6665C47.067 40.2831 43.7003 31.3998 36.167 23.8331C28.6003 16.2998 19.717 12.9331 16.3336 16.3331C12.9336 19.7165 16.3003 28.5998 23.8336 36.1665C31.4003 43.6998 40.2836 47.0665 43.667 43.6665Z" stroke="white" stroke-width="3.33333" stroke-linecap="round" stroke-linejoin="round"/>
<path d="M36.167 36.1665C43.7003 28.5998 47.067 19.7165 43.667 16.3331C40.2836 12.9331 31.4003 16.2998 23.8336 23.8331C16.3003 31.3998 12.9336 40.2831 16.3336 43.6665C19.717 47.0665 28.6003 43.6998 36.167 36.1665Z" stroke="white" stroke-width="3.33333" stroke-linecap="round" stroke-linejoin="round"/>
</svg>
