<svg width="60" height="60" viewBox="0 0 60 60" fill="none" xmlns="http://www.w3.org/2000/svg">
<rect width="60" height="60" rx="5" fill="#282573"/>
<path d="M26.335 11.6299L26.334 11.6309L44.8496 13.9404H44.8486C45.1851 13.9814 45.4219 14.2884 45.3789 14.623L44.0742 25.0811C44.0566 25.2234 43.9892 25.3457 43.8945 25.4385L44.0732 25.6172H43.4697C43.4582 25.6172 43.4292 25.6163 43.3945 25.6113V25.6123C43.3926 25.6121 43.3906 25.6106 43.3887 25.6104C43.3858 25.6099 43.3828 25.6109 43.3799 25.6104V25.6084C43.1173 25.5702 42.92 25.3706 42.8721 25.123L42.8643 25.1152H42.8711C42.8603 25.0553 42.8561 24.9932 42.8643 24.9297L44.0918 15.0762L26.7891 12.917L26.3184 16.6836V16.6846C26.2754 17.0174 25.9734 17.2558 25.6357 17.2129V17.2119C25.2999 17.1705 25.0636 16.8645 25.1064 16.5303L25.6523 12.1592C25.6938 11.8233 26.0007 11.587 26.335 11.6299Z" fill="white" stroke="white" stroke-width="0.5"/>
<path d="M28.1787 17.2212C28.3407 17.2358 28.4892 17.3149 28.5918 17.439L33.3398 23.188C33.5554 23.4493 33.516 23.832 33.2588 24.0464C32.9982 24.2636 32.6135 24.2232 32.3994 23.9663L32.3984 23.9653L28.04 18.687L14.5928 29.7896L28.7246 46.9048L36.2227 40.7134C36.336 40.6196 36.4734 40.5748 36.6104 40.5747H36.6133C36.7339 40.5747 36.8555 40.6105 36.959 40.6812L37.0557 40.7632L37.0566 40.7642C37.287 41.0069 37.2778 41.388 37.0381 41.6206L37.0391 41.6216L37.0361 41.6226C37.0353 41.6234 37.035 41.6256 37.0342 41.6265L37.0332 41.6255C37.0123 41.6458 36.9911 41.6608 36.9736 41.6733L36.9746 41.6743L29.0322 48.2358C28.9216 48.3272 28.784 48.3755 28.6436 48.3755H28.54L28.5234 48.3589C28.3863 48.3317 28.262 48.2606 28.1729 48.1528L13.2627 30.0972C13.1601 29.9731 13.1091 29.812 13.126 29.6479H13.127C13.1423 29.4872 13.2214 29.3398 13.3447 29.2378L27.7324 17.3579C27.8586 17.2536 28.0197 17.2072 28.1787 17.2212Z" fill="white" stroke="white" stroke-width="0.5"/>
<path d="M33.2471 25.4971C36.7608 23.3499 41.3663 24.4619 43.5137 27.9756C44.5533 29.6777 44.8694 31.6842 44.4014 33.6221C43.9333 35.561 42.738 37.2011 41.0361 38.2422C39.8493 38.9672 38.5134 39.3407 37.1553 39.3408C36.567 39.3408 35.974 39.2711 35.3896 39.1309V39.1299C33.4505 38.6619 31.8097 37.4667 30.7686 35.7646C28.6211 32.2509 29.7333 27.6445 33.2471 25.4971ZM37.1318 25.623C36.0214 25.6231 34.8988 25.9173 33.8848 26.5371C30.9461 28.3326 30.0162 32.1872 31.8115 35.126C32.6818 36.5497 34.0546 37.5498 35.6768 37.9414C37.2989 38.333 38.9753 38.0695 40.4004 37.1992C41.824 36.329 42.8241 34.957 43.2158 33.335C43.5829 31.8143 43.3744 30.2452 42.6299 28.8809L42.4736 28.6104C41.2981 26.6862 39.2386 25.623 37.1318 25.623Z" fill="#FFCC00" stroke="#FFCC00" stroke-width="0.5"/>
<path d="M33.293 33.5043C33.5796 33.3301 33.9558 33.419 34.1328 33.7084C34.7801 34.7662 35.9064 35.3978 37.1494 35.3979C37.4867 35.3979 37.7605 35.671 37.7607 36.0082C37.7607 36.3457 37.4868 36.6196 37.1494 36.6196H37.1484C35.4782 36.6196 33.9596 35.7681 33.0898 34.3452L33.0889 34.3442C32.9148 34.0576 33.0036 33.6823 33.293 33.5053V33.5043Z" fill="#FFCC00" stroke="#FFCC00" stroke-width="0.5"/>
<path d="M41.6299 39.1259C42.6811 38.4825 44.0585 38.817 44.7002 39.8661L46.5518 42.8964C46.8624 43.4046 46.9542 44.0041 46.8145 44.5839C46.6746 45.164 46.3181 45.6554 45.8105 45.9658L45.8096 45.9648L45.7334 46.0136H45.7324C45.3705 46.2343 44.9691 46.3406 44.5723 46.3408V46.3417H44.5713V46.3408C43.8198 46.3403 43.0844 45.9612 42.6641 45.2734L40.8125 42.2441C40.171 41.1935 40.5029 39.8167 41.5518 39.1747L41.6289 39.1269L41.6299 39.1259ZM42.793 40.0204C42.6129 40.0204 42.4317 40.0673 42.2676 40.1679L42.1904 40.2167L42.1895 40.2177C41.7431 40.491 41.583 41.0559 41.8047 41.5175L41.8535 41.6083L43.7051 44.6376H43.7061C43.9975 45.1139 44.6209 45.2647 45.0967 44.9736L45.1738 44.9267V44.9257C45.4031 44.785 45.5653 44.5634 45.6289 44.2997C45.6927 44.0341 45.6501 43.7639 45.5098 43.5341V43.5331L43.6582 40.5048C43.4681 40.1937 43.1352 40.0205 42.793 40.0204Z" fill="#FFCC00" stroke="#FFCC00" stroke-width="0.5"/>
</svg>
