<svg width="60" height="60" viewBox="0 0 60 60" fill="none" xmlns="http://www.w3.org/2000/svg">
<rect width="60" height="60" rx="5" fill="#282573"/>
<path d="M35.2788 17.5341C37.0449 17.5341 38.48 18.9693 38.48 20.7353V30.2421C38.48 30.5615 38.2212 30.8203 37.9019 30.8203C37.5827 30.82 37.3247 30.5613 37.3247 30.2421V20.7353C37.3247 19.608 36.4061 18.6904 35.2788 18.6904H18.6958C17.5685 18.6904 16.6509 19.608 16.6509 20.7353V36.7656C16.6509 37.8928 17.5685 38.8105 18.6958 38.8105H35.2788C35.4224 38.8105 35.5708 38.7949 35.7183 38.7626L35.8354 38.749C36.0665 38.7464 36.277 38.8839 36.3696 39.0937L36.4058 39.204V39.205C36.4736 39.5183 36.2734 39.8236 35.9644 39.8915H35.9634C35.8197 39.9224 35.674 39.9425 35.5288 39.954V39.9667H18.6958C16.9298 39.9667 15.4946 38.5316 15.4946 36.7656V20.7353C15.4946 18.9693 16.9298 17.5341 18.6958 17.5341H35.2788Z" fill="white" stroke="white" stroke-width="0.5"/>
<path d="M25.583 41.3325C25.7164 41.043 26.0581 40.9164 26.3477 41.0474C26.6377 41.1788 26.7665 41.5215 26.6338 41.812L26.6348 41.813C25.4892 44.3242 24.6953 45.7886 24.1162 46.6274C23.7624 47.1399 23.4683 47.4488 23.1992 47.6089L23.3389 47.7485H22.7354C22.6466 47.7485 22.567 47.7333 22.4971 47.7134C22.3262 47.6657 22.1375 47.5709 22.0039 47.3403C21.8798 47.1261 21.8197 46.8222 21.8213 46.394C21.8245 45.5362 22.0768 44.0476 22.7822 41.4233L22.8242 41.314C22.9276 41.1083 23.1445 40.983 23.374 40.9966L23.4893 41.0151L23.4902 41.0161C23.7961 41.0993 23.9819 41.4138 23.8975 41.7241C23.3693 43.6899 23.1292 44.9078 23.0303 45.6587C22.999 45.8963 22.9841 46.0848 22.9766 46.2329C23.0869 46.0884 23.2264 45.8894 23.3975 45.6147C23.8686 44.8581 24.5686 43.5586 25.583 41.3335V41.3325Z" fill="white" stroke="white" stroke-width="0.5"/>
<path d="M27.6294 41.0487C27.8829 40.9338 28.1767 41.0166 28.3354 41.2333L28.395 41.3339V41.3348C29.4105 43.5615 30.1106 44.8608 30.5815 45.6171C30.7517 45.8903 30.8905 46.0891 31.0005 46.2333C30.9929 46.0857 30.9788 45.8984 30.9478 45.662C30.849 44.9112 30.6086 43.6925 30.0796 41.7245V41.7235C29.9967 41.4151 30.1807 41.0981 30.4888 41.0165H30.4897C30.7967 40.936 31.1132 41.1152 31.1958 41.4247L31.439 42.3563C31.96 44.4112 32.1541 45.6446 32.1567 46.3954C32.1582 46.8233 32.0983 47.1274 31.9741 47.3417C31.8401 47.5726 31.6502 47.6681 31.479 47.7157L31.478 47.7147C31.4084 47.7345 31.329 47.7499 31.2407 47.7499H30.6362L30.7769 47.6093C30.5083 47.4491 30.215 47.1404 29.8618 46.6288C29.3552 45.8949 28.6835 44.6831 27.7563 42.7089L27.3433 41.8143C27.212 41.5247 27.3389 41.1832 27.6284 41.0497L27.6294 41.0487Z" fill="white" stroke="white" stroke-width="0.5"/>
<path d="M26.9883 12.25C27.8013 12.25 28.566 12.5665 29.1377 13.1406C29.712 13.7149 30.0273 14.4801 30.0273 15.292V15.9258C30.0273 16.2451 29.7686 16.5039 29.4492 16.5039C29.1301 16.5037 28.8721 16.245 28.8721 15.9258V15.292C28.8721 14.8505 28.7213 14.4333 28.4453 14.0967L28.3193 13.957C27.9655 13.601 27.4933 13.4062 26.9883 13.4062C25.9501 13.4063 25.1055 14.2519 25.1055 15.292V15.9258C25.1054 16.2451 24.8466 16.5038 24.5273 16.5039C24.208 16.5039 23.9493 16.2451 23.9492 15.9258V15.292L23.9531 15.1357C24.0345 13.5309 25.3644 12.2501 26.9883 12.25Z" fill="white" stroke="white" stroke-width="0.5"/>
<path d="M33.5371 30.3397C34.0937 29.864 35.0252 29.798 35.8545 30.5526L43.0986 37.1395L43.2607 37.2948C44.0532 38.0902 44.5205 39.15 44.5049 40.1796C44.4931 40.9214 44.2243 41.5873 43.7314 42.0604L43.6299 42.1532C43.1773 42.5395 42.5978 42.7389 41.9756 42.7391V42.7401H41.9746V42.7391C41.8336 42.7391 41.6895 42.7298 41.5439 42.7089V42.7079C40.525 42.5631 39.5512 41.9376 38.8896 41.0311L38.7617 40.8466L33.3867 32.663C32.7706 31.7251 32.9805 30.8156 33.5371 30.3397ZM34.5059 31.1425C34.4089 31.1448 34.3376 31.1755 34.291 31.2157L34.2891 31.2177C34.1845 31.3066 34.0623 31.5825 34.3535 32.0272L39.7285 40.2108C40.2202 40.9604 40.9667 41.458 41.709 41.5634L41.8428 41.578C42.1193 41.5989 42.4461 41.5639 42.7383 41.3788L42.8809 41.2733C43.2526 40.9556 43.3449 40.5084 43.3496 40.162V40.161C43.3611 39.412 42.9852 38.5967 42.3223 37.994L35.0781 31.4081C34.8538 31.2037 34.6567 31.1425 34.5186 31.1425H34.5059Z" fill="#FFCC00" stroke="#FFCC00" stroke-width="0.5"/>
<path d="M25.9912 21.8462C26.5125 21.7353 27.1479 21.7889 27.8066 21.938C28.4709 22.0883 29.181 22.3401 29.8584 22.6431C30.5359 22.9461 31.187 23.3028 31.7354 23.6665C32.2764 24.0254 32.7324 24.4007 33.0107 24.7476L33.124 24.8872C34.2577 26.3455 34.1862 28.407 32.8564 29.5425C32.303 30.0143 31.6099 30.2632 30.8711 30.2632C30.7174 30.2632 30.565 30.2515 30.4102 30.231H30.4092C29.5196 30.109 28.6961 29.647 28.0889 28.937V28.936C27.4169 28.1603 27.0549 27.4607 26.8555 26.814C26.6571 26.1704 26.6232 25.589 26.5918 25.0718C26.5644 24.6166 26.5404 24.2458 26.4268 23.8911C26.3161 23.5459 26.116 23.2045 25.7158 22.8325C25.5568 22.6848 25.4954 22.463 25.5518 22.2573L25.5781 22.1812C25.6519 22.0097 25.806 21.8831 25.9912 21.8452V21.8462ZM27.3145 23.0327C27.67 23.7223 27.7084 24.3936 27.7461 25.0034C27.7758 25.4947 27.8052 25.964 27.9629 26.4741C28.0999 26.9171 28.3375 27.3994 28.7695 27.9458L28.9668 28.1841L28.9678 28.1851C29.3961 28.6867 29.9652 29.0039 30.5664 29.0864H30.5674C31.1539 29.1673 31.6981 29.0131 32.1064 28.6646C32.9538 27.9401 33.006 26.5207 32.125 25.4907L32.1191 25.4839V25.4829C31.6581 24.9048 30.7285 24.3038 29.6895 23.8267C28.8704 23.4506 28.013 23.1665 27.3145 23.0327Z" fill="#FFCC00" stroke="#FFCC00" stroke-width="0.5"/>
</svg>
