<svg width="60" height="60" viewBox="0 0 60 60" fill="none" xmlns="http://www.w3.org/2000/svg">
<rect width="60" height="60" rx="5" fill="#282573"/>
<path d="M43.5542 11.2332C45.8974 11.2332 47.802 13.1389 47.8022 15.4802V37.8826C47.8022 38.2621 47.4952 38.5698 47.1157 38.5701C46.7361 38.5701 46.4282 38.2622 46.4282 37.8826V15.4802C46.428 13.8965 45.138 12.6072 43.5542 12.6072H15.7427C14.1591 12.6074 12.8699 13.8966 12.8696 15.4802V39.3679C12.8696 40.9517 14.1589 42.2417 15.7427 42.2419H36.2124C36.5919 42.242 36.8987 42.549 36.8989 42.9285C36.8989 43.3081 36.5921 43.6159 36.2124 43.616H15.7427C13.3995 43.6157 11.4956 41.7093 11.4956 39.3679V15.4802L11.5015 15.2625C11.6155 13.022 13.4745 11.2334 15.7427 11.2332H43.5542Z" fill="white" stroke="white" stroke-width="0.5"/>
<path d="M47.1167 18.5616C47.4962 18.5616 47.804 18.8687 47.8042 19.2482C47.8042 19.6278 47.4964 19.9357 47.1167 19.9357H12.1821C11.8027 19.9354 11.4956 19.6277 11.4956 19.2482C11.4958 18.8688 11.8028 18.5619 12.1821 18.5616H47.1167Z" fill="white" stroke="white" stroke-width="0.5"/>
<path d="M19.4939 14.4323C20.1288 14.4324 20.6453 14.9487 20.6453 15.5837C20.6452 16.2186 20.1288 16.735 19.4939 16.735C18.8589 16.735 18.3426 16.2186 18.3425 15.5837C18.3425 14.9487 18.8589 14.4323 19.4939 14.4323ZM19.4919 15.5563C19.4774 15.5573 19.4666 15.5689 19.4666 15.5837L19.4744 15.6003C19.4791 15.6038 19.4856 15.604 19.4919 15.6042V15.5563ZM19.4939 15.6042C19.5002 15.604 19.5067 15.6038 19.5115 15.6003L19.5193 15.5837C19.5193 15.5689 19.5084 15.5572 19.4939 15.5563V15.6042Z" fill="white" stroke="white" stroke-width="0.5"/>
<path d="M24.915 14.4323C25.55 14.4324 26.0664 14.9487 26.0664 15.5837C26.0664 16.2186 25.55 16.735 24.915 16.735C24.2801 16.735 23.7637 16.2186 23.7637 15.5837C23.7637 14.9487 24.2801 14.4323 24.915 14.4323ZM24.9131 15.5563C24.8986 15.5573 24.8877 15.5689 24.8877 15.5837L24.8955 15.6003C24.9002 15.6038 24.9068 15.604 24.9131 15.6042V15.5563ZM24.915 15.6042C24.9214 15.604 24.9279 15.6038 24.9326 15.6003L24.9404 15.5837C24.9404 15.5689 24.9296 15.5572 24.915 15.5563V15.6042Z" fill="white" stroke="white" stroke-width="0.5"/>
<path d="M30.1377 24.8074C30.5171 24.8075 30.824 25.1145 30.8242 25.4939C30.8242 25.8735 30.5173 26.1813 30.1377 26.1814H17.2432C16.8637 26.1812 16.5566 25.8734 16.5566 25.4939C16.5569 25.1146 16.8638 24.8076 17.2432 24.8074H30.1377Z" fill="white" stroke="white" stroke-width="0.5"/>
<path d="M30.1992 31.7538C30.5788 31.7538 30.8855 32.0609 30.8857 32.4403C30.8857 32.82 30.5789 33.1278 30.1992 33.1278H17.2432C16.8637 33.1276 16.5566 32.8198 16.5566 32.4403C16.5569 32.061 16.8638 31.754 17.2432 31.7538H30.1992Z" fill="white" stroke="white" stroke-width="0.5"/>
<path d="M38.6394 28.0874C38.8124 28.1353 38.9633 28.25 39.0535 28.4077L46.9675 42.2144H46.9685C47.0599 42.373 47.0842 42.5604 47.0359 42.7378L47.0349 42.7388C46.9868 42.9125 46.8722 43.0626 46.7166 43.1538L46.7146 43.1548L41.4802 46.1548C41.3728 46.2165 41.2545 46.2465 41.1384 46.2466H40.8884V46.1968C40.7479 46.1419 40.6238 46.0411 40.5427 45.8999L32.6277 32.0923C32.4394 31.7639 32.5525 31.3436 32.8816 31.1548L38.116 28.1548L38.24 28.0991C38.3681 28.056 38.5072 28.0509 38.6394 28.0874ZM34.1609 32.0063L41.3914 44.6206L45.4343 42.3052L38.2039 29.689L34.1609 32.0063Z" fill="#FFCC00" stroke="#FFCC00" stroke-width="0.5"/>
<path d="M46.031 41.9612C46.3594 41.7728 46.7796 41.886 46.9685 42.2151L48.4138 44.7356H48.4128C48.5042 44.8943 48.5286 45.0807 48.4802 45.2581V45.259C48.4321 45.4329 48.3175 45.5829 48.1619 45.6741L48.1599 45.675L42.9246 48.675L42.9236 48.676C42.8211 48.7338 42.7032 48.7668 42.5828 48.7668H42.3328V48.7141C42.189 48.6573 42.0648 48.5558 41.9871 48.4192L40.5427 45.8997C40.3543 45.5713 40.4675 45.1511 40.7966 44.9622L46.031 41.9612ZM42.075 45.8118L42.8357 47.1399L46.8796 44.8215L46.1189 43.4944L42.075 45.8118Z" fill="#FFCC00" stroke="#FFCC00" stroke-width="0.5"/>
<path d="M32.7642 24.8807C32.9812 24.7575 33.2488 24.7604 33.4644 24.8925L33.4634 24.8934L38.8169 28.1649C39.0246 28.2919 39.1477 28.5183 39.145 28.7596C39.1423 29.0029 39.0105 29.2257 38.8013 29.3466L38.8003 29.3475L33.5659 32.3475L33.564 32.3485C33.4616 32.4062 33.3444 32.4393 33.2241 32.4393H32.9741V32.3895C32.9439 32.3778 32.9139 32.3647 32.8853 32.3485C32.6734 32.229 32.542 32.0053 32.5366 31.7645V31.7635L32.4185 25.4901L32.4194 25.4891C32.4148 25.2394 32.5455 25.0049 32.7642 24.8807ZM33.8882 30.578L37.1108 28.7303L33.8159 26.7157L33.8882 30.578Z" fill="#FFCC00" stroke="#FFCC00" stroke-width="0.5"/>
</svg>
