<svg width="60" height="60" viewBox="0 0 60 60" fill="none" xmlns="http://www.w3.org/2000/svg">
<rect width="60" height="60" rx="5" fill="#282573"/>
<path d="M25 20.0002V16.6668C25 15.7828 25.3512 14.9349 25.9763 14.3098C26.6014 13.6847 27.4493 13.3335 28.3333 13.3335H31.6667C32.5507 13.3335 33.3986 13.6847 34.0237 14.3098C34.6488 14.9349 35 15.7828 35 16.6668V20.0002" stroke="#FFCC00" stroke-width="3.33333" stroke-linecap="round" stroke-linejoin="round"/>
<path d="M16.667 26.6667C16.667 24.8986 17.3694 23.2029 18.6196 21.9526C19.8699 20.7024 21.5655 20 23.3337 20H36.667C38.4351 20 40.1308 20.7024 41.381 21.9526C42.6313 23.2029 43.3337 24.8986 43.3337 26.6667V43.3333C43.3337 44.2174 42.9825 45.0652 42.3573 45.6904C41.7322 46.3155 40.8844 46.6667 40.0003 46.6667H20.0003C19.1163 46.6667 18.2684 46.3155 17.6433 45.6904C17.0182 45.0652 16.667 44.2174 16.667 43.3333V26.6667Z" stroke="white" stroke-width="3.33333" stroke-linecap="round" stroke-linejoin="round"/>
<path d="M23.333 26.6667H36.6663" stroke="#FFCC00" stroke-width="3.33333" stroke-linecap="round" stroke-linejoin="round"/>
<path d="M23.333 40H36.6663" stroke="white" stroke-width="3.33333" stroke-linecap="round" stroke-linejoin="round"/>
<path d="M23.333 46.6668V36.6668C23.333 35.7828 23.6842 34.9349 24.3093 34.3098C24.9344 33.6847 25.7823 33.3335 26.6663 33.3335H33.333C34.2171 33.3335 35.0649 33.6847 35.69 34.3098C36.3152 34.9349 36.6663 35.7828 36.6663 36.6668V46.6668" stroke="white" stroke-width="3.33333" stroke-linecap="round" stroke-linejoin="round"/>
</svg>
