<svg width="60" height="60" viewBox="0 0 60 60" fill="none" xmlns="http://www.w3.org/2000/svg">
<rect width="60" height="60" rx="5" fill="#282573"/>
<path d="M30.001 11.6251C36.9054 11.6251 42.5225 17.2421 42.5225 24.1465C42.5224 29.173 39.5889 33.6235 35.0117 35.6192V39.2169C35.0115 39.6055 34.6973 39.9199 34.3086 39.92C33.9198 39.92 33.6047 39.6056 33.6045 39.2169V35.1505C33.6047 34.8614 33.7812 34.6014 34.0518 34.4962L34.4492 34.3321C38.5138 32.5611 41.1152 28.6094 41.1152 24.1465C41.1152 18.0182 36.1293 13.0323 30.001 13.0323C23.8726 13.0323 18.8867 18.0182 18.8867 24.1465C18.8868 28.7531 21.6583 32.8132 25.9502 34.4962H25.9492C26.2202 34.6012 26.3973 34.8612 26.3975 35.1505V39.2169C26.3972 39.6056 26.0821 39.92 25.6934 39.92C25.3045 39.92 24.9895 39.6056 24.9893 39.2169V35.6192C20.4124 33.6234 17.4795 29.1728 17.4795 24.1465C17.4795 17.2421 23.0965 11.6251 30.001 11.6251Z" fill="white" stroke="white" stroke-width="0.5"/>
<path d="M34.3096 43.0392C34.6985 43.0392 35.0137 43.3544 35.0137 43.7433C35.0135 46.2974 32.935 48.3751 30.3809 48.3751H29.6211C27.0671 48.3749 24.9895 46.2972 24.9893 43.7433C24.9893 43.3544 25.3044 43.0392 25.6934 43.0392H34.3096ZM26.4727 44.4445C26.794 45.8854 28.084 46.9658 29.6211 46.9659H30.3799C31.917 46.9657 33.207 45.8854 33.5283 44.4445H26.4727Z" fill="white" stroke="white" stroke-width="0.5"/>
<path d="M33.896 38.6605L34.0454 38.6644C35.5716 38.7422 36.7886 40.0078 36.7886 41.5531C36.7883 43.1482 35.4911 44.4447 33.896 44.4447H26.1021C24.5069 44.4447 23.2097 43.1482 23.2095 41.5531C23.2095 39.9578 24.5068 38.6605 26.1021 38.6605H33.896ZM26.1021 40.0677C25.2829 40.0677 24.6167 40.7339 24.6167 41.5531C24.6169 42.3721 25.283 43.0375 26.1021 43.0375H33.896C34.715 43.0375 35.3811 42.3721 35.3813 41.5531C35.3813 40.7339 34.7151 40.0677 33.896 40.0677H26.1021Z" fill="white" stroke="white" stroke-width="0.5"/>
<path d="M32.8193 23.1534C33.1905 23.1784 33.4746 23.488 33.4746 23.8546C33.4746 24.1336 33.4359 24.4065 33.3652 24.67L32.2812 32.3849V32.3859C32.2314 32.7365 31.9309 32.9902 31.5859 32.9904C31.5689 32.9904 31.5293 32.9901 31.4863 32.9835V32.9845C31.4852 32.9843 31.4836 32.9837 31.4824 32.9835H31.4805V32.9825C31.1015 32.925 30.8325 32.5727 30.8877 32.1886L31.6387 26.8478C31.1459 27.1205 30.5852 27.2804 30 27.2804C29.4137 27.2803 28.8528 27.1212 28.3594 26.8478L29.1123 32.1886L29.1182 32.3312C29.0982 32.6585 28.8489 32.9364 28.5146 32.9845H28.5127C28.1276 33.0367 27.7739 32.769 27.7188 32.3859V32.3849L26.6328 24.6603C26.5639 24.3998 26.5264 24.1301 26.5264 23.8546C26.5264 23.4856 26.812 23.1806 27.1787 23.1544H27.1807L27.1816 23.1534V23.1544C27.5468 23.128 27.8756 23.3911 27.9258 23.7579L28.0146 24.3907C28.2696 25.2249 29.093 25.873 30 25.8732C30.9063 25.8732 31.7281 25.2259 31.9854 24.3917L32.0742 23.7579L32.0752 23.757C32.1276 23.3908 32.4524 23.1287 32.8193 23.1534Z" fill="#FFCC00" stroke="#FFCC00" stroke-width="0.5"/>
</svg>
