<svg width="60" height="60" viewBox="0 0 60 60" fill="none" xmlns="http://www.w3.org/2000/svg">
<rect width="60" height="60" rx="5" fill="#282573"/>
<path d="M37.0659 22.9332L34.0593 31.9516C33.8956 32.4425 33.6199 32.8887 33.254 33.2546C32.888 33.6205 32.4419 33.8963 31.9509 34.0599L22.9326 37.0666L25.9393 28.0482C26.1029 27.5573 26.3786 27.1111 26.7446 26.7452C27.1105 26.3792 27.5566 26.1035 28.0476 25.9399L37.0659 22.9332Z" stroke="#FFCC00" stroke-width="3.33333" stroke-linecap="round" stroke-linejoin="round"/>
<path d="M29.9997 46.6666C39.2044 46.6666 46.6663 39.2047 46.6663 29.9999C46.6663 20.7952 39.2044 13.3333 29.9997 13.3333C20.7949 13.3333 13.333 20.7952 13.333 29.9999C13.333 39.2047 20.7949 46.6666 29.9997 46.6666Z" stroke="white" stroke-width="3.33333" stroke-linecap="round" stroke-linejoin="round"/>
</svg>
