<svg width="60" height="60" viewBox="0 0 60 60" fill="none" xmlns="http://www.w3.org/2000/svg">
<rect width="60" height="60" rx="5" fill="#282573"/>
<path d="M42.2974 15.4177C44.1475 15.418 45.6519 16.923 45.6519 18.7732V35.5417C45.6519 37.3919 44.1475 38.897 42.2974 38.8972H17.897C16.0466 38.8972 14.5415 37.3921 14.5415 35.5417V18.7732C14.5415 16.9228 16.0466 15.4177 17.897 15.4177H42.2974ZM17.897 16.6384C16.7201 16.6384 15.7622 17.5963 15.7622 18.7732V35.5417C15.7622 36.7186 16.7201 37.6755 17.897 37.6755H42.2974C43.474 37.6753 44.4312 36.7185 44.4312 35.5417V18.7732C44.4312 17.5965 43.474 16.6387 42.2974 16.6384H17.897Z" fill="white" stroke="white" stroke-width="0.5"/>
<path d="M30.0972 37.6757C30.2816 37.6757 30.4529 37.7586 30.5679 37.8974L30.6138 37.9599V37.9609L35.1587 45.1874L35.2134 45.2978C35.3136 45.5637 35.2166 45.8731 34.9673 46.0302C34.682 46.21 34.3041 46.1235 34.1245 45.8388V45.8378L30.0972 39.4335L26.0698 45.8378C25.9537 46.0237 25.7537 46.124 25.5522 46.124C25.44 46.1239 25.3292 46.0916 25.231 46.0322L25.2271 46.0302C24.942 45.8505 24.8569 45.4745 25.0356 45.1884V45.1874L29.5796 37.9609L29.5806 37.9599C29.6925 37.7837 29.8864 37.6757 30.0972 37.6757Z" fill="white" stroke="white" stroke-width="0.5"/>
<path d="M40.8594 12.2503C41.1967 12.2503 41.4696 12.5233 41.4697 12.8607C41.4697 13.1981 41.1968 13.471 40.8594 13.471H19.335C18.9976 13.4709 18.7246 13.198 18.7246 12.8607C18.7247 12.5234 18.9977 12.2504 19.335 12.2503H40.8594Z" fill="white" stroke="white" stroke-width="0.5"/>
<path d="M41.7783 23.0153C42.1157 23.0153 42.3895 23.2883 42.3896 23.6256C42.3896 23.9631 42.1158 24.236 41.7783 24.236H33.4023C33.065 24.2359 32.792 23.963 32.792 23.6256C32.7921 23.2883 33.0651 23.0154 33.4023 23.0153H41.7783Z" fill="white" stroke="white" stroke-width="0.5"/>
<path d="M41.7783 30.0767C42.1157 30.0767 42.3895 30.3497 42.3896 30.687C42.3896 31.0245 42.1158 31.2974 41.7783 31.2974H33.4023C33.065 31.2973 32.792 31.0244 32.792 30.687C32.7921 30.3498 33.0651 30.0768 33.4023 30.0767H41.7783Z" fill="white" stroke="white" stroke-width="0.5"/>
<path d="M23.7109 21.254C26.9652 21.2542 29.6133 23.903 29.6133 27.1573C29.6131 30.4114 26.965 33.0594 23.7109 33.0596C20.4552 33.0596 17.8078 30.4115 17.8076 27.1573C17.8076 23.9029 20.4565 21.254 23.7109 21.254ZM23.7109 22.4737C21.1301 22.4737 19.0284 24.5745 19.0283 27.1553C19.0283 29.7363 21.13 31.837 23.7109 31.837C26.2917 31.8368 28.3926 29.7361 28.3926 27.1553C28.3925 24.5746 26.2917 22.4739 23.7109 22.4737Z" fill="#FFCC00" stroke="#FFCC00" stroke-width="0.5"/>
<path d="M23.7109 21.2521C24.0483 21.2521 24.3212 21.5252 24.3213 21.8625V26.9025L27.8848 30.466C28.1238 30.705 28.1238 31.0912 27.8848 31.3303C27.766 31.449 27.6103 31.5099 27.4541 31.5099H27.2041V31.4523C27.1386 31.4227 27.0762 31.383 27.0225 31.3293L23.2803 27.5861C23.1661 27.4719 23.1007 27.317 23.1006 27.1555V21.8625C23.1007 21.5252 23.3737 21.2522 23.7109 21.2521Z" fill="#FFCC00" stroke="#FFCC00" stroke-width="0.5"/>
</svg>
