<svg viewBox="60 0 230 224" xmlns="http://www.w3.org/2000/svg" aria-labelledby="title" role="img">
  <title>eXeLearning Logo</title>
  <path d="M102.249 0.584028C111.709 0.584028 121.815 4.02413 132.565 10.9044C143.101 17.5696 157.614 29.3951 176.104 46.3807C207.925 19.7197 224.899 13.7142 241.239 13.7142C251.775 13.7142 260.805 16.6168 268.33 22.422C282.193 33.0227 284.505 57.2323 274.793 73.1492C267.053 85.8347 256.947 99.4877 244.477 114.108C272.858 146.359 288.71 169.565 288.71 185.476C288.71 196.871 285.162 205.579 278.067 211.599C270.757 217.619 261.619 220.629 250.654 220.629C234.098 220.629 208.14 208.067 176.104 181.191C157.829 197.316 143.423 208.497 132.888 214.732C122.137 220.967 111.924 224.085 102.249 224.085C89.3486 224.085 79.3507 219.892 72.2555 211.507C64.9452 202.906 61.2901 192.801 61.2901 181.191C61.2901 173.665 62.3651 167.108 64.5152 161.517C66.6653 155.927 70.6429 149.692 76.4481 142.812C82.2533 135.716 91.4987 125.934 104.184 113.463C91.9287 100.993 82.8984 90.9948 77.0931 83.4696C71.0729 75.7293 66.9878 68.9565 64.8377 63.1513C62.4726 57.3461 61.2901 50.8959 61.2901 43.8006C61.2901 36.2753 62.9026 29.2876 66.1277 22.8374C69.3529 16.1721 74.083 10.7969 80.3183 6.71175C86.5535 2.6266 93.8638 0.584029 102.249 0.584028Z" fill="#FFFFFF"/>
</svg>
