<svg width="60" height="60" viewBox="0 0 60 60" fill="none" xmlns="http://www.w3.org/2000/svg">
<rect width="60" height="60" rx="5" fill="#282573"/>
<path d="M46.6663 36.6665H13.333" stroke="white" stroke-width="3.33333" stroke-linecap="round" stroke-linejoin="round"/>
<path d="M24.9997 21.6664V16.6664C24.9997 16.2244 24.8241 15.8005 24.5115 15.4879C24.199 15.1754 23.775 14.9998 23.333 14.9998H19.9997C19.5576 14.9998 19.1337 15.1754 18.8212 15.4879C18.5086 15.8005 18.333 16.2244 18.333 16.6664V21.6664" stroke="#FFCC00" stroke-width="3.33333" stroke-linecap="round" stroke-linejoin="round"/>
<path d="M26.667 26.6665H33.3337" stroke="white" stroke-width="3.33333" stroke-linecap="round" stroke-linejoin="round"/>
<path d="M41.6667 21.6664V16.6664C41.6667 16.2244 41.4911 15.8005 41.1785 15.4879C40.866 15.1754 40.442 14.9998 40 14.9998H36.6667C36.2246 14.9998 35.8007 15.1754 35.4882 15.4879C35.1756 15.8005 35 16.2244 35 16.6664V21.6664" stroke="#FFCC00" stroke-width="3.33333" stroke-linecap="round" stroke-linejoin="round"/>
<path d="M43.333 44.9998C44.2171 44.9998 45.0649 44.6486 45.69 44.0235C46.3152 43.3984 46.6663 42.5506 46.6663 41.6665V35.2482C46.6663 32.9315 43.333 30.3115 43.333 27.1998V23.3332C43.333 22.8911 43.1574 22.4672 42.8449 22.1547C42.5323 21.8421 42.1084 21.6665 41.6663 21.6665H34.9997C34.5576 21.6665 34.1337 21.8421 33.8212 22.1547C33.5086 22.4672 33.333 22.8911 33.333 23.3332V41.6665C33.333 42.5506 33.6842 43.3984 34.3093 44.0235C34.9344 44.6486 35.7823 44.9998 36.6663 44.9998H43.333Z" stroke="white" stroke-width="3.33333" stroke-linecap="round" stroke-linejoin="round"/>
<path d="M16.6663 44.9998C15.7823 44.9998 14.9344 44.6486 14.3093 44.0235C13.6842 43.3984 13.333 42.5506 13.333 41.6665V35.2482C13.333 32.9315 16.6663 30.3115 16.6663 27.1998V23.3332C16.6663 22.8911 16.8419 22.4672 17.1545 22.1547C17.4671 21.8421 17.891 21.6665 18.333 21.6665H24.9997C25.4417 21.6665 25.8656 21.8421 26.1782 22.1547C26.4907 22.4672 26.6663 22.8911 26.6663 23.3332V41.6665C26.6663 42.5506 26.3152 43.3984 25.69 44.0235C25.0649 44.6486 24.2171 44.9998 23.333 44.9998H16.6663Z" stroke="white" stroke-width="3.33333" stroke-linecap="round" stroke-linejoin="round"/>
</svg>
