<svg width="60" height="60" viewBox="0 0 60 60" fill="none" xmlns="http://www.w3.org/2000/svg">
<rect width="60" height="60" rx="5" fill="#282573"/>
<path d="M36.667 21.6665H36.6837" stroke="#FFCC00" stroke-width="3.33333" stroke-linecap="round" stroke-linejoin="round"/>
<path d="M43.333 21.6665L46.6663 22.4998L43.333 23.3332" stroke="#FFCC00" stroke-width="3.33333" stroke-linecap="round" stroke-linejoin="round"/>
<path d="M15.6663 39.9998H29.9997C33.5359 39.9998 36.9273 38.595 39.4278 36.0945C41.9283 33.5941 43.333 30.2027 43.333 26.6665V21.6665C43.3368 20.2463 42.8869 18.8621 42.049 17.7154C41.2111 16.5688 40.0289 15.7197 38.6747 15.2919C37.3206 14.8641 35.8651 14.8798 34.5206 15.337C33.176 15.7941 32.0125 16.6686 31.1997 17.8331L13.333 43.3331" stroke="white" stroke-width="3.33333" stroke-linecap="round" stroke-linejoin="round"/>
<path d="M26.667 39.9998V44.9998" stroke="white" stroke-width="3.33333" stroke-linecap="round" stroke-linejoin="round"/>
<path d="M33.333 39.5833V44.9999" stroke="white" stroke-width="3.33333" stroke-linecap="round" stroke-linejoin="round"/>
<path d="M21.667 39.9997C23.7222 39.9996 25.7274 39.3663 27.4099 38.1859C29.0923 37.0055 30.3702 35.3355 31.0696 33.4029C31.769 31.4704 31.856 29.3693 31.3188 27.3856C30.7815 25.4019 29.6461 23.6318 28.067 22.3164" stroke="white" stroke-width="3.33333" stroke-linecap="round" stroke-linejoin="round"/>
</svg>
