<svg width="60" height="60" viewBox="0 0 60 60" fill="none" xmlns="http://www.w3.org/2000/svg">
<rect width="60" height="60" rx="5" fill="#282573"/>
<path d="M30 44.9998V21.6665" stroke="white" stroke-width="3.33333" stroke-linecap="round" stroke-linejoin="round"/>
<path d="M36.667 29.9998L40.0003 33.3332L46.667 26.6665" stroke="#FFCC00" stroke-width="3.33333" stroke-linecap="round" stroke-linejoin="round"/>
<path d="M46.6663 19.9998V16.6664C46.6663 16.2244 46.4907 15.8005 46.1782 15.4879C45.8656 15.1754 45.4417 14.9998 44.9997 14.9998H36.6663C34.8982 14.9998 33.2025 15.7021 31.9523 16.9524C30.7021 18.2026 29.9997 19.8983 29.9997 21.6664C29.9997 19.8983 29.2973 18.2026 28.0471 16.9524C26.7968 15.7021 25.1011 14.9998 23.333 14.9998H14.9997C14.5576 14.9998 14.1337 15.1754 13.8212 15.4879C13.5086 15.8005 13.333 16.2244 13.333 16.6664V38.3331C13.333 38.7751 13.5086 39.199 13.8212 39.5116C14.1337 39.8242 14.5576 39.9998 14.9997 39.9998H24.9997C26.3258 39.9998 27.5975 40.5265 28.5352 41.4642C29.4729 42.4019 29.9997 43.6737 29.9997 44.9998C29.9997 43.6737 30.5265 42.4019 31.4641 41.4642C32.4018 40.5265 33.6736 39.9998 34.9997 39.9998H44.9997C45.4417 39.9998 45.8656 39.8242 46.1782 39.5116C46.4907 39.199 46.6663 38.7751 46.6663 38.3331V36.1664" stroke="white" stroke-width="3.33333" stroke-linecap="round" stroke-linejoin="round"/>
</svg>
