<svg width="60" height="60" viewBox="0 0 60 60" fill="none" xmlns="http://www.w3.org/2000/svg">
<rect width="60" height="60" rx="5" fill="#282573"/>
<path d="M29.9997 36.6668C33.6816 36.6668 36.6663 33.6821 36.6663 30.0002C36.6663 26.3183 33.6816 23.3335 29.9997 23.3335C26.3178 23.3335 23.333 26.3183 23.333 30.0002C23.333 33.6821 26.3178 36.6668 29.9997 36.6668Z" stroke="white" stroke-width="3.33333" stroke-linecap="round" stroke-linejoin="round"/>
<path d="M36.6664 23.3335V31.6668C36.6664 32.9929 37.1931 34.2647 38.1308 35.2024C39.0685 36.1401 40.3403 36.6668 41.6664 36.6668C42.9924 36.6668 44.2642 36.1401 45.2019 35.2024C46.1396 34.2647 46.6664 32.9929 46.6664 31.6668V30.0002C46.6664 26.2457 45.3987 22.6012 43.0687 19.6571C40.7387 16.7131 37.483 14.642 33.8289 13.7794C30.1749 12.9168 26.3366 13.3132 22.936 14.9044C19.5354 16.4957 16.7716 19.1885 15.0926 22.5466C13.4135 25.9047 12.9175 29.7314 13.6849 33.4066C14.4522 37.0819 16.4381 40.3904 19.3206 42.796C22.2031 45.2017 25.8134 46.5637 29.5667 46.6612C33.3199 46.7588 36.9961 45.5862 39.9997 43.3335" stroke="white" stroke-width="3.33333" stroke-linecap="round" stroke-linejoin="round"/>
</svg>
