<svg width="60" height="60" viewBox="0 0 60 60" fill="none" xmlns="http://www.w3.org/2000/svg">
<rect width="60" height="60" rx="5" fill="#282573"/>
<path d="M34.9997 13.3333H24.9997C24.0792 13.3333 23.333 14.0794 23.333 14.9999V18.3333C23.333 19.2537 24.0792 19.9999 24.9997 19.9999H34.9997C35.9201 19.9999 36.6663 19.2537 36.6663 18.3333V14.9999C36.6663 14.0794 35.9201 13.3333 34.9997 13.3333Z" stroke="white" stroke-width="3.33333" stroke-linecap="round" stroke-linejoin="round"/>
<path d="M23.3337 16.6665H20.0003C19.1163 16.6665 18.2684 17.0177 17.6433 17.6428C17.0182 18.2679 16.667 19.1158 16.667 19.9998V43.3332C16.667 44.2172 17.0182 45.0651 17.6433 45.6902C18.2684 46.3153 19.1163 46.6665 20.0003 46.6665H40.0003C40.8844 46.6665 41.7322 46.3153 42.3573 45.6902C42.9825 45.0651 43.3337 44.2172 43.3337 43.3332V42.4998" stroke="white" stroke-width="3.33333" stroke-linecap="round" stroke-linejoin="round"/>
<path d="M36.667 16.6665H40.0003C40.5849 16.6671 41.159 16.8214 41.6651 17.1139C42.1711 17.4065 42.5914 17.8269 42.8837 18.3332" stroke="white" stroke-width="3.33333" stroke-linecap="round" stroke-linejoin="round"/>
<path d="M23.333 39.9998H24.9997" stroke="#FFCC00" stroke-width="3.33333" stroke-linecap="round" stroke-linejoin="round"/>
<path d="M45.6296 31.0431C46.2936 30.3792 46.6666 29.4787 46.6666 28.5398C46.6666 27.6008 46.2936 26.7004 45.6296 26.0364C44.9657 25.3725 44.0652 24.9995 43.1263 24.9995C42.1874 24.9995 41.2869 25.3725 40.623 26.0364L33.9396 32.7231C33.5434 33.1191 33.2533 33.6087 33.0963 34.1464L31.7013 38.9298C31.6595 39.0732 31.657 39.2252 31.694 39.3699C31.7311 39.5146 31.8064 39.6467 31.912 39.7523C32.0177 39.858 32.1498 39.9333 32.2945 39.9704C32.4392 40.0074 32.5912 40.0049 32.7346 39.9631L37.518 38.5681C38.0557 38.4111 38.5453 38.121 38.9413 37.7248L45.6296 31.0431Z" stroke="#FFCC00" stroke-width="3.33333" stroke-linecap="round" stroke-linejoin="round"/>
</svg>
