<svg width="60" height="60" viewBox="0 0 60 60" fill="none" xmlns="http://www.w3.org/2000/svg">
<rect width="60" height="60" rx="5" fill="#282573"/>
<path d="M15 33.3335H20C20.8841 33.3335 21.7319 33.6846 22.357 34.3098C22.9821 34.9349 23.3333 35.7827 23.3333 36.6668V41.6668C23.3333 42.5508 22.9821 43.3987 22.357 44.0238C21.7319 44.6489 20.8841 45.0001 20 45.0001H18.3333C17.4493 45.0001 16.6014 44.6489 15.9763 44.0238C15.3512 43.3987 15 42.5508 15 41.6668V30.0001C15 26.0219 16.5804 22.2066 19.3934 19.3935C22.2064 16.5805 26.0218 15.0001 30 15.0001C33.9782 15.0001 37.7936 16.5805 40.6066 19.3935C43.4196 22.2066 45 26.0219 45 30.0001V41.6668C45 42.5508 44.6488 43.3987 44.0237 44.0238C43.3986 44.6489 42.5507 45.0001 41.6667 45.0001H40C39.1159 45.0001 38.2681 44.6489 37.643 44.0238C37.0179 43.3987 36.6667 42.5508 36.6667 41.6668V36.6668C36.6667 35.7827 37.0179 34.9349 37.643 34.3098C38.2681 33.6846 39.1159 33.3335 40 33.3335H45" stroke="white" stroke-width="3.33333" stroke-linecap="round" stroke-linejoin="round"/>
</svg>
