<svg width="60" height="60" viewBox="0 0 60 60" fill="none" xmlns="http://www.w3.org/2000/svg">
<rect width="60" height="60" rx="5" fill="#282573"/>
<path d="M23.3333 14.9998H21.6667C20.7826 14.9998 19.9348 15.3509 19.3096 15.9761C18.6845 16.6012 18.3333 17.449 18.3333 18.3331V26.6664C18.3333 27.5505 17.9821 28.3983 17.357 29.0234C16.7319 29.6486 15.8841 29.9998 15 29.9998C15.8841 29.9998 16.7319 30.3509 17.357 30.9761C17.9821 31.6012 18.3333 32.449 18.3333 33.3331V41.6664C18.3333 43.4998 19.8333 44.9998 21.6667 44.9998H23.3333" stroke="white" stroke-width="3.33333" stroke-linecap="round" stroke-linejoin="round"/>
<path d="M36.667 44.9998H38.3337C39.2177 44.9998 40.0656 44.6486 40.6907 44.0234C41.3158 43.3983 41.667 42.5505 41.667 41.6664V33.3331C41.667 31.4998 43.167 29.9998 45.0003 29.9998C44.1163 29.9998 43.2684 29.6486 42.6433 29.0234C42.0182 28.3983 41.667 27.5505 41.667 26.6664V18.3331C41.667 17.449 41.3158 16.6012 40.6907 15.9761C40.0656 15.3509 39.2177 14.9998 38.3337 14.9998H36.667" stroke="white" stroke-width="3.33333" stroke-linecap="round" stroke-linejoin="round"/>
</svg>
