<svg width="60" height="60" viewBox="0 0 60 60" fill="none" xmlns="http://www.w3.org/2000/svg">
<rect width="60" height="60" rx="5" fill="#282573"/>
<path d="M27.1133 45C27.4059 45.5067 27.8266 45.9274 28.3334 46.22C28.8401 46.5125 29.4149 46.6665 29.9999 46.6665C30.585 46.6665 31.1598 46.5125 31.6665 46.22C32.1733 45.9274 32.594 45.5067 32.8866 45" stroke="#FFCC00" stroke-width="3.33333" stroke-linecap="round" stroke-linejoin="round"/>
<path d="M15.4364 35.5435C15.2187 35.7821 15.075 36.0789 15.0229 36.3977C14.9707 36.7165 15.0123 37.0436 15.1426 37.3392C15.2729 37.6347 15.4863 37.8861 15.7569 38.0626C16.0274 38.2392 16.3434 38.3333 16.6664 38.3335H43.3331C43.6561 38.3336 43.9722 38.2399 44.2429 38.0637C44.5136 37.8875 44.7272 37.6364 44.8579 37.341C44.9886 37.0456 45.0306 36.7186 44.9788 36.3998C44.9271 36.081 44.7838 35.7841 44.5664 35.5452C42.3498 33.2602 39.9998 30.8318 39.9998 23.3335C39.9998 20.6813 38.9462 18.1378 37.0708 16.2624C35.1955 14.3871 32.6519 13.3335 29.9998 13.3335C27.3476 13.3335 24.8041 14.3871 22.9287 16.2624C21.0533 18.1378 19.9998 20.6813 19.9998 23.3335C19.9998 30.8318 17.6481 33.2602 15.4364 35.5435Z" stroke="white" stroke-width="3.33333" stroke-linecap="round" stroke-linejoin="round"/>
</svg>
