<svg width="60" height="60" viewBox="0 0 60 60" fill="none" xmlns="http://www.w3.org/2000/svg">
<rect width="60" height="60" rx="5" fill="#282573"/>
<path d="M46.667 26.6666V36.6666" stroke="#FFCC00" stroke-width="3.33333" stroke-linecap="round" stroke-linejoin="round"/>
<path d="M45.6997 28.2034C45.998 28.0717 46.2512 27.8555 46.4279 27.5814C46.6045 27.3073 46.6969 26.9873 46.6935 26.6613C46.6902 26.3352 46.5912 26.0172 46.4089 25.7468C46.2266 25.4764 45.969 25.2655 45.668 25.14L31.383 18.6334C30.9487 18.4353 30.477 18.3328 29.9997 18.3328C29.5223 18.3328 29.0506 18.4353 28.6163 18.6334L14.333 25.1334C14.0363 25.2633 13.7839 25.4769 13.6066 25.7481C13.4294 26.0192 13.335 26.3361 13.335 26.66C13.335 26.984 13.4294 27.3009 13.6066 27.572C13.7839 27.8431 14.0363 28.0567 14.333 28.1867L28.6163 34.7C29.0506 34.8981 29.5223 35.0006 29.9997 35.0006C30.477 35.0006 30.9487 34.8981 31.383 34.7L45.6997 28.2034Z" stroke="white" stroke-width="3.33333" stroke-linecap="round" stroke-linejoin="round"/>
<path d="M20 30.8334V36.6667C20 37.9928 21.0536 39.2646 22.9289 40.2022C24.8043 41.1399 27.3478 41.6667 30 41.6667C32.6522 41.6667 35.1957 41.1399 37.0711 40.2022C38.9464 39.2646 40 37.9928 40 36.6667V30.8334" stroke="white" stroke-width="3.33333" stroke-linecap="round" stroke-linejoin="round"/>
</svg>
