<svg width="60" height="60" viewBox="0 0 60 60" fill="none" xmlns="http://www.w3.org/2000/svg">
<rect width="60" height="60" rx="5" fill="#282573"/>
<path d="M13.333 31.6668C14.2171 31.6668 15.0649 31.3156 15.69 30.6905C16.3152 30.0654 16.6663 29.2176 16.6663 28.3335V21.6668C16.6663 20.7828 17.0175 19.9349 17.6427 19.3098C18.2678 18.6847 19.1156 18.3335 19.9997 18.3335C20.8837 18.3335 21.7316 18.6847 22.3567 19.3098C22.9818 19.9349 23.333 20.7828 23.333 21.6668V43.3335C23.333 44.2176 23.6842 45.0654 24.3093 45.6905C24.9344 46.3156 25.7823 46.6668 26.6663 46.6668C27.5504 46.6668 28.3982 46.3156 29.0234 45.6905C29.6485 45.0654 29.9997 44.2176 29.9997 43.3335V16.6668C29.9997 15.7828 30.3509 14.9349 30.976 14.3098C31.6011 13.6847 32.449 13.3335 33.333 13.3335C34.2171 13.3335 35.0649 13.6847 35.69 14.3098C36.3152 14.9349 36.6663 15.7828 36.6663 16.6668V38.3335C36.6663 39.2176 37.0175 40.0654 37.6427 40.6905C38.2678 41.3156 39.1156 41.6668 39.9997 41.6668C40.8837 41.6668 41.7316 41.3156 42.3567 40.6905C42.9818 40.0654 43.333 39.2176 43.333 38.3335V31.6668C43.333 30.7828 43.6842 29.9349 44.3093 29.3098C44.9344 28.6847 45.7823 28.3335 46.6663 28.3335" stroke="white" stroke-width="3.33333" stroke-linecap="round" stroke-linejoin="round"/>
</svg>
