<svg width="60" height="60" viewBox="0 0 60 60" fill="none" xmlns="http://www.w3.org/2000/svg">
<rect width="60" height="60" rx="5" fill="#282573"/>
<path d="M16.667 42.4999V17.4999C16.667 16.3948 17.106 15.335 17.8874 14.5536C18.6688 13.7722 19.7286 13.3333 20.8337 13.3333H41.667C42.109 13.3333 42.5329 13.5088 42.8455 13.8214C43.1581 14.134 43.3337 14.5579 43.3337 14.9999V44.9999C43.3337 45.4419 43.1581 45.8659 42.8455 46.1784C42.5329 46.491 42.109 46.6666 41.667 46.6666H20.8337C19.7286 46.6666 18.6688 46.2276 17.8874 45.4462C17.106 44.6648 16.667 43.605 16.667 42.4999ZM16.667 42.4999C16.667 41.3948 17.106 40.335 17.8874 39.5536C18.6688 38.7722 19.7286 38.3333 20.8337 38.3333H43.3337" stroke="white" stroke-width="3.33333" stroke-linecap="round" stroke-linejoin="round"/>
<path d="M23.333 28.3333H36.6663" stroke="#FFCC00" stroke-width="3.33333" stroke-linecap="round" stroke-linejoin="round"/>
<path d="M23.333 21.6665H33.333" stroke="#FFCC00" stroke-width="3.33333" stroke-linecap="round" stroke-linejoin="round"/>
</svg>
