<svg width="60" height="60" viewBox="0 0 60 60" fill="none" xmlns="http://www.w3.org/2000/svg">
<rect width="60" height="60" rx="5" fill="#282573"/>
<path d="M35 31.6664C33.558 31.2449 32.2914 30.3675 31.39 29.1656C30.4886 27.9637 30.0009 26.5021 30 24.9998C29.9991 26.5021 29.5114 27.9637 28.61 29.1656C27.7086 30.3675 26.442 31.2449 25 31.6664" stroke="#FFCC00" stroke-width="3.33333" stroke-linecap="round" stroke-linejoin="round"/>
<path d="M30 39.9999V18.3333" stroke="white" stroke-width="3.33333" stroke-linecap="round" stroke-linejoin="round"/>
<path d="M39.33 20.8332C39.7135 20.169 39.9391 19.4255 39.9893 18.6602C40.0395 17.8949 39.9129 17.1283 39.6194 16.4197C39.326 15.7111 38.8734 15.0796 38.2968 14.5739C37.7202 14.0682 37.0349 13.7019 36.2941 13.5034C35.5533 13.3049 34.7767 13.2795 34.0245 13.4291C33.2723 13.5787 32.5646 13.8994 31.9561 14.3663C31.3477 14.8332 30.8548 15.4338 30.5156 16.1217C30.1764 16.8096 30 17.5663 30 18.3332C30 17.5663 29.8236 16.8096 29.4844 16.1217C29.1452 15.4338 28.6523 14.8332 28.0439 14.3663C27.4354 13.8994 26.7277 13.5787 25.9755 13.4291C25.2233 13.2795 24.4467 13.3049 23.7059 13.5034C22.9651 13.7019 22.2798 14.0682 21.7032 14.5739C21.1266 15.0796 20.674 15.7111 20.3806 16.4197C20.0871 17.1283 19.9605 17.8949 20.0107 18.6602C20.0609 19.4255 20.2865 20.169 20.67 20.8332" stroke="white" stroke-width="3.33333" stroke-linecap="round" stroke-linejoin="round"/>
<path d="M39.9951 18.5415C40.9748 18.7934 41.8843 19.2649 42.6547 19.9204C43.4252 20.5758 44.0364 21.398 44.442 22.3246C44.8477 23.2512 45.0372 24.258 44.9961 25.2687C44.9551 26.2794 44.6846 27.2675 44.2051 28.1582" stroke="white" stroke-width="3.33333" stroke-linecap="round" stroke-linejoin="round"/>
<path d="M40 39.9998C41.4675 39.9997 42.894 39.5155 44.0582 38.6221C45.2225 37.7287 46.0594 36.4761 46.4392 35.0586C46.819 33.6411 46.7205 32.1379 46.159 30.7821C45.5974 29.4263 44.6042 28.2936 43.3333 27.5598" stroke="white" stroke-width="3.33333" stroke-linecap="round" stroke-linejoin="round"/>
<path d="M43.2787 39.1382C43.3955 40.0419 43.3258 40.96 43.0738 41.8357C42.8219 42.7115 42.3932 43.5262 41.814 44.2298C41.2349 44.9333 40.5176 45.5106 39.7066 45.9261C38.8956 46.3416 38.008 46.5864 37.0987 46.6454C36.1894 46.7044 35.2776 46.5764 34.4197 46.2692C33.5618 45.962 32.7759 45.4822 32.1107 44.8595C31.4455 44.2367 30.915 43.4841 30.552 42.6483C30.1891 41.8125 30.0013 40.9111 30.0003 39.9999C29.9993 40.9111 29.8116 41.8125 29.4486 42.6483C29.0856 43.4841 28.5551 44.2367 27.8899 44.8595C27.2247 45.4822 26.4389 45.962 25.581 46.2692C24.7231 46.5764 23.8113 46.7044 22.9019 46.6454C21.9926 46.5864 21.105 46.3416 20.294 45.9261C19.483 45.5106 18.7658 44.9333 18.1866 44.2298C17.6075 43.5262 17.1787 42.7115 16.9268 41.8357C16.6749 40.96 16.6052 40.0419 16.722 39.1382" stroke="white" stroke-width="3.33333" stroke-linecap="round" stroke-linejoin="round"/>
<path d="M19.9994 39.9998C18.5319 39.9997 17.1054 39.5155 15.9412 38.6221C14.7769 37.7287 13.94 36.4761 13.5602 35.0586C13.1804 33.6411 13.2789 32.1379 13.8404 30.7821C14.402 29.4263 15.3952 28.2936 16.666 27.5598" stroke="white" stroke-width="3.33333" stroke-linecap="round" stroke-linejoin="round"/>
<path d="M20.0046 18.5415C19.0249 18.7934 18.1154 19.2649 17.3449 19.9204C16.5745 20.5758 15.9633 21.398 15.5576 22.3246C15.152 23.2512 14.9625 24.258 15.0035 25.2687C15.0446 26.2794 15.3151 27.2675 15.7946 28.1582" stroke="white" stroke-width="3.33333" stroke-linecap="round" stroke-linejoin="round"/>
</svg>
