<svg width="60" height="60" viewBox="0 0 60 60" fill="none" xmlns="http://www.w3.org/2000/svg">
<rect width="60" height="60" rx="5" fill="#282573"/>
<path d="M39.1663 30.0003C39.1663 37.3337 33.1663 43.3337 25.833 43.3337C23.8439 43.3337 21.9362 42.5435 20.5297 41.137C19.1232 39.7304 18.333 37.8228 18.333 35.8337C18.333 25.8337 31.6663 29.167 31.6663 21.667C31.6663 20.3409 31.1396 19.0691 30.2019 18.1315C29.2642 17.1938 27.9924 16.667 26.6663 16.667C25.3403 16.667 24.0685 17.1938 23.1308 18.1315C22.1931 19.0691 21.6663 20.3409 21.6663 21.667C21.6663 26.667 25.833 35.8337 41.6663 43.3337" stroke="white" stroke-width="3.33333" stroke-linecap="round" stroke-linejoin="round"/>
<path d="M36.667 30H41.667" stroke="white" stroke-width="3.33333" stroke-linecap="round" stroke-linejoin="round"/>
</svg>
