<svg width="60" height="60" viewBox="0 0 60 60" fill="none" xmlns="http://www.w3.org/2000/svg">
<path d="M30 17.9165V51.7498" stroke="#262626" stroke-width="3.33333" stroke-linecap="round" stroke-linejoin="round"/>
<path d="M39.667 29.9998H44.5003" stroke="#262626" stroke-width="3.33333" stroke-linecap="round" stroke-linejoin="round"/>
<path d="M39.667 20.333H44.5003" stroke="#262626" stroke-width="3.33333" stroke-linecap="round" stroke-linejoin="round"/>
<path d="M8.24967 44.4998C7.60873 44.4998 6.99405 44.2451 6.54083 43.7919C6.08762 43.3387 5.83301 42.724 5.83301 42.0831V10.6664C5.83301 10.0255 6.08762 9.41079 6.54083 8.95758C6.99405 8.50437 7.60873 8.24976 8.24967 8.24976H20.333C22.8968 8.24976 25.3555 9.2682 27.1684 11.0811C28.9812 12.8939 29.9997 15.3527 29.9997 17.9164C29.9997 15.3527 31.0181 12.8939 32.831 11.0811C34.6438 9.2682 37.1026 8.24976 39.6663 8.24976H51.7497C52.3906 8.24976 53.0053 8.50437 53.4585 8.95758C53.9117 9.41079 54.1663 10.0255 54.1663 10.6664V42.0831C54.1663 42.724 53.9117 43.3387 53.4585 43.7919C53.0053 44.2451 52.3906 44.4998 51.7497 44.4998H37.2497C35.3268 44.4998 33.4828 45.2636 32.1231 46.6232C30.7635 47.9829 29.9997 49.8269 29.9997 51.7498C29.9997 49.8269 29.2358 47.9829 27.8762 46.6232C26.5166 45.2636 24.6725 44.4998 22.7497 44.4998H8.24967Z" stroke="#262626" stroke-width="3.33333" stroke-linecap="round" stroke-linejoin="round"/>
<path d="M15.5 29.9998H20.3333" stroke="#262626" stroke-width="3.33333" stroke-linecap="round" stroke-linejoin="round"/>
<path d="M15.5 20.333H20.3333" stroke="#262626" stroke-width="3.33333" stroke-linecap="round" stroke-linejoin="round"/>
</svg>
