<svg width="60" height="60" viewBox="0 0 60 60" fill="none" xmlns="http://www.w3.org/2000/svg">
<path d="M37.2497 5.83301H22.7497C21.415 5.83301 20.333 6.91499 20.333 8.24967V13.083C20.333 14.4177 21.415 15.4997 22.7497 15.4997H37.2497C38.5844 15.4997 39.6663 14.4177 39.6663 13.083V8.24967C39.6663 6.91499 38.5844 5.83301 37.2497 5.83301Z" stroke="#262626" stroke-width="3.33333" stroke-linecap="round" stroke-linejoin="round"/>
<path d="M20.3337 10.6665H15.5003C14.2184 10.6665 12.9891 11.1757 12.0826 12.0822C11.1762 12.9886 10.667 14.218 10.667 15.4998V49.3332C10.667 50.6151 11.1762 51.8444 12.0826 52.7509C12.9891 53.6573 14.2184 54.1665 15.5003 54.1665H44.5003C45.7822 54.1665 47.0116 53.6573 47.918 52.7509C48.8244 51.8444 49.3337 50.6151 49.3337 49.3332V48.1248" stroke="#262626" stroke-width="3.33333" stroke-linecap="round" stroke-linejoin="round"/>
<path d="M39.667 10.6665H44.5003C45.3479 10.6674 46.1804 10.8911 46.9142 11.3153C47.648 11.7395 48.2574 12.3491 48.6812 13.0832" stroke="#262626" stroke-width="3.33333" stroke-linecap="round" stroke-linejoin="round"/>
<path d="M20.333 44.4998H22.7497" stroke="#262626" stroke-width="3.33333" stroke-linecap="round" stroke-linejoin="round"/>
<path d="M52.6634 31.5127C53.626 30.55 54.1669 29.2443 54.1669 27.8829C54.1669 26.5214 53.626 25.2157 52.6634 24.253C51.7007 23.2903 50.395 22.7495 49.0335 22.7495C47.6721 22.7495 46.3664 23.2903 45.4037 24.253L35.7129 33.9487C35.1383 34.523 34.7177 35.2328 34.49 36.0125L32.4673 42.9484C32.4066 43.1563 32.403 43.3768 32.4568 43.5866C32.5105 43.7964 32.6197 43.988 32.7729 44.1411C32.926 44.2943 33.1176 44.4035 33.3274 44.4572C33.5372 44.511 33.7577 44.5074 33.9656 44.4467L40.9014 42.424C41.6812 42.1963 42.391 41.7757 42.9653 41.2011L52.6634 31.5127Z" stroke="#262626" stroke-width="3.33333" stroke-linecap="round" stroke-linejoin="round"/>
</svg>
