<svg width="60" height="60" viewBox="0 0 60 60" fill="none" xmlns="http://www.w3.org/2000/svg">
<path d="M54.1663 30.0002H48.173C47.1168 29.9979 46.089 30.3416 45.2467 30.9788C44.4044 31.616 43.794 32.5115 43.5088 33.5285L37.8297 53.7318C37.7931 53.8573 37.7167 53.9675 37.6122 54.046C37.5076 54.1244 37.3804 54.1668 37.2497 54.1668C37.1189 54.1668 36.9917 54.1244 36.8872 54.046C36.7826 53.9675 36.7063 53.8573 36.6697 53.7318L23.3297 6.2685C23.2931 6.143 23.2167 6.03276 23.1122 5.95433C23.0076 5.8759 22.8804 5.8335 22.7497 5.8335C22.6189 5.8335 22.4917 5.8759 22.3872 5.95433C22.2826 6.03276 22.2063 6.143 22.1697 6.2685L16.4905 26.4718C16.2065 27.4848 15.5997 28.3774 14.7623 29.0142C13.9248 29.651 12.9025 29.9971 11.8505 30.0002H5.83301" stroke="#262626" stroke-width="3.33333" stroke-linecap="round" stroke-linejoin="round"/>
</svg>
