<svg width="60" height="60" viewBox="0 0 60 60" fill="none" xmlns="http://www.w3.org/2000/svg">
<path d="M30 25.1665H30.0167" stroke="#262626" stroke-width="3.33333" stroke-linecap="round" stroke-linejoin="round"/>
<path d="M30 34.833H30.0167" stroke="#262626" stroke-width="3.33333" stroke-linecap="round" stroke-linejoin="round"/>
<path d="M30 15.4998H30.0167" stroke="#262626" stroke-width="3.33333" stroke-linecap="round" stroke-linejoin="round"/>
<path d="M39.667 25.1665H39.6837" stroke="#262626" stroke-width="3.33333" stroke-linecap="round" stroke-linejoin="round"/>
<path d="M39.667 34.833H39.6837" stroke="#262626" stroke-width="3.33333" stroke-linecap="round" stroke-linejoin="round"/>
<path d="M39.667 15.4998H39.6837" stroke="#262626" stroke-width="3.33333" stroke-linecap="round" stroke-linejoin="round"/>
<path d="M20.333 25.1665H20.3497" stroke="#262626" stroke-width="3.33333" stroke-linecap="round" stroke-linejoin="round"/>
<path d="M20.333 34.833H20.3497" stroke="#262626" stroke-width="3.33333" stroke-linecap="round" stroke-linejoin="round"/>
<path d="M20.333 15.4998H20.3497" stroke="#262626" stroke-width="3.33333" stroke-linecap="round" stroke-linejoin="round"/>
<path d="M22.75 54.1664V46.9164C22.75 46.2755 23.0046 45.6608 23.4578 45.2076C23.911 44.7544 24.5257 44.4998 25.1667 44.4998H34.8333C35.4743 44.4998 36.089 44.7544 36.5422 45.2076C36.9954 45.6608 37.25 46.2755 37.25 46.9164V54.1664" stroke="#262626" stroke-width="3.33333" stroke-linecap="round" stroke-linejoin="round"/>
<path d="M44.5003 5.83301H15.5003C12.8309 5.83301 10.667 7.99696 10.667 10.6663V49.333C10.667 52.0024 12.8309 54.1663 15.5003 54.1663H44.5003C47.1697 54.1663 49.3337 52.0024 49.3337 49.333V10.6663C49.3337 7.99696 47.1697 5.83301 44.5003 5.83301Z" stroke="#262626" stroke-width="3.33333" stroke-linecap="round" stroke-linejoin="round"/>
</svg>
