<svg width="60" height="60" viewBox="0 0 60 60" fill="none" xmlns="http://www.w3.org/2000/svg">
<path d="M54.1663 39.6665H5.83301" stroke="#262626" stroke-width="3.33333" stroke-linecap="round" stroke-linejoin="round"/>
<path d="M22.7497 17.9164V10.6664C22.7497 10.0255 22.4951 9.41079 22.0418 8.95758C21.5886 8.50437 20.9739 8.24976 20.333 8.24976H15.4997C14.8587 8.24976 14.244 8.50437 13.7908 8.95758C13.3376 9.41079 13.083 10.0255 13.083 10.6664V17.9164" stroke="#262626" stroke-width="3.33333" stroke-linecap="round" stroke-linejoin="round"/>
<path d="M25.167 25.1665H34.8337" stroke="#262626" stroke-width="3.33333" stroke-linecap="round" stroke-linejoin="round"/>
<path d="M46.9167 17.9164V10.6664C46.9167 10.0255 46.6621 9.41079 46.2088 8.95758C45.7556 8.50437 45.1409 8.24976 44.5 8.24976H39.6667C39.0257 8.24976 38.411 8.50437 37.9578 8.95758C37.5046 9.41079 37.25 10.0255 37.25 10.6664V17.9164" stroke="#262626" stroke-width="3.33333" stroke-linecap="round" stroke-linejoin="round"/>
<path d="M49.333 51.7498C50.6149 51.7498 51.8443 51.2406 52.7507 50.3342C53.6571 49.4278 54.1663 48.1984 54.1663 46.9165V37.6099C54.1663 34.2508 49.333 30.4518 49.333 25.9398V20.3332C49.333 19.6922 49.0784 19.0775 48.6252 18.6243C48.172 18.1711 47.5573 17.9165 46.9163 17.9165H37.2497C36.6087 17.9165 35.994 18.1711 35.5408 18.6243C35.0876 19.0775 34.833 19.6922 34.833 20.3332V46.9165C34.833 48.1984 35.3422 49.4278 36.2487 50.3342C37.1551 51.2406 38.3845 51.7498 39.6663 51.7498H49.333Z" stroke="#262626" stroke-width="3.33333" stroke-linecap="round" stroke-linejoin="round"/>
<path d="M10.6663 51.7498C9.38446 51.7498 8.15508 51.2406 7.24866 50.3342C6.34223 49.4278 5.83301 48.1984 5.83301 46.9165V37.6099C5.83301 34.2508 10.6663 30.4518 10.6663 25.9398V20.3332C10.6663 19.6922 10.921 19.0775 11.3742 18.6243C11.8274 18.1711 12.4421 17.9165 13.083 17.9165H22.7497C23.3906 17.9165 24.0053 18.1711 24.4585 18.6243C24.9117 19.0775 25.1663 19.6922 25.1663 20.3332V46.9165C25.1663 48.1984 24.6571 49.4278 23.7507 50.3342C22.8443 51.2406 21.6149 51.7498 20.333 51.7498H10.6663Z" stroke="#262626" stroke-width="3.33333" stroke-linecap="round" stroke-linejoin="round"/>
</svg>
