<svg width="60" height="60" viewBox="0 0 60 60" fill="none" xmlns="http://www.w3.org/2000/svg">
<path d="M37.2497 5.83301H22.7497C21.415 5.83301 20.333 6.91499 20.333 8.24967V13.083C20.333 14.4177 21.415 15.4997 22.7497 15.4997H37.2497C38.5844 15.4997 39.6663 14.4177 39.6663 13.083V8.24967C39.6663 6.91499 38.5844 5.83301 37.2497 5.83301Z" stroke="#262626" stroke-width="3.33333" stroke-linecap="round" stroke-linejoin="round"/>
<path d="M39.667 10.6665H44.5003C45.7822 10.6665 47.0116 11.1757 47.918 12.0822C48.8244 12.9886 49.3337 14.218 49.3337 15.4998V49.3332C49.3337 50.6151 48.8244 51.8444 47.918 52.7509C47.0116 53.6573 45.7822 54.1665 44.5003 54.1665H15.5003C14.2184 54.1665 12.9891 53.6573 12.0826 52.7509C11.1762 51.8444 10.667 50.6151 10.667 49.3332V15.4998C10.667 14.218 11.1762 12.9886 12.0826 12.0822C12.9891 11.1757 14.2184 10.6665 15.5003 10.6665H20.3337" stroke="#262626" stroke-width="3.33333" stroke-linecap="round" stroke-linejoin="round"/>
<path d="M30 27.583H39.6667" stroke="#262626" stroke-width="3.33333" stroke-linecap="round" stroke-linejoin="round"/>
<path d="M30 39.6665H39.6667" stroke="#262626" stroke-width="3.33333" stroke-linecap="round" stroke-linejoin="round"/>
<path d="M20.333 27.583H20.3497" stroke="#262626" stroke-width="3.33333" stroke-linecap="round" stroke-linejoin="round"/>
<path d="M20.333 39.6665H20.3497" stroke="#262626" stroke-width="3.33333" stroke-linecap="round" stroke-linejoin="round"/>
</svg>
