<svg width="60" height="60" viewBox="0 0 60 60" fill="none" xmlns="http://www.w3.org/2000/svg">
<path d="M39.667 17.9165H39.6837" stroke="#262626" stroke-width="3.33333" stroke-linecap="round" stroke-linejoin="round"/>
<path d="M49.333 17.9165L54.1663 19.1248L49.333 20.3332" stroke="#262626" stroke-width="3.33333" stroke-linecap="round" stroke-linejoin="round"/>
<path d="M9.21634 44.4997H29.9997C35.1272 44.4997 40.0447 42.4628 43.6704 38.8371C47.2961 35.2114 49.333 30.2939 49.333 25.1663V17.9163C49.3384 15.8571 48.6861 13.85 47.4712 12.1874C46.2562 10.5247 44.5421 9.29356 42.5785 8.6732C40.615 8.05285 38.5046 8.07574 36.555 8.73854C34.6053 9.40134 32.9183 10.6694 31.7397 12.358L5.83301 49.333" stroke="#262626" stroke-width="3.33333" stroke-linecap="round" stroke-linejoin="round"/>
<path d="M25.167 44.4998V51.7498" stroke="#262626" stroke-width="3.33333" stroke-linecap="round" stroke-linejoin="round"/>
<path d="M34.833 43.8955V51.7497" stroke="#262626" stroke-width="3.33333" stroke-linecap="round" stroke-linejoin="round"/>
<path d="M17.917 44.4997C20.897 44.4996 23.8047 43.5812 26.2442 41.8697C28.6837 40.1581 30.5366 37.7365 31.5508 34.9344C32.5649 32.1322 32.6911 29.0856 31.9121 26.2092C31.133 23.3328 29.4867 20.7663 27.197 18.8589" stroke="#262626" stroke-width="3.33333" stroke-linecap="round" stroke-linejoin="round"/>
</svg>
