<svg width="60" height="60" viewBox="0 0 60 60" fill="none" xmlns="http://www.w3.org/2000/svg">
<path d="M10.3049 21.832C9.95214 20.2431 10.0063 18.5908 10.4623 17.0285C10.9184 15.4661 11.7615 14.0441 12.9136 12.8945C14.0657 11.7448 15.4894 10.9046 17.0527 10.4519C18.616 9.99912 20.2684 9.94842 21.8565 10.3045C22.7307 8.93738 23.9349 7.81232 25.3582 7.03301C26.7814 6.2537 28.378 5.84521 30.0007 5.84521C31.6234 5.84521 33.2199 6.2537 34.6432 7.03301C36.0665 7.81232 37.2707 8.93738 38.1449 10.3045C39.7354 9.94687 41.3906 9.99735 42.9564 10.4512C44.5223 10.9051 45.9479 11.7476 47.1006 12.9004C48.2534 14.0531 49.0959 15.4787 49.5498 17.0446C50.0036 18.6104 50.0541 20.2656 49.6965 21.8561C51.0636 22.7303 52.1887 23.9345 52.968 25.3578C53.7473 26.7811 54.1558 28.3776 54.1558 30.0003C54.1558 31.623 53.7473 33.2195 52.968 34.6428C52.1887 36.0661 51.0636 37.2703 49.6965 38.1445C50.0526 39.7326 50.0019 41.385 49.5491 42.9483C49.0963 44.5116 48.2562 45.9353 47.1065 47.0874C45.9569 48.2395 44.5349 49.0826 42.9725 49.5387C41.4101 49.9947 39.7579 50.0489 38.169 49.6961C37.296 51.0685 36.0909 52.1984 34.6652 52.9811C33.2394 53.7639 31.6393 54.1743 30.0128 54.1743C28.3863 54.1743 26.7861 53.7639 25.3604 52.9811C23.9347 52.1984 22.7295 51.0685 21.8565 49.6961C20.2684 50.0522 18.616 50.0015 17.0527 49.5487C15.4894 49.096 14.0657 48.2558 12.9136 47.1061C11.7615 45.9565 10.9184 44.5345 10.4623 42.9721C10.0063 41.4098 9.95214 39.7575 10.3049 38.1686C8.92727 37.2968 7.79254 36.0907 7.00624 34.6626C6.21994 33.2344 5.80762 31.6306 5.80762 30.0003C5.80762 28.37 6.21994 26.7662 7.00624 25.338C7.79254 23.9099 8.92727 22.7038 10.3049 21.832Z" stroke="#262626" stroke-width="3.33333" stroke-linecap="round" stroke-linejoin="round"/>
<path d="M30 20.3335V30.0002" stroke="#262626" stroke-width="3.33333" stroke-linecap="round" stroke-linejoin="round"/>
<path d="M30 39.6667H30.0167" stroke="#262626" stroke-width="3.33333" stroke-linecap="round" stroke-linejoin="round"/>
</svg>
