<svg width="60" height="60" viewBox="0 0 60 60" fill="none" xmlns="http://www.w3.org/2000/svg">
<path d="M22.75 15.5002V10.6668C22.75 9.38495 23.2592 8.15557 24.1657 7.24915C25.0721 6.34272 26.3015 5.8335 27.5833 5.8335H32.4167C33.6985 5.8335 34.9279 6.34272 35.8343 7.24915C36.7408 8.15557 37.25 9.38495 37.25 10.6668V15.5002" stroke="#262626" stroke-width="3.33333" stroke-linecap="round" stroke-linejoin="round"/>
<path d="M10.667 25.1667C10.667 22.6029 11.6854 20.1442 13.4983 18.3313C15.3111 16.5184 17.7699 15.5 20.3337 15.5H39.667C42.2308 15.5 44.6895 16.5184 46.5024 18.3313C48.3152 20.1442 49.3337 22.6029 49.3337 25.1667V49.3333C49.3337 50.6152 48.8244 51.8446 47.918 52.751C47.0116 53.6574 45.7822 54.1667 44.5003 54.1667H15.5003C14.2184 54.1667 12.9891 53.6574 12.0826 52.751C11.1762 51.8446 10.667 50.6152 10.667 49.3333V25.1667Z" stroke="#262626" stroke-width="3.33333" stroke-linecap="round" stroke-linejoin="round"/>
<path d="M20.333 25.1667H39.6663" stroke="#262626" stroke-width="3.33333" stroke-linecap="round" stroke-linejoin="round"/>
<path d="M20.333 44.5002H39.6663" stroke="#262626" stroke-width="3.33333" stroke-linecap="round" stroke-linejoin="round"/>
<path d="M20.333 54.1668V39.6668C20.333 38.385 20.8422 37.1556 21.7487 36.2491C22.6551 35.3427 23.8845 34.8335 25.1663 34.8335H34.833C36.1149 34.8335 37.3443 35.3427 38.2507 36.2491C39.1571 37.1556 39.6663 38.385 39.6663 39.6668V54.1668" stroke="#262626" stroke-width="3.33333" stroke-linecap="round" stroke-linejoin="round"/>
</svg>
