<svg width="60" height="60" viewBox="0 0 60 60" fill="none" xmlns="http://www.w3.org/2000/svg">
<path d="M37.25 32.4164C35.1591 31.8052 33.3225 30.5329 32.0155 28.7902C30.7085 27.0475 30.0013 24.9282 30 22.7498C29.9987 24.9282 29.2915 27.0475 27.9845 28.7902C26.6775 30.5329 24.8409 31.8052 22.75 32.4164" stroke="#262626" stroke-width="3.33333" stroke-linecap="round" stroke-linejoin="round"/>
<path d="M30 44.4997V13.083" stroke="#262626" stroke-width="3.33333" stroke-linecap="round" stroke-linejoin="round"/>
<path d="M43.5285 16.7081C44.0846 15.745 44.4117 14.6669 44.4845 13.5572C44.5572 12.4475 44.3738 11.3359 43.9482 10.3085C43.5227 9.28104 42.8664 8.36526 42.0303 7.632C41.1942 6.89873 40.2007 6.36764 39.1265 6.07981C38.0523 5.79197 36.9263 5.75512 35.8355 5.97208C34.7448 6.18905 33.7186 6.65403 32.8364 7.33104C31.9541 8.00806 31.2394 8.87896 30.7476 9.87638C30.2557 10.8738 30 11.971 30 13.0831C30 11.971 29.7443 10.8738 29.2524 9.87638C28.7606 8.87896 28.0459 8.00806 27.1636 7.33104C26.2814 6.65403 25.2552 6.18905 24.1645 5.97208C23.0737 5.75512 21.9477 5.79197 20.8735 6.07981C19.7993 6.36764 18.8058 6.89873 17.9697 7.632C17.1336 8.36526 16.4773 9.28104 16.0518 10.3085C15.6262 11.3359 15.4428 12.4475 15.5155 13.5572C15.5883 14.6669 15.9154 15.745 16.4715 16.7081" stroke="#262626" stroke-width="3.33333" stroke-linecap="round" stroke-linejoin="round"/>
<path d="M44.4932 13.3853C45.9137 13.7505 47.2325 14.4342 48.3496 15.3846C49.4668 16.335 50.353 17.5271 50.9412 18.8707C51.5294 20.2143 51.8042 21.6742 51.7446 23.1397C51.6851 24.6052 51.2929 26.0379 50.5977 27.3294" stroke="#262626" stroke-width="3.33333" stroke-linecap="round" stroke-linejoin="round"/>
<path d="M44.5 44.4999C46.6279 44.4998 48.6963 43.7976 50.3844 42.5022C52.0726 41.2068 53.2861 39.3906 53.8368 37.3352C54.3876 35.2798 54.2448 33.1001 53.4305 31.1342C52.6163 29.1683 51.1761 27.526 49.3333 26.4619" stroke="#262626" stroke-width="3.33333" stroke-linecap="round" stroke-linejoin="round"/>
<path d="M49.2539 43.2505C49.4233 44.5609 49.3222 45.8921 48.9569 47.1619C48.5917 48.4317 47.9699 49.6132 47.1302 50.6333C46.2904 51.6534 45.2504 52.4905 44.0745 53.093C42.8985 53.6954 41.6115 54.0504 40.293 54.136C38.9744 54.2215 37.6524 54.0359 36.4084 53.5905C35.1644 53.1451 34.025 52.4494 33.0604 51.5463C32.0958 50.6433 31.3267 49.5521 30.8003 48.3402C30.274 47.1282 30.0017 45.8212 30.0003 44.4999C29.9989 45.8212 29.7266 47.1282 29.2003 48.3402C28.674 49.5521 27.9048 50.6433 26.9402 51.5463C25.9757 52.4494 24.8362 53.1451 23.5923 53.5905C22.3483 54.0359 21.0262 54.2215 19.7077 54.136C18.3891 54.0504 17.1022 53.6954 15.9262 53.093C14.7502 52.4905 13.7102 51.6534 12.8705 50.6333C12.0307 49.6132 11.409 48.4317 11.0437 47.1619C10.6784 45.8921 10.5774 44.5609 10.7467 43.2505" stroke="#262626" stroke-width="3.33333" stroke-linecap="round" stroke-linejoin="round"/>
<path d="M15.4993 44.4999C13.3714 44.4998 11.303 43.7976 9.61483 42.5022C7.92669 41.2068 6.71315 39.3906 6.1624 37.3352C5.61166 35.2798 5.75449 33.1001 6.56874 31.1342C7.383 29.1683 8.82317 27.526 10.6659 26.4619" stroke="#262626" stroke-width="3.33333" stroke-linecap="round" stroke-linejoin="round"/>
<path d="M15.5075 13.3853C14.087 13.7505 12.7682 14.4342 11.651 15.3846C10.5339 16.335 9.64765 17.5271 9.05944 18.8707C8.47124 20.2143 8.19649 21.6742 8.25601 23.1397C8.31553 24.6052 8.70776 26.0379 9.40299 27.3294" stroke="#262626" stroke-width="3.33333" stroke-linecap="round" stroke-linejoin="round"/>
</svg>
