<svg width="60" height="60" viewBox="0 0 60 60" fill="none" xmlns="http://www.w3.org/2000/svg">
<path d="M8.25 34.8336H15.5C16.7819 34.8336 18.0113 35.3428 18.9177 36.2492C19.8241 37.1557 20.3333 38.385 20.3333 39.6669V46.9169C20.3333 48.1988 19.8241 49.4282 18.9177 50.3346C18.0113 51.241 16.7819 51.7502 15.5 51.7502H13.0833C11.8015 51.7502 10.5721 51.241 9.66565 50.3346C8.75922 49.4282 8.25 48.1988 8.25 46.9169V30.0002C8.25 24.2318 10.5415 18.6996 14.6204 14.6207C18.6993 10.5418 24.2315 8.25024 30 8.25024C35.7685 8.25024 41.3007 10.5418 45.3796 14.6207C49.4585 18.6996 51.75 24.2318 51.75 30.0002V46.9169C51.75 48.1988 51.2408 49.4282 50.3343 50.3346C49.4279 51.241 48.1985 51.7502 46.9167 51.7502H44.5C43.2181 51.7502 41.9887 51.241 41.0823 50.3346C40.1759 49.4282 39.6667 48.1988 39.6667 46.9169V39.6669C39.6667 38.385 40.1759 37.1557 41.0823 36.2492C41.9887 35.3428 43.2181 34.8336 44.5 34.8336H51.75" stroke="#262626" stroke-width="3.33333" stroke-linecap="round" stroke-linejoin="round"/>
</svg>
