<svg width="60" height="60" viewBox="0 0 60 60" fill="none" xmlns="http://www.w3.org/2000/svg">
<path d="M37.2503 5.83313H15.5003C14.2184 5.83313 12.9891 6.34235 12.0826 7.24878C11.1762 8.1552 10.667 9.38458 10.667 10.6665V49.3331C10.667 50.615 11.1762 51.8444 12.0826 52.7508C12.9891 53.6572 14.2184 54.1664 15.5003 54.1664H44.5003C45.7822 54.1664 47.0116 53.6572 47.918 52.7508C48.8244 51.8444 49.3337 50.615 49.3337 49.3331V17.9165L37.2503 5.83313Z" stroke="#262626" stroke-width="3.33333" stroke-linecap="round" stroke-linejoin="round"/>
<path d="M34.833 5.83313V15.4998C34.833 16.7817 35.3422 18.0111 36.2487 18.9175C37.1551 19.8239 38.3845 20.3331 39.6663 20.3331H49.333" stroke="#262626" stroke-width="3.33333" stroke-linecap="round" stroke-linejoin="round"/>
<path d="M20.333 44.4998V42.0831" stroke="#262626" stroke-width="3.33333" stroke-linecap="round" stroke-linejoin="round"/>
<path d="M30 44.4998V29.9998" stroke="#262626" stroke-width="3.33333" stroke-linecap="round" stroke-linejoin="round"/>
<path d="M39.667 44.4998V37.2498" stroke="#262626" stroke-width="3.33333" stroke-linecap="round" stroke-linejoin="round"/>
</svg>
