<svg width="60" height="60" viewBox="0 0 60 60" fill="none" xmlns="http://www.w3.org/2000/svg">
<path d="M5.83301 32.4168C7.11489 32.4168 8.34426 31.9076 9.25069 31.0012C10.1571 30.0947 10.6663 28.8654 10.6663 27.5835V17.9168C10.6663 16.6349 11.1756 15.4056 12.082 14.4991C12.9884 13.5927 14.2178 13.0835 15.4997 13.0835C16.7815 13.0835 18.0109 13.5927 18.9174 14.4991C19.8238 15.4056 20.333 16.6349 20.333 17.9168V49.3335C20.333 50.6154 20.8422 51.8447 21.7487 52.7512C22.6551 53.6576 23.8845 54.1668 25.1663 54.1668C26.4482 54.1668 27.6776 53.6576 28.584 52.7512C29.4904 51.8447 29.9997 50.6154 29.9997 49.3335V10.6668C29.9997 9.38495 30.5089 8.15557 31.4153 7.24915C32.3217 6.34272 33.5511 5.8335 34.833 5.8335C36.1149 5.8335 37.3442 6.34272 38.2507 7.24915C39.1571 8.15557 39.6663 9.38495 39.6663 10.6668V42.0835C39.6663 43.3654 40.1756 44.5947 41.082 45.5012C41.9884 46.4076 43.2178 46.9168 44.4997 46.9168C45.7815 46.9168 47.0109 46.4076 47.9173 45.5012C48.8238 44.5947 49.333 43.3654 49.333 42.0835V32.4168C49.333 31.1349 49.8422 29.9056 50.7486 28.9991C51.6551 28.0927 52.8844 27.5835 54.1663 27.5835" stroke="#262626" stroke-width="3.33333" stroke-linecap="round" stroke-linejoin="round"/>
</svg>
