<svg width="60" height="60" viewBox="0 0 60 60" fill="none" xmlns="http://www.w3.org/2000/svg">
<path d="M49.8167 15.4997L8.24997 27.583L6.07497 21.7831C5.34997 19.1247 6.79997 16.4664 9.21664 15.7414L41.8416 6.07472C44.5 5.34972 47.1583 6.79972 47.8833 9.21639L49.8167 15.4997Z" stroke="#262626" stroke-width="3.33333" stroke-linecap="round" stroke-linejoin="round"/>
<path d="M15.9834 13.8081L23.4751 23.2331" stroke="#262626" stroke-width="3.33333" stroke-linecap="round" stroke-linejoin="round"/>
<path d="M30.9668 9.21655L38.4585 18.8832" stroke="#262626" stroke-width="3.33333" stroke-linecap="round" stroke-linejoin="round"/>
<path d="M8.25 27.583H51.75V46.9163C51.75 48.1982 51.2408 49.4276 50.3343 50.334C49.4279 51.2404 48.1985 51.7497 46.9167 51.7497H13.0833C11.8015 51.7497 10.5721 51.2404 9.66565 50.334C8.75922 49.4276 8.25 48.1982 8.25 46.9163V27.583Z" stroke="#262626" stroke-width="3.33333" stroke-linecap="round" stroke-linejoin="round"/>
</svg>
