<svg width="60" height="60" viewBox="0 0 60 60" fill="none" xmlns="http://www.w3.org/2000/svg">
<path d="M29.9997 32.4168C31.3344 32.4168 32.4163 31.3349 32.4163 30.0002C32.4163 28.6655 31.3344 27.5835 29.9997 27.5835C28.665 27.5835 27.583 28.6655 27.583 30.0002C27.583 31.3349 28.665 32.4168 29.9997 32.4168Z" stroke="#262626" stroke-width="3.33333" stroke-linecap="round" stroke-linejoin="round"/>
<path d="M49.8165 49.8165C54.7465 44.9107 49.8649 32.0299 38.9415 21.0582C27.9699 10.1348 15.089 5.25318 10.1832 10.1832C5.25318 15.089 10.1348 27.9699 21.0582 38.9415C32.0299 49.8649 44.9107 54.7465 49.8165 49.8165Z" stroke="#262626" stroke-width="3.33333" stroke-linecap="round" stroke-linejoin="round"/>
<path d="M38.9415 38.9415C49.8649 27.9699 54.7465 15.089 49.8165 10.1832C44.9107 5.25318 32.0299 10.1348 21.0582 21.0582C10.1348 32.0299 5.25318 44.9107 10.1832 49.8165C15.089 54.7465 27.9699 49.8649 38.9415 38.9415Z" stroke="#262626" stroke-width="3.33333" stroke-linecap="round" stroke-linejoin="round"/>
</svg>
