<svg width="60" height="60" viewBox="0 0 60 60" fill="none" xmlns="http://www.w3.org/2000/svg">
<path d="M29.9997 25.1664H10.6663C7.99696 25.1664 5.83301 27.3303 5.83301 29.9997V49.333C5.83301 52.0024 7.99696 54.1664 10.6663 54.1664H29.9997C32.6691 54.1664 34.833 52.0024 34.833 49.333V29.9997C34.833 27.3303 32.6691 25.1664 29.9997 25.1664Z" stroke="#262626" stroke-width="3.33333" stroke-linecap="round" stroke-linejoin="round"/>
<path d="M44.307 34.8331L52.7653 26.3747C53.662 25.3803 54.1583 24.0888 54.1583 22.7497C54.1583 21.4107 53.662 20.1192 52.7653 19.1247L40.682 7.23474C39.6875 6.33807 38.396 5.8418 37.057 5.8418C35.718 5.8418 34.4265 6.33807 33.432 7.23474L25.167 15.4997" stroke="#262626" stroke-width="3.33333" stroke-linecap="round" stroke-linejoin="round"/>
<path d="M15.5 44.4998H15.5167" stroke="#262626" stroke-width="3.33333" stroke-linecap="round" stroke-linejoin="round"/>
<path d="M25.167 34.8331H25.1837" stroke="#262626" stroke-width="3.33333" stroke-linecap="round" stroke-linejoin="round"/>
<path d="M37.25 15.4998H37.2667" stroke="#262626" stroke-width="3.33333" stroke-linecap="round" stroke-linejoin="round"/>
<path d="M44.5 22.7498H44.5167" stroke="#262626" stroke-width="3.33333" stroke-linecap="round" stroke-linejoin="round"/>
</svg>
