<svg width="60" height="60" viewBox="0 0 60 60" fill="none" xmlns="http://www.w3.org/2000/svg">
<path d="M8.25 13.0831V46.9165C8.25 48.8393 10.5415 50.6833 14.6204 52.043C18.6993 53.4026 24.2315 54.1665 30 54.1665C35.7685 54.1665 41.3007 53.4026 45.3796 52.043C49.4585 50.6833 51.75 48.8393 51.75 46.9165V13.0831" stroke="#262626" stroke-width="3.33333" stroke-linecap="round" stroke-linejoin="round"/>
<path d="M8.25 29.9998C8.25 31.9226 10.5415 33.7666 14.6204 35.1263C18.6993 36.4859 24.2315 37.2498 30 37.2498C35.7685 37.2498 41.3007 36.4859 45.3796 35.1263C49.4585 33.7666 51.75 31.9226 51.75 29.9998" stroke="#262626" stroke-width="3.33333" stroke-linecap="round" stroke-linejoin="round"/>
<path d="M30 20.3331C42.0122 20.3331 51.75 17.0872 51.75 13.0831C51.75 9.07907 42.0122 5.83313 30 5.83313C17.9878 5.83313 8.25 9.07907 8.25 13.0831C8.25 17.0872 17.9878 20.3331 30 20.3331Z" stroke="#262626" stroke-width="3.33333" stroke-linecap="round" stroke-linejoin="round"/>
</svg>
