<svg width="60" height="60" viewBox="0 0 60 60" fill="none" xmlns="http://www.w3.org/2000/svg">
<path d="M40.2463 19.7532L35.8866 32.8297C35.6493 33.5417 35.2495 34.1885 34.7189 34.7192C34.1883 35.2498 33.5414 35.6496 32.8295 35.8868L19.7529 40.2465L24.1126 27.1699C24.3499 26.458 24.7496 25.8111 25.2803 25.2805C25.8109 24.7499 26.4578 24.3501 27.1697 24.1128L40.2463 19.7532Z" stroke="#262626" stroke-width="3.33333" stroke-linecap="round" stroke-linejoin="round"/>
<path d="M29.9997 54.1663C43.3465 54.1663 54.1663 43.3465 54.1663 29.9997C54.1663 16.6528 43.3465 5.83301 29.9997 5.83301C16.6528 5.83301 5.83301 16.6528 5.83301 29.9997C5.83301 43.3465 16.6528 54.1663 29.9997 54.1663Z" stroke="#262626" stroke-width="3.33333" stroke-linecap="round" stroke-linejoin="round"/>
</svg>
