<svg width="60" height="60" viewBox="0 0 60 60" fill="none" xmlns="http://www.w3.org/2000/svg">
<path d="M30 29.9998H30.0167" stroke="#262626" stroke-width="3.33333" stroke-linecap="round" stroke-linejoin="round"/>
<path d="M39.6663 15.4997V10.6663C39.6663 9.38446 39.1571 8.15508 38.2507 7.24866C37.3443 6.34223 36.1149 5.83301 34.833 5.83301H25.1663C23.8845 5.83301 22.6551 6.34223 21.7487 7.24866C20.8422 8.15508 20.333 9.38446 20.333 10.6663V15.4997" stroke="#262626" stroke-width="3.33333" stroke-linecap="round" stroke-linejoin="round"/>
<path d="M54.1663 32.4165C46.9956 37.1507 38.5922 39.6745 29.9997 39.6745C21.4071 39.6745 13.0038 37.1507 5.83301 32.4165" stroke="#262626" stroke-width="3.33333" stroke-linecap="round" stroke-linejoin="round"/>
<path d="M49.333 15.4998H10.6663C7.99696 15.4998 5.83301 17.6637 5.83301 20.3331V44.4998C5.83301 47.1691 7.99696 49.3331 10.6663 49.3331H49.333C52.0024 49.3331 54.1663 47.1691 54.1663 44.4998V20.3331C54.1663 17.6637 52.0024 15.4998 49.333 15.4998Z" stroke="#262626" stroke-width="3.33333" stroke-linecap="round" stroke-linejoin="round"/>
</svg>
