<svg width="60" height="60" viewBox="0 0 60 60" fill="none" xmlns="http://www.w3.org/2000/svg">
<g filter="url(#filter0_iii_669_2107)">
<path d="M26.315 6.66008L34.311 20.3179L23.0315 23.5254C15.2407 20.9475 10.6515 15.9919 7.88511 10.8984C6.71839 8.75027 6.72788 4.80469 11.3647 4.80469H23.0789C24.4106 4.80469 25.6423 5.51089 26.315 6.66008Z" fill="#4686EC"/>
<path d="M26.315 6.66008L34.311 20.3179L23.0315 23.5254C15.2407 20.9475 10.6515 15.9919 7.88511 10.8984C6.71839 8.75027 6.72788 4.80469 11.3647 4.80469H23.0789C24.4106 4.80469 25.6423 5.51089 26.315 6.66008Z" fill="url(#paint0_radial_669_2107)"/>
<path d="M26.315 6.66008L34.311 20.3179L23.0315 23.5254C15.2407 20.9475 10.6515 15.9919 7.88511 10.8984C6.71839 8.75027 6.72788 4.80469 11.3647 4.80469H23.0789C24.4106 4.80469 25.6423 5.51089 26.315 6.66008Z" fill="url(#paint1_linear_669_2107)"/>
</g>
<g filter="url(#filter1_iii_669_2107)">
<path d="M33.3981 6.66008L25.4023 20.3179L36.6816 23.5254C44.4724 20.9475 49.0617 15.9919 51.828 10.8984C52.9948 8.75027 52.9853 4.80469 48.3484 4.80469H36.6343C35.3025 4.80469 34.0708 5.51089 33.3981 6.66008Z" fill="#4686EC"/>
<path d="M33.3981 6.66008L25.4023 20.3179L36.6816 23.5254C44.4724 20.9475 49.0617 15.9919 51.828 10.8984C52.9948 8.75027 52.9853 4.80469 48.3484 4.80469H36.6343C35.3025 4.80469 34.0708 5.51089 33.3981 6.66008Z" fill="url(#paint2_radial_669_2107)"/>
<path d="M33.3981 6.66008L25.4023 20.3179L36.6816 23.5254C44.4724 20.9475 49.0617 15.9919 51.828 10.8984C52.9948 8.75027 52.9853 4.80469 48.3484 4.80469H36.6343C35.3025 4.80469 34.0708 5.51089 33.3981 6.66008Z" fill="url(#paint3_linear_669_2107)"/>
</g>
<path d="M33.3981 6.66008L25.4023 20.3179L36.6816 23.5254C44.4724 20.9475 49.0617 15.9919 51.828 10.8984C52.9948 8.75027 52.9853 4.80469 48.3484 4.80469H36.6343C35.3025 4.80469 34.0708 5.51089 33.3981 6.66008Z" fill="url(#paint4_linear_669_2107)"/>
<path d="M30.0885 56.5863C40.4932 56.5863 48.9279 48.1516 48.9279 37.7469C48.9279 27.3422 40.4932 18.9075 30.0885 18.9075C19.6837 18.9075 11.249 27.3422 11.249 37.7469C11.249 48.1516 19.6837 56.5863 30.0885 56.5863Z" fill="url(#paint5_linear_669_2107)"/>
<path d="M30.0885 56.5863C40.4932 56.5863 48.9279 48.1516 48.9279 37.7469C48.9279 27.3422 40.4932 18.9075 30.0885 18.9075C19.6837 18.9075 11.249 27.3422 11.249 37.7469C11.249 48.1516 19.6837 56.5863 30.0885 56.5863Z" fill="url(#paint6_linear_669_2107)"/>
<path d="M30.0885 54.0375C39.0855 54.0375 46.3791 46.7439 46.3791 37.7469C46.3791 28.7498 39.0855 21.4563 30.0885 21.4563C21.0914 21.4563 13.7979 28.7498 13.7979 37.7469C13.7979 46.7439 21.0914 54.0375 30.0885 54.0375Z" fill="url(#paint7_linear_669_2107)"/>
<path d="M30.0878 51.9686C37.9422 51.9686 44.3094 45.6014 44.3094 37.747C44.3094 29.8926 37.9422 23.5254 30.0878 23.5254C22.2334 23.5254 15.8662 29.8926 15.8662 37.747C15.8662 45.6014 22.2334 51.9686 30.0878 51.9686Z" fill="url(#paint8_linear_669_2107)"/>
<path d="M30.0878 51.9686C37.9422 51.9686 44.3094 45.6014 44.3094 37.747C44.3094 29.8926 37.9422 23.5254 30.0878 23.5254C22.2334 23.5254 15.8662 29.8926 15.8662 37.747C15.8662 45.6014 22.2334 51.9686 30.0878 51.9686Z" fill="url(#paint9_radial_669_2107)"/>
<path d="M30.0878 51.9686C37.9422 51.9686 44.3094 45.6014 44.3094 37.747C44.3094 29.8926 37.9422 23.5254 30.0878 23.5254C22.2334 23.5254 15.8662 29.8926 15.8662 37.747C15.8662 45.6014 22.2334 51.9686 30.0878 51.9686Z" fill="url(#paint10_radial_669_2107)"/>
<g filter="url(#filter2_ii_669_2107)">
<path d="M32.2871 31.5C32.2871 30.6716 31.6156 30 30.7871 30H27.1484C26.7343 30 26.3984 30.3358 26.3984 30.75V32.9561C26.3984 33.3703 26.7343 33.7061 27.1484 33.7061H27.9806C28.2393 33.7061 28.4493 33.9159 28.4493 34.1749V45C28.4493 45.5177 28.8689 45.9375 29.3868 45.9375H31.3496C31.8674 45.9375 32.2871 45.5177 32.2871 45V31.5Z" fill="#6F3955"/>
</g>
<path d="M32.2871 31.5C32.2871 30.6716 31.6156 30 30.7871 30H27.1484C26.7343 30 26.3984 30.3358 26.3984 30.75V32.9561C26.3984 33.3703 26.7343 33.7061 27.1484 33.7061H27.9806C28.2393 33.7061 28.4493 33.9159 28.4493 34.1749V45C28.4493 45.5177 28.8689 45.9375 29.3868 45.9375H31.3496C31.8674 45.9375 32.2871 45.5177 32.2871 45V31.5Z" fill="url(#paint11_linear_669_2107)"/>
<defs>
<filter id="filter0_iii_669_2107" x="6.76953" y="4.42969" width="27.916" height="19.5645" filterUnits="userSpaceOnUse" color-interpolation-filters="sRGB">
<feFlood flood-opacity="0" result="BackgroundImageFix"/>
<feBlend mode="normal" in="SourceGraphic" in2="BackgroundImageFix" result="shape"/>
<feColorMatrix in="SourceAlpha" type="matrix" values="0 0 0 0 0 0 0 0 0 0 0 0 0 0 0 0 0 0 127 0" result="hardAlpha"/>
<feOffset dx="-0.375" dy="-0.375"/>
<feGaussianBlur stdDeviation="0.375"/>
<feComposite in2="hardAlpha" operator="arithmetic" k2="-1" k3="1"/>
<feColorMatrix type="matrix" values="0 0 0 0 0.317647 0 0 0 0 0.458824 0 0 0 0 0.886275 0 0 0 1 0"/>
<feBlend mode="normal" in2="shape" result="effect1_innerShadow_669_2107"/>
<feColorMatrix in="SourceAlpha" type="matrix" values="0 0 0 0 0 0 0 0 0 0 0 0 0 0 0 0 0 0 127 0" result="hardAlpha"/>
<feOffset dx="0.375" dy="0.375"/>
<feGaussianBlur stdDeviation="0.375"/>
<feComposite in2="hardAlpha" operator="arithmetic" k2="-1" k3="1"/>
<feColorMatrix type="matrix" values="0 0 0 0 0.317647 0 0 0 0 0.458824 0 0 0 0 0.886275 0 0 0 1 0"/>
<feBlend mode="normal" in2="effect1_innerShadow_669_2107" result="effect2_innerShadow_669_2107"/>
<feColorMatrix in="SourceAlpha" type="matrix" values="0 0 0 0 0 0 0 0 0 0 0 0 0 0 0 0 0 0 127 0" result="hardAlpha"/>
<feOffset dx="-0.46875" dy="0.46875"/>
<feGaussianBlur stdDeviation="0.46875"/>
<feComposite in2="hardAlpha" operator="arithmetic" k2="-1" k3="1"/>
<feColorMatrix type="matrix" values="0 0 0 0 0.372549 0 0 0 0 0.607843 0 0 0 0 0.960784 0 0 0 1 0"/>
<feBlend mode="normal" in2="effect2_innerShadow_669_2107" result="effect3_innerShadow_669_2107"/>
</filter>
<filter id="filter1_iii_669_2107" x="24.9336" y="4.42969" width="27.916" height="19.5645" filterUnits="userSpaceOnUse" color-interpolation-filters="sRGB">
<feFlood flood-opacity="0" result="BackgroundImageFix"/>
<feBlend mode="normal" in="SourceGraphic" in2="BackgroundImageFix" result="shape"/>
<feColorMatrix in="SourceAlpha" type="matrix" values="0 0 0 0 0 0 0 0 0 0 0 0 0 0 0 0 0 0 127 0" result="hardAlpha"/>
<feOffset dx="-0.375" dy="-0.375"/>
<feGaussianBlur stdDeviation="0.375"/>
<feComposite in2="hardAlpha" operator="arithmetic" k2="-1" k3="1"/>
<feColorMatrix type="matrix" values="0 0 0 0 0.317647 0 0 0 0 0.458824 0 0 0 0 0.886275 0 0 0 1 0"/>
<feBlend mode="normal" in2="shape" result="effect1_innerShadow_669_2107"/>
<feColorMatrix in="SourceAlpha" type="matrix" values="0 0 0 0 0 0 0 0 0 0 0 0 0 0 0 0 0 0 127 0" result="hardAlpha"/>
<feOffset dx="0.375" dy="0.375"/>
<feGaussianBlur stdDeviation="0.375"/>
<feComposite in2="hardAlpha" operator="arithmetic" k2="-1" k3="1"/>
<feColorMatrix type="matrix" values="0 0 0 0 0.317647 0 0 0 0 0.458824 0 0 0 0 0.886275 0 0 0 1 0"/>
<feBlend mode="normal" in2="effect1_innerShadow_669_2107" result="effect2_innerShadow_669_2107"/>
<feColorMatrix in="SourceAlpha" type="matrix" values="0 0 0 0 0 0 0 0 0 0 0 0 0 0 0 0 0 0 127 0" result="hardAlpha"/>
<feOffset dx="-0.46875" dy="0.46875"/>
<feGaussianBlur stdDeviation="0.46875"/>
<feComposite in2="hardAlpha" operator="arithmetic" k2="-1" k3="1"/>
<feColorMatrix type="matrix" values="0 0 0 0 0.372549 0 0 0 0 0.607843 0 0 0 0 0.960784 0 0 0 1 0"/>
<feBlend mode="normal" in2="effect2_innerShadow_669_2107" result="effect3_innerShadow_669_2107"/>
</filter>
<filter id="filter2_ii_669_2107" x="25.8359" y="29.625" width="6.82617" height="16.875" filterUnits="userSpaceOnUse" color-interpolation-filters="sRGB">
<feFlood flood-opacity="0" result="BackgroundImageFix"/>
<feBlend mode="normal" in="SourceGraphic" in2="BackgroundImageFix" result="shape"/>
<feColorMatrix in="SourceAlpha" type="matrix" values="0 0 0 0 0 0 0 0 0 0 0 0 0 0 0 0 0 0 127 0" result="hardAlpha"/>
<feOffset dx="-0.5625" dy="0.5625"/>
<feGaussianBlur stdDeviation="0.5625"/>
<feComposite in2="hardAlpha" operator="arithmetic" k2="-1" k3="1"/>
<feColorMatrix type="matrix" values="0 0 0 0 0.392157 0 0 0 0 0.164706 0 0 0 0 0.254902 0 0 0 1 0"/>
<feBlend mode="normal" in2="shape" result="effect1_innerShadow_669_2107"/>
<feColorMatrix in="SourceAlpha" type="matrix" values="0 0 0 0 0 0 0 0 0 0 0 0 0 0 0 0 0 0 127 0" result="hardAlpha"/>
<feOffset dx="0.375" dy="-0.375"/>
<feGaussianBlur stdDeviation="0.375"/>
<feComposite in2="hardAlpha" operator="arithmetic" k2="-1" k3="1"/>
<feColorMatrix type="matrix" values="0 0 0 0 0.501961 0 0 0 0 0.333333 0 0 0 0 0.360784 0 0 0 1 0"/>
<feBlend mode="normal" in2="effect1_innerShadow_669_2107" result="effect2_innerShadow_669_2107"/>
</filter>
<radialGradient id="paint0_radial_669_2107" cx="0" cy="0" r="1" gradientUnits="userSpaceOnUse" gradientTransform="translate(24.5683 22.203) rotate(-123.321) scale(8.6316 32.2356)">
<stop stop-color="#3669D9"/>
<stop offset="1" stop-color="#3669D9" stop-opacity="0"/>
</radialGradient>
<linearGradient id="paint1_linear_669_2107" x1="12.3411" y1="3.79348" x2="15.707" y2="12.1739" gradientUnits="userSpaceOnUse">
<stop stop-color="#3D89EC"/>
<stop offset="1" stop-color="#3D89EC" stop-opacity="0"/>
</linearGradient>
<radialGradient id="paint2_radial_669_2107" cx="0" cy="0" r="1" gradientUnits="userSpaceOnUse" gradientTransform="translate(35.1448 22.203) rotate(-57.2648) scale(5.71631 12.5387)">
<stop stop-color="#3669D9"/>
<stop offset="1" stop-color="#3669D9" stop-opacity="0"/>
</radialGradient>
<linearGradient id="paint3_linear_669_2107" x1="47.3721" y1="3.79348" x2="44.0061" y2="12.1739" gradientUnits="userSpaceOnUse">
<stop stop-color="#3D89EC"/>
<stop offset="1" stop-color="#3D89EC" stop-opacity="0"/>
</linearGradient>
<linearGradient id="paint4_linear_669_2107" x1="29.5287" y1="13.2438" x2="30.1618" y2="13.5931" gradientUnits="userSpaceOnUse">
<stop stop-color="#1A6DD8"/>
<stop offset="1" stop-color="#1A6DD8" stop-opacity="0"/>
</linearGradient>
<linearGradient id="paint5_linear_669_2107" x1="40.1585" y1="31.0689" x2="27.0251" y2="43.938" gradientUnits="userSpaceOnUse">
<stop stop-color="#F4C654"/>
<stop offset="1" stop-color="#DC9729"/>
</linearGradient>
<linearGradient id="paint6_linear_669_2107" x1="23.5051" y1="57.5017" x2="27.7541" y2="32.8638" gradientUnits="userSpaceOnUse">
<stop stop-color="#FA8547"/>
<stop offset="1" stop-color="#FA8547" stop-opacity="0"/>
</linearGradient>
<linearGradient id="paint7_linear_669_2107" x1="44.9315" y1="34.9003" x2="30.0884" y2="34.9003" gradientUnits="userSpaceOnUse">
<stop stop-color="#F9A842"/>
<stop offset="1" stop-color="#FAA742"/>
</linearGradient>
<linearGradient id="paint8_linear_669_2107" x1="23.5135" y1="35.9436" x2="44.7282" y2="35.9436" gradientUnits="userSpaceOnUse">
<stop stop-color="#FAA945"/>
<stop offset="1" stop-color="#EC9936"/>
</linearGradient>
<radialGradient id="paint9_radial_669_2107" cx="0" cy="0" r="1" gradientUnits="userSpaceOnUse" gradientTransform="translate(35.602 37.747) rotate(180) scale(19.7357 16.817)">
<stop offset="0.893104" stop-color="#F7B44D" stop-opacity="0"/>
<stop offset="1" stop-color="#F7B44D"/>
</radialGradient>
<radialGradient id="paint10_radial_669_2107" cx="0" cy="0" r="1" gradientUnits="userSpaceOnUse" gradientTransform="translate(26.3956 37.747) scale(18.99 16.6525)">
<stop offset="0.878757" stop-color="#D2801F" stop-opacity="0"/>
<stop offset="0.98268" stop-color="#D2801F"/>
</radialGradient>
<linearGradient id="paint11_linear_669_2107" x1="30.7931" y1="45.9375" x2="30.7931" y2="44.4066" gradientUnits="userSpaceOnUse">
<stop stop-color="#693B2E"/>
<stop offset="1" stop-color="#693B2E" stop-opacity="0"/>
</linearGradient>
</defs>
</svg>
