<svg width="60" height="60" viewBox="0 0 60 60" fill="none" xmlns="http://www.w3.org/2000/svg">
<path d="M33.7945 40.8197H26.1543C25.8954 40.8197 25.6855 41.0296 25.6855 41.2885V56.0301C25.6855 56.289 25.8954 56.4989 26.1543 56.4989H33.7945C34.0534 56.4989 34.2633 56.289 34.2633 56.0301V41.2885C34.2633 41.0296 34.0534 40.8197 33.7945 40.8197Z" fill="#5B363A"/>
<path d="M33.7945 40.8197H26.1543C25.8954 40.8197 25.6855 41.0296 25.6855 41.2885V56.0301C25.6855 56.289 25.8954 56.4989 26.1543 56.4989H33.7945C34.0534 56.4989 34.2633 56.289 34.2633 56.0301V41.2885C34.2633 41.0296 34.0534 40.8197 33.7945 40.8197Z" fill="url(#paint0_linear_672_2935)"/>
<path d="M33.7945 40.8197H26.1543C25.8954 40.8197 25.6855 41.0296 25.6855 41.2885V56.0301C25.6855 56.289 25.8954 56.4989 26.1543 56.4989H33.7945C34.0534 56.4989 34.2633 56.289 34.2633 56.0301V41.2885C34.2633 41.0296 34.0534 40.8197 33.7945 40.8197Z" fill="url(#paint1_linear_672_2935)"/>
<path d="M33.7945 40.8197H26.1543C25.8954 40.8197 25.6855 41.0296 25.6855 41.2885V56.0301C25.6855 56.289 25.8954 56.4989 26.1543 56.4989H33.7945C34.0534 56.4989 34.2633 56.289 34.2633 56.0301V41.2885C34.2633 41.0296 34.0534 40.8197 33.7945 40.8197Z" fill="url(#paint2_linear_672_2935)"/>
<path d="M33.7945 40.8197H26.1543C25.8954 40.8197 25.6855 41.0296 25.6855 41.2885V56.0301C25.6855 56.289 25.8954 56.4989 26.1543 56.4989H33.7945C34.0534 56.4989 34.2633 56.289 34.2633 56.0301V41.2885C34.2633 41.0296 34.0534 40.8197 33.7945 40.8197Z" fill="url(#paint3_linear_672_2935)"/>
<path d="M33.7945 40.8197H26.1543C25.8954 40.8197 25.6855 41.0296 25.6855 41.2885V56.0301C25.6855 56.289 25.8954 56.4989 26.1543 56.4989H33.7945C34.0534 56.4989 34.2633 56.289 34.2633 56.0301V41.2885C34.2633 41.0296 34.0534 40.8197 33.7945 40.8197Z" fill="url(#paint4_radial_672_2935)"/>
<g filter="url(#filter0_i_672_2935)">
<path d="M39.7859 13.7379C39.6117 13.7207 39.4778 13.5734 39.4778 13.3984C39.4778 8.14106 35.2159 3.87915 29.9586 3.87915C24.7011 3.87915 20.4392 8.14106 20.4392 13.3984C20.4392 13.5746 20.3046 13.7232 20.1293 13.7411C15.1452 14.2492 11.2561 18.4593 11.2561 23.5778C11.2561 25.1071 11.6033 26.5553 12.2231 27.8479C12.3854 28.1864 12.3004 28.5961 12.0165 28.8417C9.91287 30.6621 8.58203 33.3514 8.58203 36.3518C8.58203 41.8347 13.0269 46.2796 18.5099 46.2796H41.4368C46.9199 46.2796 51.3647 41.8347 51.3647 36.3518C51.3647 33.3514 50.0339 30.6621 47.9303 28.8417C47.6464 28.5961 47.5615 28.1864 47.7239 27.8479C48.3436 26.5553 48.6906 25.1071 48.6906 23.5778C48.6906 18.4485 44.7854 14.2314 39.7859 13.7379Z" fill="url(#paint5_radial_672_2935)"/>
<path d="M39.7859 13.7379C39.6117 13.7207 39.4778 13.5734 39.4778 13.3984C39.4778 8.14106 35.2159 3.87915 29.9586 3.87915C24.7011 3.87915 20.4392 8.14106 20.4392 13.3984C20.4392 13.5746 20.3046 13.7232 20.1293 13.7411C15.1452 14.2492 11.2561 18.4593 11.2561 23.5778C11.2561 25.1071 11.6033 26.5553 12.2231 27.8479C12.3854 28.1864 12.3004 28.5961 12.0165 28.8417C9.91287 30.6621 8.58203 33.3514 8.58203 36.3518C8.58203 41.8347 13.0269 46.2796 18.5099 46.2796H41.4368C46.9199 46.2796 51.3647 41.8347 51.3647 36.3518C51.3647 33.3514 50.0339 30.6621 47.9303 28.8417C47.6464 28.5961 47.5615 28.1864 47.7239 27.8479C48.3436 26.5553 48.6906 25.1071 48.6906 23.5778C48.6906 18.4485 44.7854 14.2314 39.7859 13.7379Z" fill="url(#paint6_radial_672_2935)"/>
<path d="M39.7859 13.7379C39.6117 13.7207 39.4778 13.5734 39.4778 13.3984C39.4778 8.14106 35.2159 3.87915 29.9586 3.87915C24.7011 3.87915 20.4392 8.14106 20.4392 13.3984C20.4392 13.5746 20.3046 13.7232 20.1293 13.7411C15.1452 14.2492 11.2561 18.4593 11.2561 23.5778C11.2561 25.1071 11.6033 26.5553 12.2231 27.8479C12.3854 28.1864 12.3004 28.5961 12.0165 28.8417C9.91287 30.6621 8.58203 33.3514 8.58203 36.3518C8.58203 41.8347 13.0269 46.2796 18.5099 46.2796H41.4368C46.9199 46.2796 51.3647 41.8347 51.3647 36.3518C51.3647 33.3514 50.0339 30.6621 47.9303 28.8417C47.6464 28.5961 47.5615 28.1864 47.7239 27.8479C48.3436 26.5553 48.6906 25.1071 48.6906 23.5778C48.6906 18.4485 44.7854 14.2314 39.7859 13.7379Z" fill="url(#paint7_radial_672_2935)"/>
<path d="M39.7859 13.7379C39.6117 13.7207 39.4778 13.5734 39.4778 13.3984C39.4778 8.14106 35.2159 3.87915 29.9586 3.87915C24.7011 3.87915 20.4392 8.14106 20.4392 13.3984C20.4392 13.5746 20.3046 13.7232 20.1293 13.7411C15.1452 14.2492 11.2561 18.4593 11.2561 23.5778C11.2561 25.1071 11.6033 26.5553 12.2231 27.8479C12.3854 28.1864 12.3004 28.5961 12.0165 28.8417C9.91287 30.6621 8.58203 33.3514 8.58203 36.3518C8.58203 41.8347 13.0269 46.2796 18.5099 46.2796H41.4368C46.9199 46.2796 51.3647 41.8347 51.3647 36.3518C51.3647 33.3514 50.0339 30.6621 47.9303 28.8417C47.6464 28.5961 47.5615 28.1864 47.7239 27.8479C48.3436 26.5553 48.6906 25.1071 48.6906 23.5778C48.6906 18.4485 44.7854 14.2314 39.7859 13.7379Z" fill="url(#paint8_radial_672_2935)"/>
<path d="M39.7859 13.7379C39.6117 13.7207 39.4778 13.5734 39.4778 13.3984C39.4778 8.14106 35.2159 3.87915 29.9586 3.87915C24.7011 3.87915 20.4392 8.14106 20.4392 13.3984C20.4392 13.5746 20.3046 13.7232 20.1293 13.7411C15.1452 14.2492 11.2561 18.4593 11.2561 23.5778C11.2561 25.1071 11.6033 26.5553 12.2231 27.8479C12.3854 28.1864 12.3004 28.5961 12.0165 28.8417C9.91287 30.6621 8.58203 33.3514 8.58203 36.3518C8.58203 41.8347 13.0269 46.2796 18.5099 46.2796H41.4368C46.9199 46.2796 51.3647 41.8347 51.3647 36.3518C51.3647 33.3514 50.0339 30.6621 47.9303 28.8417C47.6464 28.5961 47.5615 28.1864 47.7239 27.8479C48.3436 26.5553 48.6906 25.1071 48.6906 23.5778C48.6906 18.4485 44.7854 14.2314 39.7859 13.7379Z" fill="url(#paint9_radial_672_2935)"/>
<path d="M39.7859 13.7379C39.6117 13.7207 39.4778 13.5734 39.4778 13.3984C39.4778 8.14106 35.2159 3.87915 29.9586 3.87915C24.7011 3.87915 20.4392 8.14106 20.4392 13.3984C20.4392 13.5746 20.3046 13.7232 20.1293 13.7411C15.1452 14.2492 11.2561 18.4593 11.2561 23.5778C11.2561 25.1071 11.6033 26.5553 12.2231 27.8479C12.3854 28.1864 12.3004 28.5961 12.0165 28.8417C9.91287 30.6621 8.58203 33.3514 8.58203 36.3518C8.58203 41.8347 13.0269 46.2796 18.5099 46.2796H41.4368C46.9199 46.2796 51.3647 41.8347 51.3647 36.3518C51.3647 33.3514 50.0339 30.6621 47.9303 28.8417C47.6464 28.5961 47.5615 28.1864 47.7239 27.8479C48.3436 26.5553 48.6906 25.1071 48.6906 23.5778C48.6906 18.4485 44.7854 14.2314 39.7859 13.7379Z" fill="url(#paint10_radial_672_2935)"/>
<path d="M39.7859 13.7379C39.6117 13.7207 39.4778 13.5734 39.4778 13.3984C39.4778 8.14106 35.2159 3.87915 29.9586 3.87915C24.7011 3.87915 20.4392 8.14106 20.4392 13.3984C20.4392 13.5746 20.3046 13.7232 20.1293 13.7411C15.1452 14.2492 11.2561 18.4593 11.2561 23.5778C11.2561 25.1071 11.6033 26.5553 12.2231 27.8479C12.3854 28.1864 12.3004 28.5961 12.0165 28.8417C9.91287 30.6621 8.58203 33.3514 8.58203 36.3518C8.58203 41.8347 13.0269 46.2796 18.5099 46.2796H41.4368C46.9199 46.2796 51.3647 41.8347 51.3647 36.3518C51.3647 33.3514 50.0339 30.6621 47.9303 28.8417C47.6464 28.5961 47.5615 28.1864 47.7239 27.8479C48.3436 26.5553 48.6906 25.1071 48.6906 23.5778C48.6906 18.4485 44.7854 14.2314 39.7859 13.7379Z" fill="url(#paint11_radial_672_2935)"/>
<path d="M39.7859 13.7379C39.6117 13.7207 39.4778 13.5734 39.4778 13.3984C39.4778 8.14106 35.2159 3.87915 29.9586 3.87915C24.7011 3.87915 20.4392 8.14106 20.4392 13.3984C20.4392 13.5746 20.3046 13.7232 20.1293 13.7411C15.1452 14.2492 11.2561 18.4593 11.2561 23.5778C11.2561 25.1071 11.6033 26.5553 12.2231 27.8479C12.3854 28.1864 12.3004 28.5961 12.0165 28.8417C9.91287 30.6621 8.58203 33.3514 8.58203 36.3518C8.58203 41.8347 13.0269 46.2796 18.5099 46.2796H41.4368C46.9199 46.2796 51.3647 41.8347 51.3647 36.3518C51.3647 33.3514 50.0339 30.6621 47.9303 28.8417C47.6464 28.5961 47.5615 28.1864 47.7239 27.8479C48.3436 26.5553 48.6906 25.1071 48.6906 23.5778C48.6906 18.4485 44.7854 14.2314 39.7859 13.7379Z" fill="url(#paint12_radial_672_2935)"/>
<path d="M39.7859 13.7379C39.6117 13.7207 39.4778 13.5734 39.4778 13.3984C39.4778 8.14106 35.2159 3.87915 29.9586 3.87915C24.7011 3.87915 20.4392 8.14106 20.4392 13.3984C20.4392 13.5746 20.3046 13.7232 20.1293 13.7411C15.1452 14.2492 11.2561 18.4593 11.2561 23.5778C11.2561 25.1071 11.6033 26.5553 12.2231 27.8479C12.3854 28.1864 12.3004 28.5961 12.0165 28.8417C9.91287 30.6621 8.58203 33.3514 8.58203 36.3518C8.58203 41.8347 13.0269 46.2796 18.5099 46.2796H41.4368C46.9199 46.2796 51.3647 41.8347 51.3647 36.3518C51.3647 33.3514 50.0339 30.6621 47.9303 28.8417C47.6464 28.5961 47.5615 28.1864 47.7239 27.8479C48.3436 26.5553 48.6906 25.1071 48.6906 23.5778C48.6906 18.4485 44.7854 14.2314 39.7859 13.7379Z" fill="url(#paint13_radial_672_2935)"/>
<path d="M39.7859 13.7379C39.6117 13.7207 39.4778 13.5734 39.4778 13.3984C39.4778 8.14106 35.2159 3.87915 29.9586 3.87915C24.7011 3.87915 20.4392 8.14106 20.4392 13.3984C20.4392 13.5746 20.3046 13.7232 20.1293 13.7411C15.1452 14.2492 11.2561 18.4593 11.2561 23.5778C11.2561 25.1071 11.6033 26.5553 12.2231 27.8479C12.3854 28.1864 12.3004 28.5961 12.0165 28.8417C9.91287 30.6621 8.58203 33.3514 8.58203 36.3518C8.58203 41.8347 13.0269 46.2796 18.5099 46.2796H41.4368C46.9199 46.2796 51.3647 41.8347 51.3647 36.3518C51.3647 33.3514 50.0339 30.6621 47.9303 28.8417C47.6464 28.5961 47.5615 28.1864 47.7239 27.8479C48.3436 26.5553 48.6906 25.1071 48.6906 23.5778C48.6906 18.4485 44.7854 14.2314 39.7859 13.7379Z" fill="url(#paint14_linear_672_2935)"/>
<path d="M39.7859 13.7379C39.6117 13.7207 39.4778 13.5734 39.4778 13.3984C39.4778 8.14106 35.2159 3.87915 29.9586 3.87915C24.7011 3.87915 20.4392 8.14106 20.4392 13.3984C20.4392 13.5746 20.3046 13.7232 20.1293 13.7411C15.1452 14.2492 11.2561 18.4593 11.2561 23.5778C11.2561 25.1071 11.6033 26.5553 12.2231 27.8479C12.3854 28.1864 12.3004 28.5961 12.0165 28.8417C9.91287 30.6621 8.58203 33.3514 8.58203 36.3518C8.58203 41.8347 13.0269 46.2796 18.5099 46.2796H41.4368C46.9199 46.2796 51.3647 41.8347 51.3647 36.3518C51.3647 33.3514 50.0339 30.6621 47.9303 28.8417C47.6464 28.5961 47.5615 28.1864 47.7239 27.8479C48.3436 26.5553 48.6906 25.1071 48.6906 23.5778C48.6906 18.4485 44.7854 14.2314 39.7859 13.7379Z" fill="url(#paint15_radial_672_2935)" fill-opacity="0.75"/>
</g>
<g filter="url(#filter1_f_672_2935)">
<path d="M33.0285 46.7963H30.5264V55.9724H33.0285V46.7963Z" fill="url(#paint16_linear_672_2935)"/>
</g>
<g filter="url(#filter2_f_672_2935)">
<path d="M29.1297 46.7963H30.5264V55.9724H29.1297V46.7963Z" fill="url(#paint17_linear_672_2935)"/>
</g>
<g filter="url(#filter3_f_672_2935)">
<path d="M43.535 26.818C46.2405 26.2192 47.9846 23.7045 47.4305 21.2013C46.8765 18.6981 44.2341 17.1543 41.5286 17.7531C38.8231 18.352 37.079 20.8666 37.6331 23.3698C38.1871 25.873 40.8295 27.4168 43.535 26.818Z" fill="url(#paint18_radial_672_2935)"/>
</g>
<g filter="url(#filter4_f_672_2935)">
<path d="M33.4248 14.8112C36.0621 14.4657 37.9803 12.5083 37.7092 10.4391C37.4382 8.36994 35.0805 6.97261 32.4432 7.31808C29.8059 7.66355 27.8877 9.621 28.1587 11.6902C28.4298 13.7593 30.7875 15.1567 33.4248 14.8112Z" fill="url(#paint19_radial_672_2935)"/>
</g>
<g filter="url(#filter5_f_672_2935)">
<path d="M45.4393 39.7358C48.1448 39.137 49.8889 36.6223 49.3348 34.1192C48.7808 31.616 46.1384 30.0722 43.4329 30.671C40.7274 31.2698 38.9833 33.7845 39.5374 36.2877C40.0914 38.7908 42.7338 40.3346 45.4393 39.7358Z" fill="url(#paint20_radial_672_2935)"/>
</g>
<g filter="url(#filter6_f_672_2935)">
<path d="M17.5928 29.2181H37.9834C39.8584 29.1888 44.1124 28.9661 46.128 28.3098" stroke="url(#paint21_linear_672_2935)" stroke-width="0.9375" stroke-linecap="round" stroke-linejoin="round"/>
</g>
<g filter="url(#filter7_f_672_2935)">
<path d="M20.9912 14.2181C22.2608 14.9994 25.8193 16.5619 29.8975 16.5619C33.9756 16.5619 37.8955 14.9994 39.0088 14.2181" stroke="url(#paint22_linear_672_2935)" stroke-width="0.75" stroke-linecap="round"/>
</g>
<g filter="url(#filter8_f_672_2935)">
<path d="M26.9629 5.86853C25.3418 6.47401 22.041 8.40565 22.041 14.2181" stroke="url(#paint23_linear_672_2935)" stroke-width="0.9375" stroke-linecap="round"/>
</g>
<g filter="url(#filter9_f_672_2935)">
<path d="M18.5199 15.3704C16.9991 15.8049 13.7797 17.6575 13.0687 21.5918C12.5108 24.6792 13.681 28.0504 14.4315 28.8207" stroke="url(#paint24_linear_672_2935)" stroke-width="0.9375" stroke-linecap="round"/>
</g>
<g filter="url(#filter10_f_672_2935)">
<path d="M14.3128 28.5837C12.9302 29.3146 10.1889 31.8901 10.2836 36.3459C10.3784 40.8016 13.7202 43.3771 15.3793 44.1078" stroke="url(#paint25_linear_672_2935)" stroke-width="0.9375" stroke-linecap="round"/>
</g>
<defs>
<filter id="filter0_i_672_2935" x="8.58203" y="3.87915" width="43.7207" height="42.4004" filterUnits="userSpaceOnUse" color-interpolation-filters="sRGB">
<feFlood flood-opacity="0" result="BackgroundImageFix"/>
<feBlend mode="normal" in="SourceGraphic" in2="BackgroundImageFix" result="shape"/>
<feColorMatrix in="SourceAlpha" type="matrix" values="0 0 0 0 0 0 0 0 0 0 0 0 0 0 0 0 0 0 127 0" result="hardAlpha"/>
<feOffset dx="0.9375"/>
<feGaussianBlur stdDeviation="0.9375"/>
<feComposite in2="hardAlpha" operator="arithmetic" k2="-1" k3="1"/>
<feColorMatrix type="matrix" values="0 0 0 0 0.619608 0 0 0 0 0.72549 0 0 0 0 0.639216 0 0 0 1 0"/>
<feBlend mode="normal" in2="shape" result="effect1_innerShadow_672_2935"/>
</filter>
<filter id="filter1_f_672_2935" x="28.6514" y="44.9213" width="6.25195" height="12.9261" filterUnits="userSpaceOnUse" color-interpolation-filters="sRGB">
<feFlood flood-opacity="0" result="BackgroundImageFix"/>
<feBlend mode="normal" in="SourceGraphic" in2="BackgroundImageFix" result="shape"/>
<feGaussianBlur stdDeviation="0.9375" result="effect1_foregroundBlur_672_2935"/>
</filter>
<filter id="filter2_f_672_2935" x="27.2549" y="44.9213" width="5.14648" height="12.9261" filterUnits="userSpaceOnUse" color-interpolation-filters="sRGB">
<feFlood flood-opacity="0" result="BackgroundImageFix"/>
<feBlend mode="normal" in="SourceGraphic" in2="BackgroundImageFix" result="shape"/>
<feGaussianBlur stdDeviation="0.9375" result="effect1_foregroundBlur_672_2935"/>
</filter>
<filter id="filter3_f_672_2935" x="33.7803" y="13.8741" width="17.5029" height="16.8228" filterUnits="userSpaceOnUse" color-interpolation-filters="sRGB">
<feFlood flood-opacity="0" result="BackgroundImageFix"/>
<feBlend mode="normal" in="SourceGraphic" in2="BackgroundImageFix" result="shape"/>
<feGaussianBlur stdDeviation="1.875" result="effect1_foregroundBlur_672_2935"/>
</filter>
<filter id="filter4_f_672_2935" x="24.3828" y="3.51562" width="17.1016" height="15.098" filterUnits="userSpaceOnUse" color-interpolation-filters="sRGB">
<feFlood flood-opacity="0" result="BackgroundImageFix"/>
<feBlend mode="normal" in="SourceGraphic" in2="BackgroundImageFix" result="shape"/>
<feGaussianBlur stdDeviation="1.875" result="effect1_foregroundBlur_672_2935"/>
</filter>
<filter id="filter5_f_672_2935" x="35.6846" y="26.792" width="17.5029" height="16.8228" filterUnits="userSpaceOnUse" color-interpolation-filters="sRGB">
<feFlood flood-opacity="0" result="BackgroundImageFix"/>
<feBlend mode="normal" in="SourceGraphic" in2="BackgroundImageFix" result="shape"/>
<feGaussianBlur stdDeviation="1.875" result="effect1_foregroundBlur_672_2935"/>
</filter>
<filter id="filter6_f_672_2935" x="15.9053" y="26.6222" width="31.9102" height="4.28345" filterUnits="userSpaceOnUse" color-interpolation-filters="sRGB">
<feFlood flood-opacity="0" result="BackgroundImageFix"/>
<feBlend mode="normal" in="SourceGraphic" in2="BackgroundImageFix" result="shape"/>
<feGaussianBlur stdDeviation="0.609375" result="effect1_foregroundBlur_672_2935"/>
</filter>
<filter id="filter7_f_672_2935" x="19.7725" y="12.9994" width="20.4551" height="4.78125" filterUnits="userSpaceOnUse" color-interpolation-filters="sRGB">
<feFlood flood-opacity="0" result="BackgroundImageFix"/>
<feBlend mode="normal" in="SourceGraphic" in2="BackgroundImageFix" result="shape"/>
<feGaussianBlur stdDeviation="0.421875" result="effect1_foregroundBlur_672_2935"/>
</filter>
<filter id="filter8_f_672_2935" x="19.6973" y="3.52466" width="9.60938" height="13.0372" filterUnits="userSpaceOnUse" color-interpolation-filters="sRGB">
<feFlood flood-opacity="0" result="BackgroundImageFix"/>
<feBlend mode="normal" in="SourceGraphic" in2="BackgroundImageFix" result="shape"/>
<feGaussianBlur stdDeviation="0.9375" result="effect1_foregroundBlur_672_2935"/>
</filter>
<filter id="filter9_f_672_2935" x="10.1104" y="12.5577" width="11.2217" height="19.0754" filterUnits="userSpaceOnUse" color-interpolation-filters="sRGB">
<feFlood flood-opacity="0" result="BackgroundImageFix"/>
<feBlend mode="normal" in="SourceGraphic" in2="BackgroundImageFix" result="shape"/>
<feGaussianBlur stdDeviation="1.17188" result="effect1_foregroundBlur_672_2935"/>
</filter>
<filter id="filter10_f_672_2935" x="7.46875" y="25.7711" width="10.7227" height="21.1493" filterUnits="userSpaceOnUse" color-interpolation-filters="sRGB">
<feFlood flood-opacity="0" result="BackgroundImageFix"/>
<feBlend mode="normal" in="SourceGraphic" in2="BackgroundImageFix" result="shape"/>
<feGaussianBlur stdDeviation="1.17188" result="effect1_foregroundBlur_672_2935"/>
</filter>
<linearGradient id="paint0_linear_672_2935" x1="24.559" y1="53.0672" x2="29.1307" y2="53.0672" gradientUnits="userSpaceOnUse">
<stop stop-color="#908181"/>
<stop offset="1" stop-color="#908181" stop-opacity="0"/>
</linearGradient>
<linearGradient id="paint1_linear_672_2935" x1="25.6855" y1="51.9979" x2="26.9922" y2="51.9979" gradientUnits="userSpaceOnUse">
<stop stop-color="#5B363A"/>
<stop offset="1" stop-color="#5B363A" stop-opacity="0"/>
</linearGradient>
<linearGradient id="paint2_linear_672_2935" x1="29.9744" y1="56.4988" x2="29.9744" y2="55.7513" gradientUnits="userSpaceOnUse">
<stop stop-color="#6A2F5B"/>
<stop offset="1" stop-color="#6A2F5B" stop-opacity="0"/>
</linearGradient>
<linearGradient id="paint3_linear_672_2935" x1="35.2304" y1="50.0775" x2="33.5604" y2="50.0775" gradientUnits="userSpaceOnUse">
<stop stop-color="#6D5C5C"/>
<stop offset="1" stop-color="#6D5C5C" stop-opacity="0"/>
</linearGradient>
<radialGradient id="paint4_radial_672_2935" cx="0" cy="0" r="1" gradientUnits="userSpaceOnUse" gradientTransform="translate(32.9159 46.269) rotate(89.5848) scale(4.04308 1.49453)">
<stop offset="0.406931" stop-color="#4D2D31"/>
<stop offset="1" stop-color="#4D2D31" stop-opacity="0"/>
</radialGradient>
<radialGradient id="paint5_radial_672_2935" cx="0" cy="0" r="1" gradientUnits="userSpaceOnUse" gradientTransform="translate(44.7801 29.218) rotate(180) scale(31.0547 31.3346)">
<stop stop-color="#7CBE4D"/>
<stop offset="1" stop-color="#549756"/>
</radialGradient>
<radialGradient id="paint6_radial_672_2935" cx="0" cy="0" r="1" gradientUnits="userSpaceOnUse" gradientTransform="translate(13.0223 43.6321) rotate(-24.0013) scale(17.5742 19.566)">
<stop stop-color="#438154"/>
<stop offset="1" stop-color="#438154" stop-opacity="0"/>
</radialGradient>
<radialGradient id="paint7_radial_672_2935" cx="0" cy="0" r="1" gradientUnits="userSpaceOnUse" gradientTransform="translate(9.97546 25.0793) scale(16.875 12.556)">
<stop stop-color="#438154"/>
<stop offset="1" stop-color="#438154" stop-opacity="0"/>
</radialGradient>
<radialGradient id="paint8_radial_672_2935" cx="0" cy="0" r="1" gradientUnits="userSpaceOnUse" gradientTransform="translate(19.8192 8.59301) rotate(25.622) scale(12.7368 9.75343)">
<stop stop-color="#438154"/>
<stop offset="1" stop-color="#438154" stop-opacity="0"/>
</radialGradient>
<radialGradient id="paint9_radial_672_2935" cx="0" cy="0" r="1" gradientUnits="userSpaceOnUse" gradientTransform="translate(18.7059 13.5735) rotate(159.814) scale(4.24511 1.75515)">
<stop stop-color="#438154"/>
<stop offset="1" stop-color="#438154" stop-opacity="0"/>
</radialGradient>
<radialGradient id="paint10_radial_672_2935" cx="0" cy="0" r="1" gradientUnits="userSpaceOnUse" gradientTransform="translate(48.5301 22.7727) rotate(168.972) scale(12.0586 12.5413)">
<stop stop-color="#81CB44"/>
<stop offset="1" stop-color="#81CB44" stop-opacity="0"/>
</radialGradient>
<radialGradient id="paint11_radial_672_2935" cx="0" cy="0" r="1" gradientUnits="userSpaceOnUse" gradientTransform="translate(53.5692 36.718) rotate(-167.6) scale(16.9181 17.5953)">
<stop stop-color="#81CB44"/>
<stop offset="1" stop-color="#81CB44" stop-opacity="0"/>
</radialGradient>
<radialGradient id="paint12_radial_672_2935" cx="0" cy="0" r="1" gradientUnits="userSpaceOnUse" gradientTransform="translate(43.1395 6.8352) rotate(156.009) scale(14.4111 15.1824)">
<stop stop-color="#81CB44"/>
<stop offset="1" stop-color="#81CB44" stop-opacity="0"/>
</radialGradient>
<radialGradient id="paint13_radial_672_2935" cx="0" cy="0" r="1" gradientUnits="userSpaceOnUse" gradientTransform="translate(15.6005 50.5461) rotate(-6.43265) scale(24.0577 12.6971)">
<stop stop-color="#5A6F6C"/>
<stop offset="1" stop-color="#5A6F6C" stop-opacity="0"/>
</radialGradient>
<linearGradient id="paint14_linear_672_2935" x1="21.9259" y1="47.4482" x2="22.1639" y2="43.7989" gradientUnits="userSpaceOnUse">
<stop stop-color="#7A7397"/>
<stop offset="1" stop-color="#7A7397" stop-opacity="0"/>
</linearGradient>
<radialGradient id="paint15_radial_672_2935" cx="0" cy="0" r="1" gradientUnits="userSpaceOnUse" gradientTransform="translate(25.2578 26.5047) scale(14.5971 5.7603)">
<stop stop-color="#5B8F67"/>
<stop offset="0.83377" stop-color="#5B8F67" stop-opacity="0"/>
</radialGradient>
<linearGradient id="paint16_linear_672_2935" x1="31.7774" y1="41.6108" x2="31.7774" y2="55.9725" gradientUnits="userSpaceOnUse">
<stop stop-color="#7F5B60" stop-opacity="0"/>
<stop offset="1" stop-color="#7F5B60"/>
</linearGradient>
<linearGradient id="paint17_linear_672_2935" x1="29.8281" y1="44.8387" x2="29.8281" y2="55.9724" gradientUnits="userSpaceOnUse">
<stop stop-color="#683B4B" stop-opacity="0"/>
<stop offset="1" stop-color="#683B4B"/>
</linearGradient>
<radialGradient id="paint18_radial_672_2935" cx="0" cy="0" r="1" gradientUnits="userSpaceOnUse" gradientTransform="translate(45.2353 20.9008) rotate(146.713) scale(8.51132 5.91193)">
<stop stop-color="#A0E271"/>
<stop offset="1" stop-color="#A0E271" stop-opacity="0"/>
</radialGradient>
<radialGradient id="paint19_radial_672_2935" cx="0" cy="0" r="1" gradientUnits="userSpaceOnUse" gradientTransform="translate(37.3388 9.64785) rotate(155.917) scale(8.47181 3.63795)">
<stop stop-color="#A0E271"/>
<stop offset="1" stop-color="#A0E271" stop-opacity="0"/>
</radialGradient>
<radialGradient id="paint20_radial_672_2935" cx="0" cy="0" r="1" gradientUnits="userSpaceOnUse" gradientTransform="translate(47.1397 33.8184) rotate(146.713) scale(8.51132 5.91193)">
<stop stop-color="#A0E271"/>
<stop offset="1" stop-color="#A0E271" stop-opacity="0"/>
</radialGradient>
<linearGradient id="paint21_linear_672_2935" x1="48.1787" y1="29.2181" x2="17.5928" y2="29.2181" gradientUnits="userSpaceOnUse">
<stop offset="0.091954" stop-color="#9DDB71"/>
<stop offset="1" stop-color="#6CA663" stop-opacity="0"/>
</linearGradient>
<linearGradient id="paint22_linear_672_2935" x1="39.5815" y1="16.562" x2="16.5381" y2="16.562" gradientUnits="userSpaceOnUse">
<stop stop-color="#9DDB71"/>
<stop offset="0.505208" stop-color="#6CA663" stop-opacity="0"/>
<stop offset="1" stop-color="#6CA663"/>
</linearGradient>
<linearGradient id="paint23_linear_672_2935" x1="23.4966" y1="13.9482" x2="31.6735" y2="-0.924062" gradientUnits="userSpaceOnUse">
<stop stop-color="#8FB48E"/>
<stop offset="1" stop-color="#8FB48E" stop-opacity="0"/>
</linearGradient>
<linearGradient id="paint24_linear_672_2935" x1="14.5782" y1="28.3858" x2="29.7028" y2="8.966" gradientUnits="userSpaceOnUse">
<stop stop-color="#8FB48E"/>
<stop offset="1" stop-color="#8FB48E" stop-opacity="0"/>
</linearGradient>
<linearGradient id="paint25_linear_672_2935" x1="11.9676" y1="31.0934" x2="6.74633" y2="43.7748" gradientUnits="userSpaceOnUse">
<stop stop-color="#8FB48E"/>
<stop offset="1" stop-color="#8FB48E" stop-opacity="0"/>
</linearGradient>
</defs>
</svg>
