<svg width="60" height="60" viewBox="0 0 60 60" fill="none" xmlns="http://www.w3.org/2000/svg">
<g filter="url(#filter0_i_667_1429)">
<path d="M12.7196 22.5956L13.392 21.5154C16.015 17.3026 21.4665 15.8637 25.827 18.2333L31.2272 21.168L23.1535 34.4449L20.5017 27.8049L12.4063 41.9038C11.0889 44.2035 8.14512 44.9816 5.86351 43.6331L5.64505 43.5039C3.36893 42.1588 2.62804 39.2147 3.99629 36.9523L10.7844 25.7282L10.7738 25.7207L11.3004 24.875L12.3931 23.0683C12.4935 22.9022 12.6027 22.7447 12.7196 22.5956Z" fill="url(#paint0_linear_667_1429)"/>
<path d="M12.7196 22.5956L13.392 21.5154C16.015 17.3026 21.4665 15.8637 25.827 18.2333L31.2272 21.168L23.1535 34.4449L20.5017 27.8049L12.4063 41.9038C11.0889 44.2035 8.14512 44.9816 5.86351 43.6331L5.64505 43.5039C3.36893 42.1588 2.62804 39.2147 3.99629 36.9523L10.7844 25.7282L10.7738 25.7207L11.3004 24.875L12.3931 23.0683C12.4935 22.9022 12.6027 22.7447 12.7196 22.5956Z" fill="url(#paint1_radial_667_1429)"/>
</g>
<path d="M28.4495 50.8435L27.1914 47.6097L29.7268 43.8867H56.0327V52.4718C56.0327 54.5427 54.3538 56.2218 52.2827 56.2218H36.3129C32.8335 56.2218 29.711 54.086 28.4495 50.8435Z" fill="url(#paint2_linear_667_1429)"/>
<path d="M28.4495 50.8435L27.1914 47.6097L29.7268 43.8867H56.0327V52.4718C56.0327 54.5427 54.3538 56.2218 52.2827 56.2218H36.3129C32.8335 56.2218 29.711 54.086 28.4495 50.8435Z" fill="url(#paint3_linear_667_1429)"/>
<path d="M23.1543 42.9224H23.1543C20.6523 42.9224 18.624 44.9506 18.624 47.4526V51.4895C18.624 53.9915 20.6523 56.0198 23.1543 56.0198H23.1543C25.6563 56.0198 27.6846 53.9915 27.6846 51.4895V47.4526C27.6846 44.9506 25.6563 42.9224 23.1543 42.9224Z" fill="url(#paint4_radial_667_1429)"/>
<path d="M23.1543 42.9224H23.1543C20.6523 42.9224 18.624 44.9506 18.624 47.4526V51.4895C18.624 53.9915 20.6523 56.0198 23.1543 56.0198H23.1543C25.6563 56.0198 27.6846 53.9915 27.6846 51.4895V47.4526C27.6846 44.9506 25.6563 42.9224 23.1543 42.9224Z" fill="url(#paint5_radial_667_1429)"/>
<path d="M23.1543 42.9224H23.1543C20.6523 42.9224 18.624 44.9506 18.624 47.4526V51.4895C18.624 53.9915 20.6523 56.0198 23.1543 56.0198H23.1543C25.6563 56.0198 27.6846 53.9915 27.6846 51.4895V47.4526C27.6846 44.9506 25.6563 42.9224 23.1543 42.9224Z" fill="url(#paint6_radial_667_1429)"/>
<path d="M34.0126 4.24927C34.2706 3.79954 34.845 3.64479 35.2942 3.90392L40.8511 7.10966C41.2987 7.36781 41.453 7.93935 41.1961 8.38764L15.805 52.7221C15.7126 52.8834 15.5744 53.0135 15.408 53.096L9.45334 56.0489C9.15066 56.1991 8.89564 56.0501 8.87914 55.7128L8.45522 49.0723C8.44646 48.8932 8.48925 48.7153 8.57852 48.5598L34.0126 4.24927Z" fill="url(#paint7_radial_667_1429)"/>
<path d="M34.0126 4.24927C34.2706 3.79954 34.845 3.64479 35.2942 3.90392L40.8511 7.10966C41.2987 7.36781 41.453 7.93935 41.1961 8.38764L15.805 52.7221C15.7126 52.8834 15.5744 53.0135 15.408 53.096L9.45334 56.0489C9.15066 56.1991 8.89564 56.0501 8.87914 55.7128L8.45522 49.0723C8.44646 48.8932 8.48925 48.7153 8.57852 48.5598L34.0126 4.24927Z" fill="url(#paint8_radial_667_1429)"/>
<g filter="url(#filter1_f_667_1429)">
<path d="M32.3276 15.7158L15.3564 45.598" stroke="#FF7150" stroke-width="1.875" stroke-linecap="round"/>
</g>
<g filter="url(#filter2_i_667_1429)">
<path d="M18.6234 41.3076C16.2783 42.9471 15.5236 46.2456 17.0535 48.6638C18.6209 51.1412 22.0665 51.8681 24.5629 50.3312L31.1805 46.257C31.9948 45.7556 33.0621 46.0195 33.549 46.8426C36.0983 51.1515 40.9215 53.5832 45.9015 53.0706L53.0865 52.3309C54.7598 52.1588 56.0318 50.7491 56.0318 49.0669V35.6976C56.0318 33.5758 54.733 31.669 52.7745 30.8522C48.5989 29.1107 40.9962 25.8101 33.4712 21.8794L24.582 37.405L18.6234 41.3076Z" fill="url(#paint9_linear_667_1429)"/>
<path d="M18.6234 41.3076C16.2783 42.9471 15.5236 46.2456 17.0535 48.6638C18.6209 51.1412 22.0665 51.8681 24.5629 50.3312L31.1805 46.257C31.9948 45.7556 33.0621 46.0195 33.549 46.8426C36.0983 51.1515 40.9215 53.5832 45.9015 53.0706L53.0865 52.3309C54.7598 52.1588 56.0318 50.7491 56.0318 49.0669V35.6976C56.0318 33.5758 54.733 31.669 52.7745 30.8522C48.5989 29.1107 40.9962 25.8101 33.4712 21.8794L24.582 37.405L18.6234 41.3076Z" fill="url(#paint10_radial_667_1429)"/>
<path d="M18.6234 41.3076C16.2783 42.9471 15.5236 46.2456 17.0535 48.6638C18.6209 51.1412 22.0665 51.8681 24.5629 50.3312L31.1805 46.257C31.9948 45.7556 33.0621 46.0195 33.549 46.8426C36.0983 51.1515 40.9215 53.5832 45.9015 53.0706L53.0865 52.3309C54.7598 52.1588 56.0318 50.7491 56.0318 49.0669V35.6976C56.0318 33.5758 54.733 31.669 52.7745 30.8522C48.5989 29.1107 40.9962 25.8101 33.4712 21.8794L24.582 37.405L18.6234 41.3076Z" fill="url(#paint11_radial_667_1429)"/>
<path d="M18.6234 41.3076C16.2783 42.9471 15.5236 46.2456 17.0535 48.6638C18.6209 51.1412 22.0665 51.8681 24.5629 50.3312L31.1805 46.257C31.9948 45.7556 33.0621 46.0195 33.549 46.8426C36.0983 51.1515 40.9215 53.5832 45.9015 53.0706L53.0865 52.3309C54.7598 52.1588 56.0318 50.7491 56.0318 49.0669V35.6976C56.0318 33.5758 54.733 31.669 52.7745 30.8522C48.5989 29.1107 40.9962 25.8101 33.4712 21.8794L24.582 37.405L18.6234 41.3076Z" fill="url(#paint12_linear_667_1429)"/>
</g>
<path d="M18.6234 41.3076C16.2783 42.9471 15.5236 46.2456 17.0535 48.6638C18.6209 51.1412 22.0665 51.8681 24.5629 50.3312L31.1805 46.257C31.9948 45.7556 33.0621 46.0195 33.549 46.8426C36.0983 51.1515 40.9215 53.5832 45.9015 53.0706L53.0865 52.3309C54.7598 52.1588 56.0318 50.7491 56.0318 49.0669V35.6976C56.0318 33.5758 54.733 31.669 52.7745 30.8522C48.5989 29.1107 40.9962 25.8101 33.4712 21.8794L24.582 37.405L18.6234 41.3076Z" fill="url(#paint13_linear_667_1429)"/>
<path d="M18.6234 41.3076C16.2783 42.9471 15.5236 46.2456 17.0535 48.6638C18.6209 51.1412 22.0665 51.8681 24.5629 50.3312L31.1805 46.257C31.9948 45.7556 33.0621 46.0195 33.549 46.8426C36.0983 51.1515 40.9215 53.5832 45.9015 53.0706L53.0865 52.3309C54.7598 52.1588 56.0318 50.7491 56.0318 49.0669V35.6976C56.0318 33.5758 54.733 31.669 52.7745 30.8522C48.5989 29.1107 40.9962 25.8101 33.4712 21.8794L24.582 37.405L18.6234 41.3076Z" fill="url(#paint14_linear_667_1429)"/>
<path d="M23.376 38.1422L24.3701 37.4801L24.5254 37.4248L23.3786 38.145L23.376 38.1422Z" fill="url(#paint15_radial_667_1429)"/>
<path d="M31.7348 24.9131L24.5967 37.3801L27.8918 35.3109C29.8444 34.0845 32.1659 33.5827 34.4507 33.8928L39.0104 34.5118L31.7348 24.9131Z" fill="url(#paint16_radial_667_1429)"/>
<path d="M30 11.2407L32.0113 7.73682L39.1804 11.9083L37.1726 15.4142L30 11.2407Z" fill="url(#paint17_linear_667_1429)"/>
<path d="M30 11.2407L32.0113 7.73682L39.1804 11.9083L37.1726 15.4142L30 11.2407Z" fill="url(#paint18_linear_667_1429)"/>
<path d="M15.7243 52.8409C15.6391 52.9476 15.5313 53.035 15.408 53.0961L9.45327 56.049C9.15068 56.1992 8.89559 56.0502 8.87913 55.7129L8.45523 49.0724C8.44996 48.9649 8.46323 48.8579 8.49402 48.7559L15.7243 52.8409Z" fill="url(#paint19_linear_667_1429)"/>
<path d="M15.7243 52.8409C15.6391 52.9476 15.5313 53.035 15.408 53.0961L9.45327 56.049C9.15068 56.1992 8.89559 56.0502 8.87913 55.7129L8.45523 49.0724C8.44996 48.9649 8.46323 48.8579 8.49402 48.7559L15.7243 52.8409Z" fill="url(#paint20_linear_667_1429)"/>
<path d="M15.7243 52.8409C15.6391 52.9476 15.5313 53.035 15.408 53.0961L9.45327 56.049C9.15068 56.1992 8.89559 56.0502 8.87913 55.7129L8.45523 49.0724C8.44996 48.9649 8.46323 48.8579 8.49402 48.7559L15.7243 52.8409Z" fill="url(#paint21_linear_667_1429)"/>
<path d="M10.9854 55.2898L9.45327 56.0495C9.15068 56.1997 8.89561 56.0506 8.87913 55.7133L8.77051 54.0127L10.9854 55.2898Z" fill="url(#paint22_linear_667_1429)"/>
<g filter="url(#filter3_f_667_1429)">
<path d="M33.4078 38.6631L22.8488 44.3661C22.1676 44.7339 21.96 45.6141 22.4055 46.2474C22.7841 46.7859 23.5067 46.9541 24.0842 46.638L33.3122 41.5866C34.3962 40.9931 35.703 40.9719 36.8057 41.5297L53.6783 50.0653V37.9873H36.081C35.1477 37.9873 34.2291 38.2196 33.4078 38.6631Z" fill="#FFEF64"/>
</g>
<path d="M24.5959 37.381L27.891 35.3117C29.8437 34.0853 32.1651 33.5835 34.45 33.8937L37.2028 34.2673L33.5678 46.8743L33.549 46.843C33.0621 46.0198 31.9948 45.756 31.1805 46.2574L24.5629 50.3316C22.0665 51.8685 18.6209 51.1416 17.0535 48.664C15.5236 46.246 16.2783 42.9475 18.6234 41.308L24.582 37.4052L24.5959 37.381Z" fill="url(#paint23_linear_667_1429)"/>
<path d="M24.5959 37.381L27.891 35.3117C29.8437 34.0853 32.1651 33.5835 34.45 33.8937L37.2028 34.2673L33.5678 46.8743L33.549 46.843C33.0621 46.0198 31.9948 45.756 31.1805 46.2574L24.5629 50.3316C22.0665 51.8685 18.6209 51.1416 17.0535 48.664C15.5236 46.246 16.2783 42.9475 18.6234 41.308L24.582 37.4052L24.5959 37.381Z" fill="url(#paint24_radial_667_1429)"/>
<defs>
<filter id="filter0_i_667_1429" x="2.74707" y="15.2192" width="28.4805" height="29.0757" filterUnits="userSpaceOnUse" color-interpolation-filters="sRGB">
<feFlood flood-opacity="0" result="BackgroundImageFix"/>
<feBlend mode="normal" in="SourceGraphic" in2="BackgroundImageFix" result="shape"/>
<feColorMatrix in="SourceAlpha" type="matrix" values="0 0 0 0 0 0 0 0 0 0 0 0 0 0 0 0 0 0 127 0" result="hardAlpha"/>
<feOffset dx="-0.5625" dy="-1.875"/>
<feGaussianBlur stdDeviation="1.875"/>
<feComposite in2="hardAlpha" operator="arithmetic" k2="-1" k3="1"/>
<feColorMatrix type="matrix" values="0 0 0 0 0.862745 0 0 0 0 0.435294 0 0 0 0 0.321569 0 0 0 1 0"/>
<feBlend mode="normal" in2="shape" result="effect1_innerShadow_667_1429"/>
</filter>
<filter id="filter1_f_667_1429" x="12.5439" y="12.9033" width="22.5967" height="35.5073" filterUnits="userSpaceOnUse" color-interpolation-filters="sRGB">
<feFlood flood-opacity="0" result="BackgroundImageFix"/>
<feBlend mode="normal" in="SourceGraphic" in2="BackgroundImageFix" result="shape"/>
<feGaussianBlur stdDeviation="0.9375" result="effect1_foregroundBlur_667_1429"/>
</filter>
<filter id="filter2_i_667_1429" x="16.2568" y="21.4106" width="39.7754" height="31.7275" filterUnits="userSpaceOnUse" color-interpolation-filters="sRGB">
<feFlood flood-opacity="0" result="BackgroundImageFix"/>
<feBlend mode="normal" in="SourceGraphic" in2="BackgroundImageFix" result="shape"/>
<feColorMatrix in="SourceAlpha" type="matrix" values="0 0 0 0 0 0 0 0 0 0 0 0 0 0 0 0 0 0 127 0" result="hardAlpha"/>
<feOffset dy="-0.46875"/>
<feGaussianBlur stdDeviation="0.9375"/>
<feComposite in2="hardAlpha" operator="arithmetic" k2="-1" k3="1"/>
<feColorMatrix type="matrix" values="0 0 0 0 0.92549 0 0 0 0 0.509804 0 0 0 0 0.65098 0 0 0 1 0"/>
<feBlend mode="normal" in2="shape" result="effect1_innerShadow_667_1429"/>
</filter>
<filter id="filter3_f_667_1429" x="18.4199" y="34.2373" width="39.0088" height="19.5781" filterUnits="userSpaceOnUse" color-interpolation-filters="sRGB">
<feFlood flood-opacity="0" result="BackgroundImageFix"/>
<feBlend mode="normal" in="SourceGraphic" in2="BackgroundImageFix" result="shape"/>
<feGaussianBlur stdDeviation="1.875" result="effect1_foregroundBlur_667_1429"/>
</filter>
<linearGradient id="paint0_linear_667_1429" x1="22.339" y1="18.8829" x2="9.34668" y2="41.2132" gradientUnits="userSpaceOnUse">
<stop stop-color="#E8B229"/>
<stop offset="1" stop-color="#EA9D3E"/>
</linearGradient>
<radialGradient id="paint1_radial_667_1429" cx="0" cy="0" r="1" gradientUnits="userSpaceOnUse" gradientTransform="translate(26.4801 19.2077) rotate(151.144) scale(4.54294 4.48633)">
<stop stop-color="#D5A047"/>
<stop offset="1" stop-color="#D5A047" stop-opacity="0"/>
</radialGradient>
<linearGradient id="paint2_linear_667_1429" x1="30.9928" y1="45.5405" x2="38.5012" y2="55.0012" gradientUnits="userSpaceOnUse">
<stop stop-color="#DD7828"/>
<stop offset="1" stop-color="#EC82AA"/>
</linearGradient>
<linearGradient id="paint3_linear_667_1429" x1="56.3702" y1="56.2218" x2="54.3607" y2="56.2218" gradientUnits="userSpaceOnUse">
<stop stop-color="#F3CA7E"/>
<stop offset="1" stop-color="#F3CA7E" stop-opacity="0"/>
</linearGradient>
<radialGradient id="paint4_radial_667_1429" cx="0" cy="0" r="1" gradientUnits="userSpaceOnUse" gradientTransform="translate(26.1967 49.4712) rotate(135.869) scale(4.52533 5.45263)">
<stop stop-color="#D76B0E"/>
<stop offset="1" stop-color="#E37C45"/>
</radialGradient>
<radialGradient id="paint5_radial_667_1429" cx="0" cy="0" r="1" gradientUnits="userSpaceOnUse" gradientTransform="translate(23.1543 47.9057) rotate(90) scale(8.74731 7.69183)">
<stop offset="0.775862" stop-color="#EC85B1" stop-opacity="0"/>
<stop offset="1" stop-color="#EC85B1"/>
</radialGradient>
<radialGradient id="paint6_radial_667_1429" cx="0" cy="0" r="1" gradientUnits="userSpaceOnUse" gradientTransform="translate(18.624 50.1582) rotate(46.652) scale(4.18168 6.11023)">
<stop stop-color="#DB8838"/>
<stop offset="1" stop-color="#DB8838" stop-opacity="0"/>
</radialGradient>
<radialGradient id="paint7_radial_667_1429" cx="0" cy="0" r="1" gradientUnits="userSpaceOnUse" gradientTransform="translate(15.1194 46.0544) rotate(-60.8192) scale(41.3404 30.0097)">
<stop stop-color="#F3752E"/>
<stop offset="1" stop-color="#FD4E50"/>
</radialGradient>
<radialGradient id="paint8_radial_667_1429" cx="0" cy="0" r="1" gradientUnits="userSpaceOnUse" gradientTransform="translate(23.3282 40.7724) rotate(-57.9221) scale(9.81949 6.77252)">
<stop stop-color="#D24611"/>
<stop offset="1" stop-color="#D24611" stop-opacity="0"/>
</radialGradient>
<linearGradient id="paint9_linear_667_1429" x1="32.1355" y1="24.6769" x2="53.9698" y2="46.1515" gradientUnits="userSpaceOnUse">
<stop stop-color="#FFD142"/>
<stop offset="1" stop-color="#FFD73D"/>
</linearGradient>
<radialGradient id="paint10_radial_667_1429" cx="0" cy="0" r="1" gradientUnits="userSpaceOnUse" gradientTransform="translate(42.705 56.9147) rotate(-135.161) scale(18.4869 11.7752)">
<stop offset="0.212492" stop-color="#F1816B"/>
<stop offset="1" stop-color="#F1816B" stop-opacity="0"/>
</radialGradient>
<radialGradient id="paint11_radial_667_1429" cx="0" cy="0" r="1" gradientUnits="userSpaceOnUse" gradientTransform="translate(54.0465 34.2317) rotate(149.931) scale(9.70116 2.95063)">
<stop stop-color="#FFEC5D"/>
<stop offset="1" stop-color="#FFEC5D" stop-opacity="0"/>
</radialGradient>
<linearGradient id="paint12_linear_667_1429" x1="45.2091" y1="26.9408" x2="44.5463" y2="29.0029" gradientUnits="userSpaceOnUse">
<stop stop-color="#F7D160"/>
<stop offset="1" stop-color="#F7D160" stop-opacity="0"/>
</linearGradient>
<linearGradient id="paint13_linear_667_1429" x1="44.6503" y1="26.4846" x2="41.2519" y2="33.5158" gradientUnits="userSpaceOnUse">
<stop stop-color="#F8D15D"/>
<stop offset="1" stop-color="#F8D15D" stop-opacity="0"/>
</linearGradient>
<linearGradient id="paint14_linear_667_1429" x1="56.955" y1="39.7268" x2="52.1503" y2="39.7268" gradientUnits="userSpaceOnUse">
<stop stop-color="#F8D15D"/>
<stop offset="1" stop-color="#F8D15D" stop-opacity="0"/>
</linearGradient>
<radialGradient id="paint15_radial_667_1429" cx="0" cy="0" r="1" gradientTransform="matrix(9.59643 -9.80132 11.5809 11.3389 24.6982 38.145)" gradientUnits="userSpaceOnUse">
<stop offset="0.249498" stop-color="#C4654E"/>
<stop offset="1" stop-color="#F19321" stop-opacity="0"/>
</radialGradient>
<radialGradient id="paint16_radial_667_1429" cx="0" cy="0" r="1" gradientUnits="userSpaceOnUse" gradientTransform="translate(24.6983 38.145) rotate(-45.605) scale(13.717 16.2076)">
<stop offset="0.249498" stop-color="#C4654E"/>
<stop offset="1" stop-color="#F19321" stop-opacity="0"/>
</radialGradient>
<linearGradient id="paint17_linear_667_1429" x1="30.6469" y1="9.4926" x2="39.1804" y2="14.1801" gradientUnits="userSpaceOnUse">
<stop stop-color="#C4A8BC"/>
<stop offset="1" stop-color="#E5D0FC"/>
</linearGradient>
<linearGradient id="paint18_linear_667_1429" x1="38.352" y1="13.5209" x2="37.7368" y2="13.184" gradientUnits="userSpaceOnUse">
<stop stop-color="#CABAD5"/>
<stop offset="1" stop-color="#CABAD4" stop-opacity="0"/>
</linearGradient>
<linearGradient id="paint19_linear_667_1429" x1="9.26" y1="52.4316" x2="14.2405" y2="53.5545" gradientUnits="userSpaceOnUse">
<stop stop-color="#E28A85"/>
<stop offset="1" stop-color="#FF95B3"/>
</linearGradient>
<linearGradient id="paint20_linear_667_1429" x1="14.4179" y1="55.3289" x2="11.7321" y2="53.7779" gradientUnits="userSpaceOnUse">
<stop stop-color="#FF8DC2"/>
<stop offset="1" stop-color="#FF8DC2" stop-opacity="0"/>
</linearGradient>
<linearGradient id="paint21_linear_667_1429" x1="12.1387" y1="50.7989" x2="11.9118" y2="51.2243" gradientUnits="userSpaceOnUse">
<stop stop-color="#FFA3AE"/>
<stop offset="1" stop-color="#FFA3AE" stop-opacity="0"/>
</linearGradient>
<linearGradient id="paint22_linear_667_1429" x1="9.26575" y1="55.1701" x2="10.1996" y2="55.9211" gradientUnits="userSpaceOnUse">
<stop stop-color="#46144E"/>
<stop offset="1" stop-color="#5A1870"/>
</linearGradient>
<linearGradient id="paint23_linear_667_1429" x1="19.8066" y1="37.0904" x2="25.0213" y2="42.4699" gradientUnits="userSpaceOnUse">
<stop stop-color="#F0A51D"/>
<stop offset="1" stop-color="#F0A51D" stop-opacity="0"/>
</linearGradient>
<radialGradient id="paint24_radial_667_1429" cx="0" cy="0" r="1" gradientUnits="userSpaceOnUse" gradientTransform="translate(16.2568 48.6919) rotate(-34.4393) scale(8.49587 11.044)">
<stop stop-color="#F0A51D"/>
<stop offset="1" stop-color="#F0A51D" stop-opacity="0"/>
</radialGradient>
</defs>
</svg>
