<svg width="60" height="60" viewBox="0 0 60 60" fill="none" xmlns="http://www.w3.org/2000/svg">
<g filter="url(#filter0_iii_669_2132)">
<path d="M26.315 6.66008L34.311 20.3179L23.0315 23.5254C15.2407 20.9475 10.6515 15.9919 7.88511 10.8984C6.71839 8.75027 6.72788 4.80469 11.3647 4.80469H23.0789C24.4106 4.80469 25.6423 5.51089 26.315 6.66008Z" fill="#4686EC"/>
<path d="M26.315 6.66008L34.311 20.3179L23.0315 23.5254C15.2407 20.9475 10.6515 15.9919 7.88511 10.8984C6.71839 8.75027 6.72788 4.80469 11.3647 4.80469H23.0789C24.4106 4.80469 25.6423 5.51089 26.315 6.66008Z" fill="url(#paint0_radial_669_2132)"/>
<path d="M26.315 6.66008L34.311 20.3179L23.0315 23.5254C15.2407 20.9475 10.6515 15.9919 7.88511 10.8984C6.71839 8.75027 6.72788 4.80469 11.3647 4.80469H23.0789C24.4106 4.80469 25.6423 5.51089 26.315 6.66008Z" fill="url(#paint1_linear_669_2132)"/>
</g>
<g filter="url(#filter1_iii_669_2132)">
<path d="M33.3981 6.66008L25.4023 20.3179L36.6816 23.5254C44.4724 20.9475 49.0617 15.9919 51.828 10.8984C52.9948 8.75027 52.9853 4.80469 48.3484 4.80469H36.6343C35.3025 4.80469 34.0708 5.51089 33.3981 6.66008Z" fill="#4686EC"/>
<path d="M33.3981 6.66008L25.4023 20.3179L36.6816 23.5254C44.4724 20.9475 49.0617 15.9919 51.828 10.8984C52.9948 8.75027 52.9853 4.80469 48.3484 4.80469H36.6343C35.3025 4.80469 34.0708 5.51089 33.3981 6.66008Z" fill="url(#paint2_radial_669_2132)"/>
<path d="M33.3981 6.66008L25.4023 20.3179L36.6816 23.5254C44.4724 20.9475 49.0617 15.9919 51.828 10.8984C52.9948 8.75027 52.9853 4.80469 48.3484 4.80469H36.6343C35.3025 4.80469 34.0708 5.51089 33.3981 6.66008Z" fill="url(#paint3_linear_669_2132)"/>
</g>
<path d="M33.3981 6.66008L25.4023 20.3179L36.6816 23.5254C44.4724 20.9475 49.0617 15.9919 51.828 10.8984C52.9948 8.75027 52.9853 4.80469 48.3484 4.80469H36.6343C35.3025 4.80469 34.0708 5.51089 33.3981 6.66008Z" fill="url(#paint4_linear_669_2132)"/>
<path d="M30.0885 56.5863C40.4932 56.5863 48.9279 48.1516 48.9279 37.7469C48.9279 27.3422 40.4932 18.9075 30.0885 18.9075C19.6837 18.9075 11.249 27.3422 11.249 37.7469C11.249 48.1516 19.6837 56.5863 30.0885 56.5863Z" fill="url(#paint5_linear_669_2132)"/>
<path d="M30.0885 56.5863C40.4932 56.5863 48.9279 48.1516 48.9279 37.7469C48.9279 27.3422 40.4932 18.9075 30.0885 18.9075C19.6837 18.9075 11.249 27.3422 11.249 37.7469C11.249 48.1516 19.6837 56.5863 30.0885 56.5863Z" fill="url(#paint6_linear_669_2132)"/>
<path d="M30.0885 54.0375C39.0855 54.0375 46.3791 46.7439 46.3791 37.7469C46.3791 28.7498 39.0855 21.4563 30.0885 21.4563C21.0914 21.4563 13.7979 28.7498 13.7979 37.7469C13.7979 46.7439 21.0914 54.0375 30.0885 54.0375Z" fill="url(#paint7_linear_669_2132)"/>
<path d="M30.0878 51.9686C37.9422 51.9686 44.3094 45.6014 44.3094 37.747C44.3094 29.8926 37.9422 23.5254 30.0878 23.5254C22.2334 23.5254 15.8662 29.8926 15.8662 37.747C15.8662 45.6014 22.2334 51.9686 30.0878 51.9686Z" fill="url(#paint8_linear_669_2132)"/>
<path d="M30.0878 51.9686C37.9422 51.9686 44.3094 45.6014 44.3094 37.747C44.3094 29.8926 37.9422 23.5254 30.0878 23.5254C22.2334 23.5254 15.8662 29.8926 15.8662 37.747C15.8662 45.6014 22.2334 51.9686 30.0878 51.9686Z" fill="url(#paint9_radial_669_2132)"/>
<path d="M30.0878 51.9686C37.9422 51.9686 44.3094 45.6014 44.3094 37.747C44.3094 29.8926 37.9422 23.5254 30.0878 23.5254C22.2334 23.5254 15.8662 29.8926 15.8662 37.747C15.8662 45.6014 22.2334 51.9686 30.0878 51.9686Z" fill="url(#paint10_radial_669_2132)"/>
<path d="M30.0878 51.9686C37.9422 51.9686 44.3094 45.6014 44.3094 37.747C44.3094 29.8926 37.9422 23.5254 30.0878 23.5254C22.2334 23.5254 15.8662 29.8926 15.8662 37.747C15.8662 45.6014 22.2334 51.9686 30.0878 51.9686Z" fill="url(#paint11_radial_669_2132)"/>
<g filter="url(#filter2_ii_669_2132)">
<path d="M33.8194 46.0717H26.3756C25.6444 46.0717 24.9881 45.6594 24.6694 44.9844C24.3506 44.3281 24.4444 43.5404 24.9131 42.9779L31.1006 35.3842C31.5881 34.7842 31.3631 34.1467 31.2881 33.9592C31.1944 33.7342 30.8944 33.2279 30.2006 33.2092C30.1819 33.2092 30.1444 33.2092 30.1069 33.2092C29.5069 33.2092 28.9631 33.4904 28.6069 33.9779C28.0069 34.8217 26.8256 35.0279 25.9631 34.4279C25.1006 33.8279 24.9131 32.6467 25.5131 31.7842C26.5631 30.3029 28.2694 29.4219 30.0881 29.4219C30.1819 29.4219 30.2569 29.4219 30.3319 29.4219C32.2444 29.5156 33.9131 30.6592 34.7006 32.4029C35.5069 34.2029 35.2444 36.2467 34.0069 37.7654L30.3506 42.2654H33.8006C34.8506 42.2654 35.6944 43.1094 35.6944 44.1594C35.6944 45.2094 34.8694 46.0717 33.8194 46.0717Z" fill="#6A6372"/>
</g>
<defs>
<filter id="filter0_iii_669_2132" x="6.76953" y="4.42969" width="27.916" height="19.5645" filterUnits="userSpaceOnUse" color-interpolation-filters="sRGB">
<feFlood flood-opacity="0" result="BackgroundImageFix"/>
<feBlend mode="normal" in="SourceGraphic" in2="BackgroundImageFix" result="shape"/>
<feColorMatrix in="SourceAlpha" type="matrix" values="0 0 0 0 0 0 0 0 0 0 0 0 0 0 0 0 0 0 127 0" result="hardAlpha"/>
<feOffset dx="-0.375" dy="-0.375"/>
<feGaussianBlur stdDeviation="0.375"/>
<feComposite in2="hardAlpha" operator="arithmetic" k2="-1" k3="1"/>
<feColorMatrix type="matrix" values="0 0 0 0 0.317647 0 0 0 0 0.458824 0 0 0 0 0.886275 0 0 0 1 0"/>
<feBlend mode="normal" in2="shape" result="effect1_innerShadow_669_2132"/>
<feColorMatrix in="SourceAlpha" type="matrix" values="0 0 0 0 0 0 0 0 0 0 0 0 0 0 0 0 0 0 127 0" result="hardAlpha"/>
<feOffset dx="0.375" dy="0.375"/>
<feGaussianBlur stdDeviation="0.375"/>
<feComposite in2="hardAlpha" operator="arithmetic" k2="-1" k3="1"/>
<feColorMatrix type="matrix" values="0 0 0 0 0.317647 0 0 0 0 0.458824 0 0 0 0 0.886275 0 0 0 1 0"/>
<feBlend mode="normal" in2="effect1_innerShadow_669_2132" result="effect2_innerShadow_669_2132"/>
<feColorMatrix in="SourceAlpha" type="matrix" values="0 0 0 0 0 0 0 0 0 0 0 0 0 0 0 0 0 0 127 0" result="hardAlpha"/>
<feOffset dx="-0.46875" dy="0.46875"/>
<feGaussianBlur stdDeviation="0.46875"/>
<feComposite in2="hardAlpha" operator="arithmetic" k2="-1" k3="1"/>
<feColorMatrix type="matrix" values="0 0 0 0 0.372549 0 0 0 0 0.607843 0 0 0 0 0.960784 0 0 0 1 0"/>
<feBlend mode="normal" in2="effect2_innerShadow_669_2132" result="effect3_innerShadow_669_2132"/>
</filter>
<filter id="filter1_iii_669_2132" x="24.9336" y="4.42969" width="27.916" height="19.5645" filterUnits="userSpaceOnUse" color-interpolation-filters="sRGB">
<feFlood flood-opacity="0" result="BackgroundImageFix"/>
<feBlend mode="normal" in="SourceGraphic" in2="BackgroundImageFix" result="shape"/>
<feColorMatrix in="SourceAlpha" type="matrix" values="0 0 0 0 0 0 0 0 0 0 0 0 0 0 0 0 0 0 127 0" result="hardAlpha"/>
<feOffset dx="-0.375" dy="-0.375"/>
<feGaussianBlur stdDeviation="0.375"/>
<feComposite in2="hardAlpha" operator="arithmetic" k2="-1" k3="1"/>
<feColorMatrix type="matrix" values="0 0 0 0 0.317647 0 0 0 0 0.458824 0 0 0 0 0.886275 0 0 0 1 0"/>
<feBlend mode="normal" in2="shape" result="effect1_innerShadow_669_2132"/>
<feColorMatrix in="SourceAlpha" type="matrix" values="0 0 0 0 0 0 0 0 0 0 0 0 0 0 0 0 0 0 127 0" result="hardAlpha"/>
<feOffset dx="0.375" dy="0.375"/>
<feGaussianBlur stdDeviation="0.375"/>
<feComposite in2="hardAlpha" operator="arithmetic" k2="-1" k3="1"/>
<feColorMatrix type="matrix" values="0 0 0 0 0.317647 0 0 0 0 0.458824 0 0 0 0 0.886275 0 0 0 1 0"/>
<feBlend mode="normal" in2="effect1_innerShadow_669_2132" result="effect2_innerShadow_669_2132"/>
<feColorMatrix in="SourceAlpha" type="matrix" values="0 0 0 0 0 0 0 0 0 0 0 0 0 0 0 0 0 0 127 0" result="hardAlpha"/>
<feOffset dx="-0.46875" dy="0.46875"/>
<feGaussianBlur stdDeviation="0.46875"/>
<feComposite in2="hardAlpha" operator="arithmetic" k2="-1" k3="1"/>
<feColorMatrix type="matrix" values="0 0 0 0 0.372549 0 0 0 0 0.607843 0 0 0 0 0.960784 0 0 0 1 0"/>
<feBlend mode="normal" in2="effect2_innerShadow_669_2132" result="effect3_innerShadow_669_2132"/>
</filter>
<filter id="filter2_ii_669_2132" x="23.9199" y="29.0469" width="12.1494" height="17.5874" filterUnits="userSpaceOnUse" color-interpolation-filters="sRGB">
<feFlood flood-opacity="0" result="BackgroundImageFix"/>
<feBlend mode="normal" in="SourceGraphic" in2="BackgroundImageFix" result="shape"/>
<feColorMatrix in="SourceAlpha" type="matrix" values="0 0 0 0 0 0 0 0 0 0 0 0 0 0 0 0 0 0 127 0" result="hardAlpha"/>
<feOffset dx="-0.5625" dy="0.5625"/>
<feGaussianBlur stdDeviation="0.5625"/>
<feComposite in2="hardAlpha" operator="arithmetic" k2="-1" k3="1"/>
<feColorMatrix type="matrix" values="0 0 0 0 0.286275 0 0 0 0 0.223529 0 0 0 0 0.345098 0 0 0 1 0"/>
<feBlend mode="normal" in2="shape" result="effect1_innerShadow_669_2132"/>
<feColorMatrix in="SourceAlpha" type="matrix" values="0 0 0 0 0 0 0 0 0 0 0 0 0 0 0 0 0 0 127 0" result="hardAlpha"/>
<feOffset dx="0.375" dy="-0.375"/>
<feGaussianBlur stdDeviation="0.375"/>
<feComposite in2="hardAlpha" operator="arithmetic" k2="-1" k3="1"/>
<feColorMatrix type="matrix" values="0 0 0 0 0.482353 0 0 0 0 0.47451 0 0 0 0 0.490196 0 0 0 1 0"/>
<feBlend mode="normal" in2="effect1_innerShadow_669_2132" result="effect2_innerShadow_669_2132"/>
</filter>
<radialGradient id="paint0_radial_669_2132" cx="0" cy="0" r="1" gradientUnits="userSpaceOnUse" gradientTransform="translate(24.5683 22.203) rotate(-123.321) scale(8.6316 32.2356)">
<stop stop-color="#3669D9"/>
<stop offset="1" stop-color="#3669D9" stop-opacity="0"/>
</radialGradient>
<linearGradient id="paint1_linear_669_2132" x1="12.3411" y1="3.79348" x2="15.707" y2="12.1739" gradientUnits="userSpaceOnUse">
<stop stop-color="#3D89EC"/>
<stop offset="1" stop-color="#3D89EC" stop-opacity="0"/>
</linearGradient>
<radialGradient id="paint2_radial_669_2132" cx="0" cy="0" r="1" gradientUnits="userSpaceOnUse" gradientTransform="translate(35.1448 22.203) rotate(-57.2648) scale(5.71631 12.5387)">
<stop stop-color="#3669D9"/>
<stop offset="1" stop-color="#3669D9" stop-opacity="0"/>
</radialGradient>
<linearGradient id="paint3_linear_669_2132" x1="47.3721" y1="3.79348" x2="44.0061" y2="12.1739" gradientUnits="userSpaceOnUse">
<stop stop-color="#3D89EC"/>
<stop offset="1" stop-color="#3D89EC" stop-opacity="0"/>
</linearGradient>
<linearGradient id="paint4_linear_669_2132" x1="29.5287" y1="13.2438" x2="30.1618" y2="13.5931" gradientUnits="userSpaceOnUse">
<stop stop-color="#1A6DD8"/>
<stop offset="1" stop-color="#1A6DD8" stop-opacity="0"/>
</linearGradient>
<linearGradient id="paint5_linear_669_2132" x1="44.6197" y1="28.0076" x2="27.0931" y2="44.0327" gradientUnits="userSpaceOnUse">
<stop stop-color="#EFEAF6"/>
<stop offset="1" stop-color="#B5A8C3"/>
</linearGradient>
<linearGradient id="paint6_linear_669_2132" x1="23.5051" y1="57.5017" x2="27.7541" y2="32.8638" gradientUnits="userSpaceOnUse">
<stop stop-color="#D0A9F4"/>
<stop offset="1" stop-color="#D0A9F4" stop-opacity="0"/>
</linearGradient>
<linearGradient id="paint7_linear_669_2132" x1="44.9315" y1="34.9003" x2="30.0884" y2="34.9003" gradientUnits="userSpaceOnUse">
<stop stop-color="#D3C6E2"/>
<stop offset="1" stop-color="#D6C6E8"/>
</linearGradient>
<linearGradient id="paint8_linear_669_2132" x1="21.1615" y1="41.4424" x2="44.8296" y2="34.2809" gradientUnits="userSpaceOnUse">
<stop stop-color="#E0D3EF"/>
<stop offset="1" stop-color="#C1B0D4"/>
</linearGradient>
<radialGradient id="paint9_radial_669_2132" cx="0" cy="0" r="1" gradientUnits="userSpaceOnUse" gradientTransform="translate(35.4846 35.5909) rotate(156.644) scale(21.3694 18.209)">
<stop offset="0.837399" stop-color="#F6ECFE" stop-opacity="0"/>
<stop offset="1" stop-color="#F6ECFE"/>
</radialGradient>
<radialGradient id="paint10_radial_669_2132" cx="0" cy="0" r="1" gradientUnits="userSpaceOnUse" gradientTransform="translate(28.2713 39.4338) rotate(-41.2938) scale(16.8075 16.1384)">
<stop offset="0.909611" stop-color="#B396CF" stop-opacity="0"/>
<stop offset="0.991989" stop-color="#B796D5"/>
</radialGradient>
<radialGradient id="paint11_radial_669_2132" cx="0" cy="0" r="1" gradientUnits="userSpaceOnUse" gradientTransform="translate(29.6776 36.5626) rotate(37.9308) scale(15.823 17.9312)">
<stop offset="0.925972" stop-color="#AB9CBB" stop-opacity="0"/>
<stop offset="1" stop-color="#AB9CBB"/>
</radialGradient>
</defs>
</svg>
