<svg width="60" height="60" viewBox="0 0 60 60" fill="none" xmlns="http://www.w3.org/2000/svg">
<g filter="url(#filter0_iii_670_2182)">
<path d="M29.6655 20.8235C29.346 22.0644 28.2609 22.9901 26.9784 23.6313C23.343 24.8893 20.4713 26.0992 18.095 27.2739C15.9915 28.3138 16.0118 31.6001 18.1222 32.6261C20.5881 33.8248 23.6839 34.9745 27.1223 36.3375C28.0468 36.704 29.3533 37.7394 29.6784 39.0122C30.6806 42.9341 32.0441 47.0859 33.5456 50.9188C34.7111 53.894 37.5926 53.8918 38.7639 50.9188C40.2844 47.0593 41.4394 42.8904 42.7431 38.924C43.0551 37.6993 43.9789 36.7308 45.1701 36.309C48.3894 35.1684 51.4928 33.8814 54.0223 32.7673C56.3846 31.7268 56.4334 28.3488 54.1007 27.2437C51.6096 26.0636 48.5109 24.6971 45.1545 23.4774C43.9733 23.0482 43.0644 22.1422 42.6444 20.8563C41.2298 16.5233 40.3333 12.8497 38.8303 9.0347C37.659 6.0616 34.5842 6.1531 33.4129 9.1262C31.9155 12.9271 30.8702 16.7104 29.6655 20.8235Z" fill="url(#paint0_linear_670_2182)"/>
</g>
<path d="M29.6655 20.8235C29.346 22.0644 28.2609 22.9901 26.9784 23.6313C23.343 24.8893 20.4713 26.0992 18.095 27.2739C15.9915 28.3138 16.0118 31.6001 18.1222 32.6261C20.5881 33.8248 23.6839 34.9745 27.1223 36.3375C28.0468 36.704 29.3533 37.7394 29.6784 39.0122C30.6806 42.9341 32.0441 47.0859 33.5456 50.9188C34.7111 53.894 37.5926 53.8918 38.7639 50.9188C40.2844 47.0593 41.4394 42.8904 42.7431 38.924C43.0551 37.6993 43.9789 36.7308 45.1701 36.309C48.3894 35.1684 51.4928 33.8814 54.0223 32.7673C56.3846 31.7268 56.4334 28.3488 54.1007 27.2437C51.6096 26.0636 48.5109 24.6971 45.1545 23.4774C43.9733 23.0482 43.0644 22.1422 42.6444 20.8563C41.2298 16.5233 40.3333 12.8497 38.8303 9.0347C37.659 6.0616 34.5842 6.1531 33.4129 9.1262C31.9155 12.9271 30.8702 16.7104 29.6655 20.8235Z" fill="url(#paint1_linear_670_2182)"/>
<g filter="url(#filter1_ii_670_2182)">
<path d="M14.5642 10.9054C14.4614 11.3048 14.1122 11.6027 13.6994 11.8091C12.5293 12.214 11.605 12.6034 10.8402 12.9815C10.1631 13.3162 10.1697 14.3739 10.8489 14.7041C11.6426 15.09 12.639 15.46 13.7457 15.8987C14.0432 16.0167 14.4637 16.3499 14.5684 16.7595C14.891 18.0218 15.3298 19.3581 15.8131 20.5918C16.1882 21.5494 17.1157 21.5487 17.4926 20.5918C17.982 19.3497 18.3538 18.0078 18.7734 16.7312C18.8739 16.337 19.1711 16.0253 19.5545 15.8895C20.5906 15.5224 21.5894 15.1082 22.4037 14.7496C23.1641 14.4147 23.1796 13.3275 22.4289 12.9718C21.6271 12.592 20.6298 12.1521 19.5494 11.7596C19.1692 11.6214 18.8767 11.3298 18.7416 10.916C18.2863 9.52136 17.9977 8.33898 17.514 7.11108C17.137 6.15417 16.1474 6.18363 15.7704 7.14054C15.2884 8.3639 14.952 9.58158 14.5642 10.9054Z" fill="url(#paint2_linear_670_2182)"/>
</g>
<path d="M14.5642 10.9054C14.4614 11.3048 14.1122 11.6027 13.6994 11.8091C12.5293 12.214 11.605 12.6034 10.8402 12.9815C10.1631 13.3162 10.1697 14.3739 10.8489 14.7041C11.6426 15.09 12.639 15.46 13.7457 15.8987C14.0432 16.0167 14.4637 16.3499 14.5684 16.7595C14.891 18.0218 15.3298 19.3581 15.8131 20.5918C16.1882 21.5494 17.1157 21.5487 17.4926 20.5918C17.982 19.3497 18.3538 18.0078 18.7734 16.7312C18.8739 16.337 19.1711 16.0253 19.5545 15.8895C20.5906 15.5224 21.5894 15.1082 22.4037 14.7496C23.1641 14.4147 23.1796 13.3275 22.4289 12.9718C21.6271 12.592 20.6298 12.1521 19.5494 11.7596C19.1692 11.6214 18.8767 11.3298 18.7416 10.916C18.2863 9.52136 17.9977 8.33898 17.514 7.11108C17.137 6.15417 16.1474 6.18363 15.7704 7.14054C15.2884 8.3639 14.952 9.58158 14.5642 10.9054Z" fill="url(#paint3_linear_670_2182)"/>
<g filter="url(#filter2_i_670_2182)">
<path d="M9.79946 37.6232C9.65604 38.18 9.16912 38.5955 8.59353 38.8833C6.96181 39.4479 5.67296 39.9909 4.60649 40.5182C3.66237 40.9848 3.67149 42.4597 4.61866 42.9202C5.72536 43.4583 7.11485 43.9743 8.65803 44.586C9.07295 44.7504 9.65932 45.2152 9.80529 45.7863C10.2551 47.5466 10.8671 49.4102 11.5409 51.1303C12.0641 52.4657 13.3573 52.4647 13.883 51.1303C14.5654 49.3982 15.0838 47.5271 15.6689 45.7468C15.8089 45.1972 16.2235 44.7626 16.7581 44.5732C18.203 44.0613 19.5959 43.4837 20.7312 42.9836C21.7913 42.5167 21.8133 41.0006 20.7663 40.5047C19.6484 39.975 18.2576 39.3617 16.7512 38.8142C16.221 38.6216 15.8131 38.2149 15.6247 37.6378C14.9897 35.693 14.5873 34.0443 13.9128 32.3321C13.3871 30.9977 12.0071 31.0387 11.4814 32.3732C10.8093 34.079 10.3401 35.777 9.79946 37.6232Z" fill="url(#paint4_radial_670_2182)"/>
</g>
<defs>
<filter id="filter0_iii_670_2182" x="15.7783" y="6.38135" width="40.5127" height="47.2368" filterUnits="userSpaceOnUse" color-interpolation-filters="sRGB">
<feFlood flood-opacity="0" result="BackgroundImageFix"/>
<feBlend mode="normal" in="SourceGraphic" in2="BackgroundImageFix" result="shape"/>
<feColorMatrix in="SourceAlpha" type="matrix" values="0 0 0 0 0 0 0 0 0 0 0 0 0 0 0 0 0 0 127 0" result="hardAlpha"/>
<feOffset dx="0.46875" dy="-0.46875"/>
<feGaussianBlur stdDeviation="0.46875"/>
<feComposite in2="hardAlpha" operator="arithmetic" k2="-1" k3="1"/>
<feColorMatrix type="matrix" values="0 0 0 0 0.937255 0 0 0 0 0.482353 0 0 0 0 0.329412 0 0 0 1 0"/>
<feBlend mode="normal" in2="shape" result="effect1_innerShadow_670_2182"/>
<feColorMatrix in="SourceAlpha" type="matrix" values="0 0 0 0 0 0 0 0 0 0 0 0 0 0 0 0 0 0 127 0" result="hardAlpha"/>
<feOffset dx="0.46875" dy="0.46875"/>
<feGaussianBlur stdDeviation="0.9375"/>
<feComposite in2="hardAlpha" operator="arithmetic" k2="-1" k3="1"/>
<feColorMatrix type="matrix" values="0 0 0 0 0.737255 0 0 0 0 0.615686 0 0 0 0 0.415686 0 0 0 1 0"/>
<feBlend mode="normal" in2="effect1_innerShadow_670_2182" result="effect2_innerShadow_670_2182"/>
<feColorMatrix in="SourceAlpha" type="matrix" values="0 0 0 0 0 0 0 0 0 0 0 0 0 0 0 0 0 0 127 0" result="hardAlpha"/>
<feOffset dx="-0.75" dy="0.46875"/>
<feGaussianBlur stdDeviation="0.375"/>
<feComposite in2="hardAlpha" operator="arithmetic" k2="-1" k3="1"/>
<feColorMatrix type="matrix" values="0 0 0 0 1 0 0 0 0 0.901961 0 0 0 0 0.458824 0 0 0 1 0"/>
<feBlend mode="normal" in2="effect2_innerShadow_670_2182" result="effect3_innerShadow_670_2182"/>
</filter>
<filter id="filter1_ii_670_2182" x="10.1484" y="6.40796" width="13.0225" height="15.0894" filterUnits="userSpaceOnUse" color-interpolation-filters="sRGB">
<feFlood flood-opacity="0" result="BackgroundImageFix"/>
<feBlend mode="normal" in="SourceGraphic" in2="BackgroundImageFix" result="shape"/>
<feColorMatrix in="SourceAlpha" type="matrix" values="0 0 0 0 0 0 0 0 0 0 0 0 0 0 0 0 0 0 127 0" result="hardAlpha"/>
<feOffset dx="0.1875" dy="0.1875"/>
<feGaussianBlur stdDeviation="0.1875"/>
<feComposite in2="hardAlpha" operator="arithmetic" k2="-1" k3="1"/>
<feColorMatrix type="matrix" values="0 0 0 0 0.803922 0 0 0 0 0.6 0 0 0 0 0.262745 0 0 0 1 0"/>
<feBlend mode="normal" in2="shape" result="effect1_innerShadow_670_2182"/>
<feColorMatrix in="SourceAlpha" type="matrix" values="0 0 0 0 0 0 0 0 0 0 0 0 0 0 0 0 0 0 127 0" result="hardAlpha"/>
<feOffset dx="-0.1875" dy="0.1875"/>
<feGaussianBlur stdDeviation="0.1875"/>
<feComposite in2="hardAlpha" operator="arithmetic" k2="-1" k3="1"/>
<feColorMatrix type="matrix" values="0 0 0 0 1 0 0 0 0 0.882353 0 0 0 0 0.423529 0 0 0 1 0"/>
<feBlend mode="normal" in2="effect1_innerShadow_670_2182" result="effect2_innerShadow_670_2182"/>
</filter>
<filter id="filter2_i_670_2182" x="3.90332" y="31.0703" width="17.917" height="21.061" filterUnits="userSpaceOnUse" color-interpolation-filters="sRGB">
<feFlood flood-opacity="0" result="BackgroundImageFix"/>
<feBlend mode="normal" in="SourceGraphic" in2="BackgroundImageFix" result="shape"/>
<feColorMatrix in="SourceAlpha" type="matrix" values="0 0 0 0 0 0 0 0 0 0 0 0 0 0 0 0 0 0 127 0" result="hardAlpha"/>
<feOffset dx="0.28125" dy="-0.28125"/>
<feGaussianBlur stdDeviation="0.28125"/>
<feComposite in2="hardAlpha" operator="arithmetic" k2="-1" k3="1"/>
<feColorMatrix type="matrix" values="0 0 0 0 1 0 0 0 0 0.458824 0 0 0 0 0.462745 0 0 0 1 0"/>
<feBlend mode="normal" in2="shape" result="effect1_innerShadow_670_2182"/>
</filter>
<linearGradient id="paint0_linear_670_2182" x1="48.9921" y1="21.1335" x2="28.224" y2="42.9962" gradientUnits="userSpaceOnUse">
<stop stop-color="#FFCF5A"/>
<stop offset="1" stop-color="#FEA254"/>
</linearGradient>
<linearGradient id="paint1_linear_670_2182" x1="27.6639" y1="54.9191" x2="38.985" y2="31.0387" gradientUnits="userSpaceOnUse">
<stop stop-color="#FF886D"/>
<stop offset="1" stop-color="#FF886D" stop-opacity="0"/>
</linearGradient>
<linearGradient id="paint2_linear_670_2182" x1="20.7847" y1="11.0051" x2="14.1003" y2="18.0418" gradientUnits="userSpaceOnUse">
<stop stop-color="#FFDA72"/>
<stop offset="1" stop-color="#F7A967"/>
</linearGradient>
<linearGradient id="paint3_linear_670_2182" x1="16.6595" y1="22.4629" x2="16.6595" y2="14.7286" gradientUnits="userSpaceOnUse">
<stop stop-color="#FDA071"/>
<stop offset="1" stop-color="#FDA071" stop-opacity="0"/>
</linearGradient>
<radialGradient id="paint4_radial_670_2182" cx="0" cy="0" r="1" gradientUnits="userSpaceOnUse" gradientTransform="translate(18.776 34.8133) rotate(127.221) scale(13.2675 12.92)">
<stop offset="0.364601" stop-color="#FFBC64"/>
<stop offset="1" stop-color="#FF8F6B"/>
</radialGradient>
</defs>
</svg>
