<svg width="60" height="60" viewBox="0 0 60 60" fill="none" xmlns="http://www.w3.org/2000/svg">
<path d="M15.6171 55.5887C15.6222 55.4875 15.6249 55.3857 15.6249 55.2831C15.6249 52.0339 12.9908 49.3999 9.74157 49.3999C6.49236 49.3999 3.8584 52.0339 3.8584 55.2831C3.8584 55.3857 3.86102 55.4875 3.86618 55.5887H15.6171Z" fill="url(#paint0_radial_669_1796)"/>
<path d="M56.1345 55.5887C56.1397 55.4875 56.1423 55.3857 56.1423 55.2831C56.1423 52.0339 53.5084 49.3999 50.2592 49.3999C47.01 49.3999 44.376 52.0339 44.376 55.2831C44.376 55.3857 44.3786 55.4875 44.3837 55.5887H56.1345Z" fill="url(#paint1_radial_669_1796)"/>
<path d="M30.0001 28.4014C18.6187 28.4014 9.375 37.6264 9.375 49.0264V55.5889H50.6251V49.0264C50.6251 37.6264 41.3813 28.4014 30.0001 28.4014Z" fill="url(#paint2_linear_669_1796)"/>
<path d="M16.8384 33.0889C12.2634 36.8951 9.37587 42.6326 9.39462 49.0264L9.43212 55.5889L16.9321 55.5514L16.8384 33.0889Z" fill="url(#paint3_linear_669_1796)"/>
<path d="M43.125 33.1079V55.5704H50.625V49.0079C50.625 42.6142 47.7 36.8954 43.125 33.1079Z" fill="url(#paint4_linear_669_1796)"/>
<path d="M21.0639 23.6873C22.7943 23.6873 24.1971 22.2845 24.1971 20.5541C24.1971 18.8237 22.7943 17.4209 21.0639 17.4209C19.3334 17.4209 17.9307 18.8237 17.9307 20.5541C17.9307 22.2845 19.3334 23.6873 21.0639 23.6873Z" fill="url(#paint5_radial_669_1796)"/>
<g filter="url(#filter0_f_669_1796)">
<path d="M21.0646 22.4212C22.0959 22.4212 22.9319 21.5852 22.9319 20.5539C22.9319 19.5226 22.0959 18.6865 21.0646 18.6865C20.0333 18.6865 19.1973 19.5226 19.1973 20.5539C19.1973 21.5852 20.0333 22.4212 21.0646 22.4212Z" fill="url(#paint6_linear_669_1796)"/>
</g>
<g filter="url(#filter1_i_669_1796)">
<path d="M38.9184 23.6873C40.6488 23.6873 42.0516 22.2845 42.0516 20.5541C42.0516 18.8237 40.6488 17.4209 38.9184 17.4209C37.1879 17.4209 35.7852 18.8237 35.7852 20.5541C35.7852 22.2845 37.1879 23.6873 38.9184 23.6873Z" fill="url(#paint7_linear_669_1796)"/>
<path d="M38.9184 23.6873C40.6488 23.6873 42.0516 22.2845 42.0516 20.5541C42.0516 18.8237 40.6488 17.4209 38.9184 17.4209C37.1879 17.4209 35.7852 18.8237 35.7852 20.5541C35.7852 22.2845 37.1879 23.6873 38.9184 23.6873Z" fill="url(#paint8_radial_669_1796)"/>
</g>
<g filter="url(#filter2_f_669_1796)">
<path d="M38.9191 22.4212C39.9504 22.4212 40.7864 21.5852 40.7864 20.5539C40.7864 19.5226 39.9504 18.6865 38.9191 18.6865C37.8878 18.6865 37.0518 19.5226 37.0518 20.5539C37.0518 21.5852 37.8878 22.4212 38.9191 22.4212Z" fill="#FFBF34"/>
<path d="M38.9191 22.4212C39.9504 22.4212 40.7864 21.5852 40.7864 20.5539C40.7864 19.5226 39.9504 18.6865 38.9191 18.6865C37.8878 18.6865 37.0518 19.5226 37.0518 20.5539C37.0518 21.5852 37.8878 22.4212 38.9191 22.4212Z" fill="url(#paint9_radial_669_1796)"/>
<path d="M38.9191 22.4212C39.9504 22.4212 40.7864 21.5852 40.7864 20.5539C40.7864 19.5226 39.9504 18.6865 38.9191 18.6865C37.8878 18.6865 37.0518 19.5226 37.0518 20.5539C37.0518 21.5852 37.8878 22.4212 38.9191 22.4212Z" fill="url(#paint10_radial_669_1796)"/>
</g>
<path d="M20.404 19.4038C20.3547 18.8156 20.2947 17.1363 20.2949 16.7045C20.2949 16.204 20.4963 15.6034 20.8989 15.3031L21.2009 15.0028C21.7042 14.6024 21.9055 14.0019 21.9055 13.4013V11.7998C21.9055 11.2993 22.2076 10.8989 22.7109 10.7988C23.9189 10.4985 26.4357 9.99805 30.0597 9.99805C33.6839 9.99805 36.2005 10.4985 37.4086 10.7988C37.8114 10.8989 38.2139 11.2993 38.2139 11.7998V13.4013C38.2139 14.0019 38.516 14.6024 38.9187 15.0028C39.8609 15.6631 39.8022 16.0263 39.724 16.8046C39.6999 17.0456 39.6234 19.0465 39.5566 19.5068L39.0577 26.9359C38.7565 30.2569 36.1456 32.5718 33.0325 32.5718H27.0074C23.794 32.5718 21.2834 30.2569 20.9823 26.9359L20.404 19.4038Z" fill="url(#paint11_linear_669_1796)"/>
<path d="M20.404 19.4038C20.3547 18.8156 20.2947 17.1363 20.2949 16.7045C20.2949 16.204 20.4963 15.6034 20.8989 15.3031L21.2009 15.0028C21.7042 14.6024 21.9055 14.0019 21.9055 13.4013V11.7998C21.9055 11.2993 22.2076 10.8989 22.7109 10.7988C23.9189 10.4985 26.4357 9.99805 30.0597 9.99805C33.6839 9.99805 36.2005 10.4985 37.4086 10.7988C37.8114 10.8989 38.2139 11.2993 38.2139 11.7998V13.4013C38.2139 14.0019 38.516 14.6024 38.9187 15.0028C39.8609 15.6631 39.8022 16.0263 39.724 16.8046C39.6999 17.0456 39.6234 19.0465 39.5566 19.5068L39.0577 26.9359C38.7565 30.2569 36.1456 32.5718 33.0325 32.5718H27.0074C23.794 32.5718 21.2834 30.2569 20.9823 26.9359L20.404 19.4038Z" fill="url(#paint12_linear_669_1796)"/>
<path d="M20.404 19.4038C20.3547 18.8156 20.2947 17.1363 20.2949 16.7045C20.2949 16.204 20.4963 15.6034 20.8989 15.3031L21.2009 15.0028C21.7042 14.6024 21.9055 14.0019 21.9055 13.4013V11.7998C21.9055 11.2993 22.2076 10.8989 22.7109 10.7988C23.9189 10.4985 26.4357 9.99805 30.0597 9.99805C33.6839 9.99805 36.2005 10.4985 37.4086 10.7988C37.8114 10.8989 38.2139 11.2993 38.2139 11.7998V13.4013C38.2139 14.0019 38.516 14.6024 38.9187 15.0028C39.8609 15.6631 39.8022 16.0263 39.724 16.8046C39.6999 17.0456 39.6234 19.0465 39.5566 19.5068L39.0577 26.9359C38.7565 30.2569 36.1456 32.5718 33.0325 32.5718H27.0074C23.794 32.5718 21.2834 30.2569 20.9823 26.9359L20.404 19.4038Z" fill="url(#paint13_radial_669_1796)"/>
<path d="M20.404 19.4038C20.3547 18.8156 20.2947 17.1363 20.2949 16.7045C20.2949 16.204 20.4963 15.6034 20.8989 15.3031L21.2009 15.0028C21.7042 14.6024 21.9055 14.0019 21.9055 13.4013V11.7998C21.9055 11.2993 22.2076 10.8989 22.7109 10.7988C23.9189 10.4985 26.4357 9.99805 30.0597 9.99805C33.6839 9.99805 36.2005 10.4985 37.4086 10.7988C37.8114 10.8989 38.2139 11.2993 38.2139 11.7998V13.4013C38.2139 14.0019 38.516 14.6024 38.9187 15.0028C39.8609 15.6631 39.8022 16.0263 39.724 16.8046C39.6999 17.0456 39.6234 19.0465 39.5566 19.5068L39.0577 26.9359C38.7565 30.2569 36.1456 32.5718 33.0325 32.5718H27.0074C23.794 32.5718 21.2834 30.2569 20.9823 26.9359L20.404 19.4038Z" fill="url(#paint14_radial_669_1796)"/>
<path d="M20.404 19.4038C20.3547 18.8156 20.2947 17.1363 20.2949 16.7045C20.2949 16.204 20.4963 15.6034 20.8989 15.3031L21.2009 15.0028C21.7042 14.6024 21.9055 14.0019 21.9055 13.4013V11.7998C21.9055 11.2993 22.2076 10.8989 22.7109 10.7988C23.9189 10.4985 26.4357 9.99805 30.0597 9.99805C33.6839 9.99805 36.2005 10.4985 37.4086 10.7988C37.8114 10.8989 38.2139 11.2993 38.2139 11.7998V13.4013C38.2139 14.0019 38.516 14.6024 38.9187 15.0028C39.8609 15.6631 39.8022 16.0263 39.724 16.8046C39.6999 17.0456 39.6234 19.0465 39.5566 19.5068L39.0577 26.9359C38.7565 30.2569 36.1456 32.5718 33.0325 32.5718H27.0074C23.794 32.5718 21.2834 30.2569 20.9823 26.9359L20.404 19.4038Z" fill="url(#paint15_radial_669_1796)"/>
<g filter="url(#filter3_ii_669_1796)">
<path d="M39.0186 8.39645L39.8239 8.79683C41.2333 9.4975 42.0387 11.099 41.7366 12.8007L40.6292 18.5061C40.5306 19.0953 40.141 19.4919 39.556 19.5067C39.6227 18.5615 39.6852 17.0367 39.7093 16.7957C39.7911 15.9828 39.663 15.7437 38.9179 15.0027C38.5152 14.6023 38.2133 14.0018 38.2133 13.4012V11.7996C38.2133 11.2992 37.8105 10.8988 37.4078 10.7987C36.1999 10.4984 33.6831 9.99792 30.0591 9.99792C26.4349 9.99792 23.9181 10.4984 22.7102 10.7987C22.2068 10.8988 21.9047 11.2992 21.9047 11.7996V13.4012C21.9047 14.0018 21.7035 14.6023 21.2001 15.0027L20.898 15.303C20.4955 15.6033 20.2922 16.2306 20.2922 16.7311C20.319 17.0231 20.3586 18.7041 20.4034 19.4037C19.8409 19.3653 19.3828 18.9759 19.2874 18.406L18.18 12.7006C17.9787 11.099 18.784 9.4975 20.1934 8.79683C22.096 7.96285 22.7893 6.69676 24.3208 5.39358C25.4282 4.39261 27.0388 4.09233 28.4483 4.793C29.455 5.09328 30.5623 5.09328 31.569 4.793C33.0792 4.29252 34.7905 4.69289 35.9985 5.79395L37.5085 7.29539C37.9112 7.79586 38.4145 8.09616 39.0186 8.39645Z" fill="#FFA91B"/>
<path d="M39.0186 8.39645L39.8239 8.79683C41.2333 9.4975 42.0387 11.099 41.7366 12.8007L40.6292 18.5061C40.5306 19.0953 40.141 19.4919 39.556 19.5067C39.6227 18.5615 39.6852 17.0367 39.7093 16.7957C39.7911 15.9828 39.663 15.7437 38.9179 15.0027C38.5152 14.6023 38.2133 14.0018 38.2133 13.4012V11.7996C38.2133 11.2992 37.8105 10.8988 37.4078 10.7987C36.1999 10.4984 33.6831 9.99792 30.0591 9.99792C26.4349 9.99792 23.9181 10.4984 22.7102 10.7987C22.2068 10.8988 21.9047 11.2992 21.9047 11.7996V13.4012C21.9047 14.0018 21.7035 14.6023 21.2001 15.0027L20.898 15.303C20.4955 15.6033 20.2922 16.2306 20.2922 16.7311C20.319 17.0231 20.3586 18.7041 20.4034 19.4037C19.8409 19.3653 19.3828 18.9759 19.2874 18.406L18.18 12.7006C17.9787 11.099 18.784 9.4975 20.1934 8.79683C22.096 7.96285 22.7893 6.69676 24.3208 5.39358C25.4282 4.39261 27.0388 4.09233 28.4483 4.793C29.455 5.09328 30.5623 5.09328 31.569 4.793C33.0792 4.29252 34.7905 4.69289 35.9985 5.79395L37.5085 7.29539C37.9112 7.79586 38.4145 8.09616 39.0186 8.39645Z" fill="url(#paint16_radial_669_1796)"/>
<path d="M39.0186 8.39645L39.8239 8.79683C41.2333 9.4975 42.0387 11.099 41.7366 12.8007L40.6292 18.5061C40.5306 19.0953 40.141 19.4919 39.556 19.5067C39.6227 18.5615 39.6852 17.0367 39.7093 16.7957C39.7911 15.9828 39.663 15.7437 38.9179 15.0027C38.5152 14.6023 38.2133 14.0018 38.2133 13.4012V11.7996C38.2133 11.2992 37.8105 10.8988 37.4078 10.7987C36.1999 10.4984 33.6831 9.99792 30.0591 9.99792C26.4349 9.99792 23.9181 10.4984 22.7102 10.7987C22.2068 10.8988 21.9047 11.2992 21.9047 11.7996V13.4012C21.9047 14.0018 21.7035 14.6023 21.2001 15.0027L20.898 15.303C20.4955 15.6033 20.2922 16.2306 20.2922 16.7311C20.319 17.0231 20.3586 18.7041 20.4034 19.4037C19.8409 19.3653 19.3828 18.9759 19.2874 18.406L18.18 12.7006C17.9787 11.099 18.784 9.4975 20.1934 8.79683C22.096 7.96285 22.7893 6.69676 24.3208 5.39358C25.4282 4.39261 27.0388 4.09233 28.4483 4.793C29.455 5.09328 30.5623 5.09328 31.569 4.793C33.0792 4.29252 34.7905 4.69289 35.9985 5.79395L37.5085 7.29539C37.9112 7.79586 38.4145 8.09616 39.0186 8.39645Z" fill="url(#paint17_linear_669_1796)"/>
<path d="M39.0186 8.39645L39.8239 8.79683C41.2333 9.4975 42.0387 11.099 41.7366 12.8007L40.6292 18.5061C40.5306 19.0953 40.141 19.4919 39.556 19.5067C39.6227 18.5615 39.6852 17.0367 39.7093 16.7957C39.7911 15.9828 39.663 15.7437 38.9179 15.0027C38.5152 14.6023 38.2133 14.0018 38.2133 13.4012V11.7996C38.2133 11.2992 37.8105 10.8988 37.4078 10.7987C36.1999 10.4984 33.6831 9.99792 30.0591 9.99792C26.4349 9.99792 23.9181 10.4984 22.7102 10.7987C22.2068 10.8988 21.9047 11.2992 21.9047 11.7996V13.4012C21.9047 14.0018 21.7035 14.6023 21.2001 15.0027L20.898 15.303C20.4955 15.6033 20.2922 16.2306 20.2922 16.7311C20.319 17.0231 20.3586 18.7041 20.4034 19.4037C19.8409 19.3653 19.3828 18.9759 19.2874 18.406L18.18 12.7006C17.9787 11.099 18.784 9.4975 20.1934 8.79683C22.096 7.96285 22.7893 6.69676 24.3208 5.39358C25.4282 4.39261 27.0388 4.09233 28.4483 4.793C29.455 5.09328 30.5623 5.09328 31.569 4.793C33.0792 4.29252 34.7905 4.69289 35.9985 5.79395L37.5085 7.29539C37.9112 7.79586 38.4145 8.09616 39.0186 8.39645Z" fill="url(#paint18_radial_669_1796)"/>
<path d="M39.0186 8.39645L39.8239 8.79683C41.2333 9.4975 42.0387 11.099 41.7366 12.8007L40.6292 18.5061C40.5306 19.0953 40.141 19.4919 39.556 19.5067C39.6227 18.5615 39.6852 17.0367 39.7093 16.7957C39.7911 15.9828 39.663 15.7437 38.9179 15.0027C38.5152 14.6023 38.2133 14.0018 38.2133 13.4012V11.7996C38.2133 11.2992 37.8105 10.8988 37.4078 10.7987C36.1999 10.4984 33.6831 9.99792 30.0591 9.99792C26.4349 9.99792 23.9181 10.4984 22.7102 10.7987C22.2068 10.8988 21.9047 11.2992 21.9047 11.7996V13.4012C21.9047 14.0018 21.7035 14.6023 21.2001 15.0027L20.898 15.303C20.4955 15.6033 20.2922 16.2306 20.2922 16.7311C20.319 17.0231 20.3586 18.7041 20.4034 19.4037C19.8409 19.3653 19.3828 18.9759 19.2874 18.406L18.18 12.7006C17.9787 11.099 18.784 9.4975 20.1934 8.79683C22.096 7.96285 22.7893 6.69676 24.3208 5.39358C25.4282 4.39261 27.0388 4.09233 28.4483 4.793C29.455 5.09328 30.5623 5.09328 31.569 4.793C33.0792 4.29252 34.7905 4.69289 35.9985 5.79395L37.5085 7.29539C37.9112 7.79586 38.4145 8.09616 39.0186 8.39645Z" fill="url(#paint19_radial_669_1796)"/>
<path d="M39.0186 8.39645L39.8239 8.79683C41.2333 9.4975 42.0387 11.099 41.7366 12.8007L40.6292 18.5061C40.5306 19.0953 40.141 19.4919 39.556 19.5067C39.6227 18.5615 39.6852 17.0367 39.7093 16.7957C39.7911 15.9828 39.663 15.7437 38.9179 15.0027C38.5152 14.6023 38.2133 14.0018 38.2133 13.4012V11.7996C38.2133 11.2992 37.8105 10.8988 37.4078 10.7987C36.1999 10.4984 33.6831 9.99792 30.0591 9.99792C26.4349 9.99792 23.9181 10.4984 22.7102 10.7987C22.2068 10.8988 21.9047 11.2992 21.9047 11.7996V13.4012C21.9047 14.0018 21.7035 14.6023 21.2001 15.0027L20.898 15.303C20.4955 15.6033 20.2922 16.2306 20.2922 16.7311C20.319 17.0231 20.3586 18.7041 20.4034 19.4037C19.8409 19.3653 19.3828 18.9759 19.2874 18.406L18.18 12.7006C17.9787 11.099 18.784 9.4975 20.1934 8.79683C22.096 7.96285 22.7893 6.69676 24.3208 5.39358C25.4282 4.39261 27.0388 4.09233 28.4483 4.793C29.455 5.09328 30.5623 5.09328 31.569 4.793C33.0792 4.29252 34.7905 4.69289 35.9985 5.79395L37.5085 7.29539C37.9112 7.79586 38.4145 8.09616 39.0186 8.39645Z" fill="url(#paint20_radial_669_1796)"/>
<path d="M39.0186 8.39645L39.8239 8.79683C41.2333 9.4975 42.0387 11.099 41.7366 12.8007L40.6292 18.5061C40.5306 19.0953 40.141 19.4919 39.556 19.5067C39.6227 18.5615 39.6852 17.0367 39.7093 16.7957C39.7911 15.9828 39.663 15.7437 38.9179 15.0027C38.5152 14.6023 38.2133 14.0018 38.2133 13.4012V11.7996C38.2133 11.2992 37.8105 10.8988 37.4078 10.7987C36.1999 10.4984 33.6831 9.99792 30.0591 9.99792C26.4349 9.99792 23.9181 10.4984 22.7102 10.7987C22.2068 10.8988 21.9047 11.2992 21.9047 11.7996V13.4012C21.9047 14.0018 21.7035 14.6023 21.2001 15.0027L20.898 15.303C20.4955 15.6033 20.2922 16.2306 20.2922 16.7311C20.319 17.0231 20.3586 18.7041 20.4034 19.4037C19.8409 19.3653 19.3828 18.9759 19.2874 18.406L18.18 12.7006C17.9787 11.099 18.784 9.4975 20.1934 8.79683C22.096 7.96285 22.7893 6.69676 24.3208 5.39358C25.4282 4.39261 27.0388 4.09233 28.4483 4.793C29.455 5.09328 30.5623 5.09328 31.569 4.793C33.0792 4.29252 34.7905 4.69289 35.9985 5.79395L37.5085 7.29539C37.9112 7.79586 38.4145 8.09616 39.0186 8.39645Z" fill="url(#paint21_radial_669_1796)"/>
</g>
<path d="M39.0186 8.39645L39.8239 8.79683C41.2333 9.4975 42.0387 11.099 41.7366 12.8007L40.6292 18.5061C40.5306 19.0953 40.141 19.4919 39.556 19.5067C39.6227 18.5615 39.6852 17.0367 39.7093 16.7957C39.7911 15.9828 39.663 15.7437 38.9179 15.0027C38.5152 14.6023 38.2133 14.0018 38.2133 13.4012V11.7996C38.2133 11.2992 37.8105 10.8988 37.4078 10.7987C36.1999 10.4984 33.6831 9.99792 30.0591 9.99792C26.4349 9.99792 23.9181 10.4984 22.7102 10.7987C22.2068 10.8988 21.9047 11.2992 21.9047 11.7996V13.4012C21.9047 14.0018 21.7035 14.6023 21.2001 15.0027L20.898 15.303C20.4955 15.6033 20.2922 16.2306 20.2922 16.7311C20.319 17.0231 20.3586 18.7041 20.4034 19.4037C19.8409 19.3653 19.3828 18.9759 19.2874 18.406L18.18 12.7006C17.9787 11.099 18.784 9.4975 20.1934 8.79683C22.096 7.96285 22.7893 6.69676 24.3208 5.39358C25.4282 4.39261 27.0388 4.09233 28.4483 4.793C29.455 5.09328 30.5623 5.09328 31.569 4.793C33.0792 4.29252 34.7905 4.69289 35.9985 5.79395L37.5085 7.29539C37.9112 7.79586 38.4145 8.09616 39.0186 8.39645Z" fill="url(#paint22_radial_669_1796)"/>
<path d="M39.0186 8.39645L39.8239 8.79683C41.2333 9.4975 42.0387 11.099 41.7366 12.8007L40.6292 18.5061C40.5306 19.0953 40.141 19.4919 39.556 19.5067C39.6227 18.5615 39.6852 17.0367 39.7093 16.7957C39.7911 15.9828 39.663 15.7437 38.9179 15.0027C38.5152 14.6023 38.2133 14.0018 38.2133 13.4012V11.7996C38.2133 11.2992 37.8105 10.8988 37.4078 10.7987C36.1999 10.4984 33.6831 9.99792 30.0591 9.99792C26.4349 9.99792 23.9181 10.4984 22.7102 10.7987C22.2068 10.8988 21.9047 11.2992 21.9047 11.7996V13.4012C21.9047 14.0018 21.7035 14.6023 21.2001 15.0027L20.898 15.303C20.4955 15.6033 20.2922 16.2306 20.2922 16.7311C20.319 17.0231 20.3586 18.7041 20.4034 19.4037C19.8409 19.3653 19.3828 18.9759 19.2874 18.406L18.18 12.7006C17.9787 11.099 18.784 9.4975 20.1934 8.79683C22.096 7.96285 22.7893 6.69676 24.3208 5.39358C25.4282 4.39261 27.0388 4.09233 28.4483 4.793C29.455 5.09328 30.5623 5.09328 31.569 4.793C33.0792 4.29252 34.7905 4.69289 35.9985 5.79395L37.5085 7.29539C37.9112 7.79586 38.4145 8.09616 39.0186 8.39645Z" fill="url(#paint23_radial_669_1796)"/>
<path d="M39.0186 8.39645L39.8239 8.79683C41.2333 9.4975 42.0387 11.099 41.7366 12.8007L40.6292 18.5061C40.5306 19.0953 40.141 19.4919 39.556 19.5067C39.6227 18.5615 39.6852 17.0367 39.7093 16.7957C39.7911 15.9828 39.663 15.7437 38.9179 15.0027C38.5152 14.6023 38.2133 14.0018 38.2133 13.4012V11.7996C38.2133 11.2992 37.8105 10.8988 37.4078 10.7987C36.1999 10.4984 33.6831 9.99792 30.0591 9.99792C26.4349 9.99792 23.9181 10.4984 22.7102 10.7987C22.2068 10.8988 21.9047 11.2992 21.9047 11.7996V13.4012C21.9047 14.0018 21.7035 14.6023 21.2001 15.0027L20.898 15.303C20.4955 15.6033 20.2922 16.2306 20.2922 16.7311C20.319 17.0231 20.3586 18.7041 20.4034 19.4037C19.8409 19.3653 19.3828 18.9759 19.2874 18.406L18.18 12.7006C17.9787 11.099 18.784 9.4975 20.1934 8.79683C22.096 7.96285 22.7893 6.69676 24.3208 5.39358C25.4282 4.39261 27.0388 4.09233 28.4483 4.793C29.455 5.09328 30.5623 5.09328 31.569 4.793C33.0792 4.29252 34.7905 4.69289 35.9985 5.79395L37.5085 7.29539C37.9112 7.79586 38.4145 8.09616 39.0186 8.39645Z" fill="url(#paint24_radial_669_1796)"/>
<g filter="url(#filter4_f_669_1796)">
<path d="M29.4583 20.3244L27.9187 23.5142C27.7278 24.1703 28.1859 24.8265 28.8348 24.8265H30.2184C30.8671 24.8265 31.3252 24.1601 31.1343 23.5142L30.1993 20.3244C29.9988 19.6178 29.6683 19.6178 29.4583 20.3244Z" fill="#F1901C"/>
</g>
<g filter="url(#filter5_f_669_1796)">
<path d="M29.2577 20.0182L28.2604 23.2081C28.057 23.8642 28.5454 24.5202 29.2373 24.5202H30.7129C31.4048 24.5202 31.8932 23.854 31.6898 23.2081L30.6925 20.0182C30.4787 19.3117 29.4816 19.3117 29.2577 20.0182Z" fill="#FFCC28"/>
<path d="M29.2577 20.0182L28.2604 23.2081C28.057 23.8642 28.5454 24.5202 29.2373 24.5202H30.7129C31.4048 24.5202 31.8932 23.854 31.6898 23.2081L30.6925 20.0182C30.4787 19.3117 29.4816 19.3117 29.2577 20.0182Z" fill="url(#paint25_linear_669_1796)"/>
<path d="M29.2577 20.0182L28.2604 23.2081C28.057 23.8642 28.5454 24.5202 29.2373 24.5202H30.7129C31.4048 24.5202 31.8932 23.854 31.6898 23.2081L30.6925 20.0182C30.4787 19.3117 29.4816 19.3117 29.2577 20.0182Z" fill="url(#paint26_linear_669_1796)"/>
<path d="M29.2577 20.0182L28.2604 23.2081C28.057 23.8642 28.5454 24.5202 29.2373 24.5202H30.7129C31.4048 24.5202 31.8932 23.854 31.6898 23.2081L30.6925 20.0182C30.4787 19.3117 29.4816 19.3117 29.2577 20.0182Z" fill="url(#paint27_linear_669_1796)"/>
</g>
<path d="M29.2577 20.0182L28.2604 23.2081C28.057 23.8642 28.5454 24.5202 29.2373 24.5202H30.7129C31.4048 24.5202 31.8932 23.854 31.6898 23.2081L30.6925 20.0182C30.4787 19.3117 29.4816 19.3117 29.2577 20.0182Z" fill="url(#paint28_linear_669_1796)"/>
<g filter="url(#filter6_f_669_1796)">
<path d="M29.9752 26.4279C29.0231 26.4279 28.128 26.2037 27.3757 25.8116C27.1187 25.6809 26.8425 25.9702 27.0043 26.2037C27.6328 27.1562 28.7278 27.791 29.9752 27.791C31.2227 27.791 32.3177 27.1562 32.9462 26.2037C33.108 25.961 32.832 25.6809 32.5747 25.8116C31.8225 26.2037 30.9369 26.4279 29.9752 26.4279Z" stroke="url(#paint29_radial_669_1796)" stroke-width="0.375"/>
</g>
<path d="M29.9752 26.4279C29.0231 26.4279 28.128 26.2037 27.3757 25.8116C27.1187 25.6809 26.8425 25.9702 27.0043 26.2037C27.6328 27.1562 28.7278 27.791 29.9752 27.791C31.2227 27.791 32.3177 27.1562 32.9462 26.2037C33.108 25.961 32.832 25.6809 32.5747 25.8116C31.8225 26.2037 30.9369 26.4279 29.9752 26.4279Z" fill="#8A004F"/>
<path d="M34.4559 17.8687C35.6814 17.8687 36.7164 18.7135 36.998 19.8553C37.0818 20.1825 36.8306 20.4947 36.4957 20.4947H32.3094C32.043 20.4947 31.83 20.2512 31.8832 19.9847C32.1191 18.7821 33.1771 17.8687 34.4559 17.8687Z" fill="white"/>
<path d="M34.0678 18.3789C34.9965 18.3789 35.7424 19.1325 35.7424 20.0535C35.7424 20.2057 35.7197 20.358 35.6816 20.4948H32.4467C32.4086 20.3503 32.3857 20.2057 32.3857 20.0535C32.3857 19.1325 33.1393 18.3789 34.0678 18.3789Z" fill="url(#paint30_radial_669_1796)"/>
<path d="M33.1094 20.0533C33.1094 19.5204 33.5357 19.0942 34.0684 19.0942C34.6013 19.0942 35.0275 19.5204 35.0275 20.0533C35.0275 20.213 34.9894 20.3653 34.921 20.4947H33.2236C33.1474 20.3653 33.1094 20.213 33.1094 20.0533Z" fill="black"/>
<g filter="url(#filter7_f_669_1796)">
<path d="M33.9455 18.7328C34.0649 18.8923 33.8155 19.0869 33.5318 19.299C33.2483 19.5109 33.038 19.6601 32.9187 19.5006C32.7995 19.341 32.9326 19.0397 33.2161 18.8278C33.4996 18.6158 33.8262 18.5733 33.9455 18.7328Z" fill="#C7A7A3"/>
<path d="M33.9455 18.7328C34.0649 18.8923 33.8155 19.0869 33.5318 19.299C33.2483 19.5109 33.038 19.6601 32.9187 19.5006C32.7995 19.341 32.9326 19.0397 33.2161 18.8278C33.4996 18.6158 33.8262 18.5733 33.9455 18.7328Z" fill="url(#paint31_radial_669_1796)"/>
</g>
<g filter="url(#filter8_f_669_1796)">
<path d="M35.5594 19.833C35.4976 19.4002 35.2443 19.0738 35.1252 18.9648L34.6377 19.5L34.8576 19.9282L35.5594 19.833Z" fill="url(#paint32_linear_669_1796)"/>
</g>
<path d="M25.4834 17.8687C24.2579 17.8687 23.2227 18.7136 22.9411 19.8553C22.8572 20.1827 23.1085 20.4947 23.4434 20.4947H27.6301C27.8965 20.4947 28.1095 20.2512 28.0562 19.9847C27.8204 18.7821 26.7546 17.8687 25.4834 17.8687Z" fill="white"/>
<path d="M25.8718 18.3789C24.9433 18.3789 24.1973 19.1325 24.1973 20.0535C24.1973 20.2057 24.2201 20.358 24.2582 20.495H27.4933C27.5314 20.3505 27.5541 20.2057 27.5541 20.0535C27.5466 19.1325 26.8005 18.3789 25.8718 18.3789Z" fill="url(#paint33_radial_669_1796)"/>
<path d="M26.8302 20.0533C26.8302 19.5204 26.404 19.0942 25.8712 19.0942C25.3383 19.0942 24.9121 19.5204 24.9121 20.0533C24.9121 20.2132 24.9502 20.3655 25.0186 20.4949H26.7162C26.7847 20.3655 26.8302 20.2132 26.8302 20.0533Z" fill="black"/>
<g filter="url(#filter9_f_669_1796)">
<path d="M27.401 19.8567C27.401 19.3156 26.961 18.9548 26.8419 18.8457L26.3008 19.369L26.6338 20.047L27.401 19.8567Z" fill="url(#paint34_linear_669_1796)"/>
</g>
<g filter="url(#filter10_f_669_1796)">
<path d="M25.5393 19.4205C25.8961 19.2315 26.1078 18.9319 26.0121 18.7513C25.9164 18.5708 25.5497 18.5776 25.1929 18.7666C24.8361 18.9557 24.6244 19.2553 24.7201 19.4358C24.8157 19.6164 25.1825 19.6095 25.5393 19.4205Z" fill="#C7A7A3" fill-opacity="0.9"/>
<path d="M25.5393 19.4205C25.8961 19.2315 26.1078 18.9319 26.0121 18.7513C25.9164 18.5708 25.5497 18.5776 25.1929 18.7666C24.8361 18.9557 24.6244 19.2553 24.7201 19.4358C24.8157 19.6164 25.1825 19.6095 25.5393 19.4205Z" fill="url(#paint35_radial_669_1796)"/>
</g>
<g filter="url(#filter11_i_669_1796)">
<path fill-rule="evenodd" clip-rule="evenodd" d="M33.3147 16.4147C34.6654 16.2884 35.5319 16.8155 35.7419 17.0092C36.1019 17.341 36.6627 17.3181 36.9944 16.9581C37.3262 16.5981 37.3034 16.0373 36.9434 15.7056C36.3687 15.176 35.0074 14.4759 33.1497 14.6496C32.6622 14.6952 32.304 15.1273 32.3496 15.6147C32.3952 16.1021 32.8274 16.4603 33.3147 16.4147Z" fill="url(#paint36_radial_669_1796)"/>
</g>
<g filter="url(#filter12_f_669_1796)">
<path d="M36.3429 16.1492C35.9504 15.7876 34.8367 15.1739 33.2324 15.324" stroke="#D76D5B" stroke-width="0.46875" stroke-linecap="round"/>
</g>
<g filter="url(#filter13_i_669_1796)">
<path fill-rule="evenodd" clip-rule="evenodd" d="M26.6349 16.4147C25.2842 16.2884 24.4179 16.8155 24.2077 17.0092C23.8477 17.341 23.2869 17.3181 22.9552 16.9581C22.6235 16.5981 22.6464 16.0373 23.0064 15.7056C23.5811 15.176 24.9424 14.4759 26.8001 14.6496C27.2874 14.6952 27.6457 15.1273 27.6 15.6147C27.5544 16.1021 27.1224 16.4603 26.6349 16.4147Z" fill="url(#paint37_radial_669_1796)"/>
</g>
<g filter="url(#filter14_f_669_1796)">
<path d="M23.6064 16.1492C23.9989 15.7876 25.1126 15.1739 26.7169 15.324" stroke="#D76D5B" stroke-width="0.46875" stroke-linecap="round"/>
</g>
<g filter="url(#filter15_i_669_1796)">
<path d="M48.8063 29.3389H11.1937C10.2 29.3389 9.375 30.1451 9.375 31.1576V55.5889H50.6251V31.1576C50.6251 30.1451 49.8001 29.3389 48.8063 29.3389Z" fill="url(#paint38_linear_669_1796)"/>
<path d="M48.8063 29.3389H11.1937C10.2 29.3389 9.375 30.1451 9.375 31.1576V55.5889H50.6251V31.1576C50.6251 30.1451 49.8001 29.3389 48.8063 29.3389Z" fill="url(#paint39_radial_669_1796)"/>
<path d="M48.8063 29.3389H11.1937C10.2 29.3389 9.375 30.1451 9.375 31.1576V55.5889H50.6251V31.1576C50.6251 30.1451 49.8001 29.3389 48.8063 29.3389Z" fill="url(#paint40_linear_669_1796)"/>
<path d="M48.8063 29.3389H11.1937C10.2 29.3389 9.375 30.1451 9.375 31.1576V55.5889H50.6251V31.1576C50.6251 30.1451 49.8001 29.3389 48.8063 29.3389Z" fill="url(#paint41_linear_669_1796)"/>
<path d="M48.8063 29.3389H11.1937C10.2 29.3389 9.375 30.1451 9.375 31.1576V55.5889H50.6251V31.1576C50.6251 30.1451 49.8001 29.3389 48.8063 29.3389Z" fill="url(#paint42_linear_669_1796)"/>
<path d="M48.8063 29.3389H11.1937C10.2 29.3389 9.375 30.1451 9.375 31.1576V55.5889H50.6251V31.1576C50.6251 30.1451 49.8001 29.3389 48.8063 29.3389Z" fill="url(#paint43_radial_669_1796)"/>
</g>
<path d="M27.082 41.0454C27.082 40.7865 27.2918 40.5767 27.5508 40.5767H32.4447C32.7035 40.5767 32.9135 40.7865 32.9135 41.0454V45.5748C32.9135 45.8338 32.7035 46.0436 32.4447 46.0436H27.5508C27.2918 46.0436 27.082 45.8338 27.082 45.5748V41.0454Z" fill="url(#paint44_linear_669_1796)"/>
<path d="M27.082 41.0454C27.082 40.7865 27.2918 40.5767 27.5508 40.5767H32.4447C32.7035 40.5767 32.9135 40.7865 32.9135 41.0454V45.5748C32.9135 45.8338 32.7035 46.0436 32.4447 46.0436H27.5508C27.2918 46.0436 27.082 45.8338 27.082 45.5748V41.0454Z" fill="url(#paint45_linear_669_1796)"/>
<path d="M27.082 41.0454C27.082 40.7865 27.2918 40.5767 27.5508 40.5767H32.4447C32.7035 40.5767 32.9135 40.7865 32.9135 41.0454V45.5748C32.9135 45.8338 32.7035 46.0436 32.4447 46.0436H27.5508C27.2918 46.0436 27.082 45.8338 27.082 45.5748V41.0454Z" fill="url(#paint46_linear_669_1796)"/>
<path d="M27.082 41.0454C27.082 40.7865 27.2918 40.5767 27.5508 40.5767H32.4447C32.7035 40.5767 32.9135 40.7865 32.9135 41.0454V45.5748C32.9135 45.8338 32.7035 46.0436 32.4447 46.0436H27.5508C27.2918 46.0436 27.082 45.8338 27.082 45.5748V41.0454Z" fill="url(#paint47_linear_669_1796)"/>
<path d="M27.082 41.0454C27.082 40.7865 27.2918 40.5767 27.5508 40.5767H32.4447C32.7035 40.5767 32.9135 40.7865 32.9135 41.0454V45.5748C32.9135 45.8338 32.7035 46.0436 32.4447 46.0436H27.5508C27.2918 46.0436 27.082 45.8338 27.082 45.5748V41.0454Z" fill="url(#paint48_linear_669_1796)"/>
<path d="M27.082 41.0454C27.082 40.7865 27.2918 40.5767 27.5508 40.5767H32.4447C32.7035 40.5767 32.9135 40.7865 32.9135 41.0454V45.5748C32.9135 45.8338 32.7035 46.0436 32.4447 46.0436H27.5508C27.2918 46.0436 27.082 45.8338 27.082 45.5748V41.0454Z" fill="url(#paint49_radial_669_1796)" fill-opacity="0.6"/>
<defs>
<filter id="filter0_f_669_1796" x="18.2598" y="17.749" width="5.60938" height="5.60986" filterUnits="userSpaceOnUse" color-interpolation-filters="sRGB">
<feFlood flood-opacity="0" result="BackgroundImageFix"/>
<feBlend mode="normal" in="SourceGraphic" in2="BackgroundImageFix" result="shape"/>
<feGaussianBlur stdDeviation="0.46875" result="effect1_foregroundBlur_669_1796"/>
</filter>
<filter id="filter1_i_669_1796" x="35.7852" y="16.9521" width="6.73535" height="6.73535" filterUnits="userSpaceOnUse" color-interpolation-filters="sRGB">
<feFlood flood-opacity="0" result="BackgroundImageFix"/>
<feBlend mode="normal" in="SourceGraphic" in2="BackgroundImageFix" result="shape"/>
<feColorMatrix in="SourceAlpha" type="matrix" values="0 0 0 0 0 0 0 0 0 0 0 0 0 0 0 0 0 0 127 0" result="hardAlpha"/>
<feOffset dx="0.46875" dy="-0.46875"/>
<feGaussianBlur stdDeviation="0.46875"/>
<feComposite in2="hardAlpha" operator="arithmetic" k2="-1" k3="1"/>
<feColorMatrix type="matrix" values="0 0 0 0 0.85098 0 0 0 0 0.560784 0 0 0 0 0.376471 0 0 0 1 0"/>
<feBlend mode="normal" in2="shape" result="effect1_innerShadow_669_1796"/>
</filter>
<filter id="filter2_f_669_1796" x="36.1143" y="17.749" width="5.60938" height="5.60986" filterUnits="userSpaceOnUse" color-interpolation-filters="sRGB">
<feFlood flood-opacity="0" result="BackgroundImageFix"/>
<feBlend mode="normal" in="SourceGraphic" in2="BackgroundImageFix" result="shape"/>
<feGaussianBlur stdDeviation="0.46875" result="effect1_foregroundBlur_669_1796"/>
</filter>
<filter id="filter3_ii_669_1796" x="18.1494" y="3.94238" width="23.6504" height="15.5645" filterUnits="userSpaceOnUse" color-interpolation-filters="sRGB">
<feFlood flood-opacity="0" result="BackgroundImageFix"/>
<feBlend mode="normal" in="SourceGraphic" in2="BackgroundImageFix" result="shape"/>
<feColorMatrix in="SourceAlpha" type="matrix" values="0 0 0 0 0 0 0 0 0 0 0 0 0 0 0 0 0 0 127 0" result="hardAlpha"/>
<feOffset dy="-0.46875"/>
<feGaussianBlur stdDeviation="0.234375"/>
<feComposite in2="hardAlpha" operator="arithmetic" k2="-1" k3="1"/>
<feColorMatrix type="matrix" values="0 0 0 0 0.984314 0 0 0 0 0.584314 0 0 0 0 0.129412 0 0 0 1 0"/>
<feBlend mode="normal" in2="shape" result="effect1_innerShadow_669_1796"/>
<feColorMatrix in="SourceAlpha" type="matrix" values="0 0 0 0 0 0 0 0 0 0 0 0 0 0 0 0 0 0 127 0" result="hardAlpha"/>
<feOffset dy="-0.46875"/>
<feGaussianBlur stdDeviation="0.234375"/>
<feComposite in2="hardAlpha" operator="arithmetic" k2="-1" k3="1"/>
<feColorMatrix type="matrix" values="0 0 0 0 0.972549 0 0 0 0 0.572549 0 0 0 0 0.0156863 0 0 0 1 0"/>
<feBlend mode="normal" in2="effect1_innerShadow_669_1796" result="effect2_innerShadow_669_1796"/>
</filter>
<filter id="filter4_f_669_1796" x="26.4688" y="18.3882" width="6.11523" height="7.84473" filterUnits="userSpaceOnUse" color-interpolation-filters="sRGB">
<feFlood flood-opacity="0" result="BackgroundImageFix"/>
<feBlend mode="normal" in="SourceGraphic" in2="BackgroundImageFix" result="shape"/>
<feGaussianBlur stdDeviation="0.703125" result="effect1_foregroundBlur_669_1796"/>
</filter>
<filter id="filter5_f_669_1796" x="27.7451" y="19.0195" width="4.45996" height="5.96924" filterUnits="userSpaceOnUse" color-interpolation-filters="sRGB">
<feFlood flood-opacity="0" result="BackgroundImageFix"/>
<feBlend mode="normal" in="SourceGraphic" in2="BackgroundImageFix" result="shape"/>
<feGaussianBlur stdDeviation="0.234375" result="effect1_foregroundBlur_669_1796"/>
</filter>
<filter id="filter6_f_669_1796" x="26.5811" y="25.4033" width="6.78809" height="2.7627" filterUnits="userSpaceOnUse" color-interpolation-filters="sRGB">
<feFlood flood-opacity="0" result="BackgroundImageFix"/>
<feBlend mode="normal" in="SourceGraphic" in2="BackgroundImageFix" result="shape"/>
<feGaussianBlur stdDeviation="0.09375" result="effect1_foregroundBlur_669_1796"/>
</filter>
<filter id="filter7_f_669_1796" x="32.6875" y="18.4487" width="1.47656" height="1.30615" filterUnits="userSpaceOnUse" color-interpolation-filters="sRGB">
<feFlood flood-opacity="0" result="BackgroundImageFix"/>
<feBlend mode="normal" in="SourceGraphic" in2="BackgroundImageFix" result="shape"/>
<feGaussianBlur stdDeviation="0.09375" result="effect1_foregroundBlur_669_1796"/>
</filter>
<filter id="filter8_f_669_1796" x="34.2627" y="18.5898" width="1.67188" height="1.71338" filterUnits="userSpaceOnUse" color-interpolation-filters="sRGB">
<feFlood flood-opacity="0" result="BackgroundImageFix"/>
<feBlend mode="normal" in="SourceGraphic" in2="BackgroundImageFix" result="shape"/>
<feGaussianBlur stdDeviation="0.1875" result="effect1_foregroundBlur_669_1796"/>
</filter>
<filter id="filter9_f_669_1796" x="25.9258" y="18.4707" width="1.85059" height="1.95117" filterUnits="userSpaceOnUse" color-interpolation-filters="sRGB">
<feFlood flood-opacity="0" result="BackgroundImageFix"/>
<feBlend mode="normal" in="SourceGraphic" in2="BackgroundImageFix" result="shape"/>
<feGaussianBlur stdDeviation="0.1875" result="effect1_foregroundBlur_669_1796"/>
</filter>
<filter id="filter10_f_669_1796" x="24.5098" y="18.4326" width="1.71289" height="1.32178" filterUnits="userSpaceOnUse" color-interpolation-filters="sRGB">
<feFlood flood-opacity="0" result="BackgroundImageFix"/>
<feBlend mode="normal" in="SourceGraphic" in2="BackgroundImageFix" result="shape"/>
<feGaussianBlur stdDeviation="0.09375" result="effect1_foregroundBlur_669_1796"/>
</filter>
<filter id="filter11_i_669_1796" x="32.3457" y="14.1538" width="4.88379" height="3.08984" filterUnits="userSpaceOnUse" color-interpolation-filters="sRGB">
<feFlood flood-opacity="0" result="BackgroundImageFix"/>
<feBlend mode="normal" in="SourceGraphic" in2="BackgroundImageFix" result="shape"/>
<feColorMatrix in="SourceAlpha" type="matrix" values="0 0 0 0 0 0 0 0 0 0 0 0 0 0 0 0 0 0 127 0" result="hardAlpha"/>
<feOffset dy="-0.46875"/>
<feGaussianBlur stdDeviation="0.375"/>
<feComposite in2="hardAlpha" operator="arithmetic" k2="-1" k3="1"/>
<feColorMatrix type="matrix" values="0 0 0 0 0.698039 0 0 0 0 0.25098 0 0 0 0 0.313726 0 0 0 1 0"/>
<feBlend mode="normal" in2="shape" result="effect1_innerShadow_669_1796"/>
</filter>
<filter id="filter12_f_669_1796" x="32.248" y="14.3164" width="5.0791" height="2.81738" filterUnits="userSpaceOnUse" color-interpolation-filters="sRGB">
<feFlood flood-opacity="0" result="BackgroundImageFix"/>
<feBlend mode="normal" in="SourceGraphic" in2="BackgroundImageFix" result="shape"/>
<feGaussianBlur stdDeviation="0.375" result="effect1_foregroundBlur_669_1796"/>
</filter>
<filter id="filter13_i_669_1796" x="22.7207" y="14.1538" width="4.88281" height="3.08984" filterUnits="userSpaceOnUse" color-interpolation-filters="sRGB">
<feFlood flood-opacity="0" result="BackgroundImageFix"/>
<feBlend mode="normal" in="SourceGraphic" in2="BackgroundImageFix" result="shape"/>
<feColorMatrix in="SourceAlpha" type="matrix" values="0 0 0 0 0 0 0 0 0 0 0 0 0 0 0 0 0 0 127 0" result="hardAlpha"/>
<feOffset dy="-0.46875"/>
<feGaussianBlur stdDeviation="0.375"/>
<feComposite in2="hardAlpha" operator="arithmetic" k2="-1" k3="1"/>
<feColorMatrix type="matrix" values="0 0 0 0 0.698039 0 0 0 0 0.25098 0 0 0 0 0.313726 0 0 0 1 0"/>
<feBlend mode="normal" in2="shape" result="effect1_innerShadow_669_1796"/>
</filter>
<filter id="filter14_f_669_1796" x="22.6221" y="14.3164" width="5.0791" height="2.81738" filterUnits="userSpaceOnUse" color-interpolation-filters="sRGB">
<feFlood flood-opacity="0" result="BackgroundImageFix"/>
<feBlend mode="normal" in="SourceGraphic" in2="BackgroundImageFix" result="shape"/>
<feGaussianBlur stdDeviation="0.375" result="effect1_foregroundBlur_669_1796"/>
</filter>
<filter id="filter15_i_669_1796" x="9.375" y="29.3389" width="41.25" height="26.4375" filterUnits="userSpaceOnUse" color-interpolation-filters="sRGB">
<feFlood flood-opacity="0" result="BackgroundImageFix"/>
<feBlend mode="normal" in="SourceGraphic" in2="BackgroundImageFix" result="shape"/>
<feColorMatrix in="SourceAlpha" type="matrix" values="0 0 0 0 0 0 0 0 0 0 0 0 0 0 0 0 0 0 127 0" result="hardAlpha"/>
<feOffset dy="0.1875"/>
<feGaussianBlur stdDeviation="0.46875"/>
<feComposite in2="hardAlpha" operator="arithmetic" k2="-1" k3="1"/>
<feColorMatrix type="matrix" values="0 0 0 0 0.678431 0 0 0 0 0.670588 0 0 0 0 0.682353 0 0 0 1 0"/>
<feBlend mode="normal" in2="shape" result="effect1_innerShadow_669_1796"/>
</filter>
<radialGradient id="paint0_radial_669_1796" cx="0" cy="0" r="1" gradientUnits="userSpaceOnUse" gradientTransform="translate(5.20182 53.2161) rotate(-1.93059) scale(5.21781 6.87904)">
<stop offset="0.331197" stop-color="#FDC64D"/>
<stop offset="1" stop-color="#EBA02A"/>
</radialGradient>
<radialGradient id="paint1_radial_669_1796" cx="0" cy="0" r="1" gradientUnits="userSpaceOnUse" gradientTransform="translate(54.8304 52.4942) rotate(151.68) scale(6.52288 6.28155)">
<stop stop-color="#FFEB48"/>
<stop offset="1" stop-color="#F8C743"/>
</radialGradient>
<linearGradient id="paint2_linear_669_1796" x1="30.0001" y1="11.8698" x2="30.0001" y2="64.1981" gradientUnits="userSpaceOnUse">
<stop stop-color="#636363"/>
<stop offset="1" stop-color="#1C1C1C"/>
</linearGradient>
<linearGradient id="paint3_linear_669_1796" x1="20.4713" y1="44.3083" x2="2.67858" y2="44.385" gradientUnits="userSpaceOnUse">
<stop stop-color="#1C1C1C"/>
<stop offset="1" stop-color="#636363"/>
</linearGradient>
<linearGradient id="paint4_linear_669_1796" x1="43.1211" y1="44.3401" x2="53.7231" y2="44.3401" gradientUnits="userSpaceOnUse">
<stop stop-color="#1C1C1C"/>
<stop offset="1" stop-color="#636363"/>
</linearGradient>
<radialGradient id="paint5_radial_669_1796" cx="0" cy="0" r="1" gradientUnits="userSpaceOnUse" gradientTransform="translate(17.9307 20.5541) scale(3.29348 5.76362)">
<stop offset="0.350532" stop-color="#E6962B"/>
<stop offset="1" stop-color="#CA8F29"/>
</radialGradient>
<linearGradient id="paint6_linear_669_1796" x1="21.0646" y1="21.0768" x2="19.8625" y2="21.0768" gradientUnits="userSpaceOnUse">
<stop stop-color="#BD6A1E"/>
<stop offset="1" stop-color="#D77A1C"/>
</linearGradient>
<linearGradient id="paint7_linear_669_1796" x1="40.9574" y1="18.5054" x2="39.421" y2="23.2655" gradientUnits="userSpaceOnUse">
<stop stop-color="#FFE446"/>
<stop offset="1" stop-color="#FFC339"/>
</linearGradient>
<radialGradient id="paint8_radial_669_1796" cx="0" cy="0" r="1" gradientUnits="userSpaceOnUse" gradientTransform="translate(39.6168 20.057) rotate(-36.0604) scale(1.91927 2.1906)">
<stop offset="0.542503" stop-color="#FFC532"/>
<stop offset="1" stop-color="#FFC532" stop-opacity="0"/>
</radialGradient>
<radialGradient id="paint9_radial_669_1796" cx="0" cy="0" r="1" gradientUnits="userSpaceOnUse" gradientTransform="translate(38.8415 22.0951) rotate(-61.4675) scale(3.22684 1.88869)">
<stop offset="0.689542" stop-color="#F4A51A" stop-opacity="0"/>
<stop offset="1" stop-color="#F4A51A"/>
</radialGradient>
<radialGradient id="paint10_radial_669_1796" cx="0" cy="0" r="1" gradientUnits="userSpaceOnUse" gradientTransform="translate(38.9191 20.5539) rotate(44.7077) scale(0.684709 0.882685)">
<stop stop-color="#E59B1F"/>
<stop offset="1" stop-color="#E59B1F" stop-opacity="0"/>
</radialGradient>
<linearGradient id="paint11_linear_669_1796" x1="37.5498" y1="21.2848" x2="23.2171" y2="23.4206" gradientUnits="userSpaceOnUse">
<stop stop-color="#FFE833"/>
<stop offset="0.91602" stop-color="#F9A528"/>
</linearGradient>
<linearGradient id="paint12_linear_669_1796" x1="19.8485" y1="26.3445" x2="24.1885" y2="25.7785" gradientUnits="userSpaceOnUse">
<stop stop-color="#D19C3A"/>
<stop offset="1" stop-color="#D19C3A" stop-opacity="0"/>
</linearGradient>
<radialGradient id="paint13_radial_669_1796" cx="0" cy="0" r="1" gradientUnits="userSpaceOnUse" gradientTransform="translate(32.5239 18.7039) rotate(96.6934) scale(13.9629 19.3309)">
<stop offset="0.635851" stop-color="#F49A3E" stop-opacity="0"/>
<stop offset="0.927835" stop-color="#D07F50"/>
</radialGradient>
<radialGradient id="paint14_radial_669_1796" cx="0" cy="0" r="1" gradientUnits="userSpaceOnUse" gradientTransform="translate(34.3782 18.1676) rotate(-90) scale(2.4531 3.01918)">
<stop stop-color="#FFBA0D"/>
<stop offset="1" stop-color="#FFBA0D" stop-opacity="0"/>
</radialGradient>
<radialGradient id="paint15_radial_669_1796" cx="0" cy="0" r="1" gradientUnits="userSpaceOnUse" gradientTransform="translate(25.8239 18.1047) rotate(-90) scale(2.61034 3.24619)">
<stop stop-color="#EE911A"/>
<stop offset="1" stop-color="#EE911A" stop-opacity="0"/>
</radialGradient>
<radialGradient id="paint16_radial_669_1796" cx="0" cy="0" r="1" gradientUnits="userSpaceOnUse" gradientTransform="translate(36.9042 6.0781) rotate(127.807) scale(10.5215 17.8928)">
<stop stop-color="#FFE336"/>
<stop offset="1" stop-color="#FFE336" stop-opacity="0"/>
</radialGradient>
<linearGradient id="paint17_linear_669_1796" x1="20.8515" y1="20.0523" x2="26.298" y2="10.3779" gradientUnits="userSpaceOnUse">
<stop stop-color="#E07027"/>
<stop offset="1" stop-color="#E07027" stop-opacity="0"/>
</linearGradient>
<radialGradient id="paint18_radial_669_1796" cx="0" cy="0" r="1" gradientUnits="userSpaceOnUse" gradientTransform="translate(22.2122 13.7256) rotate(-95.2901) scale(3.75547 1.8444)">
<stop offset="0.22158" stop-color="#FFB42C"/>
<stop offset="1" stop-color="#FFB42C" stop-opacity="0"/>
</radialGradient>
<radialGradient id="paint19_radial_669_1796" cx="0" cy="0" r="1" gradientUnits="userSpaceOnUse" gradientTransform="translate(37.9073 17.2933) rotate(-66.3998) scale(4.0275 3.28474)">
<stop offset="0.478737" stop-color="#E57D1C"/>
<stop offset="1" stop-color="#E57D1C" stop-opacity="0"/>
</radialGradient>
<radialGradient id="paint20_radial_669_1796" cx="0" cy="0" r="1" gradientUnits="userSpaceOnUse" gradientTransform="translate(28.5195 4.41113) rotate(51.1339) scale(2.96929 2.62166)">
<stop stop-color="#FFCE2C"/>
<stop offset="1" stop-color="#FFCE2C" stop-opacity="0"/>
</radialGradient>
<radialGradient id="paint21_radial_669_1796" cx="0" cy="0" r="1" gradientUnits="userSpaceOnUse" gradientTransform="translate(37.8357 12.6353) rotate(-64.4528) scale(6.31459 2.18177)">
<stop stop-color="#FFD93A"/>
<stop offset="1" stop-color="#FFD93A" stop-opacity="0"/>
</radialGradient>
<radialGradient id="paint22_radial_669_1796" cx="0" cy="0" r="1" gradientUnits="userSpaceOnUse" gradientTransform="translate(31.2786 4.41113) rotate(75.569) scale(1.9668 3.23351)">
<stop offset="0.207744" stop-color="#DDB13B"/>
<stop offset="1" stop-color="#FFC926" stop-opacity="0"/>
</radialGradient>
<radialGradient id="paint23_radial_669_1796" cx="0" cy="0" r="1" gradientUnits="userSpaceOnUse" gradientTransform="translate(21.7506 6.77755) rotate(55.3048) scale(3.64978 7.59516)">
<stop offset="0.288" stop-color="#C9993E"/>
<stop offset="1" stop-color="#F29322" stop-opacity="0"/>
</radialGradient>
<radialGradient id="paint24_radial_669_1796" cx="0" cy="0" r="1" gradientUnits="userSpaceOnUse" gradientTransform="translate(32.1381 12.3637) rotate(155.748) scale(14.8361 18.5642)">
<stop offset="0.756258" stop-color="#CF7D35" stop-opacity="0"/>
<stop offset="0.958595" stop-color="#CF7D35"/>
</radialGradient>
<linearGradient id="paint25_linear_669_1796" x1="28.3532" y1="22.5218" x2="30.114" y2="22.5218" gradientUnits="userSpaceOnUse">
<stop stop-color="#FAA416"/>
<stop offset="1" stop-color="#FAA416" stop-opacity="0"/>
</linearGradient>
<linearGradient id="paint26_linear_669_1796" x1="31.7363" y1="23.1271" x2="29.8114" y2="23.0995" gradientUnits="userSpaceOnUse">
<stop stop-color="#FFE721"/>
<stop offset="1" stop-color="#FFE721" stop-opacity="0"/>
</linearGradient>
<linearGradient id="paint27_linear_669_1796" x1="30.3402" y1="24.5202" x2="30.3402" y2="23.4447" gradientUnits="userSpaceOnUse">
<stop stop-color="#EB8A1C"/>
<stop offset="1" stop-color="#EB8A1C" stop-opacity="0"/>
</linearGradient>
<linearGradient id="paint28_linear_669_1796" x1="30.211" y1="24.599" x2="30.211" y2="24.2843" gradientUnits="userSpaceOnUse">
<stop stop-color="#E88613"/>
<stop offset="1" stop-color="#E88613" stop-opacity="0"/>
</linearGradient>
<radialGradient id="paint29_radial_669_1796" cx="0" cy="0" r="1" gradientUnits="userSpaceOnUse" gradientTransform="translate(29.8164 28.0833) rotate(-87.7543) scale(1.17815 3.53445)">
<stop stop-color="#FFD069"/>
<stop offset="1" stop-color="#FFBE30" stop-opacity="0"/>
</radialGradient>
<radialGradient id="paint30_radial_669_1796" cx="0" cy="0" r="1" gradientUnits="userSpaceOnUse" gradientTransform="translate(34.0641 19.8999) rotate(90) scale(1.69502 2.00565)">
<stop offset="0.75" stop-color="#925C51"/>
<stop offset="1" stop-color="#85534D"/>
</radialGradient>
<radialGradient id="paint31_radial_669_1796" cx="0" cy="0" r="1" gradientTransform="matrix(-0.435158 -0.560758 0.772031 -0.599106 33.6367 19.4318)" gradientUnits="userSpaceOnUse">
<stop offset="0.765532" stop-color="#FFE6E2" stop-opacity="0"/>
<stop offset="0.966159" stop-color="#FFE6E2"/>
</radialGradient>
<linearGradient id="paint32_linear_669_1796" x1="35.5236" y1="19.3751" x2="34.9349" y2="19.7379" gradientUnits="userSpaceOnUse">
<stop stop-color="#B4948D"/>
<stop offset="1" stop-color="#B4948D" stop-opacity="0"/>
</linearGradient>
<radialGradient id="paint33_radial_669_1796" cx="0" cy="0" r="1" gradientUnits="userSpaceOnUse" gradientTransform="translate(25.8758 19.9001) rotate(90) scale(1.69511 2.00574)">
<stop offset="0.75" stop-color="#925C51"/>
<stop offset="1" stop-color="#85534D"/>
</radialGradient>
<linearGradient id="paint34_linear_669_1796" x1="27.2705" y1="19.375" x2="26.6818" y2="19.7378" gradientUnits="userSpaceOnUse">
<stop stop-color="#B4948D"/>
<stop offset="1" stop-color="#B4948D" stop-opacity="0"/>
</linearGradient>
<radialGradient id="paint35_radial_669_1796" cx="0" cy="0" r="1" gradientUnits="userSpaceOnUse" gradientTransform="translate(25.6177 19.6289) rotate(-118.811) scale(0.927183 1.11451)">
<stop offset="0.765532" stop-color="#FFE6E2" stop-opacity="0"/>
<stop offset="0.966159" stop-color="#FFE6E2"/>
</radialGradient>
<radialGradient id="paint36_radial_669_1796" cx="0" cy="0" r="1" gradientUnits="userSpaceOnUse" gradientTransform="translate(34.5745 16.4266) rotate(-76.373) scale(1.56762 3.43913)">
<stop offset="0.656765" stop-color="#C64F38"/>
<stop offset="1" stop-color="#BB4F29"/>
</radialGradient>
<radialGradient id="paint37_radial_669_1796" cx="0" cy="0" r="1" gradientUnits="userSpaceOnUse" gradientTransform="translate(25.3751 16.4266) rotate(-103.627) scale(1.56762 3.43912)">
<stop offset="0.656765" stop-color="#C64F38"/>
<stop offset="1" stop-color="#BB4F29"/>
</radialGradient>
<linearGradient id="paint38_linear_669_1796" x1="14.0489" y1="36.3412" x2="21.1578" y2="57.0613" gradientUnits="userSpaceOnUse">
<stop stop-color="#AB9CBE"/>
<stop offset="1" stop-color="#847498"/>
</linearGradient>
<radialGradient id="paint39_radial_669_1796" cx="0" cy="0" r="1" gradientUnits="userSpaceOnUse" gradientTransform="translate(32.3301 57.5522) rotate(-90) scale(14.2445 24.8947)">
<stop offset="0.0273225" stop-color="#78698C"/>
<stop offset="1" stop-color="#7A6B8E" stop-opacity="0"/>
</radialGradient>
<linearGradient id="paint40_linear_669_1796" x1="30.0001" y1="29.3389" x2="30.0001" y2="31.8881" gradientUnits="userSpaceOnUse">
<stop stop-color="#BEB0B0"/>
<stop offset="0.267777" stop-color="#BEB7C7"/>
<stop offset="0.863185" stop-color="#BEB7C7" stop-opacity="0"/>
</linearGradient>
<linearGradient id="paint41_linear_669_1796" x1="9.375" y1="44.7787" x2="11.3536" y2="44.7787" gradientUnits="userSpaceOnUse">
<stop stop-color="#9F93B2"/>
<stop offset="1" stop-color="#9F93B2" stop-opacity="0"/>
</linearGradient>
<linearGradient id="paint42_linear_669_1796" x1="50.6251" y1="46.5366" x2="47.8574" y2="46.5366" gradientUnits="userSpaceOnUse">
<stop offset="0.174296" stop-color="#BAB9C0"/>
<stop offset="1" stop-color="#A191B5" stop-opacity="0"/>
</linearGradient>
<radialGradient id="paint43_radial_669_1796" cx="0" cy="0" r="1" gradientUnits="userSpaceOnUse" gradientTransform="translate(50.0547 30.5404) rotate(150.751) scale(1.67889 1.55686)">
<stop stop-color="#E5DFF1"/>
<stop offset="0.723783" stop-color="#E5DFF1" stop-opacity="0"/>
</radialGradient>
<linearGradient id="paint44_linear_669_1796" x1="33.7062" y1="43.31" x2="26.0827" y2="43.31" gradientUnits="userSpaceOnUse">
<stop offset="0.0957634" stop-color="#56416B"/>
<stop offset="0.129627" stop-color="#614C77"/>
<stop offset="0.165482" stop-color="#51366C"/>
<stop offset="1" stop-color="#4F3568"/>
</linearGradient>
<linearGradient id="paint45_linear_669_1796" x1="29.9977" y1="40.5767" x2="29.9977" y2="43.4923" gradientUnits="userSpaceOnUse">
<stop stop-color="#60407F"/>
<stop offset="1" stop-color="#543870" stop-opacity="0"/>
</linearGradient>
<linearGradient id="paint46_linear_669_1796" x1="29.9977" y1="40.5767" x2="29.9977" y2="46.0436" gradientUnits="userSpaceOnUse">
<stop stop-color="#594170"/>
<stop offset="0.0367115" stop-color="#6D5686"/>
<stop offset="0.0580102" stop-color="#6F5783"/>
<stop offset="0.096735" stop-color="#5F447B" stop-opacity="0"/>
</linearGradient>
<linearGradient id="paint47_linear_669_1796" x1="27.082" y1="43.353" x2="28.1622" y2="43.353" gradientUnits="userSpaceOnUse">
<stop offset="0.0862049" stop-color="#3B2B50"/>
<stop offset="0.662599" stop-color="#52376C" stop-opacity="0"/>
</linearGradient>
<linearGradient id="paint48_linear_669_1796" x1="29.9977" y1="46.5783" x2="29.9977" y2="45.3146" gradientUnits="userSpaceOnUse">
<stop offset="0.50729" stop-color="#3D2555"/>
<stop offset="0.735619" stop-color="#4A3261" stop-opacity="0"/>
</linearGradient>
<radialGradient id="paint49_radial_669_1796" cx="0" cy="0" r="1" gradientUnits="userSpaceOnUse" gradientTransform="translate(32.5703 40.9203) rotate(140.08) scale(0.233974 0.34884)">
<stop stop-color="#806B97"/>
<stop offset="1" stop-color="#8D78A4" stop-opacity="0"/>
</radialGradient>
</defs>
</svg>
