<svg width="60" height="60" viewBox="0 0 60 60" fill="none" xmlns="http://www.w3.org/2000/svg">
<g filter="url(#filter0_i_672_2997)">
<path d="M5.01616 25.5933C8.64251 18.4863 16.9827 10.0831 30.3222 10.0831C43.6989 10.0831 51.9432 18.0469 55.5541 25.6674C56.5374 27.263 56.5745 29.174 55.6282 30.788C50.9345 38.8957 43.6617 46.2982 30.3222 46.2982C28.547 46.2982 26.8008 46.2206 25.2044 45.9939C24.3417 45.8713 23.4534 45.9804 22.6867 46.3944C20.5225 47.5631 18.3464 48.8308 15.5727 50.3985C14.7193 50.8807 13.6803 50.2314 13.736 49.2481L14.1418 42.8572C14.2019 41.9092 13.7727 41.0028 13.0461 40.3912C9.80384 37.6614 7.26151 34.2255 5.09037 30.6952C4.10707 29.0998 4.06996 27.2073 5.01616 25.5933Z" fill="url(#paint0_radial_672_2997)"/>
<path d="M5.01616 25.5933C8.64251 18.4863 16.9827 10.0831 30.3222 10.0831C43.6989 10.0831 51.9432 18.0469 55.5541 25.6674C56.5374 27.263 56.5745 29.174 55.6282 30.788C50.9345 38.8957 43.6617 46.2982 30.3222 46.2982C28.547 46.2982 26.8008 46.2206 25.2044 45.9939C24.3417 45.8713 23.4534 45.9804 22.6867 46.3944C20.5225 47.5631 18.3464 48.8308 15.5727 50.3985C14.7193 50.8807 13.6803 50.2314 13.736 49.2481L14.1418 42.8572C14.2019 41.9092 13.7727 41.0028 13.0461 40.3912C9.80384 37.6614 7.26151 34.2255 5.09037 30.6952C4.10707 29.0998 4.06996 27.2073 5.01616 25.5933Z" fill="url(#paint1_radial_672_2997)"/>
<path d="M5.01616 25.5933C8.64251 18.4863 16.9827 10.0831 30.3222 10.0831C43.6989 10.0831 51.9432 18.0469 55.5541 25.6674C56.5374 27.263 56.5745 29.174 55.6282 30.788C50.9345 38.8957 43.6617 46.2982 30.3222 46.2982C28.547 46.2982 26.8008 46.2206 25.2044 45.9939C24.3417 45.8713 23.4534 45.9804 22.6867 46.3944C20.5225 47.5631 18.3464 48.8308 15.5727 50.3985C14.7193 50.8807 13.6803 50.2314 13.736 49.2481L14.1418 42.8572C14.2019 41.9092 13.7727 41.0028 13.0461 40.3912C9.80384 37.6614 7.26151 34.2255 5.09037 30.6952C4.10707 29.0998 4.06996 27.2073 5.01616 25.5933Z" fill="url(#paint2_radial_672_2997)"/>
<path d="M5.01616 25.5933C8.64251 18.4863 16.9827 10.0831 30.3222 10.0831C43.6989 10.0831 51.9432 18.0469 55.5541 25.6674C56.5374 27.263 56.5745 29.174 55.6282 30.788C50.9345 38.8957 43.6617 46.2982 30.3222 46.2982C28.547 46.2982 26.8008 46.2206 25.2044 45.9939C24.3417 45.8713 23.4534 45.9804 22.6867 46.3944C20.5225 47.5631 18.3464 48.8308 15.5727 50.3985C14.7193 50.8807 13.6803 50.2314 13.736 49.2481L14.1418 42.8572C14.2019 41.9092 13.7727 41.0028 13.0461 40.3912C9.80384 37.6614 7.26151 34.2255 5.09037 30.6952C4.10707 29.0998 4.06996 27.2073 5.01616 25.5933Z" fill="url(#paint3_radial_672_2997)"/>
<path d="M5.01616 25.5933C8.64251 18.4863 16.9827 10.0831 30.3222 10.0831C43.6989 10.0831 51.9432 18.0469 55.5541 25.6674C56.5374 27.263 56.5745 29.174 55.6282 30.788C50.9345 38.8957 43.6617 46.2982 30.3222 46.2982C28.547 46.2982 26.8008 46.2206 25.2044 45.9939C24.3417 45.8713 23.4534 45.9804 22.6867 46.3944C20.5225 47.5631 18.3464 48.8308 15.5727 50.3985C14.7193 50.8807 13.6803 50.2314 13.736 49.2481L14.1418 42.8572C14.2019 41.9092 13.7727 41.0028 13.0461 40.3912C9.80384 37.6614 7.26151 34.2255 5.09037 30.6952C4.10707 29.0998 4.06996 27.2073 5.01616 25.5933Z" fill="url(#paint4_radial_672_2997)"/>
</g>
<g filter="url(#filter1_f_672_2997)">
<path d="M16.3844 39.5938L15.2893 48.0421C15.2393 48.4278 15.6536 48.7031 15.9898 48.5075L23.3418 44.2319L20.9647 39.9995L16.3844 39.5938Z" fill="url(#paint5_linear_672_2997)"/>
</g>
<g filter="url(#filter2_f_672_2997)">
<path d="M30.3223 40.9904C39.352 40.9904 46.672 36.2142 46.672 30.3225C46.672 24.4308 39.352 19.6547 30.3223 19.6547C21.2927 19.6547 13.9727 24.4308 13.9727 30.3225C13.9727 36.2142 21.2927 40.9904 30.3223 40.9904Z" fill="#DBD1F0" fill-opacity="0.5"/>
</g>
<defs>
<filter id="filter0_i_672_2997" x="4.3291" y="10.0831" width="51.9863" height="40.497" filterUnits="userSpaceOnUse" color-interpolation-filters="sRGB">
<feFlood flood-opacity="0" result="BackgroundImageFix"/>
<feBlend mode="normal" in="SourceGraphic" in2="BackgroundImageFix" result="shape"/>
<feColorMatrix in="SourceAlpha" type="matrix" values="0 0 0 0 0 0 0 0 0 0 0 0 0 0 0 0 0 0 127 0" result="hardAlpha"/>
<feOffset dy="0.01875"/>
<feGaussianBlur stdDeviation="0.46875"/>
<feComposite in2="hardAlpha" operator="arithmetic" k2="-1" k3="1"/>
<feColorMatrix type="matrix" values="0 0 0 0 0.758333 0 0 0 0 0.758333 0 0 0 0 0.758333 0 0 0 1 0"/>
<feBlend mode="normal" in2="shape" result="effect1_innerShadow_672_2997"/>
</filter>
<filter id="filter1_f_672_2997" x="13.4102" y="37.7188" width="11.8066" height="12.7284" filterUnits="userSpaceOnUse" color-interpolation-filters="sRGB">
<feFlood flood-opacity="0" result="BackgroundImageFix"/>
<feBlend mode="normal" in="SourceGraphic" in2="BackgroundImageFix" result="shape"/>
<feGaussianBlur stdDeviation="0.9375" result="effect1_foregroundBlur_672_2997"/>
</filter>
<filter id="filter2_f_672_2997" x="4.59766" y="10.2797" width="51.4492" height="40.0857" filterUnits="userSpaceOnUse" color-interpolation-filters="sRGB">
<feFlood flood-opacity="0" result="BackgroundImageFix"/>
<feBlend mode="normal" in="SourceGraphic" in2="BackgroundImageFix" result="shape"/>
<feGaussianBlur stdDeviation="4.6875" result="effect1_foregroundBlur_672_2997"/>
</filter>
<radialGradient id="paint0_radial_672_2997" cx="0" cy="0" r="1" gradientUnits="userSpaceOnUse" gradientTransform="translate(43.2901 12.5761) rotate(108.693) scale(32.5616 79.1051)">
<stop stop-color="white"/>
<stop offset="1" stop-color="#D7C6DE"/>
</radialGradient>
<radialGradient id="paint1_radial_672_2997" cx="0" cy="0" r="1" gradientUnits="userSpaceOnUse" gradientTransform="translate(21.7224 42.3187) rotate(-118.35) scale(36.6287 52.9723)">
<stop offset="0.618897" stop-color="#CECECE" stop-opacity="0"/>
<stop offset="1" stop-color="#CECECE"/>
</radialGradient>
<radialGradient id="paint2_radial_672_2997" cx="0" cy="0" r="1" gradientUnits="userSpaceOnUse" gradientTransform="translate(51.8707 43.9421) rotate(-171.015) scale(54.9413 79.4559)">
<stop offset="0.781471" stop-color="#CECECE" stop-opacity="0"/>
<stop offset="1" stop-color="#CECECE"/>
</radialGradient>
<radialGradient id="paint3_radial_672_2997" cx="0" cy="0" r="1" gradientUnits="userSpaceOnUse" gradientTransform="translate(22.6501 46.2611) rotate(-38.5812) scale(52.8064 76.3684)">
<stop offset="0.644692" stop-color="#CECECE" stop-opacity="0"/>
<stop offset="1" stop-color="#CECECE"/>
</radialGradient>
<radialGradient id="paint4_radial_672_2997" cx="0" cy="0" r="1" gradientUnits="userSpaceOnUse" gradientTransform="translate(28.9117 15.649) rotate(81.1703) scale(48.3465 53.7799)">
<stop offset="0.464136" stop-color="#B6A8F2" stop-opacity="0"/>
<stop offset="1" stop-color="#B6A8F2"/>
</radialGradient>
<linearGradient id="paint5_linear_672_2997" x1="19.2543" y1="49.508" x2="24.7332" y2="39.2459" gradientUnits="userSpaceOnUse">
<stop stop-color="#DCD0F4"/>
<stop offset="1" stop-color="#DED0F9" stop-opacity="0"/>
</linearGradient>
</defs>
</svg>
