<svg width="60" height="60" viewBox="0 0 60 60" fill="none" xmlns="http://www.w3.org/2000/svg">
<g filter="url(#filter0_iii_670_2498)">
<path d="M49.037 3.85254H10.9629C7.02786 3.85254 3.83789 7.04251 3.83789 10.9775V49.0517C3.83789 52.9867 7.02786 56.1767 10.9629 56.1767H49.037C52.972 56.1767 56.162 52.9867 56.162 49.0517V10.9775C56.162 7.04251 52.972 3.85254 49.037 3.85254Z" fill="url(#paint0_linear_670_2498)"/>
</g>
<path d="M49.037 3.85254H10.9629C7.02786 3.85254 3.83789 7.04251 3.83789 10.9775V49.0517C3.83789 52.9867 7.02786 56.1767 10.9629 56.1767H49.037C52.972 56.1767 56.162 52.9867 56.162 49.0517V10.9775C56.162 7.04251 52.972 3.85254 49.037 3.85254Z" fill="url(#paint1_linear_670_2498)"/>
<path d="M49.037 3.85254H10.9629C7.02786 3.85254 3.83789 7.04251 3.83789 10.9775V49.0517C3.83789 52.9867 7.02786 56.1767 10.9629 56.1767H49.037C52.972 56.1767 56.162 52.9867 56.162 49.0517V10.9775C56.162 7.04251 52.972 3.85254 49.037 3.85254Z" fill="url(#paint2_radial_670_2498)"/>
<path d="M49.037 3.85254H10.9629C7.02786 3.85254 3.83789 7.04251 3.83789 10.9775V49.0517C3.83789 52.9867 7.02786 56.1767 10.9629 56.1767H49.037C52.972 56.1767 56.162 52.9867 56.162 49.0517V10.9775C56.162 7.04251 52.972 3.85254 49.037 3.85254Z" fill="url(#paint3_radial_670_2498)"/>
<g filter="url(#filter1_f_670_2498)">
<path d="M51.1114 53.9623C50.1248 54.4624 48.9934 54.7466 47.791 54.7466H40.3223V15.2511C40.3223 14.1212 41.3057 13.2053 42.5188 13.2053H48.9148C50.128 13.2053 51.1114 14.1212 51.1114 15.2511V53.9623Z" fill="url(#paint4_linear_670_2498)"/>
</g>
<path fill-rule="evenodd" clip-rule="evenodd" d="M21.6064 3.85254H19.7314V19.5849H3.83789V21.4599H19.7314V38.2764H3.83789V40.1514H19.7314V56.1767H21.6064V40.1514H38.4814V56.1767H40.3564V40.1514H56.1621V38.2764H40.3564V21.4599H56.1621V19.5849H40.3564V3.85254H38.4814V19.5849H21.6064V3.85254ZM38.4814 21.4599V38.2764H21.6064V21.4599H38.4814Z" fill="url(#paint5_linear_670_2498)"/>
<path fill-rule="evenodd" clip-rule="evenodd" d="M21.6064 3.85254H19.7314V19.5849H3.83789V21.4599H19.7314V38.2764H3.83789V40.1514H19.7314V56.1767H21.6064V40.1514H38.4814V56.1767H40.3564V40.1514H56.1621V38.2764H40.3564V21.4599H56.1621V19.5849H40.3564V3.85254H38.4814V19.5849H21.6064V3.85254ZM38.4814 21.4599V38.2764H21.6064V21.4599H38.4814Z" fill="url(#paint6_linear_670_2498)"/>
<path fill-rule="evenodd" clip-rule="evenodd" d="M21.6064 3.85254H19.7314V19.5849H3.83789V21.4599H19.7314V38.2764H3.83789V40.1514H19.7314V56.1767H21.6064V40.1514H38.4814V56.1767H40.3564V40.1514H56.1621V38.2764H40.3564V21.4599H56.1621V19.5849H40.3564V3.85254H38.4814V19.5849H21.6064V3.85254ZM38.4814 21.4599V38.2764H21.6064V21.4599H38.4814Z" fill="url(#paint7_linear_670_2498)"/>
<path fill-rule="evenodd" clip-rule="evenodd" d="M21.6064 3.85254H19.7314V19.5849H3.83789V21.4599H19.7314V38.2764H3.83789V40.1514H19.7314V56.1767H21.6064V40.1514H38.4814V56.1767H40.3564V40.1514H56.1621V38.2764H40.3564V21.4599H56.1621V19.5849H40.3564V3.85254H38.4814V19.5849H21.6064V3.85254ZM38.4814 21.4599V38.2764H21.6064V21.4599H38.4814Z" fill="url(#paint8_linear_670_2498)"/>
<path fill-rule="evenodd" clip-rule="evenodd" d="M21.6064 3.85254H19.7314V19.5849H3.83789V21.4599H19.7314V38.2764H3.83789V40.1514H19.7314V56.1767H21.6064V40.1514H38.4814V56.1767H40.3564V40.1514H44.0537V38.2764H40.3564V21.4599H44.0537V19.5849H40.3564V3.85254H38.4814V19.5849H21.6064V3.85254ZM38.4814 21.4599V38.2764H21.6064V21.4599H38.4814Z" fill="url(#paint9_linear_670_2498)"/>
<path fill-rule="evenodd" clip-rule="evenodd" d="M21.6064 3.85254H19.7314V19.5849H3.83789V21.4599H19.7314V38.2764H3.83789V40.1514H19.7314V56.1767H21.6064V40.1514H38.4814V56.1767H40.3564V40.1514H44.0537V38.2764H40.3564V21.4599H44.0537V19.5849H40.3564V3.85254H38.4814V19.5849H21.6064V3.85254ZM38.4814 21.4599V38.2764H21.6064V21.4599H38.4814Z" fill="url(#paint10_linear_670_2498)"/>
<path fill-rule="evenodd" clip-rule="evenodd" d="M21.6064 3.85254H19.7314V19.5849H3.83789V21.4599H19.7314V38.2764H3.83789V40.1514H19.7314V56.1767H21.6064V40.1514H38.4814V56.1767H40.3564V40.1514H44.0537V38.2764H40.3564V21.4599H44.0537V19.5849H40.3564V3.85254H38.4814V19.5849H21.6064V3.85254ZM38.4814 21.4599V38.2764H21.6064V21.4599H38.4814Z" fill="url(#paint11_linear_670_2498)"/>
<g filter="url(#filter2_f_670_2498)">
<path d="M34.1983 55.1016C33.2115 55.3858 32.0803 55.5472 30.8779 55.5472H23.4092V33.1054C23.4092 32.4634 24.3924 31.9429 25.6056 31.9429H32.0017C33.2149 31.9429 34.1983 32.4634 34.1983 33.1054V55.1016Z" fill="url(#paint12_linear_670_2498)"/>
</g>
<g filter="url(#filter3_f_670_2498)">
<path d="M17.0831 53.3199C16.0964 53.7574 14.9651 54.006 13.7627 54.006H6.29395V19.4663C6.29395 18.4782 7.27731 17.6772 8.49047 17.6772H14.8866C16.0996 17.6772 17.0831 18.4782 17.0831 19.4663V53.3199Z" fill="url(#paint13_linear_670_2498)"/>
</g>
<g filter="url(#filter4_i_670_2498)">
<path d="M52.4387 55.3142C51.4279 55.8643 50.2692 56.1769 49.0373 56.1769H41.3867V12.7381C41.3867 11.4954 42.394 10.488 43.6367 10.488H50.1887C51.4313 10.488 52.4387 11.4954 52.4387 12.7381V55.3142Z" fill="url(#paint14_linear_670_2498)"/>
</g>
<path d="M52.4387 55.3142C51.4279 55.8643 50.2692 56.1769 49.0373 56.1769H41.3867V12.7381C41.3867 11.4954 42.394 10.488 43.6367 10.488H50.1887C51.4313 10.488 52.4387 11.4954 52.4387 12.7381V55.3142Z" fill="url(#paint15_linear_670_2498)"/>
<g filter="url(#filter5_f_670_2498)">
<path d="M51.1117 13.0485C51.1117 12.6005 50.7485 12.2373 50.3005 12.2373C49.8524 12.2373 49.4893 12.6005 49.4893 13.0485V53.6162C49.4893 54.0642 49.8524 54.4274 50.3005 54.4274C50.7485 54.4274 51.1117 54.0642 51.1117 53.6162V13.0485Z" fill="url(#paint16_linear_670_2498)"/>
</g>
<path d="M25.2351 19.5849H21.6064V3.85254H19.7314V19.5849H3.83789V21.4599H19.7314V38.2764H3.83789V40.1514H19.7314V56.1767H21.6064V40.1514H25.2351V38.2764H21.6064V21.4599H25.2351V19.5849Z" fill="url(#paint17_radial_670_2498)"/>
<path d="M25.2351 19.5849H21.6064V3.85254H19.7314V19.5849H3.83789V21.4599H19.7314V38.2764H3.83789V40.1514H19.7314V56.1767H21.6064V40.1514H25.2351V38.2764H21.6064V21.4599H25.2351V19.5849Z" fill="url(#paint18_linear_670_2498)"/>
<g filter="url(#filter6_i_670_2498)">
<path d="M35.5254 56.1768H24.4736V33.4629C24.4736 32.2201 25.4809 31.2129 26.7236 31.2129H33.2754C34.518 31.2129 35.5254 32.2201 35.5254 33.4629V56.1768Z" fill="url(#paint19_linear_670_2498)"/>
</g>
<g filter="url(#filter7_f_670_2498)">
<path d="M33.3874 32.9163H33.3874C32.9394 32.9163 32.5762 33.2794 32.5762 33.7275V53.9355C32.5762 54.3835 32.9394 54.7467 33.3874 54.7467C33.8354 54.7467 34.1986 54.3835 34.1986 53.9355V33.7275C34.1986 33.2794 33.8354 32.9163 33.3874 32.9163Z" fill="url(#paint20_linear_670_2498)"/>
</g>
<g filter="url(#filter8_i_670_2498)">
<path d="M18.6134 56.1766H10.9628C9.73109 56.1766 8.57226 55.8642 7.56152 55.3139V18.4971C7.56152 17.2544 8.56883 16.2471 9.81154 16.2471H16.3634C17.606 16.2471 18.6134 17.2544 18.6134 18.4971V56.1766Z" fill="url(#paint21_linear_670_2498)"/>
</g>
<g filter="url(#filter9_f_670_2498)">
<path d="M17.0827 17.6772H17.0827C16.6347 17.6772 16.2715 18.0404 16.2715 18.4884V53.9354C16.2715 54.3834 16.6347 54.7466 17.0827 54.7466C17.5307 54.7466 17.8939 54.3834 17.8939 53.9354V18.4884C17.8939 18.0404 17.5307 17.6772 17.0827 17.6772Z" fill="url(#paint22_linear_670_2498)"/>
</g>
<defs>
<filter id="filter0_iii_670_2498" x="1.96289" y="1.97754" width="57.0117" height="56.0742" filterUnits="userSpaceOnUse" color-interpolation-filters="sRGB">
<feFlood flood-opacity="0" result="BackgroundImageFix"/>
<feBlend mode="normal" in="SourceGraphic" in2="BackgroundImageFix" result="shape"/>
<feColorMatrix in="SourceAlpha" type="matrix" values="0 0 0 0 0 0 0 0 0 0 0 0 0 0 0 0 0 0 127 0" result="hardAlpha"/>
<feOffset dx="-1.875" dy="1.875"/>
<feGaussianBlur stdDeviation="1.875"/>
<feComposite in2="hardAlpha" operator="arithmetic" k2="-1" k3="1"/>
<feColorMatrix type="matrix" values="0 0 0 0 0.878431 0 0 0 0 0.87451 0 0 0 0 0.886275 0 0 0 1 0"/>
<feBlend mode="normal" in2="shape" result="effect1_innerShadow_670_2498"/>
<feColorMatrix in="SourceAlpha" type="matrix" values="0 0 0 0 0 0 0 0 0 0 0 0 0 0 0 0 0 0 127 0" result="hardAlpha"/>
<feOffset dx="2.8125" dy="-1.875"/>
<feGaussianBlur stdDeviation="2.8125"/>
<feComposite in2="hardAlpha" operator="arithmetic" k2="-1" k3="1"/>
<feColorMatrix type="matrix" values="0 0 0 0 0.698039 0 0 0 0 0.67451 0 0 0 0 0.721569 0 0 0 1 0"/>
<feBlend mode="normal" in2="effect1_innerShadow_670_2498" result="effect2_innerShadow_670_2498"/>
<feColorMatrix in="SourceAlpha" type="matrix" values="0 0 0 0 0 0 0 0 0 0 0 0 0 0 0 0 0 0 127 0" result="hardAlpha"/>
<feOffset dx="0.46875"/>
<feGaussianBlur stdDeviation="0.46875"/>
<feComposite in2="hardAlpha" operator="arithmetic" k2="-1" k3="1"/>
<feColorMatrix type="matrix" values="0 0 0 0 0.729412 0 0 0 0 0.729412 0 0 0 0 0.729412 0 0 0 1 0"/>
<feBlend mode="normal" in2="effect2_innerShadow_670_2498" result="effect3_innerShadow_670_2498"/>
</filter>
<filter id="filter1_f_670_2498" x="38.4473" y="11.3303" width="14.5391" height="45.2913" filterUnits="userSpaceOnUse" color-interpolation-filters="sRGB">
<feFlood flood-opacity="0" result="BackgroundImageFix"/>
<feBlend mode="normal" in="SourceGraphic" in2="BackgroundImageFix" result="shape"/>
<feGaussianBlur stdDeviation="0.9375" result="effect1_foregroundBlur_670_2498"/>
</filter>
<filter id="filter2_f_670_2498" x="21.5342" y="30.0679" width="14.5391" height="27.3545" filterUnits="userSpaceOnUse" color-interpolation-filters="sRGB">
<feFlood flood-opacity="0" result="BackgroundImageFix"/>
<feBlend mode="normal" in="SourceGraphic" in2="BackgroundImageFix" result="shape"/>
<feGaussianBlur stdDeviation="0.9375" result="effect1_foregroundBlur_670_2498"/>
</filter>
<filter id="filter3_f_670_2498" x="4.41895" y="15.8022" width="14.5391" height="40.0789" filterUnits="userSpaceOnUse" color-interpolation-filters="sRGB">
<feFlood flood-opacity="0" result="BackgroundImageFix"/>
<feBlend mode="normal" in="SourceGraphic" in2="BackgroundImageFix" result="shape"/>
<feGaussianBlur stdDeviation="0.9375" result="effect1_foregroundBlur_670_2498"/>
</filter>
<filter id="filter4_i_670_2498" x="41.3867" y="10.488" width="12.458" height="45.6887" filterUnits="userSpaceOnUse" color-interpolation-filters="sRGB">
<feFlood flood-opacity="0" result="BackgroundImageFix"/>
<feBlend mode="normal" in="SourceGraphic" in2="BackgroundImageFix" result="shape"/>
<feColorMatrix in="SourceAlpha" type="matrix" values="0 0 0 0 0 0 0 0 0 0 0 0 0 0 0 0 0 0 127 0" result="hardAlpha"/>
<feOffset dx="1.40625"/>
<feGaussianBlur stdDeviation="0.9375"/>
<feComposite in2="hardAlpha" operator="arithmetic" k2="-1" k3="1"/>
<feColorMatrix type="matrix" values="0 0 0 0 0.203922 0 0 0 0 0.482353 0 0 0 0 0.74902 0 0 0 1 0"/>
<feBlend mode="normal" in2="shape" result="effect1_innerShadow_670_2498"/>
</filter>
<filter id="filter5_f_670_2498" x="47.6143" y="10.3623" width="5.37207" height="45.9402" filterUnits="userSpaceOnUse" color-interpolation-filters="sRGB">
<feFlood flood-opacity="0" result="BackgroundImageFix"/>
<feBlend mode="normal" in="SourceGraphic" in2="BackgroundImageFix" result="shape"/>
<feGaussianBlur stdDeviation="0.9375" result="effect1_foregroundBlur_670_2498"/>
</filter>
<filter id="filter6_i_670_2498" x="24.4736" y="31.2129" width="12.458" height="24.9639" filterUnits="userSpaceOnUse" color-interpolation-filters="sRGB">
<feFlood flood-opacity="0" result="BackgroundImageFix"/>
<feBlend mode="normal" in="SourceGraphic" in2="BackgroundImageFix" result="shape"/>
<feColorMatrix in="SourceAlpha" type="matrix" values="0 0 0 0 0 0 0 0 0 0 0 0 0 0 0 0 0 0 127 0" result="hardAlpha"/>
<feOffset dx="1.40625"/>
<feGaussianBlur stdDeviation="0.9375"/>
<feComposite in2="hardAlpha" operator="arithmetic" k2="-1" k3="1"/>
<feColorMatrix type="matrix" values="0 0 0 0 0.67451 0 0 0 0 0.239216 0 0 0 0 0.372549 0 0 0 1 0"/>
<feBlend mode="normal" in2="shape" result="effect1_innerShadow_670_2498"/>
</filter>
<filter id="filter7_f_670_2498" x="30.7012" y="31.0413" width="5.37207" height="25.5803" filterUnits="userSpaceOnUse" color-interpolation-filters="sRGB">
<feFlood flood-opacity="0" result="BackgroundImageFix"/>
<feBlend mode="normal" in="SourceGraphic" in2="BackgroundImageFix" result="shape"/>
<feGaussianBlur stdDeviation="0.9375" result="effect1_foregroundBlur_670_2498"/>
</filter>
<filter id="filter8_i_670_2498" x="7.56152" y="16.2471" width="12.458" height="39.9294" filterUnits="userSpaceOnUse" color-interpolation-filters="sRGB">
<feFlood flood-opacity="0" result="BackgroundImageFix"/>
<feBlend mode="normal" in="SourceGraphic" in2="BackgroundImageFix" result="shape"/>
<feColorMatrix in="SourceAlpha" type="matrix" values="0 0 0 0 0 0 0 0 0 0 0 0 0 0 0 0 0 0 127 0" result="hardAlpha"/>
<feOffset dx="1.40625"/>
<feGaussianBlur stdDeviation="0.9375"/>
<feComposite in2="hardAlpha" operator="arithmetic" k2="-1" k3="1"/>
<feColorMatrix type="matrix" values="0 0 0 0 0.415686 0 0 0 0 0.792157 0 0 0 0 0.466667 0 0 0 1 0"/>
<feBlend mode="normal" in2="shape" result="effect1_innerShadow_670_2498"/>
</filter>
<filter id="filter9_f_670_2498" x="14.3965" y="15.8022" width="5.37207" height="40.8193" filterUnits="userSpaceOnUse" color-interpolation-filters="sRGB">
<feFlood flood-opacity="0" result="BackgroundImageFix"/>
<feBlend mode="normal" in="SourceGraphic" in2="BackgroundImageFix" result="shape"/>
<feGaussianBlur stdDeviation="0.9375" result="effect1_foregroundBlur_670_2498"/>
</filter>
<linearGradient id="paint0_linear_670_2498" x1="50.8594" y1="7.28026" x2="22.2656" y2="43.7256" gradientUnits="userSpaceOnUse">
<stop stop-color="#D8D1E0"/>
<stop offset="1" stop-color="#D5C9E3"/>
</linearGradient>
<linearGradient id="paint1_linear_670_2498" x1="40.2658" y1="56.6691" x2="40.2658" y2="52.3611" gradientUnits="userSpaceOnUse">
<stop stop-color="#A88AC4"/>
<stop offset="1" stop-color="#CDBCE0" stop-opacity="0"/>
</linearGradient>
<radialGradient id="paint2_radial_670_2498" cx="0" cy="0" r="1" gradientUnits="userSpaceOnUse" gradientTransform="translate(56.1621 30.756) rotate(177.86) scale(10.4859 40.8821)">
<stop stop-color="#F2EDF5"/>
<stop offset="1" stop-color="#DED3E7" stop-opacity="0"/>
</radialGradient>
<radialGradient id="paint3_radial_670_2498" cx="0" cy="0" r="1" gradientUnits="userSpaceOnUse" gradientTransform="translate(55.4743 5.43024) rotate(138.434) scale(9.24752 9.57186)">
<stop stop-color="#F7F4F7"/>
<stop offset="1" stop-color="#E2DCE5" stop-opacity="0"/>
</radialGradient>
<linearGradient id="paint4_linear_670_2498" x1="45.7168" y1="13.2053" x2="45.7168" y2="54.7466" gradientUnits="userSpaceOnUse">
<stop stop-color="#9B98B3"/>
<stop offset="1" stop-color="#9C83AE"/>
</linearGradient>
<linearGradient id="paint5_linear_670_2498" x1="30" y1="8.18848" x2="30" y2="56.1767" gradientUnits="userSpaceOnUse">
<stop stop-color="#C2BEC6"/>
<stop offset="1" stop-color="#BAACC6"/>
</linearGradient>
<linearGradient id="paint6_linear_670_2498" x1="40.7227" y1="57.5177" x2="40.7227" y2="50.9904" gradientUnits="userSpaceOnUse">
<stop stop-color="#9E83B7"/>
<stop offset="1" stop-color="#9E83B7" stop-opacity="0"/>
</linearGradient>
<linearGradient id="paint7_linear_670_2498" x1="2.02148" y1="32.5635" x2="11.9824" y2="32.5635" gradientUnits="userSpaceOnUse">
<stop stop-color="#96909C"/>
<stop offset="1" stop-color="#96909C" stop-opacity="0"/>
</linearGradient>
<linearGradient id="paint8_linear_670_2498" x1="57.6855" y1="33.8526" x2="50.5371" y2="33.8526" gradientUnits="userSpaceOnUse">
<stop stop-color="#D6D1DA"/>
<stop offset="1" stop-color="#D6D1DA" stop-opacity="0"/>
</linearGradient>
<linearGradient id="paint9_linear_670_2498" x1="45.3514" y1="34.3762" x2="37.8079" y2="34.3762" gradientUnits="userSpaceOnUse">
<stop offset="0.451612" stop-color="#7C7695"/>
<stop offset="1" stop-color="#7C7695" stop-opacity="0"/>
</linearGradient>
<linearGradient id="paint10_linear_670_2498" x1="39.4301" y1="57.2505" x2="39.4301" y2="53.1949" gradientUnits="userSpaceOnUse">
<stop stop-color="#9070AD"/>
<stop offset="1" stop-color="#9070AD" stop-opacity="0"/>
</linearGradient>
<linearGradient id="paint11_linear_670_2498" x1="36.8344" y1="2.90379" x2="36.8344" y2="19.0457" gradientUnits="userSpaceOnUse">
<stop offset="0.668342" stop-color="#C3BFC7"/>
<stop offset="1" stop-color="#C3BFC7" stop-opacity="0"/>
</linearGradient>
<linearGradient id="paint12_linear_670_2498" x1="28.8037" y1="31.9429" x2="28.8037" y2="55.5472" gradientUnits="userSpaceOnUse">
<stop stop-color="#9B98B3"/>
<stop offset="1" stop-color="#9C83AE"/>
</linearGradient>
<linearGradient id="paint13_linear_670_2498" x1="11.6885" y1="17.6772" x2="11.6885" y2="54.006" gradientUnits="userSpaceOnUse">
<stop stop-color="#9B98B3"/>
<stop offset="1" stop-color="#9C83AE"/>
</linearGradient>
<linearGradient id="paint14_linear_670_2498" x1="46.9127" y1="10.488" x2="46.9127" y2="56.1769" gradientUnits="userSpaceOnUse">
<stop offset="0.179782" stop-color="#36A4F2"/>
<stop offset="1" stop-color="#3E79CB"/>
</linearGradient>
<linearGradient id="paint15_linear_670_2498" x1="40.7282" y1="55.2227" x2="44.1349" y2="55.0605" gradientUnits="userSpaceOnUse">
<stop offset="0.0113206" stop-color="#404E95"/>
<stop offset="1" stop-color="#2F66B3" stop-opacity="0"/>
</linearGradient>
<linearGradient id="paint16_linear_670_2498" x1="50.3006" y1="12.2373" x2="50.3006" y2="54.4274" gradientUnits="userSpaceOnUse">
<stop stop-color="#53BFFF"/>
<stop offset="1" stop-color="#508EDC"/>
</linearGradient>
<radialGradient id="paint17_radial_670_2498" cx="0" cy="0" r="1" gradientUnits="userSpaceOnUse" gradientTransform="translate(26.8573 39.2432) rotate(180) scale(4.62352 4.4613)">
<stop offset="0.22807" stop-color="#86738A"/>
<stop offset="1" stop-color="#86738A" stop-opacity="0"/>
</radialGradient>
<linearGradient id="paint18_linear_670_2498" x1="2.84738" y1="32.754" x2="11.2022" y2="32.754" gradientUnits="userSpaceOnUse">
<stop stop-color="#88858D"/>
<stop offset="1" stop-color="#88858D" stop-opacity="0"/>
</linearGradient>
<linearGradient id="paint19_linear_670_2498" x1="29.9994" y1="31.2129" x2="29.9994" y2="56.1768" gradientUnits="userSpaceOnUse">
<stop offset="0.179782" stop-color="#E93586"/>
<stop offset="1" stop-color="#DD385F"/>
</linearGradient>
<linearGradient id="paint20_linear_670_2498" x1="33.3873" y1="32.9163" x2="33.3873" y2="54.7467" gradientUnits="userSpaceOnUse">
<stop stop-color="#FA5598"/>
<stop offset="1" stop-color="#F34F70"/>
</linearGradient>
<linearGradient id="paint21_linear_670_2498" x1="13.0875" y1="16.2471" x2="13.0875" y2="56.1766" gradientUnits="userSpaceOnUse">
<stop offset="0.179782" stop-color="#ABE263"/>
<stop offset="1" stop-color="#61E19B"/>
</linearGradient>
<linearGradient id="paint22_linear_670_2498" x1="17.0827" y1="17.6772" x2="17.0827" y2="54.7466" gradientUnits="userSpaceOnUse">
<stop stop-color="#C9FE70"/>
<stop offset="1" stop-color="#6CEDA7"/>
</linearGradient>
</defs>
</svg>
