<svg width="60" height="60" viewBox="0 0 60 60" fill="none" xmlns="http://www.w3.org/2000/svg">
<path fill-rule="evenodd" clip-rule="evenodd" d="M24.1381 12.4108C24.0378 13.6019 22.5998 14.1969 21.6876 13.4245C20.4944 12.4141 19.2289 11.4248 18.2887 10.8966C15.7351 9.46224 14.2035 9.18245 11.7321 11.5906L11.6649 11.6582C11.6529 11.6701 11.641 11.6824 11.6291 11.6947L11.5983 11.7261C9.19008 14.1976 9.46903 15.7283 10.9034 18.2819C11.4376 19.2328 12.4435 20.5164 13.4657 21.7215C14.2399 22.6341 13.6433 24.0744 12.4506 24.1725C10.8767 24.3017 9.25937 24.498 8.20997 24.7926C5.39004 25.5838 4.10917 26.469 4.06445 29.9194L4.06475 30.0146C4.06464 30.0317 4.06492 30.0487 4.0652 30.0658L4.06567 30.1099C4.11039 33.5602 5.39004 34.4454 8.20997 35.2369C9.24407 35.5269 10.8297 35.7219 12.3818 35.8511C13.573 35.9505 14.1687 37.3881 13.3971 38.301C12.3987 39.4822 11.4256 40.7299 10.9034 41.6595C9.46903 44.2131 9.19008 45.7438 11.5983 48.2152L11.629 48.2467C11.641 48.2589 11.6528 48.2713 11.6649 48.2833L11.7321 48.3508C14.2035 50.7589 15.7351 50.4791 18.2887 49.0447C19.2415 48.5096 20.5279 47.5009 21.7351 46.4767C22.6476 45.7024 24.0882 46.299 24.1861 47.4919C24.3154 49.0676 24.5118 50.6876 24.8067 51.7384C25.5979 54.5582 26.4831 55.839 29.9335 55.8838L30.0288 55.8834C30.0603 55.8836 30.0921 55.8825 30.124 55.8825C33.5744 55.8379 34.4596 54.5582 35.251 51.7384C35.5379 50.7157 35.7316 49.1539 35.8609 47.6184C35.9613 46.4274 37.3992 45.8325 38.3114 46.6048C39.5046 47.6152 40.7701 48.6045 41.7104 49.1327C44.2639 50.5671 45.7954 50.8468 48.2669 48.4387L48.334 48.3711L48.3565 48.3486L48.37 48.3345L48.4008 48.3032C50.809 45.8317 50.53 44.301 49.0956 41.7474C48.5614 40.7964 47.5555 39.5128 46.5333 38.3077C45.7591 37.3952 46.3557 35.9548 47.5484 35.8569C49.1223 35.7276 50.7396 35.5312 51.7891 35.2369C54.6089 34.4454 55.8899 33.5602 55.9345 30.1099L55.9343 30.0146C55.9343 29.9977 55.9341 29.9805 55.9338 29.9634L55.9334 29.9194C55.8886 26.469 54.6089 25.5838 51.7891 24.7926C50.755 24.5023 49.1693 24.3075 47.6172 24.1781C46.426 24.0789 45.8303 22.6414 46.6019 21.7284C47.6003 20.547 48.5734 19.2996 49.0956 18.3698C50.53 15.8162 50.809 14.2855 48.4008 11.814L48.37 11.7826C48.358 11.7703 48.3462 11.758 48.334 11.746L48.2669 11.6785C45.7954 9.27033 44.2639 9.55014 41.7104 10.9845C40.7575 11.5197 39.4711 12.5284 38.2639 13.5526C37.3514 14.327 35.9108 13.7304 35.8129 12.5375C35.6836 10.9617 35.4873 9.34171 35.1923 8.29102C34.4011 5.4711 33.5159 4.19023 30.0655 4.14551L29.9703 4.14581C29.9532 4.1457 29.9361 4.14598 29.9191 4.14624L29.875 4.14673C26.4246 4.19145 25.5394 5.4711 24.748 8.29102C24.4611 9.31357 24.2674 10.8754 24.1381 12.4108ZM29.9922 40.1514C35.5906 40.1514 40.1288 35.613 40.1288 30.0146C40.1288 24.4162 35.5906 19.878 29.9922 19.878C24.3938 19.878 19.8554 24.4162 19.8554 30.0146C19.8554 35.613 24.3938 40.1514 29.9922 40.1514Z" fill="url(#paint0_linear_670_2448)"/>
<g filter="url(#filter0_iii_670_2448)">
<path fill-rule="evenodd" clip-rule="evenodd" d="M24.1381 12.4108C24.0378 13.6019 22.5998 14.1969 21.6876 13.4245C20.4944 12.4141 19.2289 11.4248 18.2887 10.8966C15.7351 9.46224 14.2035 9.18245 11.7321 11.5906L11.6649 11.6582C11.6529 11.6701 11.641 11.6824 11.6291 11.6947L11.5983 11.7261C9.19008 14.1976 9.46903 15.7283 10.9034 18.2819C11.4376 19.2328 12.4435 20.5164 13.4657 21.7215C14.2399 22.6341 13.6433 24.0744 12.4506 24.1725C10.8767 24.3017 9.25937 24.498 8.20997 24.7926C5.39004 25.5838 4.10917 26.469 4.06445 29.9194L4.06475 30.0146C4.06464 30.0317 4.06492 30.0487 4.0652 30.0658L4.06567 30.1099C4.11039 33.5602 5.39004 34.4454 8.20997 35.2369C9.24407 35.5269 10.8297 35.7219 12.3818 35.8511C13.573 35.9505 14.1687 37.3881 13.3971 38.301C12.3987 39.4822 11.4256 40.7299 10.9034 41.6595C9.46903 44.2131 9.19008 45.7438 11.5983 48.2152L11.629 48.2467C11.641 48.2589 11.6528 48.2713 11.6649 48.2833L11.7321 48.3508C14.2035 50.7589 15.7351 50.4791 18.2887 49.0447C19.2415 48.5096 20.5279 47.5009 21.7351 46.4767C22.6476 45.7024 24.0882 46.299 24.1861 47.4919C24.3154 49.0676 24.5118 50.6876 24.8067 51.7384C25.5979 54.5582 26.4831 55.839 29.9335 55.8838L30.0288 55.8834C30.0603 55.8836 30.0921 55.8825 30.124 55.8825C33.5744 55.8379 34.4596 54.5582 35.251 51.7384C35.5379 50.7157 35.7316 49.1539 35.8609 47.6184C35.9613 46.4274 37.3992 45.8325 38.3114 46.6048C39.5046 47.6152 40.7701 48.6045 41.7104 49.1327C44.2639 50.5671 45.7954 50.8468 48.2669 48.4387L48.334 48.3711L48.3565 48.3486L48.37 48.3345L48.4008 48.3032C50.809 45.8317 50.53 44.301 49.0956 41.7474C48.5614 40.7964 47.5555 39.5128 46.5333 38.3077C45.7591 37.3952 46.3557 35.9548 47.5484 35.8569C49.1223 35.7276 50.7396 35.5312 51.7891 35.2369C54.6089 34.4454 55.8899 33.5602 55.9345 30.1099L55.9343 30.0146C55.9343 29.9977 55.9341 29.9805 55.9338 29.9634L55.9334 29.9194C55.8886 26.469 54.6089 25.5838 51.7891 24.7926C50.755 24.5023 49.1693 24.3075 47.6172 24.1781C46.426 24.0789 45.8303 22.6414 46.6019 21.7284C47.6003 20.547 48.5734 19.2996 49.0956 18.3698C50.53 15.8162 50.809 14.2855 48.4008 11.814L48.37 11.7826C48.358 11.7703 48.3462 11.758 48.334 11.746L48.2669 11.6785C45.7954 9.27033 44.2639 9.55014 41.7104 10.9845C40.7575 11.5197 39.4711 12.5284 38.2639 13.5526C37.3514 14.327 35.9108 13.7304 35.8129 12.5375C35.6836 10.9617 35.4873 9.34171 35.1923 8.29102C34.4011 5.4711 33.5159 4.19023 30.0655 4.14551L29.9703 4.14581C29.9532 4.1457 29.9361 4.14598 29.9191 4.14624L29.875 4.14673C26.4246 4.19145 25.5394 5.4711 24.748 8.29102C24.4611 9.31357 24.2674 10.8754 24.1381 12.4108ZM29.9922 40.1514C35.5906 40.1514 40.1288 35.613 40.1288 30.0146C40.1288 24.4162 35.5906 19.878 29.9922 19.878C24.3938 19.878 19.8554 24.4162 19.8554 30.0146C19.8554 35.613 24.3938 40.1514 29.9922 40.1514Z" fill="url(#paint1_linear_670_2448)"/>
</g>
<g filter="url(#filter1_f_670_2448)">
<path fill-rule="evenodd" clip-rule="evenodd" d="M30 45.2782C38.4298 45.2782 45.2636 38.4446 45.2636 30.0146C45.2636 21.5848 38.4298 14.751 30 14.751C21.5702 14.751 14.7363 21.5848 14.7363 30.0146C14.7363 38.4446 21.5702 45.2782 30 45.2782ZM30 39.3949C35.1806 39.3949 39.3802 35.1952 39.3802 30.0146C39.3802 24.834 35.1806 20.6344 30 20.6344C24.8194 20.6344 20.6197 24.834 20.6197 30.0146C20.6197 35.1952 24.8194 39.3949 30 39.3949Z" fill="url(#paint2_linear_670_2448)"/>
<path fill-rule="evenodd" clip-rule="evenodd" d="M30 45.2782C38.4298 45.2782 45.2636 38.4446 45.2636 30.0146C45.2636 21.5848 38.4298 14.751 30 14.751C21.5702 14.751 14.7363 21.5848 14.7363 30.0146C14.7363 38.4446 21.5702 45.2782 30 45.2782ZM30 39.3949C35.1806 39.3949 39.3802 35.1952 39.3802 30.0146C39.3802 24.834 35.1806 20.6344 30 20.6344C24.8194 20.6344 20.6197 24.834 20.6197 30.0146C20.6197 35.1952 24.8194 39.3949 30 39.3949Z" fill="url(#paint3_radial_670_2448)"/>
</g>
<g filter="url(#filter2_i_670_2448)">
<path fill-rule="evenodd" clip-rule="evenodd" d="M29.9995 44.8168C38.1745 44.8168 44.8017 38.1896 44.8017 30.0146C44.8017 21.8396 38.1745 15.2124 29.9995 15.2124C21.8245 15.2124 15.1973 21.8396 15.1973 30.0146C15.1973 38.1896 21.8245 44.8168 29.9995 44.8168ZM29.9995 39.1114C35.0234 39.1114 39.0963 35.0387 39.0963 30.0146C39.0963 24.9908 35.0234 20.9179 29.9995 20.9179C24.9756 20.9179 20.9028 24.9908 20.9028 30.0146C20.9028 35.0387 24.9756 39.1114 29.9995 39.1114Z" fill="url(#paint4_radial_670_2448)"/>
</g>
<g filter="url(#filter3_f_670_2448)">
<path fill-rule="evenodd" clip-rule="evenodd" d="M30 40.3418C35.7035 40.3418 40.3271 35.7182 40.3271 30.0146C40.3271 24.3111 35.7035 19.6875 30 19.6875C24.2964 19.6875 19.6729 24.3111 19.6729 30.0146C19.6729 35.7182 24.2964 40.3418 30 40.3418ZM39.0967 30.0146C39.0967 35.0387 35.0239 39.1114 30 39.1114C24.9761 39.1114 20.9032 35.0387 20.9032 30.0146C20.9032 24.9907 24.9761 20.9179 30 20.9179C35.0239 20.9179 39.0967 24.9907 39.0967 30.0146Z" fill="url(#paint5_linear_670_2448)"/>
</g>
<path fill-rule="evenodd" clip-rule="evenodd" d="M30.0001 40.2686C35.6632 40.2686 40.2541 35.6776 40.2541 30.0146C40.2541 24.3515 35.6632 19.7607 30.0001 19.7607C24.337 19.7607 19.7461 24.3515 19.7461 30.0146C19.7461 35.6776 24.337 40.2686 30.0001 40.2686ZM30.0001 38.1297C34.4821 38.1297 38.1153 34.4966 38.1153 30.0146C38.1153 25.5327 34.4821 21.8994 30.0001 21.8994C25.5181 21.8994 21.8849 25.5327 21.8849 30.0146C21.8849 34.4966 25.5181 38.1297 30.0001 38.1297Z" fill="url(#paint6_radial_670_2448)"/>
<path fill-rule="evenodd" clip-rule="evenodd" d="M30.0001 40.2686C35.6632 40.2686 40.2541 35.6776 40.2541 30.0146C40.2541 24.3515 35.6632 19.7607 30.0001 19.7607C24.337 19.7607 19.7461 24.3515 19.7461 30.0146C19.7461 35.6776 24.337 40.2686 30.0001 40.2686ZM30.0001 38.1297C34.4821 38.1297 38.1153 34.4966 38.1153 30.0146C38.1153 25.5327 34.4821 21.8994 30.0001 21.8994C25.5181 21.8994 21.8849 25.5327 21.8849 30.0146C21.8849 34.4966 25.5181 38.1297 30.0001 38.1297Z" fill="url(#paint7_radial_670_2448)"/>
<path fill-rule="evenodd" clip-rule="evenodd" d="M30 39.2725C35.1129 39.2725 39.2578 35.1276 39.2578 30.0146C39.2578 24.9017 35.1129 20.7568 30 20.7568C24.8871 20.7568 20.7422 24.9017 20.7422 30.0146C20.7422 35.1276 24.8871 39.2725 30 39.2725ZM38.1152 30.0146C38.1152 34.4966 34.482 38.1298 30 38.1298C25.518 38.1298 21.8848 34.4966 21.8848 30.0146C21.8848 25.5328 25.518 21.8995 30 21.8995C34.482 21.8995 38.1152 25.5328 38.1152 30.0146Z" fill="url(#paint8_radial_670_2448)"/>
<path fill-rule="evenodd" clip-rule="evenodd" d="M30 39.2725C35.1129 39.2725 39.2578 35.1276 39.2578 30.0146C39.2578 24.9017 35.1129 20.7568 30 20.7568C24.8871 20.7568 20.7422 24.9017 20.7422 30.0146C20.7422 35.1276 24.8871 39.2725 30 39.2725ZM38.1152 30.0146C38.1152 34.4966 34.482 38.1298 30 38.1298C25.518 38.1298 21.8848 34.4966 21.8848 30.0146C21.8848 25.5328 25.518 21.8995 30 21.8995C34.482 21.8995 38.1152 25.5328 38.1152 30.0146Z" fill="url(#paint9_radial_670_2448)"/>
<path fill-rule="evenodd" clip-rule="evenodd" d="M30 39.2725C35.1129 39.2725 39.2578 35.1276 39.2578 30.0146C39.2578 24.9017 35.1129 20.7568 30 20.7568C24.8871 20.7568 20.7422 24.9017 20.7422 30.0146C20.7422 35.1276 24.8871 39.2725 30 39.2725ZM38.1152 30.0146C38.1152 34.4966 34.482 38.1298 30 38.1298C25.518 38.1298 21.8848 34.4966 21.8848 30.0146C21.8848 25.5328 25.518 21.8995 30 21.8995C34.482 21.8995 38.1152 25.5328 38.1152 30.0146Z" fill="url(#paint10_radial_670_2448)"/>
<g filter="url(#filter4_f_670_2448)">
<path fill-rule="evenodd" clip-rule="evenodd" d="M30 39.2725C35.1129 39.2725 39.2578 35.1276 39.2578 30.0146C39.2578 24.9017 35.1129 20.7568 30 20.7568C24.8871 20.7568 20.7422 24.9017 20.7422 30.0146C20.7422 35.1276 24.8871 39.2725 30 39.2725Z" stroke="url(#paint11_radial_670_2448)" stroke-width="0.1875"/>
</g>
<defs>
<filter id="filter0_iii_670_2448" x="3.68945" y="3.77051" width="52.6201" height="52.4883" filterUnits="userSpaceOnUse" color-interpolation-filters="sRGB">
<feFlood flood-opacity="0" result="BackgroundImageFix"/>
<feBlend mode="normal" in="SourceGraphic" in2="BackgroundImageFix" result="shape"/>
<feColorMatrix in="SourceAlpha" type="matrix" values="0 0 0 0 0 0 0 0 0 0 0 0 0 0 0 0 0 0 127 0" result="hardAlpha"/>
<feOffset dx="0.375" dy="-0.375"/>
<feGaussianBlur stdDeviation="0.375"/>
<feComposite in2="hardAlpha" operator="arithmetic" k2="-1" k3="1"/>
<feColorMatrix type="matrix" values="0 0 0 0 0.615686 0 0 0 0 0.533333 0 0 0 0 0.717647 0 0 0 1 0"/>
<feBlend mode="normal" in2="shape" result="effect1_innerShadow_670_2448"/>
<feColorMatrix in="SourceAlpha" type="matrix" values="0 0 0 0 0 0 0 0 0 0 0 0 0 0 0 0 0 0 127 0" result="hardAlpha"/>
<feOffset dx="-0.375" dy="0.375"/>
<feGaussianBlur stdDeviation="0.375"/>
<feComposite in2="hardAlpha" operator="arithmetic" k2="-1" k3="1"/>
<feColorMatrix type="matrix" values="0 0 0 0 0.941176 0 0 0 0 0.941176 0 0 0 0 0.960784 0 0 0 1 0"/>
<feBlend mode="normal" in2="effect1_innerShadow_670_2448" result="effect2_innerShadow_670_2448"/>
<feColorMatrix in="SourceAlpha" type="matrix" values="0 0 0 0 0 0 0 0 0 0 0 0 0 0 0 0 0 0 127 0" result="hardAlpha"/>
<feOffset dx="0.375" dy="0.1875"/>
<feGaussianBlur stdDeviation="0.375"/>
<feComposite in2="hardAlpha" operator="arithmetic" k2="-1" k3="1"/>
<feColorMatrix type="matrix" values="0 0 0 0 0.607843 0 0 0 0 0.6 0 0 0 0 0.631373 0 0 0 1 0"/>
<feBlend mode="normal" in2="effect2_innerShadow_670_2448" result="effect3_innerShadow_670_2448"/>
</filter>
<filter id="filter1_f_670_2448" x="13.7988" y="13.8135" width="32.4023" height="32.4023" filterUnits="userSpaceOnUse" color-interpolation-filters="sRGB">
<feFlood flood-opacity="0" result="BackgroundImageFix"/>
<feBlend mode="normal" in="SourceGraphic" in2="BackgroundImageFix" result="shape"/>
<feGaussianBlur stdDeviation="0.46875" result="effect1_foregroundBlur_670_2448"/>
</filter>
<filter id="filter2_i_670_2448" x="15.1973" y="14.7437" width="30.0732" height="30.0732" filterUnits="userSpaceOnUse" color-interpolation-filters="sRGB">
<feFlood flood-opacity="0" result="BackgroundImageFix"/>
<feBlend mode="normal" in="SourceGraphic" in2="BackgroundImageFix" result="shape"/>
<feColorMatrix in="SourceAlpha" type="matrix" values="0 0 0 0 0 0 0 0 0 0 0 0 0 0 0 0 0 0 127 0" result="hardAlpha"/>
<feOffset dx="0.46875" dy="-0.46875"/>
<feGaussianBlur stdDeviation="0.46875"/>
<feComposite in2="hardAlpha" operator="arithmetic" k2="-1" k3="1"/>
<feColorMatrix type="matrix" values="0 0 0 0 0.596078 0 0 0 0 0.521569 0 0 0 0 0.682353 0 0 0 1 0"/>
<feBlend mode="normal" in2="shape" result="effect1_innerShadow_670_2448"/>
</filter>
<filter id="filter3_f_670_2448" x="19.4854" y="19.5" width="21.0293" height="21.0293" filterUnits="userSpaceOnUse" color-interpolation-filters="sRGB">
<feFlood flood-opacity="0" result="BackgroundImageFix"/>
<feBlend mode="normal" in="SourceGraphic" in2="BackgroundImageFix" result="shape"/>
<feGaussianBlur stdDeviation="0.09375" result="effect1_foregroundBlur_670_2448"/>
</filter>
<filter id="filter4_f_670_2448" x="20.4609" y="20.4756" width="19.0781" height="19.0781" filterUnits="userSpaceOnUse" color-interpolation-filters="sRGB">
<feFlood flood-opacity="0" result="BackgroundImageFix"/>
<feBlend mode="normal" in="SourceGraphic" in2="BackgroundImageFix" result="shape"/>
<feGaussianBlur stdDeviation="0.09375" result="effect1_foregroundBlur_670_2448"/>
</filter>
<linearGradient id="paint0_linear_670_2448" x1="48.3979" y1="11.3672" x2="11.4839" y2="48.1641" gradientUnits="userSpaceOnUse">
<stop stop-color="#DED7EB"/>
<stop offset="1" stop-color="#C1B4D6"/>
</linearGradient>
<linearGradient id="paint1_linear_670_2448" x1="48.3979" y1="11.3672" x2="11.4839" y2="48.1641" gradientUnits="userSpaceOnUse">
<stop stop-color="#DED7EB"/>
<stop offset="1" stop-color="#C1B4D6"/>
</linearGradient>
<linearGradient id="paint2_linear_670_2448" x1="39.3754" y1="17.7094" x2="25.4884" y2="44.8828" gradientUnits="userSpaceOnUse">
<stop stop-color="#D0CCD9"/>
<stop offset="0.837239" stop-color="#A38EBE"/>
</linearGradient>
<radialGradient id="paint3_radial_670_2448" cx="0" cy="0" r="1" gradientUnits="userSpaceOnUse" gradientTransform="translate(17.4609 21.7969) rotate(26.764) scale(7.54678 20.8942)">
<stop stop-color="#908B9A"/>
<stop offset="1" stop-color="#908B9A" stop-opacity="0"/>
</radialGradient>
<radialGradient id="paint4_radial_670_2448" cx="0" cy="0" r="1" gradientUnits="userSpaceOnUse" gradientTransform="translate(39.3158 20.9179) rotate(133.81) scale(27.9313 36.4393)">
<stop offset="0.032715" stop-color="#E5DFF0"/>
<stop offset="1" stop-color="#9B8BAE"/>
</radialGradient>
<linearGradient id="paint5_linear_670_2448" x1="35.4491" y1="20.625" x2="30" y2="40.3418" gradientUnits="userSpaceOnUse">
<stop stop-color="#AEA9B7"/>
<stop offset="1" stop-color="#9888AC"/>
</linearGradient>
<radialGradient id="paint6_radial_670_2448" cx="0" cy="0" r="1" gradientUnits="userSpaceOnUse" gradientTransform="translate(38.3204 23.9649) rotate(128.71) scale(20.8935 20.8935)">
<stop stop-color="#E6E0F1"/>
<stop offset="1" stop-color="#A89ABA"/>
</radialGradient>
<radialGradient id="paint7_radial_670_2448" cx="0" cy="0" r="1" gradientUnits="userSpaceOnUse" gradientTransform="translate(20.9767 24.3162) rotate(32.5741) scale(10.0125 20.1842)">
<stop stop-color="#90899A"/>
<stop offset="1" stop-color="#90899A" stop-opacity="0"/>
</radialGradient>
<radialGradient id="paint8_radial_670_2448" cx="0" cy="0" r="1" gradientUnits="userSpaceOnUse" gradientTransform="translate(36.7382 24.2578) rotate(136.338) scale(17.7377 17.6332)">
<stop offset="0.246219" stop-color="#C9BFD7"/>
<stop offset="1" stop-color="#ADA4BB"/>
</radialGradient>
<radialGradient id="paint9_radial_670_2448" cx="0" cy="0" r="1" gradientUnits="userSpaceOnUse" gradientTransform="translate(22.6172 36.9141) rotate(-45.5162) scale(9.19828 14.6223)">
<stop offset="0.342773" stop-color="#BCB6C4"/>
<stop offset="1" stop-color="#BCB6C4" stop-opacity="0"/>
</radialGradient>
<radialGradient id="paint10_radial_670_2448" cx="0" cy="0" r="1" gradientUnits="userSpaceOnUse" gradientTransform="translate(23.9648 21.8556) rotate(49.2589) scale(7.81078 13.8664)">
<stop offset="0.193614" stop-color="#A294B3"/>
<stop offset="1" stop-color="#A294B3" stop-opacity="0"/>
</radialGradient>
<radialGradient id="paint11_radial_670_2448" cx="0" cy="0" r="1" gradientUnits="userSpaceOnUse" gradientTransform="translate(39.5634 29.0931) rotate(152.789) scale(12.8614 12.7457)">
<stop offset="0.588231" stop-color="#CCC3DA"/>
<stop offset="1" stop-color="#A197AF"/>
</radialGradient>
</defs>
</svg>
