<svg width="60" height="60" viewBox="0 0 60 60" fill="none" xmlns="http://www.w3.org/2000/svg">
<path d="M8.70111 55.168C7.66632 56.2079 5.98388 56.2098 4.94657 55.1726C3.91281 54.1389 3.91078 52.4634 4.94203 51.4271L37.3535 18.8581C38.3883 17.8183 40.0708 17.8162 41.108 18.8536C42.1417 19.8873 42.1438 21.5628 41.1125 22.5989L8.70111 55.168Z" fill="url(#paint0_linear_670_2273)"/>
<path d="M8.70111 55.168C7.66632 56.2079 5.98388 56.2098 4.94657 55.1726C3.91281 54.1389 3.91078 52.4634 4.94203 51.4271L37.3535 18.8581C38.3883 17.8183 40.0708 17.8162 41.108 18.8536C42.1417 19.8873 42.1438 21.5628 41.1125 22.5989L8.70111 55.168Z" fill="url(#paint1_linear_670_2273)"/>
<g filter="url(#filter0_ii_670_2273)">
<path fill-rule="evenodd" clip-rule="evenodd" d="M47.851 14.5115C47.7132 13.8197 47.1636 13.2794 46.4813 13.1005C45.7144 12.8994 44.8859 12.5881 43.9538 12.1352C43.1821 11.7601 43.1821 10.6922 43.9538 10.3172C44.8859 9.86425 45.7144 9.55292 46.4813 9.35187C47.1636 9.17295 47.7132 8.63267 47.851 7.94085C48.0595 6.89543 48.4007 5.60685 48.9179 4.3455C49.2432 3.5515 50.2767 3.5515 50.6022 4.3455C51.1193 5.60685 51.4606 6.89545 51.6689 7.94085C51.8069 8.63267 52.3564 9.17282 53.0386 9.35239C53.8019 9.55334 54.6252 9.86423 55.5533 10.3162C56.3247 10.692 56.3247 11.7603 55.5533 12.1361C54.6252 12.5881 53.8019 12.899 53.0386 13.1C52.3564 13.2795 51.8069 13.8197 51.6689 14.5115C51.4606 15.5569 51.1193 16.8455 50.6022 18.1068C50.2767 18.9008 49.2432 18.9008 48.9179 18.1068C48.4007 16.8455 48.0595 15.5569 47.851 14.5115Z" fill="url(#paint2_linear_670_2273)"/>
</g>
<g filter="url(#filter1_ii_670_2273)">
<path fill-rule="evenodd" clip-rule="evenodd" d="M26.7402 13.6818C26.6371 13.1647 26.2263 12.7609 25.7163 12.6272C25.1431 12.4769 24.524 12.2442 23.8272 11.9057C23.2503 11.6253 23.2503 10.8271 23.8272 10.5468C24.524 10.2083 25.1431 9.97555 25.7163 9.82526C26.2263 9.69156 26.6371 9.28772 26.7402 8.77061C26.8959 7.98923 27.151 7.02608 27.5375 6.08329C27.7809 5.48981 28.5534 5.48981 28.7965 6.08329C29.183 7.02608 29.4382 7.98923 29.5938 8.77061C29.6969 9.28772 30.1077 9.69145 30.6175 9.82568C31.1881 9.97586 31.8035 10.2082 32.497 10.5461C33.0738 10.827 33.0738 11.6255 32.497 11.9063C31.8035 12.2442 31.1881 12.4766 30.6175 12.6268C30.1077 12.761 29.6969 13.1647 29.5938 13.6818C29.4382 14.4632 29.183 15.4264 28.7965 16.3691C28.5534 16.9626 27.7809 16.9626 27.5375 16.3691C27.151 15.4264 26.8959 14.4632 26.7402 13.6818Z" fill="url(#paint3_linear_670_2273)"/>
</g>
<g filter="url(#filter2_ii_670_2273)">
<path fill-rule="evenodd" clip-rule="evenodd" d="M44.6699 34.248C44.5668 33.7309 44.156 33.327 43.646 33.1933C43.0728 33.0431 42.4537 32.8104 41.7569 32.4718C41.18 32.1915 41.18 31.3933 41.7569 31.113C42.4537 30.7744 43.0728 30.5417 43.646 30.3915C44.156 30.2578 44.5668 29.8539 44.6699 29.3368C44.8255 28.5555 45.0807 27.5923 45.4672 26.6496C45.7106 26.0559 46.483 26.0559 46.7262 26.6496C47.1127 27.5923 47.3679 28.5555 47.5235 29.3368C47.6266 29.8539 48.0374 30.2576 48.5472 30.3919C49.1178 30.5421 49.7332 30.7744 50.4267 31.1123C51.0035 31.3931 51.0035 32.1917 50.4267 32.4726C49.7332 32.8104 49.1178 33.0428 48.5472 33.1929C48.0374 33.3272 47.6266 33.7309 47.5235 34.248C47.3679 35.0295 47.1127 35.9925 46.7262 36.9354C46.483 37.5289 45.7106 37.5289 45.4672 36.9354C45.0807 35.9925 44.8255 35.0295 44.6699 34.248Z" fill="url(#paint4_linear_670_2273)"/>
</g>
<path d="M53.9209 26.6126C55.2072 26.6126 56.25 25.5698 56.25 24.2835C56.25 22.9971 55.2072 21.9543 53.9209 21.9543C52.6346 21.9543 51.5918 22.9971 51.5918 24.2835C51.5918 25.5698 52.6346 26.6126 53.9209 26.6126Z" fill="url(#paint5_radial_670_2273)"/>
<path d="M53.9209 26.6126C55.2072 26.6126 56.25 25.5698 56.25 24.2835C56.25 22.9971 55.2072 21.9543 53.9209 21.9543C52.6346 21.9543 51.5918 22.9971 51.5918 24.2835C51.5918 25.5698 52.6346 26.6126 53.9209 26.6126Z" fill="url(#paint6_radial_670_2273)"/>
<path d="M35.6689 41.9348C36.9553 41.9348 37.9981 40.892 37.9981 39.6057C37.9981 38.3194 36.9553 37.2766 35.6689 37.2766C34.3826 37.2766 33.3398 38.3194 33.3398 39.6057C33.3398 40.892 34.3826 41.9348 35.6689 41.9348Z" fill="url(#paint7_radial_670_2273)"/>
<path d="M35.6689 41.9348C36.9553 41.9348 37.9981 40.892 37.9981 39.6057C37.9981 38.3194 36.9553 37.2766 35.6689 37.2766C34.3826 37.2766 33.3398 38.3194 33.3398 39.6057C33.3398 40.892 34.3826 41.9348 35.6689 41.9348Z" fill="url(#paint8_radial_670_2273)"/>
<path d="M22.5989 26.9165C23.8346 26.9165 24.8364 25.9147 24.8364 24.679C24.8364 23.4432 23.8346 22.4414 22.5989 22.4414C21.3631 22.4414 20.3613 23.4432 20.3613 24.679C20.3613 25.9147 21.3631 26.9165 22.5989 26.9165Z" fill="url(#paint9_radial_670_2273)"/>
<path d="M22.5989 26.9165C23.8346 26.9165 24.8364 25.9147 24.8364 24.679C24.8364 23.4432 23.8346 22.4414 22.5989 22.4414C21.3631 22.4414 20.3613 23.4432 20.3613 24.679C20.3613 25.9147 21.3631 26.9165 22.5989 26.9165Z" fill="url(#paint10_radial_670_2273)"/>
<path d="M35.7056 7.50586C36.7371 7.50586 37.5732 6.66967 37.5732 5.63818C37.5732 4.60669 36.7371 3.77051 35.7056 3.77051C34.6741 3.77051 33.8379 4.60669 33.8379 5.63818C33.8379 6.66967 34.6741 7.50586 35.7056 7.50586Z" fill="url(#paint11_radial_670_2273)"/>
<path d="M35.7056 7.50586C36.7371 7.50586 37.5732 6.66967 37.5732 5.63818C37.5732 4.60669 36.7371 3.77051 35.7056 3.77051C34.6741 3.77051 33.8379 4.60669 33.8379 5.63818C33.8379 6.66967 34.6741 7.50586 35.7056 7.50586Z" fill="url(#paint12_radial_670_2273)"/>
<g filter="url(#filter3_f_670_2273)">
<path d="M36.2402 22.9504L7.82227 51.4857" stroke="url(#paint13_linear_670_2273)" stroke-width="0.9375"/>
</g>
<path d="M34.123 22.1037L37.3533 18.8579C38.3881 17.818 40.0705 17.816 41.1078 18.8532C42.1415 19.8871 42.1435 21.5624 41.1123 22.5987L37.8984 25.8284L34.123 22.1037Z" fill="#CFC9D8"/>
<path d="M34.123 22.1037L37.3533 18.8579C38.3881 17.818 40.0705 17.816 41.1078 18.8532C42.1415 19.8871 42.1435 21.5624 41.1123 22.5987L37.8984 25.8284L34.123 22.1037Z" fill="url(#paint14_linear_670_2273)"/>
<path d="M34.123 22.1037L37.3533 18.8579C38.3881 17.818 40.0705 17.816 41.1078 18.8532C42.1415 19.8871 42.1435 21.5624 41.1123 22.5987L37.8984 25.8284L34.123 22.1037Z" fill="url(#paint15_linear_670_2273)"/>
<path d="M34.123 22.1037L37.3533 18.8579C38.3881 17.818 40.0705 17.816 41.1078 18.8532C42.1415 19.8871 42.1435 21.5624 41.1123 22.5987L37.8984 25.8284L34.123 22.1037Z" fill="url(#paint16_radial_670_2273)"/>
<g filter="url(#filter4_i_670_2273)">
<path d="M4.94657 55.1725C5.98387 56.2097 7.66631 56.2078 8.7011 55.168L11.8689 51.9848L8.10789 48.2458L4.94203 51.4272C3.91078 52.4633 3.91282 54.1388 4.94657 55.1725Z" fill="#CFC6DD"/>
<path d="M4.94657 55.1725C5.98387 56.2097 7.66631 56.2078 8.7011 55.168L11.8689 51.9848L8.10789 48.2458L4.94203 51.4272C3.91078 52.4633 3.91282 54.1388 4.94657 55.1725Z" fill="url(#paint17_linear_670_2273)"/>
</g>
<path d="M4.94657 55.1725C5.98387 56.2097 7.66631 56.2078 8.7011 55.168L11.8689 51.9848L8.10789 48.2458L4.94203 51.4272C3.91078 52.4633 3.91282 54.1388 4.94657 55.1725Z" fill="url(#paint18_linear_670_2273)"/>
<path d="M4.94657 55.1725C5.98387 56.2097 7.66631 56.2078 8.7011 55.168L11.8689 51.9848L8.10789 48.2458L4.94203 51.4272C3.91078 52.4633 3.91282 54.1388 4.94657 55.1725Z" fill="url(#paint19_radial_670_2273)"/>
<defs>
<filter id="filter0_ii_670_2273" x="43.0938" y="3.46875" width="13.3193" height="15.5149" filterUnits="userSpaceOnUse" color-interpolation-filters="sRGB">
<feFlood flood-opacity="0" result="BackgroundImageFix"/>
<feBlend mode="normal" in="SourceGraphic" in2="BackgroundImageFix" result="shape"/>
<feColorMatrix in="SourceAlpha" type="matrix" values="0 0 0 0 0 0 0 0 0 0 0 0 0 0 0 0 0 0 127 0" result="hardAlpha"/>
<feOffset dx="0.28125" dy="-0.28125"/>
<feGaussianBlur stdDeviation="0.703125"/>
<feComposite in2="hardAlpha" operator="arithmetic" k2="-1" k3="1"/>
<feColorMatrix type="matrix" values="0 0 0 0 0.94902 0 0 0 0 0.513726 0 0 0 0 0.392157 0 0 0 1 0"/>
<feBlend mode="normal" in2="shape" result="effect1_innerShadow_670_2273"/>
<feColorMatrix in="SourceAlpha" type="matrix" values="0 0 0 0 0 0 0 0 0 0 0 0 0 0 0 0 0 0 127 0" result="hardAlpha"/>
<feOffset dx="-0.28125" dy="0.28125"/>
<feGaussianBlur stdDeviation="0.5625"/>
<feComposite in2="hardAlpha" operator="arithmetic" k2="-1" k3="1"/>
<feColorMatrix type="matrix" values="0 0 0 0 1 0 0 0 0 0.823529 0 0 0 0 0.407843 0 0 0 1 0"/>
<feBlend mode="normal" in2="effect1_innerShadow_670_2273" result="effect2_innerShadow_670_2273"/>
</filter>
<filter id="filter1_ii_670_2273" x="23.1133" y="5.35693" width="10.0977" height="11.7385" filterUnits="userSpaceOnUse" color-interpolation-filters="sRGB">
<feFlood flood-opacity="0" result="BackgroundImageFix"/>
<feBlend mode="normal" in="SourceGraphic" in2="BackgroundImageFix" result="shape"/>
<feColorMatrix in="SourceAlpha" type="matrix" values="0 0 0 0 0 0 0 0 0 0 0 0 0 0 0 0 0 0 127 0" result="hardAlpha"/>
<feOffset dx="0.28125" dy="-0.28125"/>
<feGaussianBlur stdDeviation="0.703125"/>
<feComposite in2="hardAlpha" operator="arithmetic" k2="-1" k3="1"/>
<feColorMatrix type="matrix" values="0 0 0 0 0.94902 0 0 0 0 0.513726 0 0 0 0 0.392157 0 0 0 1 0"/>
<feBlend mode="normal" in2="shape" result="effect1_innerShadow_670_2273"/>
<feColorMatrix in="SourceAlpha" type="matrix" values="0 0 0 0 0 0 0 0 0 0 0 0 0 0 0 0 0 0 127 0" result="hardAlpha"/>
<feOffset dx="-0.28125" dy="0.28125"/>
<feGaussianBlur stdDeviation="0.5625"/>
<feComposite in2="hardAlpha" operator="arithmetic" k2="-1" k3="1"/>
<feColorMatrix type="matrix" values="0 0 0 0 1 0 0 0 0 0.823529 0 0 0 0 0.407843 0 0 0 1 0"/>
<feBlend mode="normal" in2="effect1_innerShadow_670_2273" result="effect2_innerShadow_670_2273"/>
</filter>
<filter id="filter2_ii_670_2273" x="41.043" y="25.9231" width="10.0977" height="11.7388" filterUnits="userSpaceOnUse" color-interpolation-filters="sRGB">
<feFlood flood-opacity="0" result="BackgroundImageFix"/>
<feBlend mode="normal" in="SourceGraphic" in2="BackgroundImageFix" result="shape"/>
<feColorMatrix in="SourceAlpha" type="matrix" values="0 0 0 0 0 0 0 0 0 0 0 0 0 0 0 0 0 0 127 0" result="hardAlpha"/>
<feOffset dx="0.28125" dy="-0.28125"/>
<feGaussianBlur stdDeviation="0.703125"/>
<feComposite in2="hardAlpha" operator="arithmetic" k2="-1" k3="1"/>
<feColorMatrix type="matrix" values="0 0 0 0 0.94902 0 0 0 0 0.513726 0 0 0 0 0.392157 0 0 0 1 0"/>
<feBlend mode="normal" in2="shape" result="effect1_innerShadow_670_2273"/>
<feColorMatrix in="SourceAlpha" type="matrix" values="0 0 0 0 0 0 0 0 0 0 0 0 0 0 0 0 0 0 127 0" result="hardAlpha"/>
<feOffset dx="-0.28125" dy="0.28125"/>
<feGaussianBlur stdDeviation="0.5625"/>
<feComposite in2="hardAlpha" operator="arithmetic" k2="-1" k3="1"/>
<feColorMatrix type="matrix" values="0 0 0 0 1 0 0 0 0 0.823529 0 0 0 0 0.407843 0 0 0 1 0"/>
<feBlend mode="normal" in2="effect1_innerShadow_670_2273" result="effect2_innerShadow_670_2273"/>
</filter>
<filter id="filter3_f_670_2273" x="6.55273" y="21.6821" width="30.957" height="31.0718" filterUnits="userSpaceOnUse" color-interpolation-filters="sRGB">
<feFlood flood-opacity="0" result="BackgroundImageFix"/>
<feBlend mode="normal" in="SourceGraphic" in2="BackgroundImageFix" result="shape"/>
<feGaussianBlur stdDeviation="0.46875" result="effect1_foregroundBlur_670_2273"/>
</filter>
<filter id="filter4_i_670_2273" x="3.98242" y="47.3083" width="7.88672" height="8.64087" filterUnits="userSpaceOnUse" color-interpolation-filters="sRGB">
<feFlood flood-opacity="0" result="BackgroundImageFix"/>
<feBlend mode="normal" in="SourceGraphic" in2="BackgroundImageFix" result="shape"/>
<feColorMatrix in="SourceAlpha" type="matrix" values="0 0 0 0 0 0 0 0 0 0 0 0 0 0 0 0 0 0 127 0" result="hardAlpha"/>
<feOffset dx="-0.1875" dy="-0.9375"/>
<feGaussianBlur stdDeviation="0.9375"/>
<feComposite in2="hardAlpha" operator="arithmetic" k2="-1" k3="1"/>
<feColorMatrix type="matrix" values="0 0 0 0 0.698039 0 0 0 0 0.619608 0 0 0 0 0.792157 0 0 0 1 0"/>
<feBlend mode="normal" in2="shape" result="effect1_innerShadow_670_2273"/>
</filter>
<linearGradient id="paint0_linear_670_2273" x1="36.0644" y1="24.4154" x2="9.69722" y2="51.3686" gradientUnits="userSpaceOnUse">
<stop stop-color="#60105F"/>
<stop offset="1" stop-color="#54155E"/>
</linearGradient>
<linearGradient id="paint1_linear_670_2273" x1="10.3124" y1="45.1284" x2="13.0664" y2="47.8529" gradientUnits="userSpaceOnUse">
<stop stop-color="#523253"/>
<stop offset="1" stop-color="#523253" stop-opacity="0"/>
</linearGradient>
<linearGradient id="paint2_linear_670_2273" x1="54.3389" y1="7.7095" x2="46.9058" y2="15.149" gradientUnits="userSpaceOnUse">
<stop stop-color="#FFD459"/>
<stop offset="1" stop-color="#FFA271"/>
</linearGradient>
<linearGradient id="paint3_linear_670_2273" x1="31.5895" y1="8.59768" x2="26.0337" y2="14.1583" gradientUnits="userSpaceOnUse">
<stop stop-color="#FFD465"/>
<stop offset="1" stop-color="#FFAF36"/>
</linearGradient>
<linearGradient id="paint4_linear_670_2273" x1="49.5192" y1="29.1639" x2="43.9634" y2="34.7244" gradientUnits="userSpaceOnUse">
<stop stop-color="#FFD465"/>
<stop offset="1" stop-color="#FFAF36"/>
</linearGradient>
<radialGradient id="paint5_radial_670_2273" cx="0" cy="0" r="1" gradientUnits="userSpaceOnUse" gradientTransform="translate(54.9531 23.3673) rotate(127.823) scale(3.51514 3.28768)">
<stop stop-color="#FFD463"/>
<stop offset="1" stop-color="#E68F2B"/>
</radialGradient>
<radialGradient id="paint6_radial_670_2273" cx="0" cy="0" r="1" gradientUnits="userSpaceOnUse" gradientTransform="translate(53.9209 22.7461) rotate(90) scale(3.86629 3.37035)">
<stop offset="0.796875" stop-color="#E37A42" stop-opacity="0"/>
<stop offset="1" stop-color="#E37A42"/>
</radialGradient>
<radialGradient id="paint7_radial_670_2273" cx="0" cy="0" r="1" gradientUnits="userSpaceOnUse" gradientTransform="translate(36.7011 38.6898) rotate(127.823) scale(3.51514 3.28768)">
<stop stop-color="#FFD463"/>
<stop offset="1" stop-color="#E68F2B"/>
</radialGradient>
<radialGradient id="paint8_radial_670_2273" cx="0" cy="0" r="1" gradientUnits="userSpaceOnUse" gradientTransform="translate(35.669 38.0686) rotate(90) scale(3.86629 3.37035)">
<stop offset="0.796875" stop-color="#E37A42" stop-opacity="0"/>
<stop offset="1" stop-color="#E37A42"/>
</radialGradient>
<radialGradient id="paint9_radial_670_2273" cx="0" cy="0" r="1" gradientUnits="userSpaceOnUse" gradientTransform="translate(23.5906 23.7988) rotate(127.823) scale(3.37697 3.15846)">
<stop stop-color="#FFD463"/>
<stop offset="1" stop-color="#E68F2B"/>
</radialGradient>
<radialGradient id="paint10_radial_670_2273" cx="0" cy="0" r="1" gradientUnits="userSpaceOnUse" gradientTransform="translate(22.5989 23.2022) rotate(90) scale(3.7143 3.23786)">
<stop offset="0.796875" stop-color="#E37A42" stop-opacity="0"/>
<stop offset="1" stop-color="#E37A42"/>
</radialGradient>
<radialGradient id="paint11_radial_670_2273" cx="0" cy="0" r="1" gradientUnits="userSpaceOnUse" gradientTransform="translate(36.5332 4.90358) rotate(127.823) scale(2.81874 2.63636)">
<stop stop-color="#FFD463"/>
<stop offset="1" stop-color="#E68F2B"/>
</radialGradient>
<radialGradient id="paint12_radial_670_2273" cx="0" cy="0" r="1" gradientUnits="userSpaceOnUse" gradientTransform="translate(35.7056 4.40554) rotate(90) scale(3.10031 2.70265)">
<stop offset="0.869366" stop-color="#E37A42" stop-opacity="0"/>
<stop offset="1" stop-color="#E37A42"/>
</radialGradient>
<linearGradient id="paint13_linear_670_2273" x1="34.7754" y1="25.0013" x2="7.82227" y2="51.4857" gradientUnits="userSpaceOnUse">
<stop stop-color="#692167"/>
<stop offset="1" stop-color="#5B2460"/>
</linearGradient>
<linearGradient id="paint14_linear_670_2273" x1="35.3382" y1="20.6641" x2="37.2175" y2="22.4418" gradientUnits="userSpaceOnUse">
<stop stop-color="#C1BFC3"/>
<stop offset="1" stop-color="#C1BFC3" stop-opacity="0"/>
</linearGradient>
<linearGradient id="paint15_linear_670_2273" x1="40.1658" y1="24.1516" x2="38.9939" y2="22.921" gradientUnits="userSpaceOnUse">
<stop stop-color="#B0A1BF"/>
<stop offset="1" stop-color="#B0A1BF" stop-opacity="0"/>
</linearGradient>
<radialGradient id="paint16_radial_670_2273" cx="0" cy="0" r="1" gradientUnits="userSpaceOnUse" gradientTransform="translate(40.8689 18.9659) rotate(133.939) scale(2.23772 2.70349)">
<stop offset="0.209653" stop-color="#ECE8F2"/>
<stop offset="1" stop-color="#ECE8F2" stop-opacity="0"/>
</radialGradient>
<linearGradient id="paint17_linear_670_2273" x1="6.15594" y1="49.8467" x2="8.01939" y2="51.7092" gradientUnits="userSpaceOnUse">
<stop stop-color="#A8A6AD"/>
<stop offset="1" stop-color="#A8A6AD" stop-opacity="0"/>
</linearGradient>
<linearGradient id="paint18_linear_670_2273" x1="4.89251" y1="55.7629" x2="6.35735" y2="53.9466" gradientUnits="userSpaceOnUse">
<stop stop-color="#968FA1"/>
<stop offset="1" stop-color="#968FA1" stop-opacity="0"/>
</linearGradient>
<radialGradient id="paint19_radial_670_2273" cx="0" cy="0" r="1" gradientUnits="userSpaceOnUse" gradientTransform="translate(8.01939 48.556) rotate(98.4726) scale(9.09337 9.28309)">
<stop offset="0.661224" stop-color="#8F6EAF" stop-opacity="0"/>
<stop offset="0.918366" stop-color="#8F6EAF"/>
</radialGradient>
</defs>
</svg>
