<svg width="60" height="60" viewBox="0 0 60 60" fill="none" xmlns="http://www.w3.org/2000/svg">
<path d="M50.625 15C47.5312 15 45 12.4688 45 9.375C45 6.28125 47.5312 3.75 50.625 3.75C53.7188 3.75 56.25 6.28125 56.25 9.375C56.25 12.4688 53.7188 15 50.625 15ZM50.625 6.3375C48.9562 6.3375 47.6062 7.6875 47.6062 9.35625C47.6062 11.025 48.9562 12.375 50.625 12.375C52.2937 12.375 53.6438 11.025 53.6438 9.35625C53.6438 7.6875 52.275 6.3375 50.625 6.3375Z" fill="url(#paint0_linear_672_2891)"/>
<path d="M50.625 15C47.5312 15 45 12.4688 45 9.375C45 6.28125 47.5312 3.75 50.625 3.75C53.7188 3.75 56.25 6.28125 56.25 9.375C56.25 12.4688 53.7188 15 50.625 15ZM50.625 6.3375C48.9562 6.3375 47.6062 7.6875 47.6062 9.35625C47.6062 11.025 48.9562 12.375 50.625 12.375C52.2937 12.375 53.6438 11.025 53.6438 9.35625C53.6438 7.6875 52.275 6.3375 50.625 6.3375Z" fill="url(#paint1_radial_672_2891)"/>
<path d="M50.625 15C47.5312 15 45 12.4688 45 9.375C45 6.28125 47.5312 3.75 50.625 3.75C53.7188 3.75 56.25 6.28125 56.25 9.375C56.25 12.4688 53.7188 15 50.625 15ZM50.625 6.3375C48.9562 6.3375 47.6062 7.6875 47.6062 9.35625C47.6062 11.025 48.9562 12.375 50.625 12.375C52.2937 12.375 53.6438 11.025 53.6438 9.35625C53.6438 7.6875 52.275 6.3375 50.625 6.3375Z" fill="url(#paint2_radial_672_2891)"/>
<path d="M50.625 15C47.5312 15 45 12.4688 45 9.375C45 6.28125 47.5312 3.75 50.625 3.75C53.7188 3.75 56.25 6.28125 56.25 9.375C56.25 12.4688 53.7188 15 50.625 15ZM50.625 6.3375C48.9562 6.3375 47.6062 7.6875 47.6062 9.35625C47.6062 11.025 48.9562 12.375 50.625 12.375C52.2937 12.375 53.6438 11.025 53.6438 9.35625C53.6438 7.6875 52.275 6.3375 50.625 6.3375Z" fill="url(#paint3_radial_672_2891)"/>
<path d="M50.625 15C47.5312 15 45 12.4688 45 9.375C45 6.28125 47.5312 3.75 50.625 3.75C53.7188 3.75 56.25 6.28125 56.25 9.375C56.25 12.4688 53.7188 15 50.625 15ZM50.625 6.3375C48.9562 6.3375 47.6062 7.6875 47.6062 9.35625C47.6062 11.025 48.9562 12.375 50.625 12.375C52.2937 12.375 53.6438 11.025 53.6438 9.35625C53.6438 7.6875 52.275 6.3375 50.625 6.3375Z" fill="url(#paint4_radial_672_2891)"/>
<path d="M50.625 15C47.5312 15 45 12.4688 45 9.375C45 6.28125 47.5312 3.75 50.625 3.75C53.7188 3.75 56.25 6.28125 56.25 9.375C56.25 12.4688 53.7188 15 50.625 15ZM50.625 6.3375C48.9562 6.3375 47.6062 7.6875 47.6062 9.35625C47.6062 11.025 48.9562 12.375 50.625 12.375C52.2937 12.375 53.6438 11.025 53.6438 9.35625C53.6438 7.6875 52.275 6.3375 50.625 6.3375Z" fill="url(#paint5_radial_672_2891)"/>
<g filter="url(#filter0_i_672_2891)">
<path d="M47.5314 15L44.9814 12.45L47.5314 9.89995C48.2252 9.2062 49.3689 9.2062 50.0814 9.89995C50.7752 10.5937 50.7752 11.7375 50.0814 12.45L47.5314 15Z" fill="url(#paint6_radial_672_2891)"/>
</g>
<g filter="url(#filter1_ii_672_2891)">
<path d="M29.0628 52.4954C40.9689 52.4954 50.6206 42.8436 50.6206 30.9376C50.6206 19.0315 40.9689 9.37964 29.0628 9.37964C17.1567 9.37964 7.50488 19.0315 7.50488 30.9376C7.50488 42.8436 17.1567 52.4954 29.0628 52.4954Z" fill="url(#paint7_radial_672_2891)"/>
</g>
<path fill-rule="evenodd" clip-rule="evenodd" d="M54.375 30.9375C54.375 44.9171 43.0421 56.25 29.0625 56.25C15.0828 56.25 3.75 44.9171 3.75 30.9375C3.75 16.9578 15.0828 5.625 29.0625 5.625C43.0421 5.625 54.375 16.9578 54.375 30.9375ZM49.7625 30.9375C49.7625 42.3698 40.4948 51.6375 29.0625 51.6375C17.6301 51.6375 8.36242 42.3698 8.36242 30.9375C8.36242 19.5051 17.6301 10.2374 29.0625 10.2374C40.4948 10.2374 49.7625 19.5051 49.7625 30.9375Z" fill="url(#paint8_linear_672_2891)"/>
<path fill-rule="evenodd" clip-rule="evenodd" d="M54.375 30.9375C54.375 44.9171 43.0421 56.25 29.0625 56.25C15.0828 56.25 3.75 44.9171 3.75 30.9375C3.75 16.9578 15.0828 5.625 29.0625 5.625C43.0421 5.625 54.375 16.9578 54.375 30.9375ZM49.7625 30.9375C49.7625 42.3698 40.4948 51.6375 29.0625 51.6375C17.6301 51.6375 8.36242 42.3698 8.36242 30.9375C8.36242 19.5051 17.6301 10.2374 29.0625 10.2374C40.4948 10.2374 49.7625 19.5051 49.7625 30.9375Z" fill="url(#paint9_radial_672_2891)"/>
<path fill-rule="evenodd" clip-rule="evenodd" d="M54.375 30.9375C54.375 44.9171 43.0421 56.25 29.0625 56.25C15.0828 56.25 3.75 44.9171 3.75 30.9375C3.75 16.9578 15.0828 5.625 29.0625 5.625C43.0421 5.625 54.375 16.9578 54.375 30.9375ZM49.7625 30.9375C49.7625 42.3698 40.4948 51.6375 29.0625 51.6375C17.6301 51.6375 8.36242 42.3698 8.36242 30.9375C8.36242 19.5051 17.6301 10.2374 29.0625 10.2374C40.4948 10.2374 49.7625 19.5051 49.7625 30.9375Z" fill="url(#paint10_radial_672_2891)"/>
<path fill-rule="evenodd" clip-rule="evenodd" d="M54.375 30.9375C54.375 44.9171 43.0421 56.25 29.0625 56.25C15.0828 56.25 3.75 44.9171 3.75 30.9375C3.75 16.9578 15.0828 5.625 29.0625 5.625C43.0421 5.625 54.375 16.9578 54.375 30.9375ZM49.7625 30.9375C49.7625 42.3698 40.4948 51.6375 29.0625 51.6375C17.6301 51.6375 8.36242 42.3698 8.36242 30.9375C8.36242 19.5051 17.6301 10.2374 29.0625 10.2374C40.4948 10.2374 49.7625 19.5051 49.7625 30.9375Z" fill="url(#paint11_radial_672_2891)"/>
<path fill-rule="evenodd" clip-rule="evenodd" d="M54.375 30.9375C54.375 44.9171 43.0421 56.25 29.0625 56.25C15.0828 56.25 3.75 44.9171 3.75 30.9375C3.75 16.9578 15.0828 5.625 29.0625 5.625C43.0421 5.625 54.375 16.9578 54.375 30.9375ZM49.7625 30.9375C49.7625 42.3698 40.4948 51.6375 29.0625 51.6375C17.6301 51.6375 8.36242 42.3698 8.36242 30.9375C8.36242 19.5051 17.6301 10.2374 29.0625 10.2374C40.4948 10.2374 49.7625 19.5051 49.7625 30.9375Z" fill="url(#paint12_radial_672_2891)"/>
<g filter="url(#filter2_i_672_2891)">
<path d="M32.0246 30.9374L29.6059 15.4687C29.5121 14.85 28.6121 14.85 28.5184 15.4687L26.0996 30.9374L28.5184 46.4061C28.6121 47.0249 29.5121 47.0249 29.6059 46.4061L32.0246 30.9374Z" fill="url(#paint13_linear_672_2891)"/>
<path d="M32.0246 30.9374L29.6059 15.4687C29.5121 14.85 28.6121 14.85 28.5184 15.4687L26.0996 30.9374L28.5184 46.4061C28.6121 47.0249 29.5121 47.0249 29.6059 46.4061L32.0246 30.9374Z" fill="url(#paint14_radial_672_2891)"/>
</g>
<path d="M29.0626 33.8999L44.5314 31.4811C45.1501 31.3874 45.1501 30.4874 44.5314 30.3936L29.0626 27.9749L13.5939 30.3936C12.9752 30.4874 12.9752 31.3874 13.5939 31.4811L29.0626 33.8999Z" fill="url(#paint15_linear_672_2891)"/>
<path d="M29.0626 33.8999L44.5314 31.4811C45.1501 31.3874 45.1501 30.4874 44.5314 30.3936L29.0626 27.9749L13.5939 30.3936C12.9752 30.4874 12.9752 31.3874 13.5939 31.4811L29.0626 33.8999Z" fill="url(#paint16_radial_672_2891)"/>
<path d="M30.5438 32.4188L36.7125 23.9625C37.05 23.5125 36.4875 22.95 36.0188 23.2688L27.5625 29.4375L21.3938 37.8938C21.0563 38.3438 21.6188 38.9063 22.0875 38.5875L30.5438 32.4188Z" fill="url(#paint17_linear_672_2891)"/>
<path d="M30.5438 32.4188L36.7125 23.9625C37.05 23.5125 36.4875 22.95 36.0188 23.2688L27.5625 29.4375L21.3938 37.8938C21.0563 38.3438 21.6188 38.9063 22.0875 38.5875L30.5438 32.4188Z" fill="url(#paint18_radial_672_2891)"/>
<path d="M27.563 32.4185L36.0193 38.5873C36.4693 38.9248 37.0318 38.3623 36.713 37.8935L30.5443 29.4373L22.088 23.2685C21.638 22.931 21.0755 23.4935 21.3943 23.9623L27.563 32.4185Z" fill="#CCCCCC"/>
<g filter="url(#filter3_ii_672_2891)">
<path d="M25.8383 34.1437L18.8446 21.9187C18.4132 21.15 19.2571 20.3062 20.0258 20.7375L32.2696 27.7125L25.8383 34.1437Z" fill="url(#paint19_linear_672_2891)"/>
</g>
<g filter="url(#filter4_ii_672_2891)">
<path d="M32.2682 27.7125L39.2057 39.9188C39.6369 40.6875 38.7932 41.5313 38.0244 41.1L25.8369 34.1438L32.2682 27.7125Z" fill="#6B656E"/>
</g>
<g filter="url(#filter5_i_672_2891)">
<path d="M29.0621 35.4935C31.5785 35.4935 33.6184 33.4537 33.6184 30.9372C33.6184 28.421 31.5785 26.381 29.0621 26.381C26.5459 26.381 24.5059 28.421 24.5059 30.9372C24.5059 33.4537 26.5459 35.4935 29.0621 35.4935Z" fill="url(#paint20_radial_672_2891)"/>
</g>
<g filter="url(#filter6_f_672_2891)">
<path d="M29.5837 53.9062C16.8103 53.9062 2.86494 41.6016 7.55246 23.6719" stroke="url(#paint21_linear_672_2891)" stroke-width="0.9375"/>
</g>
<g filter="url(#filter7_f_672_2891)">
<path d="M29.0625 6.44531C41.8359 6.44531 57.1811 18.457 51.9465 38.0549" stroke="url(#paint22_linear_672_2891)" stroke-width="1.40625"/>
</g>
<g filter="url(#filter8_f_672_2891)">
<path d="M52.5518 4.74609C53.5869 5.04883 55.6749 6.36328 55.7453 9.19922" stroke="url(#paint23_linear_672_2891)" stroke-width="0.9375" stroke-linecap="round"/>
</g>
<defs>
<filter id="filter0_i_672_2891" x="44.9814" y="9.37964" width="5.90137" height="5.62036" filterUnits="userSpaceOnUse" color-interpolation-filters="sRGB">
<feFlood flood-opacity="0" result="BackgroundImageFix"/>
<feBlend mode="normal" in="SourceGraphic" in2="BackgroundImageFix" result="shape"/>
<feColorMatrix in="SourceAlpha" type="matrix" values="0 0 0 0 0 0 0 0 0 0 0 0 0 0 0 0 0 0 127 0" result="hardAlpha"/>
<feOffset dx="0.28125"/>
<feGaussianBlur stdDeviation="0.46875"/>
<feComposite in2="hardAlpha" operator="arithmetic" k2="-1" k3="1"/>
<feColorMatrix type="matrix" values="0 0 0 0 0.741176 0 0 0 0 0.537255 0 0 0 0 0.309804 0 0 0 1 0"/>
<feBlend mode="normal" in2="shape" result="effect1_innerShadow_672_2891"/>
</filter>
<filter id="filter1_ii_672_2891" x="5.62988" y="9.37964" width="44.9912" height="44.9907" filterUnits="userSpaceOnUse" color-interpolation-filters="sRGB">
<feFlood flood-opacity="0" result="BackgroundImageFix"/>
<feBlend mode="normal" in="SourceGraphic" in2="BackgroundImageFix" result="shape"/>
<feColorMatrix in="SourceAlpha" type="matrix" values="0 0 0 0 0 0 0 0 0 0 0 0 0 0 0 0 0 0 127 0" result="hardAlpha"/>
<feOffset dx="-1.875" dy="1.875"/>
<feGaussianBlur stdDeviation="2.8125"/>
<feComposite in2="hardAlpha" operator="arithmetic" k2="-1" k3="1"/>
<feColorMatrix type="matrix" values="0 0 0 0 0.623529 0 0 0 0 0.482353 0 0 0 0 0.537255 0 0 0 1 0"/>
<feBlend mode="normal" in2="shape" result="effect1_innerShadow_672_2891"/>
<feColorMatrix in="SourceAlpha" type="matrix" values="0 0 0 0 0 0 0 0 0 0 0 0 0 0 0 0 0 0 127 0" result="hardAlpha"/>
<feOffset dx="-0.9375" dy="0.9375"/>
<feGaussianBlur stdDeviation="0.9375"/>
<feComposite in2="hardAlpha" operator="arithmetic" k2="-1" k3="1"/>
<feColorMatrix type="matrix" values="0 0 0 0 0.556863 0 0 0 0 0.431373 0 0 0 0 0.482353 0 0 0 1 0"/>
<feBlend mode="normal" in2="effect1_innerShadow_672_2891" result="effect2_innerShadow_672_2891"/>
</filter>
<filter id="filter2_i_672_2891" x="26.0996" y="15.0046" width="6.01855" height="31.8656" filterUnits="userSpaceOnUse" color-interpolation-filters="sRGB">
<feFlood flood-opacity="0" result="BackgroundImageFix"/>
<feBlend mode="normal" in="SourceGraphic" in2="BackgroundImageFix" result="shape"/>
<feColorMatrix in="SourceAlpha" type="matrix" values="0 0 0 0 0 0 0 0 0 0 0 0 0 0 0 0 0 0 127 0" result="hardAlpha"/>
<feOffset dx="0.09375"/>
<feGaussianBlur stdDeviation="0.09375"/>
<feComposite in2="hardAlpha" operator="arithmetic" k2="-1" k3="1"/>
<feColorMatrix type="matrix" values="0 0 0 0 0.584314 0 0 0 0 0.521569 0 0 0 0 0.576471 0 0 0 1 0"/>
<feBlend mode="normal" in2="shape" result="effect1_innerShadow_672_2891"/>
</filter>
<filter id="filter3_ii_672_2891" x="18.54" y="20.1517" width="13.7295" height="13.9919" filterUnits="userSpaceOnUse" color-interpolation-filters="sRGB">
<feFlood flood-opacity="0" result="BackgroundImageFix"/>
<feBlend mode="normal" in="SourceGraphic" in2="BackgroundImageFix" result="shape"/>
<feColorMatrix in="SourceAlpha" type="matrix" values="0 0 0 0 0 0 0 0 0 0 0 0 0 0 0 0 0 0 127 0" result="hardAlpha"/>
<feOffset dx="-0.9375"/>
<feGaussianBlur stdDeviation="0.09375"/>
<feComposite in2="hardAlpha" operator="arithmetic" k2="-1" k3="1"/>
<feColorMatrix type="matrix" values="0 0 0 0 0.952941 0 0 0 0 0.239216 0 0 0 0 0.435294 0 0 0 1 0"/>
<feBlend mode="normal" in2="shape" result="effect1_innerShadow_672_2891"/>
<feColorMatrix in="SourceAlpha" type="matrix" values="0 0 0 0 0 0 0 0 0 0 0 0 0 0 0 0 0 0 127 0" result="hardAlpha"/>
<feOffset dy="-0.9375"/>
<feGaussianBlur stdDeviation="0.234375"/>
<feComposite in2="hardAlpha" operator="arithmetic" k2="-1" k3="1"/>
<feColorMatrix type="matrix" values="0 0 0 0 0 0 0 0 0 0 0 0 0 0 0 0 0 0 0.25 0"/>
<feBlend mode="normal" in2="effect1_innerShadow_672_2891" result="effect2_innerShadow_672_2891"/>
</filter>
<filter id="filter4_ii_672_2891" x="25.8369" y="27.4313" width="13.4854" height="13.9733" filterUnits="userSpaceOnUse" color-interpolation-filters="sRGB">
<feFlood flood-opacity="0" result="BackgroundImageFix"/>
<feBlend mode="normal" in="SourceGraphic" in2="BackgroundImageFix" result="shape"/>
<feColorMatrix in="SourceAlpha" type="matrix" values="0 0 0 0 0 0 0 0 0 0 0 0 0 0 0 0 0 0 127 0" result="hardAlpha"/>
<feOffset dy="0.9375"/>
<feGaussianBlur stdDeviation="0.09375"/>
<feComposite in2="hardAlpha" operator="arithmetic" k2="-1" k3="1"/>
<feColorMatrix type="matrix" values="0 0 0 0 0.47451 0 0 0 0 0.462745 0 0 0 0 0.470588 0 0 0 1 0"/>
<feBlend mode="normal" in2="shape" result="effect1_innerShadow_672_2891"/>
<feColorMatrix in="SourceAlpha" type="matrix" values="0 0 0 0 0 0 0 0 0 0 0 0 0 0 0 0 0 0 127 0" result="hardAlpha"/>
<feOffset dy="-0.65625"/>
<feGaussianBlur stdDeviation="0.140625"/>
<feComposite in2="hardAlpha" operator="arithmetic" k2="-1" k3="1"/>
<feColorMatrix type="matrix" values="0 0 0 0 0 0 0 0 0 0 0 0 0 0 0 0 0 0 0.25 0"/>
<feBlend mode="normal" in2="effect1_innerShadow_672_2891" result="effect2_innerShadow_672_2891"/>
</filter>
<filter id="filter5_i_672_2891" x="24.5059" y="26.0997" width="9.39355" height="9.3938" filterUnits="userSpaceOnUse" color-interpolation-filters="sRGB">
<feFlood flood-opacity="0" result="BackgroundImageFix"/>
<feBlend mode="normal" in="SourceGraphic" in2="BackgroundImageFix" result="shape"/>
<feColorMatrix in="SourceAlpha" type="matrix" values="0 0 0 0 0 0 0 0 0 0 0 0 0 0 0 0 0 0 127 0" result="hardAlpha"/>
<feOffset dx="0.28125" dy="-0.28125"/>
<feGaussianBlur stdDeviation="0.140625"/>
<feComposite in2="hardAlpha" operator="arithmetic" k2="-1" k3="1"/>
<feColorMatrix type="matrix" values="0 0 0 0 0.447059 0 0 0 0 0.368627 0 0 0 0 0.415686 0 0 0 1 0"/>
<feBlend mode="normal" in2="shape" result="effect1_innerShadow_672_2891"/>
</filter>
<filter id="filter6_f_672_2891" x="5.21582" y="22.6158" width="25.3057" height="32.6967" filterUnits="userSpaceOnUse" color-interpolation-filters="sRGB">
<feFlood flood-opacity="0" result="BackgroundImageFix"/>
<feBlend mode="normal" in="SourceGraphic" in2="BackgroundImageFix" result="shape"/>
<feGaussianBlur stdDeviation="0.46875" result="effect1_foregroundBlur_672_2891"/>
</filter>
<filter id="filter7_f_672_2891" x="27.6562" y="4.33594" width="27.4521" height="35.3066" filterUnits="userSpaceOnUse" color-interpolation-filters="sRGB">
<feFlood flood-opacity="0" result="BackgroundImageFix"/>
<feBlend mode="normal" in="SourceGraphic" in2="BackgroundImageFix" result="shape"/>
<feGaussianBlur stdDeviation="0.703125" result="effect1_foregroundBlur_672_2891"/>
</filter>
<filter id="filter8_f_672_2891" x="51.6143" y="3.80847" width="5.06836" height="6.32825" filterUnits="userSpaceOnUse" color-interpolation-filters="sRGB">
<feFlood flood-opacity="0" result="BackgroundImageFix"/>
<feBlend mode="normal" in="SourceGraphic" in2="BackgroundImageFix" result="shape"/>
<feGaussianBlur stdDeviation="0.234375" result="effect1_foregroundBlur_672_2891"/>
</filter>
<linearGradient id="paint0_linear_672_2891" x1="47.3297" y1="14.0586" x2="56.25" y2="5.70334" gradientUnits="userSpaceOnUse">
<stop stop-color="#E2881C"/>
<stop offset="1" stop-color="#F6C942"/>
</linearGradient>
<radialGradient id="paint1_radial_672_2891" cx="0" cy="0" r="1" gradientUnits="userSpaceOnUse" gradientTransform="translate(46.1816 12.6431) rotate(-32.0054) scale(12.6929 11.6904)">
<stop offset="0.712329" stop-color="#FFEA6A" stop-opacity="0"/>
<stop offset="0.942173" stop-color="#FFEA6A"/>
</radialGradient>
<radialGradient id="paint2_radial_672_2891" cx="0" cy="0" r="1" gradientUnits="userSpaceOnUse" gradientTransform="translate(51.1663 9.02593) rotate(-48.1396) scale(3.75602 3.82549)">
<stop offset="0.614468" stop-color="#C0813E"/>
<stop offset="1" stop-color="#C0813E" stop-opacity="0"/>
</radialGradient>
<radialGradient id="paint3_radial_672_2891" cx="0" cy="0" r="1" gradientUnits="userSpaceOnUse" gradientTransform="translate(52.6459 7.42305) rotate(134.772) scale(8.71457 8.36987)">
<stop offset="0.709501" stop-color="#CA7412" stop-opacity="0"/>
<stop offset="1" stop-color="#CA7412"/>
</radialGradient>
<radialGradient id="paint4_radial_672_2891" cx="0" cy="0" r="1" gradientUnits="userSpaceOnUse" gradientTransform="translate(45.9898 12.539) rotate(-112.148) scale(2.62536 7.31751)">
<stop offset="0.0734402" stop-color="#7C3D03"/>
<stop offset="0.735787" stop-color="#7C3D03" stop-opacity="0"/>
</radialGradient>
<radialGradient id="paint5_radial_672_2891" cx="0" cy="0" r="1" gradientUnits="userSpaceOnUse" gradientTransform="translate(47.6889 15) rotate(-3.98039) scale(1.68864 4.70668)">
<stop offset="0.307476" stop-color="#7C3D03"/>
<stop offset="0.735787" stop-color="#7C3D03" stop-opacity="0"/>
</radialGradient>
<radialGradient id="paint6_radial_672_2891" cx="0" cy="0" r="1" gradientUnits="userSpaceOnUse" gradientTransform="translate(48.9489 11.6602) rotate(-135.277) scale(2.14414 4.97829)">
<stop stop-color="#FFE160"/>
<stop offset="0.787818" stop-color="#F3B535"/>
</radialGradient>
<radialGradient id="paint7_radial_672_2891" cx="0" cy="0" r="1" gradientUnits="userSpaceOnUse" gradientTransform="translate(9.76463 21.9288) rotate(20.7627) scale(34.3744 46.8478)">
<stop stop-color="#B5A7B0"/>
<stop offset="1" stop-color="#DFD2E2"/>
</radialGradient>
<linearGradient id="paint8_linear_672_2891" x1="10.4819" y1="48.3984" x2="45.4039" y2="13.4765" gradientUnits="userSpaceOnUse">
<stop stop-color="#DE8D39"/>
<stop offset="1" stop-color="#EDC14B"/>
</linearGradient>
<radialGradient id="paint9_radial_672_2891" cx="0" cy="0" r="1" gradientUnits="userSpaceOnUse" gradientTransform="translate(8.43696 44.8886) rotate(-29.785) scale(52.9303 41.5211)">
<stop offset="0.873189" stop-color="#FFED6A" stop-opacity="0"/>
<stop offset="1" stop-color="#FFED6A"/>
</radialGradient>
<radialGradient id="paint10_radial_672_2891" cx="0" cy="0" r="1" gradientUnits="userSpaceOnUse" gradientTransform="translate(34.8628 19.2596) rotate(119.722) scale(40.9798 32.4148)">
<stop offset="0.873137" stop-color="#B66635" stop-opacity="0"/>
<stop offset="0.974704" stop-color="#B66635"/>
</radialGradient>
<radialGradient id="paint11_radial_672_2891" cx="0" cy="0" r="1" gradientUnits="userSpaceOnUse" gradientTransform="translate(30.2867 30.1172) rotate(-45.8425) scale(22.5414 23.7514)">
<stop offset="0.862629" stop-color="#B88245"/>
<stop offset="0.939433" stop-color="#B88245" stop-opacity="0"/>
</radialGradient>
<radialGradient id="paint12_radial_672_2891" cx="0" cy="0" r="1" gradientUnits="userSpaceOnUse" gradientTransform="translate(58.2208 30.9375) rotate(180) scale(55.8823 36.8876)">
<stop offset="0.952381" stop-color="#F58D49" stop-opacity="0"/>
<stop offset="1" stop-color="#F58D49"/>
</radialGradient>
<linearGradient id="paint13_linear_672_2891" x1="29.0621" y1="15.0046" x2="29.0621" y2="46.8702" gradientUnits="userSpaceOnUse">
<stop stop-color="#B6ACB7"/>
<stop offset="1" stop-color="#968C98"/>
</linearGradient>
<radialGradient id="paint14_radial_672_2891" cx="0" cy="0" r="1" gradientUnits="userSpaceOnUse" gradientTransform="translate(28.1184 33.9258) rotate(105.642) scale(2.28178 4.19739)">
<stop offset="0.324704" stop-color="#5F4D63"/>
<stop offset="0.983093" stop-color="#5F4D63" stop-opacity="0"/>
</radialGradient>
<linearGradient id="paint15_linear_672_2891" x1="39.6521" y1="29.8684" x2="15.455" y2="29.8684" gradientUnits="userSpaceOnUse">
<stop stop-color="#B6ABB8"/>
<stop offset="1" stop-color="#988E9A"/>
</linearGradient>
<radialGradient id="paint16_radial_672_2891" cx="0" cy="0" r="1" gradientUnits="userSpaceOnUse" gradientTransform="translate(26.9634 31.9339) rotate(159.274) scale(2.9184 2.77318)">
<stop offset="0.573163" stop-color="#5F4D63"/>
<stop offset="1" stop-color="#5F4D63" stop-opacity="0"/>
</radialGradient>
<linearGradient id="paint17_linear_672_2891" x1="36.8153" y1="24.0235" x2="21.9664" y2="39.7266" gradientUnits="userSpaceOnUse">
<stop stop-color="#B6ACB8"/>
<stop offset="1" stop-color="#958B97"/>
</linearGradient>
<radialGradient id="paint18_radial_672_2891" cx="0" cy="0" r="1" gradientUnits="userSpaceOnUse" gradientTransform="translate(26.6091 33.498) rotate(129.144) scale(1.63606 2.49808)">
<stop offset="0.458686" stop-color="#5F4D63"/>
<stop offset="1" stop-color="#5F4D63" stop-opacity="0"/>
</radialGradient>
<linearGradient id="paint19_linear_672_2891" x1="19.6019" y1="22.1295" x2="27.2286" y2="31.0275" gradientUnits="userSpaceOnUse">
<stop stop-color="#E43465"/>
<stop offset="1" stop-color="#E6386A"/>
</linearGradient>
<radialGradient id="paint20_radial_672_2891" cx="0" cy="0" r="1" gradientUnits="userSpaceOnUse" gradientTransform="translate(32.5127 28.7545) rotate(137.291) scale(8.71661 9.08771)">
<stop stop-color="#C0BCBF"/>
<stop offset="1" stop-color="#856F79"/>
</radialGradient>
<linearGradient id="paint21_linear_672_2891" x1="4.62277" y1="27.6562" x2="25.7166" y2="54.1993" gradientUnits="userSpaceOnUse">
<stop stop-color="#FFBD6A" stop-opacity="0"/>
<stop offset="0.516456" stop-color="#FFBD6A"/>
<stop offset="1" stop-color="#FFBD6A" stop-opacity="0"/>
</linearGradient>
<linearGradient id="paint22_linear_672_2891" x1="58.8036" y1="34.4147" x2="35.9466" y2="3.85399" gradientUnits="userSpaceOnUse">
<stop stop-color="#FFE55A" stop-opacity="0"/>
<stop offset="0.314667" stop-color="#FFE55A"/>
<stop offset="0.672089" stop-color="#FFE55A"/>
<stop offset="1" stop-color="#FFE55A" stop-opacity="0"/>
</linearGradient>
<linearGradient id="paint23_linear_672_2891" x1="52.2296" y1="4.74609" x2="56.0674" y2="8.75976" gradientUnits="userSpaceOnUse">
<stop stop-color="#FFE967" stop-opacity="0"/>
<stop offset="0.463542" stop-color="#FFE967"/>
<stop offset="1" stop-color="#FFE967" stop-opacity="0"/>
</linearGradient>
</defs>
</svg>
