<svg width="60" height="60" viewBox="0 0 60 60" fill="none" xmlns="http://www.w3.org/2000/svg">
<path d="M23.5411 16.7537C26.4224 12.2585 28.1277 8.10702 29.0176 5.17201C29.3587 4.04712 30.7992 3.58634 31.6542 4.39281C44.5402 16.5451 48.7518 25.823 49.5922 36.5454C50.2074 46.9166 45.1098 56.1451 31.4281 56.1451C18.583 56.1451 9.10375 47.1802 10.3928 32.9712C11.1631 24.4794 14.4644 18.0102 17.1038 14.1592C17.9253 12.9607 19.6366 12.9433 20.5833 14.0456L22.9441 16.7948C23.1069 16.9843 23.4063 16.9639 23.5411 16.7537Z" fill="url(#paint0_radial_669_2013)"/>
<path d="M23.5411 16.7537C26.4224 12.2585 28.1277 8.10702 29.0176 5.17201C29.3587 4.04712 30.7992 3.58634 31.6542 4.39281C44.5402 16.5451 48.7518 25.823 49.5922 36.5454C50.2074 46.9166 45.1098 56.1451 31.4281 56.1451C18.583 56.1451 9.10375 47.1802 10.3928 32.9712C11.1631 24.4794 14.4644 18.0102 17.1038 14.1592C17.9253 12.9607 19.6366 12.9433 20.5833 14.0456L22.9441 16.7948C23.1069 16.9843 23.4063 16.9639 23.5411 16.7537Z" fill="url(#paint1_radial_669_2013)"/>
<path d="M23.5411 16.7537C26.4224 12.2585 28.1277 8.10702 29.0176 5.17201C29.3587 4.04712 30.7992 3.58634 31.6542 4.39281C44.5402 16.5451 48.7518 25.823 49.5922 36.5454C50.2074 46.9166 45.1098 56.1451 31.4281 56.1451C18.583 56.1451 9.10375 47.1802 10.3928 32.9712C11.1631 24.4794 14.4644 18.0102 17.1038 14.1592C17.9253 12.9607 19.6366 12.9433 20.5833 14.0456L22.9441 16.7948C23.1069 16.9843 23.4063 16.9639 23.5411 16.7537Z" fill="url(#paint2_linear_669_2013)"/>
<path d="M23.5411 16.7537C26.4224 12.2585 28.1277 8.10702 29.0176 5.17201C29.3587 4.04712 30.7992 3.58634 31.6542 4.39281C44.5402 16.5451 48.7518 25.823 49.5922 36.5454C50.2074 46.9166 45.1098 56.1451 31.4281 56.1451C18.583 56.1451 9.10375 47.1802 10.3928 32.9712C11.1631 24.4794 14.4644 18.0102 17.1038 14.1592C17.9253 12.9607 19.6366 12.9433 20.5833 14.0456L22.9441 16.7948C23.1069 16.9843 23.4063 16.9639 23.5411 16.7537Z" fill="url(#paint3_radial_669_2013)"/>
<path d="M23.5411 16.7537C26.4224 12.2585 28.1277 8.10702 29.0176 5.17201C29.3587 4.04712 30.7992 3.58634 31.6542 4.39281C44.5402 16.5451 48.7518 25.823 49.5922 36.5454C50.2074 46.9166 45.1098 56.1451 31.4281 56.1451C18.583 56.1451 9.10375 47.1802 10.3928 32.9712C11.1631 24.4794 14.4644 18.0102 17.1038 14.1592C17.9253 12.9607 19.6366 12.9433 20.5833 14.0456L22.9441 16.7948C23.1069 16.9843 23.4063 16.9639 23.5411 16.7537Z" fill="url(#paint4_radial_669_2013)"/>
<path d="M23.5411 16.7537C26.4224 12.2585 28.1277 8.10702 29.0176 5.17201C29.3587 4.04712 30.7992 3.58634 31.6542 4.39281C44.5402 16.5451 48.7518 25.823 49.5922 36.5454C50.2074 46.9166 45.1098 56.1451 31.4281 56.1451C18.583 56.1451 9.10375 47.1802 10.3928 32.9712C11.1631 24.4794 14.4644 18.0102 17.1038 14.1592C17.9253 12.9607 19.6366 12.9433 20.5833 14.0456L22.9441 16.7948C23.1069 16.9843 23.4063 16.9639 23.5411 16.7537Z" fill="url(#paint5_radial_669_2013)"/>
<path d="M23.5411 16.7537C26.4224 12.2585 28.1277 8.10702 29.0176 5.17201C29.3587 4.04712 30.7992 3.58634 31.6542 4.39281C44.5402 16.5451 48.7518 25.823 49.5922 36.5454C50.2074 46.9166 45.1098 56.1451 31.4281 56.1451C18.583 56.1451 9.10375 47.1802 10.3928 32.9712C11.1631 24.4794 14.4644 18.0102 17.1038 14.1592C17.9253 12.9607 19.6366 12.9433 20.5833 14.0456L22.9441 16.7948C23.1069 16.9843 23.4063 16.9639 23.5411 16.7537Z" fill="url(#paint6_radial_669_2013)"/>
<path d="M23.5411 16.7537C26.4224 12.2585 28.1277 8.10702 29.0176 5.17201C29.3587 4.04712 30.7992 3.58634 31.6542 4.39281C44.5402 16.5451 48.7518 25.823 49.5922 36.5454C50.2074 46.9166 45.1098 56.1451 31.4281 56.1451C18.583 56.1451 9.10375 47.1802 10.3928 32.9712C11.1631 24.4794 14.4644 18.0102 17.1038 14.1592C17.9253 12.9607 19.6366 12.9433 20.5833 14.0456L22.9441 16.7948C23.1069 16.9843 23.4063 16.9639 23.5411 16.7537Z" fill="url(#paint7_radial_669_2013)"/>
<g filter="url(#filter0_i_669_2013)">
<path d="M19.0836 37.2692C21.5254 31.458 26.5359 25.0275 29.9196 21.5391C30.8756 20.5534 32.421 20.5357 33.4309 21.4663C39.9206 27.4457 41.8742 32.8513 43.5321 39.1442C45.2567 45.6911 43.5321 56.2399 30.5541 56.2399C19.3778 56.2399 15.506 45.7826 19.0836 37.2692Z" fill="url(#paint8_radial_669_2013)"/>
<path d="M19.0836 37.2692C21.5254 31.458 26.5359 25.0275 29.9196 21.5391C30.8756 20.5534 32.421 20.5357 33.4309 21.4663C39.9206 27.4457 41.8742 32.8513 43.5321 39.1442C45.2567 45.6911 43.5321 56.2399 30.5541 56.2399C19.3778 56.2399 15.506 45.7826 19.0836 37.2692Z" fill="url(#paint9_radial_669_2013)"/>
<path d="M19.0836 37.2692C21.5254 31.458 26.5359 25.0275 29.9196 21.5391C30.8756 20.5534 32.421 20.5357 33.4309 21.4663C39.9206 27.4457 41.8742 32.8513 43.5321 39.1442C45.2567 45.6911 43.5321 56.2399 30.5541 56.2399C19.3778 56.2399 15.506 45.7826 19.0836 37.2692Z" fill="url(#paint10_radial_669_2013)"/>
</g>
<path d="M19.0836 37.2692C21.5254 31.458 26.5359 25.0275 29.9196 21.5391C30.8756 20.5534 32.421 20.5357 33.4309 21.4663C39.9206 27.4457 41.8742 32.8513 43.5321 39.1442C45.2567 45.6911 43.5321 56.2399 30.5541 56.2399C19.3778 56.2399 15.506 45.7826 19.0836 37.2692Z" fill="url(#paint11_linear_669_2013)"/>
<path d="M19.0836 37.2692C21.5254 31.458 26.5359 25.0275 29.9196 21.5391C30.8756 20.5534 32.421 20.5357 33.4309 21.4663C39.9206 27.4457 41.8742 32.8513 43.5321 39.1442C45.2567 45.6911 43.5321 56.2399 30.5541 56.2399C19.3778 56.2399 15.506 45.7826 19.0836 37.2692Z" fill="url(#paint12_radial_669_2013)"/>
<g filter="url(#filter1_f_669_2013)">
<path d="M22.1507 21.6343C26.4921 15.278 29.0308 8.40227 29.8062 6.70557C28.6755 15.3958 25.3808 21.7584 19.1788 29.9519C14.2173 36.5069 13.3214 42.1184 13.3645 43.484C11.814 33.0558 16.7239 29.5796 22.1507 21.6343Z" fill="url(#paint13_linear_669_2013)"/>
</g>
<g filter="url(#filter2_f_669_2013)">
<path d="M18.4004 14.7642C15.9628 17.7898 11.1176 26.1821 11.2375 35.5466C13.6402 25.9421 19.2545 22.9153 18.4004 14.7642Z" fill="url(#paint14_linear_669_2013)"/>
</g>
<defs>
<filter id="filter0_i_669_2013" x="17.793" y="20.7837" width="27.2354" height="35.4561" filterUnits="userSpaceOnUse" color-interpolation-filters="sRGB">
<feFlood flood-opacity="0" result="BackgroundImageFix"/>
<feBlend mode="normal" in="SourceGraphic" in2="BackgroundImageFix" result="shape"/>
<feColorMatrix in="SourceAlpha" type="matrix" values="0 0 0 0 0 0 0 0 0 0 0 0 0 0 0 0 0 0 127 0" result="hardAlpha"/>
<feOffset dx="0.9375"/>
<feGaussianBlur stdDeviation="0.46875"/>
<feComposite in2="hardAlpha" operator="arithmetic" k2="-1" k3="1"/>
<feColorMatrix type="matrix" values="0 0 0 0 0.952941 0 0 0 0 0.615686 0 0 0 0 0.364706 0 0 0 1 0"/>
<feBlend mode="normal" in2="shape" result="effect1_innerShadow_669_2013"/>
</filter>
<filter id="filter1_f_669_2013" x="10.7305" y="4.36182" width="21.4189" height="41.4658" filterUnits="userSpaceOnUse" color-interpolation-filters="sRGB">
<feFlood flood-opacity="0" result="BackgroundImageFix"/>
<feBlend mode="normal" in="SourceGraphic" in2="BackgroundImageFix" result="shape"/>
<feGaussianBlur stdDeviation="1.17188" result="effect1_foregroundBlur_669_2013"/>
</filter>
<filter id="filter2_f_669_2013" x="8.42285" y="11.9517" width="12.8779" height="26.4072" filterUnits="userSpaceOnUse" color-interpolation-filters="sRGB">
<feFlood flood-opacity="0" result="BackgroundImageFix"/>
<feBlend mode="normal" in="SourceGraphic" in2="BackgroundImageFix" result="shape"/>
<feGaussianBlur stdDeviation="1.40625" result="effect1_foregroundBlur_669_2013"/>
</filter>
<radialGradient id="paint0_radial_669_2013" cx="0" cy="0" r="1" gradientUnits="userSpaceOnUse" gradientTransform="translate(45.0041 36.9751) rotate(-179.474) scale(32.0603 48.3489)">
<stop stop-color="#FF953D"/>
<stop offset="1" stop-color="#FF5141"/>
</radialGradient>
<radialGradient id="paint1_radial_669_2013" cx="0" cy="0" r="1" gradientUnits="userSpaceOnUse" gradientTransform="translate(19.448 29.3531) rotate(-157.937) scale(19.3952 33.4678)">
<stop stop-color="#CE5327"/>
<stop offset="1" stop-color="#CE5327" stop-opacity="0"/>
</radialGradient>
<linearGradient id="paint2_linear_669_2013" x1="34.3805" y1="56.1451" x2="34.3805" y2="46.5854" gradientUnits="userSpaceOnUse">
<stop stop-color="#FF7583"/>
<stop offset="1" stop-color="#FF7583" stop-opacity="0"/>
</linearGradient>
<radialGradient id="paint3_radial_669_2013" cx="0" cy="0" r="1" gradientUnits="userSpaceOnUse" gradientTransform="translate(9.29445 26.984) rotate(24.0149) scale(5.82122 48.1858)">
<stop stop-color="#FFAA7B"/>
<stop offset="1" stop-color="#FFAA7B" stop-opacity="0"/>
</radialGradient>
<radialGradient id="paint4_radial_669_2013" cx="0" cy="0" r="1" gradientUnits="userSpaceOnUse" gradientTransform="translate(17.4566 11.7207) rotate(77.3196) scale(7.20066 8.98476)">
<stop stop-color="#FF5E47"/>
<stop offset="1" stop-color="#FF5E47" stop-opacity="0"/>
</radialGradient>
<radialGradient id="paint5_radial_669_2013" cx="0" cy="0" r="1" gradientUnits="userSpaceOnUse" gradientTransform="translate(30.8041 2.56107) rotate(87.8819) scale(19.0076 17.5935)">
<stop stop-color="#FF2F3C"/>
<stop offset="1" stop-color="#FF2F3C" stop-opacity="0"/>
</radialGradient>
<radialGradient id="paint6_radial_669_2013" cx="0" cy="0" r="1" gradientUnits="userSpaceOnUse" gradientTransform="translate(26.0622 8.99845) rotate(25.3285) scale(4.31053 8.65035)">
<stop stop-color="#FF846C"/>
<stop offset="1" stop-color="#FF846C" stop-opacity="0"/>
</radialGradient>
<radialGradient id="paint7_radial_669_2013" cx="0" cy="0" r="1" gradientUnits="userSpaceOnUse" gradientTransform="translate(23.3579 15.3931) rotate(113.224) scale(4.27194 0.978968)">
<stop stop-color="#FFA682"/>
<stop offset="1" stop-color="#FFA682" stop-opacity="0"/>
</radialGradient>
<radialGradient id="paint8_radial_669_2013" cx="0" cy="0" r="1" gradientUnits="userSpaceOnUse" gradientTransform="translate(39.7581 45.7054) rotate(-168.558) scale(18.8046 23.4171)">
<stop stop-color="#FFDA2F"/>
<stop offset="1" stop-color="#FF8E41"/>
</radialGradient>
<radialGradient id="paint9_radial_669_2013" cx="0" cy="0" r="1" gradientUnits="userSpaceOnUse" gradientTransform="translate(23.2519 16.1112) rotate(69.0442) scale(26.5172 23.0398)">
<stop stop-color="#FD5639"/>
<stop offset="1" stop-color="#FE5533" stop-opacity="0"/>
</radialGradient>
<radialGradient id="paint10_radial_669_2013" cx="0" cy="0" r="1" gradientUnits="userSpaceOnUse" gradientTransform="translate(36.0726 38.6792) rotate(174.239) scale(18.3725 44.9839)">
<stop offset="0.627719" stop-color="#D7812D" stop-opacity="0"/>
<stop offset="1" stop-color="#D7812D"/>
</radialGradient>
<linearGradient id="paint11_linear_669_2013" x1="30.9418" y1="19.8979" x2="30.9418" y2="26.7366" gradientUnits="userSpaceOnUse">
<stop stop-color="#F95131"/>
<stop offset="1" stop-color="#F95131" stop-opacity="0"/>
</linearGradient>
<radialGradient id="paint12_radial_669_2013" cx="0" cy="0" r="1" gradientUnits="userSpaceOnUse" gradientTransform="translate(43.0976 35.2543) rotate(143.063) scale(30.1024 21.7826)">
<stop offset="0.772305" stop-color="#F18A52" stop-opacity="0"/>
<stop offset="1" stop-color="#F18A52"/>
</radialGradient>
<linearGradient id="paint13_linear_669_2013" x1="28.117" y1="7.97807" x2="14.3541" y2="42.6219" gradientUnits="userSpaceOnUse">
<stop stop-color="#FF7558"/>
<stop offset="1" stop-color="#F38758"/>
</linearGradient>
<linearGradient id="paint14_linear_669_2013" x1="17.8891" y1="15.2695" x2="10.4662" y2="36.5237" gradientUnits="userSpaceOnUse">
<stop stop-color="#FF815B"/>
<stop offset="1" stop-color="#FF9C6D"/>
</linearGradient>
</defs>
</svg>
