<svg width="60" height="60" viewBox="0 0 60 60" fill="none" xmlns="http://www.w3.org/2000/svg">
<g filter="url(#filter0_iiii_670_2321)">
<path d="M54.6914 9.31641H5.42578C4.59735 9.31641 3.92578 9.98798 3.92578 10.8164V49.1249C3.92578 49.9533 4.59735 50.6249 5.42578 50.6249H54.6914C55.5198 50.6249 56.1914 49.9533 56.1914 49.1249V10.8164C56.1914 9.98798 55.5198 9.31641 54.6914 9.31641Z" fill="#5E4F86"/>
</g>
<g filter="url(#filter1_f_670_2321)">
<path d="M4.83691 41.2208V18.7793H11.19C12.9871 18.7793 14.4441 20.3744 14.4441 22.3418V37.6583C14.4441 39.6257 12.9871 41.2208 11.19 41.2208H4.83691Z" stroke="#463875" stroke-width="1.21875"/>
<path d="M4.83691 41.2208V18.7793H11.19C12.9871 18.7793 14.4441 20.3744 14.4441 22.3418V37.6583C14.4441 39.6257 12.9871 41.2208 11.19 41.2208H4.83691Z" stroke="url(#paint0_linear_670_2321)" stroke-width="1.21875"/>
</g>
<g filter="url(#filter2_f_670_2321)">
<path d="M55.3093 18.7793V41.2208H48.9375C47.135 41.2208 45.6738 39.6257 45.6738 37.6583V22.3418C45.6738 20.3744 47.135 18.7793 48.9375 18.7793H55.3093Z" stroke="#463875" stroke-width="1.21875"/>
<path d="M55.3093 18.7793V41.2208H48.9375C47.135 41.2208 45.6738 39.6257 45.6738 37.6583V22.3418C45.6738 20.3744 47.135 18.7793 48.9375 18.7793H55.3093Z" stroke="url(#paint1_linear_670_2321)" stroke-width="1.21875"/>
</g>
<g filter="url(#filter3_f_670_2321)">
<path d="M18.6475 22.3418C18.6475 20.3744 20.2425 18.7793 22.2099 18.7793H37.7901C39.7575 18.7793 41.3526 20.3744 41.3526 22.3418V37.6583C41.3526 39.6257 39.7575 41.2208 37.7901 41.2208H22.2099C20.2425 41.2208 18.6475 39.6257 18.6475 37.6583V22.3418Z" stroke="#463875" stroke-width="1.21875"/>
<path d="M18.6475 22.3418C18.6475 20.3744 20.2425 18.7793 22.2099 18.7793H37.7901C39.7575 18.7793 41.3526 20.3744 41.3526 22.3418V37.6583C41.3526 39.6257 39.7575 41.2208 37.7901 41.2208H22.2099C20.2425 41.2208 18.6475 39.6257 18.6475 37.6583V22.3418Z" stroke="url(#paint2_linear_670_2321)" stroke-width="1.21875"/>
</g>
<g filter="url(#filter4_i_670_2321)">
<path d="M56.1915 18.7793V41.2208H49.2363C47.2687 41.2208 45.6738 39.6257 45.6738 37.6583V22.3418C45.6738 20.3744 47.2687 18.7793 49.2363 18.7793H56.1915Z" fill="#7BBEE4"/>
</g>
<path d="M56.1915 18.7793V41.2208H49.2363C47.2687 41.2208 45.6738 39.6257 45.6738 37.6583V22.3418C45.6738 20.3744 47.2687 18.7793 49.2363 18.7793H56.1915Z" fill="url(#paint3_linear_670_2321)"/>
<g filter="url(#filter5_i_670_2321)">
<path d="M18.6475 22.3418C18.6475 20.3744 20.2425 18.7793 22.2099 18.7793H37.7901C39.7575 18.7793 41.3526 20.3744 41.3526 22.3418V37.6583C41.3526 39.6257 39.7575 41.2208 37.7901 41.2208H22.2099C20.2425 41.2208 18.6475 39.6257 18.6475 37.6583V22.3418Z" fill="#7BBEE4"/>
</g>
<g filter="url(#filter6_i_670_2321)">
<path d="M3.92578 41.2208V18.7793H10.8809C12.8484 18.7793 14.4434 20.3744 14.4434 22.3418V37.6583C14.4434 39.6257 12.8484 41.2208 10.8809 41.2208H3.92578Z" fill="#7BBEE4"/>
</g>
<g filter="url(#filter7_f_670_2321)">
<path d="M7.61719 12.6709C7.61719 12.412 7.82706 12.2021 8.08594 12.2021H10.9863C11.2452 12.2021 11.4551 12.412 11.4551 12.6709V15.5713C11.4551 15.8302 11.2452 16.04 10.9863 16.04H8.08594C7.82706 16.04 7.61719 15.8302 7.61719 15.5713V12.6709Z" stroke="#43346D" stroke-width="1.125"/>
<path d="M7.61719 12.6709C7.61719 12.412 7.82706 12.2021 8.08594 12.2021H10.9863C11.2452 12.2021 11.4551 12.412 11.4551 12.6709V15.5713C11.4551 15.8302 11.2452 16.04 10.9863 16.04H8.08594C7.82706 16.04 7.61719 15.8302 7.61719 15.5713V12.6709Z" stroke="url(#paint4_linear_670_2321)" stroke-width="1.125"/>
</g>
<g filter="url(#filter8_f_670_2321)">
<path d="M7.61719 12.6709C7.61719 12.412 7.82706 12.2021 8.08594 12.2021H10.9863C11.2452 12.2021 11.4551 12.412 11.4551 12.6709V15.5713C11.4551 15.8302 11.2452 16.04 10.9863 16.04H8.08594C7.82706 16.04 7.61719 15.8302 7.61719 15.5713V12.6709Z" stroke="#422E6F" stroke-width="0.1875"/>
</g>
<g filter="url(#filter9_f_670_2321)">
<path d="M17.8711 12.6709C17.8711 12.412 18.081 12.2021 18.3398 12.2021H21.2402C21.4991 12.2021 21.7089 12.412 21.7089 12.6709V15.5713C21.7089 15.8302 21.4991 16.04 21.2402 16.04H18.3398C18.081 16.04 17.8711 15.8302 17.8711 15.5713V12.6709Z" stroke="#43346D" stroke-width="1.125"/>
<path d="M17.8711 12.6709C17.8711 12.412 18.081 12.2021 18.3398 12.2021H21.2402C21.4991 12.2021 21.7089 12.412 21.7089 12.6709V15.5713C21.7089 15.8302 21.4991 16.04 21.2402 16.04H18.3398C18.081 16.04 17.8711 15.8302 17.8711 15.5713V12.6709Z" stroke="url(#paint5_linear_670_2321)" stroke-width="1.125"/>
</g>
<g filter="url(#filter10_f_670_2321)">
<path d="M17.8711 12.6709C17.8711 12.412 18.081 12.2021 18.3398 12.2021H21.2402C21.4991 12.2021 21.7089 12.412 21.7089 12.6709V15.5713C21.7089 15.8302 21.4991 16.04 21.2402 16.04H18.3398C18.081 16.04 17.8711 15.8302 17.8711 15.5713V12.6709Z" stroke="#422E6F" stroke-width="0.1875"/>
</g>
<g filter="url(#filter11_f_670_2321)">
<path d="M28.1396 12.6709C28.1396 12.412 28.3495 12.2021 28.6084 12.2021H31.5088C31.7678 12.2021 31.9776 12.412 31.9776 12.6709V15.5713C31.9776 15.8302 31.7678 16.04 31.5088 16.04H28.6084C28.3495 16.04 28.1396 15.8302 28.1396 15.5713V12.6709Z" stroke="#43346D" stroke-width="1.125"/>
<path d="M28.1396 12.6709C28.1396 12.412 28.3495 12.2021 28.6084 12.2021H31.5088C31.7678 12.2021 31.9776 12.412 31.9776 12.6709V15.5713C31.9776 15.8302 31.7678 16.04 31.5088 16.04H28.6084C28.3495 16.04 28.1396 15.8302 28.1396 15.5713V12.6709Z" stroke="url(#paint6_linear_670_2321)" stroke-width="1.125"/>
</g>
<g filter="url(#filter12_f_670_2321)">
<path d="M28.1396 12.6709C28.1396 12.412 28.3495 12.2021 28.6084 12.2021H31.5088C31.7678 12.2021 31.9776 12.412 31.9776 12.6709V15.5713C31.9776 15.8302 31.7678 16.04 31.5088 16.04H28.6084C28.3495 16.04 28.1396 15.8302 28.1396 15.5713V12.6709Z" stroke="#422E6F" stroke-width="0.1875"/>
</g>
<g filter="url(#filter13_f_670_2321)">
<path d="M38.3789 12.6709C38.3789 12.412 38.5887 12.2021 38.8477 12.2021H41.7479C42.0068 12.2021 42.2167 12.412 42.2167 12.6709V15.5713C42.2167 15.8302 42.0068 16.04 41.7479 16.04H38.8477C38.5887 16.04 38.3789 15.8302 38.3789 15.5713V12.6709Z" stroke="#43346D" stroke-width="1.125"/>
<path d="M38.3789 12.6709C38.3789 12.412 38.5887 12.2021 38.8477 12.2021H41.7479C42.0068 12.2021 42.2167 12.412 42.2167 12.6709V15.5713C42.2167 15.8302 42.0068 16.04 41.7479 16.04H38.8477C38.5887 16.04 38.3789 15.8302 38.3789 15.5713V12.6709Z" stroke="url(#paint7_linear_670_2321)" stroke-width="1.125"/>
</g>
<g filter="url(#filter14_f_670_2321)">
<path d="M38.3789 12.6709C38.3789 12.412 38.5887 12.2021 38.8477 12.2021H41.7479C42.0068 12.2021 42.2167 12.412 42.2167 12.6709V15.5713C42.2167 15.8302 42.0068 16.04 41.7479 16.04H38.8477C38.5887 16.04 38.3789 15.8302 38.3789 15.5713V12.6709Z" stroke="#422E6F" stroke-width="0.1875"/>
</g>
<g filter="url(#filter15_f_670_2321)">
<path d="M48.6328 12.6709C48.6328 12.412 48.8426 12.2021 49.1016 12.2021H52.002C52.2607 12.2021 52.4707 12.412 52.4707 12.6709V15.5713C52.4707 15.8302 52.2607 16.04 52.002 16.04H49.1016C48.8426 16.04 48.6328 15.8302 48.6328 15.5713V12.6709Z" stroke="#43346D" stroke-width="1.125"/>
<path d="M48.6328 12.6709C48.6328 12.412 48.8426 12.2021 49.1016 12.2021H52.002C52.2607 12.2021 52.4707 12.412 52.4707 12.6709V15.5713C52.4707 15.8302 52.2607 16.04 52.002 16.04H49.1016C48.8426 16.04 48.6328 15.8302 48.6328 15.5713V12.6709Z" stroke="url(#paint8_linear_670_2321)" stroke-width="1.125"/>
</g>
<g filter="url(#filter16_f_670_2321)">
<path d="M48.6328 12.6709C48.6328 12.412 48.8426 12.2021 49.1016 12.2021H52.002C52.2607 12.2021 52.4707 12.412 52.4707 12.6709V15.5713C52.4707 15.8302 52.2607 16.04 52.002 16.04H49.1016C48.8426 16.04 48.6328 15.8302 48.6328 15.5713V12.6709Z" stroke="#422E6F" stroke-width="0.1875"/>
</g>
<g filter="url(#filter17_f_670_2321)">
<path d="M7.61719 44.4287C7.61719 44.1698 7.82706 43.96 8.08594 43.96H10.9863C11.2452 43.96 11.4551 44.1698 11.4551 44.4287V47.3292C11.4551 47.5881 11.2452 47.7979 10.9863 47.7979H8.08594C7.82706 47.7979 7.61719 47.5881 7.61719 47.3292V44.4287Z" stroke="#43346D" stroke-width="1.125"/>
<path d="M7.61719 44.4287C7.61719 44.1698 7.82706 43.96 8.08594 43.96H10.9863C11.2452 43.96 11.4551 44.1698 11.4551 44.4287V47.3292C11.4551 47.5881 11.2452 47.7979 10.9863 47.7979H8.08594C7.82706 47.7979 7.61719 47.5881 7.61719 47.3292V44.4287Z" stroke="url(#paint9_linear_670_2321)" stroke-width="1.125"/>
</g>
<g filter="url(#filter18_f_670_2321)">
<path d="M17.8711 44.4287C17.8711 44.1698 18.081 43.96 18.3398 43.96H21.2402C21.4991 43.96 21.7089 44.1698 21.7089 44.4287V47.3292C21.7089 47.5881 21.4991 47.7979 21.2402 47.7979H18.3398C18.081 47.7979 17.8711 47.5881 17.8711 47.3292V44.4287Z" stroke="#43346D" stroke-width="1.125"/>
<path d="M17.8711 44.4287C17.8711 44.1698 18.081 43.96 18.3398 43.96H21.2402C21.4991 43.96 21.7089 44.1698 21.7089 44.4287V47.3292C21.7089 47.5881 21.4991 47.7979 21.2402 47.7979H18.3398C18.081 47.7979 17.8711 47.5881 17.8711 47.3292V44.4287Z" stroke="url(#paint10_linear_670_2321)" stroke-width="1.125"/>
</g>
<g filter="url(#filter19_f_670_2321)">
<path d="M28.125 44.4287C28.125 44.1698 28.3348 43.96 28.5938 43.96H31.4942C31.7529 43.96 31.9629 44.1698 31.9629 44.4287V47.3292C31.9629 47.5881 31.7529 47.7979 31.4942 47.7979H28.5938C28.3348 47.7979 28.125 47.5881 28.125 47.3292V44.4287Z" stroke="#43346D" stroke-width="1.125"/>
<path d="M28.125 44.4287C28.125 44.1698 28.3348 43.96 28.5938 43.96H31.4942C31.7529 43.96 31.9629 44.1698 31.9629 44.4287V47.3292C31.9629 47.5881 31.7529 47.7979 31.4942 47.7979H28.5938C28.3348 47.7979 28.125 47.5881 28.125 47.3292V44.4287Z" stroke="url(#paint11_linear_670_2321)" stroke-width="1.125"/>
</g>
<g filter="url(#filter20_f_670_2321)">
<path d="M38.3789 44.4287C38.3789 44.1698 38.5887 43.96 38.8477 43.96H41.7479C42.0068 43.96 42.2167 44.1698 42.2167 44.4287V47.3292C42.2167 47.5881 42.0068 47.7979 41.7479 47.7979H38.8477C38.5887 47.7979 38.3789 47.5881 38.3789 47.3292V44.4287Z" stroke="#43346D" stroke-width="1.125"/>
<path d="M38.3789 44.4287C38.3789 44.1698 38.5887 43.96 38.8477 43.96H41.7479C42.0068 43.96 42.2167 44.1698 42.2167 44.4287V47.3292C42.2167 47.5881 42.0068 47.7979 41.7479 47.7979H38.8477C38.5887 47.7979 38.3789 47.5881 38.3789 47.3292V44.4287Z" stroke="url(#paint12_linear_670_2321)" stroke-width="1.125"/>
</g>
<g filter="url(#filter21_f_670_2321)">
<path d="M48.6328 44.4287C48.6328 44.1698 48.8426 43.96 49.1016 43.96H52.002C52.2607 43.96 52.4707 44.1698 52.4707 44.4287V47.3292C52.4707 47.5881 52.2607 47.7979 52.002 47.7979H49.1016C48.8426 47.7979 48.6328 47.5881 48.6328 47.3292V44.4287Z" stroke="#43346D" stroke-width="1.125"/>
<path d="M48.6328 44.4287C48.6328 44.1698 48.8426 43.96 49.1016 43.96H52.002C52.2607 43.96 52.4707 44.1698 52.4707 44.4287V47.3292C52.4707 47.5881 52.2607 47.7979 52.002 47.7979H49.1016C48.8426 47.7979 48.6328 47.5881 48.6328 47.3292V44.4287Z" stroke="url(#paint13_linear_670_2321)" stroke-width="1.125"/>
</g>
<path d="M7.61719 12.6709C7.61719 12.412 7.82706 12.2021 8.08594 12.2021H10.9863C11.2452 12.2021 11.4551 12.412 11.4551 12.6709V15.5713C11.4551 15.8302 11.2452 16.04 10.9863 16.04H8.08594C7.82706 16.04 7.61719 15.8302 7.61719 15.5713V12.6709Z" fill="#E5E5E5"/>
<path d="M17.8711 12.6709C17.8711 12.412 18.081 12.2021 18.3398 12.2021H21.2402C21.4991 12.2021 21.7089 12.412 21.7089 12.6709V15.5713C21.7089 15.8302 21.4991 16.04 21.2402 16.04H18.3398C18.081 16.04 17.8711 15.8302 17.8711 15.5713V12.6709Z" fill="#E5E5E5"/>
<path d="M28.125 12.6709C28.125 12.412 28.3348 12.2021 28.5938 12.2021H31.4942C31.7529 12.2021 31.9629 12.412 31.9629 12.6709V15.5713C31.9629 15.8302 31.7529 16.04 31.4942 16.04H28.5938C28.3348 16.04 28.125 15.8302 28.125 15.5713V12.6709Z" fill="#E5E5E5"/>
<path d="M38.3789 12.6709C38.3789 12.412 38.5887 12.2021 38.8477 12.2021H41.7479C42.0068 12.2021 42.2167 12.412 42.2167 12.6709V15.5713C42.2167 15.8302 42.0068 16.04 41.7479 16.04H38.8477C38.5887 16.04 38.3789 15.8302 38.3789 15.5713V12.6709Z" fill="#E5E5E5"/>
<path d="M48.6328 12.6709C48.6328 12.412 48.8426 12.2021 49.1016 12.2021H52.002C52.2607 12.2021 52.4707 12.412 52.4707 12.6709V15.5713C52.4707 15.8302 52.2607 16.04 52.002 16.04H49.1016C48.8426 16.04 48.6328 15.8302 48.6328 15.5713V12.6709Z" fill="#E5E5E5"/>
<g filter="url(#filter22_f_670_2321)">
<path d="M7.61719 44.4287C7.61719 44.1698 7.82706 43.96 8.08594 43.96H10.9863C11.2452 43.96 11.4551 44.1698 11.4551 44.4287V47.3292C11.4551 47.5881 11.2452 47.7979 10.9863 47.7979H8.08594C7.82706 47.7979 7.61719 47.5881 7.61719 47.3292V44.4287Z" stroke="#422E6F" stroke-width="0.1875"/>
</g>
<g filter="url(#filter23_f_670_2321)">
<path d="M17.8711 44.4287C17.8711 44.1698 18.081 43.96 18.3398 43.96H21.2402C21.4991 43.96 21.7089 44.1698 21.7089 44.4287V47.3292C21.7089 47.5881 21.4991 47.7979 21.2402 47.7979H18.3398C18.081 47.7979 17.8711 47.5881 17.8711 47.3292V44.4287Z" stroke="#422E6F" stroke-width="0.1875"/>
</g>
<g filter="url(#filter24_f_670_2321)">
<path d="M28.1396 44.4287C28.1396 44.1698 28.3495 43.96 28.6084 43.96H31.5088C31.7678 43.96 31.9776 44.1698 31.9776 44.4287V47.3292C31.9776 47.5881 31.7678 47.7979 31.5088 47.7979H28.6084C28.3495 47.7979 28.1396 47.5881 28.1396 47.3292V44.4287Z" stroke="#422E6F" stroke-width="0.1875"/>
</g>
<g filter="url(#filter25_f_670_2321)">
<path d="M38.3789 44.4287C38.3789 44.1698 38.5887 43.96 38.8477 43.96H41.7479C42.0068 43.96 42.2167 44.1698 42.2167 44.4287V47.3292C42.2167 47.5881 42.0068 47.7979 41.7479 47.7979H38.8477C38.5887 47.7979 38.3789 47.5881 38.3789 47.3292V44.4287Z" stroke="#422E6F" stroke-width="0.1875"/>
</g>
<g filter="url(#filter26_f_670_2321)">
<path d="M48.6328 44.4287C48.6328 44.1698 48.8426 43.96 49.1016 43.96H52.002C52.2607 43.96 52.4707 44.1698 52.4707 44.4287V47.3292C52.4707 47.5881 52.2607 47.7979 52.002 47.7979H49.1016C48.8426 47.7979 48.6328 47.5881 48.6328 47.3292V44.4287Z" stroke="#422E6F" stroke-width="0.1875"/>
</g>
<path d="M7.61719 44.4287C7.61719 44.1698 7.82706 43.96 8.08594 43.96H10.9863C11.2452 43.96 11.4551 44.1698 11.4551 44.4287V47.3292C11.4551 47.5881 11.2452 47.7979 10.9863 47.7979H8.08594C7.82706 47.7979 7.61719 47.5881 7.61719 47.3292V44.4287Z" fill="#E5E5E5"/>
<path d="M17.8711 44.4287C17.8711 44.1698 18.081 43.96 18.3398 43.96H21.2402C21.4991 43.96 21.7089 44.1698 21.7089 44.4287V47.3292C21.7089 47.5881 21.4991 47.7979 21.2402 47.7979H18.3398C18.081 47.7979 17.8711 47.5881 17.8711 47.3292V44.4287Z" fill="#E5E5E5"/>
<path d="M28.125 44.4287C28.125 44.1698 28.3348 43.96 28.5938 43.96H31.4942C31.7529 43.96 31.9629 44.1698 31.9629 44.4287V47.3292C31.9629 47.5881 31.7529 47.7979 31.4942 47.7979H28.5938C28.3348 47.7979 28.125 47.5881 28.125 47.3292V44.4287Z" fill="#E5E5E5"/>
<path d="M38.3789 44.4287C38.3789 44.1698 38.5887 43.96 38.8477 43.96H41.7479C42.0068 43.96 42.2167 44.1698 42.2167 44.4287V47.3292C42.2167 47.5881 42.0068 47.7979 41.7479 47.7979H38.8477C38.5887 47.7979 38.3789 47.5881 38.3789 47.3292V44.4287Z" fill="#E5E5E5"/>
<path d="M48.6328 44.4287C48.6328 44.1698 48.8426 43.96 49.1016 43.96H52.002C52.2607 43.96 52.4707 44.1698 52.4707 44.4287V47.3292C52.4707 47.5881 52.2607 47.7979 52.002 47.7979H49.1016C48.8426 47.7979 48.6328 47.5881 48.6328 47.3292V44.4287Z" fill="#E5E5E5"/>
<defs>
<filter id="filter0_iiii_670_2321" x="3.36328" y="8.75391" width="53.5781" height="42.4336" filterUnits="userSpaceOnUse" color-interpolation-filters="sRGB">
<feFlood flood-opacity="0" result="BackgroundImageFix"/>
<feBlend mode="normal" in="SourceGraphic" in2="BackgroundImageFix" result="shape"/>
<feColorMatrix in="SourceAlpha" type="matrix" values="0 0 0 0 0 0 0 0 0 0 0 0 0 0 0 0 0 0 127 0" result="hardAlpha"/>
<feOffset dy="0.75"/>
<feGaussianBlur stdDeviation="0.28125"/>
<feComposite in2="hardAlpha" operator="arithmetic" k2="-1" k3="1"/>
<feColorMatrix type="matrix" values="0 0 0 0 0.356863 0 0 0 0 0.317647 0 0 0 0 0.501961 0 0 0 1 0"/>
<feBlend mode="normal" in2="shape" result="effect1_innerShadow_670_2321"/>
<feColorMatrix in="SourceAlpha" type="matrix" values="0 0 0 0 0 0 0 0 0 0 0 0 0 0 0 0 0 0 127 0" result="hardAlpha"/>
<feOffset dx="-0.75"/>
<feGaussianBlur stdDeviation="0.28125"/>
<feComposite in2="hardAlpha" operator="arithmetic" k2="-1" k3="1"/>
<feColorMatrix type="matrix" values="0 0 0 0 0.447059 0 0 0 0 0.407843 0 0 0 0 0.572549 0 0 0 1 0"/>
<feBlend mode="normal" in2="effect1_innerShadow_670_2321" result="effect2_innerShadow_670_2321"/>
<feColorMatrix in="SourceAlpha" type="matrix" values="0 0 0 0 0 0 0 0 0 0 0 0 0 0 0 0 0 0 127 0" result="hardAlpha"/>
<feOffset dy="-0.75"/>
<feGaussianBlur stdDeviation="0.28125"/>
<feComposite in2="hardAlpha" operator="arithmetic" k2="-1" k3="1"/>
<feColorMatrix type="matrix" values="0 0 0 0 0.376471 0 0 0 0 0.231373 0 0 0 0 0.584314 0 0 0 1 0"/>
<feBlend mode="normal" in2="effect2_innerShadow_670_2321" result="effect3_innerShadow_670_2321"/>
<feColorMatrix in="SourceAlpha" type="matrix" values="0 0 0 0 0 0 0 0 0 0 0 0 0 0 0 0 0 0 127 0" result="hardAlpha"/>
<feOffset dx="0.75"/>
<feGaussianBlur stdDeviation="0.375"/>
<feComposite in2="hardAlpha" operator="arithmetic" k2="-1" k3="1"/>
<feColorMatrix type="matrix" values="0 0 0 0 0.313726 0 0 0 0 0.262745 0 0 0 0 0.466667 0 0 0 1 0"/>
<feBlend mode="normal" in2="effect3_innerShadow_670_2321" result="effect4_innerShadow_670_2321"/>
</filter>
<filter id="filter1_f_670_2321" x="3.66504" y="17.6074" width="11.9512" height="24.7852" filterUnits="userSpaceOnUse" color-interpolation-filters="sRGB">
<feFlood flood-opacity="0" result="BackgroundImageFix"/>
<feBlend mode="normal" in="SourceGraphic" in2="BackgroundImageFix" result="shape"/>
<feGaussianBlur stdDeviation="0.28125" result="effect1_foregroundBlur_670_2321"/>
</filter>
<filter id="filter2_f_670_2321" x="44.502" y="17.6074" width="11.9795" height="24.7852" filterUnits="userSpaceOnUse" color-interpolation-filters="sRGB">
<feFlood flood-opacity="0" result="BackgroundImageFix"/>
<feBlend mode="normal" in="SourceGraphic" in2="BackgroundImageFix" result="shape"/>
<feGaussianBlur stdDeviation="0.28125" result="effect1_foregroundBlur_670_2321"/>
</filter>
<filter id="filter3_f_670_2321" x="17.4756" y="17.6074" width="25.0488" height="24.7852" filterUnits="userSpaceOnUse" color-interpolation-filters="sRGB">
<feFlood flood-opacity="0" result="BackgroundImageFix"/>
<feBlend mode="normal" in="SourceGraphic" in2="BackgroundImageFix" result="shape"/>
<feGaussianBlur stdDeviation="0.28125" result="effect1_foregroundBlur_670_2321"/>
</filter>
<filter id="filter4_i_670_2321" x="45.6738" y="18.7793" width="12.3926" height="22.4414" filterUnits="userSpaceOnUse" color-interpolation-filters="sRGB">
<feFlood flood-opacity="0" result="BackgroundImageFix"/>
<feBlend mode="normal" in="SourceGraphic" in2="BackgroundImageFix" result="shape"/>
<feColorMatrix in="SourceAlpha" type="matrix" values="0 0 0 0 0 0 0 0 0 0 0 0 0 0 0 0 0 0 127 0" result="hardAlpha"/>
<feOffset dx="1.875"/>
<feGaussianBlur stdDeviation="2.8125"/>
<feComposite in2="hardAlpha" operator="arithmetic" k2="-1" k3="1"/>
<feColorMatrix type="matrix" values="0 0 0 0 0.321569 0 0 0 0 0.615686 0 0 0 0 0.764706 0 0 0 1 0"/>
<feBlend mode="normal" in2="shape" result="effect1_innerShadow_670_2321"/>
</filter>
<filter id="filter5_i_670_2321" x="18.6475" y="18.7793" width="22.7051" height="22.4414" filterUnits="userSpaceOnUse" color-interpolation-filters="sRGB">
<feFlood flood-opacity="0" result="BackgroundImageFix"/>
<feBlend mode="normal" in="SourceGraphic" in2="BackgroundImageFix" result="shape"/>
<feColorMatrix in="SourceAlpha" type="matrix" values="0 0 0 0 0 0 0 0 0 0 0 0 0 0 0 0 0 0 127 0" result="hardAlpha"/>
<feOffset/>
<feGaussianBlur stdDeviation="3.75"/>
<feComposite in2="hardAlpha" operator="arithmetic" k2="-1" k3="1"/>
<feColorMatrix type="matrix" values="0 0 0 0 0.321569 0 0 0 0 0.615686 0 0 0 0 0.764706 0 0 0 1 0"/>
<feBlend mode="normal" in2="shape" result="effect1_innerShadow_670_2321"/>
</filter>
<filter id="filter6_i_670_2321" x="2.05078" y="18.7793" width="12.3926" height="22.4414" filterUnits="userSpaceOnUse" color-interpolation-filters="sRGB">
<feFlood flood-opacity="0" result="BackgroundImageFix"/>
<feBlend mode="normal" in="SourceGraphic" in2="BackgroundImageFix" result="shape"/>
<feColorMatrix in="SourceAlpha" type="matrix" values="0 0 0 0 0 0 0 0 0 0 0 0 0 0 0 0 0 0 127 0" result="hardAlpha"/>
<feOffset dx="-1.875"/>
<feGaussianBlur stdDeviation="2.8125"/>
<feComposite in2="hardAlpha" operator="arithmetic" k2="-1" k3="1"/>
<feColorMatrix type="matrix" values="0 0 0 0 0.321569 0 0 0 0 0.615686 0 0 0 0 0.764706 0 0 0 1 0"/>
<feBlend mode="normal" in2="shape" result="effect1_innerShadow_670_2321"/>
</filter>
<filter id="filter7_f_670_2321" x="6.58594" y="11.1709" width="5.90039" height="5.90039" filterUnits="userSpaceOnUse" color-interpolation-filters="sRGB">
<feFlood flood-opacity="0" result="BackgroundImageFix"/>
<feBlend mode="normal" in="SourceGraphic" in2="BackgroundImageFix" result="shape"/>
<feGaussianBlur stdDeviation="0.234375" result="effect1_foregroundBlur_670_2321"/>
</filter>
<filter id="filter8_f_670_2321" x="7.24219" y="11.8271" width="4.58789" height="4.58789" filterUnits="userSpaceOnUse" color-interpolation-filters="sRGB">
<feFlood flood-opacity="0" result="BackgroundImageFix"/>
<feBlend mode="normal" in="SourceGraphic" in2="BackgroundImageFix" result="shape"/>
<feGaussianBlur stdDeviation="0.140625" result="effect1_foregroundBlur_670_2321"/>
</filter>
<filter id="filter9_f_670_2321" x="16.8398" y="11.1709" width="5.90039" height="5.90039" filterUnits="userSpaceOnUse" color-interpolation-filters="sRGB">
<feFlood flood-opacity="0" result="BackgroundImageFix"/>
<feBlend mode="normal" in="SourceGraphic" in2="BackgroundImageFix" result="shape"/>
<feGaussianBlur stdDeviation="0.234375" result="effect1_foregroundBlur_670_2321"/>
</filter>
<filter id="filter10_f_670_2321" x="17.4961" y="11.8271" width="4.58789" height="4.58789" filterUnits="userSpaceOnUse" color-interpolation-filters="sRGB">
<feFlood flood-opacity="0" result="BackgroundImageFix"/>
<feBlend mode="normal" in="SourceGraphic" in2="BackgroundImageFix" result="shape"/>
<feGaussianBlur stdDeviation="0.140625" result="effect1_foregroundBlur_670_2321"/>
</filter>
<filter id="filter11_f_670_2321" x="27.1084" y="11.1709" width="5.90039" height="5.90039" filterUnits="userSpaceOnUse" color-interpolation-filters="sRGB">
<feFlood flood-opacity="0" result="BackgroundImageFix"/>
<feBlend mode="normal" in="SourceGraphic" in2="BackgroundImageFix" result="shape"/>
<feGaussianBlur stdDeviation="0.234375" result="effect1_foregroundBlur_670_2321"/>
</filter>
<filter id="filter12_f_670_2321" x="27.7646" y="11.8271" width="4.58789" height="4.58789" filterUnits="userSpaceOnUse" color-interpolation-filters="sRGB">
<feFlood flood-opacity="0" result="BackgroundImageFix"/>
<feBlend mode="normal" in="SourceGraphic" in2="BackgroundImageFix" result="shape"/>
<feGaussianBlur stdDeviation="0.140625" result="effect1_foregroundBlur_670_2321"/>
</filter>
<filter id="filter13_f_670_2321" x="37.3477" y="11.1709" width="5.90039" height="5.90039" filterUnits="userSpaceOnUse" color-interpolation-filters="sRGB">
<feFlood flood-opacity="0" result="BackgroundImageFix"/>
<feBlend mode="normal" in="SourceGraphic" in2="BackgroundImageFix" result="shape"/>
<feGaussianBlur stdDeviation="0.234375" result="effect1_foregroundBlur_670_2321"/>
</filter>
<filter id="filter14_f_670_2321" x="38.0039" y="11.8271" width="4.58789" height="4.58789" filterUnits="userSpaceOnUse" color-interpolation-filters="sRGB">
<feFlood flood-opacity="0" result="BackgroundImageFix"/>
<feBlend mode="normal" in="SourceGraphic" in2="BackgroundImageFix" result="shape"/>
<feGaussianBlur stdDeviation="0.140625" result="effect1_foregroundBlur_670_2321"/>
</filter>
<filter id="filter15_f_670_2321" x="47.6016" y="11.1709" width="5.90039" height="5.90039" filterUnits="userSpaceOnUse" color-interpolation-filters="sRGB">
<feFlood flood-opacity="0" result="BackgroundImageFix"/>
<feBlend mode="normal" in="SourceGraphic" in2="BackgroundImageFix" result="shape"/>
<feGaussianBlur stdDeviation="0.234375" result="effect1_foregroundBlur_670_2321"/>
</filter>
<filter id="filter16_f_670_2321" x="48.2578" y="11.8271" width="4.58789" height="4.58789" filterUnits="userSpaceOnUse" color-interpolation-filters="sRGB">
<feFlood flood-opacity="0" result="BackgroundImageFix"/>
<feBlend mode="normal" in="SourceGraphic" in2="BackgroundImageFix" result="shape"/>
<feGaussianBlur stdDeviation="0.140625" result="effect1_foregroundBlur_670_2321"/>
</filter>
<filter id="filter17_f_670_2321" x="6.58594" y="42.9287" width="5.90039" height="5.90039" filterUnits="userSpaceOnUse" color-interpolation-filters="sRGB">
<feFlood flood-opacity="0" result="BackgroundImageFix"/>
<feBlend mode="normal" in="SourceGraphic" in2="BackgroundImageFix" result="shape"/>
<feGaussianBlur stdDeviation="0.234375" result="effect1_foregroundBlur_670_2321"/>
</filter>
<filter id="filter18_f_670_2321" x="16.8398" y="42.9287" width="5.90039" height="5.90039" filterUnits="userSpaceOnUse" color-interpolation-filters="sRGB">
<feFlood flood-opacity="0" result="BackgroundImageFix"/>
<feBlend mode="normal" in="SourceGraphic" in2="BackgroundImageFix" result="shape"/>
<feGaussianBlur stdDeviation="0.234375" result="effect1_foregroundBlur_670_2321"/>
</filter>
<filter id="filter19_f_670_2321" x="27.0938" y="42.9287" width="5.90039" height="5.90039" filterUnits="userSpaceOnUse" color-interpolation-filters="sRGB">
<feFlood flood-opacity="0" result="BackgroundImageFix"/>
<feBlend mode="normal" in="SourceGraphic" in2="BackgroundImageFix" result="shape"/>
<feGaussianBlur stdDeviation="0.234375" result="effect1_foregroundBlur_670_2321"/>
</filter>
<filter id="filter20_f_670_2321" x="37.3477" y="42.9287" width="5.90039" height="5.90039" filterUnits="userSpaceOnUse" color-interpolation-filters="sRGB">
<feFlood flood-opacity="0" result="BackgroundImageFix"/>
<feBlend mode="normal" in="SourceGraphic" in2="BackgroundImageFix" result="shape"/>
<feGaussianBlur stdDeviation="0.234375" result="effect1_foregroundBlur_670_2321"/>
</filter>
<filter id="filter21_f_670_2321" x="47.6016" y="42.9287" width="5.90039" height="5.90039" filterUnits="userSpaceOnUse" color-interpolation-filters="sRGB">
<feFlood flood-opacity="0" result="BackgroundImageFix"/>
<feBlend mode="normal" in="SourceGraphic" in2="BackgroundImageFix" result="shape"/>
<feGaussianBlur stdDeviation="0.234375" result="effect1_foregroundBlur_670_2321"/>
</filter>
<filter id="filter22_f_670_2321" x="7.24219" y="43.585" width="4.58789" height="4.58789" filterUnits="userSpaceOnUse" color-interpolation-filters="sRGB">
<feFlood flood-opacity="0" result="BackgroundImageFix"/>
<feBlend mode="normal" in="SourceGraphic" in2="BackgroundImageFix" result="shape"/>
<feGaussianBlur stdDeviation="0.140625" result="effect1_foregroundBlur_670_2321"/>
</filter>
<filter id="filter23_f_670_2321" x="17.4961" y="43.585" width="4.58789" height="4.58789" filterUnits="userSpaceOnUse" color-interpolation-filters="sRGB">
<feFlood flood-opacity="0" result="BackgroundImageFix"/>
<feBlend mode="normal" in="SourceGraphic" in2="BackgroundImageFix" result="shape"/>
<feGaussianBlur stdDeviation="0.140625" result="effect1_foregroundBlur_670_2321"/>
</filter>
<filter id="filter24_f_670_2321" x="27.7646" y="43.585" width="4.58789" height="4.58789" filterUnits="userSpaceOnUse" color-interpolation-filters="sRGB">
<feFlood flood-opacity="0" result="BackgroundImageFix"/>
<feBlend mode="normal" in="SourceGraphic" in2="BackgroundImageFix" result="shape"/>
<feGaussianBlur stdDeviation="0.140625" result="effect1_foregroundBlur_670_2321"/>
</filter>
<filter id="filter25_f_670_2321" x="38.0039" y="43.585" width="4.58789" height="4.58789" filterUnits="userSpaceOnUse" color-interpolation-filters="sRGB">
<feFlood flood-opacity="0" result="BackgroundImageFix"/>
<feBlend mode="normal" in="SourceGraphic" in2="BackgroundImageFix" result="shape"/>
<feGaussianBlur stdDeviation="0.140625" result="effect1_foregroundBlur_670_2321"/>
</filter>
<filter id="filter26_f_670_2321" x="48.2578" y="43.585" width="4.58789" height="4.58789" filterUnits="userSpaceOnUse" color-interpolation-filters="sRGB">
<feFlood flood-opacity="0" result="BackgroundImageFix"/>
<feBlend mode="normal" in="SourceGraphic" in2="BackgroundImageFix" result="shape"/>
<feGaussianBlur stdDeviation="0.140625" result="effect1_foregroundBlur_670_2321"/>
</filter>
<linearGradient id="paint0_linear_670_2321" x1="5.1933" y1="40.1849" x2="11.5017" y2="39.7487" gradientUnits="userSpaceOnUse">
<stop stop-color="#564D7C"/>
<stop offset="1" stop-color="#564D7C" stop-opacity="0"/>
</linearGradient>
<linearGradient id="paint1_linear_670_2321" x1="46.0312" y1="40.1849" x2="48.3746" y2="39.9955" gradientUnits="userSpaceOnUse">
<stop stop-color="#7D769C"/>
<stop offset="1" stop-color="#7D769C" stop-opacity="0"/>
</linearGradient>
<linearGradient id="paint2_linear_670_2321" x1="19.4897" y1="40.1849" x2="24.8531" y2="39.1634" gradientUnits="userSpaceOnUse">
<stop stop-color="#7D769C"/>
<stop offset="1" stop-color="#7D769C" stop-opacity="0"/>
</linearGradient>
<linearGradient id="paint3_linear_670_2321" x1="57.7734" y1="41.2208" x2="50.039" y2="41.2208" gradientUnits="userSpaceOnUse">
<stop stop-color="#87CDED"/>
<stop offset="1" stop-color="#87CDED" stop-opacity="0"/>
</linearGradient>
<linearGradient id="paint4_linear_670_2321" x1="7.32422" y1="16.04" x2="9.02344" y2="15.8496" gradientUnits="userSpaceOnUse">
<stop stop-color="#7A7294"/>
<stop offset="1" stop-color="#7A7294" stop-opacity="0"/>
</linearGradient>
<linearGradient id="paint5_linear_670_2321" x1="17.5781" y1="16.04" x2="19.2773" y2="15.8496" gradientUnits="userSpaceOnUse">
<stop stop-color="#7A7294"/>
<stop offset="1" stop-color="#7A7294" stop-opacity="0"/>
</linearGradient>
<linearGradient id="paint6_linear_670_2321" x1="27.8468" y1="16.04" x2="29.5459" y2="15.8496" gradientUnits="userSpaceOnUse">
<stop stop-color="#7A7294"/>
<stop offset="1" stop-color="#7A7294" stop-opacity="0"/>
</linearGradient>
<linearGradient id="paint7_linear_670_2321" x1="38.0858" y1="16.04" x2="39.785" y2="15.8496" gradientUnits="userSpaceOnUse">
<stop stop-color="#7A7294"/>
<stop offset="1" stop-color="#7A7294" stop-opacity="0"/>
</linearGradient>
<linearGradient id="paint8_linear_670_2321" x1="48.3398" y1="16.04" x2="50.0391" y2="15.8496" gradientUnits="userSpaceOnUse">
<stop stop-color="#7A7294"/>
<stop offset="1" stop-color="#7A7294" stop-opacity="0"/>
</linearGradient>
<linearGradient id="paint9_linear_670_2321" x1="7.32422" y1="47.7979" x2="9.02344" y2="47.6074" gradientUnits="userSpaceOnUse">
<stop stop-color="#7A7294"/>
<stop offset="1" stop-color="#7A7294" stop-opacity="0"/>
</linearGradient>
<linearGradient id="paint10_linear_670_2321" x1="17.5781" y1="47.7979" x2="19.2773" y2="47.6074" gradientUnits="userSpaceOnUse">
<stop stop-color="#7A7294"/>
<stop offset="1" stop-color="#7A7294" stop-opacity="0"/>
</linearGradient>
<linearGradient id="paint11_linear_670_2321" x1="27.8319" y1="47.7979" x2="29.5312" y2="47.6074" gradientUnits="userSpaceOnUse">
<stop stop-color="#7A7294"/>
<stop offset="1" stop-color="#7A7294" stop-opacity="0"/>
</linearGradient>
<linearGradient id="paint12_linear_670_2321" x1="38.0858" y1="47.7979" x2="39.785" y2="47.6074" gradientUnits="userSpaceOnUse">
<stop stop-color="#7A7294"/>
<stop offset="1" stop-color="#7A7294" stop-opacity="0"/>
</linearGradient>
<linearGradient id="paint13_linear_670_2321" x1="48.3398" y1="47.7979" x2="50.0391" y2="47.6074" gradientUnits="userSpaceOnUse">
<stop stop-color="#7A7294"/>
<stop offset="1" stop-color="#7A7294" stop-opacity="0"/>
</linearGradient>
</defs>
</svg>
