<svg width="60" height="60" viewBox="0 0 60 60" fill="none" xmlns="http://www.w3.org/2000/svg">
<g filter="url(#filter0_iiii_671_2597)">
<path d="M38.2778 4.37974C37.926 4.02812 37.4492 3.83057 36.9519 3.83057H12.0732C10.6235 3.83057 9.44824 5.00582 9.44824 6.45555V53.5444C9.44824 54.9941 10.6235 56.1694 12.0732 56.1694H47.9267C49.3764 56.1694 50.5517 54.9941 50.5517 53.5444V17.4304C50.5517 16.9332 50.3543 16.4562 50.0025 16.1046L38.2778 4.37974Z" fill="url(#paint0_linear_671_2597)"/>
</g>
<g filter="url(#filter1_f_671_2597)">
<path d="M37.0327 4.60693C37.0327 4.2293 37.141 3.98812 36.9355 3.94775C37.1309 3.9602 37.415 4.03099 37.5948 4.10156C37.8258 4.19229 37.5406 4.39262 37.7214 4.56926C37.7268 4.5744 37.732 4.57957 37.7371 4.58482L49.462 16.3097C49.4977 16.3454 49.532 16.3825 49.5644 16.4207C49.7245 16.6089 49.8449 16.8257 49.9201 17.0581C49.9799 17.2429 50.0112 17.4376 50.0112 17.6355V17.7539C50.0112 17.3185 49.6962 17.0581 49.462 17.0581H39.2827C38.0401 17.0581 37.0327 16.0507 37.0327 14.8081V4.60693Z" fill="#D2C5DF"/>
</g>
<g filter="url(#filter2_ii_671_2597)">
<path d="M37.5732 4.40172C37.5732 4.02409 37.2768 3.8746 37.0713 3.83423C37.2667 3.84668 37.4574 3.88954 37.6372 3.96012C37.8682 4.05085 38.081 4.1874 38.2619 4.36403C38.2672 4.36918 38.2724 4.37436 38.2777 4.37959L50.0024 16.1045C50.0382 16.1402 50.0724 16.1773 50.105 16.2155C50.2649 16.4036 50.3853 16.6205 50.4607 16.8529C50.5205 17.0377 50.5516 17.2324 50.5516 17.4303V17.5487C50.5516 17.1133 50.2368 16.8529 50.0024 16.8529H39.8232C38.5805 16.8529 37.5732 15.8455 37.5732 14.6029V4.40172Z" fill="url(#paint1_linear_671_2597)"/>
</g>
<path d="M37.5732 4.40172C37.5732 4.02409 37.2768 3.8746 37.0713 3.83423C37.2667 3.84668 37.4574 3.88954 37.6372 3.96012C37.8682 4.05085 38.081 4.1874 38.2619 4.36403C38.2672 4.36918 38.2724 4.37436 38.2777 4.37959L50.0024 16.1045C50.0382 16.1402 50.0724 16.1773 50.105 16.2155C50.2649 16.4036 50.3853 16.6205 50.4607 16.8529C50.5205 17.0377 50.5516 17.2324 50.5516 17.4303V17.5487C50.5516 17.1133 50.2368 16.8529 50.0024 16.8529H39.8232C38.5805 16.8529 37.5732 15.8455 37.5732 14.6029V4.40172Z" fill="url(#paint2_linear_671_2597)"/>
<path d="M42.107 22.4927H17.8784C17.3647 22.4927 16.9482 22.9091 16.9482 23.4229C16.9482 23.9366 17.3647 24.353 17.8784 24.353H42.107C42.6207 24.353 43.0372 23.9366 43.0372 23.4229C43.0372 22.9091 42.6207 22.4927 42.107 22.4927Z" fill="url(#paint3_linear_671_2597)"/>
<path d="M42.107 28.1177H17.8784C17.3647 28.1177 16.9482 28.5341 16.9482 29.0479C16.9482 29.5616 17.3647 29.978 17.8784 29.978H42.107C42.6207 29.978 43.0372 29.5616 43.0372 29.0479C43.0372 28.5341 42.6207 28.1177 42.107 28.1177Z" fill="url(#paint4_linear_671_2597)"/>
<path d="M42.107 33.7427H17.8784C17.3647 33.7427 16.9482 34.1591 16.9482 34.6729C16.9482 35.1866 17.3647 35.603 17.8784 35.603H42.107C42.6207 35.603 43.0372 35.1866 43.0372 34.6729C43.0372 34.1591 42.6207 33.7427 42.107 33.7427Z" fill="url(#paint5_linear_671_2597)"/>
<path d="M32.8638 39.3677H17.8784C17.3647 39.3677 16.9482 39.7841 16.9482 40.2979C16.9482 40.8116 17.3647 41.228 17.8784 41.228H32.8638C33.3775 41.228 33.794 40.8116 33.794 40.2979C33.794 39.7841 33.3775 39.3677 32.8638 39.3677Z" fill="url(#paint6_linear_671_2597)"/>
<path d="M47.0125 25.3098C48.2134 24.3247 49.9855 24.4994 50.9706 25.7004L54.628 30.1587C55.6133 31.3597 55.4383 33.1317 54.2374 34.117L27.729 55.8631L20.5039 47.0559L47.0125 25.3098Z" fill="url(#paint7_radial_671_2597)"/>
<path d="M47.0125 25.3098C48.2134 24.3247 49.9855 24.4994 50.9706 25.7004L54.628 30.1587C55.6133 31.3597 55.4383 33.1317 54.2374 34.117L27.729 55.8631L20.5039 47.0559L47.0125 25.3098Z" fill="url(#paint8_linear_671_2597)"/>
<path d="M47.0125 25.3098C48.2134 24.3247 49.9855 24.4994 50.9706 25.7004L54.628 30.1587C55.6133 31.3597 55.4383 33.1317 54.2374 34.117L27.729 55.8631L20.5039 47.0559L47.0125 25.3098Z" fill="url(#paint9_linear_671_2597)"/>
<path d="M47.0125 25.3098C48.2134 24.3247 49.9855 24.4994 50.9706 25.7004L54.628 30.1587C55.6133 31.3597 55.4383 33.1317 54.2374 34.117L27.729 55.8631L20.5039 47.0559L47.0125 25.3098Z" fill="url(#paint10_radial_671_2597)"/>
<path d="M18.4539 55.8648C18.424 56.018 18.5411 56.1605 18.6971 56.1609L26.8601 56.1815C27.0949 56.182 27.3251 56.116 27.5241 55.9912L27.7281 55.8629L20.5031 47.0557L20.3638 47.194C20.1876 47.3693 20.0678 47.5934 20.0203 47.8374L18.4539 55.8648Z" fill="url(#paint11_linear_671_2597)"/>
<path d="M18.4539 55.8648C18.424 56.018 18.5411 56.1605 18.6971 56.1609L26.8601 56.1815C27.0949 56.182 27.3251 56.116 27.5241 55.9912L27.7281 55.8629L20.5031 47.0557L20.3638 47.194C20.1876 47.3693 20.0678 47.5934 20.0203 47.8374L18.4539 55.8648Z" fill="url(#paint12_linear_671_2597)"/>
<path d="M18.4539 55.8648C18.424 56.018 18.5411 56.1605 18.6971 56.1609L26.8601 56.1815C27.0949 56.182 27.3251 56.116 27.5241 55.9912L27.7281 55.8629L20.5031 47.0557L20.3638 47.194C20.1876 47.3693 20.0678 47.5934 20.0203 47.8374L18.4539 55.8648Z" fill="url(#paint13_linear_671_2597)"/>
<path d="M50.6507 37.0597L54.9718 33.5147C55.7676 32.862 55.8835 31.6879 55.2308 30.8923L50.3693 24.9664C49.7166 24.1706 48.5427 24.0547 47.7469 24.7074L43.4258 28.2525L50.6507 37.0597Z" fill="url(#paint14_linear_671_2597)"/>
<path d="M50.6507 37.0597L54.9718 33.5147C55.7676 32.862 55.8835 31.6879 55.2308 30.8923L50.3693 24.9664C49.7166 24.1706 48.5427 24.0547 47.7469 24.7074L43.4258 28.2525L50.6507 37.0597Z" fill="url(#paint15_linear_671_2597)"/>
<path d="M50.6507 37.0597L54.9718 33.5147C55.7676 32.862 55.8835 31.6879 55.2308 30.8923L50.3693 24.9664C49.7166 24.1706 48.5427 24.0547 47.7469 24.7074L43.4258 28.2525L50.6507 37.0597Z" fill="url(#paint16_radial_671_2597)"/>
<path d="M39.0928 31.8063L43.4251 28.2522L50.6501 37.0594L46.3177 40.6133L39.0928 31.8063Z" fill="url(#paint17_linear_671_2597)"/>
<path d="M39.0928 31.8063L43.4251 28.2522L50.6501 37.0594L46.3177 40.6133L39.0928 31.8063Z" fill="url(#paint18_linear_671_2597)"/>
<path d="M18.6971 56.1608C18.5411 56.1604 18.424 56.0179 18.4539 55.8647L19.0033 53.0488L21.5622 56.1681L18.6971 56.1608Z" fill="url(#paint19_linear_671_2597)"/>
<defs>
<filter id="filter0_iiii_671_2597" x="9.26074" y="3.26807" width="41.8535" height="53.0889" filterUnits="userSpaceOnUse" color-interpolation-filters="sRGB">
<feFlood flood-opacity="0" result="BackgroundImageFix"/>
<feBlend mode="normal" in="SourceGraphic" in2="BackgroundImageFix" result="shape"/>
<feColorMatrix in="SourceAlpha" type="matrix" values="0 0 0 0 0 0 0 0 0 0 0 0 0 0 0 0 0 0 127 0" result="hardAlpha"/>
<feOffset dx="0.5625" dy="-0.5625"/>
<feGaussianBlur stdDeviation="0.5625"/>
<feComposite in2="hardAlpha" operator="arithmetic" k2="-1" k3="1"/>
<feColorMatrix type="matrix" values="0 0 0 0 0.807843 0 0 0 0 0.768627 0 0 0 0 0.85098 0 0 0 1 0"/>
<feBlend mode="normal" in2="shape" result="effect1_innerShadow_671_2597"/>
<feColorMatrix in="SourceAlpha" type="matrix" values="0 0 0 0 0 0 0 0 0 0 0 0 0 0 0 0 0 0 127 0" result="hardAlpha"/>
<feOffset dx="0.1875" dy="-0.1875"/>
<feGaussianBlur stdDeviation="0.1875"/>
<feComposite in2="hardAlpha" operator="arithmetic" k2="-1" k3="1"/>
<feColorMatrix type="matrix" values="0 0 0 0 0.709804 0 0 0 0 0.690196 0 0 0 0 0.733333 0 0 0 1 0"/>
<feBlend mode="normal" in2="effect1_innerShadow_671_2597" result="effect2_innerShadow_671_2597"/>
<feColorMatrix in="SourceAlpha" type="matrix" values="0 0 0 0 0 0 0 0 0 0 0 0 0 0 0 0 0 0 127 0" result="hardAlpha"/>
<feOffset dy="-0.1875"/>
<feGaussianBlur stdDeviation="0.1875"/>
<feComposite in2="hardAlpha" operator="arithmetic" k2="-1" k3="1"/>
<feColorMatrix type="matrix" values="0 0 0 0 0.72549 0 0 0 0 0.65098 0 0 0 0 0.8 0 0 0 1 0"/>
<feBlend mode="normal" in2="effect2_innerShadow_671_2597" result="effect3_innerShadow_671_2597"/>
<feColorMatrix in="SourceAlpha" type="matrix" values="0 0 0 0 0 0 0 0 0 0 0 0 0 0 0 0 0 0 127 0" result="hardAlpha"/>
<feOffset dx="-0.28125" dy="0.28125"/>
<feGaussianBlur stdDeviation="0.09375"/>
<feComposite in2="hardAlpha" operator="arithmetic" k2="-1" k3="1"/>
<feColorMatrix type="matrix" values="0 0 0 0 0.952941 0 0 0 0 0.941176 0 0 0 0 0.964706 0 0 0 1 0"/>
<feBlend mode="normal" in2="effect3_innerShadow_671_2597" result="effect4_innerShadow_671_2597"/>
</filter>
<filter id="filter1_f_671_2597" x="35.998" y="3.01025" width="14.9512" height="15.6812" filterUnits="userSpaceOnUse" color-interpolation-filters="sRGB">
<feFlood flood-opacity="0" result="BackgroundImageFix"/>
<feBlend mode="normal" in="SourceGraphic" in2="BackgroundImageFix" result="shape"/>
<feGaussianBlur stdDeviation="0.46875" result="effect1_foregroundBlur_671_2597"/>
</filter>
<filter id="filter2_ii_671_2597" x="37.0713" y="3.64673" width="13.668" height="13.9019" filterUnits="userSpaceOnUse" color-interpolation-filters="sRGB">
<feFlood flood-opacity="0" result="BackgroundImageFix"/>
<feBlend mode="normal" in="SourceGraphic" in2="BackgroundImageFix" result="shape"/>
<feColorMatrix in="SourceAlpha" type="matrix" values="0 0 0 0 0 0 0 0 0 0 0 0 0 0 0 0 0 0 127 0" result="hardAlpha"/>
<feOffset dx="0.1875"/>
<feGaussianBlur stdDeviation="0.140625"/>
<feComposite in2="hardAlpha" operator="arithmetic" k2="-1" k3="1"/>
<feColorMatrix type="matrix" values="0 0 0 0 0.631373 0 0 0 0 0.611765 0 0 0 0 0.654902 0 0 0 1 0"/>
<feBlend mode="normal" in2="shape" result="effect1_innerShadow_671_2597"/>
<feColorMatrix in="SourceAlpha" type="matrix" values="0 0 0 0 0 0 0 0 0 0 0 0 0 0 0 0 0 0 127 0" result="hardAlpha"/>
<feOffset dy="-0.1875"/>
<feGaussianBlur stdDeviation="0.140625"/>
<feComposite in2="hardAlpha" operator="arithmetic" k2="-1" k3="1"/>
<feColorMatrix type="matrix" values="0 0 0 0 0.752941 0 0 0 0 0.67451 0 0 0 0 0.835294 0 0 0 1 0"/>
<feBlend mode="normal" in2="effect1_innerShadow_671_2597" result="effect2_innerShadow_671_2597"/>
</filter>
<linearGradient id="paint0_linear_671_2597" x1="30" y1="3.83057" x2="30" y2="57.9056" gradientUnits="userSpaceOnUse">
<stop stop-color="#E4DCEA"/>
<stop offset="1" stop-color="#CEC1D5"/>
</linearGradient>
<linearGradient id="paint1_linear_671_2597" x1="38.5107" y1="16.3256" x2="43.4619" y2="11.3744" gradientUnits="userSpaceOnUse">
<stop stop-color="#CAC2CE"/>
<stop offset="1" stop-color="#BDB4C1"/>
</linearGradient>
<linearGradient id="paint2_linear_671_2597" x1="44.575" y1="10.4076" x2="42.2167" y2="12.7883" gradientUnits="userSpaceOnUse">
<stop offset="0.119171" stop-color="#DBDADC"/>
<stop offset="0.577307" stop-color="#CBC7D0" stop-opacity="0"/>
</linearGradient>
<linearGradient id="paint3_linear_671_2597" x1="16.9482" y1="23.4229" x2="43.0371" y2="23.4229" gradientUnits="userSpaceOnUse">
<stop stop-color="#9C96A2"/>
<stop offset="1" stop-color="#9A95A1"/>
</linearGradient>
<linearGradient id="paint4_linear_671_2597" x1="16.9482" y1="29.0479" x2="43.0371" y2="29.0479" gradientUnits="userSpaceOnUse">
<stop stop-color="#9C96A2"/>
<stop offset="1" stop-color="#9A95A1"/>
</linearGradient>
<linearGradient id="paint5_linear_671_2597" x1="16.9482" y1="34.6729" x2="43.0371" y2="34.6729" gradientUnits="userSpaceOnUse">
<stop stop-color="#9C96A2"/>
<stop offset="1" stop-color="#9A95A1"/>
</linearGradient>
<linearGradient id="paint6_linear_671_2597" x1="16.9482" y1="40.2979" x2="33.7939" y2="40.2979" gradientUnits="userSpaceOnUse">
<stop stop-color="#9C96A2"/>
<stop offset="1" stop-color="#9A95A1"/>
</linearGradient>
<radialGradient id="paint7_radial_671_2597" cx="0" cy="0" r="1" gradientUnits="userSpaceOnUse" gradientTransform="translate(24.0647 51.6972) rotate(-40.0074) scale(24.4316 15.1549)">
<stop stop-color="#FF9130"/>
<stop offset="1" stop-color="#F3633D"/>
</radialGradient>
<linearGradient id="paint8_linear_671_2597" x1="30.2895" y1="38.4247" x2="32.0382" y2="40.4695" gradientUnits="userSpaceOnUse">
<stop stop-color="#EE9B6A"/>
<stop offset="1" stop-color="#EE9B6A" stop-opacity="0"/>
</linearGradient>
<linearGradient id="paint9_linear_671_2597" x1="42.8277" y1="44.1869" x2="40.7003" y2="42.0267" gradientUnits="userSpaceOnUse">
<stop stop-color="#E66A62"/>
<stop offset="1" stop-color="#E66A62" stop-opacity="0"/>
</linearGradient>
<radialGradient id="paint10_radial_671_2597" cx="0" cy="0" r="1" gradientUnits="userSpaceOnUse" gradientTransform="translate(23.7786 51.4349) rotate(-39.2242) scale(22.5636 5.04562)">
<stop stop-color="#FF994D"/>
<stop offset="1" stop-color="#FF994D" stop-opacity="0"/>
</radialGradient>
<linearGradient id="paint11_linear_671_2597" x1="21.1937" y1="51.5309" x2="23.9353" y2="56.9504" gradientUnits="userSpaceOnUse">
<stop stop-color="#D8A587"/>
<stop offset="1" stop-color="#CE7A98"/>
</linearGradient>
<linearGradient id="paint12_linear_671_2597" x1="24.9951" y1="52.1412" x2="24.2833" y2="52.733" gradientUnits="userSpaceOnUse">
<stop offset="0.207411" stop-color="#FFC09F"/>
<stop offset="1" stop-color="#FCB196" stop-opacity="0"/>
</linearGradient>
<linearGradient id="paint13_linear_671_2597" x1="18.2767" y1="51.0479" x2="20.8808" y2="51.539" gradientUnits="userSpaceOnUse">
<stop stop-color="#DEBCA3"/>
<stop offset="1" stop-color="#DEBCA3" stop-opacity="0"/>
</linearGradient>
<linearGradient id="paint14_linear_671_2597" x1="53.6773" y1="28.3281" x2="48.0823" y2="32.8468" gradientUnits="userSpaceOnUse">
<stop stop-color="#FF6153"/>
<stop offset="1" stop-color="#FF6154"/>
</linearGradient>
<linearGradient id="paint15_linear_671_2597" x1="44.6833" y1="26.9722" x2="48.3349" y2="31.0774" gradientUnits="userSpaceOnUse">
<stop stop-color="#F1553E"/>
<stop offset="1" stop-color="#F1553E" stop-opacity="0"/>
</linearGradient>
<radialGradient id="paint16_radial_671_2597" cx="0" cy="0" r="1" gradientUnits="userSpaceOnUse" gradientTransform="translate(52.5199 29.3841) rotate(140.636) scale(1.70187 3.86614)">
<stop offset="0.177419" stop-color="#FF786D"/>
<stop offset="1" stop-color="#FF786D" stop-opacity="0"/>
</radialGradient>
<linearGradient id="paint17_linear_671_2597" x1="41.3263" y1="30.1516" x2="45.9682" y2="35.2906" gradientUnits="userSpaceOnUse">
<stop stop-color="#C5C4CB"/>
<stop offset="1" stop-color="#E8DEFA"/>
</linearGradient>
<linearGradient id="paint18_linear_671_2597" x1="48.5077" y1="39.598" x2="45.9234" y2="36.5344" gradientUnits="userSpaceOnUse">
<stop stop-color="#C9B9E0"/>
<stop offset="1" stop-color="#C9B9E0" stop-opacity="0"/>
</linearGradient>
<linearGradient id="paint19_linear_671_2597" x1="18.8487" y1="54.342" x2="19.9806" y2="56.2886" gradientUnits="userSpaceOnUse">
<stop stop-color="#461E49"/>
<stop offset="1" stop-color="#450F51"/>
</linearGradient>
</defs>
</svg>
