<svg width="60" height="60" viewBox="0 0 60 60" fill="none" xmlns="http://www.w3.org/2000/svg">
<path d="M29.9979 56.2459C47.4999 56.2459 56.2459 44.4943 56.2459 29.9979C56.2459 15.5016 47.4999 3.75 29.9979 3.75C12.4958 3.75 3.75 15.5016 3.75 29.9979C3.75 44.4943 12.4958 56.2459 29.9979 56.2459Z" fill="url(#paint0_radial_667_1345)"/>
<path d="M29.9979 56.2459C47.4999 56.2459 56.2459 44.4943 56.2459 29.9979C56.2459 15.5016 47.4999 3.75 29.9979 3.75C12.4958 3.75 3.75 15.5016 3.75 29.9979C3.75 44.4943 12.4958 56.2459 29.9979 56.2459Z" fill="url(#paint1_radial_667_1345)"/>
<path d="M29.9979 56.2459C47.4999 56.2459 56.2459 44.4943 56.2459 29.9979C56.2459 15.5016 47.4999 3.75 29.9979 3.75C12.4958 3.75 3.75 15.5016 3.75 29.9979C3.75 44.4943 12.4958 56.2459 29.9979 56.2459Z" fill="url(#paint2_radial_667_1345)"/>
<path d="M29.9979 56.2459C47.4999 56.2459 56.2459 44.4943 56.2459 29.9979C56.2459 15.5016 47.4999 3.75 29.9979 3.75C12.4958 3.75 3.75 15.5016 3.75 29.9979C3.75 44.4943 12.4958 56.2459 29.9979 56.2459Z" fill="url(#paint3_radial_667_1345)" fill-opacity="0.6"/>
<path d="M29.9979 56.2459C47.4999 56.2459 56.2459 44.4943 56.2459 29.9979C56.2459 15.5016 47.4999 3.75 29.9979 3.75C12.4958 3.75 3.75 15.5016 3.75 29.9979C3.75 44.4943 12.4958 56.2459 29.9979 56.2459Z" fill="url(#paint4_radial_667_1345)"/>
<path d="M29.9979 56.2459C47.4999 56.2459 56.2459 44.4943 56.2459 29.9979C56.2459 15.5016 47.4999 3.75 29.9979 3.75C12.4958 3.75 3.75 15.5016 3.75 29.9979C3.75 44.4943 12.4958 56.2459 29.9979 56.2459Z" fill="url(#paint5_radial_667_1345)"/>
<path d="M29.9979 56.2459C47.4999 56.2459 56.2459 44.4943 56.2459 29.9979C56.2459 15.5016 47.4999 3.75 29.9979 3.75C12.4958 3.75 3.75 15.5016 3.75 29.9979C3.75 44.4943 12.4958 56.2459 29.9979 56.2459Z" fill="url(#paint6_radial_667_1345)"/>
<path d="M29.9979 56.2459C47.4999 56.2459 56.2459 44.4943 56.2459 29.9979C56.2459 15.5016 47.4999 3.75 29.9979 3.75C12.4958 3.75 3.75 15.5016 3.75 29.9979C3.75 44.4943 12.4958 56.2459 29.9979 56.2459Z" fill="url(#paint7_radial_667_1345)"/>
<path d="M18.7495 40.3125V34.5737C18.7495 33.0833 17.5413 31.875 16.0508 31.875C14.4744 31.875 13.2285 33.2214 13.2055 34.7977C13.1683 37.3504 12.8154 40.728 11.2495 41.25C5.62435 43.125 3.74961 51.5625 8.43702 55.3125C12.1871 58.3127 15.937 58.125 18.7495 58.125H23.9319C25.2118 58.125 26.2494 57.0874 26.2494 55.8073C26.2494 54.9294 25.7535 54.1269 24.9684 53.7345L24.3744 53.4375H25.7231C26.5836 53.4375 27.3336 52.8519 27.5423 52.0172L27.6698 51.5064C27.9008 50.5826 27.2019 49.6875 26.2494 49.6875L26.8667 49.3789C27.6375 48.9934 28.1244 48.2055 28.1244 47.3438C28.1244 46.482 27.6375 45.6941 26.8667 45.3086L26.2494 45H29.5307C30.8252 45 31.8744 43.9508 31.8744 42.6562C31.8744 41.3617 30.8252 40.3125 29.5307 40.3125H18.7495Z" fill="url(#paint8_radial_667_1345)"/>
<path d="M24.375 35.6252C24.375 35.6252 26.4825 33.1822 30.4688 33.7502C34.455 34.3181 35.625 37.5002 35.625 37.5002" stroke="#402A32" stroke-width="3.75" stroke-linecap="round" stroke-linejoin="round"/>
<path d="M16.907 33.9262C21.7463 33.9262 25.6694 30.0032 25.6694 25.1638C25.6694 20.3244 21.7463 16.4014 16.907 16.4014C12.0676 16.4014 8.14453 20.3244 8.14453 25.1638C8.14453 30.0032 12.0676 33.9262 16.907 33.9262Z" fill="url(#paint9_radial_667_1345)"/>
<path d="M36.0831 34.1017C40.4782 34.1017 44.0412 30.5388 44.0412 26.1436C44.0412 21.7485 40.4782 18.1855 36.0831 18.1855C31.688 18.1855 28.125 21.7485 28.125 26.1436C28.125 30.5388 31.688 34.1017 36.0831 34.1017Z" fill="url(#paint10_radial_667_1345)"/>
<path d="M19.5356 30.4207C23.891 30.4207 27.4219 26.8901 27.4219 22.5347C27.4219 18.1792 23.891 14.6484 19.5356 14.6484C15.1802 14.6484 11.6494 18.1792 11.6494 22.5347C11.6494 26.8901 15.1802 30.4207 19.5356 30.4207Z" fill="white"/>
<path d="M40.4405 30.5646C44.8355 30.5646 48.3985 27.0017 48.3985 22.6065C48.3985 18.2114 44.8355 14.6484 40.4405 14.6484C36.0453 14.6484 32.4824 18.2114 32.4824 22.6065C32.4824 27.0017 36.0453 30.5646 40.4405 30.5646Z" fill="white"/>
<path fill-rule="evenodd" clip-rule="evenodd" d="M24.375 21.5625C24.375 24.6692 21.8567 27.1875 18.75 27.1875C15.6434 27.1875 13.125 24.6692 13.125 21.5625C13.125 18.4559 15.6434 15.9375 18.75 15.9375C21.8567 15.9375 24.375 18.4559 24.375 21.5625ZM45 21.5625C45 24.6692 42.4817 27.1875 39.375 27.1875C36.2683 27.1875 33.75 24.6692 33.75 21.5625C33.75 18.4559 36.2683 15.9375 39.375 15.9375C42.4817 15.9375 45 18.4559 45 21.5625Z" fill="url(#paint11_linear_667_1345)"/>
<g filter="url(#filter0_f_667_1345)">
<path fill-rule="evenodd" clip-rule="evenodd" d="M23.8185 53.7902L23.9206 53.3814C24.1515 52.4576 23.4526 51.5625 22.5003 51.5625L23.1174 51.2539C23.8884 50.8684 24.3753 50.0805 24.3753 49.2188C24.3753 48.357 23.8884 47.5691 23.1174 47.1836L22.5003 46.875H25.7816C27.0759 46.875 28.1253 45.8258 28.1253 44.5313C28.1253 43.2368 27.0759 42.1875 25.7816 42.1875H15.0003V36.4487C15.0003 34.9583 13.792 33.75 12.3015 33.75C10.7251 33.75 9.47928 35.0964 9.45628 36.6727C9.42735 38.6561 9.20788 41.1375 8.37695 42.3904C11.2592 48.0943 16.4059 52.3044 23.8185 53.7902Z" fill="#E4694E"/>
</g>
<path d="M18.7495 40.3125V34.5737C18.7495 33.0833 17.5413 31.875 16.0508 31.875C14.4744 31.875 13.2285 33.2214 13.2055 34.7977C13.1683 37.3504 12.8154 40.728 11.2495 41.25C5.62435 43.125 3.74961 51.5625 8.43702 55.3125C12.1871 58.3127 15.937 58.125 18.7495 58.125H23.9319C25.2118 58.125 26.2494 57.0874 26.2494 55.8073C26.2494 54.9294 25.7535 54.1269 24.9684 53.7345L24.3744 53.4375H25.7231C26.5836 53.4375 27.3336 52.8519 27.5423 52.0172L27.6698 51.5064C27.9008 50.5826 27.2019 49.6875 26.2494 49.6875L26.8667 49.3789C27.6375 48.9934 28.1244 48.2055 28.1244 47.3438C28.1244 46.482 27.6375 45.6941 26.8667 45.3086L26.2494 45H29.5307C30.8252 45 31.8744 43.9508 31.8744 42.6562C31.8744 41.3617 30.8252 40.3125 29.5307 40.3125H18.7495Z" fill="url(#paint12_radial_667_1345)"/>
<path d="M18.7495 40.3125V34.5737C18.7495 33.0833 17.5413 31.875 16.0508 31.875C14.4744 31.875 13.2285 33.2214 13.2055 34.7977C13.1683 37.3504 12.8154 40.728 11.2495 41.25C5.62435 43.125 3.74961 51.5625 8.43702 55.3125C12.1871 58.3127 15.937 58.125 18.7495 58.125H23.9319C25.2118 58.125 26.2494 57.0874 26.2494 55.8073C26.2494 54.9294 25.7535 54.1269 24.9684 53.7345L24.3744 53.4375H25.7231C26.5836 53.4375 27.3336 52.8519 27.5423 52.0172L27.6698 51.5064C27.9008 50.5826 27.2019 49.6875 26.2494 49.6875L26.8667 49.3789C27.6375 48.9934 28.1244 48.2055 28.1244 47.3438C28.1244 46.482 27.6375 45.6941 26.8667 45.3086L26.2494 45H29.5307C30.8252 45 31.8744 43.9508 31.8744 42.6562C31.8744 41.3617 30.8252 40.3125 29.5307 40.3125H18.7495Z" fill="url(#paint13_radial_667_1345)"/>
<path d="M23.4375 8.4375C22.8126 7.81251 21 6.5625 18.75 6.5625C16.5 6.5625 14.6875 7.81251 14.0625 8.4375" stroke="#402A32" stroke-width="1.875" stroke-linecap="round" stroke-linejoin="round"/>
<path d="M34.6875 15.9375C34.6875 15.9375 36.5625 14.0625 40.3125 14.0625C44.0625 14.0625 45.9375 15.9375 45.9375 15.9375" stroke="#402A32" stroke-width="1.875" stroke-linecap="round" stroke-linejoin="round"/>
<g opacity="0.8" filter="url(#filter1_f_667_1345)">
<path d="M31.875 43.125H18.75V45H31.875V43.125Z" fill="#FFA048"/>
</g>
<path d="M20.625 45H26.25C27.2856 45 28.125 45.8394 28.125 46.875L20.625 45Z" fill="url(#paint14_linear_667_1345)"/>
<path d="M20.625 53.4375H24.375C25.4106 53.4375 26.25 54.2769 26.25 55.3125L20.625 53.4375Z" fill="url(#paint15_linear_667_1345)"/>
<path d="M20.625 49.6875H26.25C27.2856 49.6875 28.125 50.5269 28.125 51.5625L20.625 49.6875Z" fill="url(#paint16_linear_667_1345)"/>
<defs>
<filter id="filter0_f_667_1345" x="4.62695" y="30" width="27.248" height="27.54" filterUnits="userSpaceOnUse" color-interpolation-filters="sRGB">
<feFlood flood-opacity="0" result="BackgroundImageFix"/>
<feBlend mode="normal" in="SourceGraphic" in2="BackgroundImageFix" result="shape"/>
<feGaussianBlur stdDeviation="1.875" result="effect1_foregroundBlur_667_1345"/>
</filter>
<filter id="filter1_f_667_1345" x="15.9375" y="40.3125" width="18.75" height="7.5" filterUnits="userSpaceOnUse" color-interpolation-filters="sRGB">
<feFlood flood-opacity="0" result="BackgroundImageFix"/>
<feBlend mode="normal" in="SourceGraphic" in2="BackgroundImageFix" result="shape"/>
<feGaussianBlur stdDeviation="1.40625" result="effect1_foregroundBlur_667_1345"/>
</filter>
<radialGradient id="paint0_radial_667_1345" cx="0" cy="0" r="1" gradientUnits="userSpaceOnUse" gradientTransform="translate(47.8125 16.875) rotate(132.839) scale(70.3187)">
<stop stop-color="#FFF478"/>
<stop offset="0.474827" stop-color="#FFB02E"/>
<stop offset="1" stop-color="#F70A8D"/>
</radialGradient>
<radialGradient id="paint1_radial_667_1345" cx="0" cy="0" r="1" gradientUnits="userSpaceOnUse" gradientTransform="translate(47.8125 16.875) rotate(131.878) scale(73.0288)">
<stop stop-color="#FFF478"/>
<stop offset="0.474827" stop-color="#FFB02E"/>
<stop offset="1" stop-color="#F70A8D"/>
</radialGradient>
<radialGradient id="paint2_radial_667_1345" cx="0" cy="0" r="1" gradientUnits="userSpaceOnUse" gradientTransform="translate(30 23.4375) rotate(101.31) scale(33.4624 42.8589)">
<stop offset="0.787821" stop-color="#F59639" stop-opacity="0"/>
<stop offset="0.972509" stop-color="#FF7DCE"/>
</radialGradient>
<radialGradient id="paint3_radial_667_1345" cx="0" cy="0" r="1" gradientUnits="userSpaceOnUse" gradientTransform="translate(33.75 26.25) rotate(135) scale(76.8979)">
<stop offset="0.314853" stop-opacity="0"/>
<stop offset="1"/>
</radialGradient>
<radialGradient id="paint4_radial_667_1345" cx="0" cy="0" r="1" gradientUnits="userSpaceOnUse" gradientTransform="translate(30 31.875) rotate(77.692) scale(52.7754)">
<stop offset="0.507903" stop-color="#7D6133" stop-opacity="0"/>
<stop offset="1" stop-color="#715B32"/>
</radialGradient>
<radialGradient id="paint5_radial_667_1345" cx="0" cy="0" r="1" gradientUnits="userSpaceOnUse" gradientTransform="translate(30.9375 30.9375) rotate(55.7131) scale(24.9628 18.0943)">
<stop stop-color="#FFB849"/>
<stop offset="1" stop-color="#FFB847" stop-opacity="0"/>
</radialGradient>
<radialGradient id="paint6_radial_667_1345" cx="0" cy="0" r="1" gradientUnits="userSpaceOnUse" gradientTransform="translate(38.4375 33.75) rotate(9.86581) scale(21.8861)">
<stop stop-color="#FFA64B"/>
<stop offset="0.900412" stop-color="#FFAE46" stop-opacity="0"/>
</radialGradient>
<radialGradient id="paint7_radial_667_1345" cx="0" cy="0" r="1" gradientUnits="userSpaceOnUse" gradientTransform="translate(32.8125 28.125) rotate(43.9708) scale(110.724)">
<stop offset="0.185425" stop-opacity="0"/>
<stop offset="1" stop-opacity="0.4"/>
</radialGradient>
<radialGradient id="paint8_radial_667_1345" cx="0" cy="0" r="1" gradientUnits="userSpaceOnUse" gradientTransform="translate(29.0621 41.25) rotate(-178.264) scale(30.9518 28.8632)">
<stop offset="0.0661917" stop-color="#FFEA67"/>
<stop offset="0.593499" stop-color="#FFC13F"/>
<stop offset="0.904482" stop-color="#DF9030"/>
</radialGradient>
<radialGradient id="paint9_radial_667_1345" cx="0" cy="0" r="1" gradientUnits="userSpaceOnUse" gradientTransform="translate(23.7221 18.3486) rotate(135) scale(19.1299 9.90094)">
<stop stop-color="#392108"/>
<stop offset="1" stop-color="#C87928" stop-opacity="0"/>
</radialGradient>
<radialGradient id="paint10_radial_667_1345" cx="0" cy="0" r="1" gradientUnits="userSpaceOnUse" gradientTransform="translate(42.2726 19.9539) rotate(133.664) scale(17.7754 10.0345)">
<stop stop-color="#392108"/>
<stop offset="1" stop-color="#C87928" stop-opacity="0"/>
</radialGradient>
<linearGradient id="paint11_linear_667_1345" x1="30.9375" y1="13.125" x2="29.0625" y2="26.25" gradientUnits="userSpaceOnUse">
<stop stop-color="#553B3E"/>
<stop offset="1" stop-color="#3D2432"/>
</linearGradient>
<radialGradient id="paint12_radial_667_1345" cx="0" cy="0" r="1" gradientUnits="userSpaceOnUse" gradientTransform="translate(29.0621 41.25) rotate(-178.264) scale(30.9518 28.8632)">
<stop offset="0.0661917" stop-color="#FFEA67"/>
<stop offset="0.593499" stop-color="#FFC13F"/>
<stop offset="0.904482" stop-color="#DF9030"/>
</radialGradient>
<radialGradient id="paint13_radial_667_1345" cx="0" cy="0" r="1" gradientUnits="userSpaceOnUse" gradientTransform="translate(19.6871 42.1875) rotate(172.235) scale(20.8159 21.3442)">
<stop offset="0.499571" stop-color="#FFEA67" stop-opacity="0"/>
<stop offset="0.851196" stop-color="#F9708E"/>
</radialGradient>
<linearGradient id="paint14_linear_667_1345" x1="23.4375" y1="45" x2="26.25" y2="47.8125" gradientUnits="userSpaceOnUse">
<stop stop-color="#FA9428"/>
<stop offset="1" stop-color="#FA9428" stop-opacity="0"/>
</linearGradient>
<linearGradient id="paint15_linear_667_1345" x1="21.5625" y1="53.4375" x2="24.375" y2="56.25" gradientUnits="userSpaceOnUse">
<stop stop-color="#FA9428"/>
<stop offset="1" stop-color="#FA9428" stop-opacity="0"/>
</linearGradient>
<linearGradient id="paint16_linear_667_1345" x1="21.5625" y1="49.6875" x2="24.375" y2="52.5" gradientUnits="userSpaceOnUse">
<stop stop-color="#FA9428"/>
<stop offset="1" stop-color="#FA9428" stop-opacity="0"/>
</linearGradient>
</defs>
</svg>
