<svg width="60" height="60" viewBox="0 0 60 60" fill="none" xmlns="http://www.w3.org/2000/svg">
<g clip-path="url(#clip0_671_2843)">
<mask id="mask0_671_2843" style="mask-type:luminance" maskUnits="userSpaceOnUse" x="0" y="0" width="60" height="60">
<path d="M60 0H0V60H60V0Z" fill="white"/>
</mask>
<g mask="url(#mask0_671_2843)">
<path d="M19.8408 25.721C22.0918 24.8924 24.2803 27.0809 23.4517 29.3318L18.5415 42.6713C18.0687 43.9557 16.4238 44.3172 15.4561 43.3493L5.8233 33.7165C4.85556 32.7488 5.21707 31.1039 6.50141 30.6312L19.8408 25.721Z" fill="url(#paint0_linear_671_2843)"/>
<path d="M19.8408 25.721C22.0918 24.8924 24.2803 27.0809 23.4517 29.3318L18.5415 42.6713C18.0687 43.9557 16.4238 44.3172 15.4561 43.3493L5.8233 33.7165C4.85556 32.7488 5.21707 31.1039 6.50141 30.6312L19.8408 25.721Z" fill="url(#paint1_radial_671_2843)"/>
<path d="M19.8408 25.721C22.0918 24.8924 24.2803 27.0809 23.4517 29.3318L18.5415 42.6713C18.0687 43.9557 16.4238 44.3172 15.4561 43.3493L5.8233 33.7165C4.85556 32.7488 5.21707 31.1039 6.50141 30.6312L19.8408 25.721Z" fill="url(#paint2_linear_671_2843)"/>
<path d="M31.0908 36.971C33.3418 36.1424 35.5303 38.3309 34.7017 40.5818L29.7914 53.9213C29.3188 55.2057 27.6738 55.5672 26.7061 54.5993L17.0733 44.9665C16.1056 43.9988 16.4671 42.3539 17.7514 41.8812L31.0908 36.971Z" fill="url(#paint3_linear_671_2843)"/>
<path d="M31.0908 36.971C33.3418 36.1424 35.5303 38.3309 34.7017 40.5818L29.7914 53.9213C29.3188 55.2057 27.6738 55.5672 26.7061 54.5993L17.0733 44.9665C16.1056 43.9988 16.4671 42.3539 17.7514 41.8812L31.0908 36.971Z" fill="url(#paint4_radial_671_2843)"/>
<path d="M31.0908 36.971C33.3418 36.1424 35.5303 38.3309 34.7017 40.5818L29.7914 53.9213C29.3188 55.2057 27.6738 55.5672 26.7061 54.5993L17.0733 44.9665C16.1056 43.9988 16.4671 42.3539 17.7514 41.8812L31.0908 36.971Z" fill="url(#paint5_radial_671_2843)"/>
<g filter="url(#filter0_i_671_2843)">
<path d="M41.9986 6.65806C42.1034 6.61539 42.2232 6.64029 42.3031 6.72069L53.3392 17.84C53.4185 17.9199 53.4427 18.039 53.4003 18.1432C50.7577 24.6297 47.1142 31.5297 42.2356 36.4084C37.4847 41.1591 29.4491 45.2084 22.1934 48.1859L11.8965 37.8891C14.874 30.6334 18.9232 22.5978 23.6741 17.8468C28.5676 12.9533 35.4948 9.30258 41.9986 6.65806Z" fill="url(#paint6_linear_671_2843)"/>
<path d="M41.9986 6.65806C42.1034 6.61539 42.2232 6.64029 42.3031 6.72069L53.3392 17.84C53.4185 17.9199 53.4427 18.039 53.4003 18.1432C50.7577 24.6297 47.1142 31.5297 42.2356 36.4084C37.4847 41.1591 29.4491 45.2084 22.1934 48.1859L11.8965 37.8891C14.874 30.6334 18.9232 22.5978 23.6741 17.8468C28.5676 12.9533 35.4948 9.30258 41.9986 6.65806Z" fill="url(#paint7_radial_671_2843)"/>
<path d="M41.9986 6.65806C42.1034 6.61539 42.2232 6.64029 42.3031 6.72069L53.3392 17.84C53.4185 17.9199 53.4427 18.039 53.4003 18.1432C50.7577 24.6297 47.1142 31.5297 42.2356 36.4084C37.4847 41.1591 29.4491 45.2084 22.1934 48.1859L11.8965 37.8891C14.874 30.6334 18.9232 22.5978 23.6741 17.8468C28.5676 12.9533 35.4948 9.30258 41.9986 6.65806Z" fill="url(#paint8_radial_671_2843)"/>
<path d="M41.9986 6.65806C42.1034 6.61539 42.2232 6.64029 42.3031 6.72069L53.3392 17.84C53.4185 17.9199 53.4427 18.039 53.4003 18.1432C50.7577 24.6297 47.1142 31.5297 42.2356 36.4084C37.4847 41.1591 29.4491 45.2084 22.1934 48.1859L11.8965 37.8891C14.874 30.6334 18.9232 22.5978 23.6741 17.8468C28.5676 12.9533 35.4948 9.30258 41.9986 6.65806Z" fill="url(#paint9_radial_671_2843)"/>
<path d="M41.9986 6.65806C42.1034 6.61539 42.2232 6.64029 42.3031 6.72069L53.3392 17.84C53.4185 17.9199 53.4427 18.039 53.4003 18.1432C50.7577 24.6297 47.1142 31.5297 42.2356 36.4084C37.4847 41.1591 29.4491 45.2084 22.1934 48.1859L11.8965 37.8891C14.874 30.6334 18.9232 22.5978 23.6741 17.8468C28.5676 12.9533 35.4948 9.30258 41.9986 6.65806Z" fill="url(#paint10_radial_671_2843)"/>
</g>
<g filter="url(#filter1_dii_671_2843)">
<path d="M45.9384 20.742C45.9384 24.2207 43.1184 27.0409 39.6395 27.0409C36.1608 27.0409 33.3408 24.2207 33.3408 20.742C33.3408 17.2632 36.1608 14.4431 39.6395 14.4431C43.1184 14.4431 45.9384 17.2632 45.9384 20.742Z" fill="url(#paint11_linear_671_2843)"/>
<path d="M45.9384 20.742C45.9384 24.2207 43.1184 27.0409 39.6395 27.0409C36.1608 27.0409 33.3408 24.2207 33.3408 20.742C33.3408 17.2632 36.1608 14.4431 39.6395 14.4431C43.1184 14.4431 45.9384 17.2632 45.9384 20.742Z" fill="url(#paint12_radial_671_2843)"/>
</g>
<path d="M43.9999 20.7419C43.9999 23.1504 42.0474 25.1026 39.639 25.1026C37.2308 25.1026 35.2783 23.1504 35.2783 20.7419C35.2783 18.3336 37.2308 16.3812 39.639 16.3812C42.0474 16.3812 43.9999 18.3336 43.9999 20.7419Z" fill="url(#paint13_radial_671_2843)"/>
<g filter="url(#filter2_i_671_2843)">
<path d="M4.54466 55.3736C3.21883 54.0478 3.75073 44.8532 8.4382 42.9782C8.4382 42.9782 13.1257 41.1032 16.1463 44.1043C19.1669 47.1054 17.8132 50.4782 17.8132 50.4782C16.4874 54.4556 10.843 56.0366 10.1801 55.3738C9.81399 55.0076 10.4733 54.341 10.1801 54.048C9.88697 53.7547 9.43433 54.0894 8.19139 54.7108C7.30751 55.1527 5.07499 55.904 4.54466 55.3736Z" fill="url(#paint14_radial_671_2843)"/>
<path d="M4.54466 55.3736C3.21883 54.0478 3.75073 44.8532 8.4382 42.9782C8.4382 42.9782 13.1257 41.1032 16.1463 44.1043C19.1669 47.1054 17.8132 50.4782 17.8132 50.4782C16.4874 54.4556 10.843 56.0366 10.1801 55.3738C9.81399 55.0076 10.4733 54.341 10.1801 54.048C9.88697 53.7547 9.43433 54.0894 8.19139 54.7108C7.30751 55.1527 5.07499 55.904 4.54466 55.3736Z" fill="url(#paint15_radial_671_2843)"/>
</g>
<path d="M11.3638 39.3421C12.4621 38.2437 14.2429 38.2437 15.3413 39.3421L21.9704 45.9712C23.0688 47.0695 23.0688 48.8504 21.9704 49.9488C20.872 51.0472 19.0913 51.0472 17.9929 49.9488L11.3638 43.3195C10.2655 42.2212 10.2655 40.4405 11.3638 39.3421Z" fill="url(#paint16_linear_671_2843)"/>
<path d="M11.3638 39.3421C12.4621 38.2437 14.2429 38.2437 15.3413 39.3421L21.9704 45.9712C23.0688 47.0695 23.0688 48.8504 21.9704 49.9488C20.872 51.0472 19.0913 51.0472 17.9929 49.9488L11.3638 43.3195C10.2655 42.2212 10.2655 40.4405 11.3638 39.3421Z" fill="url(#paint17_radial_671_2843)"/>
<path d="M11.3638 39.3421C12.4621 38.2437 14.2429 38.2437 15.3413 39.3421L21.9704 45.9712C23.0688 47.0695 23.0688 48.8504 21.9704 49.9488C20.872 51.0472 19.0913 51.0472 17.9929 49.9488L11.3638 43.3195C10.2655 42.2212 10.2655 40.4405 11.3638 39.3421Z" fill="url(#paint18_radial_671_2843)"/>
<path d="M54.6982 5.38404C52.9224 3.60825 49.8082 3.80927 47.5387 4.58858C45.9093 5.14809 44.1969 5.77568 42.4496 6.47597C42.3251 6.52583 42.2921 6.68646 42.3866 6.78158L53.2784 17.7482C53.3731 17.8437 53.5347 17.8111 53.5848 17.6862C54.2937 15.9203 54.9284 14.1896 55.4937 12.5435C56.2625 10.3044 56.8809 7.56677 54.6982 5.38404Z" fill="url(#paint19_linear_671_2843)"/>
<path d="M54.6982 5.38404C52.9224 3.60825 49.8082 3.80927 47.5387 4.58858C45.9093 5.14809 44.1969 5.77568 42.4496 6.47597C42.3251 6.52583 42.2921 6.68646 42.3866 6.78158L53.2784 17.7482C53.3731 17.8437 53.5347 17.8111 53.5848 17.6862C54.2937 15.9203 54.9284 14.1896 55.4937 12.5435C56.2625 10.3044 56.8809 7.56677 54.6982 5.38404Z" fill="url(#paint20_radial_671_2843)"/>
<path d="M54.6982 5.38404C52.9224 3.60825 49.8082 3.80927 47.5387 4.58858C45.9093 5.14809 44.1969 5.77568 42.4496 6.47597C42.3251 6.52583 42.2921 6.68646 42.3866 6.78158L53.2784 17.7482C53.3731 17.8437 53.5347 17.8111 53.5848 17.6862C54.2937 15.9203 54.9284 14.1896 55.4937 12.5435C56.2625 10.3044 56.8809 7.56677 54.6982 5.38404Z" fill="url(#paint21_linear_671_2843)"/>
<path d="M25.4658 31.346C27.7168 30.5174 29.9053 32.7059 29.0767 34.9568L24.1664 48.2963C23.6938 49.5807 22.0488 49.9422 21.0811 48.9743L11.4483 39.3415C10.4806 38.3738 10.8421 36.7289 12.1264 36.2562L25.4658 31.346Z" fill="url(#paint22_linear_671_2843)"/>
<path d="M25.4658 31.346C27.7168 30.5174 29.9053 32.7059 29.0767 34.9568L24.1664 48.2963C23.6938 49.5807 22.0488 49.9422 21.0811 48.9743L11.4483 39.3415C10.4806 38.3738 10.8421 36.7289 12.1264 36.2562L25.4658 31.346Z" fill="url(#paint23_radial_671_2843)"/>
<path d="M25.4658 31.346C27.7168 30.5174 29.9053 32.7059 29.0767 34.9568L24.1664 48.2963C23.6938 49.5807 22.0488 49.9422 21.0811 48.9743L11.4483 39.3415C10.4806 38.3738 10.8421 36.7289 12.1264 36.2562L25.4658 31.346Z" fill="url(#paint24_radial_671_2843)"/>
<path d="M25.4658 31.346C27.7168 30.5174 29.9053 32.7059 29.0767 34.9568L24.1664 48.2963C23.6938 49.5807 22.0488 49.9422 21.0811 48.9743L11.4483 39.3415C10.4806 38.3738 10.8421 36.7289 12.1264 36.2562L25.4658 31.346Z" fill="url(#paint25_radial_671_2843)"/>
<g filter="url(#filter3_f_671_2843)">
<path d="M17.2598 41.3377L27.8067 33.0759L21.0099 45.1462L17.2598 41.3377Z" fill="url(#paint26_linear_671_2843)"/>
</g>
</g>
</g>
<defs>
<filter id="filter0_i_671_2843" x="11.4277" y="5.69995" width="41.9932" height="42.486" filterUnits="userSpaceOnUse" color-interpolation-filters="sRGB">
<feFlood flood-opacity="0" result="BackgroundImageFix"/>
<feBlend mode="normal" in="SourceGraphic" in2="BackgroundImageFix" result="shape"/>
<feColorMatrix in="SourceAlpha" type="matrix" values="0 0 0 0 0 0 0 0 0 0 0 0 0 0 0 0 0 0 127 0" result="hardAlpha"/>
<feOffset dx="-0.46875" dy="-0.9375"/>
<feGaussianBlur stdDeviation="1.40625"/>
<feComposite in2="hardAlpha" operator="arithmetic" k2="-1" k3="1"/>
<feColorMatrix type="matrix" values="0 0 0 0 0.745098 0 0 0 0 0.772549 0 0 0 0 0.952941 0 0 0 1 0"/>
<feBlend mode="normal" in2="shape" result="effect1_innerShadow_671_2843"/>
</filter>
<filter id="filter1_dii_671_2843" x="31.4658" y="13.0369" width="16.3477" height="16.3478" filterUnits="userSpaceOnUse" color-interpolation-filters="sRGB">
<feFlood flood-opacity="0" result="BackgroundImageFix"/>
<feColorMatrix in="SourceAlpha" type="matrix" values="0 0 0 0 0 0 0 0 0 0 0 0 0 0 0 0 0 0 127 0" result="hardAlpha"/>
<feOffset dy="0.46875"/>
<feGaussianBlur stdDeviation="0.9375"/>
<feComposite in2="hardAlpha" operator="out"/>
<feColorMatrix type="matrix" values="0 0 0 0 0.866667 0 0 0 0 0.764706 0 0 0 0 0.847059 0 0 0 1 0"/>
<feBlend mode="normal" in2="BackgroundImageFix" result="effect1_dropShadow_671_2843"/>
<feBlend mode="normal" in="SourceGraphic" in2="effect1_dropShadow_671_2843" result="shape"/>
<feColorMatrix in="SourceAlpha" type="matrix" values="0 0 0 0 0 0 0 0 0 0 0 0 0 0 0 0 0 0 127 0" result="hardAlpha"/>
<feOffset dx="-0.1875" dy="0.1875"/>
<feGaussianBlur stdDeviation="0.09375"/>
<feComposite in2="hardAlpha" operator="arithmetic" k2="-1" k3="1"/>
<feColorMatrix type="matrix" values="0 0 0 0 0.721569 0 0 0 0 0.690196 0 0 0 0 0.701961 0 0 0 1 0"/>
<feBlend mode="normal" in2="shape" result="effect2_innerShadow_671_2843"/>
<feColorMatrix in="SourceAlpha" type="matrix" values="0 0 0 0 0 0 0 0 0 0 0 0 0 0 0 0 0 0 127 0" result="hardAlpha"/>
<feOffset dx="0.1875" dy="-0.1875"/>
<feGaussianBlur stdDeviation="0.09375"/>
<feComposite in2="hardAlpha" operator="arithmetic" k2="-1" k3="1"/>
<feColorMatrix type="matrix" values="0 0 0 0 0.615686 0 0 0 0 0.560784 0 0 0 0 0.65098 0 0 0 1 0"/>
<feBlend mode="normal" in2="effect2_innerShadow_671_2843" result="effect3_innerShadow_671_2843"/>
</filter>
<filter id="filter2_i_671_2843" x="3.91504" y="42.0247" width="14.2002" height="13.5314" filterUnits="userSpaceOnUse" color-interpolation-filters="sRGB">
<feFlood flood-opacity="0" result="BackgroundImageFix"/>
<feBlend mode="normal" in="SourceGraphic" in2="BackgroundImageFix" result="shape"/>
<feColorMatrix in="SourceAlpha" type="matrix" values="0 0 0 0 0 0 0 0 0 0 0 0 0 0 0 0 0 0 127 0" result="hardAlpha"/>
<feOffset dy="-0.375"/>
<feGaussianBlur stdDeviation="0.375"/>
<feComposite in2="hardAlpha" operator="arithmetic" k2="-1" k3="1"/>
<feColorMatrix type="matrix" values="0 0 0 0 0.847059 0 0 0 0 0.505882 0 0 0 0 0.360784 0 0 0 1 0"/>
<feBlend mode="normal" in2="shape" result="effect1_innerShadow_671_2843"/>
</filter>
<filter id="filter3_f_671_2843" x="15.3848" y="31.2009" width="14.2969" height="15.8203" filterUnits="userSpaceOnUse" color-interpolation-filters="sRGB">
<feFlood flood-opacity="0" result="BackgroundImageFix"/>
<feBlend mode="normal" in="SourceGraphic" in2="BackgroundImageFix" result="shape"/>
<feGaussianBlur stdDeviation="0.9375" result="effect1_foregroundBlur_671_2843"/>
</filter>
<linearGradient id="paint0_linear_671_2843" x1="15.2084" y1="32.4522" x2="5.83344" y2="30.9079" gradientUnits="userSpaceOnUse">
<stop stop-color="#EE2452"/>
<stop offset="1" stop-color="#F63E7A"/>
</linearGradient>
<radialGradient id="paint1_radial_671_2843" cx="0" cy="0" r="1" gradientUnits="userSpaceOnUse" gradientTransform="translate(4.49591 31.9932) rotate(-19.9576) scale(15.0031 2.55084)">
<stop offset="0.163866" stop-color="#FF8DB0"/>
<stop offset="1" stop-color="#FF8DB0" stop-opacity="0"/>
</radialGradient>
<linearGradient id="paint2_linear_671_2843" x1="9.19693" y1="36.9996" x2="10.7256" y2="35.5092" gradientUnits="userSpaceOnUse">
<stop offset="0.491189" stop-color="#DD467C"/>
<stop offset="1" stop-color="#DD467C" stop-opacity="0"/>
</linearGradient>
<linearGradient id="paint3_linear_671_2843" x1="33.5482" y1="40.6345" x2="21.8896" y2="49.783" gradientUnits="userSpaceOnUse">
<stop stop-color="#F83267"/>
<stop offset="1" stop-color="#FF3190"/>
</linearGradient>
<radialGradient id="paint4_radial_671_2843" cx="0" cy="0" r="1" gradientUnits="userSpaceOnUse" gradientTransform="translate(27.3373 41.6305) rotate(86.482) scale(14.3233 12.3489)">
<stop offset="0.756562" stop-color="#E76CBE" stop-opacity="0"/>
<stop offset="0.951296" stop-color="#E76CBE"/>
</radialGradient>
<radialGradient id="paint5_radial_671_2843" cx="0" cy="0" r="1" gradientUnits="userSpaceOnUse" gradientTransform="translate(25.2279 49.1892) rotate(-57.3464) scale(9.88221 4.34076)">
<stop stop-color="#FF5898"/>
<stop offset="1" stop-color="#FF5898" stop-opacity="0"/>
</radialGradient>
<linearGradient id="paint6_linear_671_2843" x1="25.2864" y1="16.2595" x2="41.8098" y2="32.9001" gradientUnits="userSpaceOnUse">
<stop stop-color="#CCBBC0"/>
<stop offset="1" stop-color="#EAD2EC"/>
</linearGradient>
<radialGradient id="paint7_radial_671_2843" cx="0" cy="0" r="1" gradientUnits="userSpaceOnUse" gradientTransform="translate(44.9429 40.4571) rotate(-142.447) scale(31.2692 58.7781)">
<stop offset="0.811143" stop-color="#E7E5E5" stop-opacity="0"/>
<stop offset="1" stop-color="#E7E5E5"/>
</radialGradient>
<radialGradient id="paint8_radial_671_2843" cx="0" cy="0" r="1" gradientUnits="userSpaceOnUse" gradientTransform="translate(17.2154 39.9556) rotate(-56.9293) scale(18.3821 8.63944)">
<stop offset="0.281006" stop-color="#B5A3A5"/>
<stop offset="1" stop-color="#B5A3A5" stop-opacity="0"/>
</radialGradient>
<radialGradient id="paint9_radial_671_2843" cx="0" cy="0" r="1" gradientUnits="userSpaceOnUse" gradientTransform="translate(11.8965 37.6707) rotate(-73.625) scale(16.296 2.76131)">
<stop offset="0.207885" stop-color="#B28F96"/>
<stop offset="1" stop-color="#B28F96" stop-opacity="0"/>
</radialGradient>
<radialGradient id="paint10_radial_671_2843" cx="0" cy="0" r="1" gradientUnits="userSpaceOnUse" gradientTransform="translate(50.8332 13.3298) rotate(137.284) scale(24.7031 7.67004)">
<stop stop-color="#FAECF1"/>
<stop offset="1" stop-color="#FAECF1" stop-opacity="0"/>
</radialGradient>
<linearGradient id="paint11_linear_671_2843" x1="33.3408" y1="19.6712" x2="45.9384" y2="20.742" gradientUnits="userSpaceOnUse">
<stop stop-color="#A796A0"/>
<stop offset="1" stop-color="#A5959F"/>
</linearGradient>
<radialGradient id="paint12_radial_671_2843" cx="0" cy="0" r="1" gradientUnits="userSpaceOnUse" gradientTransform="translate(39.6395 20.742) rotate(90) scale(6.29884)">
<stop offset="0.586538" stop-color="#93859B"/>
<stop offset="1" stop-color="#93859B" stop-opacity="0"/>
</radialGradient>
<radialGradient id="paint13_radial_671_2843" cx="0" cy="0" r="1" gradientUnits="userSpaceOnUse" gradientTransform="translate(39.639 25.1026) rotate(-90) scale(9.08548 8.35549)">
<stop stop-color="#72CDFF"/>
<stop offset="0.738019" stop-color="#66ACFF"/>
<stop offset="1" stop-color="#3B57F4"/>
</radialGradient>
<radialGradient id="paint14_radial_671_2843" cx="0" cy="0" r="1" gradientUnits="userSpaceOnUse" gradientTransform="translate(15.3591 45.4609) rotate(135) scale(10.8871 8.55752)">
<stop stop-color="#D46213"/>
<stop offset="1" stop-color="#FF9542"/>
</radialGradient>
<radialGradient id="paint15_radial_671_2843" cx="0" cy="0" r="1" gradientUnits="userSpaceOnUse" gradientTransform="translate(15.57 54.3193) rotate(-131.186) scale(13.4522 14.1764)">
<stop offset="0.870944" stop-color="#FFC484" stop-opacity="0"/>
<stop offset="1" stop-color="#FFC484"/>
</radialGradient>
<linearGradient id="paint16_linear_671_2843" x1="10.8721" y1="41.162" x2="21.1846" y2="51.2988" gradientUnits="userSpaceOnUse">
<stop stop-color="#452860"/>
<stop offset="1" stop-color="#51509F"/>
</linearGradient>
<radialGradient id="paint17_radial_671_2843" cx="0" cy="0" r="1" gradientUnits="userSpaceOnUse" gradientTransform="translate(12.8057 40.2245) rotate(77.8285) scale(3.057 2.70094)">
<stop stop-color="#8E839A"/>
<stop offset="1" stop-color="#8E839A" stop-opacity="0"/>
</radialGradient>
<radialGradient id="paint18_radial_671_2843" cx="0" cy="0" r="1" gradientUnits="userSpaceOnUse" gradientTransform="translate(13.513 42.0337) rotate(47.9357) scale(11.6481 6.10569)">
<stop offset="0.860492" stop-color="#6175B9" stop-opacity="0"/>
<stop offset="1" stop-color="#6175B9"/>
</radialGradient>
<linearGradient id="paint19_linear_671_2843" x1="54.7064" y1="5.39226" x2="47.8137" y2="12.2849" gradientUnits="userSpaceOnUse">
<stop stop-color="#FF3745"/>
<stop offset="1" stop-color="#ED224B"/>
</linearGradient>
<radialGradient id="paint20_radial_671_2843" cx="0" cy="0" r="1" gradientUnits="userSpaceOnUse" gradientTransform="translate(53.8848 8.15143) rotate(135) scale(15.4627 3.71194)">
<stop offset="0.189394" stop-color="#FF5971"/>
<stop offset="1" stop-color="#FF5971" stop-opacity="0"/>
</radialGradient>
<linearGradient id="paint21_linear_671_2843" x1="48.416" y1="12.7439" x2="49.1045" y2="12.0262" gradientUnits="userSpaceOnUse">
<stop stop-color="#D2575E"/>
<stop offset="1" stop-color="#F93251" stop-opacity="0"/>
</linearGradient>
<linearGradient id="paint22_linear_671_2843" x1="28.4261" y1="31.9966" x2="16.2647" y2="44.158" gradientUnits="userSpaceOnUse">
<stop stop-color="#FF2644"/>
<stop offset="1" stop-color="#FF2982"/>
</linearGradient>
<radialGradient id="paint23_radial_671_2843" cx="0" cy="0" r="1" gradientUnits="userSpaceOnUse" gradientTransform="translate(11.6928 36.4158) rotate(-20.8651) scale(13.9834 3.66073)">
<stop stop-color="#FF95AF"/>
<stop offset="1" stop-color="#FF95AF" stop-opacity="0"/>
</radialGradient>
<radialGradient id="paint24_radial_671_2843" cx="0" cy="0" r="1" gradientUnits="userSpaceOnUse" gradientTransform="translate(10.1209 38.0772) rotate(44.7044) scale(8.64414 2.55341)">
<stop offset="0.381871" stop-color="#E14678"/>
<stop offset="1" stop-color="#E14678" stop-opacity="0"/>
</radialGradient>
<radialGradient id="paint25_radial_671_2843" cx="0" cy="0" r="1" gradientUnits="userSpaceOnUse" gradientTransform="translate(21.7123 35.8883) rotate(84.6743) scale(13.8881 14.7998)">
<stop offset="0.831791" stop-color="#E67BC7" stop-opacity="0"/>
<stop offset="1" stop-color="#E67BC7"/>
</radialGradient>
<linearGradient id="paint26_linear_671_2843" x1="26.2246" y1="33.9549" x2="18.4902" y2="42.0409" gradientUnits="userSpaceOnUse">
<stop stop-color="#FF5970"/>
<stop offset="1" stop-color="#FF5794"/>
</linearGradient>
<clipPath id="clip0_671_2843">
<rect width="60" height="60" fill="white"/>
</clipPath>
</defs>
</svg>
