<svg width="60" height="60" viewBox="0 0 60 60" fill="none" xmlns="http://www.w3.org/2000/svg">
<g filter="url(#filter0_ii_670_2420)">
<path d="M55.2709 5.81186C55.2709 4.45775 54.0835 3.4104 52.74 3.57947L21.549 7.50459C20.424 7.64617 19.5801 8.60297 19.5801 9.73698V45.9209H27.351V18.7906C27.351 17.8457 28.0543 17.0484 28.9918 16.9304L45.3908 14.8667C46.5105 14.7258 47.5 15.5986 47.5 16.727V39.0069H55.2709V5.81186Z" fill="url(#paint0_linear_670_2420)"/>
</g>
<path d="M55.2709 5.81186C55.2709 4.45775 54.0835 3.4104 52.74 3.57947L21.549 7.50459C20.424 7.64617 19.5801 8.60297 19.5801 9.73698V45.9209H27.351V18.7906C27.351 17.8457 28.0543 17.0484 28.9918 16.9304L45.3908 14.8667C46.5105 14.7258 47.5 15.5986 47.5 16.727V39.0069H55.2709V5.81186Z" fill="url(#paint1_linear_670_2420)"/>
<path d="M55.2709 5.81186C55.2709 4.45775 54.0835 3.4104 52.74 3.57947L21.549 7.50459C20.424 7.64617 19.5801 8.60297 19.5801 9.73698V45.9209H27.351V18.7906C27.351 17.8457 28.0543 17.0484 28.9918 16.9304L45.3908 14.8667C46.5105 14.7258 47.5 15.5986 47.5 16.727V39.0069H55.2709V5.81186Z" fill="url(#paint2_radial_670_2420)"/>
<path d="M55.2709 5.81186C55.2709 4.45775 54.0835 3.4104 52.74 3.57947L21.549 7.50459C20.424 7.64617 19.5801 8.60297 19.5801 9.73698V45.9209H27.351V18.7906C27.351 17.8457 28.0543 17.0484 28.9918 16.9304L45.3908 14.8667C46.5105 14.7258 47.5 15.5986 47.5 16.727V39.0069H55.2709V5.81186Z" fill="url(#paint3_radial_670_2420)"/>
<path d="M55.2709 5.81186C55.2709 4.45775 54.0835 3.4104 52.74 3.57947L21.549 7.50459C20.424 7.64617 19.5801 8.60297 19.5801 9.73698V45.9209H27.351V18.7906C27.351 17.8457 28.0543 17.0484 28.9918 16.9304L45.3908 14.8667C46.5105 14.7258 47.5 15.5986 47.5 16.727V39.0069H55.2709V5.81186Z" fill="url(#paint4_radial_670_2420)"/>
<path d="M16.2114 56.4385C22.364 56.4385 27.3516 51.4509 27.3516 45.2983C27.3516 39.1458 22.364 34.1582 16.2114 34.1582C10.0589 34.1582 5.07129 39.1458 5.07129 45.2983C5.07129 51.4509 10.0589 56.4385 16.2114 56.4385Z" fill="url(#paint5_radial_670_2420)"/>
<path d="M16.2114 56.4385C22.364 56.4385 27.3516 51.4509 27.3516 45.2983C27.3516 39.1458 22.364 34.1582 16.2114 34.1582C10.0589 34.1582 5.07129 39.1458 5.07129 45.2983C5.07129 51.4509 10.0589 56.4385 16.2114 56.4385Z" fill="url(#paint6_radial_670_2420)"/>
<path d="M16.2114 56.4385C22.364 56.4385 27.3516 51.4509 27.3516 45.2983C27.3516 39.1458 22.364 34.1582 16.2114 34.1582C10.0589 34.1582 5.07129 39.1458 5.07129 45.2983C5.07129 51.4509 10.0589 56.4385 16.2114 56.4385Z" fill="url(#paint7_radial_670_2420)"/>
<path d="M16.2114 56.4385C22.364 56.4385 27.3516 51.4509 27.3516 45.2983C27.3516 39.1458 22.364 34.1582 16.2114 34.1582C10.0589 34.1582 5.07129 39.1458 5.07129 45.2983C5.07129 51.4509 10.0589 56.4385 16.2114 56.4385Z" fill="url(#paint8_radial_670_2420)"/>
<path d="M16.2114 56.4385C22.364 56.4385 27.3516 51.4509 27.3516 45.2983C27.3516 39.1458 22.364 34.1582 16.2114 34.1582C10.0589 34.1582 5.07129 39.1458 5.07129 45.2983C5.07129 51.4509 10.0589 56.4385 16.2114 56.4385Z" fill="url(#paint9_radial_670_2420)"/>
<path d="M44.1314 50.0811C50.2839 50.0811 55.2715 45.0935 55.2715 38.9409C55.2715 32.7884 50.2839 27.8008 44.1314 27.8008C37.9788 27.8008 32.9912 32.7884 32.9912 38.9409C32.9912 45.0935 37.9788 50.0811 44.1314 50.0811Z" fill="url(#paint10_radial_670_2420)"/>
<path d="M44.1314 50.0811C50.2839 50.0811 55.2715 45.0935 55.2715 38.9409C55.2715 32.7884 50.2839 27.8008 44.1314 27.8008C37.9788 27.8008 32.9912 32.7884 32.9912 38.9409C32.9912 45.0935 37.9788 50.0811 44.1314 50.0811Z" fill="url(#paint11_radial_670_2420)"/>
<path d="M44.1314 50.0811C50.2839 50.0811 55.2715 45.0935 55.2715 38.9409C55.2715 32.7884 50.2839 27.8008 44.1314 27.8008C37.9788 27.8008 32.9912 32.7884 32.9912 38.9409C32.9912 45.0935 37.9788 50.0811 44.1314 50.0811Z" fill="url(#paint12_radial_670_2420)"/>
<path d="M44.1314 50.0811C50.2839 50.0811 55.2715 45.0935 55.2715 38.9409C55.2715 32.7884 50.2839 27.8008 44.1314 27.8008C37.9788 27.8008 32.9912 32.7884 32.9912 38.9409C32.9912 45.0935 37.9788 50.0811 44.1314 50.0811Z" fill="url(#paint13_radial_670_2420)"/>
<defs>
<filter id="filter0_ii_670_2420" x="18.1738" y="3.56152" width="38.5029" height="43.7656" filterUnits="userSpaceOnUse" color-interpolation-filters="sRGB">
<feFlood flood-opacity="0" result="BackgroundImageFix"/>
<feBlend mode="normal" in="SourceGraphic" in2="BackgroundImageFix" result="shape"/>
<feColorMatrix in="SourceAlpha" type="matrix" values="0 0 0 0 0 0 0 0 0 0 0 0 0 0 0 0 0 0 127 0" result="hardAlpha"/>
<feOffset dx="1.875" dy="1.875"/>
<feGaussianBlur stdDeviation="0.703125"/>
<feComposite in2="hardAlpha" operator="arithmetic" k2="-1" k3="1"/>
<feColorMatrix type="matrix" values="0 0 0 0 0.235294 0 0 0 0 0.211765 0 0 0 0 0.266667 0 0 0 1 0"/>
<feBlend mode="normal" in2="shape" result="effect1_innerShadow_670_2420"/>
<feColorMatrix in="SourceAlpha" type="matrix" values="0 0 0 0 0 0 0 0 0 0 0 0 0 0 0 0 0 0 127 0" result="hardAlpha"/>
<feOffset dx="-1.875"/>
<feGaussianBlur stdDeviation="0.703125"/>
<feComposite in2="hardAlpha" operator="arithmetic" k2="-1" k3="1"/>
<feColorMatrix type="matrix" values="0 0 0 0 0.317647 0 0 0 0 0.298039 0 0 0 0 0.341176 0 0 0 1 0"/>
<feBlend mode="normal" in2="effect1_innerShadow_670_2420" result="effect2_innerShadow_670_2420"/>
</filter>
<linearGradient id="paint0_linear_670_2420" x1="37.4254" y1="15.3467" x2="37.4254" y2="45.9209" gradientUnits="userSpaceOnUse">
<stop stop-color="#473B53"/>
<stop offset="1" stop-color="#433D4A"/>
</linearGradient>
<linearGradient id="paint1_linear_670_2420" x1="19.3322" y1="32.4761" x2="21.6308" y2="32.4761" gradientUnits="userSpaceOnUse">
<stop stop-color="#7E7C80"/>
<stop offset="1" stop-color="#39373D" stop-opacity="0"/>
</linearGradient>
<radialGradient id="paint2_radial_670_2420" cx="0" cy="0" r="1" gradientUnits="userSpaceOnUse" gradientTransform="translate(54.7585 4.1642) rotate(137.021) scale(4.38844 1.34432)">
<stop stop-color="#635A6D"/>
<stop offset="1" stop-color="#635A6D" stop-opacity="0"/>
</radialGradient>
<radialGradient id="paint3_radial_670_2420" cx="0" cy="0" r="1" gradientUnits="userSpaceOnUse" gradientTransform="translate(51.2207 32.3731) rotate(-51.1467) scale(2.70864 8.02583)">
<stop offset="0.582086" stop-color="#535254"/>
<stop offset="1" stop-color="#535254" stop-opacity="0"/>
</radialGradient>
<radialGradient id="paint4_radial_670_2420" cx="0" cy="0" r="1" gradientUnits="userSpaceOnUse" gradientTransform="translate(23.3886 38.2325) rotate(-47.1211) scale(2.79859 7.61981)">
<stop offset="0.381918" stop-color="#4F4D50"/>
<stop offset="1" stop-color="#4F4D50" stop-opacity="0"/>
</radialGradient>
<radialGradient id="paint5_radial_670_2420" cx="0" cy="0" r="1" gradientUnits="userSpaceOnUse" gradientTransform="translate(16.2114 55.3125) rotate(-90) scale(12.6563 17.4023)">
<stop stop-color="#442B58"/>
<stop offset="1" stop-color="#38353B"/>
</radialGradient>
<radialGradient id="paint6_radial_670_2420" cx="0" cy="0" r="1" gradientUnits="userSpaceOnUse" gradientTransform="translate(22.0121 42.1875) rotate(130.389) scale(10.3085)">
<stop stop-color="#5A585C"/>
<stop offset="1" stop-color="#5A585C" stop-opacity="0"/>
</radialGradient>
<radialGradient id="paint7_radial_670_2420" cx="0" cy="0" r="1" gradientUnits="userSpaceOnUse" gradientTransform="translate(20.3715 46.1719) rotate(-169.765) scale(17.1479 17.63)">
<stop offset="0.619372" stop-color="#5C5C5C" stop-opacity="0"/>
<stop offset="1" stop-color="#828282"/>
</radialGradient>
<radialGradient id="paint8_radial_670_2420" cx="0" cy="0" r="1" gradientUnits="userSpaceOnUse" gradientTransform="translate(13.6829 45.2983) scale(15.3574 20.4124)">
<stop offset="0.796178" stop-color="#575658" stop-opacity="0"/>
<stop offset="0.955414" stop-color="#575658"/>
</radialGradient>
<radialGradient id="paint9_radial_670_2420" cx="0" cy="0" r="1" gradientUnits="userSpaceOnUse" gradientTransform="translate(16.2114 44.2279) rotate(90) scale(12.6627 12.837)">
<stop offset="0.880531" stop-color="#64487C" stop-opacity="0"/>
<stop offset="1" stop-color="#64487C"/>
</radialGradient>
<radialGradient id="paint10_radial_670_2420" cx="0" cy="0" r="1" gradientUnits="userSpaceOnUse" gradientTransform="translate(44.1314 48.9549) rotate(-90) scale(12.6563 17.4023)">
<stop offset="0.162324" stop-color="#442B58"/>
<stop offset="1" stop-color="#38353B"/>
</radialGradient>
<radialGradient id="paint11_radial_670_2420" cx="0" cy="0" r="1" gradientUnits="userSpaceOnUse" gradientTransform="translate(52.188 36.0351) rotate(139.445) scale(11.7606 10.2318)">
<stop stop-color="#5F5F60"/>
<stop offset="1" stop-color="#5F5F60" stop-opacity="0"/>
</radialGradient>
<radialGradient id="paint12_radial_670_2420" cx="0" cy="0" r="1" gradientUnits="userSpaceOnUse" gradientTransform="translate(41.6029 38.9409) scale(15.3574 20.4124)">
<stop offset="0.796178" stop-color="#575658" stop-opacity="0"/>
<stop offset="0.955414" stop-color="#575658"/>
</radialGradient>
<radialGradient id="paint13_radial_670_2420" cx="0" cy="0" r="1" gradientUnits="userSpaceOnUse" gradientTransform="translate(44.1314 37.8705) rotate(90) scale(12.6627 12.837)">
<stop offset="0.880531" stop-color="#64487C" stop-opacity="0"/>
<stop offset="1" stop-color="#64487C"/>
</radialGradient>
</defs>
</svg>
