<svg width="60" height="60" viewBox="0 0 60 60" fill="none" xmlns="http://www.w3.org/2000/svg">
<g filter="url(#filter0_iiii_671_2538)">
<path d="M46.2599 6.72412H13.7402C8.30368 6.72412 3.89648 11.1313 3.89648 16.5679V45.6161C3.89648 51.0527 8.30368 55.4599 13.7402 55.4599H46.2599C51.6964 55.4599 56.1036 51.0527 56.1036 45.6161V16.5679C56.1036 11.1313 51.6964 6.72412 46.2599 6.72412Z" fill="url(#paint0_linear_671_2538)"/>
</g>
<path d="M56.1036 19.4976H3.89648V16.2866C3.89648 11.0054 8.17773 6.72412 13.4589 6.72412H46.5411C51.8222 6.72412 56.1036 11.0054 56.1036 16.2866V19.4976Z" fill="url(#paint1_linear_671_2538)"/>
<path d="M56.1036 19.4976H3.89648V16.2866C3.89648 11.0054 8.17773 6.72412 13.4589 6.72412H46.5411C51.8222 6.72412 56.1036 11.0054 56.1036 16.2866V19.4976Z" fill="url(#paint2_linear_671_2538)"/>
<path d="M56.1036 19.4976H3.89648V16.2866C3.89648 11.0054 8.17773 6.72412 13.4589 6.72412H46.5411C51.8222 6.72412 56.1036 11.0054 56.1036 16.2866V19.4976Z" fill="url(#paint3_radial_671_2538)"/>
<path d="M56.1036 19.4976H3.89648V16.2866C3.89648 11.0054 8.17773 6.72412 13.4589 6.72412H46.5411C51.8222 6.72412 56.1036 11.0054 56.1036 16.2866V19.4976Z" fill="url(#paint4_linear_671_2538)"/>
<g filter="url(#filter1_ii_671_2538)">
<path d="M56.1033 37.8943V45.8972C56.1033 51.1783 51.8219 55.4597 46.5408 55.4597H38.4307L56.1033 37.8943Z" fill="#D3CBDD"/>
</g>
<g filter="url(#filter2_dii_671_2538)">
<path d="M21.126 24.771H16.2422C16.1386 24.771 16.0547 24.8549 16.0547 24.9585V29.8423C16.0547 29.9458 16.1386 30.0298 16.2422 30.0298H21.126C21.2295 30.0298 21.3135 29.9458 21.3135 29.8423V24.9585C21.3135 24.8549 21.2295 24.771 21.126 24.771Z" fill="#9896A1"/>
</g>
<g filter="url(#filter3_dii_671_2538)">
<path d="M32.3545 24.771H27.4707C27.3671 24.771 27.2832 24.8549 27.2832 24.9585V29.8423C27.2832 29.9458 27.3671 30.0298 27.4707 30.0298H32.3545C32.458 30.0298 32.542 29.9458 32.542 29.8423V24.9585C32.542 24.8549 32.458 24.771 32.3545 24.771Z" fill="#9896A1"/>
</g>
<g filter="url(#filter4_dii_671_2538)">
<path d="M43.582 24.771H38.6982C38.5947 24.771 38.5107 24.8549 38.5107 24.9585V29.8423C38.5107 29.9458 38.5947 30.0298 38.6982 30.0298H43.582C43.6856 30.0298 43.7695 29.9458 43.7695 29.8423V24.9585C43.7695 24.8549 43.6856 24.771 43.582 24.771Z" fill="#9896A1"/>
</g>
<g filter="url(#filter5_dii_671_2538)">
<path d="M21.126 34.146H16.2422C16.1386 34.146 16.0547 34.2299 16.0547 34.3335V39.2173C16.0547 39.3208 16.1386 39.4048 16.2422 39.4048H21.126C21.2295 39.4048 21.3135 39.3208 21.3135 39.2173V34.3335C21.3135 34.2299 21.2295 34.146 21.126 34.146Z" fill="#9896A1"/>
</g>
<g filter="url(#filter6_dii_671_2538)">
<path d="M21.126 43.521H16.2422C16.1386 43.521 16.0547 43.6049 16.0547 43.7085V48.5923C16.0547 48.6958 16.1386 48.7798 16.2422 48.7798H21.126C21.2295 48.7798 21.3135 48.6958 21.3135 48.5923V43.7085C21.3135 43.6049 21.2295 43.521 21.126 43.521Z" fill="#9896A1"/>
</g>
<g filter="url(#filter7_dii_671_2538)">
<path d="M32.3545 34.146H27.4707C27.3671 34.146 27.2832 34.2299 27.2832 34.3335V39.2173C27.2832 39.3208 27.3671 39.4048 27.4707 39.4048H32.3545C32.458 39.4048 32.542 39.3208 32.542 39.2173V34.3335C32.542 34.2299 32.458 34.146 32.3545 34.146Z" fill="#9896A1"/>
</g>
<g filter="url(#filter8_dii_671_2538)">
<path d="M32.3545 43.521H27.4707C27.3671 43.521 27.2832 43.6049 27.2832 43.7085V48.5923C27.2832 48.6958 27.3671 48.7798 27.4707 48.7798H32.3545C32.458 48.7798 32.542 48.6958 32.542 48.5923V43.7085C32.542 43.6049 32.458 43.521 32.3545 43.521Z" fill="#9896A1"/>
</g>
<g filter="url(#filter9_dii_671_2538)">
<path d="M43.582 34.146H38.6982C38.5947 34.146 38.5107 34.2299 38.5107 34.3335V39.2173C38.5107 39.3208 38.5947 39.4048 38.6982 39.4048H43.582C43.6856 39.4048 43.7695 39.3208 43.7695 39.2173V34.3335C43.7695 34.2299 43.6856 34.146 43.582 34.146Z" fill="url(#paint5_linear_671_2538)"/>
</g>
<g filter="url(#filter10_dii_671_2538)">
<path d="M43.582 43.521H38.6982C38.5947 43.521 38.5107 43.6049 38.5107 43.7085V48.5923C38.5107 48.6958 38.5947 48.7798 38.6982 48.7798H43.582C43.6856 48.7798 43.7695 48.6958 43.7695 48.5923V43.7085C43.7695 43.6049 43.6856 43.521 43.582 43.521Z" fill="#9896A1"/>
</g>
<g filter="url(#filter11_i_671_2538)">
<path d="M55.9263 38.2273C56.04 38.1137 56.1039 37.9596 56.1039 37.7989C56.1039 37.4642 55.8326 37.1929 55.4979 37.1929H53.3057C44.7626 37.1929 37.8369 44.1184 37.8369 52.6616V54.8539C37.8369 55.1886 38.1082 55.4599 38.4429 55.4599C38.6036 55.4599 38.7577 55.3959 38.8713 55.2823L55.9263 38.2273Z" fill="url(#paint6_radial_671_2538)"/>
<path d="M55.9263 38.2273C56.04 38.1137 56.1039 37.9596 56.1039 37.7989C56.1039 37.4642 55.8326 37.1929 55.4979 37.1929H53.3057C44.7626 37.1929 37.8369 44.1184 37.8369 52.6616V54.8539C37.8369 55.1886 38.1082 55.4599 38.4429 55.4599C38.6036 55.4599 38.7577 55.3959 38.8713 55.2823L55.9263 38.2273Z" fill="url(#paint7_linear_671_2538)"/>
</g>
<g filter="url(#filter12_f_671_2538)">
<path d="M54.1991 18.5198C54.1991 13.0832 51.8554 8.67603 44.3554 8.67603H25.3125" stroke="url(#paint8_radial_671_2538)" stroke-width="2.8125"/>
</g>
<g filter="url(#filter13_f_671_2538)">
<path d="M13.1494 7.12573H17.8369V12.442C17.8369 13.6041 16.8948 14.5462 15.7327 14.5462C14.6424 14.5462 13.7328 13.7135 13.6366 12.6276L13.1494 7.12573Z" fill="url(#paint9_linear_671_2538)"/>
</g>
<g filter="url(#filter14_f_671_2538)">
<path d="M37.7471 7.12573H42.4346V12.442C42.4346 13.6041 41.4926 14.5462 40.3303 14.5462C39.2401 14.5462 38.3304 13.7135 38.2342 12.6276L37.7471 7.12573Z" fill="url(#paint10_linear_671_2538)"/>
</g>
<path d="M19.9805 5.43506C19.9805 4.14064 18.9311 3.09131 17.6367 3.09131C16.3423 3.09131 15.293 4.14064 15.293 5.43506V12.6714C15.293 13.9658 16.3423 15.0151 17.6367 15.0151C18.9311 15.0151 19.9805 13.9658 19.9805 12.6714V5.43506Z" fill="url(#paint11_linear_671_2538)"/>
<path d="M19.9805 5.43506C19.9805 4.14064 18.9311 3.09131 17.6367 3.09131C16.3423 3.09131 15.293 4.14064 15.293 5.43506V12.6714C15.293 13.9658 16.3423 15.0151 17.6367 15.0151C18.9311 15.0151 19.9805 13.9658 19.9805 12.6714V5.43506Z" fill="url(#paint12_radial_671_2538)"/>
<path d="M19.9805 5.43506C19.9805 4.14064 18.9311 3.09131 17.6367 3.09131C16.3423 3.09131 15.293 4.14064 15.293 5.43506V12.6714C15.293 13.9658 16.3423 15.0151 17.6367 15.0151C18.9311 15.0151 19.9805 13.9658 19.9805 12.6714V5.43506Z" fill="url(#paint13_radial_671_2538)"/>
<path d="M44.4434 5.43506C44.4434 4.14064 43.394 3.09131 42.0996 3.09131C40.8052 3.09131 39.7559 4.14064 39.7559 5.43506V12.6714C39.7559 13.9658 40.8052 15.0151 42.0996 15.0151C43.394 15.0151 44.4434 13.9658 44.4434 12.6714V5.43506Z" fill="url(#paint14_linear_671_2538)"/>
<path d="M44.4434 5.43506C44.4434 4.14064 43.394 3.09131 42.0996 3.09131C40.8052 3.09131 39.7559 4.14064 39.7559 5.43506V12.6714C39.7559 13.9658 40.8052 15.0151 42.0996 15.0151C43.394 15.0151 44.4434 13.9658 44.4434 12.6714V5.43506Z" fill="url(#paint15_radial_671_2538)"/>
<path d="M44.4434 5.43506C44.4434 4.14064 43.394 3.09131 42.0996 3.09131C40.8052 3.09131 39.7559 4.14064 39.7559 5.43506V12.6714C39.7559 13.9658 40.8052 15.0151 42.0996 15.0151C43.394 15.0151 44.4434 13.9658 44.4434 12.6714V5.43506Z" fill="url(#paint16_radial_671_2538)"/>
<defs>
<filter id="filter0_iiii_671_2538" x="2.02148" y="4.84912" width="55.957" height="50.6108" filterUnits="userSpaceOnUse" color-interpolation-filters="sRGB">
<feFlood flood-opacity="0" result="BackgroundImageFix"/>
<feBlend mode="normal" in="SourceGraphic" in2="BackgroundImageFix" result="shape"/>
<feColorMatrix in="SourceAlpha" type="matrix" values="0 0 0 0 0 0 0 0 0 0 0 0 0 0 0 0 0 0 127 0" result="hardAlpha"/>
<feOffset dy="-1.875"/>
<feGaussianBlur stdDeviation="2.8125"/>
<feComposite in2="hardAlpha" operator="arithmetic" k2="-1" k3="1"/>
<feColorMatrix type="matrix" values="0 0 0 0 0.67451 0 0 0 0 0.619608 0 0 0 0 0.74902 0 0 0 1 0"/>
<feBlend mode="normal" in2="shape" result="effect1_innerShadow_671_2538"/>
<feColorMatrix in="SourceAlpha" type="matrix" values="0 0 0 0 0 0 0 0 0 0 0 0 0 0 0 0 0 0 127 0" result="hardAlpha"/>
<feOffset dx="1.875"/>
<feGaussianBlur stdDeviation="1.40625"/>
<feComposite in2="hardAlpha" operator="arithmetic" k2="-1" k3="1"/>
<feColorMatrix type="matrix" values="0 0 0 0 0.8 0 0 0 0 0.788235 0 0 0 0 0.819608 0 0 0 1 0"/>
<feBlend mode="normal" in2="effect1_innerShadow_671_2538" result="effect2_innerShadow_671_2538"/>
<feColorMatrix in="SourceAlpha" type="matrix" values="0 0 0 0 0 0 0 0 0 0 0 0 0 0 0 0 0 0 127 0" result="hardAlpha"/>
<feOffset dx="-1.875"/>
<feGaussianBlur stdDeviation="1.40625"/>
<feComposite in2="hardAlpha" operator="arithmetic" k2="-1" k3="1"/>
<feColorMatrix type="matrix" values="0 0 0 0 0.956863 0 0 0 0 0.945098 0 0 0 0 0.976471 0 0 0 1 0"/>
<feBlend mode="normal" in2="effect2_innerShadow_671_2538" result="effect3_innerShadow_671_2538"/>
<feColorMatrix in="SourceAlpha" type="matrix" values="0 0 0 0 0 0 0 0 0 0 0 0 0 0 0 0 0 0 127 0" result="hardAlpha"/>
<feOffset dx="0.46875" dy="-0.46875"/>
<feGaussianBlur stdDeviation="0.9375"/>
<feComposite in2="hardAlpha" operator="arithmetic" k2="-1" k3="1"/>
<feColorMatrix type="matrix" values="0 0 0 0 0.670588 0 0 0 0 0.619608 0 0 0 0 0.745098 0 0 0 1 0"/>
<feBlend mode="normal" in2="effect3_innerShadow_671_2538" result="effect4_innerShadow_671_2538"/>
</filter>
<filter id="filter1_ii_671_2538" x="36.5557" y="36.7693" width="20.2979" height="18.6904" filterUnits="userSpaceOnUse" color-interpolation-filters="sRGB">
<feFlood flood-opacity="0" result="BackgroundImageFix"/>
<feBlend mode="normal" in="SourceGraphic" in2="BackgroundImageFix" result="shape"/>
<feColorMatrix in="SourceAlpha" type="matrix" values="0 0 0 0 0 0 0 0 0 0 0 0 0 0 0 0 0 0 127 0" result="hardAlpha"/>
<feOffset dx="-1.875"/>
<feGaussianBlur stdDeviation="1.40625"/>
<feComposite in2="hardAlpha" operator="arithmetic" k2="-1" k3="1"/>
<feColorMatrix type="matrix" values="0 0 0 0 0.937255 0 0 0 0 0.917647 0 0 0 0 0.964706 0 0 0 1 0"/>
<feBlend mode="normal" in2="shape" result="effect1_innerShadow_671_2538"/>
<feColorMatrix in="SourceAlpha" type="matrix" values="0 0 0 0 0 0 0 0 0 0 0 0 0 0 0 0 0 0 127 0" result="hardAlpha"/>
<feOffset dx="0.75" dy="-1.125"/>
<feGaussianBlur stdDeviation="1.40625"/>
<feComposite in2="hardAlpha" operator="arithmetic" k2="-1" k3="1"/>
<feColorMatrix type="matrix" values="0 0 0 0 0.658824 0 0 0 0 0.607843 0 0 0 0 0.729412 0 0 0 1 0"/>
<feBlend mode="normal" in2="effect1_innerShadow_671_2538" result="effect2_innerShadow_671_2538"/>
</filter>
<filter id="filter2_dii_671_2538" x="15.3047" y="24.396" width="6.38379" height="6.38379" filterUnits="userSpaceOnUse" color-interpolation-filters="sRGB">
<feFlood flood-opacity="0" result="BackgroundImageFix"/>
<feColorMatrix in="SourceAlpha" type="matrix" values="0 0 0 0 0 0 0 0 0 0 0 0 0 0 0 0 0 0 127 0" result="hardAlpha"/>
<feOffset dx="-0.1875" dy="0.1875"/>
<feGaussianBlur stdDeviation="0.28125"/>
<feComposite in2="hardAlpha" operator="out"/>
<feColorMatrix type="matrix" values="0 0 0 0 0.772549 0 0 0 0 0.752941 0 0 0 0 0.803922 0 0 0 1 0"/>
<feBlend mode="normal" in2="BackgroundImageFix" result="effect1_dropShadow_671_2538"/>
<feBlend mode="normal" in="SourceGraphic" in2="effect1_dropShadow_671_2538" result="shape"/>
<feColorMatrix in="SourceAlpha" type="matrix" values="0 0 0 0 0 0 0 0 0 0 0 0 0 0 0 0 0 0 127 0" result="hardAlpha"/>
<feOffset dx="-0.1875" dy="0.1875"/>
<feGaussianBlur stdDeviation="0.140625"/>
<feComposite in2="hardAlpha" operator="arithmetic" k2="-1" k3="1"/>
<feColorMatrix type="matrix" values="0 0 0 0 0.654902 0 0 0 0 0.647059 0 0 0 0 0.682353 0 0 0 1 0"/>
<feBlend mode="normal" in2="shape" result="effect2_innerShadow_671_2538"/>
<feColorMatrix in="SourceAlpha" type="matrix" values="0 0 0 0 0 0 0 0 0 0 0 0 0 0 0 0 0 0 127 0" result="hardAlpha"/>
<feOffset dx="0.1875" dy="-0.1875"/>
<feGaussianBlur stdDeviation="0.140625"/>
<feComposite in2="hardAlpha" operator="arithmetic" k2="-1" k3="1"/>
<feColorMatrix type="matrix" values="0 0 0 0 0.572549 0 0 0 0 0.564706 0 0 0 0 0.607843 0 0 0 1 0"/>
<feBlend mode="normal" in2="effect2_innerShadow_671_2538" result="effect3_innerShadow_671_2538"/>
</filter>
<filter id="filter3_dii_671_2538" x="26.5332" y="24.396" width="6.38379" height="6.38379" filterUnits="userSpaceOnUse" color-interpolation-filters="sRGB">
<feFlood flood-opacity="0" result="BackgroundImageFix"/>
<feColorMatrix in="SourceAlpha" type="matrix" values="0 0 0 0 0 0 0 0 0 0 0 0 0 0 0 0 0 0 127 0" result="hardAlpha"/>
<feOffset dx="-0.1875" dy="0.1875"/>
<feGaussianBlur stdDeviation="0.28125"/>
<feComposite in2="hardAlpha" operator="out"/>
<feColorMatrix type="matrix" values="0 0 0 0 0.772549 0 0 0 0 0.752941 0 0 0 0 0.803922 0 0 0 1 0"/>
<feBlend mode="normal" in2="BackgroundImageFix" result="effect1_dropShadow_671_2538"/>
<feBlend mode="normal" in="SourceGraphic" in2="effect1_dropShadow_671_2538" result="shape"/>
<feColorMatrix in="SourceAlpha" type="matrix" values="0 0 0 0 0 0 0 0 0 0 0 0 0 0 0 0 0 0 127 0" result="hardAlpha"/>
<feOffset dx="-0.1875" dy="0.1875"/>
<feGaussianBlur stdDeviation="0.140625"/>
<feComposite in2="hardAlpha" operator="arithmetic" k2="-1" k3="1"/>
<feColorMatrix type="matrix" values="0 0 0 0 0.654902 0 0 0 0 0.647059 0 0 0 0 0.682353 0 0 0 1 0"/>
<feBlend mode="normal" in2="shape" result="effect2_innerShadow_671_2538"/>
<feColorMatrix in="SourceAlpha" type="matrix" values="0 0 0 0 0 0 0 0 0 0 0 0 0 0 0 0 0 0 127 0" result="hardAlpha"/>
<feOffset dx="0.1875" dy="-0.1875"/>
<feGaussianBlur stdDeviation="0.140625"/>
<feComposite in2="hardAlpha" operator="arithmetic" k2="-1" k3="1"/>
<feColorMatrix type="matrix" values="0 0 0 0 0.572549 0 0 0 0 0.564706 0 0 0 0 0.607843 0 0 0 1 0"/>
<feBlend mode="normal" in2="effect2_innerShadow_671_2538" result="effect3_innerShadow_671_2538"/>
</filter>
<filter id="filter4_dii_671_2538" x="37.7607" y="24.396" width="6.38379" height="6.38379" filterUnits="userSpaceOnUse" color-interpolation-filters="sRGB">
<feFlood flood-opacity="0" result="BackgroundImageFix"/>
<feColorMatrix in="SourceAlpha" type="matrix" values="0 0 0 0 0 0 0 0 0 0 0 0 0 0 0 0 0 0 127 0" result="hardAlpha"/>
<feOffset dx="-0.1875" dy="0.1875"/>
<feGaussianBlur stdDeviation="0.28125"/>
<feComposite in2="hardAlpha" operator="out"/>
<feColorMatrix type="matrix" values="0 0 0 0 0.772549 0 0 0 0 0.752941 0 0 0 0 0.803922 0 0 0 1 0"/>
<feBlend mode="normal" in2="BackgroundImageFix" result="effect1_dropShadow_671_2538"/>
<feBlend mode="normal" in="SourceGraphic" in2="effect1_dropShadow_671_2538" result="shape"/>
<feColorMatrix in="SourceAlpha" type="matrix" values="0 0 0 0 0 0 0 0 0 0 0 0 0 0 0 0 0 0 127 0" result="hardAlpha"/>
<feOffset dx="-0.1875" dy="0.1875"/>
<feGaussianBlur stdDeviation="0.140625"/>
<feComposite in2="hardAlpha" operator="arithmetic" k2="-1" k3="1"/>
<feColorMatrix type="matrix" values="0 0 0 0 0.654902 0 0 0 0 0.647059 0 0 0 0 0.682353 0 0 0 1 0"/>
<feBlend mode="normal" in2="shape" result="effect2_innerShadow_671_2538"/>
<feColorMatrix in="SourceAlpha" type="matrix" values="0 0 0 0 0 0 0 0 0 0 0 0 0 0 0 0 0 0 127 0" result="hardAlpha"/>
<feOffset dx="0.1875" dy="-0.1875"/>
<feGaussianBlur stdDeviation="0.140625"/>
<feComposite in2="hardAlpha" operator="arithmetic" k2="-1" k3="1"/>
<feColorMatrix type="matrix" values="0 0 0 0 0.572549 0 0 0 0 0.564706 0 0 0 0 0.607843 0 0 0 1 0"/>
<feBlend mode="normal" in2="effect2_innerShadow_671_2538" result="effect3_innerShadow_671_2538"/>
</filter>
<filter id="filter5_dii_671_2538" x="15.3047" y="33.771" width="6.38379" height="6.38379" filterUnits="userSpaceOnUse" color-interpolation-filters="sRGB">
<feFlood flood-opacity="0" result="BackgroundImageFix"/>
<feColorMatrix in="SourceAlpha" type="matrix" values="0 0 0 0 0 0 0 0 0 0 0 0 0 0 0 0 0 0 127 0" result="hardAlpha"/>
<feOffset dx="-0.1875" dy="0.1875"/>
<feGaussianBlur stdDeviation="0.28125"/>
<feComposite in2="hardAlpha" operator="out"/>
<feColorMatrix type="matrix" values="0 0 0 0 0.772549 0 0 0 0 0.752941 0 0 0 0 0.803922 0 0 0 1 0"/>
<feBlend mode="normal" in2="BackgroundImageFix" result="effect1_dropShadow_671_2538"/>
<feBlend mode="normal" in="SourceGraphic" in2="effect1_dropShadow_671_2538" result="shape"/>
<feColorMatrix in="SourceAlpha" type="matrix" values="0 0 0 0 0 0 0 0 0 0 0 0 0 0 0 0 0 0 127 0" result="hardAlpha"/>
<feOffset dx="-0.1875" dy="0.1875"/>
<feGaussianBlur stdDeviation="0.140625"/>
<feComposite in2="hardAlpha" operator="arithmetic" k2="-1" k3="1"/>
<feColorMatrix type="matrix" values="0 0 0 0 0.654902 0 0 0 0 0.647059 0 0 0 0 0.682353 0 0 0 1 0"/>
<feBlend mode="normal" in2="shape" result="effect2_innerShadow_671_2538"/>
<feColorMatrix in="SourceAlpha" type="matrix" values="0 0 0 0 0 0 0 0 0 0 0 0 0 0 0 0 0 0 127 0" result="hardAlpha"/>
<feOffset dx="0.1875" dy="-0.1875"/>
<feGaussianBlur stdDeviation="0.140625"/>
<feComposite in2="hardAlpha" operator="arithmetic" k2="-1" k3="1"/>
<feColorMatrix type="matrix" values="0 0 0 0 0.572549 0 0 0 0 0.564706 0 0 0 0 0.607843 0 0 0 1 0"/>
<feBlend mode="normal" in2="effect2_innerShadow_671_2538" result="effect3_innerShadow_671_2538"/>
</filter>
<filter id="filter6_dii_671_2538" x="15.3047" y="43.146" width="6.38379" height="6.38379" filterUnits="userSpaceOnUse" color-interpolation-filters="sRGB">
<feFlood flood-opacity="0" result="BackgroundImageFix"/>
<feColorMatrix in="SourceAlpha" type="matrix" values="0 0 0 0 0 0 0 0 0 0 0 0 0 0 0 0 0 0 127 0" result="hardAlpha"/>
<feOffset dx="-0.1875" dy="0.1875"/>
<feGaussianBlur stdDeviation="0.28125"/>
<feComposite in2="hardAlpha" operator="out"/>
<feColorMatrix type="matrix" values="0 0 0 0 0.772549 0 0 0 0 0.752941 0 0 0 0 0.803922 0 0 0 1 0"/>
<feBlend mode="normal" in2="BackgroundImageFix" result="effect1_dropShadow_671_2538"/>
<feBlend mode="normal" in="SourceGraphic" in2="effect1_dropShadow_671_2538" result="shape"/>
<feColorMatrix in="SourceAlpha" type="matrix" values="0 0 0 0 0 0 0 0 0 0 0 0 0 0 0 0 0 0 127 0" result="hardAlpha"/>
<feOffset dx="-0.1875" dy="0.1875"/>
<feGaussianBlur stdDeviation="0.140625"/>
<feComposite in2="hardAlpha" operator="arithmetic" k2="-1" k3="1"/>
<feColorMatrix type="matrix" values="0 0 0 0 0.654902 0 0 0 0 0.647059 0 0 0 0 0.682353 0 0 0 1 0"/>
<feBlend mode="normal" in2="shape" result="effect2_innerShadow_671_2538"/>
<feColorMatrix in="SourceAlpha" type="matrix" values="0 0 0 0 0 0 0 0 0 0 0 0 0 0 0 0 0 0 127 0" result="hardAlpha"/>
<feOffset dx="0.1875" dy="-0.1875"/>
<feGaussianBlur stdDeviation="0.140625"/>
<feComposite in2="hardAlpha" operator="arithmetic" k2="-1" k3="1"/>
<feColorMatrix type="matrix" values="0 0 0 0 0.572549 0 0 0 0 0.564706 0 0 0 0 0.607843 0 0 0 1 0"/>
<feBlend mode="normal" in2="effect2_innerShadow_671_2538" result="effect3_innerShadow_671_2538"/>
</filter>
<filter id="filter7_dii_671_2538" x="26.5332" y="33.771" width="6.38379" height="6.38379" filterUnits="userSpaceOnUse" color-interpolation-filters="sRGB">
<feFlood flood-opacity="0" result="BackgroundImageFix"/>
<feColorMatrix in="SourceAlpha" type="matrix" values="0 0 0 0 0 0 0 0 0 0 0 0 0 0 0 0 0 0 127 0" result="hardAlpha"/>
<feOffset dx="-0.1875" dy="0.1875"/>
<feGaussianBlur stdDeviation="0.28125"/>
<feComposite in2="hardAlpha" operator="out"/>
<feColorMatrix type="matrix" values="0 0 0 0 0.772549 0 0 0 0 0.752941 0 0 0 0 0.803922 0 0 0 1 0"/>
<feBlend mode="normal" in2="BackgroundImageFix" result="effect1_dropShadow_671_2538"/>
<feBlend mode="normal" in="SourceGraphic" in2="effect1_dropShadow_671_2538" result="shape"/>
<feColorMatrix in="SourceAlpha" type="matrix" values="0 0 0 0 0 0 0 0 0 0 0 0 0 0 0 0 0 0 127 0" result="hardAlpha"/>
<feOffset dx="-0.1875" dy="0.1875"/>
<feGaussianBlur stdDeviation="0.140625"/>
<feComposite in2="hardAlpha" operator="arithmetic" k2="-1" k3="1"/>
<feColorMatrix type="matrix" values="0 0 0 0 0.654902 0 0 0 0 0.647059 0 0 0 0 0.682353 0 0 0 1 0"/>
<feBlend mode="normal" in2="shape" result="effect2_innerShadow_671_2538"/>
<feColorMatrix in="SourceAlpha" type="matrix" values="0 0 0 0 0 0 0 0 0 0 0 0 0 0 0 0 0 0 127 0" result="hardAlpha"/>
<feOffset dx="0.1875" dy="-0.1875"/>
<feGaussianBlur stdDeviation="0.140625"/>
<feComposite in2="hardAlpha" operator="arithmetic" k2="-1" k3="1"/>
<feColorMatrix type="matrix" values="0 0 0 0 0.572549 0 0 0 0 0.564706 0 0 0 0 0.607843 0 0 0 1 0"/>
<feBlend mode="normal" in2="effect2_innerShadow_671_2538" result="effect3_innerShadow_671_2538"/>
</filter>
<filter id="filter8_dii_671_2538" x="26.5332" y="43.146" width="6.38379" height="6.38379" filterUnits="userSpaceOnUse" color-interpolation-filters="sRGB">
<feFlood flood-opacity="0" result="BackgroundImageFix"/>
<feColorMatrix in="SourceAlpha" type="matrix" values="0 0 0 0 0 0 0 0 0 0 0 0 0 0 0 0 0 0 127 0" result="hardAlpha"/>
<feOffset dx="-0.1875" dy="0.1875"/>
<feGaussianBlur stdDeviation="0.28125"/>
<feComposite in2="hardAlpha" operator="out"/>
<feColorMatrix type="matrix" values="0 0 0 0 0.772549 0 0 0 0 0.752941 0 0 0 0 0.803922 0 0 0 1 0"/>
<feBlend mode="normal" in2="BackgroundImageFix" result="effect1_dropShadow_671_2538"/>
<feBlend mode="normal" in="SourceGraphic" in2="effect1_dropShadow_671_2538" result="shape"/>
<feColorMatrix in="SourceAlpha" type="matrix" values="0 0 0 0 0 0 0 0 0 0 0 0 0 0 0 0 0 0 127 0" result="hardAlpha"/>
<feOffset dx="-0.1875" dy="0.1875"/>
<feGaussianBlur stdDeviation="0.140625"/>
<feComposite in2="hardAlpha" operator="arithmetic" k2="-1" k3="1"/>
<feColorMatrix type="matrix" values="0 0 0 0 0.654902 0 0 0 0 0.647059 0 0 0 0 0.682353 0 0 0 1 0"/>
<feBlend mode="normal" in2="shape" result="effect2_innerShadow_671_2538"/>
<feColorMatrix in="SourceAlpha" type="matrix" values="0 0 0 0 0 0 0 0 0 0 0 0 0 0 0 0 0 0 127 0" result="hardAlpha"/>
<feOffset dx="0.1875" dy="-0.1875"/>
<feGaussianBlur stdDeviation="0.140625"/>
<feComposite in2="hardAlpha" operator="arithmetic" k2="-1" k3="1"/>
<feColorMatrix type="matrix" values="0 0 0 0 0.572549 0 0 0 0 0.564706 0 0 0 0 0.607843 0 0 0 1 0"/>
<feBlend mode="normal" in2="effect2_innerShadow_671_2538" result="effect3_innerShadow_671_2538"/>
</filter>
<filter id="filter9_dii_671_2538" x="37.7607" y="33.771" width="6.38379" height="6.38379" filterUnits="userSpaceOnUse" color-interpolation-filters="sRGB">
<feFlood flood-opacity="0" result="BackgroundImageFix"/>
<feColorMatrix in="SourceAlpha" type="matrix" values="0 0 0 0 0 0 0 0 0 0 0 0 0 0 0 0 0 0 127 0" result="hardAlpha"/>
<feOffset dx="-0.1875" dy="0.1875"/>
<feGaussianBlur stdDeviation="0.28125"/>
<feComposite in2="hardAlpha" operator="out"/>
<feColorMatrix type="matrix" values="0 0 0 0 0.858824 0 0 0 0 0.835294 0 0 0 0 0.917647 0 0 0 1 0"/>
<feBlend mode="normal" in2="BackgroundImageFix" result="effect1_dropShadow_671_2538"/>
<feBlend mode="normal" in="SourceGraphic" in2="effect1_dropShadow_671_2538" result="shape"/>
<feColorMatrix in="SourceAlpha" type="matrix" values="0 0 0 0 0 0 0 0 0 0 0 0 0 0 0 0 0 0 127 0" result="hardAlpha"/>
<feOffset dx="-0.1875" dy="0.1875"/>
<feGaussianBlur stdDeviation="0.140625"/>
<feComposite in2="hardAlpha" operator="arithmetic" k2="-1" k3="1"/>
<feColorMatrix type="matrix" values="0 0 0 0 0.34902 0 0 0 0 0.631373 0 0 0 0 0.917647 0 0 0 1 0"/>
<feBlend mode="normal" in2="shape" result="effect2_innerShadow_671_2538"/>
<feColorMatrix in="SourceAlpha" type="matrix" values="0 0 0 0 0 0 0 0 0 0 0 0 0 0 0 0 0 0 127 0" result="hardAlpha"/>
<feOffset dx="0.1875" dy="-0.1875"/>
<feGaussianBlur stdDeviation="0.140625"/>
<feComposite in2="hardAlpha" operator="arithmetic" k2="-1" k3="1"/>
<feColorMatrix type="matrix" values="0 0 0 0 0.254902 0 0 0 0 0.498039 0 0 0 0 0.819608 0 0 0 1 0"/>
<feBlend mode="normal" in2="effect2_innerShadow_671_2538" result="effect3_innerShadow_671_2538"/>
</filter>
<filter id="filter10_dii_671_2538" x="37.7607" y="43.146" width="6.38379" height="6.38379" filterUnits="userSpaceOnUse" color-interpolation-filters="sRGB">
<feFlood flood-opacity="0" result="BackgroundImageFix"/>
<feColorMatrix in="SourceAlpha" type="matrix" values="0 0 0 0 0 0 0 0 0 0 0 0 0 0 0 0 0 0 127 0" result="hardAlpha"/>
<feOffset dx="-0.1875" dy="0.1875"/>
<feGaussianBlur stdDeviation="0.28125"/>
<feComposite in2="hardAlpha" operator="out"/>
<feColorMatrix type="matrix" values="0 0 0 0 0.772549 0 0 0 0 0.752941 0 0 0 0 0.803922 0 0 0 1 0"/>
<feBlend mode="normal" in2="BackgroundImageFix" result="effect1_dropShadow_671_2538"/>
<feBlend mode="normal" in="SourceGraphic" in2="effect1_dropShadow_671_2538" result="shape"/>
<feColorMatrix in="SourceAlpha" type="matrix" values="0 0 0 0 0 0 0 0 0 0 0 0 0 0 0 0 0 0 127 0" result="hardAlpha"/>
<feOffset dx="-0.1875" dy="0.1875"/>
<feGaussianBlur stdDeviation="0.140625"/>
<feComposite in2="hardAlpha" operator="arithmetic" k2="-1" k3="1"/>
<feColorMatrix type="matrix" values="0 0 0 0 0.654902 0 0 0 0 0.647059 0 0 0 0 0.682353 0 0 0 1 0"/>
<feBlend mode="normal" in2="shape" result="effect2_innerShadow_671_2538"/>
<feColorMatrix in="SourceAlpha" type="matrix" values="0 0 0 0 0 0 0 0 0 0 0 0 0 0 0 0 0 0 127 0" result="hardAlpha"/>
<feOffset dx="0.1875" dy="-0.1875"/>
<feGaussianBlur stdDeviation="0.140625"/>
<feComposite in2="hardAlpha" operator="arithmetic" k2="-1" k3="1"/>
<feColorMatrix type="matrix" values="0 0 0 0 0.572549 0 0 0 0 0.564706 0 0 0 0 0.607843 0 0 0 1 0"/>
<feBlend mode="normal" in2="effect2_innerShadow_671_2538" result="effect3_innerShadow_671_2538"/>
</filter>
<filter id="filter11_i_671_2538" x="37.8369" y="37.1929" width="18.4541" height="18.4546" filterUnits="userSpaceOnUse" color-interpolation-filters="sRGB">
<feFlood flood-opacity="0" result="BackgroundImageFix"/>
<feBlend mode="normal" in="SourceGraphic" in2="BackgroundImageFix" result="shape"/>
<feColorMatrix in="SourceAlpha" type="matrix" values="0 0 0 0 0 0 0 0 0 0 0 0 0 0 0 0 0 0 127 0" result="hardAlpha"/>
<feOffset dx="0.1875" dy="0.1875"/>
<feGaussianBlur stdDeviation="0.1875"/>
<feComposite in2="hardAlpha" operator="arithmetic" k2="-1" k3="1"/>
<feColorMatrix type="matrix" values="0 0 0 0 0.803922 0 0 0 0 0.807843 0 0 0 0 0.870588 0 0 0 1 0"/>
<feBlend mode="normal" in2="shape" result="effect1_innerShadow_671_2538"/>
</filter>
<filter id="filter12_f_671_2538" x="22.9688" y="4.92603" width="34.9805" height="15.9375" filterUnits="userSpaceOnUse" color-interpolation-filters="sRGB">
<feFlood flood-opacity="0" result="BackgroundImageFix"/>
<feBlend mode="normal" in="SourceGraphic" in2="BackgroundImageFix" result="shape"/>
<feGaussianBlur stdDeviation="1.17188" result="effect1_foregroundBlur_671_2538"/>
</filter>
<filter id="filter13_f_671_2538" x="11.7432" y="5.71948" width="7.5" height="10.2329" filterUnits="userSpaceOnUse" color-interpolation-filters="sRGB">
<feFlood flood-opacity="0" result="BackgroundImageFix"/>
<feBlend mode="normal" in="SourceGraphic" in2="BackgroundImageFix" result="shape"/>
<feGaussianBlur stdDeviation="0.703125" result="effect1_foregroundBlur_671_2538"/>
</filter>
<filter id="filter14_f_671_2538" x="36.3408" y="5.71948" width="7.5" height="10.2329" filterUnits="userSpaceOnUse" color-interpolation-filters="sRGB">
<feFlood flood-opacity="0" result="BackgroundImageFix"/>
<feBlend mode="normal" in="SourceGraphic" in2="BackgroundImageFix" result="shape"/>
<feGaussianBlur stdDeviation="0.703125" result="effect1_foregroundBlur_671_2538"/>
</filter>
<linearGradient id="paint0_linear_671_2538" x1="9.70375" y1="33.9115" x2="52.5433" y2="33.9115" gradientUnits="userSpaceOnUse">
<stop stop-color="#E4DEEC"/>
<stop offset="1" stop-color="#E7E2EF"/>
</linearGradient>
<linearGradient id="paint1_linear_671_2538" x1="3.28366" y1="16.5893" x2="52.1931" y2="16.5893" gradientUnits="userSpaceOnUse">
<stop stop-color="#4271C7"/>
<stop offset="0.794195" stop-color="#4F9FDC"/>
</linearGradient>
<linearGradient id="paint2_linear_671_2538" x1="30" y1="6.72412" x2="30" y2="10.3167" gradientUnits="userSpaceOnUse">
<stop stop-color="#5591D3"/>
<stop offset="1" stop-color="#5591D3" stop-opacity="0"/>
</linearGradient>
<radialGradient id="paint3_radial_671_2538" cx="0" cy="0" r="1" gradientUnits="userSpaceOnUse" gradientTransform="translate(40.7087 19.4976) rotate(-170.157) scale(37.3622 20.7709)">
<stop offset="0.758836" stop-color="#3E62C2" stop-opacity="0"/>
<stop offset="1" stop-color="#3B41A1"/>
</radialGradient>
<linearGradient id="paint4_linear_671_2538" x1="39.7031" y1="21.0372" x2="39.7031" y2="18.3001" gradientUnits="userSpaceOnUse">
<stop stop-color="#437AC4"/>
<stop offset="1" stop-color="#437AC4" stop-opacity="0"/>
</linearGradient>
<linearGradient id="paint5_linear_671_2538" x1="44.3261" y1="34.146" x2="37.4707" y2="39.0679" gradientUnits="userSpaceOnUse">
<stop stop-color="#4C92DE"/>
<stop offset="1" stop-color="#4B91DB"/>
</linearGradient>
<radialGradient id="paint6_radial_671_2538" cx="0" cy="0" r="1" gradientUnits="userSpaceOnUse" gradientTransform="translate(43.1546 41.7632) rotate(45.6992) scale(6.37596 15.4515)">
<stop stop-color="#E4DDED"/>
<stop offset="1" stop-color="#D5CFDC"/>
</radialGradient>
<linearGradient id="paint7_linear_671_2538" x1="47.081" y1="47.4099" x2="46.5978" y2="46.9266" gradientUnits="userSpaceOnUse">
<stop offset="0.461334" stop-color="#BFB8CA"/>
<stop offset="1" stop-color="#D9D3E0" stop-opacity="0"/>
</linearGradient>
<radialGradient id="paint8_radial_671_2538" cx="0" cy="0" r="1" gradientUnits="userSpaceOnUse" gradientTransform="translate(57.9493 8.67603) rotate(152.761) scale(18.9139 27.1967)">
<stop stop-color="#70C0F8"/>
<stop offset="1" stop-color="#70C0F8" stop-opacity="0"/>
</radialGradient>
<linearGradient id="paint9_linear_671_2538" x1="15.2798" y1="13.9766" x2="14.3906" y2="-0.844039" gradientUnits="userSpaceOnUse">
<stop stop-color="#375DB2"/>
<stop offset="1" stop-color="#375DB2" stop-opacity="0"/>
</linearGradient>
<linearGradient id="paint10_linear_671_2538" x1="39.8774" y1="13.9766" x2="38.9883" y2="-0.844039" gradientUnits="userSpaceOnUse">
<stop stop-color="#407FC8"/>
<stop offset="1" stop-color="#407FC8" stop-opacity="0"/>
</linearGradient>
<linearGradient id="paint11_linear_671_2538" x1="19.9806" y1="9.93842" x2="15.293" y2="9.93842" gradientUnits="userSpaceOnUse">
<stop stop-color="#C0C0C1"/>
<stop offset="0.931802" stop-color="#A6A6A8"/>
</linearGradient>
<radialGradient id="paint12_radial_671_2538" cx="0" cy="0" r="1" gradientUnits="userSpaceOnUse" gradientTransform="translate(17.6367 15.0151) rotate(-90) scale(7.21959 6.68387)">
<stop stop-color="#8C88AD"/>
<stop offset="1" stop-color="#9D9AA2" stop-opacity="0"/>
</radialGradient>
<radialGradient id="paint13_radial_671_2538" cx="0" cy="0" r="1" gradientUnits="userSpaceOnUse" gradientTransform="translate(19.0974 7.12592) rotate(90) scale(5.35714 2.89116)">
<stop stop-color="#D9D8DD"/>
<stop offset="0.99631" stop-color="#BEBEC0" stop-opacity="0"/>
</radialGradient>
<linearGradient id="paint14_linear_671_2538" x1="44.4434" y1="9.93842" x2="39.7559" y2="9.93842" gradientUnits="userSpaceOnUse">
<stop stop-color="#C0C0C1"/>
<stop offset="0.931802" stop-color="#A6A6A8"/>
</linearGradient>
<radialGradient id="paint15_radial_671_2538" cx="0" cy="0" r="1" gradientUnits="userSpaceOnUse" gradientTransform="translate(42.0996 15.0151) rotate(-90) scale(7.21959 6.68387)">
<stop stop-color="#8C88AD"/>
<stop offset="1" stop-color="#9D9AA2" stop-opacity="0"/>
</radialGradient>
<radialGradient id="paint16_radial_671_2538" cx="0" cy="0" r="1" gradientUnits="userSpaceOnUse" gradientTransform="translate(43.5602 7.12592) rotate(90) scale(5.35714 2.89116)">
<stop stop-color="#D9D8DD"/>
<stop offset="0.99631" stop-color="#BEBEC0" stop-opacity="0"/>
</radialGradient>
</defs>
</svg>
