<svg width="60" height="60" viewBox="0 0 60 60" fill="none" xmlns="http://www.w3.org/2000/svg">
<path d="M29.7529 56.0158C31.5894 56.0158 33.0781 54.527 33.0781 52.6906C33.0781 50.8541 31.5894 49.3654 29.7529 49.3654C27.9165 49.3654 26.4277 50.8541 26.4277 52.6906C26.4277 54.527 27.9165 56.0158 29.7529 56.0158Z" fill="url(#paint0_radial_671_2786)"/>
<path d="M33.8379 41.5723H25.8105C24.5161 41.5723 23.4668 42.6216 23.4668 43.916V51.8262C23.4668 53.1206 24.5161 54.1699 25.8105 54.1699H33.8379C35.1323 54.1699 36.1816 53.1206 36.1816 51.8262V43.916C36.1816 42.6216 35.1323 41.5723 33.8379 41.5723Z" fill="url(#paint1_linear_671_2786)"/>
<path d="M33.8379 41.5723H25.8105C24.5161 41.5723 23.4668 42.6216 23.4668 43.916V51.8262C23.4668 53.1206 24.5161 54.1699 25.8105 54.1699H33.8379C35.1323 54.1699 36.1816 53.1206 36.1816 51.8262V43.916C36.1816 42.6216 35.1323 41.5723 33.8379 41.5723Z" fill="url(#paint2_linear_671_2786)"/>
<path d="M33.8379 41.5723H25.8105C24.5161 41.5723 23.4668 42.6216 23.4668 43.916V51.8262C23.4668 53.1206 24.5161 54.1699 25.8105 54.1699H33.8379C35.1323 54.1699 36.1816 53.1206 36.1816 51.8262V43.916C36.1816 42.6216 35.1323 41.5723 33.8379 41.5723Z" fill="url(#paint3_radial_671_2786)"/>
<path d="M33.8379 41.5723H25.8105C24.5161 41.5723 23.4668 42.6216 23.4668 43.916V51.8262C23.4668 53.1206 24.5161 54.1699 25.8105 54.1699H33.8379C35.1323 54.1699 36.1816 53.1206 36.1816 51.8262V43.916C36.1816 42.6216 35.1323 41.5723 33.8379 41.5723Z" fill="url(#paint4_linear_671_2786)"/>
<g filter="url(#filter0_i_671_2786)">
<path d="M29.5637 43.0663C29.5991 43.0663 29.6331 43.0665 29.6651 43.0665C30.7061 43.0618 33.1039 43.0215 34.065 42.8468C35.0963 42.6593 35.2294 42.1452 35.4126 41.338C36.5421 36.3628 38.436 34.4502 39.7029 33.1705C39.8983 32.9732 40.0789 32.791 40.2392 32.6147C40.7891 32.0113 41.2652 31.48 41.6286 31.0697C44.3638 28.1668 46.0401 24.255 46.0401 19.9517C46.0401 10.9959 38.7799 3.73584 29.8241 3.73584C20.8686 3.73584 13.6084 10.9959 13.6084 19.9517C13.6084 24.2025 15.2441 28.0714 17.9203 30.9632C18.2939 31.3858 18.8051 31.9577 19.404 32.6147C19.5081 32.7291 19.6208 32.8461 19.7404 32.968C19.8051 33.0338 19.8716 33.1013 19.9403 33.1705C21.2072 34.4502 23.1011 36.3628 24.2306 41.338C24.414 42.1452 24.5471 42.6593 25.5784 42.8468C26.5373 43.0212 28.4781 43.0611 29.4602 43.066C29.4923 43.066 29.5269 43.0663 29.5637 43.0663Z" fill="url(#paint5_radial_671_2786)"/>
<path d="M29.5637 43.0663C29.5991 43.0663 29.6331 43.0665 29.6651 43.0665C30.7061 43.0618 33.1039 43.0215 34.065 42.8468C35.0963 42.6593 35.2294 42.1452 35.4126 41.338C36.5421 36.3628 38.436 34.4502 39.7029 33.1705C39.8983 32.9732 40.0789 32.791 40.2392 32.6147C40.7891 32.0113 41.2652 31.48 41.6286 31.0697C44.3638 28.1668 46.0401 24.255 46.0401 19.9517C46.0401 10.9959 38.7799 3.73584 29.8241 3.73584C20.8686 3.73584 13.6084 10.9959 13.6084 19.9517C13.6084 24.2025 15.2441 28.0714 17.9203 30.9632C18.2939 31.3858 18.8051 31.9577 19.404 32.6147C19.5081 32.7291 19.6208 32.8461 19.7404 32.968C19.8051 33.0338 19.8716 33.1013 19.9403 33.1705C21.2072 34.4502 23.1011 36.3628 24.2306 41.338C24.414 42.1452 24.5471 42.6593 25.5784 42.8468C26.5373 43.0212 28.4781 43.0611 29.4602 43.066C29.4923 43.066 29.5269 43.0663 29.5637 43.0663Z" fill="url(#paint6_radial_671_2786)"/>
</g>
<path d="M32.7412 19.2773C36.1876 19.2773 38.9814 16.4835 38.9814 13.0371C38.9814 9.59072 36.1876 6.79688 32.7412 6.79688C29.2948 6.79688 26.501 9.59072 26.501 13.0371C26.501 16.4835 29.2948 19.2773 32.7412 19.2773Z" fill="url(#paint7_linear_671_2786)"/>
<g filter="url(#filter1_i_671_2786)">
<path d="M29.0229 43.0618C28.957 38.9891 28.6325 36.3071 28.1384 34.4403C27.569 32.2886 26.7725 31.2163 25.9297 30.366L25.9192 30.3553L25.9081 30.345C24.8287 29.3237 24.1572 27.8807 24.1572 26.2792C24.1572 23.1888 26.6626 20.6835 29.753 20.6835C32.8434 20.6835 35.3487 23.1888 35.3487 26.2792C35.3487 27.8807 34.6771 29.3237 33.5979 30.345L33.5868 30.3553L33.5761 30.366C32.7487 31.2011 31.9413 32.2029 31.3651 34.3368C30.8664 36.183 30.5401 38.8743 30.4752 43.0578C31.0407 43.0487 31.717 43.0314 32.3515 43.0007C32.4185 38.9358 32.7376 36.446 33.1752 34.8257C33.6492 33.0701 34.2588 32.342 34.8978 31.6961C36.3292 30.3362 37.2237 28.4113 37.2237 26.2792C37.2237 22.1533 33.8789 18.8085 29.753 18.8085C25.627 18.8085 22.2822 22.1533 22.2822 26.2792C22.2822 28.4113 23.1766 30.336 24.608 31.6959C25.2324 32.3276 25.8485 33.1166 26.3259 34.92C26.762 36.5675 27.0785 39.0527 27.1465 43.0018C27.7959 43.0376 28.4806 43.0547 29.0229 43.0618Z" fill="#FFAD55"/>
</g>
<g filter="url(#filter2_f_671_2786)">
<path d="M31.648 42.6348C31.648 33.689 33.0188 32.2622 34.4892 30.7785C35.7479 29.5877 36.5333 27.9015 36.5333 26.0319C36.5333 22.4237 33.6083 19.4987 30 19.4987C26.3918 19.4987 23.4668 22.4237 23.4668 26.0319C23.4668 27.9015 24.2522 29.5877 25.5109 30.7785C26.9813 32.2622 28.3448 34.8303 28.3448 42.6348" stroke="url(#paint8_linear_671_2786)" stroke-width="0.46875"/>
</g>
<g filter="url(#filter3_f_671_2786)">
<path d="M34.9313 45.2837L24.297 46.9499C23.7495 47.0357 23.3752 47.5491 23.461 48.0966C23.5468 48.6441 24.0602 49.0184 24.6077 48.9326L35.2419 47.2664C35.7895 47.1806 36.1638 46.6672 36.078 46.1197C35.9922 45.5722 35.4788 45.1979 34.9313 45.2837Z" fill="#7E6693"/>
</g>
<g filter="url(#filter4_f_671_2786)">
<path d="M34.9313 49.7296L24.297 51.3958C23.7495 51.4816 23.3752 51.995 23.461 52.5425C23.5468 53.09 24.0602 53.4644 24.6077 53.3786L35.2419 51.7124C35.7895 51.6266 36.1638 51.1132 36.078 50.5656C35.9922 50.0181 35.4788 49.6438 34.9313 49.7296Z" fill="#7E6693"/>
</g>
<path d="M36.3002 49.2382L22.9287 51.3333C22.3651 51.4216 21.9798 51.9501 22.0681 52.5137L22.0681 52.5137C22.1564 53.0773 22.6849 53.4626 23.2485 53.3743L36.62 51.2792C37.1836 51.1909 37.5689 50.6624 37.4806 50.0988L37.4806 50.0988C37.3923 49.5352 36.8638 49.1499 36.3002 49.2382Z" fill="url(#paint9_linear_671_2786)"/>
<path d="M36.3002 49.2382L22.9287 51.3333C22.3651 51.4216 21.9798 51.9501 22.0681 52.5137L22.0681 52.5137C22.1564 53.0773 22.6849 53.4626 23.2485 53.3743L36.62 51.2792C37.1836 51.1909 37.5689 50.6624 37.4806 50.0988L37.4806 50.0988C37.3923 49.5352 36.8638 49.1499 36.3002 49.2382Z" fill="url(#paint10_linear_671_2786)"/>
<path d="M36.3002 49.2382L22.9287 51.3333C22.3651 51.4216 21.9798 51.9501 22.0681 52.5137L22.0681 52.5137C22.1564 53.0773 22.6849 53.4626 23.2485 53.3743L36.62 51.2792C37.1836 51.1909 37.5689 50.6624 37.4806 50.0988L37.4806 50.0988C37.3923 49.5352 36.8638 49.1499 36.3002 49.2382Z" fill="url(#paint11_linear_671_2786)"/>
<path d="M36.3002 49.2382L22.9287 51.3333C22.3651 51.4216 21.9798 51.9501 22.0681 52.5137L22.0681 52.5137C22.1564 53.0773 22.6849 53.4626 23.2485 53.3743L36.62 51.2792C37.1836 51.1909 37.5689 50.6624 37.4806 50.0988L37.4806 50.0988C37.3923 49.5352 36.8638 49.1499 36.3002 49.2382Z" fill="url(#paint12_radial_671_2786)"/>
<path d="M36.3002 44.7821L22.9287 46.8772C22.3651 46.9655 21.9798 47.494 22.0681 48.0576L22.0681 48.0576C22.1564 48.6212 22.6849 49.0065 23.2485 48.9182L36.62 46.8231C37.1836 46.7348 37.5689 46.2063 37.4806 45.6427L37.4806 45.6427C37.3923 45.0791 36.8638 44.6938 36.3002 44.7821Z" fill="url(#paint13_linear_671_2786)"/>
<path d="M36.3002 44.7821L22.9287 46.8772C22.3651 46.9655 21.9798 47.494 22.0681 48.0576L22.0681 48.0576C22.1564 48.6212 22.6849 49.0065 23.2485 48.9182L36.62 46.8231C37.1836 46.7348 37.5689 46.2063 37.4806 45.6427L37.4806 45.6427C37.3923 45.0791 36.8638 44.6938 36.3002 44.7821Z" fill="url(#paint14_linear_671_2786)"/>
<path d="M36.3002 44.7821L22.9287 46.8772C22.3651 46.9655 21.9798 47.494 22.0681 48.0576L22.0681 48.0576C22.1564 48.6212 22.6849 49.0065 23.2485 48.9182L36.62 46.8231C37.1836 46.7348 37.5689 46.2063 37.4806 45.6427L37.4806 45.6427C37.3923 45.0791 36.8638 44.6938 36.3002 44.7821Z" fill="url(#paint15_linear_671_2786)"/>
<path d="M36.3002 44.7821L22.9287 46.8772C22.3651 46.9655 21.9798 47.494 22.0681 48.0576L22.0681 48.0576C22.1564 48.6212 22.6849 49.0065 23.2485 48.9182L36.62 46.8231C37.1836 46.7348 37.5689 46.2063 37.4806 45.6427L37.4806 45.6427C37.3923 45.0791 36.8638 44.6938 36.3002 44.7821Z" fill="url(#paint16_radial_671_2786)"/>
<defs>
<filter id="filter0_i_671_2786" x="13.6084" y="3.73584" width="32.9004" height="39.6119" filterUnits="userSpaceOnUse" color-interpolation-filters="sRGB">
<feFlood flood-opacity="0" result="BackgroundImageFix"/>
<feBlend mode="normal" in="SourceGraphic" in2="BackgroundImageFix" result="shape"/>
<feColorMatrix in="SourceAlpha" type="matrix" values="0 0 0 0 0 0 0 0 0 0 0 0 0 0 0 0 0 0 127 0" result="hardAlpha"/>
<feOffset dx="0.46875" dy="0.28125"/>
<feGaussianBlur stdDeviation="0.9375"/>
<feComposite in2="hardAlpha" operator="arithmetic" k2="-1" k3="1"/>
<feColorMatrix type="matrix" values="0 0 0 0 0.992157 0 0 0 0 0.666667 0 0 0 0 0.309804 0 0 0 1 0"/>
<feBlend mode="normal" in2="shape" result="effect1_innerShadow_671_2786"/>
</filter>
<filter id="filter1_i_671_2786" x="22.2822" y="18.8085" width="15.4102" height="24.2533" filterUnits="userSpaceOnUse" color-interpolation-filters="sRGB">
<feFlood flood-opacity="0" result="BackgroundImageFix"/>
<feBlend mode="normal" in="SourceGraphic" in2="BackgroundImageFix" result="shape"/>
<feColorMatrix in="SourceAlpha" type="matrix" values="0 0 0 0 0 0 0 0 0 0 0 0 0 0 0 0 0 0 127 0" result="hardAlpha"/>
<feOffset dx="0.46875"/>
<feGaussianBlur stdDeviation="0.46875"/>
<feComposite in2="hardAlpha" operator="arithmetic" k2="-1" k3="1"/>
<feColorMatrix type="matrix" values="0 0 0 0 1 0 0 0 0 0.572549 0 0 0 0 0.254902 0 0 0 1 0"/>
<feBlend mode="normal" in2="shape" result="effect1_innerShadow_671_2786"/>
</filter>
<filter id="filter2_f_671_2786" x="22.7637" y="18.7955" width="14.4727" height="24.3081" filterUnits="userSpaceOnUse" color-interpolation-filters="sRGB">
<feFlood flood-opacity="0" result="BackgroundImageFix"/>
<feBlend mode="normal" in="SourceGraphic" in2="BackgroundImageFix" result="shape"/>
<feGaussianBlur stdDeviation="0.234375" result="effect1_foregroundBlur_671_2786"/>
</filter>
<filter id="filter3_f_671_2786" x="22.9805" y="44.8027" width="13.5781" height="4.61084" filterUnits="userSpaceOnUse" color-interpolation-filters="sRGB">
<feFlood flood-opacity="0" result="BackgroundImageFix"/>
<feBlend mode="normal" in="SourceGraphic" in2="BackgroundImageFix" result="shape"/>
<feGaussianBlur stdDeviation="0.234375" result="effect1_foregroundBlur_671_2786"/>
</filter>
<filter id="filter4_f_671_2786" x="22.9805" y="49.2487" width="13.5781" height="4.61084" filterUnits="userSpaceOnUse" color-interpolation-filters="sRGB">
<feFlood flood-opacity="0" result="BackgroundImageFix"/>
<feBlend mode="normal" in="SourceGraphic" in2="BackgroundImageFix" result="shape"/>
<feGaussianBlur stdDeviation="0.234375" result="effect1_foregroundBlur_671_2786"/>
</filter>
<radialGradient id="paint0_radial_671_2786" cx="0" cy="0" r="1" gradientUnits="userSpaceOnUse" gradientTransform="translate(30.6317 54.5802) rotate(96.6544) scale(1.76974 4.09901)">
<stop offset="0.267752" stop-color="#AC90C6"/>
<stop offset="1" stop-color="#8E6AAA"/>
</radialGradient>
<linearGradient id="paint1_linear_671_2786" x1="36.1817" y1="48.3778" x2="23.4668" y2="48.3778" gradientUnits="userSpaceOnUse">
<stop stop-color="#CDC2D1"/>
<stop offset="1" stop-color="#947C8D"/>
</linearGradient>
<linearGradient id="paint2_linear_671_2786" x1="22.839" y1="49.3359" x2="25.9446" y2="49.3359" gradientUnits="userSpaceOnUse">
<stop stop-color="#8A7B88"/>
<stop offset="1" stop-color="#8A7B88" stop-opacity="0"/>
</linearGradient>
<radialGradient id="paint3_radial_671_2786" cx="0" cy="0" r="1" gradientUnits="userSpaceOnUse" gradientTransform="translate(32.4462 42.4507) rotate(88.6361) scale(1.54663 6.88579)">
<stop offset="0.228769" stop-color="#EDE2EB"/>
<stop offset="1" stop-color="#C8BCCB" stop-opacity="0"/>
</radialGradient>
<linearGradient id="paint4_linear_671_2786" x1="32.7415" y1="54.1698" x2="32.7415" y2="51.7968" gradientUnits="userSpaceOnUse">
<stop stop-color="#7E5F9E"/>
<stop offset="1" stop-color="#7E5F9E" stop-opacity="0"/>
</linearGradient>
<radialGradient id="paint5_radial_671_2786" cx="0" cy="0" r="1" gradientUnits="userSpaceOnUse" gradientTransform="translate(36.6671 15.2344) rotate(138.066) scale(18.5882 15.3276)">
<stop offset="0.286168" stop-color="#FFEC87"/>
<stop offset="1" stop-color="#FFCD4B"/>
</radialGradient>
<radialGradient id="paint6_radial_671_2786" cx="0" cy="0" r="1" gradientUnits="userSpaceOnUse" gradientTransform="translate(38.4249 25.1953) rotate(-147.604) scale(27.3411 26.2984)">
<stop offset="0.622387" stop-color="#FFB239" stop-opacity="0"/>
<stop offset="1" stop-color="#FFB239"/>
</radialGradient>
<linearGradient id="paint7_linear_671_2786" x1="30.5589" y1="15.0514" x2="36.9742" y2="10.0524" gradientUnits="userSpaceOnUse">
<stop stop-color="white" stop-opacity="0"/>
<stop offset="0.594121" stop-color="white"/>
</linearGradient>
<linearGradient id="paint8_linear_671_2786" x1="36.9743" y1="20.6201" x2="29.4644" y2="38.5117" gradientUnits="userSpaceOnUse">
<stop stop-color="#FFBF5C"/>
<stop offset="1" stop-color="#FFBF5C" stop-opacity="0"/>
</linearGradient>
<linearGradient id="paint9_linear_671_2786" x1="29.4305" y1="50.3322" x2="29.9286" y2="52.5587" gradientUnits="userSpaceOnUse">
<stop stop-color="#B1969A"/>
<stop offset="1" stop-color="#DAD2E2"/>
</linearGradient>
<linearGradient id="paint10_linear_671_2786" x1="31.54" y1="52.0314" x2="31.3055" y2="50.5666" gradientUnits="userSpaceOnUse">
<stop stop-color="#8A68A9"/>
<stop offset="1" stop-color="#DEC2E3" stop-opacity="0"/>
</linearGradient>
<linearGradient id="paint11_linear_671_2786" x1="21.9081" y1="52.6759" x2="27.0282" y2="51.5919" gradientUnits="userSpaceOnUse">
<stop stop-color="#958387"/>
<stop offset="1" stop-color="#958387" stop-opacity="0"/>
</linearGradient>
<radialGradient id="paint12_radial_671_2786" cx="0" cy="0" r="1" gradientUnits="userSpaceOnUse" gradientTransform="translate(34.7919 50.1885) rotate(81.4164) scale(1.57032 9.29458)">
<stop offset="0.126697" stop-color="#FCF0FC"/>
<stop offset="1" stop-color="#E5C9E3" stop-opacity="0"/>
</radialGradient>
<linearGradient id="paint13_linear_671_2786" x1="29.4305" y1="45.8761" x2="29.9286" y2="48.1027" gradientUnits="userSpaceOnUse">
<stop stop-color="#B1969A"/>
<stop offset="1" stop-color="#DAD2E2"/>
</linearGradient>
<linearGradient id="paint14_linear_671_2786" x1="31.54" y1="47.5754" x2="31.3055" y2="46.1105" gradientUnits="userSpaceOnUse">
<stop stop-color="#8A68A9"/>
<stop offset="1" stop-color="#DEC2E3" stop-opacity="0"/>
</linearGradient>
<linearGradient id="paint15_linear_671_2786" x1="21.9081" y1="48.2199" x2="27.0282" y2="47.1358" gradientUnits="userSpaceOnUse">
<stop stop-color="#958387"/>
<stop offset="1" stop-color="#958387" stop-opacity="0"/>
</linearGradient>
<radialGradient id="paint16_radial_671_2786" cx="0" cy="0" r="1" gradientUnits="userSpaceOnUse" gradientTransform="translate(34.7919 45.7324) rotate(81.4164) scale(1.57032 9.29458)">
<stop offset="0.126697" stop-color="#FCF0FC"/>
<stop offset="1" stop-color="#E5C9E3" stop-opacity="0"/>
</radialGradient>
</defs>
</svg>
