<svg width="60" height="60" viewBox="0 0 60 60" fill="none" xmlns="http://www.w3.org/2000/svg">
<path d="M15.6171 56.2863C15.6222 56.1852 15.6249 56.0832 15.6249 55.9808C15.6249 52.7317 12.9908 50.0977 9.74157 50.0977C6.49236 50.0977 3.8584 52.7317 3.8584 55.9808C3.8584 56.0832 3.86102 56.1852 3.86618 56.2863H15.6171Z" fill="url(#paint0_radial_669_1876)"/>
<path d="M56.1347 56.2863C56.1399 56.1852 56.1423 56.0832 56.1423 55.9808C56.1423 52.7317 53.5084 50.0977 50.2592 50.0977C47.01 50.0977 44.376 52.7317 44.376 55.9808C44.376 56.0832 44.3786 56.1852 44.3839 56.2863H56.1347Z" fill="url(#paint1_radial_669_1876)"/>
<path d="M30 29.0991C18.6187 29.0991 9.375 38.3241 9.375 49.7241V56.2866H50.625V49.7241C50.625 38.3241 41.3812 29.0991 30 29.0991Z" fill="url(#paint2_linear_669_1876)"/>
<path d="M16.8384 33.7866C12.2634 37.5929 9.37587 43.3304 9.39462 49.7241L9.43212 56.2866L16.9321 56.2491L16.8384 33.7866Z" fill="url(#paint3_linear_669_1876)"/>
<path d="M43.125 33.8047V56.2672H50.625V49.7047C50.625 43.3109 47.7 37.5922 43.125 33.8047Z" fill="url(#paint4_linear_669_1876)"/>
<g filter="url(#filter0_i_669_1876)">
<path fill-rule="evenodd" clip-rule="evenodd" d="M43.4728 22.3468C43.8712 21.531 44.0799 20.6201 44.0799 19.6714C44.0799 18.7952 43.8997 17.9731 43.5763 17.2236H43.5864C43.4355 16.8843 43.266 16.5637 43.0591 16.2618L43.0552 16.2559C42.41 15.2692 42.0686 14.1117 42.0686 12.9353V12.9163C42.0686 9.50077 39.2983 6.7304 35.8826 6.7304C35.5411 6.7304 35.2185 6.5786 35.0287 6.29398C33.9093 4.73803 32.0685 3.71338 30.0001 3.71338C27.9318 3.71338 26.0913 4.73803 24.9718 6.29398C24.782 6.55963 24.4595 6.7304 24.1179 6.7304C24.0646 6.73042 24.0114 6.7311 23.9585 6.73243C20.6167 6.81705 17.9321 9.55408 17.9321 12.9163V12.9353C17.9321 14.1117 17.5905 15.2692 16.9453 16.2559L16.941 16.2628C16.2986 17.248 15.9209 18.403 15.9209 19.6714C15.9209 20.6391 16.1486 21.531 16.5281 22.3468C16.6609 22.6125 16.6609 22.9352 16.5281 23.2007C16.1486 23.9977 15.9209 24.8895 15.9209 25.8382C15.9209 29.178 18.6153 31.8724 21.9549 31.8724H38.0458C41.3855 31.8724 44.0799 29.178 44.0799 25.8382C44.0799 24.8895 43.8523 23.9977 43.4728 23.2007C43.3398 22.9352 43.3398 22.6125 43.4728 22.3468ZM20.4849 17.3362H20.4618L22.7094 21.7528C22.9406 27.0075 24.9913 21.7528 30.0001 21.7528C35.0092 21.7528 37.1934 27.6017 37.4246 22.3468L39.5544 16.3523C39.4537 14.0182 37.7623 13.8544 37.4246 13.8544H31.3871C29.0028 13.8544 26.7532 12.6874 25.4071 10.717C25.1765 10.3917 24.6958 10.4491 24.542 10.8126L24.3881 11.1761C23.9651 12.2283 23.1575 13.0318 22.1578 13.4909C22.1289 13.5005 22.0951 13.5148 22.0616 13.5292C22.028 13.5435 21.9943 13.5579 21.9654 13.5674C21.5233 13.797 20.4849 14.4857 20.4465 16.2648L20.4658 16.8388L20.4849 17.3362Z" fill="url(#paint5_linear_669_1876)"/>
<path fill-rule="evenodd" clip-rule="evenodd" d="M43.4728 22.3468C43.8712 21.531 44.0799 20.6201 44.0799 19.6714C44.0799 18.7952 43.8997 17.9731 43.5763 17.2236H43.5864C43.4355 16.8843 43.266 16.5637 43.0591 16.2618L43.0552 16.2559C42.41 15.2692 42.0686 14.1117 42.0686 12.9353V12.9163C42.0686 9.50077 39.2983 6.7304 35.8826 6.7304C35.5411 6.7304 35.2185 6.5786 35.0287 6.29398C33.9093 4.73803 32.0685 3.71338 30.0001 3.71338C27.9318 3.71338 26.0913 4.73803 24.9718 6.29398C24.782 6.55963 24.4595 6.7304 24.1179 6.7304C24.0646 6.73042 24.0114 6.7311 23.9585 6.73243C20.6167 6.81705 17.9321 9.55408 17.9321 12.9163V12.9353C17.9321 14.1117 17.5905 15.2692 16.9453 16.2559L16.941 16.2628C16.2986 17.248 15.9209 18.403 15.9209 19.6714C15.9209 20.6391 16.1486 21.531 16.5281 22.3468C16.6609 22.6125 16.6609 22.9352 16.5281 23.2007C16.1486 23.9977 15.9209 24.8895 15.9209 25.8382C15.9209 29.178 18.6153 31.8724 21.9549 31.8724H38.0458C41.3855 31.8724 44.0799 29.178 44.0799 25.8382C44.0799 24.8895 43.8523 23.9977 43.4728 23.2007C43.3398 22.9352 43.3398 22.6125 43.4728 22.3468ZM20.4849 17.3362H20.4618L22.7094 21.7528C22.9406 27.0075 24.9913 21.7528 30.0001 21.7528C35.0092 21.7528 37.1934 27.6017 37.4246 22.3468L39.5544 16.3523C39.4537 14.0182 37.7623 13.8544 37.4246 13.8544H31.3871C29.0028 13.8544 26.7532 12.6874 25.4071 10.717C25.1765 10.3917 24.6958 10.4491 24.542 10.8126L24.3881 11.1761C23.9651 12.2283 23.1575 13.0318 22.1578 13.4909C22.1289 13.5005 22.0951 13.5148 22.0616 13.5292C22.028 13.5435 21.9943 13.5579 21.9654 13.5674C21.5233 13.797 20.4849 14.4857 20.4465 16.2648L20.4658 16.8388L20.4849 17.3362Z" fill="url(#paint6_radial_669_1876)"/>
<path fill-rule="evenodd" clip-rule="evenodd" d="M43.4728 22.3468C43.8712 21.531 44.0799 20.6201 44.0799 19.6714C44.0799 18.7952 43.8997 17.9731 43.5763 17.2236H43.5864C43.4355 16.8843 43.266 16.5637 43.0591 16.2618L43.0552 16.2559C42.41 15.2692 42.0686 14.1117 42.0686 12.9353V12.9163C42.0686 9.50077 39.2983 6.7304 35.8826 6.7304C35.5411 6.7304 35.2185 6.5786 35.0287 6.29398C33.9093 4.73803 32.0685 3.71338 30.0001 3.71338C27.9318 3.71338 26.0913 4.73803 24.9718 6.29398C24.782 6.55963 24.4595 6.7304 24.1179 6.7304C24.0646 6.73042 24.0114 6.7311 23.9585 6.73243C20.6167 6.81705 17.9321 9.55408 17.9321 12.9163V12.9353C17.9321 14.1117 17.5905 15.2692 16.9453 16.2559L16.941 16.2628C16.2986 17.248 15.9209 18.403 15.9209 19.6714C15.9209 20.6391 16.1486 21.531 16.5281 22.3468C16.6609 22.6125 16.6609 22.9352 16.5281 23.2007C16.1486 23.9977 15.9209 24.8895 15.9209 25.8382C15.9209 29.178 18.6153 31.8724 21.9549 31.8724H38.0458C41.3855 31.8724 44.0799 29.178 44.0799 25.8382C44.0799 24.8895 43.8523 23.9977 43.4728 23.2007C43.3398 22.9352 43.3398 22.6125 43.4728 22.3468ZM20.4849 17.3362H20.4618L22.7094 21.7528C22.9406 27.0075 24.9913 21.7528 30.0001 21.7528C35.0092 21.7528 37.1934 27.6017 37.4246 22.3468L39.5544 16.3523C39.4537 14.0182 37.7623 13.8544 37.4246 13.8544H31.3871C29.0028 13.8544 26.7532 12.6874 25.4071 10.717C25.1765 10.3917 24.6958 10.4491 24.542 10.8126L24.3881 11.1761C23.9651 12.2283 23.1575 13.0318 22.1578 13.4909C22.1289 13.5005 22.0951 13.5148 22.0616 13.5292C22.028 13.5435 21.9943 13.5579 21.9654 13.5674C21.5233 13.797 20.4849 14.4857 20.4465 16.2648L20.4658 16.8388L20.4849 17.3362Z" fill="url(#paint7_radial_669_1876)"/>
<path fill-rule="evenodd" clip-rule="evenodd" d="M43.4728 22.3468C43.8712 21.531 44.0799 20.6201 44.0799 19.6714C44.0799 18.7952 43.8997 17.9731 43.5763 17.2236H43.5864C43.4355 16.8843 43.266 16.5637 43.0591 16.2618L43.0552 16.2559C42.41 15.2692 42.0686 14.1117 42.0686 12.9353V12.9163C42.0686 9.50077 39.2983 6.7304 35.8826 6.7304C35.5411 6.7304 35.2185 6.5786 35.0287 6.29398C33.9093 4.73803 32.0685 3.71338 30.0001 3.71338C27.9318 3.71338 26.0913 4.73803 24.9718 6.29398C24.782 6.55963 24.4595 6.7304 24.1179 6.7304C24.0646 6.73042 24.0114 6.7311 23.9585 6.73243C20.6167 6.81705 17.9321 9.55408 17.9321 12.9163V12.9353C17.9321 14.1117 17.5905 15.2692 16.9453 16.2559L16.941 16.2628C16.2986 17.248 15.9209 18.403 15.9209 19.6714C15.9209 20.6391 16.1486 21.531 16.5281 22.3468C16.6609 22.6125 16.6609 22.9352 16.5281 23.2007C16.1486 23.9977 15.9209 24.8895 15.9209 25.8382C15.9209 29.178 18.6153 31.8724 21.9549 31.8724H38.0458C41.3855 31.8724 44.0799 29.178 44.0799 25.8382C44.0799 24.8895 43.8523 23.9977 43.4728 23.2007C43.3398 22.9352 43.3398 22.6125 43.4728 22.3468ZM20.4849 17.3362H20.4618L22.7094 21.7528C22.9406 27.0075 24.9913 21.7528 30.0001 21.7528C35.0092 21.7528 37.1934 27.6017 37.4246 22.3468L39.5544 16.3523C39.4537 14.0182 37.7623 13.8544 37.4246 13.8544H31.3871C29.0028 13.8544 26.7532 12.6874 25.4071 10.717C25.1765 10.3917 24.6958 10.4491 24.542 10.8126L24.3881 11.1761C23.9651 12.2283 23.1575 13.0318 22.1578 13.4909C22.1289 13.5005 22.0951 13.5148 22.0616 13.5292C22.028 13.5435 21.9943 13.5579 21.9654 13.5674C21.5233 13.797 20.4849 14.4857 20.4465 16.2648L20.4658 16.8388L20.4849 17.3362Z" fill="url(#paint8_radial_669_1876)"/>
<path fill-rule="evenodd" clip-rule="evenodd" d="M43.4728 22.3468C43.8712 21.531 44.0799 20.6201 44.0799 19.6714C44.0799 18.7952 43.8997 17.9731 43.5763 17.2236H43.5864C43.4355 16.8843 43.266 16.5637 43.0591 16.2618L43.0552 16.2559C42.41 15.2692 42.0686 14.1117 42.0686 12.9353V12.9163C42.0686 9.50077 39.2983 6.7304 35.8826 6.7304C35.5411 6.7304 35.2185 6.5786 35.0287 6.29398C33.9093 4.73803 32.0685 3.71338 30.0001 3.71338C27.9318 3.71338 26.0913 4.73803 24.9718 6.29398C24.782 6.55963 24.4595 6.7304 24.1179 6.7304C24.0646 6.73042 24.0114 6.7311 23.9585 6.73243C20.6167 6.81705 17.9321 9.55408 17.9321 12.9163V12.9353C17.9321 14.1117 17.5905 15.2692 16.9453 16.2559L16.941 16.2628C16.2986 17.248 15.9209 18.403 15.9209 19.6714C15.9209 20.6391 16.1486 21.531 16.5281 22.3468C16.6609 22.6125 16.6609 22.9352 16.5281 23.2007C16.1486 23.9977 15.9209 24.8895 15.9209 25.8382C15.9209 29.178 18.6153 31.8724 21.9549 31.8724H38.0458C41.3855 31.8724 44.0799 29.178 44.0799 25.8382C44.0799 24.8895 43.8523 23.9977 43.4728 23.2007C43.3398 22.9352 43.3398 22.6125 43.4728 22.3468ZM20.4849 17.3362H20.4618L22.7094 21.7528C22.9406 27.0075 24.9913 21.7528 30.0001 21.7528C35.0092 21.7528 37.1934 27.6017 37.4246 22.3468L39.5544 16.3523C39.4537 14.0182 37.7623 13.8544 37.4246 13.8544H31.3871C29.0028 13.8544 26.7532 12.6874 25.4071 10.717C25.1765 10.3917 24.6958 10.4491 24.542 10.8126L24.3881 11.1761C23.9651 12.2283 23.1575 13.0318 22.1578 13.4909C22.1289 13.5005 22.0951 13.5148 22.0616 13.5292C22.028 13.5435 21.9943 13.5579 21.9654 13.5674C21.5233 13.797 20.4849 14.4857 20.4465 16.2648L20.4658 16.8388L20.4849 17.3362Z" fill="url(#paint9_radial_669_1876)"/>
<path fill-rule="evenodd" clip-rule="evenodd" d="M43.4728 22.3468C43.8712 21.531 44.0799 20.6201 44.0799 19.6714C44.0799 18.7952 43.8997 17.9731 43.5763 17.2236H43.5864C43.4355 16.8843 43.266 16.5637 43.0591 16.2618L43.0552 16.2559C42.41 15.2692 42.0686 14.1117 42.0686 12.9353V12.9163C42.0686 9.50077 39.2983 6.7304 35.8826 6.7304C35.5411 6.7304 35.2185 6.5786 35.0287 6.29398C33.9093 4.73803 32.0685 3.71338 30.0001 3.71338C27.9318 3.71338 26.0913 4.73803 24.9718 6.29398C24.782 6.55963 24.4595 6.7304 24.1179 6.7304C24.0646 6.73042 24.0114 6.7311 23.9585 6.73243C20.6167 6.81705 17.9321 9.55408 17.9321 12.9163V12.9353C17.9321 14.1117 17.5905 15.2692 16.9453 16.2559L16.941 16.2628C16.2986 17.248 15.9209 18.403 15.9209 19.6714C15.9209 20.6391 16.1486 21.531 16.5281 22.3468C16.6609 22.6125 16.6609 22.9352 16.5281 23.2007C16.1486 23.9977 15.9209 24.8895 15.9209 25.8382C15.9209 29.178 18.6153 31.8724 21.9549 31.8724H38.0458C41.3855 31.8724 44.0799 29.178 44.0799 25.8382C44.0799 24.8895 43.8523 23.9977 43.4728 23.2007C43.3398 22.9352 43.3398 22.6125 43.4728 22.3468ZM20.4849 17.3362H20.4618L22.7094 21.7528C22.9406 27.0075 24.9913 21.7528 30.0001 21.7528C35.0092 21.7528 37.1934 27.6017 37.4246 22.3468L39.5544 16.3523C39.4537 14.0182 37.7623 13.8544 37.4246 13.8544H31.3871C29.0028 13.8544 26.7532 12.6874 25.4071 10.717C25.1765 10.3917 24.6958 10.4491 24.542 10.8126L24.3881 11.1761C23.9651 12.2283 23.1575 13.0318 22.1578 13.4909C22.1289 13.5005 22.0951 13.5148 22.0616 13.5292C22.028 13.5435 21.9943 13.5579 21.9654 13.5674C21.5233 13.797 20.4849 14.4857 20.4465 16.2648L20.4658 16.8388L20.4849 17.3362Z" fill="url(#paint10_radial_669_1876)"/>
<path fill-rule="evenodd" clip-rule="evenodd" d="M43.4728 22.3468C43.8712 21.531 44.0799 20.6201 44.0799 19.6714C44.0799 18.7952 43.8997 17.9731 43.5763 17.2236H43.5864C43.4355 16.8843 43.266 16.5637 43.0591 16.2618L43.0552 16.2559C42.41 15.2692 42.0686 14.1117 42.0686 12.9353V12.9163C42.0686 9.50077 39.2983 6.7304 35.8826 6.7304C35.5411 6.7304 35.2185 6.5786 35.0287 6.29398C33.9093 4.73803 32.0685 3.71338 30.0001 3.71338C27.9318 3.71338 26.0913 4.73803 24.9718 6.29398C24.782 6.55963 24.4595 6.7304 24.1179 6.7304C24.0646 6.73042 24.0114 6.7311 23.9585 6.73243C20.6167 6.81705 17.9321 9.55408 17.9321 12.9163V12.9353C17.9321 14.1117 17.5905 15.2692 16.9453 16.2559L16.941 16.2628C16.2986 17.248 15.9209 18.403 15.9209 19.6714C15.9209 20.6391 16.1486 21.531 16.5281 22.3468C16.6609 22.6125 16.6609 22.9352 16.5281 23.2007C16.1486 23.9977 15.9209 24.8895 15.9209 25.8382C15.9209 29.178 18.6153 31.8724 21.9549 31.8724H38.0458C41.3855 31.8724 44.0799 29.178 44.0799 25.8382C44.0799 24.8895 43.8523 23.9977 43.4728 23.2007C43.3398 22.9352 43.3398 22.6125 43.4728 22.3468ZM20.4849 17.3362H20.4618L22.7094 21.7528C22.9406 27.0075 24.9913 21.7528 30.0001 21.7528C35.0092 21.7528 37.1934 27.6017 37.4246 22.3468L39.5544 16.3523C39.4537 14.0182 37.7623 13.8544 37.4246 13.8544H31.3871C29.0028 13.8544 26.7532 12.6874 25.4071 10.717C25.1765 10.3917 24.6958 10.4491 24.542 10.8126L24.3881 11.1761C23.9651 12.2283 23.1575 13.0318 22.1578 13.4909C22.1289 13.5005 22.0951 13.5148 22.0616 13.5292C22.028 13.5435 21.9943 13.5579 21.9654 13.5674C21.5233 13.797 20.4849 14.4857 20.4465 16.2648L20.4658 16.8388L20.4849 17.3362Z" fill="url(#paint11_radial_669_1876)"/>
<path fill-rule="evenodd" clip-rule="evenodd" d="M43.4728 22.3468C43.8712 21.531 44.0799 20.6201 44.0799 19.6714C44.0799 18.7952 43.8997 17.9731 43.5763 17.2236H43.5864C43.4355 16.8843 43.266 16.5637 43.0591 16.2618L43.0552 16.2559C42.41 15.2692 42.0686 14.1117 42.0686 12.9353V12.9163C42.0686 9.50077 39.2983 6.7304 35.8826 6.7304C35.5411 6.7304 35.2185 6.5786 35.0287 6.29398C33.9093 4.73803 32.0685 3.71338 30.0001 3.71338C27.9318 3.71338 26.0913 4.73803 24.9718 6.29398C24.782 6.55963 24.4595 6.7304 24.1179 6.7304C24.0646 6.73042 24.0114 6.7311 23.9585 6.73243C20.6167 6.81705 17.9321 9.55408 17.9321 12.9163V12.9353C17.9321 14.1117 17.5905 15.2692 16.9453 16.2559L16.941 16.2628C16.2986 17.248 15.9209 18.403 15.9209 19.6714C15.9209 20.6391 16.1486 21.531 16.5281 22.3468C16.6609 22.6125 16.6609 22.9352 16.5281 23.2007C16.1486 23.9977 15.9209 24.8895 15.9209 25.8382C15.9209 29.178 18.6153 31.8724 21.9549 31.8724H38.0458C41.3855 31.8724 44.0799 29.178 44.0799 25.8382C44.0799 24.8895 43.8523 23.9977 43.4728 23.2007C43.3398 22.9352 43.3398 22.6125 43.4728 22.3468ZM20.4849 17.3362H20.4618L22.7094 21.7528C22.9406 27.0075 24.9913 21.7528 30.0001 21.7528C35.0092 21.7528 37.1934 27.6017 37.4246 22.3468L39.5544 16.3523C39.4537 14.0182 37.7623 13.8544 37.4246 13.8544H31.3871C29.0028 13.8544 26.7532 12.6874 25.4071 10.717C25.1765 10.3917 24.6958 10.4491 24.542 10.8126L24.3881 11.1761C23.9651 12.2283 23.1575 13.0318 22.1578 13.4909C22.1289 13.5005 22.0951 13.5148 22.0616 13.5292C22.028 13.5435 21.9943 13.5579 21.9654 13.5674C21.5233 13.797 20.4849 14.4857 20.4465 16.2648L20.4658 16.8388L20.4849 17.3362Z" fill="url(#paint12_radial_669_1876)"/>
<path fill-rule="evenodd" clip-rule="evenodd" d="M43.4728 22.3468C43.8712 21.531 44.0799 20.6201 44.0799 19.6714C44.0799 18.7952 43.8997 17.9731 43.5763 17.2236H43.5864C43.4355 16.8843 43.266 16.5637 43.0591 16.2618L43.0552 16.2559C42.41 15.2692 42.0686 14.1117 42.0686 12.9353V12.9163C42.0686 9.50077 39.2983 6.7304 35.8826 6.7304C35.5411 6.7304 35.2185 6.5786 35.0287 6.29398C33.9093 4.73803 32.0685 3.71338 30.0001 3.71338C27.9318 3.71338 26.0913 4.73803 24.9718 6.29398C24.782 6.55963 24.4595 6.7304 24.1179 6.7304C24.0646 6.73042 24.0114 6.7311 23.9585 6.73243C20.6167 6.81705 17.9321 9.55408 17.9321 12.9163V12.9353C17.9321 14.1117 17.5905 15.2692 16.9453 16.2559L16.941 16.2628C16.2986 17.248 15.9209 18.403 15.9209 19.6714C15.9209 20.6391 16.1486 21.531 16.5281 22.3468C16.6609 22.6125 16.6609 22.9352 16.5281 23.2007C16.1486 23.9977 15.9209 24.8895 15.9209 25.8382C15.9209 29.178 18.6153 31.8724 21.9549 31.8724H38.0458C41.3855 31.8724 44.0799 29.178 44.0799 25.8382C44.0799 24.8895 43.8523 23.9977 43.4728 23.2007C43.3398 22.9352 43.3398 22.6125 43.4728 22.3468ZM20.4849 17.3362H20.4618L22.7094 21.7528C22.9406 27.0075 24.9913 21.7528 30.0001 21.7528C35.0092 21.7528 37.1934 27.6017 37.4246 22.3468L39.5544 16.3523C39.4537 14.0182 37.7623 13.8544 37.4246 13.8544H31.3871C29.0028 13.8544 26.7532 12.6874 25.4071 10.717C25.1765 10.3917 24.6958 10.4491 24.542 10.8126L24.3881 11.1761C23.9651 12.2283 23.1575 13.0318 22.1578 13.4909C22.1289 13.5005 22.0951 13.5148 22.0616 13.5292C22.028 13.5435 21.9943 13.5579 21.9654 13.5674C21.5233 13.797 20.4849 14.4857 20.4465 16.2648L20.4658 16.8388L20.4849 17.3362Z" fill="url(#paint13_radial_669_1876)"/>
</g>
<g filter="url(#filter1_i_669_1876)">
<path d="M21.2143 22.7206C22.8806 22.7206 24.2314 21.3699 24.2314 19.7036C24.2314 18.0373 22.8806 16.6865 21.2143 16.6865C19.548 16.6865 18.1973 18.0373 18.1973 19.7036C18.1973 21.3699 19.548 22.7206 21.2143 22.7206Z" fill="url(#paint14_linear_669_1876)"/>
</g>
<g filter="url(#filter2_i_669_1876)">
<path d="M39.0512 22.7206C40.7176 22.7206 42.0683 21.3699 42.0683 19.7036C42.0683 18.0373 40.7176 16.6865 39.0512 16.6865C37.3851 16.6865 36.0342 18.0373 36.0342 19.7036C36.0342 21.3699 37.3851 22.7206 39.0512 22.7206Z" fill="url(#paint15_radial_669_1876)"/>
</g>
<g filter="url(#filter3_f_669_1876)">
<path d="M39.052 21.7179C40.1643 21.7179 41.066 20.8162 41.066 19.7039C41.066 18.5916 40.1643 17.6899 39.052 17.6899C37.9398 17.6899 37.0381 18.5916 37.0381 19.7039C37.0381 20.8162 37.9398 21.7179 39.052 21.7179Z" fill="#FFCA38"/>
<path d="M39.052 21.7179C40.1643 21.7179 41.066 20.8162 41.066 19.7039C41.066 18.5916 40.1643 17.6899 39.052 17.6899C37.9398 17.6899 37.0381 18.5916 37.0381 19.7039C37.0381 20.8162 37.9398 21.7179 39.052 21.7179Z" fill="url(#paint16_radial_669_1876)"/>
</g>
<g filter="url(#filter4_f_669_1876)">
<path d="M21.2503 21.7179C22.3625 21.7179 23.2642 20.8162 23.2642 19.7039C23.2642 18.5916 22.3625 17.6899 21.2503 17.6899C20.138 17.6899 19.2363 18.5916 19.2363 19.7039C19.2363 20.8162 20.138 21.7179 21.2503 21.7179Z" fill="#E28527"/>
<path d="M21.2503 21.7179C22.3625 21.7179 23.2642 20.8162 23.2642 19.7039C23.2642 18.5916 22.3625 17.6899 21.2503 17.6899C20.138 17.6899 19.2363 18.5916 19.2363 19.7039C19.2363 20.8162 20.138 21.7179 21.2503 21.7179Z" fill="url(#paint17_radial_669_1876)"/>
</g>
<g filter="url(#filter5_i_669_1876)">
<path d="M20.4607 17.3357H20.4839L20.4646 16.8383L20.4453 16.2644C20.4839 14.4853 21.5221 13.7966 21.9644 13.567C21.9933 13.5574 22.0269 13.5431 22.0604 13.5287C22.0942 13.5144 22.1277 13.5 22.1566 13.4905C23.1566 13.0313 23.9641 12.2279 24.3871 11.1757L24.5409 10.8122C24.6948 10.4487 25.1754 10.3913 25.4062 10.7165C26.7521 12.687 29.0017 13.854 31.3859 13.854H37.4234C37.7611 13.854 39.4526 14.0178 39.5532 16.3519L39.3307 22.1137C39.0995 27.3684 34.9959 30.897 29.987 30.897C24.9781 30.897 20.8747 27.3684 20.6435 22.1137L20.4607 17.3357Z" fill="url(#paint18_radial_669_1876)"/>
<path d="M20.4607 17.3357H20.4839L20.4646 16.8383L20.4453 16.2644C20.4839 14.4853 21.5221 13.7966 21.9644 13.567C21.9933 13.5574 22.0269 13.5431 22.0604 13.5287C22.0942 13.5144 22.1277 13.5 22.1566 13.4905C23.1566 13.0313 23.9641 12.2279 24.3871 11.1757L24.5409 10.8122C24.6948 10.4487 25.1754 10.3913 25.4062 10.7165C26.7521 12.687 29.0017 13.854 31.3859 13.854H37.4234C37.7611 13.854 39.4526 14.0178 39.5532 16.3519L39.3307 22.1137C39.0995 27.3684 34.9959 30.897 29.987 30.897C24.9781 30.897 20.8747 27.3684 20.6435 22.1137L20.4607 17.3357Z" fill="url(#paint19_radial_669_1876)"/>
<path d="M20.4607 17.3357H20.4839L20.4646 16.8383L20.4453 16.2644C20.4839 14.4853 21.5221 13.7966 21.9644 13.567C21.9933 13.5574 22.0269 13.5431 22.0604 13.5287C22.0942 13.5144 22.1277 13.5 22.1566 13.4905C23.1566 13.0313 23.9641 12.2279 24.3871 11.1757L24.5409 10.8122C24.6948 10.4487 25.1754 10.3913 25.4062 10.7165C26.7521 12.687 29.0017 13.854 31.3859 13.854H37.4234C37.7611 13.854 39.4526 14.0178 39.5532 16.3519L39.3307 22.1137C39.0995 27.3684 34.9959 30.897 29.987 30.897C24.9781 30.897 20.8747 27.3684 20.6435 22.1137L20.4607 17.3357Z" fill="url(#paint20_radial_669_1876)"/>
<path d="M20.4607 17.3357H20.4839L20.4646 16.8383L20.4453 16.2644C20.4839 14.4853 21.5221 13.7966 21.9644 13.567C21.9933 13.5574 22.0269 13.5431 22.0604 13.5287C22.0942 13.5144 22.1277 13.5 22.1566 13.4905C23.1566 13.0313 23.9641 12.2279 24.3871 11.1757L24.5409 10.8122C24.6948 10.4487 25.1754 10.3913 25.4062 10.7165C26.7521 12.687 29.0017 13.854 31.3859 13.854H37.4234C37.7611 13.854 39.4526 14.0178 39.5532 16.3519L39.3307 22.1137C39.0995 27.3684 34.9959 30.897 29.987 30.897C24.9781 30.897 20.8747 27.3684 20.6435 22.1137L20.4607 17.3357Z" fill="url(#paint21_radial_669_1876)"/>
<path d="M20.4607 17.3357H20.4839L20.4646 16.8383L20.4453 16.2644C20.4839 14.4853 21.5221 13.7966 21.9644 13.567C21.9933 13.5574 22.0269 13.5431 22.0604 13.5287C22.0942 13.5144 22.1277 13.5 22.1566 13.4905C23.1566 13.0313 23.9641 12.2279 24.3871 11.1757L24.5409 10.8122C24.6948 10.4487 25.1754 10.3913 25.4062 10.7165C26.7521 12.687 29.0017 13.854 31.3859 13.854H37.4234C37.7611 13.854 39.4526 14.0178 39.5532 16.3519L39.3307 22.1137C39.0995 27.3684 34.9959 30.897 29.987 30.897C24.9781 30.897 20.8747 27.3684 20.6435 22.1137L20.4607 17.3357Z" fill="url(#paint22_radial_669_1876)"/>
<path d="M20.4607 17.3357H20.4839L20.4646 16.8383L20.4453 16.2644C20.4839 14.4853 21.5221 13.7966 21.9644 13.567C21.9933 13.5574 22.0269 13.5431 22.0604 13.5287C22.0942 13.5144 22.1277 13.5 22.1566 13.4905C23.1566 13.0313 23.9641 12.2279 24.3871 11.1757L24.5409 10.8122C24.6948 10.4487 25.1754 10.3913 25.4062 10.7165C26.7521 12.687 29.0017 13.854 31.3859 13.854H37.4234C37.7611 13.854 39.4526 14.0178 39.5532 16.3519L39.3307 22.1137C39.0995 27.3684 34.9959 30.897 29.987 30.897C24.9781 30.897 20.8747 27.3684 20.6435 22.1137L20.4607 17.3357Z" fill="url(#paint23_radial_669_1876)"/>
<path d="M20.4607 17.3357H20.4839L20.4646 16.8383L20.4453 16.2644C20.4839 14.4853 21.5221 13.7966 21.9644 13.567C21.9933 13.5574 22.0269 13.5431 22.0604 13.5287C22.0942 13.5144 22.1277 13.5 22.1566 13.4905C23.1566 13.0313 23.9641 12.2279 24.3871 11.1757L24.5409 10.8122C24.6948 10.4487 25.1754 10.3913 25.4062 10.7165C26.7521 12.687 29.0017 13.854 31.3859 13.854H37.4234C37.7611 13.854 39.4526 14.0178 39.5532 16.3519L39.3307 22.1137C39.0995 27.3684 34.9959 30.897 29.987 30.897C24.9781 30.897 20.8747 27.3684 20.6435 22.1137L20.4607 17.3357Z" fill="url(#paint24_radial_669_1876)"/>
</g>
<path d="M20.4607 17.3357H20.4839L20.4646 16.8383L20.4453 16.2644C20.4839 14.4853 21.5221 13.7966 21.9644 13.567C21.9933 13.5574 22.0269 13.5431 22.0604 13.5287C22.0942 13.5144 22.1277 13.5 22.1566 13.4905C23.1566 13.0313 23.9641 12.2279 24.3871 11.1757L24.5409 10.8122C24.6948 10.4487 25.1754 10.3913 25.4062 10.7165C26.7521 12.687 29.0017 13.854 31.3859 13.854H37.4234C37.7611 13.854 39.4526 14.0178 39.5532 16.3519L39.3307 22.1137C39.0995 27.3684 34.9959 30.897 29.987 30.897C24.9781 30.897 20.8747 27.3684 20.6435 22.1137L20.4607 17.3357Z" fill="url(#paint25_radial_669_1876)"/>
<g filter="url(#filter6_f_669_1876)">
<path d="M29.2637 19.286L27.9821 22.4735C27.7787 23.129 28.2667 23.7847 28.9582 23.7847H30.4327C31.1241 23.7847 31.6123 23.119 31.4089 22.4735L30.4123 19.286C30.1987 18.5798 29.4876 18.5798 29.2637 19.286Z" fill="#EB8B29"/>
</g>
<g filter="url(#filter7_f_669_1876)">
<path d="M29.2833 19.0262L28.2867 22.2137C28.0835 22.8694 28.5715 23.5251 29.263 23.5251H30.7374C31.4289 23.5251 31.9169 22.8592 31.7135 22.2137L30.7171 19.0262C30.5036 18.3201 29.507 18.3201 29.2833 19.0262Z" fill="url(#paint26_linear_669_1876)"/>
<path d="M29.2833 19.0262L28.2867 22.2137C28.0835 22.8694 28.5715 23.5251 29.263 23.5251H30.7374C31.4289 23.5251 31.9169 22.8592 31.7135 22.2137L30.7171 19.0262C30.5036 18.3201 29.507 18.3201 29.2833 19.0262Z" fill="url(#paint27_radial_669_1876)"/>
<path d="M29.2833 19.0262L28.2867 22.2137C28.0835 22.8694 28.5715 23.5251 29.263 23.5251H30.7374C31.4289 23.5251 31.9169 22.8592 31.7135 22.2137L30.7171 19.0262C30.5036 18.3201 29.507 18.3201 29.2833 19.0262Z" fill="url(#paint28_linear_669_1876)"/>
<path d="M29.2833 19.0262L28.2867 22.2137C28.0835 22.8694 28.5715 23.5251 29.263 23.5251H30.7374C31.4289 23.5251 31.9169 22.8592 31.7135 22.2137L30.7171 19.0262C30.5036 18.3201 29.507 18.3201 29.2833 19.0262Z" fill="url(#paint29_linear_669_1876)"/>
</g>
<path d="M29.2833 19.0262L28.2867 22.2137C28.0835 22.8694 28.5715 23.5251 29.263 23.5251H30.7374C31.4289 23.5251 31.9169 22.8592 31.7135 22.2137L30.7171 19.0262C30.5036 18.3201 29.507 18.3201 29.2833 19.0262Z" fill="url(#paint30_linear_669_1876)"/>
<path d="M29.2833 19.0262L28.2867 22.2137C28.0835 22.8694 28.5715 23.5251 29.263 23.5251H30.7374C31.4289 23.5251 31.9169 22.8592 31.7135 22.2137L30.7171 19.0262C30.5036 18.3201 29.507 18.3201 29.2833 19.0262Z" fill="url(#paint31_radial_669_1876)"/>
<path d="M27.3788 24.4331C27.2042 24.3424 27.022 24.3988 26.9145 24.5145C26.8069 24.6304 26.7651 24.8149 26.8757 24.979C27.5366 26.0027 28.6881 26.6858 30.0002 26.6858C31.3125 26.6858 32.4643 26.0025 33.1251 24.9782C33.2342 24.8108 33.1946 24.6265 33.0853 24.5104C32.977 24.3953 32.7955 24.3428 32.6224 24.4328C31.8649 24.8366 30.9713 25.0686 30.0002 25.0686C29.0387 25.0686 28.1361 24.837 27.3788 24.4331Z" fill="#8A004F" stroke="url(#paint32_linear_669_1876)" stroke-width="0.1875"/>
<g filter="url(#filter8_i_669_1876)">
<path d="M32.1416 18.6364C32.6392 17.7612 33.3958 17.0698 35.024 17.0698C35.7371 17.0698 36.4245 17.2674 37.0357 17.7612C37.5397 18.1685 37.4722 18.6896 37.0819 18.8848L36.0394 19.4799C34.817 19.0849 33.4655 19.0314 32.1416 18.6364Z" fill="#635D5F"/>
</g>
<g filter="url(#filter9_i_669_1876)">
<path d="M27.8591 18.6364C27.3613 17.7612 26.6049 17.0698 24.9765 17.0698C24.2636 17.0698 23.576 17.2674 22.965 17.7612C22.461 18.1685 22.5285 18.6896 22.9187 18.8848L23.9613 19.4799C25.1835 19.0849 26.535 19.0314 27.8591 18.6364Z" fill="#635D5F"/>
</g>
<g filter="url(#filter10_i_669_1876)">
<path d="M23.6291 16.3702L23.621 16.3749C23.6207 16.375 23.6212 16.3747 23.621 16.3749C23.3829 16.517 23.0737 16.4402 22.931 16.2024C22.7882 15.9643 22.8656 15.6552 23.1039 15.5124L23.1069 15.5106L23.1124 15.5073L23.13 15.4971C23.1446 15.4887 23.165 15.4773 23.1909 15.4633C23.2425 15.4354 23.3158 15.3972 23.4082 15.3531C23.5931 15.265 23.8564 15.1522 24.1774 15.0498C24.8147 14.8465 25.7059 14.6753 26.6677 14.8451C26.9413 14.8934 27.1239 15.1542 27.0755 15.4277C27.0274 15.7012 26.7665 15.8838 26.493 15.8355C25.7454 15.7036 25.0275 15.8342 24.4832 16.0079C24.2132 16.094 23.9925 16.1887 23.841 16.2609C23.7654 16.2969 23.7077 16.3271 23.67 16.3475C23.6512 16.3577 23.6375 16.3654 23.6291 16.3702Z" fill="#BD4F26"/>
</g>
<g filter="url(#filter11_i_669_1876)">
<path fill-rule="evenodd" clip-rule="evenodd" d="M36.997 15.5124C36.9972 15.5125 36.9973 15.5125 36.7386 15.9437L36.997 15.5124C37.2351 15.6552 37.3127 15.9643 37.1698 16.2024C37.0272 16.4402 36.7189 16.5176 36.481 16.3755C36.4808 16.3754 36.4813 16.3757 36.481 16.3755L36.4716 16.3702C36.4633 16.3654 36.4497 16.3577 36.4309 16.3475C36.3932 16.3271 36.3355 16.2969 36.2599 16.2609C36.1084 16.1887 35.8877 16.094 35.6177 16.0079C35.0734 15.8342 34.3555 15.7036 33.6079 15.8355C33.3343 15.8838 33.0735 15.7012 33.0253 15.4277C32.977 15.1542 33.1596 14.8934 33.4332 14.8451C34.395 14.6753 35.2862 14.8465 35.9235 15.0498C36.2445 15.1522 36.5078 15.265 36.6925 15.3531C36.7851 15.3972 36.8584 15.4354 36.91 15.4633C36.9358 15.4773 36.9563 15.4887 36.9709 15.4971L36.9885 15.5073L36.994 15.5106L36.997 15.5124Z" fill="#BD4F26"/>
</g>
<path d="M34.4833 17.1797C35.7079 17.1797 36.7423 18.024 37.0238 19.1649C37.1074 19.4919 36.8565 19.8038 36.5218 19.8038H32.3385C32.0723 19.8038 31.8593 19.5604 31.9125 19.2941C32.1482 18.0924 33.2055 17.1797 34.4833 17.1797Z" fill="white"/>
<path d="M34.095 17.6899C35.0229 17.6899 35.7683 18.4429 35.7683 19.3632C35.7683 19.5153 35.7456 19.6676 35.7075 19.8044H32.475C32.4369 19.6599 32.4141 19.5153 32.4141 19.3632C32.4141 18.4429 33.1671 17.6899 34.095 17.6899Z" fill="url(#paint33_radial_669_1876)"/>
<path d="M33.1367 19.3631C33.1367 18.8307 33.5625 18.4048 34.095 18.4048C34.6275 18.4048 35.0533 18.8307 35.0533 19.3631C35.0533 19.5228 35.0153 19.6751 34.9468 19.8042H33.2507C33.1748 19.6751 33.1367 19.5228 33.1367 19.3631Z" fill="black"/>
<g filter="url(#filter12_f_669_1876)">
<path d="M33.9712 18.0442C34.0903 18.2035 33.8413 18.3978 33.5582 18.6094C33.275 18.8211 33.065 18.97 32.946 18.8108C32.8269 18.6514 32.9599 18.3507 33.243 18.139C33.5259 17.9273 33.852 17.8849 33.9712 18.0442Z" fill="#C7A7A3"/>
<path d="M33.9712 18.0442C34.0903 18.2035 33.8413 18.3978 33.5582 18.6094C33.275 18.8211 33.065 18.97 32.946 18.8108C32.8269 18.6514 32.9599 18.3507 33.243 18.139C33.5259 17.9273 33.852 17.8849 33.9712 18.0442Z" fill="url(#paint34_radial_669_1876)"/>
</g>
<g filter="url(#filter13_f_669_1876)">
<path d="M35.5853 19.1418C35.5236 18.7095 35.2707 18.3838 35.152 18.2749L34.665 18.8093L34.8848 19.2368L35.5853 19.1418Z" fill="url(#paint35_linear_669_1876)"/>
</g>
<path d="M25.5176 17.1797C24.293 17.1797 23.2586 18.024 22.9771 19.1649C22.8935 19.4919 23.1446 19.8038 23.4793 19.8038H27.6626C27.9288 19.8038 28.1418 19.5604 28.0886 19.2941C27.8527 18.0924 26.7879 17.1797 25.5176 17.1797Z" fill="white"/>
<path d="M25.9047 17.6899C24.9768 17.6899 24.2314 18.4429 24.2314 19.3632C24.2314 19.5155 24.2541 19.6676 24.2922 19.8044H27.5249C27.5629 19.6599 27.5856 19.5155 27.5856 19.3632C27.5781 18.4429 26.8326 17.6899 25.9047 17.6899Z" fill="url(#paint36_radial_669_1876)"/>
<path d="M26.8631 19.3632C26.8631 18.8307 26.4371 18.4048 25.9046 18.4048C25.3723 18.4048 24.9463 18.8307 24.9463 19.3632C24.9463 19.5228 24.9844 19.6751 25.0528 19.8042H26.7489C26.8174 19.6751 26.8631 19.5228 26.8631 19.3632Z" fill="black"/>
<g filter="url(#filter14_f_669_1876)">
<path d="M27.4325 19.1651C27.4325 18.6248 26.993 18.2646 26.8744 18.1558L26.334 18.6782L26.6666 19.3552L27.4325 19.1651Z" fill="url(#paint37_linear_669_1876)"/>
</g>
<g filter="url(#filter15_f_669_1876)">
<path d="M25.5719 18.7306C25.9281 18.5419 26.1395 18.2427 26.044 18.0624C25.9485 17.8822 25.5823 17.889 25.226 18.0777C24.8698 18.2664 24.6585 18.5656 24.754 18.7459C24.8495 18.9261 25.2157 18.9193 25.5719 18.7306Z" fill="#C7A7A3" fill-opacity="0.9"/>
<path d="M25.5719 18.7306C25.9281 18.5419 26.1395 18.2427 26.044 18.0624C25.9485 17.8822 25.5823 17.889 25.226 18.0777C24.8698 18.2664 24.6585 18.5656 24.754 18.7459C24.8495 18.9261 25.2157 18.9193 25.5719 18.7306Z" fill="url(#paint38_radial_669_1876)"/>
</g>
<g filter="url(#filter16_f_669_1876)">
<path d="M33.6367 15.2549C34.2414 15.1078 35.7453 15.1814 36.7505 15.9006" stroke="#C9725D" stroke-width="0.375" stroke-linecap="round"/>
</g>
<g filter="url(#filter17_f_669_1876)">
<path d="M26.529 15.2549C25.9242 15.1078 24.4204 15.1814 23.415 15.9006" stroke="#C9725D" stroke-width="0.375" stroke-linecap="round"/>
</g>
<g filter="url(#filter18_f_669_1876)">
<path d="M20.8238 8.42705C21.9883 7.38994 23.668 7.37947 24.6109 7.54708L25.3652 9.96699C24.8832 9.89366 24.4538 10.0613 24.0923 10.407C23.2375 12.7703 20.3001 14.0735 18.9383 14.4297C18.6554 11.6326 18.8125 10.2184 20.8238 8.42705Z" fill="url(#paint39_radial_669_1876)"/>
<path d="M20.8238 8.42705C21.9883 7.38994 23.668 7.37947 24.6109 7.54708L25.3652 9.96699C24.8832 9.89366 24.4538 10.0613 24.0923 10.407C23.2375 12.7703 20.3001 14.0735 18.9383 14.4297C18.6554 11.6326 18.8125 10.2184 20.8238 8.42705Z" fill="url(#paint40_radial_669_1876)"/>
</g>
<g filter="url(#filter19_f_669_1876)">
<path d="M28.869 5.0961C26.7452 4.62722 24.4691 6.88748 24.249 7.67316C27.1405 14.4615 31.5801 13.8145 36.5059 13.2672C39.4543 12.9396 39.7742 14.2834 40.0257 14.9329C39.2085 7.32745 33.7088 6.16465 28.869 5.0961Z" fill="url(#paint41_radial_669_1876)"/>
<path d="M28.869 5.0961C26.7452 4.62722 24.4691 6.88748 24.249 7.67316C27.1405 14.4615 31.5801 13.8145 36.5059 13.2672C39.4543 12.9396 39.7742 14.2834 40.0257 14.9329C39.2085 7.32745 33.7088 6.16465 28.869 5.0961Z" fill="url(#paint42_radial_669_1876)"/>
<path d="M28.869 5.0961C26.7452 4.62722 24.4691 6.88748 24.249 7.67316C27.1405 14.4615 31.5801 13.8145 36.5059 13.2672C39.4543 12.9396 39.7742 14.2834 40.0257 14.9329C39.2085 7.32745 33.7088 6.16465 28.869 5.0961Z" fill="url(#paint43_radial_669_1876)"/>
</g>
<g filter="url(#filter20_f_669_1876)">
<path d="M24.5791 7.4375C24.6226 7.8932 25.019 9.60599 25.6004 10.6431" stroke="url(#paint44_linear_669_1876)" stroke-width="0.1875" stroke-linecap="round"/>
</g>
<g filter="url(#filter21_i_669_1876)">
<path d="M48.8062 30.0366H11.1937C10.2 30.0366 9.375 30.8429 9.375 31.8554V56.2866H50.625V31.8554C50.625 30.8429 49.8 30.0366 48.8062 30.0366Z" fill="url(#paint45_linear_669_1876)"/>
<path d="M48.8062 30.0366H11.1937C10.2 30.0366 9.375 30.8429 9.375 31.8554V56.2866H50.625V31.8554C50.625 30.8429 49.8 30.0366 48.8062 30.0366Z" fill="url(#paint46_radial_669_1876)"/>
<path d="M48.8062 30.0366H11.1937C10.2 30.0366 9.375 30.8429 9.375 31.8554V56.2866H50.625V31.8554C50.625 30.8429 49.8 30.0366 48.8062 30.0366Z" fill="url(#paint47_linear_669_1876)"/>
<path d="M48.8062 30.0366H11.1937C10.2 30.0366 9.375 30.8429 9.375 31.8554V56.2866H50.625V31.8554C50.625 30.8429 49.8 30.0366 48.8062 30.0366Z" fill="url(#paint48_linear_669_1876)"/>
<path d="M48.8062 30.0366H11.1937C10.2 30.0366 9.375 30.8429 9.375 31.8554V56.2866H50.625V31.8554C50.625 30.8429 49.8 30.0366 48.8062 30.0366Z" fill="url(#paint49_linear_669_1876)"/>
<path d="M48.8062 30.0366H11.1937C10.2 30.0366 9.375 30.8429 9.375 31.8554V56.2866H50.625V31.8554C50.625 30.8429 49.8 30.0366 48.8062 30.0366Z" fill="url(#paint50_radial_669_1876)"/>
</g>
<path d="M27.082 41.0454C27.082 40.7865 27.2918 40.5767 27.5508 40.5767H32.4447C32.7035 40.5767 32.9135 40.7865 32.9135 41.0454V45.5748C32.9135 45.8338 32.7035 46.0436 32.4447 46.0436H27.5508C27.2918 46.0436 27.082 45.8338 27.082 45.5748V41.0454Z" fill="url(#paint51_linear_669_1876)"/>
<path d="M27.082 41.0454C27.082 40.7865 27.2918 40.5767 27.5508 40.5767H32.4447C32.7035 40.5767 32.9135 40.7865 32.9135 41.0454V45.5748C32.9135 45.8338 32.7035 46.0436 32.4447 46.0436H27.5508C27.2918 46.0436 27.082 45.8338 27.082 45.5748V41.0454Z" fill="url(#paint52_linear_669_1876)"/>
<path d="M27.082 41.0454C27.082 40.7865 27.2918 40.5767 27.5508 40.5767H32.4447C32.7035 40.5767 32.9135 40.7865 32.9135 41.0454V45.5748C32.9135 45.8338 32.7035 46.0436 32.4447 46.0436H27.5508C27.2918 46.0436 27.082 45.8338 27.082 45.5748V41.0454Z" fill="url(#paint53_linear_669_1876)"/>
<path d="M27.082 41.0454C27.082 40.7865 27.2918 40.5767 27.5508 40.5767H32.4447C32.7035 40.5767 32.9135 40.7865 32.9135 41.0454V45.5748C32.9135 45.8338 32.7035 46.0436 32.4447 46.0436H27.5508C27.2918 46.0436 27.082 45.8338 27.082 45.5748V41.0454Z" fill="url(#paint54_linear_669_1876)"/>
<path d="M27.082 41.0454C27.082 40.7865 27.2918 40.5767 27.5508 40.5767H32.4447C32.7035 40.5767 32.9135 40.7865 32.9135 41.0454V45.5748C32.9135 45.8338 32.7035 46.0436 32.4447 46.0436H27.5508C27.2918 46.0436 27.082 45.8338 27.082 45.5748V41.0454Z" fill="url(#paint55_linear_669_1876)"/>
<path d="M27.082 41.0454C27.082 40.7865 27.2918 40.5767 27.5508 40.5767H32.4447C32.7035 40.5767 32.9135 40.7865 32.9135 41.0454V45.5748C32.9135 45.8338 32.7035 46.0436 32.4447 46.0436H27.5508C27.2918 46.0436 27.082 45.8338 27.082 45.5748V41.0454Z" fill="url(#paint56_radial_669_1876)" fill-opacity="0.6"/>
<defs>
<filter id="filter0_i_669_1876" x="15.9209" y="3.24463" width="28.6279" height="28.6279" filterUnits="userSpaceOnUse" color-interpolation-filters="sRGB">
<feFlood flood-opacity="0" result="BackgroundImageFix"/>
<feBlend mode="normal" in="SourceGraphic" in2="BackgroundImageFix" result="shape"/>
<feColorMatrix in="SourceAlpha" type="matrix" values="0 0 0 0 0 0 0 0 0 0 0 0 0 0 0 0 0 0 127 0" result="hardAlpha"/>
<feOffset dx="0.46875" dy="-0.46875"/>
<feGaussianBlur stdDeviation="0.703125"/>
<feComposite in2="hardAlpha" operator="arithmetic" k2="-1" k3="1"/>
<feColorMatrix type="matrix" values="0 0 0 0 0.92549 0 0 0 0 0.537255 0 0 0 0 0.12549 0 0 0 1 0"/>
<feBlend mode="normal" in2="shape" result="effect1_innerShadow_669_1876"/>
</filter>
<filter id="filter1_i_669_1876" x="18.1973" y="16.6865" width="6.22168" height="6.03418" filterUnits="userSpaceOnUse" color-interpolation-filters="sRGB">
<feFlood flood-opacity="0" result="BackgroundImageFix"/>
<feBlend mode="normal" in="SourceGraphic" in2="BackgroundImageFix" result="shape"/>
<feColorMatrix in="SourceAlpha" type="matrix" values="0 0 0 0 0 0 0 0 0 0 0 0 0 0 0 0 0 0 127 0" result="hardAlpha"/>
<feOffset dx="0.1875"/>
<feGaussianBlur stdDeviation="0.28125"/>
<feComposite in2="hardAlpha" operator="arithmetic" k2="-1" k3="1"/>
<feColorMatrix type="matrix" values="0 0 0 0 0.768627 0 0 0 0 0.501961 0 0 0 0 0.160784 0 0 0 1 0"/>
<feBlend mode="normal" in2="shape" result="effect1_innerShadow_669_1876"/>
</filter>
<filter id="filter2_i_669_1876" x="36.0342" y="16.2178" width="6.03418" height="6.50293" filterUnits="userSpaceOnUse" color-interpolation-filters="sRGB">
<feFlood flood-opacity="0" result="BackgroundImageFix"/>
<feBlend mode="normal" in="SourceGraphic" in2="BackgroundImageFix" result="shape"/>
<feColorMatrix in="SourceAlpha" type="matrix" values="0 0 0 0 0 0 0 0 0 0 0 0 0 0 0 0 0 0 127 0" result="hardAlpha"/>
<feOffset dy="-0.46875"/>
<feGaussianBlur stdDeviation="0.46875"/>
<feComposite in2="hardAlpha" operator="arithmetic" k2="-1" k3="1"/>
<feColorMatrix type="matrix" values="0 0 0 0 0.937255 0 0 0 0 0.576471 0 0 0 0 0.341176 0 0 0 1 0"/>
<feBlend mode="normal" in2="shape" result="effect1_innerShadow_669_1876"/>
</filter>
<filter id="filter3_f_669_1876" x="36.1006" y="16.7524" width="5.90332" height="5.90283" filterUnits="userSpaceOnUse" color-interpolation-filters="sRGB">
<feFlood flood-opacity="0" result="BackgroundImageFix"/>
<feBlend mode="normal" in="SourceGraphic" in2="BackgroundImageFix" result="shape"/>
<feGaussianBlur stdDeviation="0.46875" result="effect1_foregroundBlur_669_1876"/>
</filter>
<filter id="filter4_f_669_1876" x="18.7676" y="17.2212" width="4.96582" height="4.96533" filterUnits="userSpaceOnUse" color-interpolation-filters="sRGB">
<feFlood flood-opacity="0" result="BackgroundImageFix"/>
<feBlend mode="normal" in="SourceGraphic" in2="BackgroundImageFix" result="shape"/>
<feGaussianBlur stdDeviation="0.234375" result="effect1_foregroundBlur_669_1876"/>
</filter>
<filter id="filter5_i_669_1876" x="20.4453" y="10.5029" width="19.1084" height="21.144" filterUnits="userSpaceOnUse" color-interpolation-filters="sRGB">
<feFlood flood-opacity="0" result="BackgroundImageFix"/>
<feBlend mode="normal" in="SourceGraphic" in2="BackgroundImageFix" result="shape"/>
<feColorMatrix in="SourceAlpha" type="matrix" values="0 0 0 0 0 0 0 0 0 0 0 0 0 0 0 0 0 0 127 0" result="hardAlpha"/>
<feOffset dy="0.75"/>
<feGaussianBlur stdDeviation="0.5625"/>
<feComposite in2="hardAlpha" operator="arithmetic" k2="-1" k3="1"/>
<feColorMatrix type="matrix" values="0 0 0 0 0.92549 0 0 0 0 0.529412 0 0 0 0 0.137255 0 0 0 1 0"/>
<feBlend mode="normal" in2="shape" result="effect1_innerShadow_669_1876"/>
</filter>
<filter id="filter6_f_669_1876" x="26.998" y="17.8188" width="5.39453" height="6.90332" filterUnits="userSpaceOnUse" color-interpolation-filters="sRGB">
<feFlood flood-opacity="0" result="BackgroundImageFix"/>
<feBlend mode="normal" in="SourceGraphic" in2="BackgroundImageFix" result="shape"/>
<feGaussianBlur stdDeviation="0.46875" result="effect1_foregroundBlur_669_1876"/>
</filter>
<filter id="filter7_f_669_1876" x="27.7715" y="18.0278" width="4.45703" height="5.96582" filterUnits="userSpaceOnUse" color-interpolation-filters="sRGB">
<feFlood flood-opacity="0" result="BackgroundImageFix"/>
<feBlend mode="normal" in="SourceGraphic" in2="BackgroundImageFix" result="shape"/>
<feGaussianBlur stdDeviation="0.234375" result="effect1_foregroundBlur_669_1876"/>
</filter>
<filter id="filter8_i_669_1876" x="31.7666" y="17.0698" width="5.62793" height="2.41016" filterUnits="userSpaceOnUse" color-interpolation-filters="sRGB">
<feFlood flood-opacity="0" result="BackgroundImageFix"/>
<feBlend mode="normal" in="SourceGraphic" in2="BackgroundImageFix" result="shape"/>
<feColorMatrix in="SourceAlpha" type="matrix" values="0 0 0 0 0 0 0 0 0 0 0 0 0 0 0 0 0 0 127 0" result="hardAlpha"/>
<feOffset dx="-0.375"/>
<feGaussianBlur stdDeviation="0.375"/>
<feComposite in2="hardAlpha" operator="arithmetic" k2="-1" k3="1"/>
<feColorMatrix type="matrix" values="0 0 0 0 0.141176 0 0 0 0 0.0862745 0 0 0 0 0.176471 0 0 0 1 0"/>
<feBlend mode="normal" in2="shape" result="effect1_innerShadow_669_1876"/>
</filter>
<filter id="filter9_i_669_1876" x="22.6064" y="17.0698" width="5.62793" height="2.41016" filterUnits="userSpaceOnUse" color-interpolation-filters="sRGB">
<feFlood flood-opacity="0" result="BackgroundImageFix"/>
<feBlend mode="normal" in="SourceGraphic" in2="BackgroundImageFix" result="shape"/>
<feColorMatrix in="SourceAlpha" type="matrix" values="0 0 0 0 0 0 0 0 0 0 0 0 0 0 0 0 0 0 127 0" result="hardAlpha"/>
<feOffset dx="0.375"/>
<feGaussianBlur stdDeviation="0.234375"/>
<feComposite in2="hardAlpha" operator="arithmetic" k2="-1" k3="1"/>
<feColorMatrix type="matrix" values="0 0 0 0 0.133333 0 0 0 0 0.0784314 0 0 0 0 0.168627 0 0 0 1 0"/>
<feBlend mode="normal" in2="shape" result="effect1_innerShadow_669_1876"/>
</filter>
<filter id="filter10_i_669_1876" x="22.8594" y="14.4009" width="4.59863" height="2.04541" filterUnits="userSpaceOnUse" color-interpolation-filters="sRGB">
<feFlood flood-opacity="0" result="BackgroundImageFix"/>
<feBlend mode="normal" in="SourceGraphic" in2="BackgroundImageFix" result="shape"/>
<feColorMatrix in="SourceAlpha" type="matrix" values="0 0 0 0 0 0 0 0 0 0 0 0 0 0 0 0 0 0 127 0" result="hardAlpha"/>
<feOffset dx="0.375" dy="-0.375"/>
<feGaussianBlur stdDeviation="0.28125"/>
<feComposite in2="hardAlpha" operator="arithmetic" k2="-1" k3="1"/>
<feColorMatrix type="matrix" values="0 0 0 0 0.658824 0 0 0 0 0.270588 0 0 0 0 0.141176 0 0 0 1 0"/>
<feBlend mode="normal" in2="shape" result="effect1_innerShadow_669_1876"/>
</filter>
<filter id="filter11_i_669_1876" x="33.0176" y="14.4009" width="4.59863" height="2.0459" filterUnits="userSpaceOnUse" color-interpolation-filters="sRGB">
<feFlood flood-opacity="0" result="BackgroundImageFix"/>
<feBlend mode="normal" in="SourceGraphic" in2="BackgroundImageFix" result="shape"/>
<feColorMatrix in="SourceAlpha" type="matrix" values="0 0 0 0 0 0 0 0 0 0 0 0 0 0 0 0 0 0 127 0" result="hardAlpha"/>
<feOffset dx="0.375" dy="-0.375"/>
<feGaussianBlur stdDeviation="0.28125"/>
<feComposite in2="hardAlpha" operator="arithmetic" k2="-1" k3="1"/>
<feColorMatrix type="matrix" values="0 0 0 0 0.658824 0 0 0 0 0.270588 0 0 0 0 0.141176 0 0 0 1 0"/>
<feBlend mode="normal" in2="shape" result="effect1_innerShadow_669_1876"/>
</filter>
<filter id="filter12_f_669_1876" x="32.7148" y="17.7603" width="1.47461" height="1.30469" filterUnits="userSpaceOnUse" color-interpolation-filters="sRGB">
<feFlood flood-opacity="0" result="BackgroundImageFix"/>
<feBlend mode="normal" in="SourceGraphic" in2="BackgroundImageFix" result="shape"/>
<feGaussianBlur stdDeviation="0.09375" result="effect1_foregroundBlur_669_1876"/>
</filter>
<filter id="filter13_f_669_1876" x="34.29" y="17.8999" width="1.66992" height="1.71191" filterUnits="userSpaceOnUse" color-interpolation-filters="sRGB">
<feFlood flood-opacity="0" result="BackgroundImageFix"/>
<feBlend mode="normal" in="SourceGraphic" in2="BackgroundImageFix" result="shape"/>
<feGaussianBlur stdDeviation="0.1875" result="effect1_foregroundBlur_669_1876"/>
</filter>
<filter id="filter14_f_669_1876" x="25.959" y="17.7808" width="1.84863" height="1.94922" filterUnits="userSpaceOnUse" color-interpolation-filters="sRGB">
<feFlood flood-opacity="0" result="BackgroundImageFix"/>
<feBlend mode="normal" in="SourceGraphic" in2="BackgroundImageFix" result="shape"/>
<feGaussianBlur stdDeviation="0.1875" result="effect1_foregroundBlur_669_1876"/>
</filter>
<filter id="filter15_f_669_1876" x="24.5439" y="17.7441" width="1.71094" height="1.32031" filterUnits="userSpaceOnUse" color-interpolation-filters="sRGB">
<feFlood flood-opacity="0" result="BackgroundImageFix"/>
<feBlend mode="normal" in="SourceGraphic" in2="BackgroundImageFix" result="shape"/>
<feGaussianBlur stdDeviation="0.09375" result="effect1_foregroundBlur_669_1876"/>
</filter>
<filter id="filter16_f_669_1876" x="32.6992" y="14.2549" width="4.98926" height="2.58301" filterUnits="userSpaceOnUse" color-interpolation-filters="sRGB">
<feFlood flood-opacity="0" result="BackgroundImageFix"/>
<feBlend mode="normal" in="SourceGraphic" in2="BackgroundImageFix" result="shape"/>
<feGaussianBlur stdDeviation="0.375" result="effect1_foregroundBlur_669_1876"/>
</filter>
<filter id="filter17_f_669_1876" x="22.4775" y="14.2549" width="4.98926" height="2.58301" filterUnits="userSpaceOnUse" color-interpolation-filters="sRGB">
<feFlood flood-opacity="0" result="BackgroundImageFix"/>
<feBlend mode="normal" in="SourceGraphic" in2="BackgroundImageFix" result="shape"/>
<feGaussianBlur stdDeviation="0.375" result="effect1_foregroundBlur_669_1876"/>
</filter>
<filter id="filter18_f_669_1876" x="17.4238" y="6.06055" width="9.34766" height="9.77539" filterUnits="userSpaceOnUse" color-interpolation-filters="sRGB">
<feFlood flood-opacity="0" result="BackgroundImageFix"/>
<feBlend mode="normal" in="SourceGraphic" in2="BackgroundImageFix" result="shape"/>
<feGaussianBlur stdDeviation="0.703125" result="effect1_foregroundBlur_669_1876"/>
</filter>
<filter id="filter19_f_669_1876" x="23.7803" y="4.56396" width="16.7139" height="10.8379" filterUnits="userSpaceOnUse" color-interpolation-filters="sRGB">
<feFlood flood-opacity="0" result="BackgroundImageFix"/>
<feBlend mode="normal" in="SourceGraphic" in2="BackgroundImageFix" result="shape"/>
<feGaussianBlur stdDeviation="0.234375" result="effect1_foregroundBlur_669_1876"/>
</filter>
<filter id="filter20_f_669_1876" x="24.0166" y="6.875" width="2.14648" height="4.33057" filterUnits="userSpaceOnUse" color-interpolation-filters="sRGB">
<feFlood flood-opacity="0" result="BackgroundImageFix"/>
<feBlend mode="normal" in="SourceGraphic" in2="BackgroundImageFix" result="shape"/>
<feGaussianBlur stdDeviation="0.234375" result="effect1_foregroundBlur_669_1876"/>
</filter>
<filter id="filter21_i_669_1876" x="9.375" y="30.0366" width="41.25" height="26.4375" filterUnits="userSpaceOnUse" color-interpolation-filters="sRGB">
<feFlood flood-opacity="0" result="BackgroundImageFix"/>
<feBlend mode="normal" in="SourceGraphic" in2="BackgroundImageFix" result="shape"/>
<feColorMatrix in="SourceAlpha" type="matrix" values="0 0 0 0 0 0 0 0 0 0 0 0 0 0 0 0 0 0 127 0" result="hardAlpha"/>
<feOffset dy="0.1875"/>
<feGaussianBlur stdDeviation="0.46875"/>
<feComposite in2="hardAlpha" operator="arithmetic" k2="-1" k3="1"/>
<feColorMatrix type="matrix" values="0 0 0 0 0.678431 0 0 0 0 0.670588 0 0 0 0 0.682353 0 0 0 1 0"/>
<feBlend mode="normal" in2="shape" result="effect1_innerShadow_669_1876"/>
</filter>
<radialGradient id="paint0_radial_669_1876" cx="0" cy="0" r="1" gradientUnits="userSpaceOnUse" gradientTransform="translate(5.20182 53.9138) rotate(-1.93059) scale(5.21781 6.87904)">
<stop offset="0.331197" stop-color="#FDC64D"/>
<stop offset="1" stop-color="#EBA02A"/>
</radialGradient>
<radialGradient id="paint1_radial_669_1876" cx="0" cy="0" r="1" gradientUnits="userSpaceOnUse" gradientTransform="translate(54.8306 53.192) rotate(151.68) scale(6.52288 6.28155)">
<stop stop-color="#FFEB48"/>
<stop offset="1" stop-color="#F8C743"/>
</radialGradient>
<linearGradient id="paint2_linear_669_1876" x1="30" y1="12.5677" x2="30" y2="64.8959" gradientUnits="userSpaceOnUse">
<stop stop-color="#636363"/>
<stop offset="1" stop-color="#1C1C1C"/>
</linearGradient>
<linearGradient id="paint3_linear_669_1876" x1="20.4714" y1="45.0061" x2="2.6786" y2="45.0829" gradientUnits="userSpaceOnUse">
<stop stop-color="#1C1C1C"/>
<stop offset="1" stop-color="#636363"/>
</linearGradient>
<linearGradient id="paint4_linear_669_1876" x1="43.1211" y1="45.0369" x2="53.7231" y2="45.0369" gradientUnits="userSpaceOnUse">
<stop stop-color="#1C1C1C"/>
<stop offset="1" stop-color="#636363"/>
</linearGradient>
<linearGradient id="paint5_linear_669_1876" x1="38.8003" y1="6.66759" x2="25.2228" y2="31.8724" gradientUnits="userSpaceOnUse">
<stop stop-color="#FFD93C"/>
<stop offset="1" stop-color="#E37923"/>
</linearGradient>
<radialGradient id="paint6_radial_669_1876" cx="0" cy="0" r="1" gradientUnits="userSpaceOnUse" gradientTransform="translate(21.4295 23.5166) rotate(90) scale(8.35584 5.03413)">
<stop stop-color="#C9641B"/>
<stop offset="1" stop-color="#D77117" stop-opacity="0"/>
</radialGradient>
<radialGradient id="paint7_radial_669_1876" cx="0" cy="0" r="1" gradientUnits="userSpaceOnUse" gradientTransform="translate(28.0361 23.7996) rotate(99.7824) scale(10.3457 10.777)">
<stop offset="0.617268" stop-color="#E26B25"/>
<stop offset="1" stop-color="#E26B25" stop-opacity="0"/>
</radialGradient>
<radialGradient id="paint8_radial_669_1876" cx="0" cy="0" r="1" gradientUnits="userSpaceOnUse" gradientTransform="translate(20.7931 20.3051) rotate(127.617) scale(3.81141 3.70067)">
<stop offset="0.161391" stop-color="#C9681C"/>
<stop offset="1" stop-color="#C9681C" stop-opacity="0"/>
</radialGradient>
<radialGradient id="paint9_radial_669_1876" cx="0" cy="0" r="1" gradientUnits="userSpaceOnUse" gradientTransform="translate(21.9013 15.7364) rotate(100.537) scale(4.79417 4.99223)">
<stop offset="0.365444" stop-color="#D76A18"/>
<stop offset="1" stop-color="#D76A18" stop-opacity="0"/>
</radialGradient>
<radialGradient id="paint10_radial_669_1876" cx="0" cy="0" r="1" gradientUnits="userSpaceOnUse" gradientTransform="translate(23.7442 6.27322) rotate(62.6046) scale(4.46432 8.50442)">
<stop offset="0.221806" stop-color="#CBA140"/>
<stop offset="0.921111" stop-color="#CBA140" stop-opacity="0"/>
</radialGradient>
<radialGradient id="paint11_radial_669_1876" cx="0" cy="0" r="1" gradientUnits="userSpaceOnUse" gradientTransform="translate(40.3087 8.93036) rotate(132.51) scale(3.06962 4.28974)">
<stop stop-color="#FFDF3C"/>
<stop offset="1" stop-color="#FFDF3C" stop-opacity="0"/>
</radialGradient>
<radialGradient id="paint12_radial_669_1876" cx="0" cy="0" r="1" gradientUnits="userSpaceOnUse" gradientTransform="translate(44.0799 18.1072) rotate(163.779) scale(3.60019 7.83353)">
<stop stop-color="#FFD537"/>
<stop offset="1" stop-color="#FFD537" stop-opacity="0"/>
</radialGradient>
<radialGradient id="paint13_radial_669_1876" cx="0" cy="0" r="1" gradientUnits="userSpaceOnUse" gradientTransform="translate(24.9288 10.9506) rotate(-90.3515) scale(2.57698 0.844909)">
<stop offset="0.295258" stop-color="#DB6009"/>
<stop offset="1" stop-color="#DB6009" stop-opacity="0"/>
</radialGradient>
<linearGradient id="paint14_linear_669_1876" x1="18.1973" y1="19.8671" x2="23.746" y2="19.8671" gradientUnits="userSpaceOnUse">
<stop stop-color="#E79B27"/>
<stop offset="1" stop-color="#B96201"/>
</linearGradient>
<radialGradient id="paint15_radial_669_1876" cx="0" cy="0" r="1" gradientUnits="userSpaceOnUse" gradientTransform="translate(37.5743 20.5271) rotate(-24.444) scale(5.12648 6.2592)">
<stop offset="0.572298" stop-color="#FFC531"/>
<stop offset="0.904617" stop-color="#FFE549"/>
</radialGradient>
<radialGradient id="paint16_radial_669_1876" cx="0" cy="0" r="1" gradientUnits="userSpaceOnUse" gradientTransform="translate(38.6121 20.1502) rotate(-20.2976) scale(2.44611)">
<stop offset="0.71002" stop-color="#FFBA25" stop-opacity="0"/>
<stop offset="1" stop-color="#FFBA25"/>
</radialGradient>
<radialGradient id="paint17_radial_669_1876" cx="0" cy="0" r="1" gradientUnits="userSpaceOnUse" gradientTransform="translate(21.2503 19.7039) rotate(180) scale(2.01396 1.92647)">
<stop offset="0.415002" stop-color="#D67923" stop-opacity="0"/>
<stop offset="1" stop-color="#D67923"/>
</radialGradient>
<radialGradient id="paint18_radial_669_1876" cx="0" cy="0" r="1" gradientUnits="userSpaceOnUse" gradientTransform="translate(35.3604 18.6954) rotate(155.244) scale(13.4283 17.9735)">
<stop stop-color="#FFE644"/>
<stop offset="1" stop-color="#EB9235"/>
</radialGradient>
<radialGradient id="paint19_radial_669_1876" cx="0" cy="0" r="1" gradientUnits="userSpaceOnUse" gradientTransform="translate(33.5624 20.0031) rotate(152.124) scale(4.47502 3.79674)">
<stop stop-color="#FFE842"/>
<stop offset="1" stop-color="#FFE842" stop-opacity="0"/>
</radialGradient>
<radialGradient id="paint20_radial_669_1876" cx="0" cy="0" r="1" gradientUnits="userSpaceOnUse" gradientTransform="translate(25.9124 31.4128) rotate(-78.3106) scale(7.74525 9.82729)">
<stop stop-color="#E4883F"/>
<stop offset="1" stop-color="#E4883F" stop-opacity="0"/>
</radialGradient>
<radialGradient id="paint21_radial_669_1876" cx="0" cy="0" r="1" gradientUnits="userSpaceOnUse" gradientTransform="translate(29.5085 17.7886) rotate(90) scale(13.9511 22.1582)">
<stop offset="0.565226" stop-color="#E0942E" stop-opacity="0"/>
<stop offset="0.95162" stop-color="#CB7B39"/>
</radialGradient>
<radialGradient id="paint22_radial_669_1876" cx="0" cy="0" r="1" gradientUnits="userSpaceOnUse" gradientTransform="translate(31.1757 21.8012) rotate(164.542) scale(10.5489 18.1619)">
<stop offset="0.876514" stop-color="#D4993E" stop-opacity="0"/>
<stop offset="1" stop-color="#D4993E"/>
</radialGradient>
<radialGradient id="paint23_radial_669_1876" cx="0" cy="0" r="1" gradientUnits="userSpaceOnUse" gradientTransform="translate(34.3143 17.9108) rotate(-90) scale(2.15769 2.64808)">
<stop stop-color="#FFBB31"/>
<stop offset="1" stop-color="#FFBB31" stop-opacity="0"/>
</radialGradient>
<radialGradient id="paint24_radial_669_1876" cx="0" cy="0" r="1" gradientUnits="userSpaceOnUse" gradientTransform="translate(26.4027 18.0743) rotate(-90) scale(2.55 2.92247)">
<stop stop-color="#F09429"/>
<stop offset="1" stop-color="#F09429" stop-opacity="0"/>
</radialGradient>
<radialGradient id="paint25_radial_669_1876" cx="0" cy="0" r="1" gradientUnits="userSpaceOnUse" gradientTransform="translate(39.5533 20.7) rotate(180) scale(2.52553 8.31414)">
<stop stop-color="#FFDA39"/>
<stop offset="1" stop-color="#FFDA39" stop-opacity="0"/>
</radialGradient>
<linearGradient id="paint26_linear_669_1876" x1="30.0001" y1="23.5251" x2="30.0001" y2="18.4966" gradientUnits="userSpaceOnUse">
<stop stop-color="#FFC134"/>
<stop offset="1" stop-color="#F8C73F"/>
</linearGradient>
<radialGradient id="paint27_radial_669_1876" cx="0" cy="0" r="1" gradientUnits="userSpaceOnUse" gradientTransform="translate(31.4709 22.0629) rotate(-105.892) scale(4.7758 2.73277)">
<stop offset="0.0168227" stop-color="#FFE848"/>
<stop offset="1" stop-color="#FFE848" stop-opacity="0"/>
</radialGradient>
<linearGradient id="paint28_linear_669_1876" x1="28.0381" y1="22.0956" x2="29.6401" y2="22.2917" gradientUnits="userSpaceOnUse">
<stop stop-color="#F8A322"/>
<stop offset="1" stop-color="#F8A322" stop-opacity="0"/>
</linearGradient>
<linearGradient id="paint29_linear_669_1876" x1="30.0001" y1="23.6976" x2="30.0001" y2="22.5532" gradientUnits="userSpaceOnUse">
<stop stop-color="#E48538"/>
<stop offset="1" stop-color="#E48538" stop-opacity="0"/>
</linearGradient>
<linearGradient id="paint30_linear_669_1876" x1="30.1469" y1="23.6484" x2="30.1469" y2="23.3869" gradientUnits="userSpaceOnUse">
<stop stop-color="#E2802F"/>
<stop offset="1" stop-color="#E2802F" stop-opacity="0"/>
</linearGradient>
<radialGradient id="paint31_radial_669_1876" cx="0" cy="0" r="1" gradientUnits="userSpaceOnUse" gradientTransform="translate(30.5392 21.3926) rotate(144.462) scale(2.95292 3.95522)">
<stop offset="0.797297" stop-color="#E2802F" stop-opacity="0"/>
<stop offset="1" stop-color="#E2802F"/>
</radialGradient>
<linearGradient id="paint32_linear_669_1876" x1="28.6333" y1="26.4664" x2="29.4818" y2="24.8321" gradientUnits="userSpaceOnUse">
<stop stop-color="#FEAC35"/>
<stop offset="1" stop-color="#FEAC35" stop-opacity="0"/>
</linearGradient>
<radialGradient id="paint33_radial_669_1876" cx="0" cy="0" r="1" gradientUnits="userSpaceOnUse" gradientTransform="translate(34.0913 18.5844) rotate(90) scale(1.52122 2.41967)">
<stop offset="0.80198" stop-color="#925C51"/>
<stop offset="1" stop-color="#85534D"/>
</radialGradient>
<radialGradient id="paint34_radial_669_1876" cx="0" cy="0" r="1" gradientTransform="matrix(-0.434494 -0.559903 0.770853 -0.598193 33.6628 18.7421)" gradientUnits="userSpaceOnUse">
<stop offset="0.765532" stop-color="#FFE6E2" stop-opacity="0"/>
<stop offset="0.966159" stop-color="#FFE6E2"/>
</radialGradient>
<linearGradient id="paint35_linear_669_1876" x1="35.5497" y1="18.6846" x2="34.9619" y2="19.0467" gradientUnits="userSpaceOnUse">
<stop stop-color="#B4948D"/>
<stop offset="1" stop-color="#B4948D" stop-opacity="0"/>
</linearGradient>
<radialGradient id="paint36_radial_669_1876" cx="0" cy="0" r="1" gradientUnits="userSpaceOnUse" gradientTransform="translate(25.9084 18.5844) rotate(90) scale(1.52123 2.41969)">
<stop offset="0.80198" stop-color="#925C51"/>
<stop offset="1" stop-color="#85534D"/>
</radialGradient>
<linearGradient id="paint37_linear_669_1876" x1="27.3022" y1="18.6842" x2="26.7144" y2="19.0464" gradientUnits="userSpaceOnUse">
<stop stop-color="#B4948D"/>
<stop offset="1" stop-color="#B4948D" stop-opacity="0"/>
</linearGradient>
<radialGradient id="paint38_radial_669_1876" cx="0" cy="0" r="1" gradientUnits="userSpaceOnUse" gradientTransform="translate(25.6503 18.9386) rotate(-118.811) scale(0.925728 1.11276)">
<stop offset="0.765532" stop-color="#FFE6E2" stop-opacity="0"/>
<stop offset="0.966159" stop-color="#FFE6E2"/>
</radialGradient>
<radialGradient id="paint39_radial_669_1876" cx="0" cy="0" r="1" gradientUnits="userSpaceOnUse" gradientTransform="translate(24.9094 6.6671) rotate(129.554) scale(10.0678 4.39089)">
<stop offset="0.395696" stop-color="#EE971B" stop-opacity="0"/>
<stop offset="0.911046" stop-color="#D8772C"/>
</radialGradient>
<radialGradient id="paint40_radial_669_1876" cx="0" cy="0" r="1" gradientUnits="userSpaceOnUse" gradientTransform="translate(24.6478 7.69335) rotate(144.458) scale(7.14977 3.53351)">
<stop offset="0.120488" stop-color="#FFCA2D"/>
<stop offset="1" stop-color="#FFCA2D" stop-opacity="0"/>
</radialGradient>
<radialGradient id="paint41_radial_669_1876" cx="0" cy="0" r="1" gradientUnits="userSpaceOnUse" gradientTransform="translate(33.3591 4.46893) rotate(115.63) scale(9.47276 13.4498)">
<stop offset="0.627022" stop-color="#F49523" stop-opacity="0"/>
<stop offset="1" stop-color="#F49523"/>
</radialGradient>
<radialGradient id="paint42_radial_669_1876" cx="0" cy="0" r="1" gradientUnits="userSpaceOnUse" gradientTransform="translate(34.7042 6.81885) rotate(105.909) scale(6.45007 13.5173)">
<stop offset="0.131886" stop-color="#FFE337"/>
<stop offset="1" stop-color="#FFE337" stop-opacity="0"/>
</radialGradient>
<radialGradient id="paint43_radial_669_1876" cx="0" cy="0" r="1" gradientUnits="userSpaceOnUse" gradientTransform="translate(32.1559 17.3778) rotate(-117.848) scale(13.7148 12.2601)">
<stop offset="0.897563" stop-color="#CA9B37" stop-opacity="0"/>
<stop offset="1" stop-color="#CA9B37"/>
</radialGradient>
<linearGradient id="paint44_linear_669_1876" x1="24.5791" y1="8.08175" x2="25.6004" y2="10.4702" gradientUnits="userSpaceOnUse">
<stop stop-color="#FAA719"/>
<stop offset="1" stop-color="#DB6008"/>
</linearGradient>
<linearGradient id="paint45_linear_669_1876" x1="14.0489" y1="37.0392" x2="21.1576" y2="57.7592" gradientUnits="userSpaceOnUse">
<stop stop-color="#AB9CBE"/>
<stop offset="1" stop-color="#847498"/>
</linearGradient>
<radialGradient id="paint46_radial_669_1876" cx="0" cy="0" r="1" gradientUnits="userSpaceOnUse" gradientTransform="translate(32.3302 58.2501) rotate(-90) scale(14.2445 24.8948)">
<stop offset="0.0273225" stop-color="#78698C"/>
<stop offset="1" stop-color="#7A6B8E" stop-opacity="0"/>
</radialGradient>
<linearGradient id="paint47_linear_669_1876" x1="30" y1="30.0366" x2="30" y2="32.5861" gradientUnits="userSpaceOnUse">
<stop stop-color="#BEB0B0"/>
<stop offset="0.267777" stop-color="#BEB7C7"/>
<stop offset="0.863185" stop-color="#BEB7C7" stop-opacity="0"/>
</linearGradient>
<linearGradient id="paint48_linear_669_1876" x1="9.375" y1="45.4767" x2="11.3536" y2="45.4767" gradientUnits="userSpaceOnUse">
<stop stop-color="#9F93B2"/>
<stop offset="1" stop-color="#9F93B2" stop-opacity="0"/>
</linearGradient>
<linearGradient id="paint49_linear_669_1876" x1="50.625" y1="47.2345" x2="47.8575" y2="47.2345" gradientUnits="userSpaceOnUse">
<stop offset="0.174296" stop-color="#BAB9C0"/>
<stop offset="1" stop-color="#A191B5" stop-opacity="0"/>
</linearGradient>
<radialGradient id="paint50_radial_669_1876" cx="0" cy="0" r="1" gradientUnits="userSpaceOnUse" gradientTransform="translate(50.0548 31.2383) rotate(150.751) scale(1.67889 1.55686)">
<stop stop-color="#E5DFF1"/>
<stop offset="0.723783" stop-color="#E5DFF1" stop-opacity="0"/>
</radialGradient>
<linearGradient id="paint51_linear_669_1876" x1="33.7062" y1="43.31" x2="26.0827" y2="43.31" gradientUnits="userSpaceOnUse">
<stop offset="0.0957634" stop-color="#56416B"/>
<stop offset="0.129627" stop-color="#614C77"/>
<stop offset="0.165482" stop-color="#51366C"/>
<stop offset="1" stop-color="#4F3568"/>
</linearGradient>
<linearGradient id="paint52_linear_669_1876" x1="29.9977" y1="40.5767" x2="29.9977" y2="43.4923" gradientUnits="userSpaceOnUse">
<stop stop-color="#60407F"/>
<stop offset="1" stop-color="#543870" stop-opacity="0"/>
</linearGradient>
<linearGradient id="paint53_linear_669_1876" x1="29.9977" y1="40.5767" x2="29.9977" y2="46.0436" gradientUnits="userSpaceOnUse">
<stop stop-color="#594170"/>
<stop offset="0.0367115" stop-color="#6D5686"/>
<stop offset="0.0580102" stop-color="#6F5783"/>
<stop offset="0.096735" stop-color="#5F447B" stop-opacity="0"/>
</linearGradient>
<linearGradient id="paint54_linear_669_1876" x1="27.082" y1="43.353" x2="28.1622" y2="43.353" gradientUnits="userSpaceOnUse">
<stop offset="0.0862049" stop-color="#3B2B50"/>
<stop offset="0.662599" stop-color="#52376C" stop-opacity="0"/>
</linearGradient>
<linearGradient id="paint55_linear_669_1876" x1="29.9977" y1="46.5783" x2="29.9977" y2="45.3146" gradientUnits="userSpaceOnUse">
<stop offset="0.50729" stop-color="#3D2555"/>
<stop offset="0.735619" stop-color="#4A3261" stop-opacity="0"/>
</linearGradient>
<radialGradient id="paint56_radial_669_1876" cx="0" cy="0" r="1" gradientUnits="userSpaceOnUse" gradientTransform="translate(32.5703 40.9203) rotate(140.08) scale(0.233974 0.34884)">
<stop stop-color="#806B97"/>
<stop offset="1" stop-color="#8D78A4" stop-opacity="0"/>
</radialGradient>
</defs>
</svg>
