<svg width="60" height="60" viewBox="0 0 60 60" fill="none" xmlns="http://www.w3.org/2000/svg">
<path d="M43.5499 25.6582C42.8389 24.5493 42.6662 23.7618 42.634 23.2959L39.0059 27.5145L43.7159 35.8359C43.7159 35.2091 43.7235 34.061 44.5874 33.7631C45.4834 33.4541 46.3101 32.9746 46.5994 31.8176C46.8795 30.6973 46.3262 29.7202 46.021 29.2863C45.4905 28.4988 44.2004 26.6726 43.5499 25.6582Z" fill="url(#paint0_radial_672_2977)"/>
<g filter="url(#filter0_i_672_2977)">
<path d="M11.0986 42.0371L6.62718 55.2839C6.46308 55.7701 6.82467 56.2737 7.33779 56.2737H24.6484C25.132 56.2737 25.5614 55.9647 25.7151 55.5063L26.2992 53.7646C26.5469 53.0259 27.2269 52.5192 28.0051 52.4787C33.4998 52.1924 37.1695 51.4848 39.6318 49.982C41.6674 48.7394 42.6874 46.0025 43.1149 44.2919C43.2042 43.9342 43.0559 43.5639 42.7564 43.3488L38.2293 40.0979C37.9523 39.8992 37.8139 39.5592 37.8732 39.2236C37.9437 38.8237 38.2771 38.5227 38.6823 38.4933L42.9477 38.1836C43.4318 38.1483 43.8106 37.751 43.8181 37.2657C43.8563 34.7694 43.8484 29.4324 42.5729 22.7414C40.6932 12.8818 37.4629 7.53017 29.8928 6.59003C23.1968 5.6391 14.811 7.40106 10.3907 9.57925C4.3955 12.5334 3.23988 17.6723 4.72535 25.2003C6.04706 31.8986 9.18181 37.5492 10.9259 40.4596C11.2113 40.9359 11.2761 41.5109 11.0986 42.0371Z" fill="url(#paint1_radial_672_2977)"/>
<path d="M11.0986 42.0371L6.62718 55.2839C6.46308 55.7701 6.82467 56.2737 7.33779 56.2737H24.6484C25.132 56.2737 25.5614 55.9647 25.7151 55.5063L26.2992 53.7646C26.5469 53.0259 27.2269 52.5192 28.0051 52.4787C33.4998 52.1924 37.1695 51.4848 39.6318 49.982C41.6674 48.7394 42.6874 46.0025 43.1149 44.2919C43.2042 43.9342 43.0559 43.5639 42.7564 43.3488L38.2293 40.0979C37.9523 39.8992 37.8139 39.5592 37.8732 39.2236C37.9437 38.8237 38.2771 38.5227 38.6823 38.4933L42.9477 38.1836C43.4318 38.1483 43.8106 37.751 43.8181 37.2657C43.8563 34.7694 43.8484 29.4324 42.5729 22.7414C40.6932 12.8818 37.4629 7.53017 29.8928 6.59003C23.1968 5.6391 14.811 7.40106 10.3907 9.57925C4.3955 12.5334 3.23988 17.6723 4.72535 25.2003C6.04706 31.8986 9.18181 37.5492 10.9259 40.4596C11.2113 40.9359 11.2761 41.5109 11.0986 42.0371Z" fill="url(#paint2_radial_672_2977)"/>
<path d="M11.0986 42.0371L6.62718 55.2839C6.46308 55.7701 6.82467 56.2737 7.33779 56.2737H24.6484C25.132 56.2737 25.5614 55.9647 25.7151 55.5063L26.2992 53.7646C26.5469 53.0259 27.2269 52.5192 28.0051 52.4787C33.4998 52.1924 37.1695 51.4848 39.6318 49.982C41.6674 48.7394 42.6874 46.0025 43.1149 44.2919C43.2042 43.9342 43.0559 43.5639 42.7564 43.3488L38.2293 40.0979C37.9523 39.8992 37.8139 39.5592 37.8732 39.2236C37.9437 38.8237 38.2771 38.5227 38.6823 38.4933L42.9477 38.1836C43.4318 38.1483 43.8106 37.751 43.8181 37.2657C43.8563 34.7694 43.8484 29.4324 42.5729 22.7414C40.6932 12.8818 37.4629 7.53017 29.8928 6.59003C23.1968 5.6391 14.811 7.40106 10.3907 9.57925C4.3955 12.5334 3.23988 17.6723 4.72535 25.2003C6.04706 31.8986 9.18181 37.5492 10.9259 40.4596C11.2113 40.9359 11.2761 41.5109 11.0986 42.0371Z" fill="url(#paint3_radial_672_2977)"/>
<path d="M11.0986 42.0371L6.62718 55.2839C6.46308 55.7701 6.82467 56.2737 7.33779 56.2737H24.6484C25.132 56.2737 25.5614 55.9647 25.7151 55.5063L26.2992 53.7646C26.5469 53.0259 27.2269 52.5192 28.0051 52.4787C33.4998 52.1924 37.1695 51.4848 39.6318 49.982C41.6674 48.7394 42.6874 46.0025 43.1149 44.2919C43.2042 43.9342 43.0559 43.5639 42.7564 43.3488L38.2293 40.0979C37.9523 39.8992 37.8139 39.5592 37.8732 39.2236C37.9437 38.8237 38.2771 38.5227 38.6823 38.4933L42.9477 38.1836C43.4318 38.1483 43.8106 37.751 43.8181 37.2657C43.8563 34.7694 43.8484 29.4324 42.5729 22.7414C40.6932 12.8818 37.4629 7.53017 29.8928 6.59003C23.1968 5.6391 14.811 7.40106 10.3907 9.57925C4.3955 12.5334 3.23988 17.6723 4.72535 25.2003C6.04706 31.8986 9.18181 37.5492 10.9259 40.4596C11.2113 40.9359 11.2761 41.5109 11.0986 42.0371Z" fill="url(#paint4_radial_672_2977)"/>
<path d="M11.0986 42.0371L6.62718 55.2839C6.46308 55.7701 6.82467 56.2737 7.33779 56.2737H24.6484C25.132 56.2737 25.5614 55.9647 25.7151 55.5063L26.2992 53.7646C26.5469 53.0259 27.2269 52.5192 28.0051 52.4787C33.4998 52.1924 37.1695 51.4848 39.6318 49.982C41.6674 48.7394 42.6874 46.0025 43.1149 44.2919C43.2042 43.9342 43.0559 43.5639 42.7564 43.3488L38.2293 40.0979C37.9523 39.8992 37.8139 39.5592 37.8732 39.2236C37.9437 38.8237 38.2771 38.5227 38.6823 38.4933L42.9477 38.1836C43.4318 38.1483 43.8106 37.751 43.8181 37.2657C43.8563 34.7694 43.8484 29.4324 42.5729 22.7414C40.6932 12.8818 37.4629 7.53017 29.8928 6.59003C23.1968 5.6391 14.811 7.40106 10.3907 9.57925C4.3955 12.5334 3.23988 17.6723 4.72535 25.2003C6.04706 31.8986 9.18181 37.5492 10.9259 40.4596C11.2113 40.9359 11.2761 41.5109 11.0986 42.0371Z" fill="url(#paint5_radial_672_2977)"/>
</g>
<g filter="url(#filter1_i_672_2977)">
<path d="M49.698 30.7463L46.6472 36.0199C46.3604 36.5157 46.4811 37.1466 46.9305 37.5015C47.2986 37.792 47.8058 37.8308 48.2136 37.5994L53.5206 34.5876C54.0047 34.3127 54.0947 33.6525 53.7017 33.258L51.0261 30.573C50.6342 30.1798 49.9759 30.2657 49.698 30.7463Z" fill="url(#paint6_linear_672_2977)"/>
</g>
<g filter="url(#filter2_i_672_2977)">
<path d="M49.698 50.2187L46.6472 44.9451C46.3604 44.4494 46.4811 43.8182 46.9305 43.4635C47.2986 43.1729 47.8058 43.1342 48.2136 43.3656L53.5206 46.3774C54.0047 46.6523 54.0947 47.3125 53.7017 47.7068L51.0261 50.3918C50.6342 50.785 49.9759 50.6993 49.698 50.2187Z" fill="url(#paint7_linear_672_2977)"/>
</g>
<path d="M55.3129 37.7569L49.4265 39.3287C48.8732 39.4765 48.5125 40.008 48.5792 40.5769C48.6342 41.0425 48.9655 41.4285 49.4173 41.5532L55.2996 43.1762C55.8364 43.3241 56.3668 42.921 56.3678 42.3641L56.3743 38.5736C56.3753 38.0184 55.8492 37.6138 55.3129 37.7569Z" fill="#6CDCFF" fill-opacity="0.5"/>
<g filter="url(#filter3_i_672_2977)">
<path d="M55.3129 37.7569L49.4265 39.3287C48.8732 39.4765 48.5125 40.008 48.5792 40.5769C48.6342 41.0425 48.9655 41.4285 49.4173 41.5532L55.2996 43.1762C55.8364 43.3241 56.3668 42.921 56.3678 42.3641L56.3743 38.5736C56.3753 38.0184 55.8492 37.6138 55.3129 37.7569Z" fill="url(#paint8_linear_672_2977)"/>
</g>
<defs>
<filter id="filter0_i_672_2977" x="3.57812" y="6.32605" width="40.25" height="49.9476" filterUnits="userSpaceOnUse" color-interpolation-filters="sRGB">
<feFlood flood-opacity="0" result="BackgroundImageFix"/>
<feBlend mode="normal" in="SourceGraphic" in2="BackgroundImageFix" result="shape"/>
<feColorMatrix in="SourceAlpha" type="matrix" values="0 0 0 0 0 0 0 0 0 0 0 0 0 0 0 0 0 0 127 0" result="hardAlpha"/>
<feOffset dx="-0.5625"/>
<feGaussianBlur stdDeviation="0.28125"/>
<feComposite in2="hardAlpha" operator="arithmetic" k2="-1" k3="1"/>
<feColorMatrix type="matrix" values="0 0 0 0 0.258824 0 0 0 0 0.25098 0 0 0 0 0.270588 0 0 0 1 0"/>
<feBlend mode="normal" in2="shape" result="effect1_innerShadow_672_2977"/>
</filter>
<filter id="filter1_i_672_2977" x="46.3047" y="30.3248" width="7.64355" height="7.61218" filterUnits="userSpaceOnUse" color-interpolation-filters="sRGB">
<feFlood flood-opacity="0" result="BackgroundImageFix"/>
<feBlend mode="normal" in="SourceGraphic" in2="BackgroundImageFix" result="shape"/>
<feColorMatrix in="SourceAlpha" type="matrix" values="0 0 0 0 0 0 0 0 0 0 0 0 0 0 0 0 0 0 127 0" result="hardAlpha"/>
<feOffset dx="-0.1875" dy="0.1875"/>
<feGaussianBlur stdDeviation="0.28125"/>
<feComposite in2="hardAlpha" operator="arithmetic" k2="-1" k3="1"/>
<feColorMatrix type="matrix" values="0 0 0 0 0.254902 0 0 0 0 0.219608 0 0 0 0 0.301961 0 0 0 1 0"/>
<feBlend mode="normal" in2="shape" result="effect1_innerShadow_672_2977"/>
</filter>
<filter id="filter2_i_672_2977" x="46.3047" y="43.2155" width="7.64355" height="7.61206" filterUnits="userSpaceOnUse" color-interpolation-filters="sRGB">
<feFlood flood-opacity="0" result="BackgroundImageFix"/>
<feBlend mode="normal" in="SourceGraphic" in2="BackgroundImageFix" result="shape"/>
<feColorMatrix in="SourceAlpha" type="matrix" values="0 0 0 0 0 0 0 0 0 0 0 0 0 0 0 0 0 0 127 0" result="hardAlpha"/>
<feOffset dx="-0.1875" dy="0.1875"/>
<feGaussianBlur stdDeviation="0.28125"/>
<feComposite in2="hardAlpha" operator="arithmetic" k2="-1" k3="1"/>
<feColorMatrix type="matrix" values="0 0 0 0 0.254902 0 0 0 0 0.219608 0 0 0 0 0.301961 0 0 0 1 0"/>
<feBlend mode="normal" in2="shape" result="effect1_innerShadow_672_2977"/>
</filter>
<filter id="filter3_i_672_2977" x="48.3838" y="37.7279" width="7.99023" height="5.66663" filterUnits="userSpaceOnUse" color-interpolation-filters="sRGB">
<feFlood flood-opacity="0" result="BackgroundImageFix"/>
<feBlend mode="normal" in="SourceGraphic" in2="BackgroundImageFix" result="shape"/>
<feColorMatrix in="SourceAlpha" type="matrix" values="0 0 0 0 0 0 0 0 0 0 0 0 0 0 0 0 0 0 127 0" result="hardAlpha"/>
<feOffset dx="-0.1875" dy="0.1875"/>
<feGaussianBlur stdDeviation="0.28125"/>
<feComposite in2="hardAlpha" operator="arithmetic" k2="-1" k3="1"/>
<feColorMatrix type="matrix" values="0 0 0 0 0.254902 0 0 0 0 0.219608 0 0 0 0 0.301961 0 0 0 1 0"/>
<feBlend mode="normal" in2="shape" result="effect1_innerShadow_672_2977"/>
</filter>
<radialGradient id="paint0_radial_672_2977" cx="0" cy="0" r="1" gradientUnits="userSpaceOnUse" gradientTransform="translate(42.8412 29.5659) rotate(63.2024) scale(6.29411 3.84992)">
<stop offset="0.37376" stop-color="#3B3540"/>
<stop offset="1" stop-color="#0E0514"/>
</radialGradient>
<radialGradient id="paint1_radial_672_2977" cx="0" cy="0" r="1" gradientUnits="userSpaceOnUse" gradientTransform="translate(38.0028 11.6294) rotate(116.409) scale(38.4675 30.5655)">
<stop stop-color="#392A48"/>
<stop offset="1" stop-color="#18141B"/>
</radialGradient>
<radialGradient id="paint2_radial_672_2977" cx="0" cy="0" r="1" gradientUnits="userSpaceOnUse" gradientTransform="translate(18.5497 56.8638) rotate(-72.4465) scale(12.0453 6.32304)">
<stop offset="0.432371" stop-color="#26202B"/>
<stop offset="1" stop-color="#26202B" stop-opacity="0"/>
</radialGradient>
<radialGradient id="paint3_radial_672_2977" cx="0" cy="0" r="1" gradientUnits="userSpaceOnUse" gradientTransform="translate(40.1708 39.6957) rotate(-159.085) scale(9.84812 10.29)">
<stop stop-color="#342F38"/>
<stop offset="1" stop-color="#342F38" stop-opacity="0"/>
</radialGradient>
<radialGradient id="paint4_radial_672_2977" cx="0" cy="0" r="1" gradientUnits="userSpaceOnUse" gradientTransform="translate(36.0693 20.477) rotate(79.0019) scale(16.8923 10.3933)">
<stop stop-color="#453D4F"/>
<stop offset="1" stop-color="#453D4F" stop-opacity="0"/>
</radialGradient>
<radialGradient id="paint5_radial_672_2977" cx="0" cy="0" r="1" gradientUnits="userSpaceOnUse" gradientTransform="translate(29.4481 6.32605) rotate(90) scale(4.83459 11.3672)">
<stop stop-color="#3E334A"/>
<stop offset="1" stop-color="#3E334A" stop-opacity="0"/>
</radialGradient>
<linearGradient id="paint6_linear_672_2977" x1="52.528" y1="32.059" x2="46.9403" y2="37.7494" gradientUnits="userSpaceOnUse">
<stop stop-color="#2A1C38"/>
<stop offset="1" stop-color="#291C36"/>
</linearGradient>
<linearGradient id="paint7_linear_672_2977" x1="52.528" y1="48.9059" x2="46.9403" y2="43.2154" gradientUnits="userSpaceOnUse">
<stop stop-color="#2A1C38"/>
<stop offset="1" stop-color="#291C36"/>
</linearGradient>
<linearGradient id="paint8_linear_672_2977" x1="56.3856" y1="40.6864" x2="48.4108" y2="40.7589" gradientUnits="userSpaceOnUse">
<stop stop-color="#2A1C38"/>
<stop offset="1" stop-color="#291C36"/>
</linearGradient>
</defs>
</svg>
