<svg width="60" height="60" viewBox="0 0 60 60" fill="none" xmlns="http://www.w3.org/2000/svg">
<g filter="url(#filter0_ii_670_2231)">
<path d="M26.3233 56.2499C38.7902 56.2499 48.8966 46.1435 48.8966 33.6766C48.8966 21.2097 38.7902 11.1033 26.3233 11.1033C13.8564 11.1033 3.75 21.2097 3.75 33.6766C3.75 46.1435 13.8564 56.2499 26.3233 56.2499Z" fill="url(#paint0_linear_670_2231)"/>
<path d="M26.3233 56.2499C38.7902 56.2499 48.8966 46.1435 48.8966 33.6766C48.8966 21.2097 38.7902 11.1033 26.3233 11.1033C13.8564 11.1033 3.75 21.2097 3.75 33.6766C3.75 46.1435 13.8564 56.2499 26.3233 56.2499Z" fill="url(#paint1_radial_670_2231)"/>
</g>
<path d="M26.3232 50.1856C35.4408 50.1856 42.832 42.7943 42.832 33.6768C42.832 24.5592 35.4408 17.168 26.3232 17.168C17.2057 17.168 9.81445 24.5592 9.81445 33.6768C9.81445 42.7943 17.2057 50.1856 26.3232 50.1856Z" fill="url(#paint2_linear_670_2231)"/>
<path d="M26.3232 50.1856C35.4408 50.1856 42.832 42.7943 42.832 33.6768C42.832 24.5592 35.4408 17.168 26.3232 17.168C17.2057 17.168 9.81445 24.5592 9.81445 33.6768C9.81445 42.7943 17.2057 50.1856 26.3232 50.1856Z" fill="url(#paint3_radial_670_2231)"/>
<path d="M26.3232 50.1856C35.4408 50.1856 42.832 42.7943 42.832 33.6768C42.832 24.5592 35.4408 17.168 26.3232 17.168C17.2057 17.168 9.81445 24.5592 9.81445 33.6768C9.81445 42.7943 17.2057 50.1856 26.3232 50.1856Z" fill="url(#paint4_radial_670_2231)"/>
<path d="M26.3232 44.4726C32.2856 44.4726 37.1191 39.6392 37.1191 33.6768C37.1191 27.7143 32.2856 22.8809 26.3232 22.8809C20.3608 22.8809 15.5273 27.7143 15.5273 33.6768C15.5273 39.6392 20.3608 44.4726 26.3232 44.4726Z" fill="url(#paint5_linear_670_2231)"/>
<path d="M26.3232 44.4726C32.2856 44.4726 37.1191 39.6392 37.1191 33.6768C37.1191 27.7143 32.2856 22.8809 26.3232 22.8809C20.3608 22.8809 15.5273 27.7143 15.5273 33.6768C15.5273 39.6392 20.3608 44.4726 26.3232 44.4726Z" fill="url(#paint6_radial_670_2231)"/>
<path d="M26.3233 39.0381C29.2842 39.0381 31.6846 36.6378 31.6846 33.6768C31.6846 30.7158 29.2842 28.3154 26.3233 28.3154C23.3623 28.3154 20.9619 30.7158 20.9619 33.6768C20.9619 36.6378 23.3623 39.0381 26.3233 39.0381Z" fill="#B7ABC8"/>
<path d="M26.3233 39.0381C29.2842 39.0381 31.6846 36.6378 31.6846 33.6768C31.6846 30.7158 29.2842 28.3154 26.3233 28.3154C23.3623 28.3154 20.9619 30.7158 20.9619 33.6768C20.9619 36.6378 23.3623 39.0381 26.3233 39.0381Z" fill="url(#paint7_radial_670_2231)"/>
<path d="M26.3233 39.0381C29.2842 39.0381 31.6846 36.6378 31.6846 33.6768C31.6846 30.7158 29.2842 28.3154 26.3233 28.3154C23.3623 28.3154 20.9619 30.7158 20.9619 33.6768C20.9619 36.6378 23.3623 39.0381 26.3233 39.0381Z" fill="url(#paint8_radial_670_2231)"/>
<g filter="url(#filter1_f_670_2231)">
<path d="M26.7787 54.2427C38.1369 54.2427 47.3446 45.0349 47.3446 33.6767C47.3446 22.3185 38.1369 13.1108 26.7787 13.1108C15.4205 13.1108 6.21289 22.3185 6.21289 33.6767C6.21289 45.0349 15.4205 54.2427 26.7787 54.2427Z" stroke="url(#paint9_linear_670_2231)" stroke-width="1.21875"/>
</g>
<path d="M26.5016 33.5157C25.8669 32.8808 25.6326 32.1593 26.2674 31.5245L29.4831 28.294C30.1179 27.6592 31.1471 27.6592 31.7818 28.294C32.4167 28.9289 32.4167 29.9581 31.7818 30.5928L28.5662 33.8232C27.9315 34.4581 27.1365 34.1504 26.5016 33.5157Z" fill="#7C7088"/>
<path d="M26.5016 33.5157C25.8669 32.8808 25.6326 32.1593 26.2674 31.5245L29.4831 28.294C30.1179 27.6592 31.1471 27.6592 31.7818 28.294C32.4167 28.9289 32.4167 29.9581 31.7818 30.5928L28.5662 33.8232C27.9315 34.4581 27.1365 34.1504 26.5016 33.5157Z" fill="url(#paint10_linear_670_2231)"/>
<path d="M26.5016 33.5157C25.8669 32.8808 25.6326 32.1593 26.2674 31.5245L29.4831 28.294C30.1179 27.6592 31.1471 27.6592 31.7818 28.294C32.4167 28.9289 32.4167 29.9581 31.7818 30.5928L28.5662 33.8232C27.9315 34.4581 27.1365 34.1504 26.5016 33.5157Z" fill="url(#paint11_linear_670_2231)"/>
<path d="M42.496 5.19726L44.7968 11.2793L36.3888 17.1679C33.8851 10.5465 36.9469 6.63584 39.7889 4.36915C40.7209 3.62571 42.0741 4.08214 42.496 5.19726Z" fill="#2983DF"/>
<path d="M42.496 5.19726L44.7968 11.2793L36.3888 17.1679C33.8851 10.5465 36.9469 6.63584 39.7889 4.36915C40.7209 3.62571 42.0741 4.08214 42.496 5.19726Z" fill="url(#paint12_radial_670_2231)"/>
<path d="M42.496 5.19726L44.7968 11.2793L36.3888 17.1679C33.8851 10.5465 36.9469 6.63584 39.7889 4.36915C40.7209 3.62571 42.0741 4.08214 42.496 5.19726Z" fill="url(#paint13_linear_670_2231)"/>
<path d="M54.7442 17.4587L48.6344 15.2329L42.8496 23.713C49.5014 26.135 53.3742 23.0249 55.6056 20.1554C56.3374 19.2142 55.8644 17.8668 54.7442 17.4587Z" fill="#2980EB"/>
<path d="M54.7442 17.4587L48.6344 15.2329L42.8496 23.713C49.5014 26.135 53.3742 23.0249 55.6056 20.1554C56.3374 19.2142 55.8644 17.8668 54.7442 17.4587Z" fill="url(#paint14_linear_670_2231)"/>
<path d="M54.7442 17.4587L48.6344 15.2329L42.8496 23.713C49.5014 26.135 53.3742 23.0249 55.6056 20.1554C56.3374 19.2142 55.8644 17.8668 54.7442 17.4587Z" fill="url(#paint15_radial_670_2231)"/>
<g filter="url(#filter2_f_670_2231)">
<path d="M41.9516 5.12879C41.78 4.6703 41.2691 4.43775 40.8106 4.60939C40.3522 4.78103 40.1196 5.29185 40.2912 5.75035L43.1258 13.3223C43.2974 13.7808 43.8083 14.0134 44.2668 13.8417C44.7252 13.6701 44.9578 13.1593 44.7862 12.7008L41.9516 5.12879Z" fill="url(#paint16_radial_670_2231)"/>
</g>
<g filter="url(#filter3_f_670_2231)">
<path d="M54.1243 19.5732C54.5825 19.7455 55.0937 19.5138 55.2661 19.0555C55.4384 18.5973 55.2067 18.0861 54.7484 17.9138L47.1809 15.0675C46.7226 14.8952 46.2114 15.1269 46.0391 15.5851C45.8668 16.0434 46.0985 16.5545 46.5567 16.7269L54.1243 19.5732Z" fill="url(#paint17_radial_670_2231)"/>
</g>
<g filter="url(#filter4_i_670_2231)">
<path d="M31.2764 20.0807L43.6996 10.8753C45.3479 9.64303 47.8121 9.96415 49.0556 11.2448C50.438 12.7283 50.6019 14.9124 49.4161 16.5239L40.2476 28.9841C37.9443 32.1143 33.4034 32.4803 30.6286 29.7593C27.8319 27.0167 28.1392 22.4261 31.2764 20.0807Z" fill="#52BCF0"/>
</g>
<path d="M31.2764 20.0807L43.6996 10.8753C45.3479 9.64303 47.8121 9.96415 49.0556 11.2448C50.438 12.7283 50.6019 14.9124 49.4161 16.5239L40.2476 28.9841C37.9443 32.1143 33.4034 32.4803 30.6286 29.7593C27.8319 27.0167 28.1392 22.4261 31.2764 20.0807Z" fill="url(#paint18_radial_670_2231)"/>
<path d="M31.2764 20.0807L43.6996 10.8753C45.3479 9.64303 47.8121 9.96415 49.0556 11.2448C50.438 12.7283 50.6019 14.9124 49.4161 16.5239L40.2476 28.9841C37.9443 32.1143 33.4034 32.4803 30.6286 29.7593C27.8319 27.0167 28.1392 22.4261 31.2764 20.0807Z" fill="url(#paint19_radial_670_2231)"/>
<path d="M31.2764 20.0807L43.6996 10.8753C45.3479 9.64303 47.8121 9.96415 49.0556 11.2448C50.438 12.7283 50.6019 14.9124 49.4161 16.5239L40.2476 28.9841C37.9443 32.1143 33.4034 32.4803 30.6286 29.7593C27.8319 27.0167 28.1392 22.4261 31.2764 20.0807Z" fill="url(#paint20_radial_670_2231)"/>
<g filter="url(#filter5_ii_670_2231)">
<path d="M49.968 10.0632L49.9679 10.0632C49.3206 9.41586 48.2712 9.41586 47.6239 10.0632L37.9855 19.7015C37.3382 20.3488 37.3382 21.3983 37.9855 22.0456C38.6328 22.6929 39.6823 22.6929 40.3296 22.0456L49.968 12.4073C50.6153 11.76 50.6153 10.7105 49.968 10.0632Z" fill="#2984E4"/>
</g>
<path d="M49.968 10.0632L49.9679 10.0632C49.3206 9.41586 48.2712 9.41586 47.6239 10.0632L37.9855 19.7015C37.3382 20.3488 37.3382 21.3983 37.9855 22.0456C38.6328 22.6929 39.6823 22.6929 40.3296 22.0456L49.968 12.4073C50.6153 11.76 50.6153 10.7105 49.968 10.0632Z" fill="url(#paint21_radial_670_2231)"/>
<defs>
<filter id="filter0_ii_670_2231" x="3.75" y="10.1658" width="46.084" height="47.0217" filterUnits="userSpaceOnUse" color-interpolation-filters="sRGB">
<feFlood flood-opacity="0" result="BackgroundImageFix"/>
<feBlend mode="normal" in="SourceGraphic" in2="BackgroundImageFix" result="shape"/>
<feColorMatrix in="SourceAlpha" type="matrix" values="0 0 0 0 0 0 0 0 0 0 0 0 0 0 0 0 0 0 127 0" result="hardAlpha"/>
<feOffset dx="0.9375" dy="-0.9375"/>
<feGaussianBlur stdDeviation="0.9375"/>
<feComposite in2="hardAlpha" operator="arithmetic" k2="-1" k3="1"/>
<feColorMatrix type="matrix" values="0 0 0 0 0.737255 0 0 0 0 0.160784 0 0 0 0 0.329412 0 0 0 1 0"/>
<feBlend mode="normal" in2="shape" result="effect1_innerShadow_670_2231"/>
<feColorMatrix in="SourceAlpha" type="matrix" values="0 0 0 0 0 0 0 0 0 0 0 0 0 0 0 0 0 0 127 0" result="hardAlpha"/>
<feOffset dx="0.9375" dy="0.9375"/>
<feGaussianBlur stdDeviation="0.9375"/>
<feComposite in2="hardAlpha" operator="arithmetic" k2="-1" k3="1"/>
<feColorMatrix type="matrix" values="0 0 0 0 0.74902 0 0 0 0 0.341176 0 0 0 0 0.490196 0 0 0 1 0"/>
<feBlend mode="normal" in2="effect1_innerShadow_670_2231" result="effect2_innerShadow_670_2231"/>
</filter>
<filter id="filter1_f_670_2231" x="4.38477" y="11.2827" width="44.7881" height="44.7881" filterUnits="userSpaceOnUse" color-interpolation-filters="sRGB">
<feFlood flood-opacity="0" result="BackgroundImageFix"/>
<feBlend mode="normal" in="SourceGraphic" in2="BackgroundImageFix" result="shape"/>
<feGaussianBlur stdDeviation="0.609375" result="effect1_foregroundBlur_670_2231"/>
</filter>
<filter id="filter2_f_670_2231" x="39.2969" y="3.61548" width="6.4834" height="11.2202" filterUnits="userSpaceOnUse" color-interpolation-filters="sRGB">
<feFlood flood-opacity="0" result="BackgroundImageFix"/>
<feBlend mode="normal" in="SourceGraphic" in2="BackgroundImageFix" result="shape"/>
<feGaussianBlur stdDeviation="0.46875" result="effect1_foregroundBlur_670_2231"/>
</filter>
<filter id="filter3_f_670_2231" x="45.0449" y="14.073" width="11.2158" height="6.49463" filterUnits="userSpaceOnUse" color-interpolation-filters="sRGB">
<feFlood flood-opacity="0" result="BackgroundImageFix"/>
<feBlend mode="normal" in="SourceGraphic" in2="BackgroundImageFix" result="shape"/>
<feGaussianBlur stdDeviation="0.46875" result="effect1_foregroundBlur_670_2231"/>
</filter>
<filter id="filter4_i_670_2231" x="28.7129" y="10.1001" width="21.9648" height="21.9553" filterUnits="userSpaceOnUse" color-interpolation-filters="sRGB">
<feFlood flood-opacity="0" result="BackgroundImageFix"/>
<feBlend mode="normal" in="SourceGraphic" in2="BackgroundImageFix" result="shape"/>
<feColorMatrix in="SourceAlpha" type="matrix" values="0 0 0 0 0 0 0 0 0 0 0 0 0 0 0 0 0 0 127 0" result="hardAlpha"/>
<feOffset dx="0.46875" dy="0.46875"/>
<feGaussianBlur stdDeviation="0.9375"/>
<feComposite in2="hardAlpha" operator="arithmetic" k2="-1" k3="1"/>
<feColorMatrix type="matrix" values="0 0 0 0 0.45098 0 0 0 0 0.65098 0 0 0 0 0.737255 0 0 0 1 0"/>
<feBlend mode="normal" in2="shape" result="effect1_innerShadow_670_2231"/>
</filter>
<filter id="filter5_ii_670_2231" x="37.2188" y="9.29639" width="13.5156" height="13.5159" filterUnits="userSpaceOnUse" color-interpolation-filters="sRGB">
<feFlood flood-opacity="0" result="BackgroundImageFix"/>
<feBlend mode="normal" in="SourceGraphic" in2="BackgroundImageFix" result="shape"/>
<feColorMatrix in="SourceAlpha" type="matrix" values="0 0 0 0 0 0 0 0 0 0 0 0 0 0 0 0 0 0 127 0" result="hardAlpha"/>
<feOffset dx="0.28125" dy="0.28125"/>
<feGaussianBlur stdDeviation="0.28125"/>
<feComposite in2="hardAlpha" operator="arithmetic" k2="-1" k3="1"/>
<feColorMatrix type="matrix" values="0 0 0 0 0.160784 0 0 0 0 0.521569 0 0 0 0 0.764706 0 0 0 1 0"/>
<feBlend mode="normal" in2="shape" result="effect1_innerShadow_670_2231"/>
<feColorMatrix in="SourceAlpha" type="matrix" values="0 0 0 0 0 0 0 0 0 0 0 0 0 0 0 0 0 0 127 0" result="hardAlpha"/>
<feOffset dx="-0.28125" dy="-0.28125"/>
<feGaussianBlur stdDeviation="0.421875"/>
<feComposite in2="hardAlpha" operator="arithmetic" k2="-1" k3="1"/>
<feColorMatrix type="matrix" values="0 0 0 0 0.235294 0 0 0 0 0.435294 0 0 0 0 0.831373 0 0 0 1 0"/>
<feBlend mode="normal" in2="effect1_innerShadow_670_2231" result="effect2_innerShadow_670_2231"/>
</filter>
<linearGradient id="paint0_linear_670_2231" x1="36.6255" y1="13.3524" x2="17.687" y2="51.8733" gradientUnits="userSpaceOnUse">
<stop stop-color="#E6378B"/>
<stop offset="1" stop-color="#EF3A5C"/>
</linearGradient>
<radialGradient id="paint1_radial_670_2231" cx="0" cy="0" r="1" gradientUnits="userSpaceOnUse" gradientTransform="translate(37.4481 19.3681) rotate(124.825) scale(10.0025 14.5464)">
<stop offset="0.219108" stop-color="#B82974"/>
<stop offset="1" stop-color="#B82974" stop-opacity="0"/>
</radialGradient>
<linearGradient id="paint2_linear_670_2231" x1="38.162" y1="41.9785" x2="13.6477" y2="16.5123" gradientUnits="userSpaceOnUse">
<stop stop-color="#CEC3DF"/>
<stop offset="1" stop-color="#C5BCD3"/>
</linearGradient>
<radialGradient id="paint3_radial_670_2231" cx="0" cy="0" r="1" gradientUnits="userSpaceOnUse" gradientTransform="translate(21.0258 33.6768) scale(21.8063)">
<stop offset="0.86129" stop-color="#CBC4DF" stop-opacity="0"/>
<stop offset="1" stop-color="#CBC4DF"/>
</radialGradient>
<radialGradient id="paint4_radial_670_2231" cx="0" cy="0" r="1" gradientUnits="userSpaceOnUse" gradientTransform="translate(34.1159 18.2973) rotate(118.217) scale(11.0742 6.06139)">
<stop stop-color="#9DA8B4"/>
<stop offset="1" stop-color="#9DA8B4" stop-opacity="0"/>
</radialGradient>
<linearGradient id="paint5_linear_670_2231" x1="33.521" y1="26.3894" x2="20.7877" y2="43.5256" gradientUnits="userSpaceOnUse">
<stop stop-color="#D2347A"/>
<stop offset="1" stop-color="#ED3963"/>
</linearGradient>
<radialGradient id="paint6_radial_670_2231" cx="0" cy="0" r="1" gradientUnits="userSpaceOnUse" gradientTransform="translate(31.8549 26.7464) rotate(131.253) scale(8.38924)">
<stop stop-color="#962359"/>
<stop offset="0.947427" stop-color="#962359" stop-opacity="0"/>
</radialGradient>
<radialGradient id="paint7_radial_670_2231" cx="0" cy="0" r="1" gradientUnits="userSpaceOnUse" gradientTransform="translate(25.3098 31.8635) rotate(67.2035) scale(8.90685 8.90685)">
<stop offset="0.612995" stop-color="#C9BED9" stop-opacity="0"/>
<stop offset="1" stop-color="#C9BED9"/>
</radialGradient>
<radialGradient id="paint8_radial_670_2231" cx="0" cy="0" r="1" gradientUnits="userSpaceOnUse" gradientTransform="translate(28.7609 28.3156) rotate(103.843) scale(6.96324 6.96324)">
<stop stop-color="#857D97"/>
<stop offset="1" stop-color="#857D97" stop-opacity="0"/>
</radialGradient>
<linearGradient id="paint9_linear_670_2231" x1="43.9136" y1="20.2174" x2="31.5547" y2="32.8568" gradientUnits="userSpaceOnUse">
<stop stop-color="#FF6AA2"/>
<stop offset="1" stop-color="#FF6AA2" stop-opacity="0"/>
</linearGradient>
<linearGradient id="paint10_linear_670_2231" x1="30.2777" y1="32.4018" x2="29.0752" y2="31.1667" gradientUnits="userSpaceOnUse">
<stop stop-color="#7E5F8A"/>
<stop offset="1" stop-color="#7E5F8A" stop-opacity="0"/>
</linearGradient>
<linearGradient id="paint11_linear_670_2231" x1="27.9386" y1="29.6686" x2="28.3854" y2="30.0892" gradientUnits="userSpaceOnUse">
<stop stop-color="#746D7C"/>
<stop offset="1" stop-color="#746D7C" stop-opacity="0"/>
</linearGradient>
<radialGradient id="paint12_radial_670_2231" cx="0" cy="0" r="1" gradientUnits="userSpaceOnUse" gradientTransform="translate(40.4613 11.5429) rotate(-157.278) scale(5.08189 9.2268)">
<stop offset="0.749676" stop-color="#6897C2" stop-opacity="0"/>
<stop offset="1" stop-color="#6897C2"/>
</radialGradient>
<linearGradient id="paint13_linear_670_2231" x1="44.0061" y1="8.08591" x2="41.0178" y2="9.14059" gradientUnits="userSpaceOnUse">
<stop stop-color="#58C3FF"/>
<stop offset="1" stop-color="#58C3FF" stop-opacity="0"/>
</linearGradient>
<linearGradient id="paint14_linear_670_2231" x1="52.7363" y1="15.9959" x2="51.6231" y2="18.3982" gradientUnits="userSpaceOnUse">
<stop stop-color="#49B6FF"/>
<stop offset="1" stop-color="#49B6FF" stop-opacity="0"/>
</linearGradient>
<radialGradient id="paint15_radial_670_2231" cx="0" cy="0" r="1" gradientUnits="userSpaceOnUse" gradientTransform="translate(48.0488 17.3143) rotate(79.5793) scale(7.77472 10.0152)">
<stop offset="0.814441" stop-color="#5066D2" stop-opacity="0"/>
<stop offset="0.92639" stop-color="#5066D2"/>
</radialGradient>
<radialGradient id="paint16_radial_670_2231" cx="0" cy="0" r="1" gradientUnits="userSpaceOnUse" gradientTransform="translate(41.0767 5.15625) rotate(66.4014) scale(9.36735 1.97779)">
<stop stop-color="#61CEFF"/>
<stop offset="1" stop-color="#3CB8FF" stop-opacity="0"/>
</radialGradient>
<radialGradient id="paint17_radial_670_2231" cx="0" cy="0" r="1" gradientUnits="userSpaceOnUse" gradientTransform="translate(54.6791 18.8961) rotate(-162.463) scale(9.36735 1.97779)">
<stop stop-color="#61CEFF"/>
<stop offset="1" stop-color="#3CB8FF" stop-opacity="0"/>
</radialGradient>
<radialGradient id="paint18_radial_670_2231" cx="0" cy="0" r="1" gradientUnits="userSpaceOnUse" gradientTransform="translate(50.9204 11.0156) rotate(143.326) scale(6.86723 7.07631)">
<stop offset="0.422676" stop-color="#6BFFFF"/>
<stop offset="1" stop-color="#6BFFFF" stop-opacity="0"/>
</radialGradient>
<radialGradient id="paint19_radial_670_2231" cx="0" cy="0" r="1" gradientUnits="userSpaceOnUse" gradientTransform="translate(45.0134 16.0236) rotate(137.684) scale(20.3379 20.6031)">
<stop offset="0.837515" stop-color="#5E9BDB" stop-opacity="0"/>
<stop offset="1" stop-color="#5E9BDB"/>
</radialGradient>
<radialGradient id="paint20_radial_670_2231" cx="0" cy="0" r="1" gradientUnits="userSpaceOnUse" gradientTransform="translate(39.1775 20.8434) rotate(134.318) scale(3.69473 1.94411)">
<stop offset="0.360543" stop-color="#49A0E1"/>
<stop offset="1" stop-color="#49A0E1" stop-opacity="0"/>
</radialGradient>
<radialGradient id="paint21_radial_670_2231" cx="0" cy="0" r="1" gradientUnits="userSpaceOnUse" gradientTransform="translate(48.6937 11.1327) rotate(-44.5692) scale(5.51063 2.0991)">
<stop stop-color="#60CAFF"/>
<stop offset="1" stop-color="#60CAFF" stop-opacity="0"/>
</radialGradient>
</defs>
</svg>
