<svg width="60" height="60" viewBox="0 0 60 60" fill="none" xmlns="http://www.w3.org/2000/svg">
<path d="M15.3975 17.0782C12.4678 18.4552 10.6709 21.2579 10.2412 22.6154L25.8272 19.7442L22.2681 16.1302C22.1162 15.976 21.9158 15.8778 21.6994 15.8738C20.4231 15.8504 17.1731 16.1506 15.3975 17.0782Z" fill="url(#paint0_linear_670_2195)"/>
<path d="M15.3975 17.0782C12.4678 18.4552 10.6709 21.2579 10.2412 22.6154L25.8272 19.7442L22.2681 16.1302C22.1162 15.976 21.9158 15.8778 21.6994 15.8738C20.4231 15.8504 17.1731 16.1506 15.3975 17.0782Z" fill="url(#paint1_linear_670_2195)"/>
<path d="M44.4014 17.0782C47.3311 18.4552 49.1279 21.2579 49.5576 22.6154L33.9717 19.7442L37.5306 16.1302C37.6827 15.976 37.8829 15.8778 38.0995 15.8738C39.3756 15.8504 42.6257 16.1506 44.4014 17.0782Z" fill="url(#paint2_linear_670_2195)"/>
<path d="M44.4014 17.0782C47.3311 18.4552 49.1279 21.2579 49.5576 22.6154L33.9717 19.7442L37.5306 16.1302C37.6827 15.976 37.8829 15.8778 38.0995 15.8738C39.3756 15.8504 42.6257 16.1506 44.4014 17.0782Z" fill="url(#paint3_linear_670_2195)"/>
<path d="M17.7482 18.2793C13.6763 18.2793 10.0547 20.9052 8.93532 24.8202C6.01523 35.0329 4.11835 44.1777 4.11835 44.1777C3.64198 46.5972 3.38592 51.2969 4.90932 53.6406C7.37029 57.0391 9.85047 56.8289 12.5541 54.6634L20.1189 48.6049C20.9505 47.9389 21.984 47.5761 23.0492 47.5761H36.6911C37.7563 47.5761 38.7898 47.9389 39.6214 48.6049L47.1863 54.6634C49.8898 56.8289 52.3701 57.0391 54.831 53.6406C56.3544 51.2969 56.0983 46.5972 55.6221 44.1777C55.6221 44.1777 53.7251 35.0329 50.805 24.8202C49.6856 20.9052 46.0641 18.2793 41.9921 18.2793H17.7482Z" fill="url(#paint4_linear_670_2195)"/>
<path d="M17.7482 18.2793C13.6763 18.2793 10.0547 20.9052 8.93532 24.8202C6.01523 35.0329 4.11835 44.1777 4.11835 44.1777C3.64198 46.5972 3.38592 51.2969 4.90932 53.6406C7.37029 57.0391 9.85047 56.8289 12.5541 54.6634L20.1189 48.6049C20.9505 47.9389 21.984 47.5761 23.0492 47.5761H36.6911C37.7563 47.5761 38.7898 47.9389 39.6214 48.6049L47.1863 54.6634C49.8898 56.8289 52.3701 57.0391 54.831 53.6406C56.3544 51.2969 56.0983 46.5972 55.6221 44.1777C55.6221 44.1777 53.7251 35.0329 50.805 24.8202C49.6856 20.9052 46.0641 18.2793 41.9921 18.2793H17.7482Z" fill="url(#paint5_radial_670_2195)"/>
<path d="M17.7482 18.2793C13.6763 18.2793 10.0547 20.9052 8.93532 24.8202C6.01523 35.0329 4.11835 44.1777 4.11835 44.1777C3.64198 46.5972 3.38592 51.2969 4.90932 53.6406C7.37029 57.0391 9.85047 56.8289 12.5541 54.6634L20.1189 48.6049C20.9505 47.9389 21.984 47.5761 23.0492 47.5761H36.6911C37.7563 47.5761 38.7898 47.9389 39.6214 48.6049L47.1863 54.6634C49.8898 56.8289 52.3701 57.0391 54.831 53.6406C56.3544 51.2969 56.0983 46.5972 55.6221 44.1777C55.6221 44.1777 53.7251 35.0329 50.805 24.8202C49.6856 20.9052 46.0641 18.2793 41.9921 18.2793H17.7482Z" fill="url(#paint6_radial_670_2195)"/>
<path d="M17.7482 18.2793C13.6763 18.2793 10.0547 20.9052 8.93532 24.8202C6.01523 35.0329 4.11835 44.1777 4.11835 44.1777C3.64198 46.5972 3.38592 51.2969 4.90932 53.6406C7.37029 57.0391 9.85047 56.8289 12.5541 54.6634L20.1189 48.6049C20.9505 47.9389 21.984 47.5761 23.0492 47.5761H36.6911C37.7563 47.5761 38.7898 47.9389 39.6214 48.6049L47.1863 54.6634C49.8898 56.8289 52.3701 57.0391 54.831 53.6406C56.3544 51.2969 56.0983 46.5972 55.6221 44.1777C55.6221 44.1777 53.7251 35.0329 50.805 24.8202C49.6856 20.9052 46.0641 18.2793 41.9921 18.2793H17.7482Z" fill="url(#paint7_radial_670_2195)"/>
<path d="M17.7482 18.2793C13.6763 18.2793 10.0547 20.9052 8.93532 24.8202C6.01523 35.0329 4.11835 44.1777 4.11835 44.1777C3.64198 46.5972 3.38592 51.2969 4.90932 53.6406C7.37029 57.0391 9.85047 56.8289 12.5541 54.6634L20.1189 48.6049C20.9505 47.9389 21.984 47.5761 23.0492 47.5761H36.6911C37.7563 47.5761 38.7898 47.9389 39.6214 48.6049L47.1863 54.6634C49.8898 56.8289 52.3701 57.0391 54.831 53.6406C56.3544 51.2969 56.0983 46.5972 55.6221 44.1777C55.6221 44.1777 53.7251 35.0329 50.805 24.8202C49.6856 20.9052 46.0641 18.2793 41.9921 18.2793H17.7482Z" fill="url(#paint8_radial_670_2195)"/>
<path d="M17.7482 18.2793C13.6763 18.2793 10.0547 20.9052 8.93532 24.8202C6.01523 35.0329 4.11835 44.1777 4.11835 44.1777C3.64198 46.5972 3.38592 51.2969 4.90932 53.6406C7.37029 57.0391 9.85047 56.8289 12.5541 54.6634L20.1189 48.6049C20.9505 47.9389 21.984 47.5761 23.0492 47.5761H36.6911C37.7563 47.5761 38.7898 47.9389 39.6214 48.6049L47.1863 54.6634C49.8898 56.8289 52.3701 57.0391 54.831 53.6406C56.3544 51.2969 56.0983 46.5972 55.6221 44.1777C55.6221 44.1777 53.7251 35.0329 50.805 24.8202C49.6856 20.9052 46.0641 18.2793 41.9921 18.2793H17.7482Z" fill="url(#paint9_radial_670_2195)"/>
<path d="M17.7482 18.2793C13.6763 18.2793 10.0547 20.9052 8.93532 24.8202C6.01523 35.0329 4.11835 44.1777 4.11835 44.1777C3.64198 46.5972 3.38592 51.2969 4.90932 53.6406C7.37029 57.0391 9.85047 56.8289 12.5541 54.6634L20.1189 48.6049C20.9505 47.9389 21.984 47.5761 23.0492 47.5761H36.6911C37.7563 47.5761 38.7898 47.9389 39.6214 48.6049L47.1863 54.6634C49.8898 56.8289 52.3701 57.0391 54.831 53.6406C56.3544 51.2969 56.0983 46.5972 55.6221 44.1777C55.6221 44.1777 53.7251 35.0329 50.805 24.8202C49.6856 20.9052 46.0641 18.2793 41.9921 18.2793H17.7482Z" fill="url(#paint10_radial_670_2195)"/>
<path d="M17.7482 18.2793C13.6763 18.2793 10.0547 20.9052 8.93532 24.8202C6.01523 35.0329 4.11835 44.1777 4.11835 44.1777C3.64198 46.5972 3.38592 51.2969 4.90932 53.6406C7.37029 57.0391 9.85047 56.8289 12.5541 54.6634L20.1189 48.6049C20.9505 47.9389 21.984 47.5761 23.0492 47.5761H36.6911C37.7563 47.5761 38.7898 47.9389 39.6214 48.6049L47.1863 54.6634C49.8898 56.8289 52.3701 57.0391 54.831 53.6406C56.3544 51.2969 56.0983 46.5972 55.6221 44.1777C55.6221 44.1777 53.7251 35.0329 50.805 24.8202C49.6856 20.9052 46.0641 18.2793 41.9921 18.2793H17.7482Z" fill="url(#paint11_radial_670_2195)"/>
<path d="M17.7482 18.2793C13.6763 18.2793 10.0547 20.9052 8.93532 24.8202C6.01523 35.0329 4.11835 44.1777 4.11835 44.1777C3.64198 46.5972 3.38592 51.2969 4.90932 53.6406C7.37029 57.0391 9.85047 56.8289 12.5541 54.6634L20.1189 48.6049C20.9505 47.9389 21.984 47.5761 23.0492 47.5761H36.6911C37.7563 47.5761 38.7898 47.9389 39.6214 48.6049L47.1863 54.6634C49.8898 56.8289 52.3701 57.0391 54.831 53.6406C56.3544 51.2969 56.0983 46.5972 55.6221 44.1777C55.6221 44.1777 53.7251 35.0329 50.805 24.8202C49.6856 20.9052 46.0641 18.2793 41.9921 18.2793H17.7482Z" fill="url(#paint12_radial_670_2195)"/>
<path d="M17.7482 18.2793C13.6763 18.2793 10.0547 20.9052 8.93532 24.8202C6.01523 35.0329 4.11835 44.1777 4.11835 44.1777C3.64198 46.5972 3.38592 51.2969 4.90932 53.6406C7.37029 57.0391 9.85047 56.8289 12.5541 54.6634L20.1189 48.6049C20.9505 47.9389 21.984 47.5761 23.0492 47.5761H36.6911C37.7563 47.5761 38.7898 47.9389 39.6214 48.6049L47.1863 54.6634C49.8898 56.8289 52.3701 57.0391 54.831 53.6406C56.3544 51.2969 56.0983 46.5972 55.6221 44.1777C55.6221 44.1777 53.7251 35.0329 50.805 24.8202C49.6856 20.9052 46.0641 18.2793 41.9921 18.2793H17.7482Z" fill="url(#paint13_radial_670_2195)"/>
<path d="M38.4028 31.3457C39.6447 31.3457 40.6514 30.339 40.6514 29.0972C40.6514 27.8553 39.6447 26.8486 38.4028 26.8486C37.161 26.8486 36.1543 27.8553 36.1543 29.0972C36.1543 30.339 37.161 31.3457 38.4028 31.3457Z" fill="url(#paint14_radial_670_2195)"/>
<path d="M40.4316 24.9077C40.4316 26.1496 41.4383 27.1563 42.6802 27.1563C43.922 27.1563 44.9287 26.1496 44.9287 24.9077C44.9287 23.6659 43.922 22.6592 42.6802 22.6592C41.4383 22.6592 40.4316 23.6659 40.4316 24.9077Z" fill="url(#paint15_radial_670_2195)"/>
<path d="M46.7817 31.3457C48.0236 31.3457 49.0303 30.339 49.0303 29.0972C49.0303 27.8553 48.0236 26.8486 46.7817 26.8486C45.5399 26.8486 44.5332 27.8553 44.5332 29.0972C44.5332 30.339 45.5399 31.3457 46.7817 31.3457Z" fill="url(#paint16_radial_670_2195)"/>
<path d="M40.4316 33.2866C40.4316 34.5285 41.4383 35.5352 42.6802 35.5352C43.922 35.5352 44.9287 34.5285 44.9287 33.2866C44.9287 32.0448 43.922 31.0381 42.6802 31.0381C41.4383 31.0381 40.4316 32.0448 40.4316 33.2866Z" fill="url(#paint17_radial_670_2195)"/>
<path d="M18.2391 32.7224C20.2778 32.7224 21.9304 31.0698 21.9304 29.0311C21.9304 26.9925 20.2778 25.3398 18.2391 25.3398C16.2005 25.3398 14.5479 26.9925 14.5479 29.0311C14.5479 31.0698 16.2005 32.7224 18.2391 32.7224Z" fill="url(#paint18_radial_670_2195)"/>
<path d="M18.2391 32.7224C20.2778 32.7224 21.9304 31.0698 21.9304 29.0311C21.9304 26.9925 20.2778 25.3398 18.2391 25.3398C16.2005 25.3398 14.5479 26.9925 14.5479 29.0311C14.5479 31.0698 16.2005 32.7224 18.2391 32.7224Z" fill="url(#paint19_radial_670_2195)"/>
<path d="M36.2567 42.1853C38.2954 42.1853 39.948 40.5327 39.948 38.494C39.948 36.4554 38.2954 34.8027 36.2567 34.8027C34.2181 34.8027 32.5654 36.4554 32.5654 38.494C32.5654 40.5327 34.2181 42.1853 36.2567 42.1853Z" fill="url(#paint20_radial_670_2195)"/>
<path d="M36.2567 42.1853C38.2954 42.1853 39.948 40.5327 39.948 38.494C39.948 36.4554 38.2954 34.8027 36.2567 34.8027C34.2181 34.8027 32.5654 36.4554 32.5654 38.494C32.5654 40.5327 34.2181 42.1853 36.2567 42.1853Z" fill="url(#paint21_radial_670_2195)"/>
<g filter="url(#filter0_ii_670_2195)">
<path d="M24.7577 34.3047C24.1673 34.3047 23.6884 34.7834 23.6884 35.374V36.7069C23.6884 37.2248 23.2688 37.6444 22.7509 37.6444H21.4179C20.8273 37.6444 20.3486 38.1233 20.3486 38.7139C20.3486 39.3044 20.8273 39.7832 21.4179 39.7832H22.7509C23.2688 39.7832 23.6884 40.2029 23.6884 40.7207V42.0537C23.6884 42.6443 24.1673 43.123 24.7577 43.123C25.3483 43.123 25.827 42.6443 25.827 42.0537V40.7207C25.827 40.2029 26.2468 39.7832 26.7645 39.7832H28.0976C28.6881 39.7832 29.1669 39.3044 29.1669 38.7139C29.1669 38.1233 28.6881 37.6444 28.0976 37.6444H26.7645C26.2468 37.6444 25.827 37.2248 25.827 36.7069V35.374C25.827 34.7834 25.3483 34.3047 24.7577 34.3047Z" fill="url(#paint22_radial_670_2195)"/>
</g>
<defs>
<filter id="filter0_ii_670_2195" x="20.2549" y="34.2109" width="9.00586" height="9.00586" filterUnits="userSpaceOnUse" color-interpolation-filters="sRGB">
<feFlood flood-opacity="0" result="BackgroundImageFix"/>
<feBlend mode="normal" in="SourceGraphic" in2="BackgroundImageFix" result="shape"/>
<feColorMatrix in="SourceAlpha" type="matrix" values="0 0 0 0 0 0 0 0 0 0 0 0 0 0 0 0 0 0 127 0" result="hardAlpha"/>
<feOffset dx="-0.09375" dy="0.09375"/>
<feGaussianBlur stdDeviation="0.09375"/>
<feComposite in2="hardAlpha" operator="arithmetic" k2="-1" k3="1"/>
<feColorMatrix type="matrix" values="0 0 0 0 0.564706 0 0 0 0 0.568627 0 0 0 0 0.945098 0 0 0 1 0"/>
<feBlend mode="normal" in2="shape" result="effect1_innerShadow_670_2195"/>
<feColorMatrix in="SourceAlpha" type="matrix" values="0 0 0 0 0 0 0 0 0 0 0 0 0 0 0 0 0 0 127 0" result="hardAlpha"/>
<feOffset dx="0.09375" dy="-0.09375"/>
<feGaussianBlur stdDeviation="0.09375"/>
<feComposite in2="hardAlpha" operator="arithmetic" k2="-1" k3="1"/>
<feColorMatrix type="matrix" values="0 0 0 0 0.396078 0 0 0 0 0.360784 0 0 0 0 0.796078 0 0 0 1 0"/>
<feBlend mode="normal" in2="effect1_innerShadow_670_2195" result="effect2_innerShadow_670_2195"/>
</filter>
<linearGradient id="paint0_linear_670_2195" x1="12.5557" y1="21.6192" x2="22.6924" y2="17.1075" gradientUnits="userSpaceOnUse">
<stop stop-color="#3C1B3C"/>
<stop offset="0.355113" stop-color="#501752"/>
</linearGradient>
<linearGradient id="paint1_linear_670_2195" x1="24.9482" y1="16.961" x2="22.3116" y2="17.7813" gradientUnits="userSpaceOnUse">
<stop offset="0.826753" stop-color="#613060"/>
<stop offset="1" stop-color="#613060" stop-opacity="0"/>
</linearGradient>
<linearGradient id="paint2_linear_670_2195" x1="38.1612" y1="16.8731" x2="46.7744" y2="20.0958" gradientUnits="userSpaceOnUse">
<stop stop-color="#521852"/>
<stop offset="1" stop-color="#603260"/>
</linearGradient>
<linearGradient id="paint3_linear_670_2195" x1="35.5536" y1="17.8399" x2="37.5899" y2="18.3087" gradientUnits="userSpaceOnUse">
<stop offset="0.830147" stop-color="#3D193D"/>
<stop offset="1" stop-color="#3D193D" stop-opacity="0"/>
</linearGradient>
<linearGradient id="paint4_linear_670_2195" x1="29.8703" y1="18.2793" x2="29.8703" y2="47.5761" gradientUnits="userSpaceOnUse">
<stop stop-color="#6259A7"/>
<stop offset="1" stop-color="#562F80"/>
</linearGradient>
<radialGradient id="paint5_radial_670_2195" cx="0" cy="0" r="1" gradientUnits="userSpaceOnUse" gradientTransform="translate(29.8703 49.6152) rotate(-90) scale(5.85139 20.0526)">
<stop offset="0.357143" stop-color="#5E2696"/>
<stop offset="1" stop-color="#5E2696" stop-opacity="0"/>
</radialGradient>
<radialGradient id="paint6_radial_670_2195" cx="0" cy="0" r="1" gradientUnits="userSpaceOnUse" gradientTransform="translate(56.6471 52.078) rotate(-107.504) scale(14.5812 16.3566)">
<stop stop-color="#6A4592"/>
<stop offset="1" stop-color="#6A4592" stop-opacity="0"/>
</radialGradient>
<radialGradient id="paint7_radial_670_2195" cx="0" cy="0" r="1" gradientUnits="userSpaceOnUse" gradientTransform="translate(18.1641 29.0037) rotate(90) scale(4.62891)">
<stop offset="0.417722" stop-color="#4A3383"/>
<stop offset="1" stop-color="#4A3383" stop-opacity="0"/>
</radialGradient>
<radialGradient id="paint8_radial_670_2195" cx="0" cy="0" r="1" gradientUnits="userSpaceOnUse" gradientTransform="translate(36.2694 38.6131) rotate(90) scale(4.62891)">
<stop offset="0.670886" stop-color="#4A3383"/>
<stop offset="1" stop-color="#4A3383" stop-opacity="0"/>
</radialGradient>
<radialGradient id="paint9_radial_670_2195" cx="0" cy="0" r="1" gradientUnits="userSpaceOnUse" gradientTransform="translate(38.4083 29.0622) rotate(90) scale(2.8125)">
<stop offset="0.670886" stop-color="#4A3383"/>
<stop offset="1" stop-color="#4A3383" stop-opacity="0"/>
</radialGradient>
<radialGradient id="paint10_radial_670_2195" cx="0" cy="0" r="1" gradientUnits="userSpaceOnUse" gradientTransform="translate(42.6709 33.3102) rotate(90) scale(2.79786)">
<stop offset="0.670886" stop-color="#4A3383"/>
<stop offset="1" stop-color="#4A3383" stop-opacity="0"/>
</radialGradient>
<radialGradient id="paint11_radial_670_2195" cx="0" cy="0" r="1" gradientUnits="userSpaceOnUse" gradientTransform="translate(46.7871 29.0914) rotate(90) scale(2.73926)">
<stop offset="0.670886" stop-color="#4A3383"/>
<stop offset="1" stop-color="#4A3383" stop-opacity="0"/>
</radialGradient>
<radialGradient id="paint12_radial_670_2195" cx="0" cy="0" r="1" gradientUnits="userSpaceOnUse" gradientTransform="translate(42.6709 24.9168) rotate(90) scale(2.68067)">
<stop offset="0.670886" stop-color="#4A3383"/>
<stop offset="1" stop-color="#4A3383" stop-opacity="0"/>
</radialGradient>
<radialGradient id="paint13_radial_670_2195" cx="0" cy="0" r="1" gradientUnits="userSpaceOnUse" gradientTransform="translate(24.8145 38.6716) rotate(90) scale(5.09766)">
<stop offset="0.197279" stop-color="#4A3383"/>
<stop offset="1" stop-color="#4A3383" stop-opacity="0"/>
</radialGradient>
<radialGradient id="paint14_radial_670_2195" cx="0" cy="0" r="1" gradientUnits="userSpaceOnUse" gradientTransform="translate(40.6513 28.7089) rotate(180) scale(3.36915 2.94022)">
<stop stop-color="#5CC5FF"/>
<stop offset="1" stop-color="#259AF4"/>
</radialGradient>
<radialGradient id="paint15_radial_670_2195" cx="0" cy="0" r="1" gradientUnits="userSpaceOnUse" gradientTransform="translate(44.4014 24.9077) rotate(180) scale(3.96973 3.46436)">
<stop stop-color="#FFDE74"/>
<stop offset="1" stop-color="#EEB84D"/>
</radialGradient>
<radialGradient id="paint16_radial_670_2195" cx="0" cy="0" r="1" gradientUnits="userSpaceOnUse" gradientTransform="translate(49.0302 28.7089) rotate(180) scale(3.36915 2.94022)">
<stop stop-color="#FF5B74"/>
<stop offset="1" stop-color="#F21F4D"/>
</radialGradient>
<radialGradient id="paint17_radial_670_2195" cx="0" cy="0" r="1" gradientUnits="userSpaceOnUse" gradientTransform="translate(44.4012 33.2866) rotate(180) scale(3.96973 3.46436)">
<stop stop-color="#57FBA4"/>
<stop offset="1" stop-color="#21E28C"/>
</radialGradient>
<radialGradient id="paint18_radial_670_2195" cx="0" cy="0" r="1" gradientUnits="userSpaceOnUse" gradientTransform="translate(21.9305 28.1703) rotate(160.894) scale(7.35304 6.79603)">
<stop stop-color="#9395E9"/>
<stop offset="1" stop-color="#6969BD"/>
</radialGradient>
<radialGradient id="paint19_radial_670_2195" cx="0" cy="0" r="1" gradientUnits="userSpaceOnUse" gradientTransform="translate(18.2391 32.0746) rotate(90) scale(2.99514)">
<stop stop-color="#806FE7"/>
<stop offset="1" stop-color="#806FE7" stop-opacity="0"/>
</radialGradient>
<radialGradient id="paint20_radial_670_2195" cx="0" cy="0" r="1" gradientUnits="userSpaceOnUse" gradientTransform="translate(38.6299 37.3808) rotate(154.717) scale(6.22626 5.7546)">
<stop stop-color="#9395E9"/>
<stop offset="1" stop-color="#6969BD"/>
</radialGradient>
<radialGradient id="paint21_radial_670_2195" cx="0" cy="0" r="1" gradientUnits="userSpaceOnUse" gradientTransform="translate(36.2567 41.5375) rotate(90) scale(2.99514)">
<stop stop-color="#806FE7"/>
<stop offset="1" stop-color="#806FE7" stop-opacity="0"/>
</radialGradient>
<radialGradient id="paint22_radial_670_2195" cx="0" cy="0" r="1" gradientUnits="userSpaceOnUse" gradientTransform="translate(26.9111 36.9121) rotate(136.975) scale(4.80898 4.42631)">
<stop stop-color="#8886E9"/>
<stop offset="1" stop-color="#8076E3"/>
</radialGradient>
</defs>
</svg>
