<svg width="60" height="60" viewBox="0 0 60 60" fill="none" xmlns="http://www.w3.org/2000/svg">
<g filter="url(#filter0_i_671_2818)">
<path d="M7.08984 18.2079C7.08984 17.8864 7.25462 17.5873 7.52642 17.4155L29.2061 3.71122C29.5121 3.51781 29.9019 3.51781 30.2079 3.71122L51.8876 17.4155C52.1595 17.5873 52.3241 17.8864 52.3241 18.2079V42.129C52.3241 42.4543 52.1556 42.7563 51.8788 42.927L30.1991 56.2944C29.8974 56.4804 29.5166 56.4804 29.2149 56.2944L7.53531 42.927C7.25844 42.7563 7.08984 42.4543 7.08984 42.129V18.2079Z" fill="url(#paint0_linear_671_2818)"/>
<path d="M7.08984 18.2079C7.08984 17.8864 7.25462 17.5873 7.52642 17.4155L29.2061 3.71122C29.5121 3.51781 29.9019 3.51781 30.2079 3.71122L51.8876 17.4155C52.1595 17.5873 52.3241 17.8864 52.3241 18.2079V42.129C52.3241 42.4543 52.1556 42.7563 51.8788 42.927L30.1991 56.2944C29.8974 56.4804 29.5166 56.4804 29.2149 56.2944L7.53531 42.927C7.25844 42.7563 7.08984 42.4543 7.08984 42.129V18.2079Z" fill="url(#paint1_linear_671_2818)"/>
</g>
<g filter="url(#filter1_i_671_2818)">
<path d="M29.5312 56.4172C29.421 56.3962 29.3137 56.3552 29.2149 56.2943L7.53531 42.927C7.25844 42.7564 7.08984 42.4543 7.08984 42.129V18.2172L29.0886 31.8891C29.3638 32.0601 29.5312 32.3612 29.5312 32.6854V56.4172Z" fill="url(#paint2_linear_671_2818)"/>
</g>
<path d="M52.2711 17.897C52.3057 17.9955 52.3241 18.1005 52.3241 18.208V42.1292C52.3241 42.4543 52.1556 42.7564 51.8788 42.9272L30.1991 56.2945C29.9962 56.4195 29.7576 56.4604 29.5312 56.4173V32.5275C29.5312 32.2033 29.6987 31.9024 29.9739 31.7312L52.0971 17.982C52.1535 17.947 52.2118 17.9188 52.2711 17.897Z" fill="url(#paint3_linear_671_2818)"/>
<path d="M52.2711 17.897C52.3057 17.9955 52.3241 18.1005 52.3241 18.208V42.1292C52.3241 42.4543 52.1556 42.7564 51.8788 42.9272L30.1991 56.2945C29.9962 56.4195 29.7576 56.4604 29.5312 56.4173V32.5275C29.5312 32.2033 29.6987 31.9024 29.9739 31.7312L52.0971 17.982C52.1535 17.947 52.2118 17.9188 52.2711 17.897Z" fill="url(#paint4_linear_671_2818)"/>
<g filter="url(#filter2_i_671_2818)">
<path d="M20.2148 42.8147C20.2148 42.3735 20.6997 42.104 21.0743 42.3371L26.9354 45.9808C27.2107 46.1518 27.3781 46.4529 27.3781 46.7769V51.0154C27.3781 51.4565 26.8932 51.726 26.5186 51.4929L20.6575 47.8492C20.3823 47.6782 20.2148 47.3771 20.2148 47.0531V42.8147Z" fill="url(#paint5_linear_671_2818)"/>
</g>
<g filter="url(#filter3_i_671_2818)">
<path d="M15.4688 24.1172V29.2637L20.9473 32.545V27.757C20.9473 27.1171 21.2706 26.5232 21.8098 26.1782C29.2907 21.3931 42.7689 12.6603 43.0957 12.3448C43.3959 12.1251 43.794 12.2325 43.9161 12.4034C43.9161 12.0518 43.7304 11.8467 43.6376 11.7881L38.5005 8.65242C38.1934 8.46492 37.8058 8.46982 37.5036 8.66504L16.4983 22.2269C15.8565 22.6412 15.4688 23.3532 15.4688 24.1172Z" fill="#966957"/>
<path d="M15.4688 24.1172V29.2637L20.9473 32.545V27.757C20.9473 27.1171 21.2706 26.5232 21.8098 26.1782C29.2907 21.3931 42.7689 12.6603 43.0957 12.3448C43.3959 12.1251 43.794 12.2325 43.9161 12.4034C43.9161 12.0518 43.7304 11.8467 43.6376 11.7881L38.5005 8.65242C38.1934 8.46492 37.8058 8.46982 37.5036 8.66504L16.4983 22.2269C15.8565 22.6412 15.4688 23.3532 15.4688 24.1172Z" fill="url(#paint6_linear_671_2818)"/>
<path d="M15.4688 24.1172V29.2637L20.9473 32.545V27.757C20.9473 27.1171 21.2706 26.5232 21.8098 26.1782C29.2907 21.3931 42.7689 12.6603 43.0957 12.3448C43.3959 12.1251 43.794 12.2325 43.9161 12.4034C43.9161 12.0518 43.7304 11.8467 43.6376 11.7881L38.5005 8.65242C38.1934 8.46492 37.8058 8.46982 37.5036 8.66504L16.4983 22.2269C15.8565 22.6412 15.4688 23.3532 15.4688 24.1172Z" fill="url(#paint7_linear_671_2818)"/>
</g>
<g filter="url(#filter4_f_671_2818)">
<path d="M43.5358 11.9933C43.3891 11.8878 43.1621 11.9494 43.067 11.9933L21.4166 26.1145C21.3628 26.1486 21.2246 26.2652 21.1016 26.4587" stroke="#A47E73" stroke-width="0.09375"/>
</g>
<g filter="url(#filter5_f_671_2818)">
<path d="M30 31.6367L51.7969 18.043" stroke="#F4CAA3" stroke-width="0.375" stroke-linecap="round"/>
</g>
<defs>
<filter id="filter0_i_671_2818" x="7.08984" y="3.56616" width="45.2344" height="53.0552" filterUnits="userSpaceOnUse" color-interpolation-filters="sRGB">
<feFlood flood-opacity="0" result="BackgroundImageFix"/>
<feBlend mode="normal" in="SourceGraphic" in2="BackgroundImageFix" result="shape"/>
<feColorMatrix in="SourceAlpha" type="matrix" values="0 0 0 0 0 0 0 0 0 0 0 0 0 0 0 0 0 0 127 0" result="hardAlpha"/>
<feOffset dy="0.1875"/>
<feGaussianBlur stdDeviation="0.28125"/>
<feComposite in2="hardAlpha" operator="arithmetic" k2="-1" k3="1"/>
<feColorMatrix type="matrix" values="0 0 0 0 0.843137 0 0 0 0 0.694118 0 0 0 0 0.52549 0 0 0 1 0"/>
<feBlend mode="normal" in2="shape" result="effect1_innerShadow_671_2818"/>
</filter>
<filter id="filter1_i_671_2818" x="7.08984" y="18.2172" width="24.3164" height="40.0751" filterUnits="userSpaceOnUse" color-interpolation-filters="sRGB">
<feFlood flood-opacity="0" result="BackgroundImageFix"/>
<feBlend mode="normal" in="SourceGraphic" in2="BackgroundImageFix" result="shape"/>
<feColorMatrix in="SourceAlpha" type="matrix" values="0 0 0 0 0 0 0 0 0 0 0 0 0 0 0 0 0 0 127 0" result="hardAlpha"/>
<feOffset dx="1.875" dy="1.875"/>
<feGaussianBlur stdDeviation="2.8125"/>
<feComposite in2="hardAlpha" operator="arithmetic" k2="-1" k3="1"/>
<feColorMatrix type="matrix" values="0 0 0 0 0.831373 0 0 0 0 0.670588 0 0 0 0 0.545098 0 0 0 1 0"/>
<feBlend mode="normal" in2="shape" result="effect1_innerShadow_671_2818"/>
</filter>
<filter id="filter2_i_671_2818" x="20.0273" y="42.2513" width="7.35059" height="9.32727" filterUnits="userSpaceOnUse" color-interpolation-filters="sRGB">
<feFlood flood-opacity="0" result="BackgroundImageFix"/>
<feBlend mode="normal" in="SourceGraphic" in2="BackgroundImageFix" result="shape"/>
<feColorMatrix in="SourceAlpha" type="matrix" values="0 0 0 0 0 0 0 0 0 0 0 0 0 0 0 0 0 0 127 0" result="hardAlpha"/>
<feOffset dx="-0.28125"/>
<feGaussianBlur stdDeviation="0.09375"/>
<feComposite in2="hardAlpha" operator="arithmetic" k2="-1" k3="1"/>
<feColorMatrix type="matrix" values="0 0 0 0 0.760103 0 0 0 0 0.683293 0 0 0 0 0.795016 0 0 0 1 0"/>
<feBlend mode="normal" in2="shape" result="effect1_innerShadow_671_2818"/>
</filter>
<filter id="filter3_i_671_2818" x="15.2812" y="8.51514" width="28.6348" height="24.0299" filterUnits="userSpaceOnUse" color-interpolation-filters="sRGB">
<feFlood flood-opacity="0" result="BackgroundImageFix"/>
<feBlend mode="normal" in="SourceGraphic" in2="BackgroundImageFix" result="shape"/>
<feColorMatrix in="SourceAlpha" type="matrix" values="0 0 0 0 0 0 0 0 0 0 0 0 0 0 0 0 0 0 127 0" result="hardAlpha"/>
<feOffset dx="-0.1875"/>
<feGaussianBlur stdDeviation="0.09375"/>
<feComposite in2="hardAlpha" operator="arithmetic" k2="-1" k3="1"/>
<feColorMatrix type="matrix" values="0 0 0 0 0.47451 0 0 0 0 0.266667 0 0 0 0 0.301961 0 0 0 1 0"/>
<feBlend mode="normal" in2="shape" result="effect1_innerShadow_671_2818"/>
</filter>
<filter id="filter4_f_671_2818" x="20.874" y="11.7007" width="22.877" height="14.9707" filterUnits="userSpaceOnUse" color-interpolation-filters="sRGB">
<feFlood flood-opacity="0" result="BackgroundImageFix"/>
<feBlend mode="normal" in="SourceGraphic" in2="BackgroundImageFix" result="shape"/>
<feGaussianBlur stdDeviation="0.09375" result="effect1_foregroundBlur_671_2818"/>
</filter>
<filter id="filter5_f_671_2818" x="29.3438" y="17.3867" width="23.1094" height="14.9062" filterUnits="userSpaceOnUse" color-interpolation-filters="sRGB">
<feFlood flood-opacity="0" result="BackgroundImageFix"/>
<feBlend mode="normal" in="SourceGraphic" in2="BackgroundImageFix" result="shape"/>
<feGaussianBlur stdDeviation="0.234375" result="effect1_foregroundBlur_671_2818"/>
</filter>
<linearGradient id="paint0_linear_671_2818" x1="29.7071" y1="3.56617" x2="29.7071" y2="56.4339" gradientUnits="userSpaceOnUse">
<stop stop-color="#DEB586"/>
<stop offset="1" stop-color="#D7AA82"/>
</linearGradient>
<linearGradient id="paint1_linear_671_2818" x1="19.9219" y1="26.3926" x2="20.7714" y2="25.0449" gradientUnits="userSpaceOnUse">
<stop offset="0.0656074" stop-color="#C99D78"/>
<stop offset="1" stop-color="#DCB185" stop-opacity="0"/>
</linearGradient>
<linearGradient id="paint2_linear_671_2818" x1="10.0803" y1="28.4415" x2="25.9991" y2="55.0716" gradientUnits="userSpaceOnUse">
<stop stop-color="#B98875"/>
<stop offset="1" stop-color="#AA684F"/>
</linearGradient>
<linearGradient id="paint3_linear_671_2818" x1="31.1132" y1="31.4025" x2="46.1132" y2="46.9885" gradientUnits="userSpaceOnUse">
<stop stop-color="#D7A585"/>
<stop offset="1" stop-color="#BD7943"/>
</linearGradient>
<linearGradient id="paint4_linear_671_2818" x1="28.9209" y1="47.2746" x2="31.0933" y2="47.1538" gradientUnits="userSpaceOnUse">
<stop stop-color="#B46C4B"/>
<stop offset="1" stop-color="#BD7E61" stop-opacity="0"/>
</linearGradient>
<linearGradient id="paint5_linear_671_2818" x1="21.265" y1="42.644" x2="26.1768" y2="52.1126" gradientUnits="userSpaceOnUse">
<stop stop-color="#CAB6CD"/>
<stop offset="1" stop-color="#D1BED7"/>
</linearGradient>
<linearGradient id="paint6_linear_671_2818" x1="16.5234" y1="29.7325" x2="20.2734" y2="24.166" gradientUnits="userSpaceOnUse">
<stop offset="0.649314" stop-color="#8D6D6C"/>
<stop offset="0.725768" stop-color="#83554C"/>
<stop offset="0.825328" stop-color="#83554C"/>
<stop offset="1" stop-color="#976A58" stop-opacity="0"/>
</linearGradient>
<linearGradient id="paint7_linear_671_2818" x1="42.4804" y1="10.836" x2="40.6056" y2="12.9454" gradientUnits="userSpaceOnUse">
<stop stop-color="#9C6F5D"/>
<stop offset="1" stop-color="#9C6F5D" stop-opacity="0"/>
</linearGradient>
</defs>
</svg>
