<svg width="60" height="60" viewBox="0 0 60 60" fill="none" xmlns="http://www.w3.org/2000/svg">
<g filter="url(#filter0_i_671_2756)">
<path d="M6.70898 20.6836C5.41456 20.6836 4.36523 21.733 4.36523 23.0273V53.7599C4.36523 55.0542 5.41456 56.1037 6.70898 56.1037H27.3422C27.9392 57.1741 29.0828 57.898 30.3954 57.898C31.7081 57.898 32.8519 57.1741 33.4489 56.1037H54.0821C55.3764 56.1037 56.4259 55.0542 56.4259 53.7599V23.0273C56.4259 21.733 55.3764 20.6836 54.0821 20.6836H6.70898Z" fill="#3E6ACA"/>
</g>
<g filter="url(#filter1_ii_671_2756)">
<path d="M6.70898 18.8672C5.41456 18.8672 4.36523 19.9164 4.36523 21.2109V51.9433C4.36523 53.2378 5.41456 54.2871 6.70898 54.2871H27.3422C27.9392 55.3575 29.0828 56.0816 30.3954 56.0816C31.7081 56.0816 32.8519 55.3575 33.4489 54.2871H54.0821C55.3764 54.2871 56.4259 53.2378 56.4259 51.9433V21.2109C56.4259 19.9164 55.3764 18.8672 54.0821 18.8672H6.70898Z" fill="url(#paint0_linear_671_2756)"/>
</g>
<g filter="url(#filter2_f_671_2756)">
<path d="M9.01942 17.0508L6.08391 20.6914C5.82459 21.0129 5.68359 21.4101 5.68359 21.8192V48.6208C5.68359 49.8814 6.7329 50.9032 8.02734 50.9032H51.9727C53.2671 50.9032 54.3165 49.8814 54.3165 48.6208V21.8192C54.3165 21.4101 54.1755 21.0129 53.916 20.6914L50.9805 17.0508L47.5277 44.5123H12.4723L9.01942 17.0508Z" fill="#3F9BEA"/>
</g>
<path d="M27.7002 48.1934H33.0908V51.1525C33.0908 52.641 31.8841 53.8478 30.3955 53.8478C28.9069 53.8478 27.7002 52.641 27.7002 51.1523V48.1934Z" fill="url(#paint1_radial_671_2756)"/>
<path d="M27.7002 48.1934H33.0908V51.1525C33.0908 52.641 31.8841 53.8478 30.3955 53.8478C28.9069 53.8478 27.7002 52.641 27.7002 51.1523V48.1934Z" fill="url(#paint2_linear_671_2756)"/>
<g filter="url(#filter3_i_671_2756)">
<path d="M6.42084 19.6026L9.35632 15.8643L12.8092 44.0625H30.3369V50.625H8.36426C7.06983 50.625 6.02051 49.5757 6.02051 48.2812V20.7606C6.02051 20.3406 6.16147 19.9327 6.42084 19.6026Z" fill="url(#paint3_linear_671_2756)"/>
</g>
<g filter="url(#filter4_i_671_2756)">
<path d="M54.2529 19.6026L51.3174 15.8643L47.8646 44.0625H30.3369V50.625H52.3095C53.604 50.625 54.6532 49.5757 54.6532 48.2812V20.7606C54.6532 20.3406 54.5124 19.9327 54.2529 19.6026Z" fill="url(#paint4_linear_671_2756)"/>
<path d="M54.2529 19.6026L51.3174 15.8643L47.8646 44.0625H30.3369V50.625H52.3095C53.604 50.625 54.6532 49.5757 54.6532 48.2812V20.7606C54.6532 20.3406 54.5124 19.9327 54.2529 19.6026Z" fill="url(#paint5_linear_671_2756)"/>
</g>
<path d="M54.2529 19.6026L51.3174 15.8643L47.8646 44.0625H30.3369V50.625H52.3095C53.604 50.625 54.6532 49.5757 54.6532 48.2812V20.7606C54.6532 20.3406 54.5124 19.9327 54.2529 19.6026Z" fill="url(#paint6_linear_671_2756)"/>
<g filter="url(#filter5_ii_671_2756)">
<path d="M9.00879 16.9336C9.00879 15.8981 9.84825 15.0586 10.8838 15.0586H25.6494C28.2382 15.0586 30.3369 17.1573 30.3369 19.746V50.6104C30.3369 48.5473 28.2129 46.875 25.752 46.875H11.3525C10.0581 46.875 9.00879 45.8258 9.00879 44.5313V16.9336Z" fill="url(#paint7_linear_671_2756)"/>
<path d="M9.00879 16.9336C9.00879 15.8981 9.84825 15.0586 10.8838 15.0586H25.6494C28.2382 15.0586 30.3369 17.1573 30.3369 19.746V50.6104C30.3369 48.5473 28.2129 46.875 25.752 46.875H11.3525C10.0581 46.875 9.00879 45.8258 9.00879 44.5313V16.9336Z" fill="url(#paint8_linear_671_2756)"/>
<path d="M9.00879 16.9336C9.00879 15.8981 9.84825 15.0586 10.8838 15.0586H25.6494C28.2382 15.0586 30.3369 17.1573 30.3369 19.746V50.6104C30.3369 48.5473 28.2129 46.875 25.752 46.875H11.3525C10.0581 46.875 9.00879 45.8258 9.00879 44.5313V16.9336Z" fill="url(#paint9_linear_671_2756)"/>
</g>
<g filter="url(#filter6_ii_671_2756)">
<path d="M51.665 16.9336C51.665 15.8981 50.8256 15.0586 49.79 15.0586H35.0244C32.4356 15.0586 30.3369 17.1573 30.3369 19.746V50.6104C30.3369 48.5473 32.4609 46.875 34.9219 46.875H49.3213C50.6156 46.875 51.665 45.8258 51.665 44.5313V16.9336Z" fill="url(#paint10_linear_671_2756)"/>
<path d="M51.665 16.9336C51.665 15.8981 50.8256 15.0586 49.79 15.0586H35.0244C32.4356 15.0586 30.3369 17.1573 30.3369 19.746V50.6104C30.3369 48.5473 32.4609 46.875 34.9219 46.875H49.3213C50.6156 46.875 51.665 45.8258 51.665 44.5313V16.9336Z" fill="url(#paint11_linear_671_2756)"/>
<path d="M51.665 16.9336C51.665 15.8981 50.8256 15.0586 49.79 15.0586H35.0244C32.4356 15.0586 30.3369 17.1573 30.3369 19.746V50.6104C30.3369 48.5473 32.4609 46.875 34.9219 46.875H49.3213C50.6156 46.875 51.665 45.8258 51.665 44.5313V16.9336Z" fill="url(#paint12_linear_671_2756)"/>
</g>
<defs>
<filter id="filter0_i_671_2756" x="4.36523" y="20.4023" width="52.3418" height="37.4956" filterUnits="userSpaceOnUse" color-interpolation-filters="sRGB">
<feFlood flood-opacity="0" result="BackgroundImageFix"/>
<feBlend mode="normal" in="SourceGraphic" in2="BackgroundImageFix" result="shape"/>
<feColorMatrix in="SourceAlpha" type="matrix" values="0 0 0 0 0 0 0 0 0 0 0 0 0 0 0 0 0 0 127 0" result="hardAlpha"/>
<feOffset dx="0.28125" dy="-0.28125"/>
<feGaussianBlur stdDeviation="0.46875"/>
<feComposite in2="hardAlpha" operator="arithmetic" k2="-1" k3="1"/>
<feColorMatrix type="matrix" values="0 0 0 0 0.305882 0 0 0 0 0.541176 0 0 0 0 0.780392 0 0 0 1 0"/>
<feBlend mode="normal" in2="shape" result="effect1_innerShadow_671_2756"/>
</filter>
<filter id="filter1_ii_671_2756" x="4.17773" y="18.6797" width="52.4355" height="37.4019" filterUnits="userSpaceOnUse" color-interpolation-filters="sRGB">
<feFlood flood-opacity="0" result="BackgroundImageFix"/>
<feBlend mode="normal" in="SourceGraphic" in2="BackgroundImageFix" result="shape"/>
<feColorMatrix in="SourceAlpha" type="matrix" values="0 0 0 0 0 0 0 0 0 0 0 0 0 0 0 0 0 0 127 0" result="hardAlpha"/>
<feOffset dx="-0.1875"/>
<feGaussianBlur stdDeviation="0.28125"/>
<feComposite in2="hardAlpha" operator="arithmetic" k2="-1" k3="1"/>
<feColorMatrix type="matrix" values="0 0 0 0 0.45098 0 0 0 0 0.941176 0 0 0 0 1 0 0 0 1 0"/>
<feBlend mode="normal" in2="shape" result="effect1_innerShadow_671_2756"/>
<feColorMatrix in="SourceAlpha" type="matrix" values="0 0 0 0 0 0 0 0 0 0 0 0 0 0 0 0 0 0 127 0" result="hardAlpha"/>
<feOffset dx="0.1875" dy="-0.1875"/>
<feGaussianBlur stdDeviation="0.28125"/>
<feComposite in2="hardAlpha" operator="arithmetic" k2="-1" k3="1"/>
<feColorMatrix type="matrix" values="0 0 0 0 0.286275 0 0 0 0 0.666667 0 0 0 0 0.901961 0 0 0 1 0"/>
<feBlend mode="normal" in2="effect1_innerShadow_671_2756" result="effect2_innerShadow_671_2756"/>
</filter>
<filter id="filter2_f_671_2756" x="4.74609" y="16.1133" width="50.5078" height="35.7275" filterUnits="userSpaceOnUse" color-interpolation-filters="sRGB">
<feFlood flood-opacity="0" result="BackgroundImageFix"/>
<feBlend mode="normal" in="SourceGraphic" in2="BackgroundImageFix" result="shape"/>
<feGaussianBlur stdDeviation="0.46875" result="effect1_foregroundBlur_671_2756"/>
</filter>
<filter id="filter3_i_671_2756" x="6.02051" y="15.8643" width="24.5039" height="34.9482" filterUnits="userSpaceOnUse" color-interpolation-filters="sRGB">
<feFlood flood-opacity="0" result="BackgroundImageFix"/>
<feBlend mode="normal" in="SourceGraphic" in2="BackgroundImageFix" result="shape"/>
<feColorMatrix in="SourceAlpha" type="matrix" values="0 0 0 0 0 0 0 0 0 0 0 0 0 0 0 0 0 0 127 0" result="hardAlpha"/>
<feOffset dx="0.1875" dy="0.1875"/>
<feGaussianBlur stdDeviation="0.28125"/>
<feComposite in2="hardAlpha" operator="arithmetic" k2="-1" k3="1"/>
<feColorMatrix type="matrix" values="0 0 0 0 0.694118 0 0 0 0 0.705882 0 0 0 0 0.733333 0 0 0 1 0"/>
<feBlend mode="normal" in2="shape" result="effect1_innerShadow_671_2756"/>
</filter>
<filter id="filter4_i_671_2756" x="30.3369" y="15.8643" width="24.5039" height="34.9482" filterUnits="userSpaceOnUse" color-interpolation-filters="sRGB">
<feFlood flood-opacity="0" result="BackgroundImageFix"/>
<feBlend mode="normal" in="SourceGraphic" in2="BackgroundImageFix" result="shape"/>
<feColorMatrix in="SourceAlpha" type="matrix" values="0 0 0 0 0 0 0 0 0 0 0 0 0 0 0 0 0 0 127 0" result="hardAlpha"/>
<feOffset dx="0.1875" dy="0.1875"/>
<feGaussianBlur stdDeviation="0.28125"/>
<feComposite in2="hardAlpha" operator="arithmetic" k2="-1" k3="1"/>
<feColorMatrix type="matrix" values="0 0 0 0 0.831373 0 0 0 0 0.835294 0 0 0 0 0.854902 0 0 0 1 0"/>
<feBlend mode="normal" in2="shape" result="effect1_innerShadow_671_2756"/>
</filter>
<filter id="filter5_ii_671_2756" x="9.00879" y="15.0586" width="21.5156" height="35.6455" filterUnits="userSpaceOnUse" color-interpolation-filters="sRGB">
<feFlood flood-opacity="0" result="BackgroundImageFix"/>
<feBlend mode="normal" in="SourceGraphic" in2="BackgroundImageFix" result="shape"/>
<feColorMatrix in="SourceAlpha" type="matrix" values="0 0 0 0 0 0 0 0 0 0 0 0 0 0 0 0 0 0 127 0" result="hardAlpha"/>
<feOffset dy="0.09375"/>
<feGaussianBlur stdDeviation="0.28125"/>
<feComposite in2="hardAlpha" operator="arithmetic" k2="-1" k3="1"/>
<feColorMatrix type="matrix" values="0 0 0 0 0.827451 0 0 0 0 0.819608 0 0 0 0 0.854902 0 0 0 1 0"/>
<feBlend mode="normal" in2="shape" result="effect1_innerShadow_671_2756"/>
<feColorMatrix in="SourceAlpha" type="matrix" values="0 0 0 0 0 0 0 0 0 0 0 0 0 0 0 0 0 0 127 0" result="hardAlpha"/>
<feOffset dx="0.1875"/>
<feGaussianBlur stdDeviation="0.28125"/>
<feComposite in2="hardAlpha" operator="arithmetic" k2="-1" k3="1"/>
<feColorMatrix type="matrix" values="0 0 0 0 0.980392 0 0 0 0 0.976471 0 0 0 0 1 0 0 0 1 0"/>
<feBlend mode="normal" in2="effect1_innerShadow_671_2756" result="effect2_innerShadow_671_2756"/>
</filter>
<filter id="filter6_ii_671_2756" x="30.1494" y="15.0586" width="21.5156" height="35.6455" filterUnits="userSpaceOnUse" color-interpolation-filters="sRGB">
<feFlood flood-opacity="0" result="BackgroundImageFix"/>
<feBlend mode="normal" in="SourceGraphic" in2="BackgroundImageFix" result="shape"/>
<feColorMatrix in="SourceAlpha" type="matrix" values="0 0 0 0 0 0 0 0 0 0 0 0 0 0 0 0 0 0 127 0" result="hardAlpha"/>
<feOffset dx="-0.1875"/>
<feGaussianBlur stdDeviation="0.28125"/>
<feComposite in2="hardAlpha" operator="arithmetic" k2="-1" k3="1"/>
<feColorMatrix type="matrix" values="0 0 0 0 0.980392 0 0 0 0 0.976471 0 0 0 0 1 0 0 0 1 0"/>
<feBlend mode="normal" in2="shape" result="effect1_innerShadow_671_2756"/>
<feColorMatrix in="SourceAlpha" type="matrix" values="0 0 0 0 0 0 0 0 0 0 0 0 0 0 0 0 0 0 127 0" result="hardAlpha"/>
<feOffset dy="0.09375"/>
<feGaussianBlur stdDeviation="0.28125"/>
<feComposite in2="hardAlpha" operator="arithmetic" k2="-1" k3="1"/>
<feColorMatrix type="matrix" values="0 0 0 0 0.827451 0 0 0 0 0.819608 0 0 0 0 0.854902 0 0 0 1 0"/>
<feBlend mode="normal" in2="effect1_innerShadow_671_2756" result="effect2_innerShadow_671_2756"/>
</filter>
<linearGradient id="paint0_linear_671_2756" x1="30.3954" y1="27.0703" x2="30.3954" y2="56.0816" gradientUnits="userSpaceOnUse">
<stop stop-color="#5DD8FB"/>
<stop offset="1" stop-color="#41AEF2"/>
</linearGradient>
<radialGradient id="paint1_radial_671_2756" cx="0" cy="0" r="1" gradientUnits="userSpaceOnUse" gradientTransform="translate(28.8282 53.4962) rotate(-26.565) scale(4.19263 5.88277)">
<stop offset="0.231937" stop-color="#306AB3"/>
<stop offset="1" stop-color="#1A4CA8"/>
</radialGradient>
<linearGradient id="paint2_linear_671_2756" x1="30.3955" y1="50.215" x2="30.3955" y2="51.6212" gradientUnits="userSpaceOnUse">
<stop stop-color="#1748A6"/>
<stop offset="1" stop-color="#1748A6" stop-opacity="0"/>
</linearGradient>
<linearGradient id="paint3_linear_671_2756" x1="23.4667" y1="53.7306" x2="9.87305" y2="41.1328" gradientUnits="userSpaceOnUse">
<stop offset="0.749863" stop-color="#B3A9CF"/>
<stop offset="0.931655" stop-color="#B6BAC5"/>
</linearGradient>
<linearGradient id="paint4_linear_671_2756" x1="37.2069" y1="53.7306" x2="50.8007" y2="41.1328" gradientUnits="userSpaceOnUse">
<stop offset="0.71707" stop-color="#BBB3D9"/>
<stop offset="0.912508" stop-color="#DCDDE8"/>
</linearGradient>
<linearGradient id="paint5_linear_671_2756" x1="52.4557" y1="16.6621" x2="52.4557" y2="24.9889" gradientUnits="userSpaceOnUse">
<stop stop-color="#D8DAE2"/>
<stop offset="1" stop-color="#D8DAE2" stop-opacity="0"/>
</linearGradient>
<linearGradient id="paint6_linear_671_2756" x1="30.3369" y1="50.625" x2="33.3692" y2="47.0509" gradientUnits="userSpaceOnUse">
<stop stop-color="#A699C9"/>
<stop offset="1" stop-color="#A699C9" stop-opacity="0"/>
</linearGradient>
<linearGradient id="paint7_linear_671_2756" x1="9.00879" y1="32.8344" x2="28.7402" y2="32.8344" gradientUnits="userSpaceOnUse">
<stop stop-color="#F3F1FA"/>
<stop offset="1" stop-color="#F0EBF9"/>
</linearGradient>
<linearGradient id="paint8_linear_671_2756" x1="30.3369" y1="48.1641" x2="25.2246" y2="48.1641" gradientUnits="userSpaceOnUse">
<stop stop-color="#D5CCE8"/>
<stop offset="1" stop-color="#F2EBFF" stop-opacity="0"/>
</linearGradient>
<linearGradient id="paint9_linear_671_2756" x1="30.4395" y1="48.5743" x2="30.0292" y2="48.5743" gradientUnits="userSpaceOnUse">
<stop offset="0.178572" stop-color="#BFB3D1"/>
<stop offset="1" stop-color="#BFB3D1" stop-opacity="0"/>
</linearGradient>
<linearGradient id="paint10_linear_671_2756" x1="30.3369" y1="32.8344" x2="50.0683" y2="32.8344" gradientUnits="userSpaceOnUse">
<stop stop-color="#F3F1FA"/>
<stop offset="1" stop-color="#F0EBF9"/>
</linearGradient>
<linearGradient id="paint11_linear_671_2756" x1="30.3369" y1="48.1641" x2="35.5957" y2="48.1641" gradientUnits="userSpaceOnUse">
<stop stop-color="#D5CCE8"/>
<stop offset="1" stop-color="#F2EBFF" stop-opacity="0"/>
</linearGradient>
<linearGradient id="paint12_linear_671_2756" x1="30.2855" y1="48.5741" x2="30.6739" y2="48.5741" gradientUnits="userSpaceOnUse">
<stop stop-color="#BFB3D1"/>
<stop offset="1" stop-color="#BFB3D1" stop-opacity="0"/>
</linearGradient>
</defs>
</svg>
