<svg width="60" height="60" viewBox="0 0 60 60" fill="none" xmlns="http://www.w3.org/2000/svg">
<g filter="url(#filter0_i_667_1468)">
<path d="M55.1137 46.6511H4.95742C4.31992 46.6511 3.79492 46.1261 3.79492 45.4886V8.45742C3.79492 7.81992 4.31992 7.29492 4.95742 7.29492H55.0949C55.7512 7.29492 56.2574 7.81992 56.2574 8.45742V45.4699C56.2762 46.1261 55.7512 46.6511 55.1137 46.6511Z" fill="url(#paint0_linear_667_1468)"/>
</g>
<path d="M5.66992 44.7761V9.16992H54.4012V44.7761H5.66992Z" fill="url(#paint1_linear_667_1468)"/>
<path d="M5.66992 44.7761V9.16992H54.4012V44.7761H5.66992Z" fill="url(#paint2_radial_667_1468)"/>
<path d="M5.66992 44.7761V9.16992H54.4012V44.7761H5.66992Z" fill="url(#paint3_radial_667_1468)"/>
<g filter="url(#filter1_f_667_1468)">
<path d="M6.07227 8.03223H55.2206C55.3243 8.03223 55.4081 8.11617 55.4081 8.21973V44.9412" stroke="url(#paint4_linear_667_1468)" stroke-width="0.5625" stroke-linecap="round"/>
</g>
<g filter="url(#filter2_i_667_1468)">
<path d="M54.4012 44.7763H5.66992V9.17002L3.94492 7.89502C3.85117 8.06377 3.79492 8.27002 3.79492 8.45752V45.47C3.79492 46.1263 4.31992 46.6325 4.95742 46.6325H55.0949C55.5449 46.6325 55.9199 46.3888 56.1262 46.0138L54.4012 44.7763Z" fill="url(#paint5_linear_667_1468)"/>
<path d="M54.4012 44.7763H5.66992V9.17002L3.94492 7.89502C3.85117 8.06377 3.79492 8.27002 3.79492 8.45752V45.47C3.79492 46.1263 4.31992 46.6325 4.95742 46.6325H55.0949C55.5449 46.6325 55.9199 46.3888 56.1262 46.0138L54.4012 44.7763Z" fill="url(#paint6_linear_667_1468)"/>
<path d="M54.4012 44.7763H5.66992V9.17002L3.94492 7.89502C3.85117 8.06377 3.79492 8.27002 3.79492 8.45752V45.47C3.79492 46.1263 4.31992 46.6325 4.95742 46.6325H55.0949C55.5449 46.6325 55.9199 46.3888 56.1262 46.0138L54.4012 44.7763Z" fill="url(#paint7_radial_667_1468)"/>
</g>
<path d="M30.0449 28.8574C18.6637 28.8574 9.41992 38.0824 9.41992 49.4824V56.0449C14.0622 56.0449 46.912 56.0449 50.6512 56.0449V49.4824C50.6512 38.0824 41.4262 28.8574 30.0449 28.8574Z" fill="url(#paint8_radial_667_1468)"/>
<path d="M30.0449 28.8574C18.6637 28.8574 9.41992 38.0824 9.41992 49.4824V56.0449C14.0622 56.0449 46.912 56.0449 50.6512 56.0449V49.4824C50.6512 38.0824 41.4262 28.8574 30.0449 28.8574Z" fill="url(#paint9_radial_667_1468)"/>
<path d="M30.0449 28.8574C18.6637 28.8574 9.41992 38.0824 9.41992 49.4824V56.0449C14.0622 56.0449 46.912 56.0449 50.6512 56.0449V49.4824C50.6512 38.0824 41.4262 28.8574 30.0449 28.8574Z" fill="url(#paint10_radial_667_1468)"/>
<path d="M42.5508 56.0452V33.0864C47.4747 36.8537 50.6508 42.7939 50.6508 49.4827V56.0452H42.5508Z" fill="url(#paint11_radial_667_1468)"/>
<path d="M42.5508 56.0452V33.0864C47.4747 36.8537 50.6508 42.7939 50.6508 49.4827V56.0452H42.5508Z" fill="url(#paint12_linear_667_1468)"/>
<path d="M42.5508 56.0452V33.0864C47.4747 36.8537 50.6508 42.7939 50.6508 49.4827V56.0452H42.5508Z" fill="url(#paint13_linear_667_1468)"/>
<path d="M17.4633 56.0452V33.0864C12.5392 36.8537 9.36328 42.7939 9.36328 49.4827V56.0452H17.4633Z" fill="url(#paint14_linear_667_1468)"/>
<path d="M17.4633 56.0452V33.0864C12.5392 36.8537 9.36328 42.7939 9.36328 49.4827V56.0452H17.4633Z" fill="url(#paint15_radial_667_1468)"/>
<path d="M33.8889 31.3325H26.1826V56.045H33.8889V31.3325Z" fill="url(#paint16_radial_667_1468)"/>
<g filter="url(#filter3_i_667_1468)">
<path d="M36.3074 29.9077L38.8574 35.3985C39.0262 35.7547 38.7637 36.1672 38.3699 36.1672L36.5632 35.6696C35.7721 35.4718 35.7449 36.1884 36.0449 36.4884L38.5949 39.414C39.0824 39.9015 39.2699 40.6327 39.0262 41.289L33.8887 56.0452V29.9077H36.3074Z" fill="url(#paint17_linear_667_1468)"/>
<path d="M36.3074 29.9077L38.8574 35.3985C39.0262 35.7547 38.7637 36.1672 38.3699 36.1672L36.5632 35.6696C35.7721 35.4718 35.7449 36.1884 36.0449 36.4884L38.5949 39.414C39.0824 39.9015 39.2699 40.6327 39.0262 41.289L33.8887 56.0452V29.9077H36.3074Z" fill="url(#paint18_radial_667_1468)"/>
<path d="M36.3074 29.9077L38.8574 35.3985C39.0262 35.7547 38.7637 36.1672 38.3699 36.1672L36.5632 35.6696C35.7721 35.4718 35.7449 36.1884 36.0449 36.4884L38.5949 39.414C39.0824 39.9015 39.2699 40.6327 39.0262 41.289L33.8887 56.0452V29.9077H36.3074Z" fill="url(#paint19_radial_667_1468)"/>
<path d="M36.3074 29.9077L38.8574 35.3985C39.0262 35.7547 38.7637 36.1672 38.3699 36.1672L36.5632 35.6696C35.7721 35.4718 35.7449 36.1884 36.0449 36.4884L38.5949 39.414C39.0824 39.9015 39.2699 40.6327 39.0262 41.289L33.8887 56.0452V29.9077H36.3074Z" fill="url(#paint20_radial_667_1468)"/>
</g>
<g filter="url(#filter4_i_667_1468)">
<path d="M23.7637 29.9077L21.2137 35.3985C21.045 35.7547 21.3075 36.1672 21.7012 36.1672L23.5082 35.6696C24.2992 35.4718 24.3262 36.1884 24.0262 36.4884L21.4762 39.414C20.9887 39.9015 20.8012 40.6327 21.045 41.289L26.1825 56.0452V29.9077H23.7637Z" fill="url(#paint21_linear_667_1468)"/>
<path d="M23.7637 29.9077L21.2137 35.3985C21.045 35.7547 21.3075 36.1672 21.7012 36.1672L23.5082 35.6696C24.2992 35.4718 24.3262 36.1884 24.0262 36.4884L21.4762 39.414C20.9887 39.9015 20.8012 40.6327 21.045 41.289L26.1825 56.0452V29.9077H23.7637Z" fill="url(#paint22_radial_667_1468)"/>
<path d="M23.7637 29.9077L21.2137 35.3985C21.045 35.7547 21.3075 36.1672 21.7012 36.1672L23.5082 35.6696C24.2992 35.4718 24.3262 36.1884 24.0262 36.4884L21.4762 39.414C20.9887 39.9015 20.8012 40.6327 21.045 41.289L26.1825 56.0452V29.9077H23.7637Z" fill="url(#paint23_linear_667_1468)"/>
<path d="M23.7637 29.9077L21.2137 35.3985C21.045 35.7547 21.3075 36.1672 21.7012 36.1672L23.5082 35.6696C24.2992 35.4718 24.3262 36.1884 24.0262 36.4884L21.4762 39.414C20.9887 39.9015 20.8012 40.6327 21.045 41.289L26.1825 56.0452V29.9077H23.7637Z" fill="url(#paint24_radial_667_1468)"/>
</g>
<path d="M30.0451 34.8014C27.9076 34.8014 26.1826 33.0764 26.1826 30.9389V26.1389C26.1826 24.0014 27.9076 22.2764 30.0451 22.2764C32.1826 22.2764 33.9076 24.0014 33.9076 26.1389V30.9389C33.8889 33.0764 32.1639 34.8014 30.0451 34.8014Z" fill="url(#paint25_radial_667_1468)"/>
<path d="M41.375 43.1221C42.4062 43.1221 43.25 43.9658 43.25 44.9971V49.2908H39.5V44.9971C39.5 43.9658 40.325 43.1221 41.375 43.1221Z" fill="url(#paint26_radial_667_1468)"/>
<path d="M18.6943 43.1074C17.6631 43.1074 16.8193 43.9512 16.8193 44.9824V49.2762H20.5694V44.9824C20.5694 43.9512 19.7444 43.1074 18.6943 43.1074Z" fill="url(#paint27_radial_667_1468)"/>
<path d="M19.375 40.8201V56.0451H40.6375V38.8138C40.6375 37.9701 39.9625 37.2951 39.1188 37.2951H22.9187C20.95 37.2763 19.375 38.8701 19.375 40.8201Z" fill="url(#paint28_linear_667_1468)"/>
<path fill-rule="evenodd" clip-rule="evenodd" d="M23.3012 56.0448V40.2832H19.375V56.0448H23.3012Z" fill="#513358"/>
<path fill-rule="evenodd" clip-rule="evenodd" d="M23.3012 56.0448V40.2832H19.375V56.0448H23.3012Z" fill="url(#paint29_linear_667_1468)"/>
<g filter="url(#filter5_i_667_1468)">
<path d="M25.0561 47.3621C25.0727 47.8821 24.8393 48.3441 24.4892 48.6135C24.8226 48.8638 25.0561 49.3067 25.0561 49.8071C25.0561 50.3078 24.8393 50.7506 24.4892 51.0007C24.8226 51.2511 25.0561 51.6939 25.0561 52.1946C25.0561 52.695 24.8393 53.1379 24.4892 53.3882C24.8393 53.6576 25.0561 54.1196 25.0561 54.6396C25.0394 55.4289 24.4559 56.0449 23.7722 56.0449H18.2699C17.4696 56.0449 16.8193 55.2941 16.8193 54.3699V47.6124C16.8193 46.6882 17.4696 45.9375 18.2699 45.9375H23.5988C24.4892 45.9375 25.0414 46.6697 25.0561 47.3621Z" fill="url(#paint30_linear_667_1468)"/>
</g>
<g filter="url(#filter6_i_667_1468)">
<path d="M35.0145 47.3621C34.9978 47.8821 35.2313 48.3441 35.5813 48.6135C35.248 48.8638 35.0145 49.3067 35.0145 49.8071C35.0145 50.3078 35.2313 50.7506 35.5813 51.0007C35.248 51.2511 35.0145 51.6939 35.0145 52.1946C35.0145 52.695 35.2313 53.1379 35.5813 53.3882C35.2313 53.6576 35.0145 54.1196 35.0145 54.6396C35.0312 55.4289 35.6147 56.0449 36.2983 56.0449H41.8005C42.601 56.0449 43.2512 55.2941 43.2512 54.3699V47.6124C43.2512 46.6882 42.601 45.9375 41.8005 45.9375H36.4718C35.5813 45.9375 35.0291 46.6697 35.0145 47.3621Z" fill="url(#paint31_linear_667_1468)"/>
</g>
<path d="M40.6377 42.8909V38.605C40.6377 37.8773 39.9625 37.2951 39.1189 37.2951H22.9187C22.9077 37.2951 22.8966 37.2949 22.8856 37.2949H22.8833C20.9312 37.2955 19.375 38.6637 19.375 40.3354C19.375 41.7467 20.5191 42.8909 21.9304 42.8909H40.6377Z" fill="url(#paint32_linear_667_1468)"/>
<path d="M20.9385 40.0927C20.9385 39.3727 21.5222 38.7891 22.2422 38.7891H40.6387V41.3964H22.2422C21.5222 41.3964 20.9385 40.8127 20.9385 40.0927Z" fill="url(#paint33_linear_667_1468)"/>
<g filter="url(#filter7_f_667_1468)">
<path d="M35.7051 48.6182H39.3086" stroke="url(#paint34_linear_667_1468)" stroke-width="0.1875" stroke-linecap="round"/>
</g>
<g filter="url(#filter8_f_667_1468)">
<path d="M24.2852 48.6182H20.6816" stroke="url(#paint35_linear_667_1468)" stroke-width="0.1875" stroke-linecap="round"/>
</g>
<g filter="url(#filter9_f_667_1468)">
<path d="M35.7051 50.9912H39.3086" stroke="url(#paint36_linear_667_1468)" stroke-width="0.1875" stroke-linecap="round"/>
</g>
<g filter="url(#filter10_f_667_1468)">
<path d="M24.2852 50.9912H20.6816" stroke="url(#paint37_linear_667_1468)" stroke-width="0.1875" stroke-linecap="round"/>
</g>
<g filter="url(#filter11_f_667_1468)">
<path d="M35.7051 53.3643H39.3086" stroke="url(#paint38_linear_667_1468)" stroke-width="0.1875" stroke-linecap="round"/>
</g>
<g filter="url(#filter12_f_667_1468)">
<path d="M24.2852 53.3643H20.6816" stroke="url(#paint39_linear_667_1468)" stroke-width="0.1875" stroke-linecap="round"/>
</g>
<path d="M21.2582 23.1009C22.9886 23.1009 24.3914 21.6981 24.3914 19.9677C24.3914 18.2373 22.9886 16.8345 21.2582 16.8345C19.5278 16.8345 18.125 18.2373 18.125 19.9677C18.125 21.6981 19.5278 23.1009 21.2582 23.1009Z" fill="url(#paint40_radial_667_1468)"/>
<g filter="url(#filter13_f_667_1468)">
<path d="M21.258 21.8348C22.2893 21.8348 23.1253 20.9987 23.1253 19.9674C23.1253 18.9361 22.2893 18.1001 21.258 18.1001C20.2267 18.1001 19.3906 18.9361 19.3906 19.9674C19.3906 20.9987 20.2267 21.8348 21.258 21.8348Z" fill="url(#paint41_linear_667_1468)"/>
</g>
<g filter="url(#filter14_i_667_1468)">
<path d="M39.1127 23.1009C40.8431 23.1009 42.2459 21.6981 42.2459 19.9677C42.2459 18.2373 40.8431 16.8345 39.1127 16.8345C37.3823 16.8345 35.9795 18.2373 35.9795 19.9677C35.9795 21.6981 37.3823 23.1009 39.1127 23.1009Z" fill="url(#paint42_linear_667_1468)"/>
<path d="M39.1127 23.1009C40.8431 23.1009 42.2459 21.6981 42.2459 19.9677C42.2459 18.2373 40.8431 16.8345 39.1127 16.8345C37.3823 16.8345 35.9795 18.2373 35.9795 19.9677C35.9795 21.6981 37.3823 23.1009 39.1127 23.1009Z" fill="url(#paint43_radial_667_1468)"/>
</g>
<g filter="url(#filter15_f_667_1468)">
<path d="M39.1115 21.8348C40.1428 21.8348 40.9788 20.9987 40.9788 19.9674C40.9788 18.9361 40.1428 18.1001 39.1115 18.1001C38.0802 18.1001 37.2441 18.9361 37.2441 19.9674C37.2441 20.9987 38.0802 21.8348 39.1115 21.8348Z" fill="#FFBF34"/>
<path d="M39.1115 21.8348C40.1428 21.8348 40.9788 20.9987 40.9788 19.9674C40.9788 18.9361 40.1428 18.1001 39.1115 18.1001C38.0802 18.1001 37.2441 18.9361 37.2441 19.9674C37.2441 20.9987 38.0802 21.8348 39.1115 21.8348Z" fill="url(#paint44_radial_667_1468)"/>
<path d="M39.1115 21.8348C40.1428 21.8348 40.9788 20.9987 40.9788 19.9674C40.9788 18.9361 40.1428 18.1001 39.1115 18.1001C38.0802 18.1001 37.2441 18.9361 37.2441 19.9674C37.2441 20.9987 38.0802 21.8348 39.1115 21.8348Z" fill="url(#paint45_radial_667_1468)"/>
</g>
<path d="M20.5976 18.8175C20.5481 18.2291 20.4883 16.5498 20.4883 16.118C20.4883 15.6176 20.6897 15.017 21.0924 14.7167L21.3943 14.4164C21.8977 14.016 22.0991 13.4155 22.0991 12.8149V11.2133C22.0991 10.7129 22.401 10.3125 22.9044 10.2124C24.1125 9.9121 26.6291 9.41162 30.2533 9.41162C33.8773 9.41162 36.3941 9.9121 37.6022 10.2124C38.0047 10.3125 38.4075 10.7129 38.4075 11.2133V12.8149C38.4075 13.4155 38.7095 14.016 39.1121 14.4164C40.0545 15.0767 39.9958 15.4399 39.9174 16.2182C39.8932 16.4592 39.8169 18.46 39.7502 18.9203L39.2512 26.3494C38.9499 29.6706 36.339 31.9853 33.2261 31.9853H27.2008C23.9874 31.9853 21.477 29.6706 21.1757 26.3494L20.5976 18.8175Z" fill="url(#paint46_linear_667_1468)"/>
<path d="M20.5976 18.8175C20.5481 18.2291 20.4883 16.5498 20.4883 16.118C20.4883 15.6176 20.6897 15.017 21.0924 14.7167L21.3943 14.4164C21.8977 14.016 22.0991 13.4155 22.0991 12.8149V11.2133C22.0991 10.7129 22.401 10.3125 22.9044 10.2124C24.1125 9.9121 26.6291 9.41162 30.2533 9.41162C33.8773 9.41162 36.3941 9.9121 37.6022 10.2124C38.0047 10.3125 38.4075 10.7129 38.4075 11.2133V12.8149C38.4075 13.4155 38.7095 14.016 39.1121 14.4164C40.0545 15.0767 39.9958 15.4399 39.9174 16.2182C39.8932 16.4592 39.8169 18.46 39.7502 18.9203L39.2512 26.3494C38.9499 29.6706 36.339 31.9853 33.2261 31.9853H27.2008C23.9874 31.9853 21.477 29.6706 21.1757 26.3494L20.5976 18.8175Z" fill="url(#paint47_linear_667_1468)"/>
<path d="M20.5976 18.8175C20.5481 18.2291 20.4883 16.5498 20.4883 16.118C20.4883 15.6176 20.6897 15.017 21.0924 14.7167L21.3943 14.4164C21.8977 14.016 22.0991 13.4155 22.0991 12.8149V11.2133C22.0991 10.7129 22.401 10.3125 22.9044 10.2124C24.1125 9.9121 26.6291 9.41162 30.2533 9.41162C33.8773 9.41162 36.3941 9.9121 37.6022 10.2124C38.0047 10.3125 38.4075 10.7129 38.4075 11.2133V12.8149C38.4075 13.4155 38.7095 14.016 39.1121 14.4164C40.0545 15.0767 39.9958 15.4399 39.9174 16.2182C39.8932 16.4592 39.8169 18.46 39.7502 18.9203L39.2512 26.3494C38.9499 29.6706 36.339 31.9853 33.2261 31.9853H27.2008C23.9874 31.9853 21.477 29.6706 21.1757 26.3494L20.5976 18.8175Z" fill="url(#paint48_radial_667_1468)"/>
<path d="M20.5976 18.8175C20.5481 18.2291 20.4883 16.5498 20.4883 16.118C20.4883 15.6176 20.6897 15.017 21.0924 14.7167L21.3943 14.4164C21.8977 14.016 22.0991 13.4155 22.0991 12.8149V11.2133C22.0991 10.7129 22.401 10.3125 22.9044 10.2124C24.1125 9.9121 26.6291 9.41162 30.2533 9.41162C33.8773 9.41162 36.3941 9.9121 37.6022 10.2124C38.0047 10.3125 38.4075 10.7129 38.4075 11.2133V12.8149C38.4075 13.4155 38.7095 14.016 39.1121 14.4164C40.0545 15.0767 39.9958 15.4399 39.9174 16.2182C39.8932 16.4592 39.8169 18.46 39.7502 18.9203L39.2512 26.3494C38.9499 29.6706 36.339 31.9853 33.2261 31.9853H27.2008C23.9874 31.9853 21.477 29.6706 21.1757 26.3494L20.5976 18.8175Z" fill="url(#paint49_radial_667_1468)"/>
<path d="M20.5976 18.8175C20.5481 18.2291 20.4883 16.5498 20.4883 16.118C20.4883 15.6176 20.6897 15.017 21.0924 14.7167L21.3943 14.4164C21.8977 14.016 22.0991 13.4155 22.0991 12.8149V11.2133C22.0991 10.7129 22.401 10.3125 22.9044 10.2124C24.1125 9.9121 26.6291 9.41162 30.2533 9.41162C33.8773 9.41162 36.3941 9.9121 37.6022 10.2124C38.0047 10.3125 38.4075 10.7129 38.4075 11.2133V12.8149C38.4075 13.4155 38.7095 14.016 39.1121 14.4164C40.0545 15.0767 39.9958 15.4399 39.9174 16.2182C39.8932 16.4592 39.8169 18.46 39.7502 18.9203L39.2512 26.3494C38.9499 29.6706 36.339 31.9853 33.2261 31.9853H27.2008C23.9874 31.9853 21.477 29.6706 21.1757 26.3494L20.5976 18.8175Z" fill="url(#paint50_radial_667_1468)"/>
<g filter="url(#filter16_ii_667_1468)">
<path d="M39.2129 7.81051L40.0182 8.2109C41.4276 8.91156 42.2329 10.5131 41.9311 12.2147L40.8237 17.9202C40.7249 18.5094 40.3354 18.9059 39.7502 18.9207C39.8172 17.9756 39.8794 16.4508 39.9036 16.2097C39.9854 15.3969 39.8575 15.1577 39.1122 14.4168C38.7096 14.0164 38.4076 13.4158 38.4076 12.8152V11.2137C38.4076 10.7132 38.0048 10.3128 37.6022 10.2128C36.3942 9.91246 33.8774 9.41198 30.2534 9.41198C26.6292 9.41198 24.1126 9.91246 22.9045 10.2128C22.4011 10.3128 22.0992 10.7132 22.0992 11.2137V12.8152C22.0992 13.4158 21.8978 14.0164 21.3944 14.4168L21.0925 14.7171C20.6897 15.0174 20.4865 15.6447 20.4865 16.1452C20.5133 16.4371 20.5529 18.1182 20.5977 18.8178C20.0352 18.7794 19.5773 18.3899 19.4817 17.8201L18.3744 12.1146C18.173 10.5131 18.9784 8.91156 20.3877 8.2109C22.2902 7.37691 22.9836 6.11082 24.5151 4.80764C25.6225 3.80667 27.2333 3.50639 28.6426 4.20706C29.6492 4.50734 30.7566 4.50734 31.7633 4.20706C33.2734 3.70658 34.9847 4.10695 36.1928 5.20801L37.7029 6.70945C38.1055 7.20993 38.6089 7.51023 39.2129 7.81051Z" fill="#FFA91B"/>
<path d="M39.2129 7.81051L40.0182 8.2109C41.4276 8.91156 42.2329 10.5131 41.9311 12.2147L40.8237 17.9202C40.7249 18.5094 40.3354 18.9059 39.7502 18.9207C39.8172 17.9756 39.8794 16.4508 39.9036 16.2097C39.9854 15.3969 39.8575 15.1577 39.1122 14.4168C38.7096 14.0164 38.4076 13.4158 38.4076 12.8152V11.2137C38.4076 10.7132 38.0048 10.3128 37.6022 10.2128C36.3942 9.91246 33.8774 9.41198 30.2534 9.41198C26.6292 9.41198 24.1126 9.91246 22.9045 10.2128C22.4011 10.3128 22.0992 10.7132 22.0992 11.2137V12.8152C22.0992 13.4158 21.8978 14.0164 21.3944 14.4168L21.0925 14.7171C20.6897 15.0174 20.4865 15.6447 20.4865 16.1452C20.5133 16.4371 20.5529 18.1182 20.5977 18.8178C20.0352 18.7794 19.5773 18.3899 19.4817 17.8201L18.3744 12.1146C18.173 10.5131 18.9784 8.91156 20.3877 8.2109C22.2902 7.37691 22.9836 6.11082 24.5151 4.80764C25.6225 3.80667 27.2333 3.50639 28.6426 4.20706C29.6492 4.50734 30.7566 4.50734 31.7633 4.20706C33.2734 3.70658 34.9847 4.10695 36.1928 5.20801L37.7029 6.70945C38.1055 7.20993 38.6089 7.51023 39.2129 7.81051Z" fill="url(#paint51_radial_667_1468)"/>
<path d="M39.2129 7.81051L40.0182 8.2109C41.4276 8.91156 42.2329 10.5131 41.9311 12.2147L40.8237 17.9202C40.7249 18.5094 40.3354 18.9059 39.7502 18.9207C39.8172 17.9756 39.8794 16.4508 39.9036 16.2097C39.9854 15.3969 39.8575 15.1577 39.1122 14.4168C38.7096 14.0164 38.4076 13.4158 38.4076 12.8152V11.2137C38.4076 10.7132 38.0048 10.3128 37.6022 10.2128C36.3942 9.91246 33.8774 9.41198 30.2534 9.41198C26.6292 9.41198 24.1126 9.91246 22.9045 10.2128C22.4011 10.3128 22.0992 10.7132 22.0992 11.2137V12.8152C22.0992 13.4158 21.8978 14.0164 21.3944 14.4168L21.0925 14.7171C20.6897 15.0174 20.4865 15.6447 20.4865 16.1452C20.5133 16.4371 20.5529 18.1182 20.5977 18.8178C20.0352 18.7794 19.5773 18.3899 19.4817 17.8201L18.3744 12.1146C18.173 10.5131 18.9784 8.91156 20.3877 8.2109C22.2902 7.37691 22.9836 6.11082 24.5151 4.80764C25.6225 3.80667 27.2333 3.50639 28.6426 4.20706C29.6492 4.50734 30.7566 4.50734 31.7633 4.20706C33.2734 3.70658 34.9847 4.10695 36.1928 5.20801L37.7029 6.70945C38.1055 7.20993 38.6089 7.51023 39.2129 7.81051Z" fill="url(#paint52_linear_667_1468)"/>
<path d="M39.2129 7.81051L40.0182 8.2109C41.4276 8.91156 42.2329 10.5131 41.9311 12.2147L40.8237 17.9202C40.7249 18.5094 40.3354 18.9059 39.7502 18.9207C39.8172 17.9756 39.8794 16.4508 39.9036 16.2097C39.9854 15.3969 39.8575 15.1577 39.1122 14.4168C38.7096 14.0164 38.4076 13.4158 38.4076 12.8152V11.2137C38.4076 10.7132 38.0048 10.3128 37.6022 10.2128C36.3942 9.91246 33.8774 9.41198 30.2534 9.41198C26.6292 9.41198 24.1126 9.91246 22.9045 10.2128C22.4011 10.3128 22.0992 10.7132 22.0992 11.2137V12.8152C22.0992 13.4158 21.8978 14.0164 21.3944 14.4168L21.0925 14.7171C20.6897 15.0174 20.4865 15.6447 20.4865 16.1452C20.5133 16.4371 20.5529 18.1182 20.5977 18.8178C20.0352 18.7794 19.5773 18.3899 19.4817 17.8201L18.3744 12.1146C18.173 10.5131 18.9784 8.91156 20.3877 8.2109C22.2902 7.37691 22.9836 6.11082 24.5151 4.80764C25.6225 3.80667 27.2333 3.50639 28.6426 4.20706C29.6492 4.50734 30.7566 4.50734 31.7633 4.20706C33.2734 3.70658 34.9847 4.10695 36.1928 5.20801L37.7029 6.70945C38.1055 7.20993 38.6089 7.51023 39.2129 7.81051Z" fill="url(#paint53_radial_667_1468)"/>
<path d="M39.2129 7.81051L40.0182 8.2109C41.4276 8.91156 42.2329 10.5131 41.9311 12.2147L40.8237 17.9202C40.7249 18.5094 40.3354 18.9059 39.7502 18.9207C39.8172 17.9756 39.8794 16.4508 39.9036 16.2097C39.9854 15.3969 39.8575 15.1577 39.1122 14.4168C38.7096 14.0164 38.4076 13.4158 38.4076 12.8152V11.2137C38.4076 10.7132 38.0048 10.3128 37.6022 10.2128C36.3942 9.91246 33.8774 9.41198 30.2534 9.41198C26.6292 9.41198 24.1126 9.91246 22.9045 10.2128C22.4011 10.3128 22.0992 10.7132 22.0992 11.2137V12.8152C22.0992 13.4158 21.8978 14.0164 21.3944 14.4168L21.0925 14.7171C20.6897 15.0174 20.4865 15.6447 20.4865 16.1452C20.5133 16.4371 20.5529 18.1182 20.5977 18.8178C20.0352 18.7794 19.5773 18.3899 19.4817 17.8201L18.3744 12.1146C18.173 10.5131 18.9784 8.91156 20.3877 8.2109C22.2902 7.37691 22.9836 6.11082 24.5151 4.80764C25.6225 3.80667 27.2333 3.50639 28.6426 4.20706C29.6492 4.50734 30.7566 4.50734 31.7633 4.20706C33.2734 3.70658 34.9847 4.10695 36.1928 5.20801L37.7029 6.70945C38.1055 7.20993 38.6089 7.51023 39.2129 7.81051Z" fill="url(#paint54_radial_667_1468)"/>
<path d="M39.2129 7.81051L40.0182 8.2109C41.4276 8.91156 42.2329 10.5131 41.9311 12.2147L40.8237 17.9202C40.7249 18.5094 40.3354 18.9059 39.7502 18.9207C39.8172 17.9756 39.8794 16.4508 39.9036 16.2097C39.9854 15.3969 39.8575 15.1577 39.1122 14.4168C38.7096 14.0164 38.4076 13.4158 38.4076 12.8152V11.2137C38.4076 10.7132 38.0048 10.3128 37.6022 10.2128C36.3942 9.91246 33.8774 9.41198 30.2534 9.41198C26.6292 9.41198 24.1126 9.91246 22.9045 10.2128C22.4011 10.3128 22.0992 10.7132 22.0992 11.2137V12.8152C22.0992 13.4158 21.8978 14.0164 21.3944 14.4168L21.0925 14.7171C20.6897 15.0174 20.4865 15.6447 20.4865 16.1452C20.5133 16.4371 20.5529 18.1182 20.5977 18.8178C20.0352 18.7794 19.5773 18.3899 19.4817 17.8201L18.3744 12.1146C18.173 10.5131 18.9784 8.91156 20.3877 8.2109C22.2902 7.37691 22.9836 6.11082 24.5151 4.80764C25.6225 3.80667 27.2333 3.50639 28.6426 4.20706C29.6492 4.50734 30.7566 4.50734 31.7633 4.20706C33.2734 3.70658 34.9847 4.10695 36.1928 5.20801L37.7029 6.70945C38.1055 7.20993 38.6089 7.51023 39.2129 7.81051Z" fill="url(#paint55_radial_667_1468)"/>
<path d="M39.2129 7.81051L40.0182 8.2109C41.4276 8.91156 42.2329 10.5131 41.9311 12.2147L40.8237 17.9202C40.7249 18.5094 40.3354 18.9059 39.7502 18.9207C39.8172 17.9756 39.8794 16.4508 39.9036 16.2097C39.9854 15.3969 39.8575 15.1577 39.1122 14.4168C38.7096 14.0164 38.4076 13.4158 38.4076 12.8152V11.2137C38.4076 10.7132 38.0048 10.3128 37.6022 10.2128C36.3942 9.91246 33.8774 9.41198 30.2534 9.41198C26.6292 9.41198 24.1126 9.91246 22.9045 10.2128C22.4011 10.3128 22.0992 10.7132 22.0992 11.2137V12.8152C22.0992 13.4158 21.8978 14.0164 21.3944 14.4168L21.0925 14.7171C20.6897 15.0174 20.4865 15.6447 20.4865 16.1452C20.5133 16.4371 20.5529 18.1182 20.5977 18.8178C20.0352 18.7794 19.5773 18.3899 19.4817 17.8201L18.3744 12.1146C18.173 10.5131 18.9784 8.91156 20.3877 8.2109C22.2902 7.37691 22.9836 6.11082 24.5151 4.80764C25.6225 3.80667 27.2333 3.50639 28.6426 4.20706C29.6492 4.50734 30.7566 4.50734 31.7633 4.20706C33.2734 3.70658 34.9847 4.10695 36.1928 5.20801L37.7029 6.70945C38.1055 7.20993 38.6089 7.51023 39.2129 7.81051Z" fill="url(#paint56_radial_667_1468)"/>
</g>
<path d="M39.2129 7.81051L40.0182 8.2109C41.4276 8.91156 42.2329 10.5131 41.9311 12.2147L40.8237 17.9202C40.7249 18.5094 40.3354 18.9059 39.7502 18.9207C39.8172 17.9756 39.8794 16.4508 39.9036 16.2097C39.9854 15.3969 39.8575 15.1577 39.1122 14.4168C38.7096 14.0164 38.4076 13.4158 38.4076 12.8152V11.2137C38.4076 10.7132 38.0048 10.3128 37.6022 10.2128C36.3942 9.91246 33.8774 9.41198 30.2534 9.41198C26.6292 9.41198 24.1126 9.91246 22.9045 10.2128C22.4011 10.3128 22.0992 10.7132 22.0992 11.2137V12.8152C22.0992 13.4158 21.8978 14.0164 21.3944 14.4168L21.0925 14.7171C20.6897 15.0174 20.4865 15.6447 20.4865 16.1452C20.5133 16.4371 20.5529 18.1182 20.5977 18.8178C20.0352 18.7794 19.5773 18.3899 19.4817 17.8201L18.3744 12.1146C18.173 10.5131 18.9784 8.91156 20.3877 8.2109C22.2902 7.37691 22.9836 6.11082 24.5151 4.80764C25.6225 3.80667 27.2333 3.50639 28.6426 4.20706C29.6492 4.50734 30.7566 4.50734 31.7633 4.20706C33.2734 3.70658 34.9847 4.10695 36.1928 5.20801L37.7029 6.70945C38.1055 7.20993 38.6089 7.51023 39.2129 7.81051Z" fill="url(#paint57_radial_667_1468)"/>
<path d="M39.2129 7.81051L40.0182 8.2109C41.4276 8.91156 42.2329 10.5131 41.9311 12.2147L40.8237 17.9202C40.7249 18.5094 40.3354 18.9059 39.7502 18.9207C39.8172 17.9756 39.8794 16.4508 39.9036 16.2097C39.9854 15.3969 39.8575 15.1577 39.1122 14.4168C38.7096 14.0164 38.4076 13.4158 38.4076 12.8152V11.2137C38.4076 10.7132 38.0048 10.3128 37.6022 10.2128C36.3942 9.91246 33.8774 9.41198 30.2534 9.41198C26.6292 9.41198 24.1126 9.91246 22.9045 10.2128C22.4011 10.3128 22.0992 10.7132 22.0992 11.2137V12.8152C22.0992 13.4158 21.8978 14.0164 21.3944 14.4168L21.0925 14.7171C20.6897 15.0174 20.4865 15.6447 20.4865 16.1452C20.5133 16.4371 20.5529 18.1182 20.5977 18.8178C20.0352 18.7794 19.5773 18.3899 19.4817 17.8201L18.3744 12.1146C18.173 10.5131 18.9784 8.91156 20.3877 8.2109C22.2902 7.37691 22.9836 6.11082 24.5151 4.80764C25.6225 3.80667 27.2333 3.50639 28.6426 4.20706C29.6492 4.50734 30.7566 4.50734 31.7633 4.20706C33.2734 3.70658 34.9847 4.10695 36.1928 5.20801L37.7029 6.70945C38.1055 7.20993 38.6089 7.51023 39.2129 7.81051Z" fill="url(#paint58_radial_667_1468)"/>
<path d="M39.2129 7.81051L40.0182 8.2109C41.4276 8.91156 42.2329 10.5131 41.9311 12.2147L40.8237 17.9202C40.7249 18.5094 40.3354 18.9059 39.7502 18.9207C39.8172 17.9756 39.8794 16.4508 39.9036 16.2097C39.9854 15.3969 39.8575 15.1577 39.1122 14.4168C38.7096 14.0164 38.4076 13.4158 38.4076 12.8152V11.2137C38.4076 10.7132 38.0048 10.3128 37.6022 10.2128C36.3942 9.91246 33.8774 9.41198 30.2534 9.41198C26.6292 9.41198 24.1126 9.91246 22.9045 10.2128C22.4011 10.3128 22.0992 10.7132 22.0992 11.2137V12.8152C22.0992 13.4158 21.8978 14.0164 21.3944 14.4168L21.0925 14.7171C20.6897 15.0174 20.4865 15.6447 20.4865 16.1452C20.5133 16.4371 20.5529 18.1182 20.5977 18.8178C20.0352 18.7794 19.5773 18.3899 19.4817 17.8201L18.3744 12.1146C18.173 10.5131 18.9784 8.91156 20.3877 8.2109C22.2902 7.37691 22.9836 6.11082 24.5151 4.80764C25.6225 3.80667 27.2333 3.50639 28.6426 4.20706C29.6492 4.50734 30.7566 4.50734 31.7633 4.20706C33.2734 3.70658 34.9847 4.10695 36.1928 5.20801L37.7029 6.70945C38.1055 7.20993 38.6089 7.51023 39.2129 7.81051Z" fill="url(#paint59_radial_667_1468)"/>
<g filter="url(#filter17_f_667_1468)">
<path d="M29.6526 19.7379L28.113 22.9276C27.9222 23.5839 28.3802 24.2399 29.029 24.2399H30.4125C31.0615 24.2399 31.5195 23.5738 31.3287 22.9276L30.3936 19.7379C30.1932 19.0314 29.8626 19.0314 29.6526 19.7379Z" fill="#F1901C"/>
</g>
<g filter="url(#filter18_f_667_1468)">
<path d="M29.4521 19.4318L28.4548 22.6216C28.2513 23.2776 28.7398 23.9339 29.4316 23.9339H30.9071C31.5991 23.9339 32.0876 23.2677 31.8839 22.6216L30.8868 19.4318C30.6731 18.7252 29.6758 18.7252 29.4521 19.4318Z" fill="#FFCC28"/>
<path d="M29.4521 19.4318L28.4548 22.6216C28.2513 23.2776 28.7398 23.9339 29.4316 23.9339H30.9071C31.5991 23.9339 32.0876 23.2677 31.8839 22.6216L30.8868 19.4318C30.6731 18.7252 29.6758 18.7252 29.4521 19.4318Z" fill="url(#paint60_linear_667_1468)"/>
<path d="M29.4521 19.4318L28.4548 22.6216C28.2513 23.2776 28.7398 23.9339 29.4316 23.9339H30.9071C31.5991 23.9339 32.0876 23.2677 31.8839 22.6216L30.8868 19.4318C30.6731 18.7252 29.6758 18.7252 29.4521 19.4318Z" fill="url(#paint61_linear_667_1468)"/>
<path d="M29.4521 19.4318L28.4548 22.6216C28.2513 23.2776 28.7398 23.9339 29.4316 23.9339H30.9071C31.5991 23.9339 32.0876 23.2677 31.8839 22.6216L30.8868 19.4318C30.6731 18.7252 29.6758 18.7252 29.4521 19.4318Z" fill="url(#paint62_linear_667_1468)"/>
</g>
<path d="M29.4521 19.4318L28.4548 22.6216C28.2513 23.2776 28.7398 23.9339 29.4316 23.9339H30.9071C31.5991 23.9339 32.0876 23.2677 31.8839 22.6216L30.8868 19.4318C30.6731 18.7252 29.6758 18.7252 29.4521 19.4318Z" fill="url(#paint63_linear_667_1468)"/>
<g filter="url(#filter19_f_667_1468)">
<path d="M30.1687 25.8415C29.2164 25.8415 28.3212 25.6174 27.569 25.2252C27.3119 25.0945 27.0357 25.384 27.1977 25.6174C27.8262 26.5697 28.9212 27.2048 30.1687 27.2048C31.4161 27.2048 32.5111 26.5697 33.1396 25.6174C33.3014 25.3746 33.0252 25.0945 32.7682 25.2252C32.0159 25.6174 31.1304 25.8415 30.1687 25.8415Z" stroke="url(#paint64_radial_667_1468)" stroke-width="0.375"/>
</g>
<path d="M30.1687 25.8415C29.2164 25.8415 28.3212 25.6174 27.569 25.2252C27.3119 25.0945 27.0357 25.384 27.1977 25.6174C27.8262 26.5697 28.9212 27.2048 30.1687 27.2048C31.4161 27.2048 32.5111 26.5697 33.1396 25.6174C33.3014 25.3746 33.0252 25.0945 32.7682 25.2252C32.0159 25.6174 31.1304 25.8415 30.1687 25.8415Z" fill="#8A004F"/>
<path d="M34.6502 17.2822C35.8757 17.2822 36.9109 18.1271 37.1925 19.2688C37.2762 19.5962 37.0251 19.9082 36.6902 19.9082H32.5037C32.2373 19.9082 32.0243 19.6646 32.0776 19.3982C32.3134 18.1956 33.3715 17.2822 34.6502 17.2822Z" fill="white"/>
<path d="M34.2621 17.7925C35.1908 17.7925 35.9367 18.546 35.9367 19.4669C35.9367 19.6192 35.9138 19.7714 35.8758 19.9085H32.6408C32.6028 19.7639 32.5801 19.6192 32.5801 19.4669C32.5801 18.546 33.3335 17.7925 34.2621 17.7925Z" fill="url(#paint65_radial_667_1468)"/>
<path d="M33.3027 19.4668C33.3027 18.9341 33.7289 18.5078 34.2618 18.5078C34.7945 18.5078 35.2209 18.9341 35.2209 19.4668C35.2209 19.6267 35.1828 19.779 35.1142 19.9083H33.4169C33.3408 19.779 33.3027 19.6267 33.3027 19.4668Z" fill="black"/>
<g filter="url(#filter20_f_667_1468)">
<path d="M34.139 18.1469C34.2583 18.3065 34.0089 18.501 33.7254 18.713C33.4419 18.9249 33.2315 19.0742 33.1121 18.9146C32.9928 18.7551 33.1259 18.4538 33.4094 18.2418C33.6931 18.0298 34.0196 17.9873 34.139 18.1469Z" fill="#C7A7A3"/>
<path d="M34.139 18.1469C34.2583 18.3065 34.0089 18.501 33.7254 18.713C33.4419 18.9249 33.2315 19.0742 33.1121 18.9146C32.9928 18.7551 33.1259 18.4538 33.4094 18.2418C33.6931 18.0298 34.0196 17.9873 34.139 18.1469Z" fill="url(#paint66_radial_667_1468)"/>
</g>
<g filter="url(#filter21_f_667_1468)">
<path d="M35.7528 19.2466C35.6909 18.8137 35.4376 18.4874 35.3187 18.3784L34.8311 18.9136L35.051 19.3417L35.7528 19.2466Z" fill="url(#paint67_linear_667_1468)"/>
</g>
<path d="M25.6778 17.2822C24.4523 17.2822 23.417 18.1271 23.1353 19.269C23.0517 19.5962 23.3028 19.9084 23.6378 19.9084H27.8243C28.0908 19.9084 28.304 19.6648 28.2507 19.3984C28.0147 18.1957 26.9489 17.2822 25.6778 17.2822Z" fill="white"/>
<path d="M26.0662 17.7925C25.1375 17.7925 24.3916 18.5461 24.3916 19.4671C24.3916 19.6194 24.4143 19.7716 24.4524 19.9087H27.6875C27.7255 19.7639 27.7484 19.6194 27.7484 19.4671C27.7407 18.5461 26.9949 17.7925 26.0662 17.7925Z" fill="url(#paint68_radial_667_1468)"/>
<path d="M27.0246 19.467C27.0246 18.9341 26.5984 18.5078 26.0655 18.5078C25.5326 18.5078 25.1064 18.9341 25.1064 19.467C25.1064 19.6267 25.1445 19.779 25.2129 19.9083H26.9104C26.9788 19.779 27.0246 19.6267 27.0246 19.467Z" fill="black"/>
<g filter="url(#filter22_f_667_1468)">
<path d="M27.5952 19.2703C27.5952 18.7291 27.1551 18.3683 27.0362 18.2593L26.4951 18.7826L26.8281 19.4606L27.5952 19.2703Z" fill="url(#paint69_linear_667_1468)"/>
</g>
<g filter="url(#filter23_f_667_1468)">
<path d="M25.7336 18.8346C26.0904 18.6456 26.3021 18.346 26.2064 18.1654C26.1108 17.9848 25.744 17.9917 25.3872 18.1807C25.0304 18.3697 24.8188 18.6693 24.9144 18.8499C25.0101 19.0305 25.3769 19.0236 25.7336 18.8346Z" fill="#C7A7A3" fill-opacity="0.9"/>
<path d="M25.7336 18.8346C26.0904 18.6456 26.3021 18.346 26.2064 18.1654C26.1108 17.9848 25.744 17.9917 25.3872 18.1807C25.0304 18.3697 24.8188 18.6693 24.9144 18.8499C25.0101 19.0305 25.3769 19.0236 25.7336 18.8346Z" fill="url(#paint70_radial_667_1468)"/>
</g>
<g filter="url(#filter24_i_667_1468)">
<path fill-rule="evenodd" clip-rule="evenodd" d="M33.509 15.8283C34.8598 15.7019 35.726 16.2291 35.9362 16.4228C36.2962 16.7545 36.857 16.7316 37.1887 16.3716C37.5204 16.0117 37.4975 15.4509 37.1375 15.1191C36.5629 14.5895 35.2016 13.8894 33.3438 14.0632C32.8565 14.1088 32.4982 14.5408 32.544 15.0283C32.5895 15.5157 33.0215 15.8738 33.509 15.8283Z" fill="url(#paint71_radial_667_1468)"/>
</g>
<g filter="url(#filter25_f_667_1468)">
<path d="M36.5372 15.5632C36.1448 15.2016 35.031 14.588 33.4268 14.738" stroke="#D76D5B" stroke-width="0.46875" stroke-linecap="round"/>
</g>
<g filter="url(#filter26_i_667_1468)">
<path fill-rule="evenodd" clip-rule="evenodd" d="M26.8284 15.8283C25.4777 15.7019 24.6113 16.2291 24.4013 16.4228C24.0413 16.7545 23.4804 16.7316 23.1488 16.3716C22.8169 16.0117 22.8398 15.4509 23.1998 15.1191C23.7744 14.5895 25.1357 13.8894 26.9934 14.0632C27.4809 14.1088 27.8391 14.5408 27.7935 15.0283C27.7479 15.5157 27.3158 15.8738 26.8284 15.8283Z" fill="url(#paint72_radial_667_1468)"/>
</g>
<g filter="url(#filter27_f_667_1468)">
<path d="M23.8008 15.5632C24.1932 15.2016 25.307 14.588 26.9112 14.738" stroke="#D76D5B" stroke-width="0.46875" stroke-linecap="round"/>
</g>
<g filter="url(#filter28_ii_667_1468)">
<path d="M39.1016 16.6367H32.5953C32.0328 16.6367 31.5078 16.8992 31.1516 17.3305C30.9266 17.6117 30.5891 17.7805 30.1953 17.7805C29.8016 17.7805 29.4641 17.6117 29.2391 17.3305C28.8828 16.8992 28.3578 16.6367 27.7953 16.6367H21.2703C20.9141 16.6367 20.6328 16.918 20.6328 17.2742V17.6867C20.6328 17.893 20.7266 18.0617 20.8766 18.1742C20.9516 18.2305 21.0078 18.3242 21.0078 18.418V20.4805C21.0078 22.4492 22.6016 24.0617 24.5891 24.0617H25.9203C27.8891 24.0617 29.5016 22.468 29.5016 20.4805V19.3367C29.5203 18.9617 29.8203 18.6805 30.1953 18.6805C30.5703 18.6805 30.8703 18.9805 30.8891 19.3555C30.8891 19.7305 30.8891 20.1055 30.8891 20.4805C30.8891 22.4492 32.4828 24.0617 34.4703 24.0617H35.8016C37.7703 24.0617 39.3828 22.468 39.3828 20.4805V18.3992C39.3828 18.3055 39.4203 18.2117 39.4953 18.1555C39.6453 18.043 39.7391 17.8555 39.7391 17.668V17.2742C39.7391 16.918 39.4578 16.6367 39.1016 16.6367ZM28.8641 20.293C28.8641 21.9992 27.4766 23.3867 25.7703 23.3867H24.7391C23.0328 23.3867 21.6453 21.9992 21.6453 20.293V18.943C21.6453 18.0242 22.3766 17.293 23.2953 17.293H27.1953C28.1141 17.293 28.8641 18.0242 28.8641 18.943V20.293ZM38.7641 20.293C38.7641 21.9992 37.3766 23.3867 35.6703 23.3867H34.6391C32.9328 23.3867 31.5453 21.9992 31.5453 20.293V18.943C31.5453 18.0242 32.2766 17.293 33.1953 17.293H37.1141C38.0328 17.293 38.7641 18.0242 38.7641 18.943V20.293Z" fill="url(#paint73_linear_667_1468)"/>
<path d="M39.1016 16.6367H32.5953C32.0328 16.6367 31.5078 16.8992 31.1516 17.3305C30.9266 17.6117 30.5891 17.7805 30.1953 17.7805C29.8016 17.7805 29.4641 17.6117 29.2391 17.3305C28.8828 16.8992 28.3578 16.6367 27.7953 16.6367H21.2703C20.9141 16.6367 20.6328 16.918 20.6328 17.2742V17.6867C20.6328 17.893 20.7266 18.0617 20.8766 18.1742C20.9516 18.2305 21.0078 18.3242 21.0078 18.418V20.4805C21.0078 22.4492 22.6016 24.0617 24.5891 24.0617H25.9203C27.8891 24.0617 29.5016 22.468 29.5016 20.4805V19.3367C29.5203 18.9617 29.8203 18.6805 30.1953 18.6805C30.5703 18.6805 30.8703 18.9805 30.8891 19.3555C30.8891 19.7305 30.8891 20.1055 30.8891 20.4805C30.8891 22.4492 32.4828 24.0617 34.4703 24.0617H35.8016C37.7703 24.0617 39.3828 22.468 39.3828 20.4805V18.3992C39.3828 18.3055 39.4203 18.2117 39.4953 18.1555C39.6453 18.043 39.7391 17.8555 39.7391 17.668V17.2742C39.7391 16.918 39.4578 16.6367 39.1016 16.6367ZM28.8641 20.293C28.8641 21.9992 27.4766 23.3867 25.7703 23.3867H24.7391C23.0328 23.3867 21.6453 21.9992 21.6453 20.293V18.943C21.6453 18.0242 22.3766 17.293 23.2953 17.293H27.1953C28.1141 17.293 28.8641 18.0242 28.8641 18.943V20.293ZM38.7641 20.293C38.7641 21.9992 37.3766 23.3867 35.6703 23.3867H34.6391C32.9328 23.3867 31.5453 21.9992 31.5453 20.293V18.943C31.5453 18.0242 32.2766 17.293 33.1953 17.293H37.1141C38.0328 17.293 38.7641 18.0242 38.7641 18.943V20.293Z" fill="url(#paint74_radial_667_1468)"/>
</g>
<defs>
<filter id="filter0_i_667_1468" x="3.79492" y="7.29492" width="52.4629" height="39.5439" filterUnits="userSpaceOnUse" color-interpolation-filters="sRGB">
<feFlood flood-opacity="0" result="BackgroundImageFix"/>
<feBlend mode="normal" in="SourceGraphic" in2="BackgroundImageFix" result="shape"/>
<feColorMatrix in="SourceAlpha" type="matrix" values="0 0 0 0 0 0 0 0 0 0 0 0 0 0 0 0 0 0 127 0" result="hardAlpha"/>
<feOffset dy="0.1875"/>
<feGaussianBlur stdDeviation="0.1875"/>
<feComposite in2="hardAlpha" operator="arithmetic" k2="-1" k3="1"/>
<feColorMatrix type="matrix" values="0 0 0 0 0.81585 0 0 0 0 0.641744 0 0 0 0 0.41905 0 0 0 1 0"/>
<feBlend mode="normal" in2="shape" result="effect1_innerShadow_667_1468"/>
</filter>
<filter id="filter1_f_667_1468" x="5.04102" y="7.00098" width="51.3984" height="38.9712" filterUnits="userSpaceOnUse" color-interpolation-filters="sRGB">
<feFlood flood-opacity="0" result="BackgroundImageFix"/>
<feBlend mode="normal" in="SourceGraphic" in2="BackgroundImageFix" result="shape"/>
<feGaussianBlur stdDeviation="0.375" result="effect1_foregroundBlur_667_1468"/>
</filter>
<filter id="filter2_i_667_1468" x="3.79492" y="7.33252" width="52.3311" height="39.2998" filterUnits="userSpaceOnUse" color-interpolation-filters="sRGB">
<feFlood flood-opacity="0" result="BackgroundImageFix"/>
<feBlend mode="normal" in="SourceGraphic" in2="BackgroundImageFix" result="shape"/>
<feColorMatrix in="SourceAlpha" type="matrix" values="0 0 0 0 0 0 0 0 0 0 0 0 0 0 0 0 0 0 127 0" result="hardAlpha"/>
<feOffset dy="-0.5625"/>
<feGaussianBlur stdDeviation="0.375"/>
<feComposite in2="hardAlpha" operator="arithmetic" k2="-1" k3="1"/>
<feColorMatrix type="matrix" values="0 0 0 0 0.85098 0 0 0 0 0.482353 0 0 0 0 0.647059 0 0 0 1 0"/>
<feBlend mode="normal" in2="shape" result="effect1_innerShadow_667_1468"/>
</filter>
<filter id="filter3_i_667_1468" x="33.8887" y="29.7202" width="5.24414" height="26.3252" filterUnits="userSpaceOnUse" color-interpolation-filters="sRGB">
<feFlood flood-opacity="0" result="BackgroundImageFix"/>
<feBlend mode="normal" in="SourceGraphic" in2="BackgroundImageFix" result="shape"/>
<feColorMatrix in="SourceAlpha" type="matrix" values="0 0 0 0 0 0 0 0 0 0 0 0 0 0 0 0 0 0 127 0" result="hardAlpha"/>
<feOffset dy="-0.1875"/>
<feGaussianBlur stdDeviation="0.234375"/>
<feComposite in2="hardAlpha" operator="arithmetic" k2="-1" k3="1"/>
<feColorMatrix type="matrix" values="0 0 0 0 0.380392 0 0 0 0 0.164706 0 0 0 0 0.203922 0 0 0 1 0"/>
<feBlend mode="normal" in2="shape" result="effect1_innerShadow_667_1468"/>
</filter>
<filter id="filter4_i_667_1468" x="20.9385" y="29.7202" width="5.24414" height="26.3252" filterUnits="userSpaceOnUse" color-interpolation-filters="sRGB">
<feFlood flood-opacity="0" result="BackgroundImageFix"/>
<feBlend mode="normal" in="SourceGraphic" in2="BackgroundImageFix" result="shape"/>
<feColorMatrix in="SourceAlpha" type="matrix" values="0 0 0 0 0 0 0 0 0 0 0 0 0 0 0 0 0 0 127 0" result="hardAlpha"/>
<feOffset dy="-0.1875"/>
<feGaussianBlur stdDeviation="0.234375"/>
<feComposite in2="hardAlpha" operator="arithmetic" k2="-1" k3="1"/>
<feColorMatrix type="matrix" values="0 0 0 0 0.380392 0 0 0 0 0.164706 0 0 0 0 0.203922 0 0 0 1 0"/>
<feBlend mode="normal" in2="shape" result="effect1_innerShadow_667_1468"/>
</filter>
<filter id="filter5_i_667_1468" x="16.8193" y="45.5625" width="8.6123" height="10.4824" filterUnits="userSpaceOnUse" color-interpolation-filters="sRGB">
<feFlood flood-opacity="0" result="BackgroundImageFix"/>
<feBlend mode="normal" in="SourceGraphic" in2="BackgroundImageFix" result="shape"/>
<feColorMatrix in="SourceAlpha" type="matrix" values="0 0 0 0 0 0 0 0 0 0 0 0 0 0 0 0 0 0 127 0" result="hardAlpha"/>
<feOffset dx="0.375" dy="-0.375"/>
<feGaussianBlur stdDeviation="0.46875"/>
<feComposite in2="hardAlpha" operator="arithmetic" k2="-1" k3="1"/>
<feColorMatrix type="matrix" values="0 0 0 0 0.847059 0 0 0 0 0.588235 0 0 0 0 0.317647 0 0 0 1 0"/>
<feBlend mode="normal" in2="shape" result="effect1_innerShadow_667_1468"/>
</filter>
<filter id="filter6_i_667_1468" x="35.0137" y="45.5625" width="8.6123" height="10.4824" filterUnits="userSpaceOnUse" color-interpolation-filters="sRGB">
<feFlood flood-opacity="0" result="BackgroundImageFix"/>
<feBlend mode="normal" in="SourceGraphic" in2="BackgroundImageFix" result="shape"/>
<feColorMatrix in="SourceAlpha" type="matrix" values="0 0 0 0 0 0 0 0 0 0 0 0 0 0 0 0 0 0 127 0" result="hardAlpha"/>
<feOffset dx="0.375" dy="-0.375"/>
<feGaussianBlur stdDeviation="0.46875"/>
<feComposite in2="hardAlpha" operator="arithmetic" k2="-1" k3="1"/>
<feColorMatrix type="matrix" values="0 0 0 0 0.835294 0 0 0 0 0.458824 0 0 0 0 0.2 0 0 0 1 0"/>
<feBlend mode="normal" in2="shape" result="effect1_innerShadow_667_1468"/>
</filter>
<filter id="filter7_f_667_1468" x="35.4238" y="48.3369" width="4.16602" height="0.5625" filterUnits="userSpaceOnUse" color-interpolation-filters="sRGB">
<feFlood flood-opacity="0" result="BackgroundImageFix"/>
<feBlend mode="normal" in="SourceGraphic" in2="BackgroundImageFix" result="shape"/>
<feGaussianBlur stdDeviation="0.09375" result="effect1_foregroundBlur_667_1468"/>
</filter>
<filter id="filter8_f_667_1468" x="20.4004" y="48.3369" width="4.16602" height="0.5625" filterUnits="userSpaceOnUse" color-interpolation-filters="sRGB">
<feFlood flood-opacity="0" result="BackgroundImageFix"/>
<feBlend mode="normal" in="SourceGraphic" in2="BackgroundImageFix" result="shape"/>
<feGaussianBlur stdDeviation="0.09375" result="effect1_foregroundBlur_667_1468"/>
</filter>
<filter id="filter9_f_667_1468" x="35.4238" y="50.71" width="4.16602" height="0.5625" filterUnits="userSpaceOnUse" color-interpolation-filters="sRGB">
<feFlood flood-opacity="0" result="BackgroundImageFix"/>
<feBlend mode="normal" in="SourceGraphic" in2="BackgroundImageFix" result="shape"/>
<feGaussianBlur stdDeviation="0.09375" result="effect1_foregroundBlur_667_1468"/>
</filter>
<filter id="filter10_f_667_1468" x="20.4004" y="50.71" width="4.16602" height="0.5625" filterUnits="userSpaceOnUse" color-interpolation-filters="sRGB">
<feFlood flood-opacity="0" result="BackgroundImageFix"/>
<feBlend mode="normal" in="SourceGraphic" in2="BackgroundImageFix" result="shape"/>
<feGaussianBlur stdDeviation="0.09375" result="effect1_foregroundBlur_667_1468"/>
</filter>
<filter id="filter11_f_667_1468" x="35.4238" y="53.083" width="4.16602" height="0.5625" filterUnits="userSpaceOnUse" color-interpolation-filters="sRGB">
<feFlood flood-opacity="0" result="BackgroundImageFix"/>
<feBlend mode="normal" in="SourceGraphic" in2="BackgroundImageFix" result="shape"/>
<feGaussianBlur stdDeviation="0.09375" result="effect1_foregroundBlur_667_1468"/>
</filter>
<filter id="filter12_f_667_1468" x="20.4004" y="53.083" width="4.16602" height="0.5625" filterUnits="userSpaceOnUse" color-interpolation-filters="sRGB">
<feFlood flood-opacity="0" result="BackgroundImageFix"/>
<feBlend mode="normal" in="SourceGraphic" in2="BackgroundImageFix" result="shape"/>
<feGaussianBlur stdDeviation="0.09375" result="effect1_foregroundBlur_667_1468"/>
</filter>
<filter id="filter13_f_667_1468" x="18.4531" y="17.1626" width="5.60938" height="5.60986" filterUnits="userSpaceOnUse" color-interpolation-filters="sRGB">
<feFlood flood-opacity="0" result="BackgroundImageFix"/>
<feBlend mode="normal" in="SourceGraphic" in2="BackgroundImageFix" result="shape"/>
<feGaussianBlur stdDeviation="0.46875" result="effect1_foregroundBlur_667_1468"/>
</filter>
<filter id="filter14_i_667_1468" x="35.9795" y="16.3657" width="6.73535" height="6.73535" filterUnits="userSpaceOnUse" color-interpolation-filters="sRGB">
<feFlood flood-opacity="0" result="BackgroundImageFix"/>
<feBlend mode="normal" in="SourceGraphic" in2="BackgroundImageFix" result="shape"/>
<feColorMatrix in="SourceAlpha" type="matrix" values="0 0 0 0 0 0 0 0 0 0 0 0 0 0 0 0 0 0 127 0" result="hardAlpha"/>
<feOffset dx="0.46875" dy="-0.46875"/>
<feGaussianBlur stdDeviation="0.46875"/>
<feComposite in2="hardAlpha" operator="arithmetic" k2="-1" k3="1"/>
<feColorMatrix type="matrix" values="0 0 0 0 0.85098 0 0 0 0 0.560784 0 0 0 0 0.376471 0 0 0 1 0"/>
<feBlend mode="normal" in2="shape" result="effect1_innerShadow_667_1468"/>
</filter>
<filter id="filter15_f_667_1468" x="36.3066" y="17.1626" width="5.60938" height="5.60986" filterUnits="userSpaceOnUse" color-interpolation-filters="sRGB">
<feFlood flood-opacity="0" result="BackgroundImageFix"/>
<feBlend mode="normal" in="SourceGraphic" in2="BackgroundImageFix" result="shape"/>
<feGaussianBlur stdDeviation="0.46875" result="effect1_foregroundBlur_667_1468"/>
</filter>
<filter id="filter16_ii_667_1468" x="18.3438" y="3.35645" width="23.6504" height="15.5645" filterUnits="userSpaceOnUse" color-interpolation-filters="sRGB">
<feFlood flood-opacity="0" result="BackgroundImageFix"/>
<feBlend mode="normal" in="SourceGraphic" in2="BackgroundImageFix" result="shape"/>
<feColorMatrix in="SourceAlpha" type="matrix" values="0 0 0 0 0 0 0 0 0 0 0 0 0 0 0 0 0 0 127 0" result="hardAlpha"/>
<feOffset dy="-0.46875"/>
<feGaussianBlur stdDeviation="0.234375"/>
<feComposite in2="hardAlpha" operator="arithmetic" k2="-1" k3="1"/>
<feColorMatrix type="matrix" values="0 0 0 0 0.984314 0 0 0 0 0.584314 0 0 0 0 0.129412 0 0 0 1 0"/>
<feBlend mode="normal" in2="shape" result="effect1_innerShadow_667_1468"/>
<feColorMatrix in="SourceAlpha" type="matrix" values="0 0 0 0 0 0 0 0 0 0 0 0 0 0 0 0 0 0 127 0" result="hardAlpha"/>
<feOffset dy="-0.46875"/>
<feGaussianBlur stdDeviation="0.234375"/>
<feComposite in2="hardAlpha" operator="arithmetic" k2="-1" k3="1"/>
<feColorMatrix type="matrix" values="0 0 0 0 0.972549 0 0 0 0 0.572549 0 0 0 0 0.0156863 0 0 0 1 0"/>
<feBlend mode="normal" in2="effect1_innerShadow_667_1468" result="effect2_innerShadow_667_1468"/>
</filter>
<filter id="filter17_f_667_1468" x="26.6631" y="17.8018" width="6.11523" height="7.84424" filterUnits="userSpaceOnUse" color-interpolation-filters="sRGB">
<feFlood flood-opacity="0" result="BackgroundImageFix"/>
<feBlend mode="normal" in="SourceGraphic" in2="BackgroundImageFix" result="shape"/>
<feGaussianBlur stdDeviation="0.703125" result="effect1_foregroundBlur_667_1468"/>
</filter>
<filter id="filter18_f_667_1468" x="27.9395" y="18.4331" width="4.45996" height="5.96973" filterUnits="userSpaceOnUse" color-interpolation-filters="sRGB">
<feFlood flood-opacity="0" result="BackgroundImageFix"/>
<feBlend mode="normal" in="SourceGraphic" in2="BackgroundImageFix" result="shape"/>
<feGaussianBlur stdDeviation="0.234375" result="effect1_foregroundBlur_667_1468"/>
</filter>
<filter id="filter19_f_667_1468" x="26.7744" y="24.8169" width="6.78906" height="2.7627" filterUnits="userSpaceOnUse" color-interpolation-filters="sRGB">
<feFlood flood-opacity="0" result="BackgroundImageFix"/>
<feBlend mode="normal" in="SourceGraphic" in2="BackgroundImageFix" result="shape"/>
<feGaussianBlur stdDeviation="0.09375" result="effect1_foregroundBlur_667_1468"/>
</filter>
<filter id="filter20_f_667_1468" x="32.8809" y="17.8628" width="1.47656" height="1.30615" filterUnits="userSpaceOnUse" color-interpolation-filters="sRGB">
<feFlood flood-opacity="0" result="BackgroundImageFix"/>
<feBlend mode="normal" in="SourceGraphic" in2="BackgroundImageFix" result="shape"/>
<feGaussianBlur stdDeviation="0.09375" result="effect1_foregroundBlur_667_1468"/>
</filter>
<filter id="filter21_f_667_1468" x="34.4561" y="18.0034" width="1.67188" height="1.71338" filterUnits="userSpaceOnUse" color-interpolation-filters="sRGB">
<feFlood flood-opacity="0" result="BackgroundImageFix"/>
<feBlend mode="normal" in="SourceGraphic" in2="BackgroundImageFix" result="shape"/>
<feGaussianBlur stdDeviation="0.1875" result="effect1_foregroundBlur_667_1468"/>
</filter>
<filter id="filter22_f_667_1468" x="26.1201" y="17.8843" width="1.84961" height="1.95117" filterUnits="userSpaceOnUse" color-interpolation-filters="sRGB">
<feFlood flood-opacity="0" result="BackgroundImageFix"/>
<feBlend mode="normal" in="SourceGraphic" in2="BackgroundImageFix" result="shape"/>
<feGaussianBlur stdDeviation="0.1875" result="effect1_foregroundBlur_667_1468"/>
</filter>
<filter id="filter23_f_667_1468" x="24.7041" y="17.8467" width="1.71289" height="1.32178" filterUnits="userSpaceOnUse" color-interpolation-filters="sRGB">
<feFlood flood-opacity="0" result="BackgroundImageFix"/>
<feBlend mode="normal" in="SourceGraphic" in2="BackgroundImageFix" result="shape"/>
<feGaussianBlur stdDeviation="0.09375" result="effect1_foregroundBlur_667_1468"/>
</filter>
<filter id="filter24_i_667_1468" x="32.54" y="13.5674" width="4.88281" height="3.08984" filterUnits="userSpaceOnUse" color-interpolation-filters="sRGB">
<feFlood flood-opacity="0" result="BackgroundImageFix"/>
<feBlend mode="normal" in="SourceGraphic" in2="BackgroundImageFix" result="shape"/>
<feColorMatrix in="SourceAlpha" type="matrix" values="0 0 0 0 0 0 0 0 0 0 0 0 0 0 0 0 0 0 127 0" result="hardAlpha"/>
<feOffset dy="-0.46875"/>
<feGaussianBlur stdDeviation="0.375"/>
<feComposite in2="hardAlpha" operator="arithmetic" k2="-1" k3="1"/>
<feColorMatrix type="matrix" values="0 0 0 0 0.698039 0 0 0 0 0.25098 0 0 0 0 0.313726 0 0 0 1 0"/>
<feBlend mode="normal" in2="shape" result="effect1_innerShadow_667_1468"/>
</filter>
<filter id="filter25_f_667_1468" x="32.4424" y="13.7305" width="5.0791" height="2.81738" filterUnits="userSpaceOnUse" color-interpolation-filters="sRGB">
<feFlood flood-opacity="0" result="BackgroundImageFix"/>
<feBlend mode="normal" in="SourceGraphic" in2="BackgroundImageFix" result="shape"/>
<feGaussianBlur stdDeviation="0.375" result="effect1_foregroundBlur_667_1468"/>
</filter>
<filter id="filter26_i_667_1468" x="22.9141" y="13.5674" width="4.88379" height="3.08984" filterUnits="userSpaceOnUse" color-interpolation-filters="sRGB">
<feFlood flood-opacity="0" result="BackgroundImageFix"/>
<feBlend mode="normal" in="SourceGraphic" in2="BackgroundImageFix" result="shape"/>
<feColorMatrix in="SourceAlpha" type="matrix" values="0 0 0 0 0 0 0 0 0 0 0 0 0 0 0 0 0 0 127 0" result="hardAlpha"/>
<feOffset dy="-0.46875"/>
<feGaussianBlur stdDeviation="0.375"/>
<feComposite in2="hardAlpha" operator="arithmetic" k2="-1" k3="1"/>
<feColorMatrix type="matrix" values="0 0 0 0 0.698039 0 0 0 0 0.25098 0 0 0 0 0.313726 0 0 0 1 0"/>
<feBlend mode="normal" in2="shape" result="effect1_innerShadow_667_1468"/>
</filter>
<filter id="filter27_f_667_1468" x="22.8164" y="13.7305" width="5.0791" height="2.81738" filterUnits="userSpaceOnUse" color-interpolation-filters="sRGB">
<feFlood flood-opacity="0" result="BackgroundImageFix"/>
<feBlend mode="normal" in="SourceGraphic" in2="BackgroundImageFix" result="shape"/>
<feGaussianBlur stdDeviation="0.375" result="effect1_foregroundBlur_667_1468"/>
</filter>
<filter id="filter28_ii_667_1468" x="20.4453" y="16.6367" width="19.2939" height="7.6123" filterUnits="userSpaceOnUse" color-interpolation-filters="sRGB">
<feFlood flood-opacity="0" result="BackgroundImageFix"/>
<feBlend mode="normal" in="SourceGraphic" in2="BackgroundImageFix" result="shape"/>
<feColorMatrix in="SourceAlpha" type="matrix" values="0 0 0 0 0 0 0 0 0 0 0 0 0 0 0 0 0 0 127 0" result="hardAlpha"/>
<feOffset dx="-0.1875" dy="0.1875"/>
<feGaussianBlur stdDeviation="0.09375"/>
<feComposite in2="hardAlpha" operator="arithmetic" k2="-1" k3="1"/>
<feColorMatrix type="matrix" values="0 0 0 0 0.376863 0 0 0 0 0.313721 0 0 0 0 0.444863 0 0 0 1 0"/>
<feBlend mode="normal" in2="shape" result="effect1_innerShadow_667_1468"/>
<feColorMatrix in="SourceAlpha" type="matrix" values="0 0 0 0 0 0 0 0 0 0 0 0 0 0 0 0 0 0 127 0" result="hardAlpha"/>
<feOffset dy="0.1875"/>
<feGaussianBlur stdDeviation="0.09375"/>
<feComposite in2="hardAlpha" operator="arithmetic" k2="-1" k3="1"/>
<feColorMatrix type="matrix" values="0 0 0 0 0.25098 0 0 0 0 0.160784 0 0 0 0 0.321569 0 0 0 1 0"/>
<feBlend mode="normal" in2="effect1_innerShadow_667_1468" result="effect2_innerShadow_667_1468"/>
</filter>
<linearGradient id="paint0_linear_667_1468" x1="22.1967" y1="8.43674" x2="58.6518" y2="42.6283" gradientUnits="userSpaceOnUse">
<stop stop-color="#EFBE85"/>
<stop offset="0.567876" stop-color="#E8AC81"/>
<stop offset="1" stop-color="#D6753D"/>
</linearGradient>
<linearGradient id="paint1_linear_667_1468" x1="56.4042" y1="24.7266" x2="17.1464" y2="24.7266" gradientUnits="userSpaceOnUse">
<stop stop-color="#509245"/>
<stop offset="1" stop-color="#44803D"/>
</linearGradient>
<radialGradient id="paint2_radial_667_1468" cx="0" cy="0" r="1" gradientUnits="userSpaceOnUse" gradientTransform="translate(12.1074 48.0469) rotate(-56.7456) scale(34.1931 46.7972)">
<stop stop-color="#25585F"/>
<stop offset="1" stop-color="#25585F" stop-opacity="0"/>
</radialGradient>
<radialGradient id="paint3_radial_667_1468" cx="0" cy="0" r="1" gradientUnits="userSpaceOnUse" gradientTransform="translate(55.4667 47.5781) rotate(-125.417) scale(32.3541 32.0029)">
<stop stop-color="#358175"/>
<stop offset="1" stop-color="#358175" stop-opacity="0"/>
</radialGradient>
<linearGradient id="paint4_linear_667_1468" x1="25.2324" y1="6.45019" x2="58.6309" y2="45.4737" gradientUnits="userSpaceOnUse">
<stop stop-color="#FFD59C"/>
<stop offset="1" stop-color="#F69C5B"/>
</linearGradient>
<linearGradient id="paint5_linear_667_1468" x1="-9.16215" y1="47.8712" x2="54.2364" y2="47.8712" gradientUnits="userSpaceOnUse">
<stop stop-color="#D18F7B"/>
<stop offset="1" stop-color="#F1B58B"/>
</linearGradient>
<linearGradient id="paint6_linear_667_1468" x1="5.83785" y1="9.55089" x2="5.83785" y2="44.1212" gradientUnits="userSpaceOnUse">
<stop stop-color="#D78248"/>
<stop offset="1" stop-color="#D78248" stop-opacity="0"/>
</linearGradient>
<radialGradient id="paint7_radial_667_1468" cx="0" cy="0" r="1" gradientUnits="userSpaceOnUse" gradientTransform="translate(3.79492 7.89502) rotate(90) scale(17.4588 1.15808)">
<stop offset="0.355159" stop-color="#BC7B53"/>
<stop offset="1" stop-color="#BC7B53" stop-opacity="0"/>
</radialGradient>
<radialGradient id="paint8_radial_667_1468" cx="0" cy="0" r="1" gradientUnits="userSpaceOnUse" gradientTransform="translate(30.0369 29.7072) rotate(90) scale(26.3379 11.66)">
<stop stop-color="#61342D"/>
<stop offset="1" stop-color="#764747"/>
</radialGradient>
<radialGradient id="paint9_radial_667_1468" cx="0" cy="0" r="1" gradientUnits="userSpaceOnUse" gradientTransform="translate(42.5176 38.2032) rotate(90) scale(15.7031 5.50781)">
<stop stop-color="#9A6D66"/>
<stop offset="1" stop-color="#9A6D66" stop-opacity="0"/>
</radialGradient>
<radialGradient id="paint10_radial_667_1468" cx="0" cy="0" r="1" gradientUnits="userSpaceOnUse" gradientTransform="translate(23.8848 35.5664) rotate(135) scale(4.06033 3.27313)">
<stop stop-color="#61332B"/>
<stop offset="1" stop-color="#61332B" stop-opacity="0"/>
</radialGradient>
<radialGradient id="paint11_radial_667_1468" cx="0" cy="0" r="1" gradientUnits="userSpaceOnUse" gradientTransform="translate(50.6508 52.7347) rotate(-90) scale(19.1016 7.22074)">
<stop stop-color="#7C5A5A"/>
<stop offset="1" stop-color="#735451"/>
</radialGradient>
<linearGradient id="paint12_linear_667_1468" x1="47.2372" y1="56.8967" x2="47.2372" y2="49.74" gradientUnits="userSpaceOnUse">
<stop stop-color="#614451"/>
<stop offset="1" stop-color="#614451" stop-opacity="0"/>
</linearGradient>
<linearGradient id="paint13_linear_667_1468" x1="42.0483" y1="54.6684" x2="43.5717" y2="54.639" gradientUnits="userSpaceOnUse">
<stop offset="0.253974" stop-color="#4F2737"/>
<stop offset="1" stop-color="#4F2737" stop-opacity="0"/>
</linearGradient>
<linearGradient id="paint14_linear_667_1468" x1="13.4133" y1="52.5712" x2="17.9031" y2="52.5712" gradientUnits="userSpaceOnUse">
<stop stop-color="#623D44"/>
<stop offset="1" stop-color="#4F2E37"/>
</linearGradient>
<radialGradient id="paint15_radial_667_1468" cx="0" cy="0" r="1" gradientUnits="userSpaceOnUse" gradientTransform="translate(21.5208 55.6384) rotate(180) scale(12.9763 32.4013)">
<stop offset="0.575758" stop-color="#5D3841" stop-opacity="0"/>
<stop offset="1" stop-color="#7F6260"/>
</radialGradient>
<radialGradient id="paint16_radial_667_1468" cx="0" cy="0" r="1" gradientUnits="userSpaceOnUse" gradientTransform="translate(28.514 37.8517) scale(6.73828 22.1192)">
<stop stop-color="#BFAABA"/>
<stop offset="1" stop-color="#7A5D72"/>
</radialGradient>
<linearGradient id="paint17_linear_667_1468" x1="33.8887" y1="34.247" x2="39.1327" y2="34.247" gradientUnits="userSpaceOnUse">
<stop stop-color="#613327"/>
<stop offset="0.371011" stop-color="#764440"/>
</linearGradient>
<radialGradient id="paint18_radial_667_1468" cx="0" cy="0" r="1" gradientUnits="userSpaceOnUse" gradientTransform="translate(39.8452 36.2525) rotate(-115.221) scale(7.01336 4.24226)">
<stop stop-color="#90645E"/>
<stop offset="1" stop-color="#90645E" stop-opacity="0"/>
</radialGradient>
<radialGradient id="paint19_radial_667_1468" cx="0" cy="0" r="1" gradientUnits="userSpaceOnUse" gradientTransform="translate(36.922 38.1448) rotate(-125.283) scale(3.06855 0.558861)">
<stop stop-color="#8A5D57"/>
<stop offset="1" stop-color="#8A5D57" stop-opacity="0"/>
</radialGradient>
<radialGradient id="paint20_radial_667_1468" cx="0" cy="0" r="1" gradientUnits="userSpaceOnUse" gradientTransform="translate(33.7254 30.674) rotate(69.6775) scale(1.78077 3.33328)">
<stop offset="0.358549" stop-color="#481E13"/>
<stop offset="1" stop-color="#4A1D14" stop-opacity="0"/>
</radialGradient>
<linearGradient id="paint21_linear_667_1468" x1="26.1825" y1="34.247" x2="20.9385" y2="34.247" gradientUnits="userSpaceOnUse">
<stop stop-color="#744036"/>
<stop offset="0.639259" stop-color="#72433E"/>
</linearGradient>
<radialGradient id="paint22_radial_667_1468" cx="0" cy="0" r="1" gradientUnits="userSpaceOnUse" gradientTransform="translate(25.379 37.9691) rotate(-88.8542) scale(5.86054 2.36732)">
<stop stop-color="#875955"/>
<stop offset="1" stop-color="#875955" stop-opacity="0"/>
</radialGradient>
<linearGradient id="paint23_linear_667_1468" x1="22.7424" y1="31.553" x2="23.7971" y2="31.9631" gradientUnits="userSpaceOnUse">
<stop stop-color="#6F5048"/>
<stop offset="1" stop-color="#6F5048" stop-opacity="0"/>
</linearGradient>
<radialGradient id="paint24_radial_667_1468" cx="0" cy="0" r="1" gradientUnits="userSpaceOnUse" gradientTransform="translate(26.346 30.674) rotate(115.115) scale(2.07077 3.87611)">
<stop offset="0.219333" stop-color="#481E13"/>
<stop offset="1" stop-color="#4A1D14" stop-opacity="0"/>
</radialGradient>
<radialGradient id="paint25_radial_667_1468" cx="0" cy="0" r="1" gradientUnits="userSpaceOnUse" gradientTransform="translate(30.0451 32.1096) rotate(90) scale(6.26953 4.72455)">
<stop offset="0.333333" stop-color="#BC7120"/>
<stop offset="1" stop-color="#6C3A0B"/>
</radialGradient>
<radialGradient id="paint26_radial_667_1468" cx="0" cy="0" r="1" gradientUnits="userSpaceOnUse" gradientTransform="translate(43.25 44.1064) rotate(135) scale(2.65164 2.96539)">
<stop stop-color="#FFE549"/>
<stop offset="0.813629" stop-color="#FEAE1B"/>
</radialGradient>
<radialGradient id="paint27_radial_667_1468" cx="0" cy="0" r="1" gradientUnits="userSpaceOnUse" gradientTransform="translate(17.0296 45.9668) scale(2.98768 9.36141)">
<stop offset="0.213333" stop-color="#DF9A32"/>
<stop offset="1" stop-color="#B36C17"/>
</radialGradient>
<linearGradient id="paint28_linear_667_1468" x1="40.9932" y1="46.2893" x2="32.7901" y2="46.2893" gradientUnits="userSpaceOnUse">
<stop stop-color="#E9266F"/>
<stop offset="1" stop-color="#BF1B74"/>
</linearGradient>
<linearGradient id="paint29_linear_667_1468" x1="19.375" y1="44.0038" x2="20.1777" y2="44.0038" gradientUnits="userSpaceOnUse">
<stop stop-color="#6D6670"/>
<stop offset="1" stop-color="#6D6670" stop-opacity="0"/>
</linearGradient>
<linearGradient id="paint30_linear_667_1468" x1="23.4743" y1="52.3243" x2="16.0915" y2="52.3243" gradientUnits="userSpaceOnUse">
<stop stop-color="#FFD743"/>
<stop offset="1" stop-color="#F19E2D"/>
</linearGradient>
<linearGradient id="paint31_linear_667_1468" x1="42.1658" y1="51.5625" x2="35.0136" y2="51.5625" gradientUnits="userSpaceOnUse">
<stop stop-color="#FFE243"/>
<stop offset="1" stop-color="#FFAB30"/>
</linearGradient>
<linearGradient id="paint32_linear_667_1468" x1="20.251" y1="40.9572" x2="40.6377" y2="40.9572" gradientUnits="userSpaceOnUse">
<stop stop-color="#564567"/>
<stop offset="1" stop-color="#564567"/>
</linearGradient>
<linearGradient id="paint33_linear_667_1468" x1="30.7886" y1="39.1993" x2="30.7886" y2="41.3964" gradientUnits="userSpaceOnUse">
<stop stop-color="#DCD5E1"/>
<stop offset="1" stop-color="#B2ACB9"/>
</linearGradient>
<linearGradient id="paint34_linear_667_1468" x1="-nan" y1="-nan" x2="-nan" y2="-nan" gradientUnits="userSpaceOnUse">
<stop stop-color="#D27619"/>
<stop offset="1" stop-color="#D27619" stop-opacity="0"/>
</linearGradient>
<linearGradient id="paint35_linear_667_1468" x1="-nan" y1="-nan" x2="-nan" y2="-nan" gradientUnits="userSpaceOnUse">
<stop stop-color="#FFB60A"/>
<stop offset="1" stop-color="#FFB60A" stop-opacity="0"/>
</linearGradient>
<linearGradient id="paint36_linear_667_1468" x1="-nan" y1="-nan" x2="-nan" y2="-nan" gradientUnits="userSpaceOnUse">
<stop stop-color="#D27619"/>
<stop offset="1" stop-color="#D27619" stop-opacity="0"/>
</linearGradient>
<linearGradient id="paint37_linear_667_1468" x1="-nan" y1="-nan" x2="-nan" y2="-nan" gradientUnits="userSpaceOnUse">
<stop stop-color="#FFB60A"/>
<stop offset="1" stop-color="#FFB60A" stop-opacity="0"/>
</linearGradient>
<linearGradient id="paint38_linear_667_1468" x1="-nan" y1="-nan" x2="-nan" y2="-nan" gradientUnits="userSpaceOnUse">
<stop stop-color="#D27619"/>
<stop offset="1" stop-color="#D27619" stop-opacity="0"/>
</linearGradient>
<linearGradient id="paint39_linear_667_1468" x1="-nan" y1="-nan" x2="-nan" y2="-nan" gradientUnits="userSpaceOnUse">
<stop stop-color="#FFB60A"/>
<stop offset="1" stop-color="#FFB60A" stop-opacity="0"/>
</linearGradient>
<radialGradient id="paint40_radial_667_1468" cx="0" cy="0" r="1" gradientUnits="userSpaceOnUse" gradientTransform="translate(18.125 19.9677) scale(3.29348 5.76362)">
<stop offset="0.350532" stop-color="#E6962B"/>
<stop offset="1" stop-color="#CA8F29"/>
</radialGradient>
<linearGradient id="paint41_linear_667_1468" x1="21.258" y1="20.4906" x2="20.0557" y2="20.4906" gradientUnits="userSpaceOnUse">
<stop stop-color="#BD6A1E"/>
<stop offset="1" stop-color="#D77A1C"/>
</linearGradient>
<linearGradient id="paint42_linear_667_1468" x1="41.1516" y1="17.9191" x2="39.6152" y2="22.6791" gradientUnits="userSpaceOnUse">
<stop stop-color="#FFE446"/>
<stop offset="1" stop-color="#FFC339"/>
</linearGradient>
<radialGradient id="paint43_radial_667_1468" cx="0" cy="0" r="1" gradientUnits="userSpaceOnUse" gradientTransform="translate(39.8109 19.4706) rotate(-36.0604) scale(1.91927 2.1906)">
<stop offset="0.542503" stop-color="#FFC532"/>
<stop offset="1" stop-color="#FFC532" stop-opacity="0"/>
</radialGradient>
<radialGradient id="paint44_radial_667_1468" cx="0" cy="0" r="1" gradientUnits="userSpaceOnUse" gradientTransform="translate(39.0339 21.5089) rotate(-61.4675) scale(3.22684 1.88869)">
<stop offset="0.689542" stop-color="#F4A51A" stop-opacity="0"/>
<stop offset="1" stop-color="#F4A51A"/>
</radialGradient>
<radialGradient id="paint45_radial_667_1468" cx="0" cy="0" r="1" gradientUnits="userSpaceOnUse" gradientTransform="translate(39.1115 19.9674) rotate(44.7077) scale(0.684709 0.882685)">
<stop stop-color="#E59B1F"/>
<stop offset="1" stop-color="#E59B1F" stop-opacity="0"/>
</radialGradient>
<linearGradient id="paint46_linear_667_1468" x1="37.7432" y1="20.6985" x2="23.4107" y2="22.8343" gradientUnits="userSpaceOnUse">
<stop stop-color="#FFE833"/>
<stop offset="0.91602" stop-color="#F9A528"/>
</linearGradient>
<linearGradient id="paint47_linear_667_1468" x1="20.0418" y1="25.7582" x2="24.3819" y2="25.1921" gradientUnits="userSpaceOnUse">
<stop stop-color="#D19C3A"/>
<stop offset="1" stop-color="#D19C3A" stop-opacity="0"/>
</linearGradient>
<radialGradient id="paint48_radial_667_1468" cx="0" cy="0" r="1" gradientUnits="userSpaceOnUse" gradientTransform="translate(31.0899 16.9815) rotate(90) scale(16.1133 18.3984)">
<stop offset="0.56" stop-color="#F49A3E" stop-opacity="0"/>
<stop offset="1" stop-color="#D07F50"/>
</radialGradient>
<radialGradient id="paint49_radial_667_1468" cx="0" cy="0" r="1" gradientUnits="userSpaceOnUse" gradientTransform="translate(34.5718 17.5812) rotate(-90) scale(2.4531 3.01918)">
<stop stop-color="#FFBA0D"/>
<stop offset="1" stop-color="#FFBA0D" stop-opacity="0"/>
</radialGradient>
<radialGradient id="paint50_radial_667_1468" cx="0" cy="0" r="1" gradientUnits="userSpaceOnUse" gradientTransform="translate(26.0173 17.5183) rotate(-90) scale(2.61034 3.24619)">
<stop stop-color="#EE911A"/>
<stop offset="1" stop-color="#EE911A" stop-opacity="0"/>
</radialGradient>
<radialGradient id="paint51_radial_667_1468" cx="0" cy="0" r="1" gradientUnits="userSpaceOnUse" gradientTransform="translate(37.0984 5.49216) rotate(127.807) scale(10.5215 17.8928)">
<stop stop-color="#FFE336"/>
<stop offset="1" stop-color="#FFE336" stop-opacity="0"/>
</radialGradient>
<linearGradient id="paint52_linear_667_1468" x1="21.046" y1="19.4664" x2="26.4923" y2="9.79193" gradientUnits="userSpaceOnUse">
<stop stop-color="#E07027"/>
<stop offset="1" stop-color="#E07027" stop-opacity="0"/>
</linearGradient>
<radialGradient id="paint53_radial_667_1468" cx="0" cy="0" r="1" gradientUnits="userSpaceOnUse" gradientTransform="translate(22.4065 13.1397) rotate(-95.2901) scale(3.75547 1.8444)">
<stop offset="0.22158" stop-color="#FFB42C"/>
<stop offset="1" stop-color="#FFB42C" stop-opacity="0"/>
</radialGradient>
<radialGradient id="paint54_radial_667_1468" cx="0" cy="0" r="1" gradientUnits="userSpaceOnUse" gradientTransform="translate(38.1017 16.7074) rotate(-66.3998) scale(4.0275 3.28474)">
<stop offset="0.478737" stop-color="#E57D1C"/>
<stop offset="1" stop-color="#E57D1C" stop-opacity="0"/>
</radialGradient>
<radialGradient id="paint55_radial_667_1468" cx="0" cy="0" r="1" gradientUnits="userSpaceOnUse" gradientTransform="translate(28.7138 3.8252) rotate(51.1339) scale(2.96929 2.62166)">
<stop stop-color="#FFCE2C"/>
<stop offset="1" stop-color="#FFCE2C" stop-opacity="0"/>
</radialGradient>
<radialGradient id="paint56_radial_667_1468" cx="0" cy="0" r="1" gradientUnits="userSpaceOnUse" gradientTransform="translate(38.0301 12.0493) rotate(-64.4528) scale(6.31459 2.18177)">
<stop stop-color="#FFD93A"/>
<stop offset="1" stop-color="#FFD93A" stop-opacity="0"/>
</radialGradient>
<radialGradient id="paint57_radial_667_1468" cx="0" cy="0" r="1" gradientUnits="userSpaceOnUse" gradientTransform="translate(31.4729 3.8252) rotate(75.569) scale(1.9668 3.23351)">
<stop offset="0.207744" stop-color="#DDB13B"/>
<stop offset="1" stop-color="#FFC926" stop-opacity="0"/>
</radialGradient>
<radialGradient id="paint58_radial_667_1468" cx="0" cy="0" r="1" gradientUnits="userSpaceOnUse" gradientTransform="translate(21.9449 6.19161) rotate(55.3048) scale(3.64978 7.59516)">
<stop offset="0.288" stop-color="#C9993E"/>
<stop offset="1" stop-color="#F29322" stop-opacity="0"/>
</radialGradient>
<radialGradient id="paint59_radial_667_1468" cx="0" cy="0" r="1" gradientUnits="userSpaceOnUse" gradientTransform="translate(32.3324 11.7777) rotate(155.748) scale(14.8361 18.5642)">
<stop offset="0.756258" stop-color="#CF7D35" stop-opacity="0"/>
<stop offset="0.958595" stop-color="#CF7D35"/>
</radialGradient>
<linearGradient id="paint60_linear_667_1468" x1="28.5474" y1="21.9355" x2="30.3082" y2="21.9355" gradientUnits="userSpaceOnUse">
<stop stop-color="#FAA416"/>
<stop offset="1" stop-color="#FAA416" stop-opacity="0"/>
</linearGradient>
<linearGradient id="paint61_linear_667_1468" x1="31.9306" y1="22.5408" x2="30.0056" y2="22.5132" gradientUnits="userSpaceOnUse">
<stop stop-color="#FFE721"/>
<stop offset="1" stop-color="#FFE721" stop-opacity="0"/>
</linearGradient>
<linearGradient id="paint62_linear_667_1468" x1="30.5345" y1="23.9339" x2="30.5345" y2="22.8584" gradientUnits="userSpaceOnUse">
<stop stop-color="#EB8A1C"/>
<stop offset="1" stop-color="#EB8A1C" stop-opacity="0"/>
</linearGradient>
<linearGradient id="paint63_linear_667_1468" x1="30.4053" y1="24.0124" x2="30.4053" y2="23.698" gradientUnits="userSpaceOnUse">
<stop stop-color="#E88613"/>
<stop offset="1" stop-color="#E88613" stop-opacity="0"/>
</linearGradient>
<radialGradient id="paint64_radial_667_1468" cx="0" cy="0" r="1" gradientUnits="userSpaceOnUse" gradientTransform="translate(30.0099 27.4969) rotate(-87.7543) scale(1.17815 3.53445)">
<stop stop-color="#FFD069"/>
<stop offset="1" stop-color="#FFBE30" stop-opacity="0"/>
</radialGradient>
<radialGradient id="paint65_radial_667_1468" cx="0" cy="0" r="1" gradientUnits="userSpaceOnUse" gradientTransform="translate(34.2584 19.3136) rotate(90) scale(1.69502 2.00565)">
<stop offset="0.75" stop-color="#925C51"/>
<stop offset="1" stop-color="#85534D"/>
</radialGradient>
<radialGradient id="paint66_radial_667_1468" cx="0" cy="0" r="1" gradientTransform="matrix(-0.435157 -0.560758 0.77203 -0.599105 33.8302 18.8458)" gradientUnits="userSpaceOnUse">
<stop offset="0.765532" stop-color="#FFE6E2" stop-opacity="0"/>
<stop offset="0.966159" stop-color="#FFE6E2"/>
</radialGradient>
<linearGradient id="paint67_linear_667_1468" x1="35.7172" y1="18.7887" x2="35.1284" y2="19.1516" gradientUnits="userSpaceOnUse">
<stop stop-color="#B4948D"/>
<stop offset="1" stop-color="#B4948D" stop-opacity="0"/>
</linearGradient>
<radialGradient id="paint68_radial_667_1468" cx="0" cy="0" r="1" gradientUnits="userSpaceOnUse" gradientTransform="translate(26.0699 19.3136) rotate(90) scale(1.69511 2.00574)">
<stop offset="0.75" stop-color="#925C51"/>
<stop offset="1" stop-color="#85534D"/>
</radialGradient>
<linearGradient id="paint69_linear_667_1468" x1="27.4649" y1="18.7886" x2="26.8761" y2="19.1513" gradientUnits="userSpaceOnUse">
<stop stop-color="#B4948D"/>
<stop offset="1" stop-color="#B4948D" stop-opacity="0"/>
</linearGradient>
<radialGradient id="paint70_radial_667_1468" cx="0" cy="0" r="1" gradientUnits="userSpaceOnUse" gradientTransform="translate(25.812 19.043) rotate(-118.811) scale(0.927183 1.11451)">
<stop offset="0.765532" stop-color="#FFE6E2" stop-opacity="0"/>
<stop offset="0.966159" stop-color="#FFE6E2"/>
</radialGradient>
<radialGradient id="paint71_radial_667_1468" cx="0" cy="0" r="1" gradientUnits="userSpaceOnUse" gradientTransform="translate(34.7689 15.8402) rotate(-76.373) scale(1.56762 3.43912)">
<stop offset="0.656765" stop-color="#C64F38"/>
<stop offset="1" stop-color="#BB4F29"/>
</radialGradient>
<radialGradient id="paint72_radial_667_1468" cx="0" cy="0" r="1" gradientUnits="userSpaceOnUse" gradientTransform="translate(25.5686 15.8402) rotate(-103.627) scale(1.56762 3.43913)">
<stop offset="0.656765" stop-color="#C64F38"/>
<stop offset="1" stop-color="#BB4F29"/>
</radialGradient>
<linearGradient id="paint73_linear_667_1468" x1="43.031" y1="13.6082" x2="30.1871" y2="26.4522" gradientUnits="userSpaceOnUse">
<stop stop-color="#52336D"/>
<stop offset="1" stop-color="#3C2850"/>
</linearGradient>
<radialGradient id="paint74_radial_667_1468" cx="0" cy="0" r="1" gradientUnits="userSpaceOnUse" gradientTransform="translate(21.3656 19.468) scale(1.69922 5.09766)">
<stop stop-color="#52396B"/>
<stop offset="1" stop-color="#52396B" stop-opacity="0"/>
</radialGradient>
</defs>
</svg>
