<svg width="60" height="60" viewBox="0 0 60 60" fill="none" xmlns="http://www.w3.org/2000/svg">
<g filter="url(#filter0_i_668_1661)">
<path d="M55.0942 46.8748H4.93789C4.30039 46.8748 3.77539 46.3498 3.77539 45.7123V8.68106C3.77539 8.04356 4.30039 7.51855 4.93789 7.51855H55.0754C55.7317 7.51855 56.2379 8.04356 56.2379 8.68106V45.6935C56.2567 46.3498 55.7317 46.8748 55.0942 46.8748Z" fill="url(#paint0_linear_668_1661)"/>
</g>
<path d="M5.65039 44.9998V9.39355H54.3817V44.9998H5.65039Z" fill="url(#paint1_linear_668_1661)"/>
<path d="M5.65039 44.9998V9.39355H54.3817V44.9998H5.65039Z" fill="url(#paint2_radial_668_1661)"/>
<path d="M5.65039 44.9998V9.39355H54.3817V44.9998H5.65039Z" fill="url(#paint3_radial_668_1661)"/>
<g filter="url(#filter1_f_668_1661)">
<path d="M6.05273 8.25635H55.2012C55.3047 8.25635 55.3887 8.34029 55.3887 8.44385V45.1653" stroke="url(#paint4_linear_668_1661)" stroke-width="0.5625" stroke-linecap="round"/>
</g>
<g filter="url(#filter2_i_668_1661)">
<path d="M54.3817 45.0004H5.65039V9.39414L3.92539 8.11914C3.83164 8.28789 3.77539 8.49414 3.77539 8.68164V45.6942C3.77539 46.3504 4.30039 46.8567 4.93789 46.8567H55.0754C55.5254 46.8567 55.9004 46.6129 56.1067 46.2379L54.3817 45.0004Z" fill="url(#paint5_linear_668_1661)"/>
<path d="M54.3817 45.0004H5.65039V9.39414L3.92539 8.11914C3.83164 8.28789 3.77539 8.49414 3.77539 8.68164V45.6942C3.77539 46.3504 4.30039 46.8567 4.93789 46.8567H55.0754C55.5254 46.8567 55.9004 46.6129 56.1067 46.2379L54.3817 45.0004Z" fill="url(#paint6_linear_668_1661)"/>
<path d="M54.3817 45.0004H5.65039V9.39414L3.92539 8.11914C3.83164 8.28789 3.77539 8.49414 3.77539 8.68164V45.6942C3.77539 46.3504 4.30039 46.8567 4.93789 46.8567H55.0754C55.5254 46.8567 55.9004 46.6129 56.1067 46.2379L54.3817 45.0004Z" fill="url(#paint7_radial_668_1661)"/>
</g>
<g filter="url(#filter3_i_668_1661)">
<path fill-rule="evenodd" clip-rule="evenodd" d="M43.5496 22.7545C43.9499 21.9349 44.1595 21.0199 44.1595 20.0669C44.1595 19.1868 43.9784 18.3609 43.6536 17.608H43.6638C43.5123 17.2671 43.3418 16.9451 43.1341 16.6418L43.1303 16.6359C42.4821 15.6448 42.139 14.482 42.139 13.3003V13.2812C42.139 9.85023 39.3561 7.06732 35.9253 7.06732C35.5821 7.06732 35.2581 6.91484 35.0675 6.62892C33.9428 5.06592 32.0937 4.03662 30.016 4.03662C27.9385 4.03662 26.0896 5.06592 24.965 6.62892C24.7743 6.89577 24.4503 7.06732 24.1071 7.06732C24.0537 7.06732 24.0003 7.06801 23.947 7.06936C20.59 7.15435 17.8933 9.90376 17.8933 13.2812V13.3003C17.8933 14.482 17.5502 15.6448 16.9021 16.6359L16.8978 16.6428C16.2525 17.6325 15.873 18.7928 15.873 20.0669C15.873 21.0391 16.1018 21.9349 16.483 22.7545C16.6164 23.0213 16.6164 23.3453 16.483 23.6123C16.1018 24.4128 15.873 25.3086 15.873 26.2617C15.873 29.6164 18.5797 32.3232 21.9344 32.3232H38.0982C41.453 32.3232 44.1595 29.6164 44.1595 26.2617C44.1595 25.3086 43.9308 24.4128 43.5496 23.6123C43.4161 23.3453 43.4161 23.0213 43.5496 22.7545ZM20.4576 17.7211H20.4346L22.6923 22.1577C22.9244 27.4362 24.9845 22.1577 30.016 22.1577C35.0478 22.1577 37.2419 28.033 37.474 22.7545L39.6136 16.7327C39.5123 14.3881 37.8132 14.2236 37.474 14.2236H31.4091C29.0142 14.2236 26.7543 13.0513 25.4024 11.0719C25.1705 10.7452 24.6876 10.8029 24.5331 11.168L24.3786 11.5331C23.9538 12.5901 23.1425 13.3972 22.138 13.8584C22.1091 13.868 22.0754 13.8824 22.0415 13.8969C22.0077 13.9113 21.974 13.9257 21.9449 13.9353C21.5007 14.1659 20.4576 14.8577 20.419 16.6449L20.4383 17.2214L20.4576 17.7211Z" fill="url(#paint8_linear_668_1661)"/>
<path fill-rule="evenodd" clip-rule="evenodd" d="M43.5496 22.7545C43.9499 21.9349 44.1595 21.0199 44.1595 20.0669C44.1595 19.1868 43.9784 18.3609 43.6536 17.608H43.6638C43.5123 17.2671 43.3418 16.9451 43.1341 16.6418L43.1303 16.6359C42.4821 15.6448 42.139 14.482 42.139 13.3003V13.2812C42.139 9.85023 39.3561 7.06732 35.9253 7.06732C35.5821 7.06732 35.2581 6.91484 35.0675 6.62892C33.9428 5.06592 32.0937 4.03662 30.016 4.03662C27.9385 4.03662 26.0896 5.06592 24.965 6.62892C24.7743 6.89577 24.4503 7.06732 24.1071 7.06732C24.0537 7.06732 24.0003 7.06801 23.947 7.06936C20.59 7.15435 17.8933 9.90376 17.8933 13.2812V13.3003C17.8933 14.482 17.5502 15.6448 16.9021 16.6359L16.8978 16.6428C16.2525 17.6325 15.873 18.7928 15.873 20.0669C15.873 21.0391 16.1018 21.9349 16.483 22.7545C16.6164 23.0213 16.6164 23.3453 16.483 23.6123C16.1018 24.4128 15.873 25.3086 15.873 26.2617C15.873 29.6164 18.5797 32.3232 21.9344 32.3232H38.0982C41.453 32.3232 44.1595 29.6164 44.1595 26.2617C44.1595 25.3086 43.9308 24.4128 43.5496 23.6123C43.4161 23.3453 43.4161 23.0213 43.5496 22.7545ZM20.4576 17.7211H20.4346L22.6923 22.1577C22.9244 27.4362 24.9845 22.1577 30.016 22.1577C35.0478 22.1577 37.2419 28.033 37.474 22.7545L39.6136 16.7327C39.5123 14.3881 37.8132 14.2236 37.474 14.2236H31.4091C29.0142 14.2236 26.7543 13.0513 25.4024 11.0719C25.1705 10.7452 24.6876 10.8029 24.5331 11.168L24.3786 11.5331C23.9538 12.5901 23.1425 13.3972 22.138 13.8584C22.1091 13.868 22.0754 13.8824 22.0415 13.8969C22.0077 13.9113 21.974 13.9257 21.9449 13.9353C21.5007 14.1659 20.4576 14.8577 20.419 16.6449L20.4383 17.2214L20.4576 17.7211Z" fill="url(#paint9_radial_668_1661)"/>
<path fill-rule="evenodd" clip-rule="evenodd" d="M43.5496 22.7545C43.9499 21.9349 44.1595 21.0199 44.1595 20.0669C44.1595 19.1868 43.9784 18.3609 43.6536 17.608H43.6638C43.5123 17.2671 43.3418 16.9451 43.1341 16.6418L43.1303 16.6359C42.4821 15.6448 42.139 14.482 42.139 13.3003V13.2812C42.139 9.85023 39.3561 7.06732 35.9253 7.06732C35.5821 7.06732 35.2581 6.91484 35.0675 6.62892C33.9428 5.06592 32.0937 4.03662 30.016 4.03662C27.9385 4.03662 26.0896 5.06592 24.965 6.62892C24.7743 6.89577 24.4503 7.06732 24.1071 7.06732C24.0537 7.06732 24.0003 7.06801 23.947 7.06936C20.59 7.15435 17.8933 9.90376 17.8933 13.2812V13.3003C17.8933 14.482 17.5502 15.6448 16.9021 16.6359L16.8978 16.6428C16.2525 17.6325 15.873 18.7928 15.873 20.0669C15.873 21.0391 16.1018 21.9349 16.483 22.7545C16.6164 23.0213 16.6164 23.3453 16.483 23.6123C16.1018 24.4128 15.873 25.3086 15.873 26.2617C15.873 29.6164 18.5797 32.3232 21.9344 32.3232H38.0982C41.453 32.3232 44.1595 29.6164 44.1595 26.2617C44.1595 25.3086 43.9308 24.4128 43.5496 23.6123C43.4161 23.3453 43.4161 23.0213 43.5496 22.7545ZM20.4576 17.7211H20.4346L22.6923 22.1577C22.9244 27.4362 24.9845 22.1577 30.016 22.1577C35.0478 22.1577 37.2419 28.033 37.474 22.7545L39.6136 16.7327C39.5123 14.3881 37.8132 14.2236 37.474 14.2236H31.4091C29.0142 14.2236 26.7543 13.0513 25.4024 11.0719C25.1705 10.7452 24.6876 10.8029 24.5331 11.168L24.3786 11.5331C23.9538 12.5901 23.1425 13.3972 22.138 13.8584C22.1091 13.868 22.0754 13.8824 22.0415 13.8969C22.0077 13.9113 21.974 13.9257 21.9449 13.9353C21.5007 14.1659 20.4576 14.8577 20.419 16.6449L20.4383 17.2214L20.4576 17.7211Z" fill="url(#paint10_radial_668_1661)"/>
<path fill-rule="evenodd" clip-rule="evenodd" d="M43.5496 22.7545C43.9499 21.9349 44.1595 21.0199 44.1595 20.0669C44.1595 19.1868 43.9784 18.3609 43.6536 17.608H43.6638C43.5123 17.2671 43.3418 16.9451 43.1341 16.6418L43.1303 16.6359C42.4821 15.6448 42.139 14.482 42.139 13.3003V13.2812C42.139 9.85023 39.3561 7.06732 35.9253 7.06732C35.5821 7.06732 35.2581 6.91484 35.0675 6.62892C33.9428 5.06592 32.0937 4.03662 30.016 4.03662C27.9385 4.03662 26.0896 5.06592 24.965 6.62892C24.7743 6.89577 24.4503 7.06732 24.1071 7.06732C24.0537 7.06732 24.0003 7.06801 23.947 7.06936C20.59 7.15435 17.8933 9.90376 17.8933 13.2812V13.3003C17.8933 14.482 17.5502 15.6448 16.9021 16.6359L16.8978 16.6428C16.2525 17.6325 15.873 18.7928 15.873 20.0669C15.873 21.0391 16.1018 21.9349 16.483 22.7545C16.6164 23.0213 16.6164 23.3453 16.483 23.6123C16.1018 24.4128 15.873 25.3086 15.873 26.2617C15.873 29.6164 18.5797 32.3232 21.9344 32.3232H38.0982C41.453 32.3232 44.1595 29.6164 44.1595 26.2617C44.1595 25.3086 43.9308 24.4128 43.5496 23.6123C43.4161 23.3453 43.4161 23.0213 43.5496 22.7545ZM20.4576 17.7211H20.4346L22.6923 22.1577C22.9244 27.4362 24.9845 22.1577 30.016 22.1577C35.0478 22.1577 37.2419 28.033 37.474 22.7545L39.6136 16.7327C39.5123 14.3881 37.8132 14.2236 37.474 14.2236H31.4091C29.0142 14.2236 26.7543 13.0513 25.4024 11.0719C25.1705 10.7452 24.6876 10.8029 24.5331 11.168L24.3786 11.5331C23.9538 12.5901 23.1425 13.3972 22.138 13.8584C22.1091 13.868 22.0754 13.8824 22.0415 13.8969C22.0077 13.9113 21.974 13.9257 21.9449 13.9353C21.5007 14.1659 20.4576 14.8577 20.419 16.6449L20.4383 17.2214L20.4576 17.7211Z" fill="url(#paint11_radial_668_1661)"/>
<path fill-rule="evenodd" clip-rule="evenodd" d="M43.5496 22.7545C43.9499 21.9349 44.1595 21.0199 44.1595 20.0669C44.1595 19.1868 43.9784 18.3609 43.6536 17.608H43.6638C43.5123 17.2671 43.3418 16.9451 43.1341 16.6418L43.1303 16.6359C42.4821 15.6448 42.139 14.482 42.139 13.3003V13.2812C42.139 9.85023 39.3561 7.06732 35.9253 7.06732C35.5821 7.06732 35.2581 6.91484 35.0675 6.62892C33.9428 5.06592 32.0937 4.03662 30.016 4.03662C27.9385 4.03662 26.0896 5.06592 24.965 6.62892C24.7743 6.89577 24.4503 7.06732 24.1071 7.06732C24.0537 7.06732 24.0003 7.06801 23.947 7.06936C20.59 7.15435 17.8933 9.90376 17.8933 13.2812V13.3003C17.8933 14.482 17.5502 15.6448 16.9021 16.6359L16.8978 16.6428C16.2525 17.6325 15.873 18.7928 15.873 20.0669C15.873 21.0391 16.1018 21.9349 16.483 22.7545C16.6164 23.0213 16.6164 23.3453 16.483 23.6123C16.1018 24.4128 15.873 25.3086 15.873 26.2617C15.873 29.6164 18.5797 32.3232 21.9344 32.3232H38.0982C41.453 32.3232 44.1595 29.6164 44.1595 26.2617C44.1595 25.3086 43.9308 24.4128 43.5496 23.6123C43.4161 23.3453 43.4161 23.0213 43.5496 22.7545ZM20.4576 17.7211H20.4346L22.6923 22.1577C22.9244 27.4362 24.9845 22.1577 30.016 22.1577C35.0478 22.1577 37.2419 28.033 37.474 22.7545L39.6136 16.7327C39.5123 14.3881 37.8132 14.2236 37.474 14.2236H31.4091C29.0142 14.2236 26.7543 13.0513 25.4024 11.0719C25.1705 10.7452 24.6876 10.8029 24.5331 11.168L24.3786 11.5331C23.9538 12.5901 23.1425 13.3972 22.138 13.8584C22.1091 13.868 22.0754 13.8824 22.0415 13.8969C22.0077 13.9113 21.974 13.9257 21.9449 13.9353C21.5007 14.1659 20.4576 14.8577 20.419 16.6449L20.4383 17.2214L20.4576 17.7211Z" fill="url(#paint12_radial_668_1661)"/>
<path fill-rule="evenodd" clip-rule="evenodd" d="M43.5496 22.7545C43.9499 21.9349 44.1595 21.0199 44.1595 20.0669C44.1595 19.1868 43.9784 18.3609 43.6536 17.608H43.6638C43.5123 17.2671 43.3418 16.9451 43.1341 16.6418L43.1303 16.6359C42.4821 15.6448 42.139 14.482 42.139 13.3003V13.2812C42.139 9.85023 39.3561 7.06732 35.9253 7.06732C35.5821 7.06732 35.2581 6.91484 35.0675 6.62892C33.9428 5.06592 32.0937 4.03662 30.016 4.03662C27.9385 4.03662 26.0896 5.06592 24.965 6.62892C24.7743 6.89577 24.4503 7.06732 24.1071 7.06732C24.0537 7.06732 24.0003 7.06801 23.947 7.06936C20.59 7.15435 17.8933 9.90376 17.8933 13.2812V13.3003C17.8933 14.482 17.5502 15.6448 16.9021 16.6359L16.8978 16.6428C16.2525 17.6325 15.873 18.7928 15.873 20.0669C15.873 21.0391 16.1018 21.9349 16.483 22.7545C16.6164 23.0213 16.6164 23.3453 16.483 23.6123C16.1018 24.4128 15.873 25.3086 15.873 26.2617C15.873 29.6164 18.5797 32.3232 21.9344 32.3232H38.0982C41.453 32.3232 44.1595 29.6164 44.1595 26.2617C44.1595 25.3086 43.9308 24.4128 43.5496 23.6123C43.4161 23.3453 43.4161 23.0213 43.5496 22.7545ZM20.4576 17.7211H20.4346L22.6923 22.1577C22.9244 27.4362 24.9845 22.1577 30.016 22.1577C35.0478 22.1577 37.2419 28.033 37.474 22.7545L39.6136 16.7327C39.5123 14.3881 37.8132 14.2236 37.474 14.2236H31.4091C29.0142 14.2236 26.7543 13.0513 25.4024 11.0719C25.1705 10.7452 24.6876 10.8029 24.5331 11.168L24.3786 11.5331C23.9538 12.5901 23.1425 13.3972 22.138 13.8584C22.1091 13.868 22.0754 13.8824 22.0415 13.8969C22.0077 13.9113 21.974 13.9257 21.9449 13.9353C21.5007 14.1659 20.4576 14.8577 20.419 16.6449L20.4383 17.2214L20.4576 17.7211Z" fill="url(#paint13_radial_668_1661)"/>
<path fill-rule="evenodd" clip-rule="evenodd" d="M43.5496 22.7545C43.9499 21.9349 44.1595 21.0199 44.1595 20.0669C44.1595 19.1868 43.9784 18.3609 43.6536 17.608H43.6638C43.5123 17.2671 43.3418 16.9451 43.1341 16.6418L43.1303 16.6359C42.4821 15.6448 42.139 14.482 42.139 13.3003V13.2812C42.139 9.85023 39.3561 7.06732 35.9253 7.06732C35.5821 7.06732 35.2581 6.91484 35.0675 6.62892C33.9428 5.06592 32.0937 4.03662 30.016 4.03662C27.9385 4.03662 26.0896 5.06592 24.965 6.62892C24.7743 6.89577 24.4503 7.06732 24.1071 7.06732C24.0537 7.06732 24.0003 7.06801 23.947 7.06936C20.59 7.15435 17.8933 9.90376 17.8933 13.2812V13.3003C17.8933 14.482 17.5502 15.6448 16.9021 16.6359L16.8978 16.6428C16.2525 17.6325 15.873 18.7928 15.873 20.0669C15.873 21.0391 16.1018 21.9349 16.483 22.7545C16.6164 23.0213 16.6164 23.3453 16.483 23.6123C16.1018 24.4128 15.873 25.3086 15.873 26.2617C15.873 29.6164 18.5797 32.3232 21.9344 32.3232H38.0982C41.453 32.3232 44.1595 29.6164 44.1595 26.2617C44.1595 25.3086 43.9308 24.4128 43.5496 23.6123C43.4161 23.3453 43.4161 23.0213 43.5496 22.7545ZM20.4576 17.7211H20.4346L22.6923 22.1577C22.9244 27.4362 24.9845 22.1577 30.016 22.1577C35.0478 22.1577 37.2419 28.033 37.474 22.7545L39.6136 16.7327C39.5123 14.3881 37.8132 14.2236 37.474 14.2236H31.4091C29.0142 14.2236 26.7543 13.0513 25.4024 11.0719C25.1705 10.7452 24.6876 10.8029 24.5331 11.168L24.3786 11.5331C23.9538 12.5901 23.1425 13.3972 22.138 13.8584C22.1091 13.868 22.0754 13.8824 22.0415 13.8969C22.0077 13.9113 21.974 13.9257 21.9449 13.9353C21.5007 14.1659 20.4576 14.8577 20.419 16.6449L20.4383 17.2214L20.4576 17.7211Z" fill="url(#paint14_radial_668_1661)"/>
<path fill-rule="evenodd" clip-rule="evenodd" d="M43.5496 22.7545C43.9499 21.9349 44.1595 21.0199 44.1595 20.0669C44.1595 19.1868 43.9784 18.3609 43.6536 17.608H43.6638C43.5123 17.2671 43.3418 16.9451 43.1341 16.6418L43.1303 16.6359C42.4821 15.6448 42.139 14.482 42.139 13.3003V13.2812C42.139 9.85023 39.3561 7.06732 35.9253 7.06732C35.5821 7.06732 35.2581 6.91484 35.0675 6.62892C33.9428 5.06592 32.0937 4.03662 30.016 4.03662C27.9385 4.03662 26.0896 5.06592 24.965 6.62892C24.7743 6.89577 24.4503 7.06732 24.1071 7.06732C24.0537 7.06732 24.0003 7.06801 23.947 7.06936C20.59 7.15435 17.8933 9.90376 17.8933 13.2812V13.3003C17.8933 14.482 17.5502 15.6448 16.9021 16.6359L16.8978 16.6428C16.2525 17.6325 15.873 18.7928 15.873 20.0669C15.873 21.0391 16.1018 21.9349 16.483 22.7545C16.6164 23.0213 16.6164 23.3453 16.483 23.6123C16.1018 24.4128 15.873 25.3086 15.873 26.2617C15.873 29.6164 18.5797 32.3232 21.9344 32.3232H38.0982C41.453 32.3232 44.1595 29.6164 44.1595 26.2617C44.1595 25.3086 43.9308 24.4128 43.5496 23.6123C43.4161 23.3453 43.4161 23.0213 43.5496 22.7545ZM20.4576 17.7211H20.4346L22.6923 22.1577C22.9244 27.4362 24.9845 22.1577 30.016 22.1577C35.0478 22.1577 37.2419 28.033 37.474 22.7545L39.6136 16.7327C39.5123 14.3881 37.8132 14.2236 37.474 14.2236H31.4091C29.0142 14.2236 26.7543 13.0513 25.4024 11.0719C25.1705 10.7452 24.6876 10.8029 24.5331 11.168L24.3786 11.5331C23.9538 12.5901 23.1425 13.3972 22.138 13.8584C22.1091 13.868 22.0754 13.8824 22.0415 13.8969C22.0077 13.9113 21.974 13.9257 21.9449 13.9353C21.5007 14.1659 20.4576 14.8577 20.419 16.6449L20.4383 17.2214L20.4576 17.7211Z" fill="url(#paint15_radial_668_1661)"/>
<path fill-rule="evenodd" clip-rule="evenodd" d="M43.5496 22.7545C43.9499 21.9349 44.1595 21.0199 44.1595 20.0669C44.1595 19.1868 43.9784 18.3609 43.6536 17.608H43.6638C43.5123 17.2671 43.3418 16.9451 43.1341 16.6418L43.1303 16.6359C42.4821 15.6448 42.139 14.482 42.139 13.3003V13.2812C42.139 9.85023 39.3561 7.06732 35.9253 7.06732C35.5821 7.06732 35.2581 6.91484 35.0675 6.62892C33.9428 5.06592 32.0937 4.03662 30.016 4.03662C27.9385 4.03662 26.0896 5.06592 24.965 6.62892C24.7743 6.89577 24.4503 7.06732 24.1071 7.06732C24.0537 7.06732 24.0003 7.06801 23.947 7.06936C20.59 7.15435 17.8933 9.90376 17.8933 13.2812V13.3003C17.8933 14.482 17.5502 15.6448 16.9021 16.6359L16.8978 16.6428C16.2525 17.6325 15.873 18.7928 15.873 20.0669C15.873 21.0391 16.1018 21.9349 16.483 22.7545C16.6164 23.0213 16.6164 23.3453 16.483 23.6123C16.1018 24.4128 15.873 25.3086 15.873 26.2617C15.873 29.6164 18.5797 32.3232 21.9344 32.3232H38.0982C41.453 32.3232 44.1595 29.6164 44.1595 26.2617C44.1595 25.3086 43.9308 24.4128 43.5496 23.6123C43.4161 23.3453 43.4161 23.0213 43.5496 22.7545ZM20.4576 17.7211H20.4346L22.6923 22.1577C22.9244 27.4362 24.9845 22.1577 30.016 22.1577C35.0478 22.1577 37.2419 28.033 37.474 22.7545L39.6136 16.7327C39.5123 14.3881 37.8132 14.2236 37.474 14.2236H31.4091C29.0142 14.2236 26.7543 13.0513 25.4024 11.0719C25.1705 10.7452 24.6876 10.8029 24.5331 11.168L24.3786 11.5331C23.9538 12.5901 23.1425 13.3972 22.138 13.8584C22.1091 13.868 22.0754 13.8824 22.0415 13.8969C22.0077 13.9113 21.974 13.9257 21.9449 13.9353C21.5007 14.1659 20.4576 14.8577 20.419 16.6449L20.4383 17.2214L20.4576 17.7211Z" fill="url(#paint16_radial_668_1661)"/>
<path fill-rule="evenodd" clip-rule="evenodd" d="M43.5496 22.7545C43.9499 21.9349 44.1595 21.0199 44.1595 20.0669C44.1595 19.1868 43.9784 18.3609 43.6536 17.608H43.6638C43.5123 17.2671 43.3418 16.9451 43.1341 16.6418L43.1303 16.6359C42.4821 15.6448 42.139 14.482 42.139 13.3003V13.2812C42.139 9.85023 39.3561 7.06732 35.9253 7.06732C35.5821 7.06732 35.2581 6.91484 35.0675 6.62892C33.9428 5.06592 32.0937 4.03662 30.016 4.03662C27.9385 4.03662 26.0896 5.06592 24.965 6.62892C24.7743 6.89577 24.4503 7.06732 24.1071 7.06732C24.0537 7.06732 24.0003 7.06801 23.947 7.06936C20.59 7.15435 17.8933 9.90376 17.8933 13.2812V13.3003C17.8933 14.482 17.5502 15.6448 16.9021 16.6359L16.8978 16.6428C16.2525 17.6325 15.873 18.7928 15.873 20.0669C15.873 21.0391 16.1018 21.9349 16.483 22.7545C16.6164 23.0213 16.6164 23.3453 16.483 23.6123C16.1018 24.4128 15.873 25.3086 15.873 26.2617C15.873 29.6164 18.5797 32.3232 21.9344 32.3232H38.0982C41.453 32.3232 44.1595 29.6164 44.1595 26.2617C44.1595 25.3086 43.9308 24.4128 43.5496 23.6123C43.4161 23.3453 43.4161 23.0213 43.5496 22.7545ZM20.4576 17.7211H20.4346L22.6923 22.1577C22.9244 27.4362 24.9845 22.1577 30.016 22.1577C35.0478 22.1577 37.2419 28.033 37.474 22.7545L39.6136 16.7327C39.5123 14.3881 37.8132 14.2236 37.474 14.2236H31.4091C29.0142 14.2236 26.7543 13.0513 25.4024 11.0719C25.1705 10.7452 24.6876 10.8029 24.5331 11.168L24.3786 11.5331C23.9538 12.5901 23.1425 13.3972 22.138 13.8584C22.1091 13.868 22.0754 13.8824 22.0415 13.8969C22.0077 13.9113 21.974 13.9257 21.9449 13.9353C21.5007 14.1659 20.4576 14.8577 20.419 16.6449L20.4383 17.2214L20.4576 17.7211Z" fill="url(#paint17_radial_668_1661)"/>
</g>
<path d="M30.0254 29.0811C18.6441 29.0811 9.40039 38.3061 9.40039 49.7061V56.2686C14.0427 56.2686 46.8925 56.2686 50.6317 56.2686V49.7061C50.6317 38.3061 41.4067 29.0811 30.0254 29.0811Z" fill="url(#paint18_radial_668_1661)"/>
<path d="M30.0254 29.0811C18.6441 29.0811 9.40039 38.3061 9.40039 49.7061V56.2686C14.0427 56.2686 46.8925 56.2686 50.6317 56.2686V49.7061C50.6317 38.3061 41.4067 29.0811 30.0254 29.0811Z" fill="url(#paint19_radial_668_1661)"/>
<path d="M30.0254 29.0811C18.6441 29.0811 9.40039 38.3061 9.40039 49.7061V56.2686C14.0427 56.2686 46.8925 56.2686 50.6317 56.2686V49.7061C50.6317 38.3061 41.4067 29.0811 30.0254 29.0811Z" fill="url(#paint20_radial_668_1661)"/>
<path d="M42.5312 56.2686V33.3096C47.4554 37.0768 50.6312 43.017 50.6312 49.7061V56.2686H42.5312Z" fill="url(#paint21_radial_668_1661)"/>
<path d="M42.5312 56.2686V33.3096C47.4554 37.0768 50.6312 43.017 50.6312 49.7061V56.2686H42.5312Z" fill="url(#paint22_linear_668_1661)"/>
<path d="M42.5312 56.2686V33.3096C47.4554 37.0768 50.6312 43.017 50.6312 49.7061V56.2686H42.5312Z" fill="url(#paint23_linear_668_1661)"/>
<path d="M17.4447 56.2686V33.3096C12.5207 37.0768 9.34473 43.017 9.34473 49.7061V56.2686H17.4447Z" fill="url(#paint24_linear_668_1661)"/>
<path d="M17.4447 56.2686V33.3096C12.5207 37.0768 9.34473 43.017 9.34473 49.7061V56.2686H17.4447Z" fill="url(#paint25_radial_668_1661)"/>
<path d="M33.8693 27.6455H26.1631V56.2685H33.8693V27.6455Z" fill="url(#paint26_radial_668_1661)"/>
<g filter="url(#filter4_i_668_1661)">
<path d="M36.2106 30.0186L38.8379 35.6219C39.0066 35.9781 38.7441 36.3906 38.3504 36.3906L36.5436 35.893C35.7526 35.6952 35.7254 36.4118 36.0254 36.7118L38.5754 39.6374C39.0629 40.1248 39.2504 40.8561 39.0066 41.5124L33.8691 56.2686V29.2275L36.2106 30.0186Z" fill="url(#paint27_linear_668_1661)"/>
<path d="M36.2106 30.0186L38.8379 35.6219C39.0066 35.9781 38.7441 36.3906 38.3504 36.3906L36.5436 35.893C35.7526 35.6952 35.7254 36.4118 36.0254 36.7118L38.5754 39.6374C39.0629 40.1248 39.2504 40.8561 39.0066 41.5124L33.8691 56.2686V29.2275L36.2106 30.0186Z" fill="url(#paint28_radial_668_1661)"/>
<path d="M36.2106 30.0186L38.8379 35.6219C39.0066 35.9781 38.7441 36.3906 38.3504 36.3906L36.5436 35.893C35.7526 35.6952 35.7254 36.4118 36.0254 36.7118L38.5754 39.6374C39.0629 40.1248 39.2504 40.8561 39.0066 41.5124L33.8691 56.2686V29.2275L36.2106 30.0186Z" fill="url(#paint29_radial_668_1661)"/>
<path d="M36.2106 30.0186L38.8379 35.6219C39.0066 35.9781 38.7441 36.3906 38.3504 36.3906L36.5436 35.893C35.7526 35.6952 35.7254 36.4118 36.0254 36.7118L38.5754 39.6374C39.0629 40.1248 39.2504 40.8561 39.0066 41.5124L33.8691 56.2686V29.2275L36.2106 30.0186Z" fill="url(#paint30_radial_668_1661)"/>
</g>
<g filter="url(#filter5_i_668_1661)">
<path d="M23.7449 30.0481L21.1942 35.6221C21.0254 35.9783 21.2879 36.3908 21.6817 36.3908L23.4886 35.893C24.2797 35.6954 24.3067 36.412 24.0067 36.712L21.4567 39.6376C20.9692 40.1251 20.7817 40.8563 21.0254 41.5126L26.1629 56.2688V29.2285L23.7449 30.0481Z" fill="url(#paint31_linear_668_1661)"/>
<path d="M23.7449 30.0481L21.1942 35.6221C21.0254 35.9783 21.2879 36.3908 21.6817 36.3908L23.4886 35.893C24.2797 35.6954 24.3067 36.412 24.0067 36.712L21.4567 39.6376C20.9692 40.1251 20.7817 40.8563 21.0254 41.5126L26.1629 56.2688V29.2285L23.7449 30.0481Z" fill="url(#paint32_radial_668_1661)"/>
<path d="M23.7449 30.0481L21.1942 35.6221C21.0254 35.9783 21.2879 36.3908 21.6817 36.3908L23.4886 35.893C24.2797 35.6954 24.3067 36.412 24.0067 36.712L21.4567 39.6376C20.9692 40.1251 20.7817 40.8563 21.0254 41.5126L26.1629 56.2688V29.2285L23.7449 30.0481Z" fill="url(#paint33_linear_668_1661)"/>
<path d="M23.7449 30.0481L21.1942 35.6221C21.0254 35.9783 21.2879 36.3908 21.6817 36.3908L23.4886 35.893C24.2797 35.6954 24.3067 36.412 24.0067 36.712L21.4567 39.6376C20.9692 40.1251 20.7817 40.8563 21.0254 41.5126L26.1629 56.2688V29.2285L23.7449 30.0481Z" fill="url(#paint34_radial_668_1661)"/>
</g>
<path d="M29.9875 34.1983C27.85 34.1983 26.125 32.4733 26.125 30.3358V25.5358C26.125 23.3983 27.85 21.6733 29.9875 21.6733C32.125 21.6733 33.85 23.3983 33.85 25.5358V30.3358C33.8312 32.4733 32.1063 34.1983 29.9875 34.1983Z" fill="url(#paint35_radial_668_1661)"/>
<path d="M41.3574 43.3462C42.3887 43.3462 43.2324 44.1899 43.2324 45.2212V49.5149H39.4824V45.2212C39.4824 44.1899 40.3074 43.3462 41.3574 43.3462Z" fill="url(#paint36_radial_668_1661)"/>
<path d="M18.6758 43.3315C17.6445 43.3315 16.8008 44.1753 16.8008 45.2065V49.5003H20.5508V45.2065C20.5508 44.1753 19.7258 43.3315 18.6758 43.3315Z" fill="url(#paint37_radial_668_1661)"/>
<path d="M19.3574 41.0437V56.2687H40.6199V39.0375C40.6199 38.1937 39.9449 37.5187 39.1012 37.5187H22.9012C20.9324 37.5 19.3574 39.0937 19.3574 41.0437Z" fill="url(#paint38_linear_668_1661)"/>
<path fill-rule="evenodd" clip-rule="evenodd" d="M23.2835 56.2685V40.5068H19.3574V56.2685H23.2835Z" fill="#513358"/>
<path fill-rule="evenodd" clip-rule="evenodd" d="M23.2835 56.2685V40.5068H19.3574V56.2685H23.2835Z" fill="url(#paint39_linear_668_1661)"/>
<g filter="url(#filter6_i_668_1661)">
<path d="M25.0374 47.5858C25.0541 48.1055 24.8207 48.5677 24.4706 48.8371C24.804 49.0874 25.0374 49.5303 25.0374 50.0308C25.0374 50.5314 24.8207 50.9743 24.4706 51.2244C24.804 51.4747 25.0374 51.9176 25.0374 52.418C25.0374 52.9186 24.8207 53.3615 24.4706 53.6116C24.8207 53.8813 25.0374 54.3433 25.0374 54.8632C25.0208 55.6524 24.4373 56.2685 23.7536 56.2685H18.2514C17.451 56.2685 16.8008 55.5178 16.8008 54.5936V47.8361C16.8008 46.9119 17.451 46.1611 18.2514 46.1611H23.5802C24.4706 46.1611 25.0228 46.8933 25.0374 47.5858Z" fill="url(#paint40_linear_668_1661)"/>
</g>
<g filter="url(#filter7_i_668_1661)">
<path d="M34.995 47.5858C34.9783 48.1055 35.2117 48.5677 35.562 48.8371C35.2284 49.0874 34.995 49.5303 34.995 50.0308C34.995 50.5314 35.2117 50.9743 35.562 51.2244C35.2284 51.4747 34.995 51.9176 34.995 52.418C34.995 52.9186 35.2117 53.3615 35.562 53.6116C35.2117 53.8813 34.995 54.3433 34.995 54.8632C35.0117 55.6524 35.5952 56.2685 36.2788 56.2685H41.7812C42.5814 56.2685 43.2317 55.5178 43.2317 54.5936V47.8361C43.2317 46.9119 42.5814 46.1611 41.7812 46.1611H36.4522C35.562 46.1611 35.0096 46.8933 34.995 47.5858Z" fill="url(#paint41_linear_668_1661)"/>
</g>
<path d="M40.6199 43.1145V38.8286C40.6199 38.1009 39.9449 37.5187 39.1012 37.5187H22.9012C22.8901 37.5186 22.879 37.5186 22.868 37.5186H22.8657C20.9137 37.5191 19.3574 38.8873 19.3574 40.5591C19.3574 41.9704 20.5015 43.1145 21.9129 43.1145H40.6199Z" fill="url(#paint42_linear_668_1661)"/>
<path d="M20.9199 40.3164C20.9199 39.5964 21.5036 39.0127 22.2236 39.0127H40.62V41.6201H22.2236C21.5036 41.6201 20.9199 41.0364 20.9199 40.3164Z" fill="url(#paint43_linear_668_1661)"/>
<g filter="url(#filter8_f_668_1661)">
<path d="M35.6875 48.8418H39.2909" stroke="url(#paint44_linear_668_1661)" stroke-width="0.1875" stroke-linecap="round"/>
</g>
<g filter="url(#filter9_f_668_1661)">
<path d="M24.2657 48.8418H20.6621" stroke="url(#paint45_linear_668_1661)" stroke-width="0.1875" stroke-linecap="round"/>
</g>
<g filter="url(#filter10_f_668_1661)">
<path d="M35.6875 51.2148H39.2909" stroke="url(#paint46_linear_668_1661)" stroke-width="0.1875" stroke-linecap="round"/>
</g>
<g filter="url(#filter11_f_668_1661)">
<path d="M24.2657 51.2148H20.6621" stroke="url(#paint47_linear_668_1661)" stroke-width="0.1875" stroke-linecap="round"/>
</g>
<g filter="url(#filter12_f_668_1661)">
<path d="M35.6875 53.5879H39.2909" stroke="url(#paint48_linear_668_1661)" stroke-width="0.1875" stroke-linecap="round"/>
</g>
<g filter="url(#filter13_f_668_1661)">
<path d="M24.2657 53.5879H20.6621" stroke="url(#paint49_linear_668_1661)" stroke-width="0.1875" stroke-linecap="round"/>
</g>
<g filter="url(#filter14_i_668_1661)">
<path d="M21.1909 23.1302C22.8647 23.1302 24.2216 21.7733 24.2216 20.0995C24.2216 18.4257 22.8647 17.0688 21.1909 17.0688C19.5171 17.0688 18.1602 18.4257 18.1602 20.0995C18.1602 21.7733 19.5171 23.1302 21.1909 23.1302Z" fill="url(#paint50_linear_668_1661)"/>
</g>
<g filter="url(#filter15_i_668_1661)">
<path d="M39.1087 23.1302C40.7825 23.1302 42.1394 21.7733 42.1394 20.0995C42.1394 18.4257 40.7825 17.0688 39.1087 17.0688C37.4349 17.0688 36.0781 18.4257 36.0781 20.0995C36.0781 21.7733 37.4349 23.1302 39.1087 23.1302Z" fill="url(#paint51_radial_668_1661)"/>
</g>
<g filter="url(#filter16_f_668_1661)">
<path d="M39.1081 22.1224C40.2254 22.1224 41.1312 21.2166 41.1312 20.0993C41.1312 18.9819 40.2254 18.0762 39.1081 18.0762C37.9908 18.0762 37.085 18.9819 37.085 20.0993C37.085 21.2166 37.9908 22.1224 39.1081 22.1224Z" fill="#FFCA38"/>
<path d="M39.1081 22.1224C40.2254 22.1224 41.1312 21.2166 41.1312 20.0993C41.1312 18.9819 40.2254 18.0762 39.1081 18.0762C37.9908 18.0762 37.085 18.9819 37.085 20.0993C37.085 21.2166 37.9908 22.1224 39.1081 22.1224Z" fill="url(#paint52_radial_668_1661)"/>
</g>
<g filter="url(#filter17_f_668_1661)">
<path d="M21.2272 22.1224C22.3445 22.1224 23.2502 21.2166 23.2502 20.0993C23.2502 18.9819 22.3445 18.0762 21.2272 18.0762C20.1099 18.0762 19.2041 18.9819 19.2041 20.0993C19.2041 21.2166 20.1099 22.1224 21.2272 22.1224Z" fill="#E28527"/>
<path d="M21.2272 22.1224C22.3445 22.1224 23.2502 21.2166 23.2502 20.0993C23.2502 18.9819 22.3445 18.0762 21.2272 18.0762C20.1099 18.0762 19.2041 18.9819 19.2041 20.0993C19.2041 21.2166 20.1099 22.1224 21.2272 22.1224Z" fill="url(#paint53_radial_668_1661)"/>
</g>
<g filter="url(#filter18_i_668_1661)">
<path d="M20.4345 17.7212H20.4576L20.4383 17.2215L20.4189 16.645C20.4576 14.8578 21.5006 14.166 21.9448 13.9354C21.9739 13.9258 22.0076 13.9114 22.0414 13.8969C22.0753 13.8825 22.1091 13.8681 22.1379 13.8585C23.1424 13.3973 23.9537 12.5902 24.3786 11.5332L24.5331 11.1681C24.6876 10.803 25.1704 10.7453 25.4023 11.072C26.7542 13.0514 29.0141 14.2236 31.4091 14.2236H37.4739C37.8131 14.2236 39.5123 14.3882 39.6135 16.7328L39.3898 22.5208C39.1575 27.7993 35.0355 31.3438 30.0039 31.3438C24.9722 31.3438 20.8502 27.7993 20.6181 22.5208L20.4345 17.7212Z" fill="url(#paint54_radial_668_1661)"/>
<path d="M20.4345 17.7212H20.4576L20.4383 17.2215L20.4189 16.645C20.4576 14.8578 21.5006 14.166 21.9448 13.9354C21.9739 13.9258 22.0076 13.9114 22.0414 13.8969C22.0753 13.8825 22.1091 13.8681 22.1379 13.8585C23.1424 13.3973 23.9537 12.5902 24.3786 11.5332L24.5331 11.1681C24.6876 10.803 25.1704 10.7453 25.4023 11.072C26.7542 13.0514 29.0141 14.2236 31.4091 14.2236H37.4739C37.8131 14.2236 39.5123 14.3882 39.6135 16.7328L39.3898 22.5208C39.1575 27.7993 35.0355 31.3438 30.0039 31.3438C24.9722 31.3438 20.8502 27.7993 20.6181 22.5208L20.4345 17.7212Z" fill="url(#paint55_radial_668_1661)"/>
<path d="M20.4345 17.7212H20.4576L20.4383 17.2215L20.4189 16.645C20.4576 14.8578 21.5006 14.166 21.9448 13.9354C21.9739 13.9258 22.0076 13.9114 22.0414 13.8969C22.0753 13.8825 22.1091 13.8681 22.1379 13.8585C23.1424 13.3973 23.9537 12.5902 24.3786 11.5332L24.5331 11.1681C24.6876 10.803 25.1704 10.7453 25.4023 11.072C26.7542 13.0514 29.0141 14.2236 31.4091 14.2236H37.4739C37.8131 14.2236 39.5123 14.3882 39.6135 16.7328L39.3898 22.5208C39.1575 27.7993 35.0355 31.3438 30.0039 31.3438C24.9722 31.3438 20.8502 27.7993 20.6181 22.5208L20.4345 17.7212Z" fill="url(#paint56_radial_668_1661)"/>
<path d="M20.4345 17.7212H20.4576L20.4383 17.2215L20.4189 16.645C20.4576 14.8578 21.5006 14.166 21.9448 13.9354C21.9739 13.9258 22.0076 13.9114 22.0414 13.8969C22.0753 13.8825 22.1091 13.8681 22.1379 13.8585C23.1424 13.3973 23.9537 12.5902 24.3786 11.5332L24.5331 11.1681C24.6876 10.803 25.1704 10.7453 25.4023 11.072C26.7542 13.0514 29.0141 14.2236 31.4091 14.2236H37.4739C37.8131 14.2236 39.5123 14.3882 39.6135 16.7328L39.3898 22.5208C39.1575 27.7993 35.0355 31.3438 30.0039 31.3438C24.9722 31.3438 20.8502 27.7993 20.6181 22.5208L20.4345 17.7212Z" fill="url(#paint57_radial_668_1661)"/>
<path d="M20.4345 17.7212H20.4576L20.4383 17.2215L20.4189 16.645C20.4576 14.8578 21.5006 14.166 21.9448 13.9354C21.9739 13.9258 22.0076 13.9114 22.0414 13.8969C22.0753 13.8825 22.1091 13.8681 22.1379 13.8585C23.1424 13.3973 23.9537 12.5902 24.3786 11.5332L24.5331 11.1681C24.6876 10.803 25.1704 10.7453 25.4023 11.072C26.7542 13.0514 29.0141 14.2236 31.4091 14.2236H37.4739C37.8131 14.2236 39.5123 14.3882 39.6135 16.7328L39.3898 22.5208C39.1575 27.7993 35.0355 31.3438 30.0039 31.3438C24.9722 31.3438 20.8502 27.7993 20.6181 22.5208L20.4345 17.7212Z" fill="url(#paint58_radial_668_1661)"/>
<path d="M20.4345 17.7212H20.4576L20.4383 17.2215L20.4189 16.645C20.4576 14.8578 21.5006 14.166 21.9448 13.9354C21.9739 13.9258 22.0076 13.9114 22.0414 13.8969C22.0753 13.8825 22.1091 13.8681 22.1379 13.8585C23.1424 13.3973 23.9537 12.5902 24.3786 11.5332L24.5331 11.1681C24.6876 10.803 25.1704 10.7453 25.4023 11.072C26.7542 13.0514 29.0141 14.2236 31.4091 14.2236H37.4739C37.8131 14.2236 39.5123 14.3882 39.6135 16.7328L39.3898 22.5208C39.1575 27.7993 35.0355 31.3438 30.0039 31.3438C24.9722 31.3438 20.8502 27.7993 20.6181 22.5208L20.4345 17.7212Z" fill="url(#paint59_radial_668_1661)"/>
<path d="M20.4345 17.7212H20.4576L20.4383 17.2215L20.4189 16.645C20.4576 14.8578 21.5006 14.166 21.9448 13.9354C21.9739 13.9258 22.0076 13.9114 22.0414 13.8969C22.0753 13.8825 22.1091 13.8681 22.1379 13.8585C23.1424 13.3973 23.9537 12.5902 24.3786 11.5332L24.5331 11.1681C24.6876 10.803 25.1704 10.7453 25.4023 11.072C26.7542 13.0514 29.0141 14.2236 31.4091 14.2236H37.4739C37.8131 14.2236 39.5123 14.3882 39.6135 16.7328L39.3898 22.5208C39.1575 27.7993 35.0355 31.3438 30.0039 31.3438C24.9722 31.3438 20.8502 27.7993 20.6181 22.5208L20.4345 17.7212Z" fill="url(#paint60_radial_668_1661)"/>
</g>
<path d="M20.4345 17.7212H20.4576L20.4383 17.2215L20.4189 16.645C20.4576 14.8578 21.5006 14.166 21.9448 13.9354C21.9739 13.9258 22.0076 13.9114 22.0414 13.8969C22.0753 13.8825 22.1091 13.8681 22.1379 13.8585C23.1424 13.3973 23.9537 12.5902 24.3786 11.5332L24.5331 11.1681C24.6876 10.803 25.1704 10.7453 25.4023 11.072C26.7542 13.0514 29.0141 14.2236 31.4091 14.2236H37.4739C37.8131 14.2236 39.5123 14.3882 39.6135 16.7328L39.3898 22.5208C39.1575 27.7993 35.0355 31.3438 30.0039 31.3438C24.9722 31.3438 20.8502 27.7993 20.6181 22.5208L20.4345 17.7212Z" fill="url(#paint61_radial_668_1661)"/>
<g filter="url(#filter19_f_668_1661)">
<path d="M29.2767 19.6799L27.9891 22.8819C27.7849 23.5404 28.2752 24.1991 28.9697 24.1991H30.451C31.1455 24.1991 31.6358 23.5302 31.4314 22.8819L30.4305 19.6799C30.216 18.9706 29.5015 18.9706 29.2767 19.6799Z" fill="#EB8B29"/>
</g>
<g filter="url(#filter20_f_668_1661)">
<path d="M29.2968 19.4187L28.2957 22.6206C28.0916 23.2793 28.5819 23.938 29.2764 23.938H30.7574C31.4521 23.938 31.9424 23.2692 31.7381 22.6206L30.737 19.4187C30.5225 18.7094 29.5216 18.7094 29.2968 19.4187Z" fill="url(#paint62_linear_668_1661)"/>
<path d="M29.2968 19.4187L28.2957 22.6206C28.0916 23.2793 28.5819 23.938 29.2764 23.938H30.7574C31.4521 23.938 31.9424 23.2692 31.7381 22.6206L30.737 19.4187C30.5225 18.7094 29.5216 18.7094 29.2968 19.4187Z" fill="url(#paint63_radial_668_1661)"/>
<path d="M29.2968 19.4187L28.2957 22.6206C28.0916 23.2793 28.5819 23.938 29.2764 23.938H30.7574C31.4521 23.938 31.9424 23.2692 31.7381 22.6206L30.737 19.4187C30.5225 18.7094 29.5216 18.7094 29.2968 19.4187Z" fill="url(#paint64_linear_668_1661)"/>
<path d="M29.2968 19.4187L28.2957 22.6206C28.0916 23.2793 28.5819 23.938 29.2764 23.938H30.7574C31.4521 23.938 31.9424 23.2692 31.7381 22.6206L30.737 19.4187C30.5225 18.7094 29.5216 18.7094 29.2968 19.4187Z" fill="url(#paint65_linear_668_1661)"/>
</g>
<path d="M29.2968 19.4187L28.2957 22.6206C28.0916 23.2793 28.5819 23.938 29.2764 23.938H30.7574C31.4521 23.938 31.9424 23.2692 31.7381 22.6206L30.737 19.4187C30.5225 18.7094 29.5216 18.7094 29.2968 19.4187Z" fill="url(#paint66_linear_668_1661)"/>
<path d="M29.2968 19.4187L28.2957 22.6206C28.0916 23.2793 28.5819 23.938 29.2764 23.938H30.7574C31.4521 23.938 31.9424 23.2692 31.7381 22.6206L30.737 19.4187C30.5225 18.7094 29.5216 18.7094 29.2968 19.4187Z" fill="url(#paint67_radial_668_1661)"/>
<path d="M27.3835 24.8509C27.2084 24.7599 27.0256 24.8164 26.9178 24.9324C26.8098 25.0487 26.768 25.2339 26.8788 25.3984C27.5425 26.4268 28.6992 27.1129 30.0171 27.1129C31.3353 27.1129 32.4921 26.4264 33.1559 25.3976C33.2652 25.2296 33.2256 25.0447 33.116 24.9283C33.0072 24.8128 32.8251 24.7601 32.6513 24.8503C31.8905 25.2561 30.9927 25.4891 30.0171 25.4891C29.0511 25.4891 28.1444 25.2564 27.3835 24.8509Z" fill="#8A004F" stroke="url(#paint68_linear_668_1661)" stroke-width="0.1875"/>
<g filter="url(#filter21_i_668_1661)">
<path d="M32.167 19.0273C32.6669 18.1481 33.4268 17.4536 35.0626 17.4536C35.7788 17.4536 36.4694 17.652 37.0832 18.1481C37.5895 18.5573 37.5218 19.0808 37.1296 19.2769L36.0824 19.8746C34.8546 19.4779 33.4969 19.4241 32.167 19.0273Z" fill="#635D5F"/>
</g>
<g filter="url(#filter22_i_668_1661)">
<path d="M27.8663 19.0273C27.3664 18.1481 26.6064 17.4536 24.9707 17.4536C24.2544 17.4536 23.5639 17.652 22.95 18.1481C22.4438 18.5573 22.5114 19.0808 22.9035 19.2769L23.9509 19.8746C25.1786 19.4779 26.5361 19.4241 27.8663 19.0273Z" fill="#635D5F"/>
</g>
<g filter="url(#filter23_i_668_1661)">
<path d="M23.6171 16.6005L23.6087 16.6053C23.6085 16.6054 23.6091 16.6051 23.6087 16.6053C23.3696 16.7479 23.0591 16.6709 22.9157 16.432C22.7722 16.1928 22.8501 15.8824 23.0893 15.7388L23.0923 15.737L23.0979 15.7338L23.1156 15.7235C23.1304 15.7151 23.1508 15.7036 23.1767 15.6896C23.2284 15.6615 23.3021 15.6232 23.3951 15.5788C23.5807 15.4904 23.8453 15.3771 24.1676 15.2742C24.8077 15.0699 25.7031 14.898 26.6694 15.0686C26.9441 15.1171 27.1275 15.3791 27.0791 15.6538C27.0306 15.9285 26.7686 16.1119 26.4939 16.0634C25.7428 15.9309 25.0217 16.0621 24.4747 16.2366C24.2036 16.3232 23.982 16.4182 23.8297 16.4908C23.754 16.527 23.6959 16.5573 23.658 16.5778C23.6391 16.588 23.6254 16.5958 23.6171 16.6005Z" fill="#BD4F26"/>
</g>
<g filter="url(#filter24_i_668_1661)">
<path fill-rule="evenodd" clip-rule="evenodd" d="M37.0444 15.7388C37.0446 15.7389 37.0448 15.739 36.7849 16.1721L37.0444 15.7388C37.2837 15.8824 37.3615 16.1928 37.2181 16.432C37.0746 16.6709 36.7651 16.7486 36.526 16.6059C36.5258 16.6058 36.5264 16.6061 36.526 16.6059L36.5168 16.6005C36.5084 16.5958 36.4947 16.588 36.4757 16.5778C36.4381 16.5573 36.3799 16.527 36.304 16.4908C36.1517 16.4182 35.9301 16.3232 35.659 16.2366C35.1121 16.0621 34.3909 15.9309 33.64 16.0634C33.3651 16.1119 33.1032 15.9285 33.0546 15.6538C33.0062 15.3791 33.1896 15.1171 33.4643 15.0686C34.4307 14.898 35.326 15.0699 35.9661 15.2742C36.2884 15.3771 36.553 15.4904 36.7386 15.5788C36.8316 15.6232 36.9053 15.6615 36.9571 15.6896C36.9829 15.7036 37.0034 15.7151 37.0182 15.7235L37.0358 15.7338L37.0414 15.737L37.0444 15.7388Z" fill="#BD4F26"/>
</g>
<path d="M34.5194 17.5645C35.7496 17.5645 36.7887 18.4125 37.0715 19.5586C37.1555 19.8872 36.9033 20.2004 36.5671 20.2004H32.3648C32.0975 20.2004 31.8835 19.9559 31.9369 19.6885C32.1738 18.4813 33.2358 17.5645 34.5194 17.5645Z" fill="white"/>
<path d="M34.13 18.0762C35.0621 18.0762 35.811 18.8325 35.811 19.7571C35.811 19.9099 35.7881 20.0627 35.7498 20.2003H32.5025C32.4643 20.055 32.4414 19.9099 32.4414 19.7571C32.4414 18.8325 33.1978 18.0762 34.13 18.0762Z" fill="url(#paint69_radial_668_1661)"/>
<path d="M33.167 19.7571C33.167 19.2223 33.5949 18.7944 34.1298 18.7944C34.6646 18.7944 35.0924 19.2223 35.0924 19.7571C35.0924 19.9176 35.0542 20.0704 34.9854 20.2003H33.2816C33.2052 20.0704 33.167 19.9176 33.167 19.7571Z" fill="black"/>
<g filter="url(#filter25_f_668_1661)">
<path d="M34.0044 18.4327C34.1239 18.5926 33.8739 18.7875 33.5899 19C33.3058 19.2124 33.095 19.3619 32.9754 19.2019C32.856 19.0422 32.9893 18.7403 33.2735 18.5279C33.5576 18.3155 33.8848 18.2729 34.0044 18.4327Z" fill="#C7A7A3"/>
<path d="M34.0044 18.4327C34.1239 18.5926 33.8739 18.7875 33.5899 19C33.3058 19.2124 33.095 19.3619 32.9754 19.2019C32.856 19.0422 32.9893 18.7403 33.2735 18.5279C33.5576 18.3155 33.8848 18.2729 34.0044 18.4327Z" fill="url(#paint70_radial_668_1661)"/>
</g>
<g filter="url(#filter26_f_668_1661)">
<path d="M35.6258 19.5345C35.5637 19.1008 35.3098 18.7738 35.1908 18.6646L34.7021 19.2007L34.9227 19.6297L35.6258 19.5345Z" fill="url(#paint71_linear_668_1661)"/>
</g>
<path d="M25.5127 17.5645C24.2825 17.5645 23.2434 18.4126 22.9606 19.5586C22.8766 19.8872 23.1288 20.2004 23.465 20.2004H27.6672C27.9348 20.2004 28.1487 19.9559 28.0951 19.6885C27.8583 18.4813 26.7886 17.5645 25.5127 17.5645Z" fill="white"/>
<path d="M25.9016 18.0762C24.9696 18.0762 24.2207 18.8325 24.2207 19.7571C24.2207 19.9099 24.2436 20.0627 24.2818 20.2003H27.5291C27.5674 20.055 27.5903 19.9099 27.5903 19.7571C27.5826 18.8325 26.8339 18.0762 25.9016 18.0762Z" fill="url(#paint72_radial_668_1661)"/>
<path d="M26.8649 19.7571C26.8649 19.2223 26.437 18.7944 25.9021 18.7944C25.3673 18.7944 24.9395 19.2223 24.9395 19.7571C24.9395 19.9176 24.9775 20.0704 25.0463 20.2003H26.7501C26.819 20.0704 26.8649 19.9176 26.8649 19.7571Z" fill="black"/>
<g filter="url(#filter27_f_668_1661)">
<path d="M27.4363 19.5578C27.4363 19.0157 26.9953 18.6542 26.8762 18.5449L26.334 19.0693L26.6677 19.7484L27.4363 19.5578Z" fill="url(#paint73_linear_668_1661)"/>
</g>
<g filter="url(#filter28_f_668_1661)">
<path d="M25.5676 19.1218C25.925 18.9324 26.1371 18.6322 26.0413 18.4513C25.9454 18.2704 25.578 18.2773 25.2205 18.4667C24.863 18.656 24.6509 18.9562 24.7468 19.1371C24.8426 19.318 25.2101 19.3112 25.5676 19.1218Z" fill="#C7A7A3" fill-opacity="0.9"/>
<path d="M25.5676 19.1218C25.925 18.9324 26.1371 18.6322 26.0413 18.4513C25.9454 18.2704 25.578 18.2773 25.2205 18.4667C24.863 18.656 24.6509 18.9562 24.7468 19.1371C24.8426 19.318 25.2101 19.3112 25.5676 19.1218Z" fill="url(#paint74_radial_668_1661)"/>
</g>
<g filter="url(#filter29_f_668_1661)">
<path d="M33.6699 15.4803C34.2774 15.3325 35.7881 15.4064 36.798 16.1289" stroke="#C9725D" stroke-width="0.375" stroke-linecap="round"/>
</g>
<g filter="url(#filter30_f_668_1661)">
<path d="M26.5285 15.4803C25.921 15.3325 24.4103 15.4064 23.4004 16.1289" stroke="#C9725D" stroke-width="0.375" stroke-linecap="round"/>
</g>
<g filter="url(#filter31_f_668_1661)">
<path d="M20.7979 8.77223C21.9675 7.73042 23.6548 7.7199 24.6019 7.88826L25.3596 10.3191C24.8756 10.2455 24.444 10.4138 24.081 10.7611C23.2224 13.1352 20.2716 14.4443 18.9036 14.802C18.6195 11.9923 18.7774 10.5717 20.7979 8.77223Z" fill="url(#paint75_radial_668_1661)"/>
<path d="M20.7979 8.77223C21.9675 7.73042 23.6548 7.7199 24.6019 7.88826L25.3596 10.3191C24.8756 10.2455 24.444 10.4138 24.081 10.7611C23.2224 13.1352 20.2716 14.4443 18.9036 14.802C18.6195 11.9923 18.7774 10.5717 20.7979 8.77223Z" fill="url(#paint76_radial_668_1661)"/>
</g>
<g filter="url(#filter32_f_668_1661)">
<path d="M28.8801 5.42598C26.7467 4.95498 24.4603 7.22547 24.2393 8.01472C27.1436 14.8338 31.6035 14.1839 36.5514 13.6341C39.5134 13.305 39.8348 14.6549 40.0873 15.3073C39.2664 7.66745 33.7418 6.49936 28.8801 5.42598Z" fill="url(#paint77_radial_668_1661)"/>
<path d="M28.8801 5.42598C26.7467 4.95498 24.4603 7.22547 24.2393 8.01472C27.1436 14.8338 31.6035 14.1839 36.5514 13.6341C39.5134 13.305 39.8348 14.6549 40.0873 15.3073C39.2664 7.66745 33.7418 6.49936 28.8801 5.42598Z" fill="url(#paint78_radial_668_1661)"/>
<path d="M28.8801 5.42598C26.7467 4.95498 24.4603 7.22547 24.2393 8.01472C27.1436 14.8338 31.6035 14.1839 36.5514 13.6341C39.5134 13.305 39.8348 14.6549 40.0873 15.3073C39.2664 7.66745 33.7418 6.49936 28.8801 5.42598Z" fill="url(#paint79_radial_668_1661)"/>
</g>
<g filter="url(#filter33_f_668_1661)">
<path d="M24.5703 7.77783C24.6142 8.23559 25.0124 9.95615 25.5965 10.998" stroke="url(#paint80_linear_668_1661)" stroke-width="0.1875" stroke-linecap="round"/>
</g>
<g filter="url(#filter34_ii_668_1661)">
<path d="M39.082 16.2788H32.5758C32.0133 16.2788 31.4883 16.5413 31.132 16.9726C30.907 17.2538 30.5695 17.4226 30.1758 17.4226C29.782 17.4226 29.4445 17.2538 29.2195 16.9726C28.8633 16.5413 28.3383 16.2788 27.7758 16.2788H21.2508C20.8945 16.2788 20.6133 16.5601 20.6133 16.9163V17.3288C20.6133 17.5351 20.707 17.7038 20.857 17.8163C20.932 17.8726 20.9883 17.9663 20.9883 18.0601V20.1225C20.9883 22.0913 22.582 23.7038 24.5695 23.7038H25.9008C27.8695 23.7038 29.482 22.11 29.482 20.1225V18.9788C29.5008 18.6038 29.8008 18.3226 30.1758 18.3226C30.5508 18.3226 30.8508 18.6226 30.8695 18.9975C30.8695 19.3725 30.8695 19.7475 30.8695 20.1225C30.8695 22.0913 32.4633 23.7038 34.4508 23.7038H35.782C37.7508 23.7038 39.3633 22.11 39.3633 20.1225V18.0413C39.3633 17.9476 39.4008 17.8538 39.4758 17.7976C39.6258 17.6851 39.7195 17.4976 39.7195 17.3101V16.9163C39.7195 16.5601 39.4383 16.2788 39.082 16.2788ZM28.8445 19.935C28.8445 21.6413 27.457 23.0288 25.7508 23.0288H24.7195C23.0133 23.0288 21.6258 21.6413 21.6258 19.935V18.5851C21.6258 17.6663 22.357 16.9351 23.2758 16.9351H27.1758C28.0945 16.9351 28.8445 17.6663 28.8445 18.5851V19.935ZM38.7445 19.935C38.7445 21.6413 37.357 23.0288 35.6508 23.0288H34.6195C32.9133 23.0288 31.5258 21.6413 31.5258 19.935V18.5851C31.5258 17.6663 32.257 16.9351 33.1758 16.9351H37.0945C38.0133 16.9351 38.7445 17.6663 38.7445 18.5851V19.935Z" fill="url(#paint81_linear_668_1661)"/>
<path d="M39.082 16.2788H32.5758C32.0133 16.2788 31.4883 16.5413 31.132 16.9726C30.907 17.2538 30.5695 17.4226 30.1758 17.4226C29.782 17.4226 29.4445 17.2538 29.2195 16.9726C28.8633 16.5413 28.3383 16.2788 27.7758 16.2788H21.2508C20.8945 16.2788 20.6133 16.5601 20.6133 16.9163V17.3288C20.6133 17.5351 20.707 17.7038 20.857 17.8163C20.932 17.8726 20.9883 17.9663 20.9883 18.0601V20.1225C20.9883 22.0913 22.582 23.7038 24.5695 23.7038H25.9008C27.8695 23.7038 29.482 22.11 29.482 20.1225V18.9788C29.5008 18.6038 29.8008 18.3226 30.1758 18.3226C30.5508 18.3226 30.8508 18.6226 30.8695 18.9975C30.8695 19.3725 30.8695 19.7475 30.8695 20.1225C30.8695 22.0913 32.4633 23.7038 34.4508 23.7038H35.782C37.7508 23.7038 39.3633 22.11 39.3633 20.1225V18.0413C39.3633 17.9476 39.4008 17.8538 39.4758 17.7976C39.6258 17.6851 39.7195 17.4976 39.7195 17.3101V16.9163C39.7195 16.5601 39.4383 16.2788 39.082 16.2788ZM28.8445 19.935C28.8445 21.6413 27.457 23.0288 25.7508 23.0288H24.7195C23.0133 23.0288 21.6258 21.6413 21.6258 19.935V18.5851C21.6258 17.6663 22.357 16.9351 23.2758 16.9351H27.1758C28.0945 16.9351 28.8445 17.6663 28.8445 18.5851V19.935ZM38.7445 19.935C38.7445 21.6413 37.357 23.0288 35.6508 23.0288H34.6195C32.9133 23.0288 31.5258 21.6413 31.5258 19.935V18.5851C31.5258 17.6663 32.257 16.9351 33.1758 16.9351H37.0945C38.0133 16.9351 38.7445 17.6663 38.7445 18.5851V19.935Z" fill="url(#paint82_radial_668_1661)"/>
</g>
<defs>
<filter id="filter0_i_668_1661" x="3.77539" y="7.51855" width="52.4629" height="39.5439" filterUnits="userSpaceOnUse" color-interpolation-filters="sRGB">
<feFlood flood-opacity="0" result="BackgroundImageFix"/>
<feBlend mode="normal" in="SourceGraphic" in2="BackgroundImageFix" result="shape"/>
<feColorMatrix in="SourceAlpha" type="matrix" values="0 0 0 0 0 0 0 0 0 0 0 0 0 0 0 0 0 0 127 0" result="hardAlpha"/>
<feOffset dy="0.1875"/>
<feGaussianBlur stdDeviation="0.1875"/>
<feComposite in2="hardAlpha" operator="arithmetic" k2="-1" k3="1"/>
<feColorMatrix type="matrix" values="0 0 0 0 0.81585 0 0 0 0 0.641744 0 0 0 0 0.41905 0 0 0 1 0"/>
<feBlend mode="normal" in2="shape" result="effect1_innerShadow_668_1661"/>
</filter>
<filter id="filter1_f_668_1661" x="5.02148" y="7.2251" width="51.3984" height="38.9717" filterUnits="userSpaceOnUse" color-interpolation-filters="sRGB">
<feFlood flood-opacity="0" result="BackgroundImageFix"/>
<feBlend mode="normal" in="SourceGraphic" in2="BackgroundImageFix" result="shape"/>
<feGaussianBlur stdDeviation="0.375" result="effect1_foregroundBlur_668_1661"/>
</filter>
<filter id="filter2_i_668_1661" x="3.77539" y="7.55664" width="52.3311" height="39.2998" filterUnits="userSpaceOnUse" color-interpolation-filters="sRGB">
<feFlood flood-opacity="0" result="BackgroundImageFix"/>
<feBlend mode="normal" in="SourceGraphic" in2="BackgroundImageFix" result="shape"/>
<feColorMatrix in="SourceAlpha" type="matrix" values="0 0 0 0 0 0 0 0 0 0 0 0 0 0 0 0 0 0 127 0" result="hardAlpha"/>
<feOffset dy="-0.5625"/>
<feGaussianBlur stdDeviation="0.375"/>
<feComposite in2="hardAlpha" operator="arithmetic" k2="-1" k3="1"/>
<feColorMatrix type="matrix" values="0 0 0 0 0.85098 0 0 0 0 0.482353 0 0 0 0 0.647059 0 0 0 1 0"/>
<feBlend mode="normal" in2="shape" result="effect1_innerShadow_668_1661"/>
</filter>
<filter id="filter3_i_668_1661" x="15.873" y="3.56787" width="28.7549" height="28.7554" filterUnits="userSpaceOnUse" color-interpolation-filters="sRGB">
<feFlood flood-opacity="0" result="BackgroundImageFix"/>
<feBlend mode="normal" in="SourceGraphic" in2="BackgroundImageFix" result="shape"/>
<feColorMatrix in="SourceAlpha" type="matrix" values="0 0 0 0 0 0 0 0 0 0 0 0 0 0 0 0 0 0 127 0" result="hardAlpha"/>
<feOffset dx="0.46875" dy="-0.46875"/>
<feGaussianBlur stdDeviation="0.703125"/>
<feComposite in2="hardAlpha" operator="arithmetic" k2="-1" k3="1"/>
<feColorMatrix type="matrix" values="0 0 0 0 0.92549 0 0 0 0 0.537255 0 0 0 0 0.12549 0 0 0 1 0"/>
<feBlend mode="normal" in2="shape" result="effect1_innerShadow_668_1661"/>
</filter>
<filter id="filter4_i_668_1661" x="33.8691" y="29.04" width="5.24414" height="27.2285" filterUnits="userSpaceOnUse" color-interpolation-filters="sRGB">
<feFlood flood-opacity="0" result="BackgroundImageFix"/>
<feBlend mode="normal" in="SourceGraphic" in2="BackgroundImageFix" result="shape"/>
<feColorMatrix in="SourceAlpha" type="matrix" values="0 0 0 0 0 0 0 0 0 0 0 0 0 0 0 0 0 0 127 0" result="hardAlpha"/>
<feOffset dy="-0.1875"/>
<feGaussianBlur stdDeviation="0.234375"/>
<feComposite in2="hardAlpha" operator="arithmetic" k2="-1" k3="1"/>
<feColorMatrix type="matrix" values="0 0 0 0 0.380392 0 0 0 0 0.164706 0 0 0 0 0.203922 0 0 0 1 0"/>
<feBlend mode="normal" in2="shape" result="effect1_innerShadow_668_1661"/>
</filter>
<filter id="filter5_i_668_1661" x="20.9189" y="29.041" width="5.24414" height="27.228" filterUnits="userSpaceOnUse" color-interpolation-filters="sRGB">
<feFlood flood-opacity="0" result="BackgroundImageFix"/>
<feBlend mode="normal" in="SourceGraphic" in2="BackgroundImageFix" result="shape"/>
<feColorMatrix in="SourceAlpha" type="matrix" values="0 0 0 0 0 0 0 0 0 0 0 0 0 0 0 0 0 0 127 0" result="hardAlpha"/>
<feOffset dy="-0.1875"/>
<feGaussianBlur stdDeviation="0.234375"/>
<feComposite in2="hardAlpha" operator="arithmetic" k2="-1" k3="1"/>
<feColorMatrix type="matrix" values="0 0 0 0 0.380392 0 0 0 0 0.164706 0 0 0 0 0.203922 0 0 0 1 0"/>
<feBlend mode="normal" in2="shape" result="effect1_innerShadow_668_1661"/>
</filter>
<filter id="filter6_i_668_1661" x="16.8008" y="45.7861" width="8.6123" height="10.4824" filterUnits="userSpaceOnUse" color-interpolation-filters="sRGB">
<feFlood flood-opacity="0" result="BackgroundImageFix"/>
<feBlend mode="normal" in="SourceGraphic" in2="BackgroundImageFix" result="shape"/>
<feColorMatrix in="SourceAlpha" type="matrix" values="0 0 0 0 0 0 0 0 0 0 0 0 0 0 0 0 0 0 127 0" result="hardAlpha"/>
<feOffset dx="0.375" dy="-0.375"/>
<feGaussianBlur stdDeviation="0.46875"/>
<feComposite in2="hardAlpha" operator="arithmetic" k2="-1" k3="1"/>
<feColorMatrix type="matrix" values="0 0 0 0 0.847059 0 0 0 0 0.588235 0 0 0 0 0.317647 0 0 0 1 0"/>
<feBlend mode="normal" in2="shape" result="effect1_innerShadow_668_1661"/>
</filter>
<filter id="filter7_i_668_1661" x="34.9941" y="45.7861" width="8.6123" height="10.4824" filterUnits="userSpaceOnUse" color-interpolation-filters="sRGB">
<feFlood flood-opacity="0" result="BackgroundImageFix"/>
<feBlend mode="normal" in="SourceGraphic" in2="BackgroundImageFix" result="shape"/>
<feColorMatrix in="SourceAlpha" type="matrix" values="0 0 0 0 0 0 0 0 0 0 0 0 0 0 0 0 0 0 127 0" result="hardAlpha"/>
<feOffset dx="0.375" dy="-0.375"/>
<feGaussianBlur stdDeviation="0.46875"/>
<feComposite in2="hardAlpha" operator="arithmetic" k2="-1" k3="1"/>
<feColorMatrix type="matrix" values="0 0 0 0 0.835294 0 0 0 0 0.458824 0 0 0 0 0.2 0 0 0 1 0"/>
<feBlend mode="normal" in2="shape" result="effect1_innerShadow_668_1661"/>
</filter>
<filter id="filter8_f_668_1661" x="35.4062" y="48.5605" width="4.16602" height="0.5625" filterUnits="userSpaceOnUse" color-interpolation-filters="sRGB">
<feFlood flood-opacity="0" result="BackgroundImageFix"/>
<feBlend mode="normal" in="SourceGraphic" in2="BackgroundImageFix" result="shape"/>
<feGaussianBlur stdDeviation="0.09375" result="effect1_foregroundBlur_668_1661"/>
</filter>
<filter id="filter9_f_668_1661" x="20.3809" y="48.5605" width="4.16602" height="0.5625" filterUnits="userSpaceOnUse" color-interpolation-filters="sRGB">
<feFlood flood-opacity="0" result="BackgroundImageFix"/>
<feBlend mode="normal" in="SourceGraphic" in2="BackgroundImageFix" result="shape"/>
<feGaussianBlur stdDeviation="0.09375" result="effect1_foregroundBlur_668_1661"/>
</filter>
<filter id="filter10_f_668_1661" x="35.4062" y="50.9336" width="4.16602" height="0.5625" filterUnits="userSpaceOnUse" color-interpolation-filters="sRGB">
<feFlood flood-opacity="0" result="BackgroundImageFix"/>
<feBlend mode="normal" in="SourceGraphic" in2="BackgroundImageFix" result="shape"/>
<feGaussianBlur stdDeviation="0.09375" result="effect1_foregroundBlur_668_1661"/>
</filter>
<filter id="filter11_f_668_1661" x="20.3809" y="50.9336" width="4.16602" height="0.5625" filterUnits="userSpaceOnUse" color-interpolation-filters="sRGB">
<feFlood flood-opacity="0" result="BackgroundImageFix"/>
<feBlend mode="normal" in="SourceGraphic" in2="BackgroundImageFix" result="shape"/>
<feGaussianBlur stdDeviation="0.09375" result="effect1_foregroundBlur_668_1661"/>
</filter>
<filter id="filter12_f_668_1661" x="35.4062" y="53.3066" width="4.16602" height="0.5625" filterUnits="userSpaceOnUse" color-interpolation-filters="sRGB">
<feFlood flood-opacity="0" result="BackgroundImageFix"/>
<feBlend mode="normal" in="SourceGraphic" in2="BackgroundImageFix" result="shape"/>
<feGaussianBlur stdDeviation="0.09375" result="effect1_foregroundBlur_668_1661"/>
</filter>
<filter id="filter13_f_668_1661" x="20.3809" y="53.3066" width="4.16602" height="0.5625" filterUnits="userSpaceOnUse" color-interpolation-filters="sRGB">
<feFlood flood-opacity="0" result="BackgroundImageFix"/>
<feBlend mode="normal" in="SourceGraphic" in2="BackgroundImageFix" result="shape"/>
<feGaussianBlur stdDeviation="0.09375" result="effect1_foregroundBlur_668_1661"/>
</filter>
<filter id="filter14_i_668_1661" x="18.1602" y="17.0688" width="6.24902" height="6.06152" filterUnits="userSpaceOnUse" color-interpolation-filters="sRGB">
<feFlood flood-opacity="0" result="BackgroundImageFix"/>
<feBlend mode="normal" in="SourceGraphic" in2="BackgroundImageFix" result="shape"/>
<feColorMatrix in="SourceAlpha" type="matrix" values="0 0 0 0 0 0 0 0 0 0 0 0 0 0 0 0 0 0 127 0" result="hardAlpha"/>
<feOffset dx="0.1875"/>
<feGaussianBlur stdDeviation="0.28125"/>
<feComposite in2="hardAlpha" operator="arithmetic" k2="-1" k3="1"/>
<feColorMatrix type="matrix" values="0 0 0 0 0.768627 0 0 0 0 0.501961 0 0 0 0 0.160784 0 0 0 1 0"/>
<feBlend mode="normal" in2="shape" result="effect1_innerShadow_668_1661"/>
</filter>
<filter id="filter15_i_668_1661" x="36.0781" y="16.6001" width="6.06152" height="6.53027" filterUnits="userSpaceOnUse" color-interpolation-filters="sRGB">
<feFlood flood-opacity="0" result="BackgroundImageFix"/>
<feBlend mode="normal" in="SourceGraphic" in2="BackgroundImageFix" result="shape"/>
<feColorMatrix in="SourceAlpha" type="matrix" values="0 0 0 0 0 0 0 0 0 0 0 0 0 0 0 0 0 0 127 0" result="hardAlpha"/>
<feOffset dy="-0.46875"/>
<feGaussianBlur stdDeviation="0.46875"/>
<feComposite in2="hardAlpha" operator="arithmetic" k2="-1" k3="1"/>
<feColorMatrix type="matrix" values="0 0 0 0 0.937255 0 0 0 0 0.576471 0 0 0 0 0.341176 0 0 0 1 0"/>
<feBlend mode="normal" in2="shape" result="effect1_innerShadow_668_1661"/>
</filter>
<filter id="filter16_f_668_1661" x="36.1475" y="17.1387" width="5.9209" height="5.92139" filterUnits="userSpaceOnUse" color-interpolation-filters="sRGB">
<feFlood flood-opacity="0" result="BackgroundImageFix"/>
<feBlend mode="normal" in="SourceGraphic" in2="BackgroundImageFix" result="shape"/>
<feGaussianBlur stdDeviation="0.46875" result="effect1_foregroundBlur_668_1661"/>
</filter>
<filter id="filter17_f_668_1661" x="18.7354" y="17.6074" width="4.9834" height="4.98389" filterUnits="userSpaceOnUse" color-interpolation-filters="sRGB">
<feFlood flood-opacity="0" result="BackgroundImageFix"/>
<feBlend mode="normal" in="SourceGraphic" in2="BackgroundImageFix" result="shape"/>
<feGaussianBlur stdDeviation="0.234375" result="effect1_foregroundBlur_668_1661"/>
</filter>
<filter id="filter18_i_668_1661" x="20.4189" y="10.8574" width="19.1943" height="21.2363" filterUnits="userSpaceOnUse" color-interpolation-filters="sRGB">
<feFlood flood-opacity="0" result="BackgroundImageFix"/>
<feBlend mode="normal" in="SourceGraphic" in2="BackgroundImageFix" result="shape"/>
<feColorMatrix in="SourceAlpha" type="matrix" values="0 0 0 0 0 0 0 0 0 0 0 0 0 0 0 0 0 0 127 0" result="hardAlpha"/>
<feOffset dy="0.75"/>
<feGaussianBlur stdDeviation="0.5625"/>
<feComposite in2="hardAlpha" operator="arithmetic" k2="-1" k3="1"/>
<feColorMatrix type="matrix" values="0 0 0 0 0.92549 0 0 0 0 0.529412 0 0 0 0 0.137255 0 0 0 1 0"/>
<feBlend mode="normal" in2="shape" result="effect1_innerShadow_668_1661"/>
</filter>
<filter id="filter19_f_668_1661" x="27.0049" y="18.2104" width="5.41113" height="6.92627" filterUnits="userSpaceOnUse" color-interpolation-filters="sRGB">
<feFlood flood-opacity="0" result="BackgroundImageFix"/>
<feBlend mode="normal" in="SourceGraphic" in2="BackgroundImageFix" result="shape"/>
<feGaussianBlur stdDeviation="0.46875" result="effect1_foregroundBlur_668_1661"/>
</filter>
<filter id="filter20_f_668_1661" x="27.7803" y="18.418" width="4.47363" height="5.98877" filterUnits="userSpaceOnUse" color-interpolation-filters="sRGB">
<feFlood flood-opacity="0" result="BackgroundImageFix"/>
<feBlend mode="normal" in="SourceGraphic" in2="BackgroundImageFix" result="shape"/>
<feGaussianBlur stdDeviation="0.234375" result="effect1_foregroundBlur_668_1661"/>
</filter>
<filter id="filter21_i_668_1661" x="31.792" y="17.4536" width="5.65137" height="2.4209" filterUnits="userSpaceOnUse" color-interpolation-filters="sRGB">
<feFlood flood-opacity="0" result="BackgroundImageFix"/>
<feBlend mode="normal" in="SourceGraphic" in2="BackgroundImageFix" result="shape"/>
<feColorMatrix in="SourceAlpha" type="matrix" values="0 0 0 0 0 0 0 0 0 0 0 0 0 0 0 0 0 0 127 0" result="hardAlpha"/>
<feOffset dx="-0.375"/>
<feGaussianBlur stdDeviation="0.375"/>
<feComposite in2="hardAlpha" operator="arithmetic" k2="-1" k3="1"/>
<feColorMatrix type="matrix" values="0 0 0 0 0.141176 0 0 0 0 0.0862745 0 0 0 0 0.176471 0 0 0 1 0"/>
<feBlend mode="normal" in2="shape" result="effect1_innerShadow_668_1661"/>
</filter>
<filter id="filter22_i_668_1661" x="22.5898" y="17.4536" width="5.65137" height="2.4209" filterUnits="userSpaceOnUse" color-interpolation-filters="sRGB">
<feFlood flood-opacity="0" result="BackgroundImageFix"/>
<feBlend mode="normal" in="SourceGraphic" in2="BackgroundImageFix" result="shape"/>
<feColorMatrix in="SourceAlpha" type="matrix" values="0 0 0 0 0 0 0 0 0 0 0 0 0 0 0 0 0 0 127 0" result="hardAlpha"/>
<feOffset dx="0.375"/>
<feGaussianBlur stdDeviation="0.234375"/>
<feComposite in2="hardAlpha" operator="arithmetic" k2="-1" k3="1"/>
<feColorMatrix type="matrix" values="0 0 0 0 0.133333 0 0 0 0 0.0784314 0 0 0 0 0.168627 0 0 0 1 0"/>
<feBlend mode="normal" in2="shape" result="effect1_innerShadow_668_1661"/>
</filter>
<filter id="filter23_i_668_1661" x="22.8438" y="14.624" width="4.61816" height="2.05273" filterUnits="userSpaceOnUse" color-interpolation-filters="sRGB">
<feFlood flood-opacity="0" result="BackgroundImageFix"/>
<feBlend mode="normal" in="SourceGraphic" in2="BackgroundImageFix" result="shape"/>
<feColorMatrix in="SourceAlpha" type="matrix" values="0 0 0 0 0 0 0 0 0 0 0 0 0 0 0 0 0 0 127 0" result="hardAlpha"/>
<feOffset dx="0.375" dy="-0.375"/>
<feGaussianBlur stdDeviation="0.28125"/>
<feComposite in2="hardAlpha" operator="arithmetic" k2="-1" k3="1"/>
<feColorMatrix type="matrix" values="0 0 0 0 0.658824 0 0 0 0 0.270588 0 0 0 0 0.141176 0 0 0 1 0"/>
<feBlend mode="normal" in2="shape" result="effect1_innerShadow_668_1661"/>
</filter>
<filter id="filter24_i_668_1661" x="33.0469" y="14.624" width="4.61816" height="2.05322" filterUnits="userSpaceOnUse" color-interpolation-filters="sRGB">
<feFlood flood-opacity="0" result="BackgroundImageFix"/>
<feBlend mode="normal" in="SourceGraphic" in2="BackgroundImageFix" result="shape"/>
<feColorMatrix in="SourceAlpha" type="matrix" values="0 0 0 0 0 0 0 0 0 0 0 0 0 0 0 0 0 0 127 0" result="hardAlpha"/>
<feOffset dx="0.375" dy="-0.375"/>
<feGaussianBlur stdDeviation="0.28125"/>
<feComposite in2="hardAlpha" operator="arithmetic" k2="-1" k3="1"/>
<feColorMatrix type="matrix" values="0 0 0 0 0.658824 0 0 0 0 0.270588 0 0 0 0 0.141176 0 0 0 1 0"/>
<feBlend mode="normal" in2="shape" result="effect1_innerShadow_668_1661"/>
</filter>
<filter id="filter25_f_668_1661" x="32.7441" y="18.1484" width="1.47852" height="1.30811" filterUnits="userSpaceOnUse" color-interpolation-filters="sRGB">
<feFlood flood-opacity="0" result="BackgroundImageFix"/>
<feBlend mode="normal" in="SourceGraphic" in2="BackgroundImageFix" result="shape"/>
<feGaussianBlur stdDeviation="0.09375" result="effect1_foregroundBlur_668_1661"/>
</filter>
<filter id="filter26_f_668_1661" x="34.3271" y="18.2896" width="1.67383" height="1.71533" filterUnits="userSpaceOnUse" color-interpolation-filters="sRGB">
<feFlood flood-opacity="0" result="BackgroundImageFix"/>
<feBlend mode="normal" in="SourceGraphic" in2="BackgroundImageFix" result="shape"/>
<feGaussianBlur stdDeviation="0.1875" result="effect1_foregroundBlur_668_1661"/>
</filter>
<filter id="filter27_f_668_1661" x="25.959" y="18.1699" width="1.85254" height="1.95361" filterUnits="userSpaceOnUse" color-interpolation-filters="sRGB">
<feFlood flood-opacity="0" result="BackgroundImageFix"/>
<feBlend mode="normal" in="SourceGraphic" in2="BackgroundImageFix" result="shape"/>
<feGaussianBlur stdDeviation="0.1875" result="effect1_foregroundBlur_668_1661"/>
</filter>
<filter id="filter28_f_668_1661" x="24.5361" y="18.1323" width="1.71582" height="1.32373" filterUnits="userSpaceOnUse" color-interpolation-filters="sRGB">
<feFlood flood-opacity="0" result="BackgroundImageFix"/>
<feBlend mode="normal" in="SourceGraphic" in2="BackgroundImageFix" result="shape"/>
<feGaussianBlur stdDeviation="0.09375" result="effect1_foregroundBlur_668_1661"/>
</filter>
<filter id="filter29_f_668_1661" x="33.1074" y="14.855" width="4.25293" height="1.83643" filterUnits="userSpaceOnUse" color-interpolation-filters="sRGB">
<feFlood flood-opacity="0" result="BackgroundImageFix"/>
<feBlend mode="normal" in="SourceGraphic" in2="BackgroundImageFix" result="shape"/>
<feGaussianBlur stdDeviation="0.1875" result="effect1_foregroundBlur_668_1661"/>
</filter>
<filter id="filter30_f_668_1661" x="22.8379" y="14.855" width="4.25293" height="1.83643" filterUnits="userSpaceOnUse" color-interpolation-filters="sRGB">
<feFlood flood-opacity="0" result="BackgroundImageFix"/>
<feBlend mode="normal" in="SourceGraphic" in2="BackgroundImageFix" result="shape"/>
<feGaussianBlur stdDeviation="0.1875" result="effect1_foregroundBlur_668_1661"/>
</filter>
<filter id="filter31_f_668_1661" x="17.3887" y="6.40137" width="9.37695" height="9.80713" filterUnits="userSpaceOnUse" color-interpolation-filters="sRGB">
<feFlood flood-opacity="0" result="BackgroundImageFix"/>
<feBlend mode="normal" in="SourceGraphic" in2="BackgroundImageFix" result="shape"/>
<feGaussianBlur stdDeviation="0.703125" result="effect1_foregroundBlur_668_1661"/>
</filter>
<filter id="filter32_f_668_1661" x="23.7705" y="4.89355" width="16.7852" height="10.8823" filterUnits="userSpaceOnUse" color-interpolation-filters="sRGB">
<feFlood flood-opacity="0" result="BackgroundImageFix"/>
<feBlend mode="normal" in="SourceGraphic" in2="BackgroundImageFix" result="shape"/>
<feGaussianBlur stdDeviation="0.234375" result="effect1_foregroundBlur_668_1661"/>
</filter>
<filter id="filter33_f_668_1661" x="24.0078" y="7.21533" width="2.15137" height="4.34521" filterUnits="userSpaceOnUse" color-interpolation-filters="sRGB">
<feFlood flood-opacity="0" result="BackgroundImageFix"/>
<feBlend mode="normal" in="SourceGraphic" in2="BackgroundImageFix" result="shape"/>
<feGaussianBlur stdDeviation="0.234375" result="effect1_foregroundBlur_668_1661"/>
</filter>
<filter id="filter34_ii_668_1661" x="20.4258" y="16.2788" width="19.2939" height="7.6123" filterUnits="userSpaceOnUse" color-interpolation-filters="sRGB">
<feFlood flood-opacity="0" result="BackgroundImageFix"/>
<feBlend mode="normal" in="SourceGraphic" in2="BackgroundImageFix" result="shape"/>
<feColorMatrix in="SourceAlpha" type="matrix" values="0 0 0 0 0 0 0 0 0 0 0 0 0 0 0 0 0 0 127 0" result="hardAlpha"/>
<feOffset dx="-0.1875" dy="0.1875"/>
<feGaussianBlur stdDeviation="0.09375"/>
<feComposite in2="hardAlpha" operator="arithmetic" k2="-1" k3="1"/>
<feColorMatrix type="matrix" values="0 0 0 0 0.376863 0 0 0 0 0.313721 0 0 0 0 0.444863 0 0 0 1 0"/>
<feBlend mode="normal" in2="shape" result="effect1_innerShadow_668_1661"/>
<feColorMatrix in="SourceAlpha" type="matrix" values="0 0 0 0 0 0 0 0 0 0 0 0 0 0 0 0 0 0 127 0" result="hardAlpha"/>
<feOffset dy="0.1875"/>
<feGaussianBlur stdDeviation="0.09375"/>
<feComposite in2="hardAlpha" operator="arithmetic" k2="-1" k3="1"/>
<feColorMatrix type="matrix" values="0 0 0 0 0.25098 0 0 0 0 0.160784 0 0 0 0 0.321569 0 0 0 1 0"/>
<feBlend mode="normal" in2="effect1_innerShadow_668_1661" result="effect2_innerShadow_668_1661"/>
</filter>
<linearGradient id="paint0_linear_668_1661" x1="22.1772" y1="8.66035" x2="58.6323" y2="42.8518" gradientUnits="userSpaceOnUse">
<stop stop-color="#EFBE85"/>
<stop offset="0.567876" stop-color="#E8AC81"/>
<stop offset="1" stop-color="#D6753D"/>
</linearGradient>
<linearGradient id="paint1_linear_668_1661" x1="56.3847" y1="24.9502" x2="17.1269" y2="24.9502" gradientUnits="userSpaceOnUse">
<stop stop-color="#509245"/>
<stop offset="1" stop-color="#44803D"/>
</linearGradient>
<radialGradient id="paint2_radial_668_1661" cx="0" cy="0" r="1" gradientUnits="userSpaceOnUse" gradientTransform="translate(12.0878 48.2705) rotate(-56.7456) scale(34.1931 46.7972)">
<stop stop-color="#25585F"/>
<stop offset="1" stop-color="#25585F" stop-opacity="0"/>
</radialGradient>
<radialGradient id="paint3_radial_668_1661" cx="0" cy="0" r="1" gradientUnits="userSpaceOnUse" gradientTransform="translate(55.4472 47.8018) rotate(-125.417) scale(32.3541 32.0029)">
<stop stop-color="#358175"/>
<stop offset="1" stop-color="#358175" stop-opacity="0"/>
</radialGradient>
<linearGradient id="paint4_linear_668_1661" x1="25.2129" y1="6.67432" x2="58.6113" y2="45.6978" gradientUnits="userSpaceOnUse">
<stop stop-color="#FFD59C"/>
<stop offset="1" stop-color="#F69C5B"/>
</linearGradient>
<linearGradient id="paint5_linear_668_1661" x1="-9.18168" y1="48.0953" x2="54.2167" y2="48.0953" gradientUnits="userSpaceOnUse">
<stop stop-color="#D18F7B"/>
<stop offset="1" stop-color="#F1B58B"/>
</linearGradient>
<linearGradient id="paint6_linear_668_1661" x1="5.81832" y1="9.77499" x2="5.81832" y2="44.3453" gradientUnits="userSpaceOnUse">
<stop stop-color="#D78248"/>
<stop offset="1" stop-color="#D78248" stop-opacity="0"/>
</linearGradient>
<radialGradient id="paint7_radial_668_1661" cx="0" cy="0" r="1" gradientUnits="userSpaceOnUse" gradientTransform="translate(3.77539 8.11914) rotate(90) scale(17.4588 1.15808)">
<stop offset="0.355159" stop-color="#BC7B53"/>
<stop offset="1" stop-color="#BC7B53" stop-opacity="0"/>
</radialGradient>
<linearGradient id="paint8_linear_668_1661" x1="38.8559" y1="7.0042" x2="25.217" y2="32.3232" gradientUnits="userSpaceOnUse">
<stop stop-color="#FFD93C"/>
<stop offset="1" stop-color="#E37923"/>
</linearGradient>
<radialGradient id="paint9_radial_668_1661" cx="0" cy="0" r="1" gradientUnits="userSpaceOnUse" gradientTransform="translate(37.2168 26.3125) rotate(25.3312) scale(4.82109 6.82884)">
<stop offset="0.191463" stop-color="#E38923"/>
<stop offset="1" stop-color="#E38923" stop-opacity="0"/>
</radialGradient>
<radialGradient id="paint10_radial_668_1661" cx="0" cy="0" r="1" gradientUnits="userSpaceOnUse" gradientTransform="translate(21.4068 23.9294) rotate(90) scale(8.39368 5.05691)">
<stop stop-color="#C9641B"/>
<stop offset="1" stop-color="#D77117" stop-opacity="0"/>
</radialGradient>
<radialGradient id="paint11_radial_668_1661" cx="0" cy="0" r="1" gradientUnits="userSpaceOnUse" gradientTransform="translate(30.0162 24.1038) rotate(90) scale(10.4929 10.9303)">
<stop offset="0.617268" stop-color="#E26B25"/>
<stop offset="1" stop-color="#E26B25" stop-opacity="0"/>
</radialGradient>
<radialGradient id="paint12_radial_668_1661" cx="0" cy="0" r="1" gradientUnits="userSpaceOnUse" gradientTransform="translate(20.7672 20.7034) rotate(127.617) scale(3.82866 3.71743)">
<stop offset="0.161391" stop-color="#C9681C"/>
<stop offset="1" stop-color="#C9681C" stop-opacity="0"/>
</radialGradient>
<radialGradient id="paint13_radial_668_1661" cx="0" cy="0" r="1" gradientUnits="userSpaceOnUse" gradientTransform="translate(21.8806 16.1141) rotate(100.537) scale(4.81588 5.01484)">
<stop offset="0.365444" stop-color="#D76A18"/>
<stop offset="1" stop-color="#D76A18" stop-opacity="0"/>
</radialGradient>
<radialGradient id="paint14_radial_668_1661" cx="0" cy="0" r="1" gradientUnits="userSpaceOnUse" gradientTransform="translate(23.7318 6.60805) rotate(62.6046) scale(4.48453 8.54291)">
<stop offset="0.221806" stop-color="#CBA140"/>
<stop offset="0.921111" stop-color="#CBA140" stop-opacity="0"/>
</radialGradient>
<radialGradient id="paint15_radial_668_1661" cx="0" cy="0" r="1" gradientUnits="userSpaceOnUse" gradientTransform="translate(40.3713 9.27723) rotate(132.51) scale(3.08351 4.30916)">
<stop stop-color="#FFDF3C"/>
<stop offset="1" stop-color="#FFDF3C" stop-opacity="0"/>
</radialGradient>
<radialGradient id="paint16_radial_668_1661" cx="0" cy="0" r="1" gradientUnits="userSpaceOnUse" gradientTransform="translate(44.1595 18.4956) rotate(163.779) scale(3.61648 7.86898)">
<stop stop-color="#FFD537"/>
<stop offset="1" stop-color="#FFD537" stop-opacity="0"/>
</radialGradient>
<radialGradient id="paint17_radial_668_1661" cx="0" cy="0" r="1" gradientUnits="userSpaceOnUse" gradientTransform="translate(24.9216 11.3066) rotate(-90.3515) scale(2.58864 0.848734)">
<stop offset="0.295258" stop-color="#DB6009"/>
<stop offset="1" stop-color="#DB6009" stop-opacity="0"/>
</radialGradient>
<radialGradient id="paint18_radial_668_1661" cx="0" cy="0" r="1" gradientUnits="userSpaceOnUse" gradientTransform="translate(30.0173 29.9306) rotate(90) scale(26.3379 11.66)">
<stop stop-color="#61342D"/>
<stop offset="1" stop-color="#764747"/>
</radialGradient>
<radialGradient id="paint19_radial_668_1661" cx="0" cy="0" r="1" gradientUnits="userSpaceOnUse" gradientTransform="translate(42.4979 38.4268) rotate(90) scale(15.7031 5.50781)">
<stop stop-color="#9A6D66"/>
<stop offset="1" stop-color="#9A6D66" stop-opacity="0"/>
</radialGradient>
<radialGradient id="paint20_radial_668_1661" cx="0" cy="0" r="1" gradientUnits="userSpaceOnUse" gradientTransform="translate(23.8651 35.79) rotate(135) scale(4.06033 3.27313)">
<stop stop-color="#61332B"/>
<stop offset="1" stop-color="#61332B" stop-opacity="0"/>
</radialGradient>
<radialGradient id="paint21_radial_668_1661" cx="0" cy="0" r="1" gradientUnits="userSpaceOnUse" gradientTransform="translate(50.6312 52.9581) rotate(-90) scale(19.1016 7.22074)">
<stop stop-color="#7C5A5A"/>
<stop offset="1" stop-color="#735451"/>
</radialGradient>
<linearGradient id="paint22_linear_668_1661" x1="47.2176" y1="57.1198" x2="47.2176" y2="49.9633" gradientUnits="userSpaceOnUse">
<stop stop-color="#614451"/>
<stop offset="1" stop-color="#614451" stop-opacity="0"/>
</linearGradient>
<linearGradient id="paint23_linear_668_1661" x1="42.0289" y1="54.8916" x2="43.5524" y2="54.8623" gradientUnits="userSpaceOnUse">
<stop offset="0.253974" stop-color="#4F2737"/>
<stop offset="1" stop-color="#4F2737" stop-opacity="0"/>
</linearGradient>
<linearGradient id="paint24_linear_668_1661" x1="13.3947" y1="52.7944" x2="17.8845" y2="52.7944" gradientUnits="userSpaceOnUse">
<stop stop-color="#623D44"/>
<stop offset="1" stop-color="#4F2E37"/>
</linearGradient>
<radialGradient id="paint25_radial_668_1661" cx="0" cy="0" r="1" gradientUnits="userSpaceOnUse" gradientTransform="translate(21.502 55.8615) rotate(180) scale(12.9763 32.4013)">
<stop offset="0.575758" stop-color="#5D3841" stop-opacity="0"/>
<stop offset="1" stop-color="#7F6260"/>
</radialGradient>
<radialGradient id="paint26_radial_668_1661" cx="0" cy="0" r="1" gradientUnits="userSpaceOnUse" gradientTransform="translate(28.4945 35.1961) scale(6.73828 25.6193)">
<stop stop-color="#BFAABA"/>
<stop offset="1" stop-color="#7A5D72"/>
</radialGradient>
<linearGradient id="paint27_linear_668_1661" x1="33.8691" y1="34.4704" x2="39.1131" y2="34.4704" gradientUnits="userSpaceOnUse">
<stop stop-color="#613327"/>
<stop offset="0.371011" stop-color="#764440"/>
</linearGradient>
<radialGradient id="paint28_radial_668_1661" cx="0" cy="0" r="1" gradientUnits="userSpaceOnUse" gradientTransform="translate(39.8256 36.4759) rotate(-115.221) scale(7.01336 4.24226)">
<stop stop-color="#90645E"/>
<stop offset="1" stop-color="#90645E" stop-opacity="0"/>
</radialGradient>
<radialGradient id="paint29_radial_668_1661" cx="0" cy="0" r="1" gradientUnits="userSpaceOnUse" gradientTransform="translate(36.9025 38.3682) rotate(-125.283) scale(3.06857 0.558861)">
<stop stop-color="#8A5D57"/>
<stop offset="1" stop-color="#8A5D57" stop-opacity="0"/>
</radialGradient>
<radialGradient id="paint30_radial_668_1661" cx="0" cy="0" r="1" gradientUnits="userSpaceOnUse" gradientTransform="translate(32.8707 29.5791) rotate(66.6661) scale(2.5206 4.71812)">
<stop offset="0.358549" stop-color="#481E13"/>
<stop offset="1" stop-color="#4A1D14" stop-opacity="0"/>
</radialGradient>
<linearGradient id="paint31_linear_668_1661" x1="26.1629" y1="34.4706" x2="20.9189" y2="34.4706" gradientUnits="userSpaceOnUse">
<stop stop-color="#744036"/>
<stop offset="0.639259" stop-color="#72433E"/>
</linearGradient>
<radialGradient id="paint32_radial_668_1661" cx="0" cy="0" r="1" gradientUnits="userSpaceOnUse" gradientTransform="translate(25.3595 38.1927) rotate(-88.8542) scale(5.86056 2.36732)">
<stop stop-color="#875955"/>
<stop offset="1" stop-color="#875955" stop-opacity="0"/>
</radialGradient>
<linearGradient id="paint33_linear_668_1661" x1="22.7229" y1="31.7766" x2="23.7776" y2="32.1867" gradientUnits="userSpaceOnUse">
<stop stop-color="#6F5048"/>
<stop offset="1" stop-color="#6F5048" stop-opacity="0"/>
</linearGradient>
<radialGradient id="paint34_radial_668_1661" cx="0" cy="0" r="1" gradientUnits="userSpaceOnUse" gradientTransform="translate(26.6013 29.9309) rotate(122.784) scale(2.05601 3.84847)">
<stop offset="0.219333" stop-color="#481E13"/>
<stop offset="1" stop-color="#4A1D14" stop-opacity="0"/>
</radialGradient>
<radialGradient id="paint35_radial_668_1661" cx="0" cy="0" r="1" gradientUnits="userSpaceOnUse" gradientTransform="translate(30.7236 29.9832) rotate(90) scale(6.44531 4.59853)">
<stop offset="0.173699" stop-color="#DD9C2B"/>
<stop offset="0.637336" stop-color="#C07518"/>
<stop offset="1" stop-color="#894E01"/>
</radialGradient>
<radialGradient id="paint36_radial_668_1661" cx="0" cy="0" r="1" gradientUnits="userSpaceOnUse" gradientTransform="translate(43.2324 44.3306) rotate(135) scale(2.65164 2.96539)">
<stop stop-color="#FFE549"/>
<stop offset="0.813629" stop-color="#FEAE1B"/>
</radialGradient>
<radialGradient id="paint37_radial_668_1661" cx="0" cy="0" r="1" gradientUnits="userSpaceOnUse" gradientTransform="translate(17.011 46.1909) scale(2.98768 9.36141)">
<stop offset="0.213333" stop-color="#DF9A32"/>
<stop offset="1" stop-color="#B36C17"/>
</radialGradient>
<linearGradient id="paint38_linear_668_1661" x1="40.9754" y1="46.5129" x2="32.7723" y2="46.5129" gradientUnits="userSpaceOnUse">
<stop stop-color="#E9266F"/>
<stop offset="1" stop-color="#BF1B74"/>
</linearGradient>
<linearGradient id="paint39_linear_668_1661" x1="19.3574" y1="44.2274" x2="20.1601" y2="44.2274" gradientUnits="userSpaceOnUse">
<stop stop-color="#6D6670"/>
<stop offset="1" stop-color="#6D6670" stop-opacity="0"/>
</linearGradient>
<linearGradient id="paint40_linear_668_1661" x1="23.4557" y1="52.5478" x2="16.0729" y2="52.5478" gradientUnits="userSpaceOnUse">
<stop stop-color="#FFD743"/>
<stop offset="1" stop-color="#F19E2D"/>
</linearGradient>
<linearGradient id="paint41_linear_668_1661" x1="42.1462" y1="51.7861" x2="34.9942" y2="51.7861" gradientUnits="userSpaceOnUse">
<stop stop-color="#FFE243"/>
<stop offset="1" stop-color="#FFAB30"/>
</linearGradient>
<linearGradient id="paint42_linear_668_1661" x1="20.2332" y1="41.1808" x2="40.6199" y2="41.1808" gradientUnits="userSpaceOnUse">
<stop stop-color="#564567"/>
<stop offset="1" stop-color="#564567"/>
</linearGradient>
<linearGradient id="paint43_linear_668_1661" x1="30.77" y1="39.4229" x2="30.77" y2="41.6201" gradientUnits="userSpaceOnUse">
<stop stop-color="#DCD5E1"/>
<stop offset="1" stop-color="#B2ACB9"/>
</linearGradient>
<linearGradient id="paint44_linear_668_1661" x1="-nan" y1="-nan" x2="-nan" y2="-nan" gradientUnits="userSpaceOnUse">
<stop stop-color="#D27619"/>
<stop offset="1" stop-color="#D27619" stop-opacity="0"/>
</linearGradient>
<linearGradient id="paint45_linear_668_1661" x1="-nan" y1="-nan" x2="-nan" y2="-nan" gradientUnits="userSpaceOnUse">
<stop stop-color="#FFB60A"/>
<stop offset="1" stop-color="#FFB60A" stop-opacity="0"/>
</linearGradient>
<linearGradient id="paint46_linear_668_1661" x1="-nan" y1="-nan" x2="-nan" y2="-nan" gradientUnits="userSpaceOnUse">
<stop stop-color="#D27619"/>
<stop offset="1" stop-color="#D27619" stop-opacity="0"/>
</linearGradient>
<linearGradient id="paint47_linear_668_1661" x1="-nan" y1="-nan" x2="-nan" y2="-nan" gradientUnits="userSpaceOnUse">
<stop stop-color="#FFB60A"/>
<stop offset="1" stop-color="#FFB60A" stop-opacity="0"/>
</linearGradient>
<linearGradient id="paint48_linear_668_1661" x1="-nan" y1="-nan" x2="-nan" y2="-nan" gradientUnits="userSpaceOnUse">
<stop stop-color="#D27619"/>
<stop offset="1" stop-color="#D27619" stop-opacity="0"/>
</linearGradient>
<linearGradient id="paint49_linear_668_1661" x1="-nan" y1="-nan" x2="-nan" y2="-nan" gradientUnits="userSpaceOnUse">
<stop stop-color="#FFB60A"/>
<stop offset="1" stop-color="#FFB60A" stop-opacity="0"/>
</linearGradient>
<linearGradient id="paint50_linear_668_1661" x1="18.1602" y1="20.2637" x2="23.7339" y2="20.2637" gradientUnits="userSpaceOnUse">
<stop stop-color="#E79B27"/>
<stop offset="1" stop-color="#B96201"/>
</linearGradient>
<radialGradient id="paint51_radial_668_1661" cx="0" cy="0" r="1" gradientUnits="userSpaceOnUse" gradientTransform="translate(37.6252 20.9267) rotate(-24.444) scale(5.14969 6.28753)">
<stop offset="0.572298" stop-color="#FFC531"/>
<stop offset="0.904617" stop-color="#FFE549"/>
</radialGradient>
<radialGradient id="paint52_radial_668_1661" cx="0" cy="0" r="1" gradientUnits="userSpaceOnUse" gradientTransform="translate(38.6661 20.5476) rotate(-20.2976) scale(2.45717)">
<stop offset="0.71002" stop-color="#FFBA25" stop-opacity="0"/>
<stop offset="1" stop-color="#FFBA25"/>
</radialGradient>
<radialGradient id="paint53_radial_668_1661" cx="0" cy="0" r="1" gradientUnits="userSpaceOnUse" gradientTransform="translate(21.2272 20.0993) rotate(180) scale(2.02307 1.93521)">
<stop offset="0.415002" stop-color="#D67923" stop-opacity="0"/>
<stop offset="1" stop-color="#D67923"/>
</radialGradient>
<radialGradient id="paint54_radial_668_1661" cx="0" cy="0" r="1" gradientUnits="userSpaceOnUse" gradientTransform="translate(35.4015 19.0869) rotate(155.244) scale(13.4891 18.0549)">
<stop stop-color="#FFE644"/>
<stop offset="1" stop-color="#EB9235"/>
</radialGradient>
<radialGradient id="paint55_radial_668_1661" cx="0" cy="0" r="1" gradientUnits="userSpaceOnUse" gradientTransform="translate(33.5953 20.4006) rotate(152.124) scale(4.49529 3.81394)">
<stop stop-color="#FFE842"/>
<stop offset="1" stop-color="#FFE842" stop-opacity="0"/>
</radialGradient>
<radialGradient id="paint56_radial_668_1661" cx="0" cy="0" r="1" gradientUnits="userSpaceOnUse" gradientTransform="translate(25.9108 31.8619) rotate(-78.3106) scale(7.78033 9.87178)">
<stop stop-color="#E4883F"/>
<stop offset="1" stop-color="#E4883F" stop-opacity="0"/>
</radialGradient>
<radialGradient id="paint57_radial_668_1661" cx="0" cy="0" r="1" gradientUnits="userSpaceOnUse" gradientTransform="translate(29.5232 18.176) rotate(90) scale(14.0143 22.2585)">
<stop offset="0.592664" stop-color="#F3943B" stop-opacity="0"/>
<stop offset="1" stop-color="#D97C39"/>
</radialGradient>
<radialGradient id="paint58_radial_668_1661" cx="0" cy="0" r="1" gradientUnits="userSpaceOnUse" gradientTransform="translate(31.1979 22.2067) rotate(164.542) scale(10.5967 18.2442)">
<stop offset="0.876514" stop-color="#D4993E" stop-opacity="0"/>
<stop offset="1" stop-color="#D4993E"/>
</radialGradient>
<radialGradient id="paint59_radial_668_1661" cx="0" cy="0" r="1" gradientUnits="userSpaceOnUse" gradientTransform="translate(34.3508 18.2988) rotate(-90) scale(2.16746 2.66006)">
<stop stop-color="#FFBB31"/>
<stop offset="1" stop-color="#FFBB31" stop-opacity="0"/>
</radialGradient>
<radialGradient id="paint60_radial_668_1661" cx="0" cy="0" r="1" gradientUnits="userSpaceOnUse" gradientTransform="translate(26.4034 18.463) rotate(-90) scale(2.56155 2.93571)">
<stop stop-color="#F09429"/>
<stop offset="1" stop-color="#F09429" stop-opacity="0"/>
</radialGradient>
<radialGradient id="paint61_radial_668_1661" cx="0" cy="0" r="1" gradientUnits="userSpaceOnUse" gradientTransform="translate(39.6135 21.1007) rotate(180) scale(2.53697 8.35178)">
<stop stop-color="#FFDA39"/>
<stop offset="1" stop-color="#FFDA39" stop-opacity="0"/>
</radialGradient>
<linearGradient id="paint62_linear_668_1661" x1="30.017" y1="23.938" x2="30.017" y2="18.8867" gradientUnits="userSpaceOnUse">
<stop stop-color="#FFC134"/>
<stop offset="1" stop-color="#F8C73F"/>
</linearGradient>
<radialGradient id="paint63_radial_668_1661" cx="0" cy="0" r="1" gradientUnits="userSpaceOnUse" gradientTransform="translate(31.4943 22.4691) rotate(-105.892) scale(4.79741 2.74515)">
<stop offset="0.0168227" stop-color="#FFE848"/>
<stop offset="1" stop-color="#FFE848" stop-opacity="0"/>
</radialGradient>
<linearGradient id="paint64_linear_668_1661" x1="28.0462" y1="22.5019" x2="29.6553" y2="22.699" gradientUnits="userSpaceOnUse">
<stop stop-color="#F8A322"/>
<stop offset="1" stop-color="#F8A322" stop-opacity="0"/>
</linearGradient>
<linearGradient id="paint65_linear_668_1661" x1="30.017" y1="24.1112" x2="30.017" y2="22.9618" gradientUnits="userSpaceOnUse">
<stop stop-color="#E48538"/>
<stop offset="1" stop-color="#E48538" stop-opacity="0"/>
</linearGradient>
<linearGradient id="paint66_linear_668_1661" x1="30.1644" y1="24.0619" x2="30.1644" y2="23.7992" gradientUnits="userSpaceOnUse">
<stop stop-color="#E2802F"/>
<stop offset="1" stop-color="#E2802F" stop-opacity="0"/>
</linearGradient>
<radialGradient id="paint67_radial_668_1661" cx="0" cy="0" r="1" gradientUnits="userSpaceOnUse" gradientTransform="translate(30.5583 21.796) rotate(144.462) scale(2.96629 3.97312)">
<stop offset="0.797297" stop-color="#E2802F" stop-opacity="0"/>
<stop offset="1" stop-color="#E2802F"/>
</radialGradient>
<linearGradient id="paint68_linear_668_1661" x1="28.6439" y1="26.8927" x2="29.4963" y2="25.2512" gradientUnits="userSpaceOnUse">
<stop stop-color="#FEAC35"/>
<stop offset="1" stop-color="#FEAC35" stop-opacity="0"/>
</linearGradient>
<radialGradient id="paint69_radial_668_1661" cx="0" cy="0" r="1" gradientUnits="userSpaceOnUse" gradientTransform="translate(34.1261 18.9746) rotate(90) scale(1.52811 2.43062)">
<stop offset="0.80198" stop-color="#925C51"/>
<stop offset="1" stop-color="#85534D"/>
</radialGradient>
<radialGradient id="paint70_radial_668_1661" cx="0" cy="0" r="1" gradientUnits="userSpaceOnUse" gradientTransform="translate(33.6949 19.1331) rotate(-127.812) scale(0.711191 0.979139)">
<stop offset="0.765532" stop-color="#FFE6E2" stop-opacity="0"/>
<stop offset="0.966159" stop-color="#FFE6E2"/>
</radialGradient>
<linearGradient id="paint71_linear_668_1661" x1="35.59" y1="19.0756" x2="35.0001" y2="19.439" gradientUnits="userSpaceOnUse">
<stop stop-color="#B4948D"/>
<stop offset="1" stop-color="#B4948D" stop-opacity="0"/>
</linearGradient>
<radialGradient id="paint72_radial_668_1661" cx="0" cy="0" r="1" gradientUnits="userSpaceOnUse" gradientTransform="translate(25.9054 18.9746) rotate(90) scale(1.52811 2.43064)">
<stop offset="0.80198" stop-color="#925C51"/>
<stop offset="1" stop-color="#85534D"/>
</radialGradient>
<linearGradient id="paint73_linear_668_1661" x1="27.3056" y1="19.0751" x2="26.7157" y2="19.4387" gradientUnits="userSpaceOnUse">
<stop stop-color="#B4948D"/>
<stop offset="1" stop-color="#B4948D" stop-opacity="0"/>
</linearGradient>
<radialGradient id="paint74_radial_668_1661" cx="0" cy="0" r="1" gradientUnits="userSpaceOnUse" gradientTransform="translate(25.646 19.3308) rotate(-118.811) scale(0.928964 1.11665)">
<stop offset="0.765532" stop-color="#FFE6E2" stop-opacity="0"/>
<stop offset="0.966159" stop-color="#FFE6E2"/>
</radialGradient>
<radialGradient id="paint75_radial_668_1661" cx="0" cy="0" r="1" gradientUnits="userSpaceOnUse" gradientTransform="translate(24.9019 7.00431) rotate(129.554) scale(10.1134 4.41077)">
<stop offset="0.395696" stop-color="#EE971B" stop-opacity="0"/>
<stop offset="0.911046" stop-color="#D8772C"/>
</radialGradient>
<radialGradient id="paint76_radial_668_1661" cx="0" cy="0" r="1" gradientUnits="userSpaceOnUse" gradientTransform="translate(24.639 8.0352) rotate(144.458) scale(7.18213 3.54951)">
<stop offset="0.120488" stop-color="#FFCA2D"/>
<stop offset="1" stop-color="#FFCA2D" stop-opacity="0"/>
</radialGradient>
<radialGradient id="paint77_radial_668_1661" cx="0" cy="0" r="1" gradientUnits="userSpaceOnUse" gradientTransform="translate(33.3904 4.79598) rotate(115.63) scale(9.51566 13.5107)">
<stop offset="0.627022" stop-color="#F49523" stop-opacity="0"/>
<stop offset="1" stop-color="#F49523"/>
</radialGradient>
<radialGradient id="paint78_radial_668_1661" cx="0" cy="0" r="1" gradientUnits="userSpaceOnUse" gradientTransform="translate(34.7417 7.15655) rotate(105.909) scale(6.47927 13.5785)">
<stop offset="0.131886" stop-color="#FFE337"/>
<stop offset="1" stop-color="#FFE337" stop-opacity="0"/>
</radialGradient>
<radialGradient id="paint79_radial_668_1661" cx="0" cy="0" r="1" gradientUnits="userSpaceOnUse" gradientTransform="translate(32.1818 17.7633) rotate(-117.848) scale(13.7768 12.3157)">
<stop offset="0.897563" stop-color="#CA9B37" stop-opacity="0"/>
<stop offset="1" stop-color="#CA9B37"/>
</radialGradient>
<linearGradient id="paint80_linear_668_1661" x1="24.5703" y1="8.42503" x2="25.5965" y2="10.8243" gradientUnits="userSpaceOnUse">
<stop stop-color="#FAA719"/>
<stop offset="1" stop-color="#DB6008"/>
</linearGradient>
<linearGradient id="paint81_linear_668_1661" x1="43.0115" y1="13.2503" x2="30.1675" y2="26.0942" gradientUnits="userSpaceOnUse">
<stop stop-color="#52336D"/>
<stop offset="1" stop-color="#3C2850"/>
</linearGradient>
<radialGradient id="paint82_radial_668_1661" cx="0" cy="0" r="1" gradientUnits="userSpaceOnUse" gradientTransform="translate(21.346 19.11) scale(1.69922 5.09766)">
<stop stop-color="#52396B"/>
<stop offset="1" stop-color="#52396B" stop-opacity="0"/>
</radialGradient>
</defs>
</svg>
