<svg width="60" height="60" viewBox="0 0 60 60" fill="none" xmlns="http://www.w3.org/2000/svg">
<g filter="url(#filter0_iiii_671_2632)">
<path d="M9.51074 8.69092C9.51074 7.03406 10.8539 5.69092 12.5107 5.69092H47.4897C49.1466 5.69092 50.4897 7.03406 50.4897 8.69092V53.1913C50.4897 54.8482 49.1466 56.1915 47.4897 56.1915H12.5107C10.8539 56.1915 9.51074 54.8482 9.51074 53.1913V8.69092Z" fill="url(#paint0_linear_671_2632)"/>
<path d="M9.51074 8.69092C9.51074 7.03406 10.8539 5.69092 12.5107 5.69092H47.4897C49.1466 5.69092 50.4897 7.03406 50.4897 8.69092V53.1913C50.4897 54.8482 49.1466 56.1915 47.4897 56.1915H12.5107C10.8539 56.1915 9.51074 54.8482 9.51074 53.1913V8.69092Z" fill="url(#paint1_radial_671_2632)"/>
</g>
<g filter="url(#filter1_f_671_2632)">
<path d="M14.9082 10.3711C13.6138 10.3711 12.5645 11.4204 12.5645 12.7148V50.5738C12.5645 51.8681 13.6138 52.9176 14.9082 52.9176H34.9541C35.3272 52.9176 35.6848 52.7693 35.9486 52.5056L45.6097 42.8445C45.8733 42.5809 46.0215 42.2231 46.0215 41.8502V12.7148C46.0215 11.4204 44.9722 10.3711 43.6777 10.3711H14.9082Z" fill="#CD7D52"/>
</g>
<g filter="url(#filter2_ii_671_2632)">
<path d="M15.5967 9.66797C14.3022 9.66797 13.2529 10.7173 13.2529 12.0117V49.8707C13.2529 51.165 14.3022 52.2144 15.5967 52.2144H35.6426C36.0155 52.2144 36.3733 52.0661 36.6371 51.8025L46.298 42.1414C46.5618 41.8778 46.7099 41.52 46.7099 41.1471V12.0117C46.7099 10.7173 45.6607 9.66797 44.3662 9.66797H15.5967Z" fill="url(#paint2_linear_671_2632)"/>
</g>
<path d="M42.1177 22.5293H17.8599C17.3542 22.5293 16.9443 22.9392 16.9443 23.4448C16.9443 23.9505 17.3542 24.3603 17.8599 24.3603H42.1177C42.6234 24.3603 43.0333 23.9505 43.0333 23.4448C43.0333 22.9392 42.6234 22.5293 42.1177 22.5293Z" fill="#9B96A2"/>
<path d="M42.1177 28.1689H17.8599C17.3542 28.1689 16.9443 28.5788 16.9443 29.0845C16.9443 29.5901 17.3542 30 17.8599 30H42.1177C42.6234 30 43.0333 29.5901 43.0333 29.0845C43.0333 28.5788 42.6234 28.1689 42.1177 28.1689Z" fill="#9B96A2"/>
<path d="M42.1177 33.8086H17.8599C17.3542 33.8086 16.9443 34.2185 16.9443 34.7241C16.9443 35.2298 17.3542 35.6396 17.8599 35.6396H42.1177C42.6234 35.6396 43.0333 35.2298 43.0333 34.7241C43.0333 34.2185 42.6234 33.8086 42.1177 33.8086Z" fill="#9B96A2"/>
<path d="M32.8452 39.4482H17.8599C17.3542 39.4482 16.9443 39.8581 16.9443 40.3638C16.9443 40.8694 17.3542 41.2793 17.8599 41.2793H32.8452C33.3508 41.2793 33.7607 40.8694 33.7607 40.3638C33.7607 39.8581 33.3508 39.4482 32.8452 39.4482Z" fill="#9B96A2"/>
<g filter="url(#filter3_f_671_2632)">
<path d="M46.1386 41.3066H46.1314C46.1314 41.7163 45.9023 41.814 45.679 41.8373H37.6049C36.5909 41.8373 35.7691 42.6593 35.7691 43.6731V51.7281C35.7141 52.0037 35.3588 52.1606 35.1737 52.207L35.167 52.2141H35.3024C35.6676 52.2141 36.0179 52.069 36.2761 51.8108L45.7352 42.3514C45.9934 42.0932 46.1386 41.743 46.1386 41.3779V41.3066Z" fill="#D0C1E0"/>
</g>
<g filter="url(#filter4_ii_671_2632)">
<path d="M46.7097 41.0742H46.7023C46.7023 41.4929 46.4683 41.5927 46.2402 41.6163H37.9939C36.9583 41.6163 36.1189 42.4557 36.1189 43.4913V51.718C36.0628 51.9995 35.6998 52.16 35.511 52.2072L35.5039 52.2145H35.6423C36.0152 52.2145 36.373 52.0662 36.6368 51.8026L46.2977 42.1415C46.5615 41.8777 46.7097 41.5201 46.7097 41.1472V41.0742Z" fill="url(#paint3_linear_671_2632)"/>
</g>
<g filter="url(#filter5_f_671_2632)">
<path d="M20.2109 10.6055C20.2109 10.0877 20.6307 9.66797 21.1484 9.66797H38.375V14.6484C38.375 15.1662 37.9552 15.5859 37.4375 15.5859H21.1484C20.6307 15.5859 20.2109 15.1662 20.2109 14.6484V10.6055Z" fill="#CABFD5"/>
</g>
<g filter="url(#filter6_ii_671_2632)">
<path fill-rule="evenodd" clip-rule="evenodd" d="M29.9814 3.7207C32.0049 3.7207 33.6511 5.33592 33.701 7.34738C33.7023 7.39913 33.7441 7.4414 33.7959 7.4414H35.5625C37.6336 7.4414 39.3125 9.12031 39.3125 11.1914V14.1284C39.3125 14.6502 38.8895 15.0732 38.3677 15.0732H21.6245C21.1027 15.0732 20.6797 14.6502 20.6797 14.1284V11.1914C20.6797 9.12031 22.3586 7.4414 24.4297 7.4414H26.1671C26.2188 7.4414 26.2606 7.39913 26.2619 7.34738C26.3118 5.33592 27.9581 3.7207 29.9814 3.7207ZM29.9814 9.12597C30.9119 9.12597 31.6661 8.37175 31.6661 7.4414C31.6661 6.51104 30.9119 5.75682 29.9814 5.75682C29.051 5.75682 28.2969 6.51104 28.2969 7.4414C28.2969 8.37175 29.051 9.12597 29.9814 9.12597Z" fill="url(#paint4_linear_671_2632)"/>
</g>
<defs>
<filter id="filter0_iiii_671_2632" x="8.85449" y="5.22217" width="42.1035" height="51.438" filterUnits="userSpaceOnUse" color-interpolation-filters="sRGB">
<feFlood flood-opacity="0" result="BackgroundImageFix"/>
<feBlend mode="normal" in="SourceGraphic" in2="BackgroundImageFix" result="shape"/>
<feColorMatrix in="SourceAlpha" type="matrix" values="0 0 0 0 0 0 0 0 0 0 0 0 0 0 0 0 0 0 127 0" result="hardAlpha"/>
<feOffset dx="0.46875"/>
<feGaussianBlur stdDeviation="0.46875"/>
<feComposite in2="hardAlpha" operator="arithmetic" k2="-1" k3="1"/>
<feColorMatrix type="matrix" values="0 0 0 0 0.670588 0 0 0 0 0.376471 0 0 0 0 0.278431 0 0 0 1 0"/>
<feBlend mode="normal" in2="shape" result="effect1_innerShadow_671_2632"/>
<feColorMatrix in="SourceAlpha" type="matrix" values="0 0 0 0 0 0 0 0 0 0 0 0 0 0 0 0 0 0 127 0" result="hardAlpha"/>
<feOffset dy="-0.46875"/>
<feGaussianBlur stdDeviation="0.46875"/>
<feComposite in2="hardAlpha" operator="arithmetic" k2="-1" k3="1"/>
<feColorMatrix type="matrix" values="0 0 0 0 0.643137 0 0 0 0 0.329412 0 0 0 0 0.364706 0 0 0 1 0"/>
<feBlend mode="normal" in2="effect1_innerShadow_671_2632" result="effect2_innerShadow_671_2632"/>
<feColorMatrix in="SourceAlpha" type="matrix" values="0 0 0 0 0 0 0 0 0 0 0 0 0 0 0 0 0 0 127 0" result="hardAlpha"/>
<feOffset dx="-0.65625" dy="0.46875"/>
<feGaussianBlur stdDeviation="0.421875"/>
<feComposite in2="hardAlpha" operator="arithmetic" k2="-1" k3="1"/>
<feColorMatrix type="matrix" values="0 0 0 0 1 0 0 0 0 0.760784 0 0 0 0 0.529412 0 0 0 1 0"/>
<feBlend mode="normal" in2="effect2_innerShadow_671_2632" result="effect3_innerShadow_671_2632"/>
<feColorMatrix in="SourceAlpha" type="matrix" values="0 0 0 0 0 0 0 0 0 0 0 0 0 0 0 0 0 0 127 0" result="hardAlpha"/>
<feOffset dx="-0.09375" dy="0.09375"/>
<feGaussianBlur stdDeviation="0.1875"/>
<feComposite in2="hardAlpha" operator="arithmetic" k2="-1" k3="1"/>
<feColorMatrix type="matrix" values="0 0 0 0 0.815686 0 0 0 0 0.560784 0 0 0 0 0.396078 0 0 0 1 0"/>
<feBlend mode="normal" in2="effect3_innerShadow_671_2632" result="effect4_innerShadow_671_2632"/>
</filter>
<filter id="filter1_f_671_2632" x="11.627" y="9.43359" width="35.332" height="44.4214" filterUnits="userSpaceOnUse" color-interpolation-filters="sRGB">
<feFlood flood-opacity="0" result="BackgroundImageFix"/>
<feBlend mode="normal" in="SourceGraphic" in2="BackgroundImageFix" result="shape"/>
<feGaussianBlur stdDeviation="0.46875" result="effect1_foregroundBlur_671_2632"/>
</filter>
<filter id="filter2_ii_671_2632" x="12.9717" y="9.38672" width="34.0195" height="43.1089" filterUnits="userSpaceOnUse" color-interpolation-filters="sRGB">
<feFlood flood-opacity="0" result="BackgroundImageFix"/>
<feBlend mode="normal" in="SourceGraphic" in2="BackgroundImageFix" result="shape"/>
<feColorMatrix in="SourceAlpha" type="matrix" values="0 0 0 0 0 0 0 0 0 0 0 0 0 0 0 0 0 0 127 0" result="hardAlpha"/>
<feOffset dx="0.28125" dy="-0.28125"/>
<feGaussianBlur stdDeviation="0.28125"/>
<feComposite in2="hardAlpha" operator="arithmetic" k2="-1" k3="1"/>
<feColorMatrix type="matrix" values="0 0 0 0 0.792157 0 0 0 0 0.721569 0 0 0 0 0.862745 0 0 0 1 0"/>
<feBlend mode="normal" in2="shape" result="effect1_innerShadow_671_2632"/>
<feColorMatrix in="SourceAlpha" type="matrix" values="0 0 0 0 0 0 0 0 0 0 0 0 0 0 0 0 0 0 127 0" result="hardAlpha"/>
<feOffset dx="-0.28125" dy="0.28125"/>
<feGaussianBlur stdDeviation="0.28125"/>
<feComposite in2="hardAlpha" operator="arithmetic" k2="-1" k3="1"/>
<feColorMatrix type="matrix" values="0 0 0 0 1 0 0 0 0 1 0 0 0 0 1 0 0 0 1 0"/>
<feBlend mode="normal" in2="effect1_innerShadow_671_2632" result="effect2_innerShadow_671_2632"/>
</filter>
<filter id="filter3_f_671_2632" x="34.6982" y="40.8379" width="11.9092" height="11.845" filterUnits="userSpaceOnUse" color-interpolation-filters="sRGB">
<feFlood flood-opacity="0" result="BackgroundImageFix"/>
<feBlend mode="normal" in="SourceGraphic" in2="BackgroundImageFix" result="shape"/>
<feGaussianBlur stdDeviation="0.234375" result="effect1_foregroundBlur_671_2632"/>
</filter>
<filter id="filter4_ii_671_2632" x="35.5039" y="41.0742" width="11.4873" height="11.3279" filterUnits="userSpaceOnUse" color-interpolation-filters="sRGB">
<feFlood flood-opacity="0" result="BackgroundImageFix"/>
<feBlend mode="normal" in="SourceGraphic" in2="BackgroundImageFix" result="shape"/>
<feColorMatrix in="SourceAlpha" type="matrix" values="0 0 0 0 0 0 0 0 0 0 0 0 0 0 0 0 0 0 127 0" result="hardAlpha"/>
<feOffset dx="0.28125"/>
<feGaussianBlur stdDeviation="0.234375"/>
<feComposite in2="hardAlpha" operator="arithmetic" k2="-1" k3="1"/>
<feColorMatrix type="matrix" values="0 0 0 0 0.662745 0 0 0 0 0.611765 0 0 0 0 0.705882 0 0 0 1 0"/>
<feBlend mode="normal" in2="shape" result="effect1_innerShadow_671_2632"/>
<feColorMatrix in="SourceAlpha" type="matrix" values="0 0 0 0 0 0 0 0 0 0 0 0 0 0 0 0 0 0 127 0" result="hardAlpha"/>
<feOffset dy="0.1875"/>
<feGaussianBlur stdDeviation="0.140625"/>
<feComposite in2="hardAlpha" operator="arithmetic" k2="-1" k3="1"/>
<feColorMatrix type="matrix" values="0 0 0 0 0.878431 0 0 0 0 0.866667 0 0 0 0 0.890196 0 0 0 1 0"/>
<feBlend mode="normal" in2="effect1_innerShadow_671_2632" result="effect2_innerShadow_671_2632"/>
</filter>
<filter id="filter5_f_671_2632" x="19.4609" y="8.91797" width="19.6641" height="7.41797" filterUnits="userSpaceOnUse" color-interpolation-filters="sRGB">
<feFlood flood-opacity="0" result="BackgroundImageFix"/>
<feBlend mode="normal" in="SourceGraphic" in2="BackgroundImageFix" result="shape"/>
<feGaussianBlur stdDeviation="0.375" result="effect1_foregroundBlur_671_2632"/>
</filter>
<filter id="filter6_ii_671_2632" x="20.4922" y="3.5332" width="19.0078" height="11.7275" filterUnits="userSpaceOnUse" color-interpolation-filters="sRGB">
<feFlood flood-opacity="0" result="BackgroundImageFix"/>
<feBlend mode="normal" in="SourceGraphic" in2="BackgroundImageFix" result="shape"/>
<feColorMatrix in="SourceAlpha" type="matrix" values="0 0 0 0 0 0 0 0 0 0 0 0 0 0 0 0 0 0 127 0" result="hardAlpha"/>
<feOffset dx="0.1875" dy="-0.1875"/>
<feGaussianBlur stdDeviation="0.1875"/>
<feComposite in2="hardAlpha" operator="arithmetic" k2="-1" k3="1"/>
<feColorMatrix type="matrix" values="0 0 0 0 0.556863 0 0 0 0 0.501961 0 0 0 0 0.572549 0 0 0 1 0"/>
<feBlend mode="normal" in2="shape" result="effect1_innerShadow_671_2632"/>
<feColorMatrix in="SourceAlpha" type="matrix" values="0 0 0 0 0 0 0 0 0 0 0 0 0 0 0 0 0 0 127 0" result="hardAlpha"/>
<feOffset dx="-0.1875" dy="0.1875"/>
<feGaussianBlur stdDeviation="0.09375"/>
<feComposite in2="hardAlpha" operator="arithmetic" k2="-1" k3="1"/>
<feColorMatrix type="matrix" values="0 0 0 0 0.67451 0 0 0 0 0.65098 0 0 0 0 0.670588 0 0 0 1 0"/>
<feBlend mode="normal" in2="effect1_innerShadow_671_2632" result="effect2_innerShadow_671_2632"/>
</filter>
<linearGradient id="paint0_linear_671_2632" x1="30.0002" y1="5.69092" x2="30.0002" y2="56.1915" gradientUnits="userSpaceOnUse">
<stop stop-color="#E8A874"/>
<stop offset="1" stop-color="#DB925D"/>
</linearGradient>
<radialGradient id="paint1_radial_671_2632" cx="0" cy="0" r="1" gradientUnits="userSpaceOnUse" gradientTransform="translate(29.4105 9.96093) rotate(-90) scale(4.6875 3.8037)">
<stop stop-color="#D79769"/>
<stop offset="1" stop-color="#D79769" stop-opacity="0"/>
</radialGradient>
<linearGradient id="paint2_linear_671_2632" x1="29.9814" y1="9.66797" x2="29.9814" y2="52.2144" gradientUnits="userSpaceOnUse">
<stop stop-color="#EAE2F4"/>
<stop offset="1" stop-color="#E4DAEF"/>
</linearGradient>
<linearGradient id="paint3_linear_671_2632" x1="36.2653" y1="42.5392" x2="40.5426" y2="47.168" gradientUnits="userSpaceOnUse">
<stop stop-color="#D6CDE1"/>
<stop offset="1" stop-color="#C6BAD2"/>
</linearGradient>
<linearGradient id="paint4_linear_671_2632" x1="35.0938" y1="7.08983" x2="29.3516" y2="15.4101" gradientUnits="userSpaceOnUse">
<stop stop-color="#948A94"/>
<stop offset="1" stop-color="#8D8291"/>
</linearGradient>
</defs>
</svg>
