<svg width="60" height="60" viewBox="0 0 60 60" fill="none" xmlns="http://www.w3.org/2000/svg">
<g clip-path="url(#clip0_670_2470)">
<mask id="mask0_670_2470" style="mask-type:luminance" maskUnits="userSpaceOnUse" x="0" y="0" width="60" height="60">
<path d="M60 0H0V60H60V0Z" fill="white"/>
</mask>
<g mask="url(#mask0_670_2470)">
<g filter="url(#filter0_i_670_2470)">
<path d="M52.6941 8.33374C46.9819 2.6215 37.7205 2.6215 32.0083 8.33374L24.3911 15.9509C23.0724 17.2696 22.0581 18.7775 21.3484 20.387C23.9869 19.1724 26.9128 18.785 29.7347 19.2253L36.3172 12.6427C39.6497 9.31019 45.0527 9.31019 48.3851 12.6427C51.7177 15.9752 51.7177 21.3781 48.3853 24.7108L40.7679 32.3279C37.4355 35.6604 32.0325 35.6604 28.7001 32.3279C26.7621 30.3899 25.9511 27.7518 26.2671 25.2277C24.4989 25.4778 22.7942 26.2828 21.4344 27.6427L20.3154 28.7617C20.8065 31.6456 22.1649 34.4107 24.3911 36.6369C30.1033 42.3491 39.3647 42.3491 45.0769 36.6369L52.6941 29.0197C58.4064 23.3073 58.4064 14.046 52.6941 8.33374Z" fill="#C8BDCD"/>
</g>
<path d="M52.6941 8.33374C46.9819 2.6215 37.7205 2.6215 32.0083 8.33374L24.3911 15.9509C23.0724 17.2696 22.0581 18.7775 21.3484 20.387C23.9869 19.1724 26.9128 18.785 29.7347 19.2253L36.3172 12.6427C39.6497 9.31019 45.0527 9.31019 48.3851 12.6427C51.7177 15.9752 51.7177 21.3781 48.3853 24.7108L40.7679 32.3279C37.4355 35.6604 32.0325 35.6604 28.7001 32.3279C26.7621 30.3899 25.9511 27.7518 26.2671 25.2277C24.4989 25.4778 22.7942 26.2828 21.4344 27.6427L20.3154 28.7617C20.8065 31.6456 22.1649 34.4107 24.3911 36.6369C30.1033 42.3491 39.3647 42.3491 45.0769 36.6369L52.6941 29.0197C58.4064 23.3073 58.4064 14.046 52.6941 8.33374Z" fill="url(#paint0_radial_670_2470)"/>
<path d="M52.6941 8.33374C46.9819 2.6215 37.7205 2.6215 32.0083 8.33374L24.3911 15.9509C23.0724 17.2696 22.0581 18.7775 21.3484 20.387C23.9869 19.1724 26.9128 18.785 29.7347 19.2253L36.3172 12.6427C39.6497 9.31019 45.0527 9.31019 48.3851 12.6427C51.7177 15.9752 51.7177 21.3781 48.3853 24.7108L40.7679 32.3279C37.4355 35.6604 32.0325 35.6604 28.7001 32.3279C26.7621 30.3899 25.9511 27.7518 26.2671 25.2277C24.4989 25.4778 22.7942 26.2828 21.4344 27.6427L20.3154 28.7617C20.8065 31.6456 22.1649 34.4107 24.3911 36.6369C30.1033 42.3491 39.3647 42.3491 45.0769 36.6369L52.6941 29.0197C58.4064 23.3073 58.4064 14.046 52.6941 8.33374Z" fill="url(#paint1_radial_670_2470)"/>
<path d="M52.6941 8.33374C46.9819 2.6215 37.7205 2.6215 32.0083 8.33374L24.3911 15.9509C23.0724 17.2696 22.0581 18.7775 21.3484 20.387C23.9869 19.1724 26.9128 18.785 29.7347 19.2253L36.3172 12.6427C39.6497 9.31019 45.0527 9.31019 48.3851 12.6427C51.7177 15.9752 51.7177 21.3781 48.3853 24.7108L40.7679 32.3279C37.4355 35.6604 32.0325 35.6604 28.7001 32.3279C26.7621 30.3899 25.9511 27.7518 26.2671 25.2277C24.4989 25.4778 22.7942 26.2828 21.4344 27.6427L20.3154 28.7617C20.8065 31.6456 22.1649 34.4107 24.3911 36.6369C30.1033 42.3491 39.3647 42.3491 45.0769 36.6369L52.6941 29.0197C58.4064 23.3073 58.4064 14.046 52.6941 8.33374Z" fill="url(#paint2_linear_670_2470)"/>
<path d="M52.6941 8.33374C46.9819 2.6215 37.7205 2.6215 32.0083 8.33374L24.3911 15.9509C23.0724 17.2696 22.0581 18.7775 21.3484 20.387C23.9869 19.1724 26.9128 18.785 29.7347 19.2253L36.3172 12.6427C39.6497 9.31019 45.0527 9.31019 48.3851 12.6427C51.7177 15.9752 51.7177 21.3781 48.3853 24.7108L40.7679 32.3279C37.4355 35.6604 32.0325 35.6604 28.7001 32.3279C26.7621 30.3899 25.9511 27.7518 26.2671 25.2277C24.4989 25.4778 22.7942 26.2828 21.4344 27.6427L20.3154 28.7617C20.8065 31.6456 22.1649 34.4107 24.3911 36.6369C30.1033 42.3491 39.3647 42.3491 45.0769 36.6369L52.6941 29.0197C58.4064 23.3073 58.4064 14.046 52.6941 8.33374Z" fill="url(#paint3_radial_670_2470)"/>
<path d="M52.6941 8.33374C46.9819 2.6215 37.7205 2.6215 32.0083 8.33374L24.3911 15.9509C23.0724 17.2696 22.0581 18.7775 21.3484 20.387C23.9869 19.1724 26.9128 18.785 29.7347 19.2253L36.3172 12.6427C39.6497 9.31019 45.0527 9.31019 48.3851 12.6427C51.7177 15.9752 51.7177 21.3781 48.3853 24.7108L40.7679 32.3279C37.4355 35.6604 32.0325 35.6604 28.7001 32.3279C26.7621 30.3899 25.9511 27.7518 26.2671 25.2277C24.4989 25.4778 22.7942 26.2828 21.4344 27.6427L20.3154 28.7617C20.8065 31.6456 22.1649 34.4107 24.3911 36.6369C30.1033 42.3491 39.3647 42.3491 45.0769 36.6369L52.6941 29.0197C58.4064 23.3073 58.4064 14.046 52.6941 8.33374Z" fill="url(#paint4_radial_670_2470)"/>
<g filter="url(#filter1_f_670_2470)">
<path d="M51.5868 9.99428L51.5868 9.99423C46.9404 5.3479 39.4072 5.3479 34.7609 9.99423L26.8742 17.881C22.2278 22.5273 22.2278 30.0605 26.8742 34.7068L26.8742 34.7069C31.5206 39.3532 39.0538 39.3532 43.7001 34.7069L51.5868 26.8201C56.2331 22.1738 56.2331 14.6406 51.5868 9.99428Z" stroke="url(#paint5_linear_670_2470)" stroke-width="2.34375"/>
<path d="M51.5868 9.99428L51.5868 9.99423C46.9404 5.3479 39.4072 5.3479 34.7609 9.99423L26.8742 17.881C22.2278 22.5273 22.2278 30.0605 26.8742 34.7068L26.8742 34.7069C31.5206 39.3532 39.0538 39.3532 43.7001 34.7069L51.5868 26.8201C56.2331 22.1738 56.2331 14.6406 51.5868 9.99428Z" stroke="url(#paint6_linear_670_2470)" stroke-width="2.34375"/>
</g>
<g filter="url(#filter2_i_670_2470)">
<path d="M29.7343 19.2251C32.6908 19.6863 35.5331 21.0558 37.8108 23.3338C40.037 25.5598 41.3955 28.3248 41.8865 31.209L40.7675 32.328C39.4076 33.6879 37.703 34.4928 35.9349 34.7428C36.2508 32.2188 35.4399 29.5807 33.5019 27.6427C31.5294 25.67 28.8313 24.8651 26.2667 25.2277C24.7196 25.4465 23.2211 26.0902 21.9596 27.1588C21.7792 27.3114 21.6039 27.4727 21.4338 27.6427L13.8168 35.2599C10.4843 38.5923 10.4843 43.9953 13.8168 47.328C17.1492 50.6604 22.5523 50.6604 25.8847 47.328L32.4673 40.7454C35.2892 41.1857 38.2151 40.7983 40.8536 39.5835C40.1439 41.1932 39.1295 42.701 37.8108 44.0197L30.1937 51.6369C24.4815 57.3491 15.2201 57.3491 9.50783 51.6369C3.79557 45.9245 3.79557 36.6632 9.50781 30.951L17.125 23.3338C18.3853 22.0734 19.8183 21.0913 21.3478 20.387C23.9865 19.1724 26.9124 18.785 29.7343 19.2251Z" fill="#C8BDCD"/>
</g>
<path d="M29.7343 19.2251C32.6908 19.6863 35.5331 21.0558 37.8108 23.3338C40.037 25.5598 41.3955 28.3248 41.8865 31.209L40.7675 32.328C39.4076 33.6879 37.703 34.4928 35.9349 34.7428C36.2508 32.2188 35.4399 29.5807 33.5019 27.6427C31.5294 25.67 28.8313 24.8651 26.2667 25.2277C24.7196 25.4465 23.2211 26.0902 21.9596 27.1588C21.7792 27.3114 21.6039 27.4727 21.4338 27.6427L13.8168 35.2599C10.4843 38.5923 10.4843 43.9953 13.8168 47.328C17.1492 50.6604 22.5523 50.6604 25.8847 47.328L32.4673 40.7454C35.2892 41.1857 38.2151 40.7983 40.8536 39.5835C40.1439 41.1932 39.1295 42.701 37.8108 44.0197L30.1937 51.6369C24.4815 57.3491 15.2201 57.3491 9.50783 51.6369C3.79557 45.9245 3.79557 36.6632 9.50781 30.951L17.125 23.3338C18.3853 22.0734 19.8183 21.0913 21.3478 20.387C23.9865 19.1724 26.9124 18.785 29.7343 19.2251Z" fill="url(#paint7_radial_670_2470)"/>
<path d="M29.7343 19.2251C32.6908 19.6863 35.5331 21.0558 37.8108 23.3338C40.037 25.5598 41.3955 28.3248 41.8865 31.209L40.7675 32.328C39.4076 33.6879 37.703 34.4928 35.9349 34.7428C36.2508 32.2188 35.4399 29.5807 33.5019 27.6427C31.5294 25.67 28.8313 24.8651 26.2667 25.2277C24.7196 25.4465 23.2211 26.0902 21.9596 27.1588C21.7792 27.3114 21.6039 27.4727 21.4338 27.6427L13.8168 35.2599C10.4843 38.5923 10.4843 43.9953 13.8168 47.328C17.1492 50.6604 22.5523 50.6604 25.8847 47.328L32.4673 40.7454C35.2892 41.1857 38.2151 40.7983 40.8536 39.5835C40.1439 41.1932 39.1295 42.701 37.8108 44.0197L30.1937 51.6369C24.4815 57.3491 15.2201 57.3491 9.50783 51.6369C3.79557 45.9245 3.79557 36.6632 9.50781 30.951L17.125 23.3338C18.3853 22.0734 19.8183 21.0913 21.3478 20.387C23.9865 19.1724 26.9124 18.785 29.7343 19.2251Z" fill="url(#paint8_radial_670_2470)"/>
<path d="M29.7343 19.2251C32.6908 19.6863 35.5331 21.0558 37.8108 23.3338C40.037 25.5598 41.3955 28.3248 41.8865 31.209L40.7675 32.328C39.4076 33.6879 37.703 34.4928 35.9349 34.7428C36.2508 32.2188 35.4399 29.5807 33.5019 27.6427C31.5294 25.67 28.8313 24.8651 26.2667 25.2277C24.7196 25.4465 23.2211 26.0902 21.9596 27.1588C21.7792 27.3114 21.6039 27.4727 21.4338 27.6427L13.8168 35.2599C10.4843 38.5923 10.4843 43.9953 13.8168 47.328C17.1492 50.6604 22.5523 50.6604 25.8847 47.328L32.4673 40.7454C35.2892 41.1857 38.2151 40.7983 40.8536 39.5835C40.1439 41.1932 39.1295 42.701 37.8108 44.0197L30.1937 51.6369C24.4815 57.3491 15.2201 57.3491 9.50783 51.6369C3.79557 45.9245 3.79557 36.6632 9.50781 30.951L17.125 23.3338C18.3853 22.0734 19.8183 21.0913 21.3478 20.387C23.9865 19.1724 26.9124 18.785 29.7343 19.2251Z" fill="url(#paint9_linear_670_2470)"/>
<path d="M29.7343 19.2251C32.6908 19.6863 35.5331 21.0558 37.8108 23.3338C40.037 25.5598 41.3955 28.3248 41.8865 31.209L40.7675 32.328C39.4076 33.6879 37.703 34.4928 35.9349 34.7428C36.2508 32.2188 35.4399 29.5807 33.5019 27.6427C31.5294 25.67 28.8313 24.8651 26.2667 25.2277C24.7196 25.4465 23.2211 26.0902 21.9596 27.1588C21.7792 27.3114 21.6039 27.4727 21.4338 27.6427L13.8168 35.2599C10.4843 38.5923 10.4843 43.9953 13.8168 47.328C17.1492 50.6604 22.5523 50.6604 25.8847 47.328L32.4673 40.7454C35.2892 41.1857 38.2151 40.7983 40.8536 39.5835C40.1439 41.1932 39.1295 42.701 37.8108 44.0197L30.1937 51.6369C24.4815 57.3491 15.2201 57.3491 9.50783 51.6369C3.79557 45.9245 3.79557 36.6632 9.50781 30.951L17.125 23.3338C18.3853 22.0734 19.8183 21.0913 21.3478 20.387C23.9865 19.1724 26.9124 18.785 29.7343 19.2251Z" fill="url(#paint10_radial_670_2470)"/>
<path d="M29.7343 19.2251C32.6908 19.6863 35.5331 21.0558 37.8108 23.3338C40.037 25.5598 41.3955 28.3248 41.8865 31.209L40.7675 32.328C39.4076 33.6879 37.703 34.4928 35.9349 34.7428C36.2508 32.2188 35.4399 29.5807 33.5019 27.6427C31.5294 25.67 28.8313 24.8651 26.2667 25.2277C24.7196 25.4465 23.2211 26.0902 21.9596 27.1588C21.7792 27.3114 21.6039 27.4727 21.4338 27.6427L13.8168 35.2599C10.4843 38.5923 10.4843 43.9953 13.8168 47.328C17.1492 50.6604 22.5523 50.6604 25.8847 47.328L32.4673 40.7454C35.2892 41.1857 38.2151 40.7983 40.8536 39.5835C40.1439 41.1932 39.1295 42.701 37.8108 44.0197L30.1937 51.6369C24.4815 57.3491 15.2201 57.3491 9.50783 51.6369C3.79557 45.9245 3.79557 36.6632 9.50781 30.951L17.125 23.3338C18.3853 22.0734 19.8183 21.0913 21.3478 20.387C23.9865 19.1724 26.9124 18.785 29.7343 19.2251Z" fill="url(#paint11_radial_670_2470)"/>
<g filter="url(#filter3_f_670_2470)">
<path d="M36.0634 24.9767L36.0633 24.9767C31.417 20.3303 23.8838 20.3303 19.2375 24.9767L12.3792 31.8349C7.73285 36.4813 7.73284 44.0145 12.3792 48.6608L12.3792 48.6608C17.0256 53.3072 24.5588 53.3072 29.2051 48.6608L36.0634 41.8026C40.7097 37.1562 40.7097 29.623 36.0634 24.9767Z" stroke="url(#paint12_linear_670_2470)" stroke-width="2.34375"/>
<path d="M36.0634 24.9767L36.0633 24.9767C31.417 20.3303 23.8838 20.3303 19.2375 24.9767L12.3792 31.8349C7.73285 36.4813 7.73284 44.0145 12.3792 48.6608L12.3792 48.6608C17.0256 53.3072 24.5588 53.3072 29.2051 48.6608L36.0634 41.8026C40.7097 37.1562 40.7097 29.623 36.0634 24.9767Z" stroke="url(#paint13_linear_670_2470)" stroke-width="2.34375"/>
</g>
</g>
</g>
<defs>
<filter id="filter0_i_670_2470" x="20.3154" y="2.83081" width="37.8818" height="38.0903" filterUnits="userSpaceOnUse" color-interpolation-filters="sRGB">
<feFlood flood-opacity="0" result="BackgroundImageFix"/>
<feBlend mode="normal" in="SourceGraphic" in2="BackgroundImageFix" result="shape"/>
<feColorMatrix in="SourceAlpha" type="matrix" values="0 0 0 0 0 0 0 0 0 0 0 0 0 0 0 0 0 0 127 0" result="hardAlpha"/>
<feOffset dx="1.21875" dy="-1.21875"/>
<feGaussianBlur stdDeviation="1.125"/>
<feComposite in2="hardAlpha" operator="arithmetic" k2="-1" k3="1"/>
<feColorMatrix type="matrix" values="0 0 0 0 0.65098 0 0 0 0 0.588235 0 0 0 0 0.701961 0 0 0 1 0"/>
<feBlend mode="normal" in2="shape" result="effect1_innerShadow_670_2470"/>
</filter>
<filter id="filter1_f_670_2470" x="20.3428" y="3.46265" width="37.7754" height="37.7759" filterUnits="userSpaceOnUse" color-interpolation-filters="sRGB">
<feFlood flood-opacity="0" result="BackgroundImageFix"/>
<feBlend mode="normal" in="SourceGraphic" in2="BackgroundImageFix" result="shape"/>
<feGaussianBlur stdDeviation="0.9375" result="effect1_foregroundBlur_670_2470"/>
</filter>
<filter id="filter2_i_670_2470" x="5.22363" y="17.8308" width="37.8818" height="38.0903" filterUnits="userSpaceOnUse" color-interpolation-filters="sRGB">
<feFlood flood-opacity="0" result="BackgroundImageFix"/>
<feBlend mode="normal" in="SourceGraphic" in2="BackgroundImageFix" result="shape"/>
<feColorMatrix in="SourceAlpha" type="matrix" values="0 0 0 0 0 0 0 0 0 0 0 0 0 0 0 0 0 0 127 0" result="hardAlpha"/>
<feOffset dx="1.21875" dy="-1.21875"/>
<feGaussianBlur stdDeviation="1.125"/>
<feComposite in2="hardAlpha" operator="arithmetic" k2="-1" k3="1"/>
<feColorMatrix type="matrix" values="0 0 0 0 0.65098 0 0 0 0 0.588235 0 0 0 0 0.701961 0 0 0 1 0"/>
<feBlend mode="normal" in2="shape" result="effect1_innerShadow_670_2470"/>
</filter>
<filter id="filter3_f_670_2470" x="5.84766" y="18.4451" width="36.7471" height="36.7473" filterUnits="userSpaceOnUse" color-interpolation-filters="sRGB">
<feFlood flood-opacity="0" result="BackgroundImageFix"/>
<feBlend mode="normal" in="SourceGraphic" in2="BackgroundImageFix" result="shape"/>
<feGaussianBlur stdDeviation="0.9375" result="effect1_foregroundBlur_670_2470"/>
</filter>
<radialGradient id="paint0_radial_670_2470" cx="0" cy="0" r="1" gradientUnits="userSpaceOnUse" gradientTransform="translate(36.2263 17.1881) rotate(89.324) scale(25.8326 26.2869)">
<stop offset="0.773589" stop-color="#A08FAF" stop-opacity="0"/>
<stop offset="0.969314" stop-color="#8C72A5"/>
</radialGradient>
<radialGradient id="paint1_radial_670_2470" cx="0" cy="0" r="1" gradientUnits="userSpaceOnUse" gradientTransform="translate(27.3112 20.2359) rotate(-71.2883) scale(4.98784 14.1208)">
<stop stop-color="#CDC4D3"/>
<stop offset="1" stop-color="#CDC4D3" stop-opacity="0"/>
</radialGradient>
<linearGradient id="paint2_linear_670_2470" x1="22.9682" y1="15.7403" x2="25.7874" y2="18.6358" gradientUnits="userSpaceOnUse">
<stop offset="0.298766" stop-color="#DED6E0"/>
<stop offset="1" stop-color="#DED6E0" stop-opacity="0"/>
</linearGradient>
<radialGradient id="paint3_radial_670_2470" cx="0" cy="0" r="1" gradientUnits="userSpaceOnUse" gradientTransform="translate(43.8461 14.7498) rotate(-77.9885) scale(7.32283 9.4572)">
<stop stop-color="#9378A9"/>
<stop offset="1" stop-color="#AB9FB5" stop-opacity="0"/>
</radialGradient>
<radialGradient id="paint4_radial_670_2470" cx="0" cy="0" r="1" gradientUnits="userSpaceOnUse" gradientTransform="translate(22.6633 26.3317) rotate(71.2883) scale(4.98784 12.703)">
<stop offset="0.160794" stop-color="#9789A3"/>
<stop offset="1" stop-color="#9789A3" stop-opacity="0"/>
</radialGradient>
<linearGradient id="paint5_linear_670_2470" x1="61.3398" y1="14.6289" x2="45.1674" y2="19.0763" gradientUnits="userSpaceOnUse">
<stop offset="0.272407" stop-color="#F1E9F5"/>
<stop offset="1" stop-color="#F1E9F5" stop-opacity="0"/>
</linearGradient>
<linearGradient id="paint6_linear_670_2470" x1="22.0536" y1="23.5124" x2="31.3835" y2="26.2146" gradientUnits="userSpaceOnUse">
<stop offset="0.14306" stop-color="#C9BDD2"/>
<stop offset="1" stop-color="#C9BDD2" stop-opacity="0"/>
</linearGradient>
<radialGradient id="paint7_radial_670_2470" cx="0" cy="0" r="1" gradientUnits="userSpaceOnUse" gradientTransform="translate(21.1346 32.1881) rotate(89.324) scale(25.8326 26.2869)">
<stop offset="0.773589" stop-color="#A08FAF" stop-opacity="0"/>
<stop offset="0.969314" stop-color="#8C72A5"/>
</radialGradient>
<radialGradient id="paint8_radial_670_2470" cx="0" cy="0" r="1" gradientUnits="userSpaceOnUse" gradientTransform="translate(12.2196 35.2359) rotate(-71.2883) scale(4.98784 14.1208)">
<stop stop-color="#CDC4D3"/>
<stop offset="1" stop-color="#CDC4D3" stop-opacity="0"/>
</radialGradient>
<linearGradient id="paint9_linear_670_2470" x1="7.87636" y1="30.7404" x2="10.6956" y2="33.6358" gradientUnits="userSpaceOnUse">
<stop stop-color="#DED6E0"/>
<stop offset="1" stop-color="#DED6E0" stop-opacity="0"/>
</linearGradient>
<radialGradient id="paint10_radial_670_2470" cx="0" cy="0" r="1" gradientUnits="userSpaceOnUse" gradientTransform="translate(28.7544 29.7498) rotate(-77.9885) scale(7.32283 9.4572)">
<stop offset="0.373303" stop-color="#9378A9"/>
<stop offset="1" stop-color="#AB9FB5" stop-opacity="0"/>
</radialGradient>
<radialGradient id="paint11_radial_670_2470" cx="0" cy="0" r="1" gradientUnits="userSpaceOnUse" gradientTransform="translate(40.3406 35.7039) rotate(140.842) scale(11.6445 6.77972)">
<stop offset="0.248848" stop-color="#92889C"/>
<stop offset="1" stop-color="#92889C" stop-opacity="0"/>
</radialGradient>
<linearGradient id="paint12_linear_670_2470" x1="34.9641" y1="19.6686" x2="29.4163" y2="33.2833" gradientUnits="userSpaceOnUse">
<stop stop-color="#F1E9F5"/>
<stop offset="1" stop-color="#F1E9F5" stop-opacity="0"/>
</linearGradient>
<linearGradient id="paint13_linear_670_2470" x1="13.4084" y1="49.8348" x2="16.9494" y2="40.6935" gradientUnits="userSpaceOnUse">
<stop offset="0.14306" stop-color="#E3D8EA"/>
<stop offset="1" stop-color="#E3D8EA" stop-opacity="0"/>
</linearGradient>
<clipPath id="clip0_670_2470">
<rect width="60" height="60" fill="white"/>
</clipPath>
</defs>
</svg>
