<svg width="44" height="43" viewBox="0 0 44 43" fill="none" xmlns="http://www.w3.org/2000/svg">
<path d="M39.1868 35.9629C35.6342 39.784 30.8046 41.995 25.5952 42.1831L18.464 42.4445C16.1025 42.5289 13.8529 41.6904 12.1261 40.0849L9.32699 37.4826C7.60006 35.877 6.60184 33.696 6.5145 31.3381L6.38961 27.8635L2.15279 23.9245C0.114043 22.0291 -0.000700807 18.8319 1.89309 16.7949C2.59843 16.0363 3.48747 15.542 4.42833 15.322C3.46248 13.4778 3.70373 11.1412 5.19977 9.53209C6.69582 7.92294 9.00695 7.51072 10.9149 8.34157C11.0676 7.38883 11.4943 6.46793 12.2012 5.70754C13.6973 4.09839 16.0084 3.68617 17.9163 4.51703C18.069 3.56428 18.4957 2.64338 19.2027 1.88299C21.0981 -0.155753 24.2953 -0.270499 26.3322 1.62329L38.3411 12.7881C44.9633 18.9448 45.3434 29.3407 39.1868 35.9629ZM9.00125 30.2913L9.03608 31.2473C9.09909 32.9302 9.81348 34.489 11.0468 35.6356L13.8459 38.238C15.0775 39.3829 16.6841 39.9821 18.3705 39.9224L25.5016 39.6609C30.0392 39.4973 34.243 37.5739 37.3366 34.2464C42.5463 28.6428 42.2293 19.8454 36.6239 14.634L24.6134 3.47092C23.5949 2.52401 21.9954 2.5806 21.0469 3.60084C20.0984 4.62107 20.1583 6.22042 21.1768 7.16734L22.1016 8.02393C22.6109 8.49737 22.64 9.29623 22.1665 9.80547C21.6932 10.318 20.8944 10.3471 20.3834 9.87209L17.612 7.29547C16.5935 6.34856 14.994 6.40514 14.0455 7.42538C13.0969 8.44562 13.1569 10.045 14.1754 10.9919L16.9484 13.5668C17.4576 14.0402 17.4867 14.8391 17.0133 15.3483C16.54 15.8609 15.7411 15.89 15.2302 15.4149L10.6123 11.1217C9.59379 10.1748 7.99432 10.2313 7.0458 11.2516C6.09727 12.2718 6.1572 13.8712 7.17571 14.8181L11.7952 19.1096C12.3044 19.5831 12.3335 20.3819 11.8601 20.8912C11.3868 21.4037 10.5879 21.4328 10.0769 20.9578L7.3055 18.3812C6.28699 17.4342 4.68752 17.4908 3.739 18.5111C2.79047 19.5313 2.8504 21.1307 3.86891 22.0776L8.48676 26.3708C8.49011 26.3707 8.49011 26.3707 8.49184 26.3723L12.1847 29.8057C12.694 30.2791 12.7231 31.078 12.2496 31.5872C11.7763 32.0998 10.9775 32.1289 10.4665 31.6538L9.00125 30.2913Z" fill="#474747"/>
</svg>
