<svg width="212" height="193" viewBox="0 0 212 193" fill="none" xmlns="http://www.w3.org/2000/svg">
<path d="M62.8118 1.8777e-05C68.5417 1.85212e-05 74.6623 2.08361 81.1735 6.25082C87.5546 10.2878 96.3448 17.4502 107.544 27.738C126.817 11.5901 137.098 7.95263 146.995 7.95263C153.376 7.95263 158.845 9.71069 163.403 13.2268C171.799 19.6474 173.2 34.3105 167.318 43.951C162.629 51.6343 156.509 59.9036 148.956 68.7589C166.145 88.2927 175.747 102.348 175.747 111.985C175.747 118.886 173.598 124.161 169.301 127.807C164.873 131.453 159.338 133.276 152.697 133.276C142.67 133.276 126.948 125.667 107.544 109.389C96.475 119.156 87.7499 125.928 81.3689 129.704C74.8576 133.481 68.6719 135.369 62.8118 135.369C54.9983 135.369 48.9428 132.83 44.6454 127.751C40.2177 122.542 38.0039 116.421 38.0039 109.389C38.0039 104.831 38.655 100.859 39.9573 97.4736C41.2595 94.0877 43.6687 90.3112 47.1848 86.144C50.7009 81.8466 56.3005 75.9213 63.9838 68.3683C56.561 60.8152 51.0915 54.7597 47.5755 50.2018C43.9292 45.5137 41.4549 41.4116 40.1526 37.8956C38.7201 34.3795 38.0039 30.4727 38.0039 26.1753C38.0039 21.6174 38.9806 17.3851 40.934 13.4783C42.8873 9.44135 45.7523 6.18571 49.5288 3.71143C53.3054 1.23715 57.733 1.90037e-05 62.8118 1.8777e-05Z" fill="#F87534"/>
<path d="M56.2144 187.551C50.7844 187.551 46.8047 183.674 46.8047 178.327C46.8047 172.981 50.7844 169.104 56.2144 169.104C62.2514 169.104 66.2649 173.716 65.4554 179.898H51.7287C52.2684 181.97 53.921 183.207 56.2144 183.207C57.7658 183.207 59.1148 182.605 59.8231 181.669H65.0507C63.8028 185.278 60.3627 187.551 56.2144 187.551ZM51.7625 176.657H60.7337C60.1941 174.718 58.6089 173.448 56.2144 173.448C53.9547 173.448 52.3358 174.685 51.7625 176.657Z" fill="#132032"/>
<path d="M25.0294 166.402C26.0372 166.402 27.1137 166.769 28.259 167.502C29.3813 168.212 30.9274 169.472 32.8972 171.281C36.2871 168.441 38.0953 167.801 39.836 167.801C40.9583 167.801 41.9204 168.11 42.722 168.729C44.1988 169.858 44.4451 172.437 43.4105 174.133C42.5859 175.484 41.5094 176.939 40.1809 178.496C43.2043 181.932 44.8931 184.404 44.8931 186.099C44.8931 187.313 44.5151 188.24 43.7593 188.882C42.9805 189.523 42.0071 189.844 40.8389 189.844C39.0753 189.844 36.31 188.506 32.8972 185.642C30.9503 187.36 29.4156 188.551 28.2933 189.216C27.1481 189.88 26.0601 190.212 25.0294 190.212C23.6551 190.212 22.59 189.765 21.8342 188.872C21.0554 187.956 20.666 186.879 20.666 185.642C20.666 184.841 20.7805 184.142 21.0096 183.547C21.2386 182.951 21.6624 182.287 22.2808 181.554C22.8992 180.798 23.8841 179.756 25.2355 178.427C23.9299 177.099 22.9679 176.034 22.3495 175.232C21.7082 174.408 21.273 173.686 21.0439 173.068C20.792 172.449 20.666 171.762 20.666 171.006C20.666 170.205 20.8378 169.46 21.1814 168.773C21.5249 168.063 22.0289 167.49 22.6931 167.055C23.3573 166.62 24.1361 166.402 25.0294 166.402Z" fill="#F87534"/>
<path d="M9.40968 187.551C3.97972 187.551 0 183.674 0 178.327C0 172.981 3.97972 169.104 9.40968 169.104C15.4467 169.104 19.4602 173.716 18.6507 179.898H4.92406C5.46369 181.97 7.11628 183.207 9.40968 183.207C10.9611 183.207 12.3102 182.605 13.0184 181.669H18.246C16.9981 185.278 13.558 187.551 9.40968 187.551ZM4.95779 176.657H13.929C13.3894 174.718 11.8043 173.448 9.40968 173.448C7.15001 173.448 5.53114 174.685 4.95779 176.657Z" fill="#132032"/>
<path d="M201.649 192.965C196.954 192.965 193.287 190.874 192.739 186.556H197.571C197.982 188.03 199.661 188.613 201.375 188.613C204.116 188.613 206.207 187.31 206.207 184.672V184.123C204.733 185.22 202.883 185.871 200.861 185.871C195.892 185.871 192.088 182.341 192.088 177.201C192.088 172.266 195.857 168.462 200.861 168.462C203.088 168.462 205.11 169.251 206.652 170.587L206.789 168.839H211.039V184.123C211.039 189.846 206.995 192.965 201.649 192.965ZM197.057 177.304C197.057 179.874 198.873 181.69 201.615 181.69C204.39 181.69 206.207 179.908 206.207 177.304C206.207 174.699 204.39 172.917 201.615 172.917C198.873 172.917 197.057 174.768 197.057 177.304Z" fill="#132032"/>
<path d="M171 187.002V168.839H175.626L175.763 170.998C177.168 169.388 179.156 168.497 181.589 168.497C186.318 168.497 188.614 171.581 188.614 176.481V187.002H183.714V177.03C183.714 174.425 182.446 173.02 180.15 173.02C177.58 173.02 175.9 174.562 175.9 177.132V187.002H171Z" fill="#132032"/>
<path d="M161.061 187.002V168.839H165.961V187.002H161.061ZM160.547 164.281C160.547 162.637 161.781 161.403 163.528 161.403C165.242 161.403 166.475 162.637 166.475 164.281C166.475 165.926 165.242 167.126 163.528 167.126C161.781 167.126 160.547 165.926 160.547 164.281Z" fill="#132032"/>
<path d="M138.707 187.002V168.839H143.333L143.47 170.998C144.875 169.388 146.863 168.497 149.296 168.497C154.025 168.497 156.321 171.581 156.321 176.481V187.002H151.421V177.03C151.421 174.425 150.153 173.02 147.857 173.02C145.287 173.02 143.607 174.562 143.607 177.132V187.002H138.707Z" fill="#132032"/>
<path d="M123.68 187.002V168.84H128.237L128.409 170.861C129.642 169.354 131.39 168.565 133.378 168.565C134.063 168.565 134.783 168.668 135.468 168.84V173.363C134.714 173.226 134.029 173.123 133.378 173.123C130.396 173.123 128.58 174.871 128.58 177.852V187.002H123.68Z" fill="#132032"/>
<path d="M108.371 187.379C102.922 187.379 99.2207 183.267 99.2207 177.921C99.2207 172.369 103.093 168.462 108.371 168.462C110.701 168.462 112.723 169.285 114.265 170.656L114.436 168.839H118.685V187.002H114.436L114.265 185.186C112.688 186.556 110.632 187.379 108.371 187.379ZM104.19 177.921C104.19 180.765 106.212 182.787 109.022 182.787C111.797 182.787 113.819 180.765 113.819 177.921C113.819 175.076 111.797 173.054 109.022 173.054C106.212 173.054 104.19 175.076 104.19 177.921Z" fill="#132032"/>
<path d="M87.3306 187.379C81.8133 187.379 77.7695 183.404 77.7695 177.921C77.7695 172.438 81.8133 168.462 87.3306 168.462C93.4647 168.462 97.5427 173.192 96.7203 179.531H82.7728C83.3211 181.656 85.0003 182.924 87.3306 182.924C88.9069 182.924 90.2777 182.307 90.9974 181.348H96.309C95.0411 185.049 91.5457 187.379 87.3306 187.379ZM82.8071 176.207H91.9226C91.3743 174.22 89.7637 172.917 87.3306 172.917C85.0346 172.917 83.3896 174.185 82.8071 176.207Z" fill="#132032"/>
<path d="M69.0977 187.002V163.014H73.9981V187.002H69.0977Z" fill="#132032"/>
</svg>
