<svg width="212" height="32" viewBox="0 0 212 32" fill="none" xmlns="http://www.w3.org/2000/svg">
<path d="M56.2134 26.1481C50.7834 26.1481 46.8037 22.2715 46.8037 16.9246C46.8037 11.5777 50.7834 7.70117 56.2134 7.70117C62.2504 7.70117 66.2639 12.3129 65.4544 18.4953H51.7278C52.2674 20.5672 53.92 21.8037 56.2134 21.8037C57.7648 21.8037 59.1139 21.2022 59.8221 20.2664H65.0497C63.8018 23.8756 60.3617 26.1481 56.2134 26.1481ZM51.7615 15.2537H60.7327C60.1931 13.3154 58.608 12.0455 56.2134 12.0455C53.9537 12.0455 52.3348 13.282 51.7615 15.2537Z" fill="#132032"/>
<path d="M25.0304 4.99954C26.0382 4.99954 27.1147 5.36602 28.2599 6.09897C29.3823 6.80902 30.9283 8.06879 32.8982 9.87827C36.2881 7.03807 38.0962 6.3983 39.837 6.3983C40.9593 6.3983 41.9213 6.70752 42.723 7.32594C44.1998 8.45524 44.4461 11.0343 43.4114 12.7299C42.5869 14.0813 41.5104 15.5358 40.1819 17.0933C43.2053 20.529 44.8941 23.0011 44.8941 24.6961C44.8941 25.91 44.5161 26.8377 43.7603 27.479C42.9815 28.1203 42.008 28.441 40.8399 28.441C39.0762 28.441 36.311 27.1027 32.8982 24.2396C30.9512 25.9574 29.4166 27.1485 28.2943 27.8127C27.149 28.477 26.0611 28.8091 25.0304 28.8091C23.6561 28.8091 22.591 28.3624 21.8351 27.4692C21.0564 26.553 20.667 25.4764 20.667 24.2396C20.667 23.4379 20.7815 22.7393 21.0106 22.1438C21.2396 21.5483 21.6634 20.884 22.2818 20.1511C22.9002 19.3952 23.8851 18.353 25.2365 17.0246C23.9309 15.6961 22.9689 14.631 22.3505 13.8293C21.7092 13.0048 21.274 12.2833 21.0449 11.6648C20.793 11.0464 20.667 10.3593 20.667 9.60341C20.667 8.80174 20.8388 8.05734 21.1823 7.37019C21.5259 6.66014 22.0298 6.08752 22.6941 5.65233C23.3583 5.21714 24.1371 4.99954 25.0304 4.99954Z" fill="#26DDC7"/>
<path d="M9.40968 26.1481C3.97972 26.1481 0 22.2715 0 16.9246C0 11.5777 3.97972 7.70117 9.40968 7.70117C15.4467 7.70117 19.4602 12.3129 18.6507 18.4953H4.92406C5.46369 20.5672 7.11628 21.8037 9.40968 21.8037C10.9611 21.8037 12.3102 21.2022 13.0184 20.2664H18.246C16.9981 23.8756 13.558 26.1481 9.40968 26.1481ZM4.95779 15.2537H13.929C13.3894 13.3154 11.8043 12.0455 9.40968 12.0455C7.15001 12.0455 5.53114 13.282 4.95779 15.2537Z" fill="#132032"/>
<path d="M201.65 31.5619C196.955 31.5619 193.288 29.4715 192.74 25.1536H197.572C197.983 26.6271 199.662 27.2097 201.376 27.2097C204.117 27.2097 206.208 25.9075 206.208 23.2688V22.7205C204.734 23.8171 202.884 24.4682 200.862 24.4682C195.893 24.4682 192.089 20.9385 192.089 15.7982C192.089 10.8634 195.858 7.05957 200.862 7.05957C203.089 7.05957 205.111 7.84776 206.653 9.18424L206.79 7.43653H211.04V22.7205C211.04 28.4434 206.996 31.5619 201.65 31.5619ZM197.058 15.901C197.058 18.4711 198.874 20.2874 201.616 20.2874C204.391 20.2874 206.208 18.5054 206.208 15.901C206.208 13.2965 204.391 11.5145 201.616 11.5145C198.874 11.5145 197.058 13.3651 197.058 15.901Z" fill="#132032"/>
<path d="M171.002 25.599V7.43644H175.628L175.765 9.59538C177.17 7.98474 179.158 7.09375 181.591 7.09375C186.32 7.09375 188.616 10.178 188.616 15.0784V25.599H183.716V15.6267C183.716 13.0223 182.448 11.6173 180.152 11.6173C177.582 11.6173 175.902 13.1594 175.902 15.7295V25.599H171.002Z" fill="#132032"/>
<path d="M161.063 25.5989V7.43636H165.963V25.5989H161.063ZM160.549 2.87859C160.549 1.23368 161.783 0 163.53 0C165.244 0 166.477 1.23368 166.477 2.87859C166.477 4.5235 165.244 5.72292 163.53 5.72292C161.783 5.72292 160.549 4.5235 160.549 2.87859Z" fill="#132032"/>
<path d="M138.708 25.599V7.43644H143.334L143.471 9.59538C144.876 7.98474 146.864 7.09375 149.297 7.09375C154.026 7.09375 156.322 10.178 156.322 15.0784V25.599H151.422V15.6267C151.422 13.0223 150.154 11.6173 147.858 11.6173C145.288 11.6173 143.608 13.1594 143.608 15.7295V25.599H138.708Z" fill="#132032"/>
<path d="M123.682 25.5993V7.43675H128.239L128.411 9.45862C129.644 7.95078 131.392 7.1626 133.38 7.1626C134.065 7.1626 134.785 7.2654 135.47 7.43675V11.9603C134.716 11.8232 134.031 11.7204 133.38 11.7204C130.398 11.7204 128.582 13.4681 128.582 16.4495V25.5993H123.682Z" fill="#132032"/>
<path d="M108.371 25.976C102.923 25.976 99.2217 21.8638 99.2217 16.5178C99.2217 10.9662 103.094 7.05957 108.371 7.05957C110.702 7.05957 112.724 7.88202 114.266 9.25278L114.437 7.43653H118.686V25.5991H114.437L114.266 23.7828C112.689 25.1536 110.633 25.976 108.371 25.976ZM104.191 16.5178C104.191 19.3621 106.213 21.384 109.023 21.384C111.798 21.384 113.82 19.3621 113.82 16.5178C113.82 13.6735 111.798 11.6516 109.023 11.6516C106.213 11.6516 104.191 13.6735 104.191 16.5178Z" fill="#132032"/>
<path d="M87.3315 25.976C81.8142 25.976 77.7705 22.0008 77.7705 16.5178C77.7705 11.0348 81.8142 7.05957 87.3315 7.05957C93.4657 7.05957 97.5437 11.7887 96.7212 18.1284H82.7738C83.3221 20.2531 85.0013 21.5211 87.3315 21.5211C88.9079 21.5211 90.2787 20.9042 90.9983 19.9447H96.31C95.0421 23.6457 91.5466 25.976 87.3315 25.976ZM82.808 14.8044H91.9236C91.3753 12.8168 89.7646 11.5145 87.3315 11.5145C85.0355 11.5145 83.3906 12.7825 82.808 14.8044Z" fill="#132032"/>
<path d="M69.0986 25.5991V1.61084H73.9991V25.5991H69.0986Z" fill="#132032"/>
</svg>
