<svg width="212" height="32" viewBox="0 0 212 32" fill="none" xmlns="http://www.w3.org/2000/svg">
<path d="M56.2144 26.1481C50.7844 26.1481 46.8047 22.2715 46.8047 16.9246C46.8047 11.5777 50.7844 7.70117 56.2144 7.70117C62.2514 7.70117 66.2649 12.3129 65.4554 18.4953H51.7287C52.2684 20.5672 53.921 21.8037 56.2144 21.8037C57.7658 21.8037 59.1148 21.2022 59.8231 20.2664H65.0507C63.8028 23.8756 60.3627 26.1481 56.2144 26.1481ZM51.7625 15.2537H60.7337C60.1941 13.3154 58.6089 12.0455 56.2144 12.0455C53.9547 12.0455 52.3358 13.282 51.7625 15.2537Z" fill="#132032"/>
<path d="M25.0294 4.99954C26.0372 4.99954 27.1137 5.36602 28.259 6.09897C29.3813 6.80902 30.9274 8.06879 32.8972 9.87827C36.2871 7.03807 38.0953 6.3983 39.836 6.3983C40.9583 6.3983 41.9204 6.70752 42.722 7.32594C44.1988 8.45524 44.4451 11.0343 43.4105 12.7299C42.5859 14.0813 41.5094 15.5358 40.1809 17.0933C43.2043 20.529 44.8931 23.0011 44.8931 24.6961C44.8931 25.91 44.5151 26.8377 43.7593 27.479C42.9805 28.1203 42.0071 28.441 40.8389 28.441C39.0753 28.441 36.31 27.1027 32.8972 24.2396C30.9503 25.9574 29.4156 27.1485 28.2933 27.8127C27.1481 28.477 26.0601 28.8091 25.0294 28.8091C23.6551 28.8091 22.59 28.3624 21.8342 27.4692C21.0554 26.553 20.666 25.4764 20.666 24.2396C20.666 23.4379 20.7805 22.7393 21.0096 22.1438C21.2386 21.5483 21.6624 20.884 22.2808 20.1511C22.8992 19.3952 23.8841 18.353 25.2355 17.0246C23.9299 15.6961 22.9679 14.631 22.3495 13.8293C21.7082 13.0048 21.273 12.2833 21.0439 11.6648C20.792 11.0464 20.666 10.3593 20.666 9.60341C20.666 8.80174 20.8378 8.05734 21.1814 7.37019C21.5249 6.66014 22.0289 6.08752 22.6931 5.65233C23.3573 5.21714 24.1361 4.99954 25.0294 4.99954Z" fill="#F87534"/>
<path d="M9.40968 26.1481C3.97972 26.1481 0 22.2715 0 16.9246C0 11.5777 3.97972 7.70117 9.40968 7.70117C15.4467 7.70117 19.4602 12.3129 18.6507 18.4953H4.92406C5.46369 20.5672 7.11628 21.8037 9.40968 21.8037C10.9611 21.8037 12.3102 21.2022 13.0184 20.2664H18.246C16.9981 23.8756 13.558 26.1481 9.40968 26.1481ZM4.95779 15.2537H13.929C13.3894 13.3154 11.8043 12.0455 9.40968 12.0455C7.15001 12.0455 5.53114 13.282 4.95779 15.2537Z" fill="#132032"/>
<path d="M201.649 31.5619C196.954 31.5619 193.287 29.4715 192.739 25.1536H197.571C197.982 26.6271 199.661 27.2097 201.375 27.2097C204.116 27.2097 206.207 25.9075 206.207 23.2688V22.7205C204.733 23.8171 202.883 24.4682 200.861 24.4682C195.892 24.4682 192.088 20.9385 192.088 15.7982C192.088 10.8634 195.857 7.05957 200.861 7.05957C203.088 7.05957 205.11 7.84776 206.652 9.18424L206.789 7.43653H211.039V22.7205C211.039 28.4434 206.995 31.5619 201.649 31.5619ZM197.057 15.901C197.057 18.4711 198.873 20.2874 201.615 20.2874C204.39 20.2874 206.207 18.5054 206.207 15.901C206.207 13.2965 204.39 11.5145 201.615 11.5145C198.873 11.5145 197.057 13.3651 197.057 15.901Z" fill="#132032"/>
<path d="M171 25.599V7.43644H175.626L175.763 9.59538C177.168 7.98474 179.156 7.09375 181.589 7.09375C186.318 7.09375 188.614 10.178 188.614 15.0784V25.599H183.714V15.6267C183.714 13.0223 182.446 11.6173 180.15 11.6173C177.58 11.6173 175.9 13.1594 175.9 15.7295V25.599H171Z" fill="#132032"/>
<path d="M161.061 25.5989V7.43636H165.961V25.5989H161.061ZM160.547 2.87859C160.547 1.23368 161.781 0 163.528 0C165.242 0 166.475 1.23368 166.475 2.87859C166.475 4.5235 165.242 5.72292 163.528 5.72292C161.781 5.72292 160.547 4.5235 160.547 2.87859Z" fill="#132032"/>
<path d="M138.707 25.599V7.43644H143.333L143.47 9.59538C144.875 7.98474 146.863 7.09375 149.296 7.09375C154.025 7.09375 156.321 10.178 156.321 15.0784V25.599H151.421V15.6267C151.421 13.0223 150.153 11.6173 147.857 11.6173C145.287 11.6173 143.607 13.1594 143.607 15.7295V25.599H138.707Z" fill="#132032"/>
<path d="M123.68 25.5993V7.43675H128.237L128.409 9.45862C129.642 7.95078 131.39 7.1626 133.378 7.1626C134.063 7.1626 134.783 7.2654 135.468 7.43675V11.9603C134.714 11.8232 134.029 11.7204 133.378 11.7204C130.396 11.7204 128.58 13.4681 128.58 16.4495V25.5993H123.68Z" fill="#132032"/>
<path d="M108.371 25.976C102.922 25.976 99.2207 21.8638 99.2207 16.5178C99.2207 10.9662 103.093 7.05957 108.371 7.05957C110.701 7.05957 112.723 7.88202 114.265 9.25278L114.436 7.43653H118.685V25.5991H114.436L114.265 23.7828C112.688 25.1536 110.632 25.976 108.371 25.976ZM104.19 16.5178C104.19 19.3621 106.212 21.384 109.022 21.384C111.797 21.384 113.819 19.3621 113.819 16.5178C113.819 13.6735 111.797 11.6516 109.022 11.6516C106.212 11.6516 104.19 13.6735 104.19 16.5178Z" fill="#132032"/>
<path d="M87.3306 25.976C81.8133 25.976 77.7695 22.0008 77.7695 16.5178C77.7695 11.0348 81.8133 7.05957 87.3306 7.05957C93.4647 7.05957 97.5427 11.7887 96.7203 18.1284H82.7728C83.3211 20.2531 85.0003 21.5211 87.3306 21.5211C88.9069 21.5211 90.2777 20.9042 90.9974 19.9447H96.309C95.0411 23.6457 91.5457 25.976 87.3306 25.976ZM82.8071 14.8044H91.9226C91.3743 12.8168 89.7637 11.5145 87.3306 11.5145C85.0346 11.5145 83.3896 12.7825 82.8071 14.8044Z" fill="#132032"/>
<path d="M69.0977 25.5991V1.61084H73.9981V25.5991H69.0977Z" fill="#132032"/>
</svg>
