<svg width="138" height="136" viewBox="0 0 138 136" fill="none" xmlns="http://www.w3.org/2000/svg">
<path d="M24.8118 1.8777e-05C30.5417 1.85212e-05 36.6623 2.08361 43.1735 6.25082C49.5546 10.2878 58.3448 17.4502 69.5442 27.738C88.8175 11.5901 99.0978 7.95263 108.995 7.95263C115.376 7.95263 120.845 9.71069 125.403 13.2268C133.799 19.6474 135.2 34.3105 129.318 43.951C124.629 51.6343 118.509 59.9036 110.956 68.7589C128.145 88.2927 137.747 102.348 137.747 111.985C137.747 118.886 135.598 124.161 131.301 127.807C126.873 131.453 121.338 133.276 114.697 133.276C104.67 133.276 88.9477 125.667 69.5442 109.389C58.475 119.156 49.7499 125.928 43.3689 129.704C36.8576 133.481 30.6719 135.369 24.8118 135.369C16.9983 135.369 10.9428 132.83 6.6454 127.751C2.21774 122.542 0.0039054 116.421 0.00390509 109.389C0.00390489 104.831 0.655028 100.859 1.95728 97.4736C3.25954 94.0877 5.6687 90.3112 9.18478 86.144C12.7009 81.8466 18.3005 75.9213 25.9838 68.3683C18.561 60.8152 13.0915 54.7597 9.57546 50.2018C5.92915 45.5137 3.45487 41.4116 2.15262 37.8956C0.720142 34.3795 0.00390157 30.4727 0.00390138 26.1753C0.00390117 21.6174 0.980589 17.3851 2.93396 13.4783C4.88735 9.44135 7.7523 6.18571 11.5288 3.71143C15.3054 1.23715 19.733 1.90037e-05 24.8118 1.8777e-05Z" fill="#26DDC7"/>
</svg>
